%TF.GenerationSoftware,KiCad,Pcbnew,(5.1.6)-1*%
%TF.CreationDate,2021-11-10T22:47:38+01:00*%
%TF.ProjectId,carteExtensionMidi,63617274-6545-4787-9465-6e73696f6e4d,rev?*%
%TF.SameCoordinates,Original*%
%TF.FileFunction,Soldermask,Bot*%
%TF.FilePolarity,Negative*%
%FSLAX46Y46*%
G04 Gerber Fmt 4.6, Leading zero omitted, Abs format (unit mm)*
G04 Created by KiCad (PCBNEW (5.1.6)-1) date 2021-11-10 22:47:38*
%MOMM*%
%LPD*%
G01*
G04 APERTURE LIST*
%ADD10C,0.100000*%
G04 APERTURE END LIST*
D10*
G36*
X170427935Y-134437664D02*
G01*
X170582624Y-134501739D01*
X170582626Y-134501740D01*
X170721844Y-134594762D01*
X170840238Y-134713156D01*
X170933260Y-134852374D01*
X170933261Y-134852376D01*
X170997336Y-135007065D01*
X171030000Y-135171281D01*
X171030000Y-135338719D01*
X170997336Y-135502935D01*
X170933261Y-135657624D01*
X170933260Y-135657626D01*
X170840238Y-135796844D01*
X170721844Y-135915238D01*
X170582626Y-136008260D01*
X170582625Y-136008261D01*
X170582624Y-136008261D01*
X170427935Y-136072336D01*
X170263719Y-136105000D01*
X170096281Y-136105000D01*
X169932065Y-136072336D01*
X169777376Y-136008261D01*
X169777375Y-136008261D01*
X169777374Y-136008260D01*
X169638156Y-135915238D01*
X169519762Y-135796844D01*
X169426740Y-135657626D01*
X169426739Y-135657624D01*
X169362664Y-135502935D01*
X169330000Y-135338719D01*
X169330000Y-135171281D01*
X169362664Y-135007065D01*
X169426739Y-134852376D01*
X169426740Y-134852374D01*
X169519762Y-134713156D01*
X169638156Y-134594762D01*
X169777374Y-134501740D01*
X169777376Y-134501739D01*
X169932065Y-134437664D01*
X170096281Y-134405000D01*
X170263719Y-134405000D01*
X170427935Y-134437664D01*
G37*
G36*
X122167935Y-134437664D02*
G01*
X122322624Y-134501739D01*
X122322626Y-134501740D01*
X122461844Y-134594762D01*
X122580238Y-134713156D01*
X122673260Y-134852374D01*
X122673261Y-134852376D01*
X122737336Y-135007065D01*
X122770000Y-135171281D01*
X122770000Y-135338719D01*
X122737336Y-135502935D01*
X122673261Y-135657624D01*
X122673260Y-135657626D01*
X122580238Y-135796844D01*
X122461844Y-135915238D01*
X122322626Y-136008260D01*
X122322625Y-136008261D01*
X122322624Y-136008261D01*
X122167935Y-136072336D01*
X122003719Y-136105000D01*
X121836281Y-136105000D01*
X121672065Y-136072336D01*
X121517376Y-136008261D01*
X121517375Y-136008261D01*
X121517374Y-136008260D01*
X121378156Y-135915238D01*
X121259762Y-135796844D01*
X121166740Y-135657626D01*
X121166739Y-135657624D01*
X121102664Y-135502935D01*
X121070000Y-135338719D01*
X121070000Y-135171281D01*
X121102664Y-135007065D01*
X121166739Y-134852376D01*
X121166740Y-134852374D01*
X121259762Y-134713156D01*
X121378156Y-134594762D01*
X121517374Y-134501740D01*
X121517376Y-134501739D01*
X121672065Y-134437664D01*
X121836281Y-134405000D01*
X122003719Y-134405000D01*
X122167935Y-134437664D01*
G37*
G36*
X150742935Y-133802664D02*
G01*
X150897624Y-133866739D01*
X150897626Y-133866740D01*
X151036844Y-133959762D01*
X151155238Y-134078156D01*
X151248260Y-134217374D01*
X151248261Y-134217376D01*
X151312336Y-134372065D01*
X151345000Y-134536281D01*
X151345000Y-134703719D01*
X151312336Y-134867935D01*
X151254706Y-135007064D01*
X151248260Y-135022626D01*
X151155238Y-135161844D01*
X151036844Y-135280238D01*
X150897626Y-135373260D01*
X150897625Y-135373261D01*
X150897624Y-135373261D01*
X150742935Y-135437336D01*
X150578719Y-135470000D01*
X150411281Y-135470000D01*
X150247065Y-135437336D01*
X150092376Y-135373261D01*
X150092375Y-135373261D01*
X150092374Y-135373260D01*
X149953156Y-135280238D01*
X149834762Y-135161844D01*
X149741740Y-135022626D01*
X149735294Y-135007064D01*
X149677664Y-134867935D01*
X149645000Y-134703719D01*
X149645000Y-134536281D01*
X149677664Y-134372065D01*
X149741739Y-134217376D01*
X149741740Y-134217374D01*
X149834762Y-134078156D01*
X149953156Y-133959762D01*
X150092374Y-133866740D01*
X150092376Y-133866739D01*
X150247065Y-133802664D01*
X150411281Y-133770000D01*
X150578719Y-133770000D01*
X150742935Y-133802664D01*
G37*
G36*
X137422520Y-131849586D02*
G01*
X137586310Y-131917430D01*
X137733717Y-132015924D01*
X137859076Y-132141283D01*
X137957570Y-132288690D01*
X138025414Y-132452480D01*
X138060000Y-132626358D01*
X138060000Y-132803642D01*
X138025414Y-132977520D01*
X137957570Y-133141310D01*
X137859076Y-133288717D01*
X137733717Y-133414076D01*
X137586310Y-133512570D01*
X137586309Y-133512571D01*
X137586308Y-133512571D01*
X137422520Y-133580414D01*
X137248644Y-133615000D01*
X137071356Y-133615000D01*
X136897480Y-133580414D01*
X136733692Y-133512571D01*
X136733691Y-133512571D01*
X136733690Y-133512570D01*
X136586283Y-133414076D01*
X136460924Y-133288717D01*
X136362430Y-133141310D01*
X136294586Y-132977520D01*
X136260000Y-132803642D01*
X136260000Y-132626358D01*
X136294586Y-132452480D01*
X136362430Y-132288690D01*
X136460924Y-132141283D01*
X136586283Y-132015924D01*
X136733690Y-131917430D01*
X136897480Y-131849586D01*
X137071356Y-131815000D01*
X137248644Y-131815000D01*
X137422520Y-131849586D01*
G37*
G36*
X139962520Y-131849586D02*
G01*
X140126310Y-131917430D01*
X140273717Y-132015924D01*
X140399076Y-132141283D01*
X140497570Y-132288690D01*
X140565414Y-132452480D01*
X140600000Y-132626358D01*
X140600000Y-132803642D01*
X140565414Y-132977520D01*
X140497570Y-133141310D01*
X140399076Y-133288717D01*
X140273717Y-133414076D01*
X140126310Y-133512570D01*
X140126309Y-133512571D01*
X140126308Y-133512571D01*
X139962520Y-133580414D01*
X139788644Y-133615000D01*
X139611356Y-133615000D01*
X139437480Y-133580414D01*
X139273692Y-133512571D01*
X139273691Y-133512571D01*
X139273690Y-133512570D01*
X139126283Y-133414076D01*
X139000924Y-133288717D01*
X138902430Y-133141310D01*
X138834586Y-132977520D01*
X138800000Y-132803642D01*
X138800000Y-132626358D01*
X138834586Y-132452480D01*
X138902430Y-132288690D01*
X139000924Y-132141283D01*
X139126283Y-132015924D01*
X139273690Y-131917430D01*
X139437480Y-131849586D01*
X139611356Y-131815000D01*
X139788644Y-131815000D01*
X139962520Y-131849586D01*
G37*
G36*
X132980000Y-133615000D02*
G01*
X131180000Y-133615000D01*
X131180000Y-131815000D01*
X132980000Y-131815000D01*
X132980000Y-133615000D01*
G37*
G36*
X134882520Y-131849586D02*
G01*
X135046310Y-131917430D01*
X135193717Y-132015924D01*
X135319076Y-132141283D01*
X135417570Y-132288690D01*
X135485414Y-132452480D01*
X135520000Y-132626358D01*
X135520000Y-132803642D01*
X135485414Y-132977520D01*
X135417570Y-133141310D01*
X135319076Y-133288717D01*
X135193717Y-133414076D01*
X135046310Y-133512570D01*
X135046309Y-133512571D01*
X135046308Y-133512571D01*
X134882520Y-133580414D01*
X134708644Y-133615000D01*
X134531356Y-133615000D01*
X134357480Y-133580414D01*
X134193692Y-133512571D01*
X134193691Y-133512571D01*
X134193690Y-133512570D01*
X134046283Y-133414076D01*
X133920924Y-133288717D01*
X133822430Y-133141310D01*
X133754586Y-132977520D01*
X133720000Y-132803642D01*
X133720000Y-132626358D01*
X133754586Y-132452480D01*
X133822430Y-132288690D01*
X133920924Y-132141283D01*
X134046283Y-132015924D01*
X134193690Y-131917430D01*
X134357480Y-131849586D01*
X134531356Y-131815000D01*
X134708644Y-131815000D01*
X134882520Y-131849586D01*
G37*
G36*
X142502520Y-131849586D02*
G01*
X142666310Y-131917430D01*
X142813717Y-132015924D01*
X142939076Y-132141283D01*
X143037570Y-132288690D01*
X143105414Y-132452480D01*
X143140000Y-132626358D01*
X143140000Y-132803642D01*
X143105414Y-132977520D01*
X143037570Y-133141310D01*
X142939076Y-133288717D01*
X142813717Y-133414076D01*
X142666310Y-133512570D01*
X142666309Y-133512571D01*
X142666308Y-133512571D01*
X142502520Y-133580414D01*
X142328644Y-133615000D01*
X142151356Y-133615000D01*
X141977480Y-133580414D01*
X141813692Y-133512571D01*
X141813691Y-133512571D01*
X141813690Y-133512570D01*
X141666283Y-133414076D01*
X141540924Y-133288717D01*
X141442430Y-133141310D01*
X141374586Y-132977520D01*
X141340000Y-132803642D01*
X141340000Y-132626358D01*
X141374586Y-132452480D01*
X141442430Y-132288690D01*
X141540924Y-132141283D01*
X141666283Y-132015924D01*
X141813690Y-131917430D01*
X141977480Y-131849586D01*
X142151356Y-131815000D01*
X142328644Y-131815000D01*
X142502520Y-131849586D01*
G37*
G36*
X170427935Y-131897664D02*
G01*
X170582624Y-131961739D01*
X170582626Y-131961740D01*
X170721844Y-132054762D01*
X170840238Y-132173156D01*
X170917435Y-132288690D01*
X170933261Y-132312376D01*
X170997336Y-132467065D01*
X171030000Y-132631281D01*
X171030000Y-132798719D01*
X170997336Y-132962935D01*
X170933261Y-133117624D01*
X170933260Y-133117626D01*
X170840238Y-133256844D01*
X170721844Y-133375238D01*
X170582626Y-133468260D01*
X170582625Y-133468261D01*
X170582624Y-133468261D01*
X170427935Y-133532336D01*
X170263719Y-133565000D01*
X170096281Y-133565000D01*
X169932065Y-133532336D01*
X169777376Y-133468261D01*
X169777375Y-133468261D01*
X169777374Y-133468260D01*
X169638156Y-133375238D01*
X169519762Y-133256844D01*
X169426740Y-133117626D01*
X169426739Y-133117624D01*
X169362664Y-132962935D01*
X169330000Y-132798719D01*
X169330000Y-132631281D01*
X169362664Y-132467065D01*
X169426739Y-132312376D01*
X169442565Y-132288690D01*
X169519762Y-132173156D01*
X169638156Y-132054762D01*
X169777374Y-131961740D01*
X169777376Y-131961739D01*
X169932065Y-131897664D01*
X170096281Y-131865000D01*
X170263719Y-131865000D01*
X170427935Y-131897664D01*
G37*
G36*
X122167935Y-131897664D02*
G01*
X122322624Y-131961739D01*
X122322626Y-131961740D01*
X122461844Y-132054762D01*
X122580238Y-132173156D01*
X122657435Y-132288690D01*
X122673261Y-132312376D01*
X122737336Y-132467065D01*
X122770000Y-132631281D01*
X122770000Y-132798719D01*
X122737336Y-132962935D01*
X122673261Y-133117624D01*
X122673260Y-133117626D01*
X122580238Y-133256844D01*
X122461844Y-133375238D01*
X122322626Y-133468260D01*
X122322625Y-133468261D01*
X122322624Y-133468261D01*
X122167935Y-133532336D01*
X122003719Y-133565000D01*
X121836281Y-133565000D01*
X121672065Y-133532336D01*
X121517376Y-133468261D01*
X121517375Y-133468261D01*
X121517374Y-133468260D01*
X121378156Y-133375238D01*
X121259762Y-133256844D01*
X121166740Y-133117626D01*
X121166739Y-133117624D01*
X121102664Y-132962935D01*
X121070000Y-132798719D01*
X121070000Y-132631281D01*
X121102664Y-132467065D01*
X121166739Y-132312376D01*
X121182565Y-132288690D01*
X121259762Y-132173156D01*
X121378156Y-132054762D01*
X121517374Y-131961740D01*
X121517376Y-131961739D01*
X121672065Y-131897664D01*
X121836281Y-131865000D01*
X122003719Y-131865000D01*
X122167935Y-131897664D01*
G37*
G36*
X164396627Y-129337299D02*
G01*
X164463762Y-129357664D01*
X164556855Y-129385903D01*
X164556857Y-129385904D01*
X164704518Y-129464831D01*
X164833949Y-129571051D01*
X164940169Y-129700482D01*
X165019096Y-129848143D01*
X165067701Y-130008373D01*
X165084112Y-130175000D01*
X165067701Y-130341627D01*
X165019096Y-130501857D01*
X164940169Y-130649518D01*
X164833949Y-130778949D01*
X164704518Y-130885169D01*
X164623901Y-130928260D01*
X164556855Y-130964097D01*
X164476742Y-130988398D01*
X164396627Y-131012701D01*
X164271752Y-131025000D01*
X163388248Y-131025000D01*
X163263373Y-131012701D01*
X163183258Y-130988398D01*
X163103145Y-130964097D01*
X163036099Y-130928260D01*
X162955482Y-130885169D01*
X162826051Y-130778949D01*
X162719831Y-130649518D01*
X162640904Y-130501857D01*
X162592299Y-130341627D01*
X162575888Y-130175000D01*
X162592299Y-130008373D01*
X162640904Y-129848143D01*
X162719831Y-129700482D01*
X162826051Y-129571051D01*
X162955482Y-129464831D01*
X163103143Y-129385904D01*
X163103145Y-129385903D01*
X163196238Y-129357664D01*
X163263373Y-129337299D01*
X163388248Y-129325000D01*
X164271752Y-129325000D01*
X164396627Y-129337299D01*
G37*
G36*
X156776627Y-129337299D02*
G01*
X156843762Y-129357664D01*
X156936855Y-129385903D01*
X156936857Y-129385904D01*
X157084518Y-129464831D01*
X157213949Y-129571051D01*
X157320169Y-129700482D01*
X157399096Y-129848143D01*
X157447701Y-130008373D01*
X157464112Y-130175000D01*
X157447701Y-130341627D01*
X157399096Y-130501857D01*
X157320169Y-130649518D01*
X157213949Y-130778949D01*
X157084518Y-130885169D01*
X157003901Y-130928260D01*
X156936855Y-130964097D01*
X156856742Y-130988398D01*
X156776627Y-131012701D01*
X156651752Y-131025000D01*
X155768248Y-131025000D01*
X155643373Y-131012701D01*
X155563258Y-130988398D01*
X155483145Y-130964097D01*
X155416099Y-130928260D01*
X155335482Y-130885169D01*
X155206051Y-130778949D01*
X155099831Y-130649518D01*
X155020904Y-130501857D01*
X154972299Y-130341627D01*
X154955888Y-130175000D01*
X154972299Y-130008373D01*
X155020904Y-129848143D01*
X155099831Y-129700482D01*
X155206051Y-129571051D01*
X155335482Y-129464831D01*
X155483143Y-129385904D01*
X155483145Y-129385903D01*
X155576238Y-129357664D01*
X155643373Y-129337299D01*
X155768248Y-129325000D01*
X156651752Y-129325000D01*
X156776627Y-129337299D01*
G37*
G36*
X122167935Y-129357664D02*
G01*
X122322624Y-129421739D01*
X122322626Y-129421740D01*
X122461844Y-129514762D01*
X122580238Y-129633156D01*
X122673260Y-129772374D01*
X122673261Y-129772376D01*
X122737336Y-129927065D01*
X122770000Y-130091281D01*
X122770000Y-130258719D01*
X122737336Y-130422935D01*
X122704646Y-130501855D01*
X122673260Y-130577626D01*
X122580238Y-130716844D01*
X122461844Y-130835238D01*
X122322626Y-130928260D01*
X122322625Y-130928261D01*
X122322624Y-130928261D01*
X122167935Y-130992336D01*
X122003719Y-131025000D01*
X121836281Y-131025000D01*
X121672065Y-130992336D01*
X121517376Y-130928261D01*
X121517375Y-130928261D01*
X121517374Y-130928260D01*
X121378156Y-130835238D01*
X121259762Y-130716844D01*
X121166740Y-130577626D01*
X121135354Y-130501855D01*
X121102664Y-130422935D01*
X121070000Y-130258719D01*
X121070000Y-130091281D01*
X121102664Y-129927065D01*
X121166739Y-129772376D01*
X121166740Y-129772374D01*
X121259762Y-129633156D01*
X121378156Y-129514762D01*
X121517374Y-129421740D01*
X121517376Y-129421739D01*
X121672065Y-129357664D01*
X121836281Y-129325000D01*
X122003719Y-129325000D01*
X122167935Y-129357664D01*
G37*
G36*
X170427935Y-129357664D02*
G01*
X170582624Y-129421739D01*
X170582626Y-129421740D01*
X170721844Y-129514762D01*
X170840238Y-129633156D01*
X170933260Y-129772374D01*
X170933261Y-129772376D01*
X170997336Y-129927065D01*
X171030000Y-130091281D01*
X171030000Y-130258719D01*
X170997336Y-130422935D01*
X170964646Y-130501855D01*
X170933260Y-130577626D01*
X170840238Y-130716844D01*
X170721844Y-130835238D01*
X170582626Y-130928260D01*
X170582625Y-130928261D01*
X170582624Y-130928261D01*
X170427935Y-130992336D01*
X170263719Y-131025000D01*
X170096281Y-131025000D01*
X169932065Y-130992336D01*
X169777376Y-130928261D01*
X169777375Y-130928261D01*
X169777374Y-130928260D01*
X169638156Y-130835238D01*
X169519762Y-130716844D01*
X169426740Y-130577626D01*
X169395354Y-130501855D01*
X169362664Y-130422935D01*
X169330000Y-130258719D01*
X169330000Y-130091281D01*
X169362664Y-129927065D01*
X169426739Y-129772376D01*
X169426740Y-129772374D01*
X169519762Y-129633156D01*
X169638156Y-129514762D01*
X169777374Y-129421740D01*
X169777376Y-129421739D01*
X169932065Y-129357664D01*
X170096281Y-129325000D01*
X170263719Y-129325000D01*
X170427935Y-129357664D01*
G37*
G36*
X164396627Y-126797299D02*
G01*
X164463762Y-126817664D01*
X164556855Y-126845903D01*
X164556857Y-126845904D01*
X164704518Y-126924831D01*
X164833949Y-127031051D01*
X164940169Y-127160482D01*
X165019096Y-127308143D01*
X165067701Y-127468373D01*
X165084112Y-127635000D01*
X165067701Y-127801627D01*
X165019096Y-127961857D01*
X164940169Y-128109518D01*
X164833949Y-128238949D01*
X164704518Y-128345169D01*
X164623901Y-128388260D01*
X164556855Y-128424097D01*
X164476742Y-128448398D01*
X164396627Y-128472701D01*
X164271752Y-128485000D01*
X163388248Y-128485000D01*
X163263373Y-128472701D01*
X163183258Y-128448398D01*
X163103145Y-128424097D01*
X163036099Y-128388260D01*
X162955482Y-128345169D01*
X162826051Y-128238949D01*
X162719831Y-128109518D01*
X162640904Y-127961857D01*
X162592299Y-127801627D01*
X162575888Y-127635000D01*
X162592299Y-127468373D01*
X162640904Y-127308143D01*
X162719831Y-127160482D01*
X162826051Y-127031051D01*
X162955482Y-126924831D01*
X163103143Y-126845904D01*
X163103145Y-126845903D01*
X163196238Y-126817664D01*
X163263373Y-126797299D01*
X163388248Y-126785000D01*
X164271752Y-126785000D01*
X164396627Y-126797299D01*
G37*
G36*
X156776627Y-126797299D02*
G01*
X156843762Y-126817664D01*
X156936855Y-126845903D01*
X156936857Y-126845904D01*
X157084518Y-126924831D01*
X157213949Y-127031051D01*
X157320169Y-127160482D01*
X157399096Y-127308143D01*
X157447701Y-127468373D01*
X157464112Y-127635000D01*
X157447701Y-127801627D01*
X157399096Y-127961857D01*
X157320169Y-128109518D01*
X157213949Y-128238949D01*
X157084518Y-128345169D01*
X157003901Y-128388260D01*
X156936855Y-128424097D01*
X156856742Y-128448398D01*
X156776627Y-128472701D01*
X156651752Y-128485000D01*
X155768248Y-128485000D01*
X155643373Y-128472701D01*
X155563258Y-128448398D01*
X155483145Y-128424097D01*
X155416099Y-128388260D01*
X155335482Y-128345169D01*
X155206051Y-128238949D01*
X155099831Y-128109518D01*
X155020904Y-127961857D01*
X154972299Y-127801627D01*
X154955888Y-127635000D01*
X154972299Y-127468373D01*
X155020904Y-127308143D01*
X155099831Y-127160482D01*
X155206051Y-127031051D01*
X155335482Y-126924831D01*
X155483143Y-126845904D01*
X155483145Y-126845903D01*
X155576238Y-126817664D01*
X155643373Y-126797299D01*
X155768248Y-126785000D01*
X156651752Y-126785000D01*
X156776627Y-126797299D01*
G37*
G36*
X122167935Y-126817664D02*
G01*
X122322624Y-126881739D01*
X122322626Y-126881740D01*
X122461844Y-126974762D01*
X122580238Y-127093156D01*
X122673260Y-127232374D01*
X122673261Y-127232376D01*
X122737336Y-127387065D01*
X122770000Y-127551281D01*
X122770000Y-127718719D01*
X122737336Y-127882935D01*
X122704646Y-127961855D01*
X122673260Y-128037626D01*
X122580238Y-128176844D01*
X122461844Y-128295238D01*
X122322626Y-128388260D01*
X122322625Y-128388261D01*
X122322624Y-128388261D01*
X122167935Y-128452336D01*
X122003719Y-128485000D01*
X121836281Y-128485000D01*
X121672065Y-128452336D01*
X121517376Y-128388261D01*
X121517375Y-128388261D01*
X121517374Y-128388260D01*
X121378156Y-128295238D01*
X121259762Y-128176844D01*
X121166740Y-128037626D01*
X121135354Y-127961855D01*
X121102664Y-127882935D01*
X121070000Y-127718719D01*
X121070000Y-127551281D01*
X121102664Y-127387065D01*
X121166739Y-127232376D01*
X121166740Y-127232374D01*
X121259762Y-127093156D01*
X121378156Y-126974762D01*
X121517374Y-126881740D01*
X121517376Y-126881739D01*
X121672065Y-126817664D01*
X121836281Y-126785000D01*
X122003719Y-126785000D01*
X122167935Y-126817664D01*
G37*
G36*
X170427935Y-126817664D02*
G01*
X170582624Y-126881739D01*
X170582626Y-126881740D01*
X170721844Y-126974762D01*
X170840238Y-127093156D01*
X170933260Y-127232374D01*
X170933261Y-127232376D01*
X170997336Y-127387065D01*
X171030000Y-127551281D01*
X171030000Y-127718719D01*
X170997336Y-127882935D01*
X170964646Y-127961855D01*
X170933260Y-128037626D01*
X170840238Y-128176844D01*
X170721844Y-128295238D01*
X170582626Y-128388260D01*
X170582625Y-128388261D01*
X170582624Y-128388261D01*
X170427935Y-128452336D01*
X170263719Y-128485000D01*
X170096281Y-128485000D01*
X169932065Y-128452336D01*
X169777376Y-128388261D01*
X169777375Y-128388261D01*
X169777374Y-128388260D01*
X169638156Y-128295238D01*
X169519762Y-128176844D01*
X169426740Y-128037626D01*
X169395354Y-127961855D01*
X169362664Y-127882935D01*
X169330000Y-127718719D01*
X169330000Y-127551281D01*
X169362664Y-127387065D01*
X169426739Y-127232376D01*
X169426740Y-127232374D01*
X169519762Y-127093156D01*
X169638156Y-126974762D01*
X169777374Y-126881740D01*
X169777376Y-126881739D01*
X169932065Y-126817664D01*
X170096281Y-126785000D01*
X170263719Y-126785000D01*
X170427935Y-126817664D01*
G37*
G36*
X151345000Y-127850000D02*
G01*
X149645000Y-127850000D01*
X149645000Y-126150000D01*
X151345000Y-126150000D01*
X151345000Y-127850000D01*
G37*
G36*
X145027935Y-126182664D02*
G01*
X145182624Y-126246739D01*
X145182626Y-126246740D01*
X145321844Y-126339762D01*
X145440238Y-126458156D01*
X145533260Y-126597374D01*
X145533261Y-126597376D01*
X145597336Y-126752065D01*
X145630000Y-126916281D01*
X145630000Y-127083719D01*
X145597336Y-127247935D01*
X145539706Y-127387064D01*
X145533260Y-127402626D01*
X145440238Y-127541844D01*
X145321844Y-127660238D01*
X145182626Y-127753260D01*
X145182625Y-127753261D01*
X145182624Y-127753261D01*
X145027935Y-127817336D01*
X144863719Y-127850000D01*
X144696281Y-127850000D01*
X144532065Y-127817336D01*
X144377376Y-127753261D01*
X144377375Y-127753261D01*
X144377374Y-127753260D01*
X144238156Y-127660238D01*
X144119762Y-127541844D01*
X144026740Y-127402626D01*
X144020294Y-127387064D01*
X143962664Y-127247935D01*
X143930000Y-127083719D01*
X143930000Y-126916281D01*
X143962664Y-126752065D01*
X144026739Y-126597376D01*
X144026740Y-126597374D01*
X144119762Y-126458156D01*
X144238156Y-126339762D01*
X144377374Y-126246740D01*
X144377376Y-126246739D01*
X144532065Y-126182664D01*
X144696281Y-126150000D01*
X144863719Y-126150000D01*
X145027935Y-126182664D01*
G37*
G36*
X134867935Y-126182664D02*
G01*
X135022624Y-126246739D01*
X135022626Y-126246740D01*
X135161844Y-126339762D01*
X135280238Y-126458156D01*
X135373260Y-126597374D01*
X135373261Y-126597376D01*
X135437336Y-126752065D01*
X135470000Y-126916281D01*
X135470000Y-127083719D01*
X135437336Y-127247935D01*
X135379706Y-127387064D01*
X135373260Y-127402626D01*
X135280238Y-127541844D01*
X135161844Y-127660238D01*
X135022626Y-127753260D01*
X135022625Y-127753261D01*
X135022624Y-127753261D01*
X134867935Y-127817336D01*
X134703719Y-127850000D01*
X134536281Y-127850000D01*
X134372065Y-127817336D01*
X134217376Y-127753261D01*
X134217375Y-127753261D01*
X134217374Y-127753260D01*
X134078156Y-127660238D01*
X133959762Y-127541844D01*
X133866740Y-127402626D01*
X133860294Y-127387064D01*
X133802664Y-127247935D01*
X133770000Y-127083719D01*
X133770000Y-126916281D01*
X133802664Y-126752065D01*
X133866739Y-126597376D01*
X133866740Y-126597374D01*
X133959762Y-126458156D01*
X134078156Y-126339762D01*
X134217374Y-126246740D01*
X134217376Y-126246739D01*
X134372065Y-126182664D01*
X134536281Y-126150000D01*
X134703719Y-126150000D01*
X134867935Y-126182664D01*
G37*
G36*
X170427935Y-124277664D02*
G01*
X170582624Y-124341739D01*
X170582626Y-124341740D01*
X170721844Y-124434762D01*
X170840238Y-124553156D01*
X170933260Y-124692374D01*
X170933261Y-124692376D01*
X170997336Y-124847065D01*
X171030000Y-125011281D01*
X171030000Y-125178719D01*
X170997336Y-125342935D01*
X170964646Y-125421855D01*
X170933260Y-125497626D01*
X170840238Y-125636844D01*
X170721844Y-125755238D01*
X170582626Y-125848260D01*
X170582625Y-125848261D01*
X170582624Y-125848261D01*
X170427935Y-125912336D01*
X170263719Y-125945000D01*
X170096281Y-125945000D01*
X169932065Y-125912336D01*
X169777376Y-125848261D01*
X169777375Y-125848261D01*
X169777374Y-125848260D01*
X169638156Y-125755238D01*
X169519762Y-125636844D01*
X169426740Y-125497626D01*
X169395354Y-125421855D01*
X169362664Y-125342935D01*
X169330000Y-125178719D01*
X169330000Y-125011281D01*
X169362664Y-124847065D01*
X169426739Y-124692376D01*
X169426740Y-124692374D01*
X169519762Y-124553156D01*
X169638156Y-124434762D01*
X169777374Y-124341740D01*
X169777376Y-124341739D01*
X169932065Y-124277664D01*
X170096281Y-124245000D01*
X170263719Y-124245000D01*
X170427935Y-124277664D01*
G37*
G36*
X122167935Y-124277664D02*
G01*
X122322624Y-124341739D01*
X122322626Y-124341740D01*
X122461844Y-124434762D01*
X122580238Y-124553156D01*
X122673260Y-124692374D01*
X122673261Y-124692376D01*
X122737336Y-124847065D01*
X122770000Y-125011281D01*
X122770000Y-125178719D01*
X122737336Y-125342935D01*
X122704646Y-125421855D01*
X122673260Y-125497626D01*
X122580238Y-125636844D01*
X122461844Y-125755238D01*
X122322626Y-125848260D01*
X122322625Y-125848261D01*
X122322624Y-125848261D01*
X122167935Y-125912336D01*
X122003719Y-125945000D01*
X121836281Y-125945000D01*
X121672065Y-125912336D01*
X121517376Y-125848261D01*
X121517375Y-125848261D01*
X121517374Y-125848260D01*
X121378156Y-125755238D01*
X121259762Y-125636844D01*
X121166740Y-125497626D01*
X121135354Y-125421855D01*
X121102664Y-125342935D01*
X121070000Y-125178719D01*
X121070000Y-125011281D01*
X121102664Y-124847065D01*
X121166739Y-124692376D01*
X121166740Y-124692374D01*
X121259762Y-124553156D01*
X121378156Y-124434762D01*
X121517374Y-124341740D01*
X121517376Y-124341739D01*
X121672065Y-124277664D01*
X121836281Y-124245000D01*
X122003719Y-124245000D01*
X122167935Y-124277664D01*
G37*
G36*
X157460000Y-125945000D02*
G01*
X154960000Y-125945000D01*
X154960000Y-124245000D01*
X157460000Y-124245000D01*
X157460000Y-125945000D01*
G37*
G36*
X164396627Y-124257299D02*
G01*
X164463762Y-124277664D01*
X164556855Y-124305903D01*
X164556857Y-124305904D01*
X164704518Y-124384831D01*
X164833949Y-124491051D01*
X164940169Y-124620482D01*
X165019096Y-124768143D01*
X165067701Y-124928373D01*
X165084112Y-125095000D01*
X165067701Y-125261627D01*
X165019096Y-125421857D01*
X164940169Y-125569518D01*
X164833949Y-125698949D01*
X164704518Y-125805169D01*
X164623901Y-125848260D01*
X164556855Y-125884097D01*
X164476742Y-125908399D01*
X164396627Y-125932701D01*
X164271752Y-125945000D01*
X163388248Y-125945000D01*
X163263373Y-125932701D01*
X163183258Y-125908399D01*
X163103145Y-125884097D01*
X163036099Y-125848260D01*
X162955482Y-125805169D01*
X162826051Y-125698949D01*
X162719831Y-125569518D01*
X162640904Y-125421857D01*
X162592299Y-125261627D01*
X162575888Y-125095000D01*
X162592299Y-124928373D01*
X162640904Y-124768143D01*
X162719831Y-124620482D01*
X162826051Y-124491051D01*
X162955482Y-124384831D01*
X163103143Y-124305904D01*
X163103145Y-124305903D01*
X163196238Y-124277664D01*
X163263373Y-124257299D01*
X163388248Y-124245000D01*
X164271752Y-124245000D01*
X164396627Y-124257299D01*
G37*
G36*
X170427935Y-121737664D02*
G01*
X170582624Y-121801739D01*
X170582626Y-121801740D01*
X170721844Y-121894762D01*
X170840238Y-122013156D01*
X170933260Y-122152374D01*
X170933261Y-122152376D01*
X170997336Y-122307065D01*
X171030000Y-122471281D01*
X171030000Y-122638719D01*
X170997336Y-122802935D01*
X170933261Y-122957624D01*
X170933260Y-122957626D01*
X170840238Y-123096844D01*
X170721844Y-123215238D01*
X170582626Y-123308260D01*
X170582625Y-123308261D01*
X170582624Y-123308261D01*
X170427935Y-123372336D01*
X170263719Y-123405000D01*
X170096281Y-123405000D01*
X169932065Y-123372336D01*
X169777376Y-123308261D01*
X169777375Y-123308261D01*
X169777374Y-123308260D01*
X169638156Y-123215238D01*
X169519762Y-123096844D01*
X169426740Y-122957626D01*
X169426739Y-122957624D01*
X169362664Y-122802935D01*
X169330000Y-122638719D01*
X169330000Y-122471281D01*
X169362664Y-122307065D01*
X169426739Y-122152376D01*
X169426740Y-122152374D01*
X169519762Y-122013156D01*
X169638156Y-121894762D01*
X169777374Y-121801740D01*
X169777376Y-121801739D01*
X169932065Y-121737664D01*
X170096281Y-121705000D01*
X170263719Y-121705000D01*
X170427935Y-121737664D01*
G37*
G36*
X122167935Y-121737664D02*
G01*
X122322624Y-121801739D01*
X122322626Y-121801740D01*
X122461844Y-121894762D01*
X122580238Y-122013156D01*
X122673260Y-122152374D01*
X122673261Y-122152376D01*
X122737336Y-122307065D01*
X122770000Y-122471281D01*
X122770000Y-122638719D01*
X122737336Y-122802935D01*
X122673261Y-122957624D01*
X122673260Y-122957626D01*
X122580238Y-123096844D01*
X122461844Y-123215238D01*
X122322626Y-123308260D01*
X122322625Y-123308261D01*
X122322624Y-123308261D01*
X122167935Y-123372336D01*
X122003719Y-123405000D01*
X121836281Y-123405000D01*
X121672065Y-123372336D01*
X121517376Y-123308261D01*
X121517375Y-123308261D01*
X121517374Y-123308260D01*
X121378156Y-123215238D01*
X121259762Y-123096844D01*
X121166740Y-122957626D01*
X121166739Y-122957624D01*
X121102664Y-122802935D01*
X121070000Y-122638719D01*
X121070000Y-122471281D01*
X121102664Y-122307065D01*
X121166739Y-122152376D01*
X121166740Y-122152374D01*
X121259762Y-122013156D01*
X121378156Y-121894762D01*
X121517374Y-121801740D01*
X121517376Y-121801739D01*
X121672065Y-121737664D01*
X121836281Y-121705000D01*
X122003719Y-121705000D01*
X122167935Y-121737664D01*
G37*
G36*
X153917935Y-119197664D02*
G01*
X154072624Y-119261739D01*
X154072626Y-119261740D01*
X154211844Y-119354762D01*
X154330238Y-119473156D01*
X154423260Y-119612374D01*
X154423261Y-119612376D01*
X154487336Y-119767065D01*
X154520000Y-119931281D01*
X154520000Y-120098719D01*
X154487336Y-120262935D01*
X154423261Y-120417624D01*
X154423260Y-120417626D01*
X154330238Y-120556844D01*
X154211844Y-120675238D01*
X154072626Y-120768260D01*
X154072625Y-120768261D01*
X154072624Y-120768261D01*
X153917935Y-120832336D01*
X153753719Y-120865000D01*
X153586281Y-120865000D01*
X153422065Y-120832336D01*
X153267376Y-120768261D01*
X153267375Y-120768261D01*
X153267374Y-120768260D01*
X153128156Y-120675238D01*
X153009762Y-120556844D01*
X152916740Y-120417626D01*
X152916739Y-120417624D01*
X152852664Y-120262935D01*
X152820000Y-120098719D01*
X152820000Y-119931281D01*
X152852664Y-119767065D01*
X152916739Y-119612376D01*
X152916740Y-119612374D01*
X153009762Y-119473156D01*
X153128156Y-119354762D01*
X153267374Y-119261740D01*
X153267376Y-119261739D01*
X153422065Y-119197664D01*
X153586281Y-119165000D01*
X153753719Y-119165000D01*
X153917935Y-119197664D01*
G37*
G36*
X164077935Y-119197664D02*
G01*
X164232624Y-119261739D01*
X164232626Y-119261740D01*
X164371844Y-119354762D01*
X164490238Y-119473156D01*
X164583260Y-119612374D01*
X164583261Y-119612376D01*
X164647336Y-119767065D01*
X164680000Y-119931281D01*
X164680000Y-120098719D01*
X164647336Y-120262935D01*
X164583261Y-120417624D01*
X164583260Y-120417626D01*
X164490238Y-120556844D01*
X164371844Y-120675238D01*
X164232626Y-120768260D01*
X164232625Y-120768261D01*
X164232624Y-120768261D01*
X164077935Y-120832336D01*
X163913719Y-120865000D01*
X163746281Y-120865000D01*
X163582065Y-120832336D01*
X163427376Y-120768261D01*
X163427375Y-120768261D01*
X163427374Y-120768260D01*
X163288156Y-120675238D01*
X163169762Y-120556844D01*
X163076740Y-120417626D01*
X163076739Y-120417624D01*
X163012664Y-120262935D01*
X162980000Y-120098719D01*
X162980000Y-119931281D01*
X163012664Y-119767065D01*
X163076739Y-119612376D01*
X163076740Y-119612374D01*
X163169762Y-119473156D01*
X163288156Y-119354762D01*
X163427374Y-119261740D01*
X163427376Y-119261739D01*
X163582065Y-119197664D01*
X163746281Y-119165000D01*
X163913719Y-119165000D01*
X164077935Y-119197664D01*
G37*
G36*
X170427935Y-119197664D02*
G01*
X170582624Y-119261739D01*
X170582626Y-119261740D01*
X170721844Y-119354762D01*
X170840238Y-119473156D01*
X170933260Y-119612374D01*
X170933261Y-119612376D01*
X170997336Y-119767065D01*
X171030000Y-119931281D01*
X171030000Y-120098719D01*
X170997336Y-120262935D01*
X170933261Y-120417624D01*
X170933260Y-120417626D01*
X170840238Y-120556844D01*
X170721844Y-120675238D01*
X170582626Y-120768260D01*
X170582625Y-120768261D01*
X170582624Y-120768261D01*
X170427935Y-120832336D01*
X170263719Y-120865000D01*
X170096281Y-120865000D01*
X169932065Y-120832336D01*
X169777376Y-120768261D01*
X169777375Y-120768261D01*
X169777374Y-120768260D01*
X169638156Y-120675238D01*
X169519762Y-120556844D01*
X169426740Y-120417626D01*
X169426739Y-120417624D01*
X169362664Y-120262935D01*
X169330000Y-120098719D01*
X169330000Y-119931281D01*
X169362664Y-119767065D01*
X169426739Y-119612376D01*
X169426740Y-119612374D01*
X169519762Y-119473156D01*
X169638156Y-119354762D01*
X169777374Y-119261740D01*
X169777376Y-119261739D01*
X169932065Y-119197664D01*
X170096281Y-119165000D01*
X170263719Y-119165000D01*
X170427935Y-119197664D01*
G37*
G36*
X122167935Y-116657664D02*
G01*
X122322624Y-116721739D01*
X122322626Y-116721740D01*
X122461844Y-116814762D01*
X122580238Y-116933156D01*
X122653433Y-117042701D01*
X122673261Y-117072376D01*
X122737336Y-117227065D01*
X122770000Y-117391281D01*
X122770000Y-117558719D01*
X122737336Y-117722935D01*
X122673261Y-117877624D01*
X122673260Y-117877626D01*
X122580238Y-118016844D01*
X122461844Y-118135238D01*
X122322626Y-118228260D01*
X122322625Y-118228261D01*
X122322624Y-118228261D01*
X122167935Y-118292336D01*
X122003719Y-118325000D01*
X121836281Y-118325000D01*
X121672065Y-118292336D01*
X121517376Y-118228261D01*
X121517375Y-118228261D01*
X121517374Y-118228260D01*
X121378156Y-118135238D01*
X121259762Y-118016844D01*
X121166740Y-117877626D01*
X121166739Y-117877624D01*
X121102664Y-117722935D01*
X121070000Y-117558719D01*
X121070000Y-117391281D01*
X121102664Y-117227065D01*
X121166739Y-117072376D01*
X121186567Y-117042701D01*
X121259762Y-116933156D01*
X121378156Y-116814762D01*
X121517374Y-116721740D01*
X121517376Y-116721739D01*
X121672065Y-116657664D01*
X121836281Y-116625000D01*
X122003719Y-116625000D01*
X122167935Y-116657664D01*
G37*
G36*
X170427935Y-116657664D02*
G01*
X170582624Y-116721739D01*
X170582626Y-116721740D01*
X170721844Y-116814762D01*
X170840238Y-116933156D01*
X170913433Y-117042701D01*
X170933261Y-117072376D01*
X170997336Y-117227065D01*
X171030000Y-117391281D01*
X171030000Y-117558719D01*
X170997336Y-117722935D01*
X170933261Y-117877624D01*
X170933260Y-117877626D01*
X170840238Y-118016844D01*
X170721844Y-118135238D01*
X170582626Y-118228260D01*
X170582625Y-118228261D01*
X170582624Y-118228261D01*
X170427935Y-118292336D01*
X170263719Y-118325000D01*
X170096281Y-118325000D01*
X169932065Y-118292336D01*
X169777376Y-118228261D01*
X169777375Y-118228261D01*
X169777374Y-118228260D01*
X169638156Y-118135238D01*
X169519762Y-118016844D01*
X169426740Y-117877626D01*
X169426739Y-117877624D01*
X169362664Y-117722935D01*
X169330000Y-117558719D01*
X169330000Y-117391281D01*
X169362664Y-117227065D01*
X169426739Y-117072376D01*
X169446567Y-117042701D01*
X169519762Y-116933156D01*
X169638156Y-116814762D01*
X169777374Y-116721740D01*
X169777376Y-116721739D01*
X169932065Y-116657664D01*
X170096281Y-116625000D01*
X170263719Y-116625000D01*
X170427935Y-116657664D01*
G37*
G36*
X131692935Y-115387664D02*
G01*
X131847624Y-115451739D01*
X131847626Y-115451740D01*
X131986844Y-115544762D01*
X132105238Y-115663156D01*
X132186651Y-115785000D01*
X132198261Y-115802376D01*
X132262336Y-115957065D01*
X132295000Y-116121281D01*
X132295000Y-116288719D01*
X132262336Y-116452935D01*
X132229646Y-116531855D01*
X132198260Y-116607626D01*
X132105238Y-116746844D01*
X131986844Y-116865238D01*
X131847626Y-116958260D01*
X131847625Y-116958261D01*
X131847624Y-116958261D01*
X131692935Y-117022336D01*
X131528719Y-117055000D01*
X131361281Y-117055000D01*
X131197065Y-117022336D01*
X131042376Y-116958261D01*
X131042375Y-116958261D01*
X131042374Y-116958260D01*
X130903156Y-116865238D01*
X130784762Y-116746844D01*
X130691740Y-116607626D01*
X130660354Y-116531855D01*
X130627664Y-116452935D01*
X130595000Y-116288719D01*
X130595000Y-116121281D01*
X130627664Y-115957065D01*
X130691739Y-115802376D01*
X130703349Y-115785000D01*
X130784762Y-115663156D01*
X130903156Y-115544762D01*
X131042374Y-115451740D01*
X131042376Y-115451739D01*
X131197065Y-115387664D01*
X131361281Y-115355000D01*
X131528719Y-115355000D01*
X131692935Y-115387664D01*
G37*
G36*
X137091627Y-115367299D02*
G01*
X137158762Y-115387664D01*
X137251855Y-115415903D01*
X137251857Y-115415904D01*
X137399518Y-115494831D01*
X137528949Y-115601051D01*
X137635169Y-115730482D01*
X137714096Y-115878143D01*
X137762701Y-116038373D01*
X137779112Y-116205000D01*
X137762701Y-116371627D01*
X137714096Y-116531857D01*
X137635169Y-116679518D01*
X137528949Y-116808949D01*
X137399518Y-116915169D01*
X137318901Y-116958260D01*
X137251855Y-116994097D01*
X137171742Y-117018398D01*
X137091627Y-117042701D01*
X136966752Y-117055000D01*
X136083248Y-117055000D01*
X135958373Y-117042701D01*
X135878258Y-117018398D01*
X135798145Y-116994097D01*
X135731099Y-116958260D01*
X135650482Y-116915169D01*
X135521051Y-116808949D01*
X135414831Y-116679518D01*
X135335904Y-116531857D01*
X135287299Y-116371627D01*
X135270888Y-116205000D01*
X135287299Y-116038373D01*
X135335904Y-115878143D01*
X135414831Y-115730482D01*
X135521051Y-115601051D01*
X135650482Y-115494831D01*
X135798143Y-115415904D01*
X135798145Y-115415903D01*
X135891238Y-115387664D01*
X135958373Y-115367299D01*
X136083248Y-115355000D01*
X136966752Y-115355000D01*
X137091627Y-115367299D01*
G37*
G36*
X145395000Y-117055000D02*
G01*
X142895000Y-117055000D01*
X142895000Y-115355000D01*
X145395000Y-115355000D01*
X145395000Y-117055000D01*
G37*
G36*
X122167935Y-114117664D02*
G01*
X122322624Y-114181739D01*
X122322626Y-114181740D01*
X122461844Y-114274762D01*
X122580238Y-114393156D01*
X122653433Y-114502701D01*
X122673261Y-114532376D01*
X122737336Y-114687065D01*
X122770000Y-114851281D01*
X122770000Y-115018719D01*
X122737336Y-115182935D01*
X122673261Y-115337624D01*
X122673260Y-115337626D01*
X122580238Y-115476844D01*
X122461844Y-115595238D01*
X122322626Y-115688260D01*
X122322625Y-115688261D01*
X122322624Y-115688261D01*
X122167935Y-115752336D01*
X122003719Y-115785000D01*
X121836281Y-115785000D01*
X121672065Y-115752336D01*
X121517376Y-115688261D01*
X121517375Y-115688261D01*
X121517374Y-115688260D01*
X121378156Y-115595238D01*
X121259762Y-115476844D01*
X121166740Y-115337626D01*
X121166739Y-115337624D01*
X121102664Y-115182935D01*
X121070000Y-115018719D01*
X121070000Y-114851281D01*
X121102664Y-114687065D01*
X121166739Y-114532376D01*
X121186567Y-114502701D01*
X121259762Y-114393156D01*
X121378156Y-114274762D01*
X121517374Y-114181740D01*
X121517376Y-114181739D01*
X121672065Y-114117664D01*
X121836281Y-114085000D01*
X122003719Y-114085000D01*
X122167935Y-114117664D01*
G37*
G36*
X137091627Y-112827299D02*
G01*
X137171742Y-112851602D01*
X137251855Y-112875903D01*
X137251857Y-112875904D01*
X137399518Y-112954831D01*
X137528949Y-113061051D01*
X137635169Y-113190482D01*
X137714096Y-113338143D01*
X137762701Y-113498373D01*
X137779112Y-113665000D01*
X137762701Y-113831627D01*
X137762700Y-113831629D01*
X137724718Y-113956843D01*
X137714096Y-113991857D01*
X137635169Y-114139518D01*
X137528949Y-114268949D01*
X137399518Y-114375169D01*
X137251857Y-114454096D01*
X137251855Y-114454097D01*
X137171742Y-114478398D01*
X137091627Y-114502701D01*
X136966752Y-114515000D01*
X136083248Y-114515000D01*
X135958373Y-114502701D01*
X135878258Y-114478398D01*
X135798145Y-114454097D01*
X135798143Y-114454096D01*
X135650482Y-114375169D01*
X135521051Y-114268949D01*
X135414831Y-114139518D01*
X135335904Y-113991857D01*
X135325283Y-113956843D01*
X135287300Y-113831629D01*
X135287299Y-113831627D01*
X135270888Y-113665000D01*
X135287299Y-113498373D01*
X135335904Y-113338143D01*
X135414831Y-113190482D01*
X135521051Y-113061051D01*
X135650482Y-112954831D01*
X135798143Y-112875904D01*
X135798145Y-112875903D01*
X135878258Y-112851602D01*
X135958373Y-112827299D01*
X136083248Y-112815000D01*
X136966752Y-112815000D01*
X137091627Y-112827299D01*
G37*
G36*
X144711627Y-112827299D02*
G01*
X144791742Y-112851602D01*
X144871855Y-112875903D01*
X144871857Y-112875904D01*
X145019518Y-112954831D01*
X145148949Y-113061051D01*
X145255169Y-113190482D01*
X145334096Y-113338143D01*
X145382701Y-113498373D01*
X145399112Y-113665000D01*
X145382701Y-113831627D01*
X145382700Y-113831629D01*
X145344718Y-113956843D01*
X145334096Y-113991857D01*
X145255169Y-114139518D01*
X145148949Y-114268949D01*
X145019518Y-114375169D01*
X144871857Y-114454096D01*
X144871855Y-114454097D01*
X144791742Y-114478398D01*
X144711627Y-114502701D01*
X144586752Y-114515000D01*
X143703248Y-114515000D01*
X143578373Y-114502701D01*
X143498258Y-114478398D01*
X143418145Y-114454097D01*
X143418143Y-114454096D01*
X143270482Y-114375169D01*
X143141051Y-114268949D01*
X143034831Y-114139518D01*
X142955904Y-113991857D01*
X142945283Y-113956843D01*
X142907300Y-113831629D01*
X142907299Y-113831627D01*
X142890888Y-113665000D01*
X142907299Y-113498373D01*
X142955904Y-113338143D01*
X143034831Y-113190482D01*
X143141051Y-113061051D01*
X143270482Y-112954831D01*
X143418143Y-112875904D01*
X143418145Y-112875903D01*
X143498258Y-112851602D01*
X143578373Y-112827299D01*
X143703248Y-112815000D01*
X144586752Y-112815000D01*
X144711627Y-112827299D01*
G37*
G36*
X170427935Y-112597664D02*
G01*
X170582624Y-112661739D01*
X170582626Y-112661740D01*
X170721844Y-112754762D01*
X170840238Y-112873156D01*
X170933260Y-113012374D01*
X170933261Y-113012376D01*
X170997336Y-113167065D01*
X171030000Y-113331281D01*
X171030000Y-113498719D01*
X170997336Y-113662935D01*
X170933261Y-113817624D01*
X170933260Y-113817626D01*
X170840238Y-113956844D01*
X170721844Y-114075238D01*
X170582626Y-114168260D01*
X170582625Y-114168261D01*
X170582624Y-114168261D01*
X170427935Y-114232336D01*
X170263719Y-114265000D01*
X170096281Y-114265000D01*
X169932065Y-114232336D01*
X169777376Y-114168261D01*
X169777375Y-114168261D01*
X169777374Y-114168260D01*
X169638156Y-114075238D01*
X169519762Y-113956844D01*
X169426740Y-113817626D01*
X169426739Y-113817624D01*
X169362664Y-113662935D01*
X169330000Y-113498719D01*
X169330000Y-113331281D01*
X169362664Y-113167065D01*
X169426739Y-113012376D01*
X169426740Y-113012374D01*
X169519762Y-112873156D01*
X169638156Y-112754762D01*
X169777374Y-112661740D01*
X169777376Y-112661739D01*
X169932065Y-112597664D01*
X170096281Y-112565000D01*
X170263719Y-112565000D01*
X170427935Y-112597664D01*
G37*
G36*
X122167935Y-111577664D02*
G01*
X122322624Y-111641739D01*
X122322626Y-111641740D01*
X122461844Y-111734762D01*
X122580238Y-111853156D01*
X122653433Y-111962701D01*
X122673261Y-111992376D01*
X122737336Y-112147065D01*
X122770000Y-112311281D01*
X122770000Y-112478719D01*
X122737336Y-112642935D01*
X122691015Y-112754762D01*
X122673260Y-112797626D01*
X122580238Y-112936844D01*
X122461844Y-113055238D01*
X122322626Y-113148260D01*
X122322625Y-113148261D01*
X122322624Y-113148261D01*
X122167935Y-113212336D01*
X122003719Y-113245000D01*
X121836281Y-113245000D01*
X121672065Y-113212336D01*
X121517376Y-113148261D01*
X121517375Y-113148261D01*
X121517374Y-113148260D01*
X121378156Y-113055238D01*
X121259762Y-112936844D01*
X121166740Y-112797626D01*
X121148985Y-112754762D01*
X121102664Y-112642935D01*
X121070000Y-112478719D01*
X121070000Y-112311281D01*
X121102664Y-112147065D01*
X121166739Y-111992376D01*
X121186567Y-111962701D01*
X121259762Y-111853156D01*
X121378156Y-111734762D01*
X121517374Y-111641740D01*
X121517376Y-111641739D01*
X121672065Y-111577664D01*
X121836281Y-111545000D01*
X122003719Y-111545000D01*
X122167935Y-111577664D01*
G37*
G36*
X144711627Y-110287299D02*
G01*
X144791742Y-110311602D01*
X144871855Y-110335903D01*
X144871857Y-110335904D01*
X145019518Y-110414831D01*
X145148949Y-110521051D01*
X145255169Y-110650482D01*
X145334096Y-110798143D01*
X145382701Y-110958373D01*
X145399112Y-111125000D01*
X145382701Y-111291627D01*
X145382700Y-111291629D01*
X145344718Y-111416843D01*
X145334096Y-111451857D01*
X145255169Y-111599518D01*
X145148949Y-111728949D01*
X145019518Y-111835169D01*
X144871857Y-111914096D01*
X144871855Y-111914097D01*
X144791742Y-111938399D01*
X144711627Y-111962701D01*
X144586752Y-111975000D01*
X143703248Y-111975000D01*
X143578373Y-111962701D01*
X143498258Y-111938399D01*
X143418145Y-111914097D01*
X143418143Y-111914096D01*
X143270482Y-111835169D01*
X143141051Y-111728949D01*
X143034831Y-111599518D01*
X142955904Y-111451857D01*
X142945283Y-111416843D01*
X142907300Y-111291629D01*
X142907299Y-111291627D01*
X142890888Y-111125000D01*
X142907299Y-110958373D01*
X142955904Y-110798143D01*
X143034831Y-110650482D01*
X143141051Y-110521051D01*
X143270482Y-110414831D01*
X143418143Y-110335904D01*
X143418145Y-110335903D01*
X143498258Y-110311602D01*
X143578373Y-110287299D01*
X143703248Y-110275000D01*
X144586752Y-110275000D01*
X144711627Y-110287299D01*
G37*
G36*
X137091627Y-110287299D02*
G01*
X137171742Y-110311602D01*
X137251855Y-110335903D01*
X137251857Y-110335904D01*
X137399518Y-110414831D01*
X137528949Y-110521051D01*
X137635169Y-110650482D01*
X137714096Y-110798143D01*
X137762701Y-110958373D01*
X137779112Y-111125000D01*
X137762701Y-111291627D01*
X137762700Y-111291629D01*
X137724718Y-111416843D01*
X137714096Y-111451857D01*
X137635169Y-111599518D01*
X137528949Y-111728949D01*
X137399518Y-111835169D01*
X137251857Y-111914096D01*
X137251855Y-111914097D01*
X137171742Y-111938399D01*
X137091627Y-111962701D01*
X136966752Y-111975000D01*
X136083248Y-111975000D01*
X135958373Y-111962701D01*
X135878258Y-111938399D01*
X135798145Y-111914097D01*
X135798143Y-111914096D01*
X135650482Y-111835169D01*
X135521051Y-111728949D01*
X135414831Y-111599518D01*
X135335904Y-111451857D01*
X135325283Y-111416843D01*
X135287300Y-111291629D01*
X135287299Y-111291627D01*
X135270888Y-111125000D01*
X135287299Y-110958373D01*
X135335904Y-110798143D01*
X135414831Y-110650482D01*
X135521051Y-110521051D01*
X135650482Y-110414831D01*
X135798143Y-110335904D01*
X135798145Y-110335903D01*
X135878258Y-110311602D01*
X135958373Y-110287299D01*
X136083248Y-110275000D01*
X136966752Y-110275000D01*
X137091627Y-110287299D01*
G37*
G36*
X170427935Y-110057664D02*
G01*
X170582624Y-110121739D01*
X170582626Y-110121740D01*
X170721844Y-110214762D01*
X170840238Y-110333156D01*
X170933260Y-110472374D01*
X170933261Y-110472376D01*
X170997336Y-110627065D01*
X171030000Y-110791281D01*
X171030000Y-110958719D01*
X170997336Y-111122935D01*
X170933261Y-111277624D01*
X170933260Y-111277626D01*
X170840238Y-111416844D01*
X170721844Y-111535238D01*
X170582626Y-111628260D01*
X170582625Y-111628261D01*
X170582624Y-111628261D01*
X170427935Y-111692336D01*
X170263719Y-111725000D01*
X170096281Y-111725000D01*
X169932065Y-111692336D01*
X169777376Y-111628261D01*
X169777375Y-111628261D01*
X169777374Y-111628260D01*
X169638156Y-111535238D01*
X169519762Y-111416844D01*
X169426740Y-111277626D01*
X169426739Y-111277624D01*
X169362664Y-111122935D01*
X169330000Y-110958719D01*
X169330000Y-110791281D01*
X169362664Y-110627065D01*
X169426739Y-110472376D01*
X169426740Y-110472374D01*
X169519762Y-110333156D01*
X169638156Y-110214762D01*
X169777374Y-110121740D01*
X169777376Y-110121739D01*
X169932065Y-110057664D01*
X170096281Y-110025000D01*
X170263719Y-110025000D01*
X170427935Y-110057664D01*
G37*
G36*
X122167935Y-109037664D02*
G01*
X122322624Y-109101739D01*
X122322626Y-109101740D01*
X122461844Y-109194762D01*
X122580238Y-109313156D01*
X122653433Y-109422701D01*
X122673261Y-109452376D01*
X122737336Y-109607065D01*
X122770000Y-109771281D01*
X122770000Y-109938719D01*
X122737336Y-110102935D01*
X122691015Y-110214762D01*
X122673260Y-110257626D01*
X122580238Y-110396844D01*
X122461844Y-110515238D01*
X122322626Y-110608260D01*
X122322625Y-110608261D01*
X122322624Y-110608261D01*
X122167935Y-110672336D01*
X122003719Y-110705000D01*
X121836281Y-110705000D01*
X121672065Y-110672336D01*
X121517376Y-110608261D01*
X121517375Y-110608261D01*
X121517374Y-110608260D01*
X121378156Y-110515238D01*
X121259762Y-110396844D01*
X121166740Y-110257626D01*
X121148985Y-110214762D01*
X121102664Y-110102935D01*
X121070000Y-109938719D01*
X121070000Y-109771281D01*
X121102664Y-109607065D01*
X121166739Y-109452376D01*
X121186567Y-109422701D01*
X121259762Y-109313156D01*
X121378156Y-109194762D01*
X121517374Y-109101740D01*
X121517376Y-109101739D01*
X121672065Y-109037664D01*
X121836281Y-109005000D01*
X122003719Y-109005000D01*
X122167935Y-109037664D01*
G37*
G36*
X144711627Y-107747299D02*
G01*
X144791742Y-107771601D01*
X144871855Y-107795903D01*
X144871857Y-107795904D01*
X145019518Y-107874831D01*
X145148949Y-107981051D01*
X145255169Y-108110482D01*
X145334096Y-108258143D01*
X145382701Y-108418373D01*
X145399112Y-108585000D01*
X145382701Y-108751627D01*
X145382700Y-108751629D01*
X145344718Y-108876843D01*
X145334096Y-108911857D01*
X145255169Y-109059518D01*
X145148949Y-109188949D01*
X145019518Y-109295169D01*
X144871857Y-109374096D01*
X144871855Y-109374097D01*
X144791742Y-109398399D01*
X144711627Y-109422701D01*
X144586752Y-109435000D01*
X143703248Y-109435000D01*
X143578373Y-109422701D01*
X143498258Y-109398399D01*
X143418145Y-109374097D01*
X143418143Y-109374096D01*
X143270482Y-109295169D01*
X143141051Y-109188949D01*
X143034831Y-109059518D01*
X142955904Y-108911857D01*
X142945283Y-108876843D01*
X142907300Y-108751629D01*
X142907299Y-108751627D01*
X142890888Y-108585000D01*
X142907299Y-108418373D01*
X142955904Y-108258143D01*
X143034831Y-108110482D01*
X143141051Y-107981051D01*
X143270482Y-107874831D01*
X143418143Y-107795904D01*
X143418145Y-107795903D01*
X143498258Y-107771601D01*
X143578373Y-107747299D01*
X143703248Y-107735000D01*
X144586752Y-107735000D01*
X144711627Y-107747299D01*
G37*
G36*
X137091627Y-107747299D02*
G01*
X137171742Y-107771601D01*
X137251855Y-107795903D01*
X137251857Y-107795904D01*
X137399518Y-107874831D01*
X137528949Y-107981051D01*
X137635169Y-108110482D01*
X137714096Y-108258143D01*
X137762701Y-108418373D01*
X137779112Y-108585000D01*
X137762701Y-108751627D01*
X137762700Y-108751629D01*
X137724718Y-108876843D01*
X137714096Y-108911857D01*
X137635169Y-109059518D01*
X137528949Y-109188949D01*
X137399518Y-109295169D01*
X137251857Y-109374096D01*
X137251855Y-109374097D01*
X137171742Y-109398399D01*
X137091627Y-109422701D01*
X136966752Y-109435000D01*
X136083248Y-109435000D01*
X135958373Y-109422701D01*
X135878258Y-109398399D01*
X135798145Y-109374097D01*
X135798143Y-109374096D01*
X135650482Y-109295169D01*
X135521051Y-109188949D01*
X135414831Y-109059518D01*
X135335904Y-108911857D01*
X135325283Y-108876843D01*
X135287300Y-108751629D01*
X135287299Y-108751627D01*
X135270888Y-108585000D01*
X135287299Y-108418373D01*
X135335904Y-108258143D01*
X135414831Y-108110482D01*
X135521051Y-107981051D01*
X135650482Y-107874831D01*
X135798143Y-107795904D01*
X135798145Y-107795903D01*
X135878258Y-107771601D01*
X135958373Y-107747299D01*
X136083248Y-107735000D01*
X136966752Y-107735000D01*
X137091627Y-107747299D01*
G37*
G36*
X170427935Y-107517664D02*
G01*
X170582624Y-107581739D01*
X170582626Y-107581740D01*
X170721844Y-107674762D01*
X170840238Y-107793156D01*
X170933260Y-107932374D01*
X170933261Y-107932376D01*
X170997336Y-108087065D01*
X171030000Y-108251281D01*
X171030000Y-108418719D01*
X170997336Y-108582935D01*
X170933261Y-108737624D01*
X170933260Y-108737626D01*
X170840238Y-108876844D01*
X170721844Y-108995238D01*
X170582626Y-109088260D01*
X170582625Y-109088261D01*
X170582624Y-109088261D01*
X170427935Y-109152336D01*
X170263719Y-109185000D01*
X170096281Y-109185000D01*
X169932065Y-109152336D01*
X169777376Y-109088261D01*
X169777375Y-109088261D01*
X169777374Y-109088260D01*
X169638156Y-108995238D01*
X169519762Y-108876844D01*
X169426740Y-108737626D01*
X169426739Y-108737624D01*
X169362664Y-108582935D01*
X169330000Y-108418719D01*
X169330000Y-108251281D01*
X169362664Y-108087065D01*
X169426739Y-107932376D01*
X169426740Y-107932374D01*
X169519762Y-107793156D01*
X169638156Y-107674762D01*
X169777374Y-107581740D01*
X169777376Y-107581739D01*
X169932065Y-107517664D01*
X170096281Y-107485000D01*
X170263719Y-107485000D01*
X170427935Y-107517664D01*
G37*
G36*
X122167935Y-106497664D02*
G01*
X122322624Y-106561739D01*
X122322626Y-106561740D01*
X122461844Y-106654762D01*
X122580238Y-106773156D01*
X122653433Y-106882701D01*
X122673261Y-106912376D01*
X122737336Y-107067065D01*
X122770000Y-107231281D01*
X122770000Y-107398719D01*
X122737336Y-107562935D01*
X122691015Y-107674762D01*
X122673260Y-107717626D01*
X122580238Y-107856844D01*
X122461844Y-107975238D01*
X122322626Y-108068260D01*
X122322625Y-108068261D01*
X122322624Y-108068261D01*
X122167935Y-108132336D01*
X122003719Y-108165000D01*
X121836281Y-108165000D01*
X121672065Y-108132336D01*
X121517376Y-108068261D01*
X121517375Y-108068261D01*
X121517374Y-108068260D01*
X121378156Y-107975238D01*
X121259762Y-107856844D01*
X121166740Y-107717626D01*
X121148985Y-107674762D01*
X121102664Y-107562935D01*
X121070000Y-107398719D01*
X121070000Y-107231281D01*
X121102664Y-107067065D01*
X121166739Y-106912376D01*
X121186567Y-106882701D01*
X121259762Y-106773156D01*
X121378156Y-106654762D01*
X121517374Y-106561740D01*
X121517376Y-106561739D01*
X121672065Y-106497664D01*
X121836281Y-106465000D01*
X122003719Y-106465000D01*
X122167935Y-106497664D01*
G37*
G36*
X137091627Y-105207299D02*
G01*
X137158762Y-105227664D01*
X137251855Y-105255903D01*
X137251857Y-105255904D01*
X137399518Y-105334831D01*
X137528949Y-105441051D01*
X137635169Y-105570482D01*
X137714096Y-105718143D01*
X137762701Y-105878373D01*
X137779112Y-106045000D01*
X137762701Y-106211627D01*
X137762700Y-106211629D01*
X137724718Y-106336843D01*
X137714096Y-106371857D01*
X137635169Y-106519518D01*
X137528949Y-106648949D01*
X137399518Y-106755169D01*
X137318901Y-106798260D01*
X137251855Y-106834097D01*
X137171742Y-106858398D01*
X137091627Y-106882701D01*
X136966752Y-106895000D01*
X136083248Y-106895000D01*
X135958373Y-106882701D01*
X135878258Y-106858398D01*
X135798145Y-106834097D01*
X135731099Y-106798260D01*
X135650482Y-106755169D01*
X135521051Y-106648949D01*
X135414831Y-106519518D01*
X135335904Y-106371857D01*
X135325283Y-106336843D01*
X135287300Y-106211629D01*
X135287299Y-106211627D01*
X135270888Y-106045000D01*
X135287299Y-105878373D01*
X135335904Y-105718143D01*
X135414831Y-105570482D01*
X135521051Y-105441051D01*
X135650482Y-105334831D01*
X135798143Y-105255904D01*
X135798145Y-105255903D01*
X135891238Y-105227664D01*
X135958373Y-105207299D01*
X136083248Y-105195000D01*
X136966752Y-105195000D01*
X137091627Y-105207299D01*
G37*
G36*
X144711627Y-105207299D02*
G01*
X144778762Y-105227664D01*
X144871855Y-105255903D01*
X144871857Y-105255904D01*
X145019518Y-105334831D01*
X145148949Y-105441051D01*
X145255169Y-105570482D01*
X145334096Y-105718143D01*
X145382701Y-105878373D01*
X145399112Y-106045000D01*
X145382701Y-106211627D01*
X145382700Y-106211629D01*
X145344718Y-106336843D01*
X145334096Y-106371857D01*
X145255169Y-106519518D01*
X145148949Y-106648949D01*
X145019518Y-106755169D01*
X144938901Y-106798260D01*
X144871855Y-106834097D01*
X144791742Y-106858398D01*
X144711627Y-106882701D01*
X144586752Y-106895000D01*
X143703248Y-106895000D01*
X143578373Y-106882701D01*
X143498258Y-106858398D01*
X143418145Y-106834097D01*
X143351099Y-106798260D01*
X143270482Y-106755169D01*
X143141051Y-106648949D01*
X143034831Y-106519518D01*
X142955904Y-106371857D01*
X142945283Y-106336843D01*
X142907300Y-106211629D01*
X142907299Y-106211627D01*
X142890888Y-106045000D01*
X142907299Y-105878373D01*
X142955904Y-105718143D01*
X143034831Y-105570482D01*
X143141051Y-105441051D01*
X143270482Y-105334831D01*
X143418143Y-105255904D01*
X143418145Y-105255903D01*
X143511238Y-105227664D01*
X143578373Y-105207299D01*
X143703248Y-105195000D01*
X144586752Y-105195000D01*
X144711627Y-105207299D01*
G37*
G36*
X131692935Y-105227664D02*
G01*
X131847624Y-105291739D01*
X131847626Y-105291740D01*
X131986844Y-105384762D01*
X132105238Y-105503156D01*
X132186651Y-105625000D01*
X132198261Y-105642376D01*
X132262336Y-105797065D01*
X132295000Y-105961281D01*
X132295000Y-106128719D01*
X132262336Y-106292935D01*
X132244148Y-106336844D01*
X132198260Y-106447626D01*
X132105238Y-106586844D01*
X131986844Y-106705238D01*
X131847626Y-106798260D01*
X131847625Y-106798261D01*
X131847624Y-106798261D01*
X131692935Y-106862336D01*
X131528719Y-106895000D01*
X131361281Y-106895000D01*
X131197065Y-106862336D01*
X131042376Y-106798261D01*
X131042375Y-106798261D01*
X131042374Y-106798260D01*
X130903156Y-106705238D01*
X130784762Y-106586844D01*
X130691740Y-106447626D01*
X130645852Y-106336844D01*
X130627664Y-106292935D01*
X130595000Y-106128719D01*
X130595000Y-105961281D01*
X130627664Y-105797065D01*
X130691739Y-105642376D01*
X130703349Y-105625000D01*
X130784762Y-105503156D01*
X130903156Y-105384762D01*
X131042374Y-105291740D01*
X131042376Y-105291739D01*
X131197065Y-105227664D01*
X131361281Y-105195000D01*
X131528719Y-105195000D01*
X131692935Y-105227664D01*
G37*
G36*
X170427935Y-104977664D02*
G01*
X170582624Y-105041739D01*
X170582626Y-105041740D01*
X170721844Y-105134762D01*
X170840238Y-105253156D01*
X170933260Y-105392374D01*
X170933261Y-105392376D01*
X170997336Y-105547065D01*
X171030000Y-105711281D01*
X171030000Y-105878719D01*
X170997336Y-106042935D01*
X170933261Y-106197624D01*
X170933260Y-106197626D01*
X170840238Y-106336844D01*
X170721844Y-106455238D01*
X170582626Y-106548260D01*
X170582625Y-106548261D01*
X170582624Y-106548261D01*
X170427935Y-106612336D01*
X170263719Y-106645000D01*
X170096281Y-106645000D01*
X169932065Y-106612336D01*
X169777376Y-106548261D01*
X169777375Y-106548261D01*
X169777374Y-106548260D01*
X169638156Y-106455238D01*
X169519762Y-106336844D01*
X169426740Y-106197626D01*
X169426739Y-106197624D01*
X169362664Y-106042935D01*
X169330000Y-105878719D01*
X169330000Y-105711281D01*
X169362664Y-105547065D01*
X169426739Y-105392376D01*
X169426740Y-105392374D01*
X169519762Y-105253156D01*
X169638156Y-105134762D01*
X169777374Y-105041740D01*
X169777376Y-105041739D01*
X169932065Y-104977664D01*
X170096281Y-104945000D01*
X170263719Y-104945000D01*
X170427935Y-104977664D01*
G37*
G36*
X122167935Y-103957664D02*
G01*
X122322624Y-104021739D01*
X122322626Y-104021740D01*
X122461844Y-104114762D01*
X122580238Y-104233156D01*
X122653433Y-104342701D01*
X122673261Y-104372376D01*
X122737336Y-104527065D01*
X122770000Y-104691281D01*
X122770000Y-104858719D01*
X122737336Y-105022935D01*
X122691015Y-105134762D01*
X122673260Y-105177626D01*
X122580238Y-105316844D01*
X122461844Y-105435238D01*
X122322626Y-105528260D01*
X122322625Y-105528261D01*
X122322624Y-105528261D01*
X122167935Y-105592336D01*
X122003719Y-105625000D01*
X121836281Y-105625000D01*
X121672065Y-105592336D01*
X121517376Y-105528261D01*
X121517375Y-105528261D01*
X121517374Y-105528260D01*
X121378156Y-105435238D01*
X121259762Y-105316844D01*
X121166740Y-105177626D01*
X121148985Y-105134762D01*
X121102664Y-105022935D01*
X121070000Y-104858719D01*
X121070000Y-104691281D01*
X121102664Y-104527065D01*
X121166739Y-104372376D01*
X121186567Y-104342701D01*
X121259762Y-104233156D01*
X121378156Y-104114762D01*
X121517374Y-104021740D01*
X121517376Y-104021739D01*
X121672065Y-103957664D01*
X121836281Y-103925000D01*
X122003719Y-103925000D01*
X122167935Y-103957664D01*
G37*
G36*
X137091627Y-102667299D02*
G01*
X137171742Y-102691602D01*
X137251855Y-102715903D01*
X137251857Y-102715904D01*
X137399518Y-102794831D01*
X137528949Y-102901051D01*
X137635169Y-103030482D01*
X137714096Y-103178143D01*
X137762701Y-103338373D01*
X137779112Y-103505000D01*
X137762701Y-103671627D01*
X137762700Y-103671629D01*
X137724718Y-103796843D01*
X137714096Y-103831857D01*
X137635169Y-103979518D01*
X137528949Y-104108949D01*
X137399518Y-104215169D01*
X137251857Y-104294096D01*
X137251855Y-104294097D01*
X137171742Y-104318398D01*
X137091627Y-104342701D01*
X136966752Y-104355000D01*
X136083248Y-104355000D01*
X135958373Y-104342701D01*
X135878258Y-104318398D01*
X135798145Y-104294097D01*
X135798143Y-104294096D01*
X135650482Y-104215169D01*
X135521051Y-104108949D01*
X135414831Y-103979518D01*
X135335904Y-103831857D01*
X135325283Y-103796843D01*
X135287300Y-103671629D01*
X135287299Y-103671627D01*
X135270888Y-103505000D01*
X135287299Y-103338373D01*
X135335904Y-103178143D01*
X135414831Y-103030482D01*
X135521051Y-102901051D01*
X135650482Y-102794831D01*
X135798143Y-102715904D01*
X135798145Y-102715903D01*
X135878258Y-102691602D01*
X135958373Y-102667299D01*
X136083248Y-102655000D01*
X136966752Y-102655000D01*
X137091627Y-102667299D01*
G37*
G36*
X144711627Y-102667299D02*
G01*
X144791742Y-102691602D01*
X144871855Y-102715903D01*
X144871857Y-102715904D01*
X145019518Y-102794831D01*
X145148949Y-102901051D01*
X145255169Y-103030482D01*
X145334096Y-103178143D01*
X145382701Y-103338373D01*
X145399112Y-103505000D01*
X145382701Y-103671627D01*
X145382700Y-103671629D01*
X145344718Y-103796843D01*
X145334096Y-103831857D01*
X145255169Y-103979518D01*
X145148949Y-104108949D01*
X145019518Y-104215169D01*
X144871857Y-104294096D01*
X144871855Y-104294097D01*
X144791742Y-104318398D01*
X144711627Y-104342701D01*
X144586752Y-104355000D01*
X143703248Y-104355000D01*
X143578373Y-104342701D01*
X143498258Y-104318398D01*
X143418145Y-104294097D01*
X143418143Y-104294096D01*
X143270482Y-104215169D01*
X143141051Y-104108949D01*
X143034831Y-103979518D01*
X142955904Y-103831857D01*
X142945283Y-103796843D01*
X142907300Y-103671629D01*
X142907299Y-103671627D01*
X142890888Y-103505000D01*
X142907299Y-103338373D01*
X142955904Y-103178143D01*
X143034831Y-103030482D01*
X143141051Y-102901051D01*
X143270482Y-102794831D01*
X143418143Y-102715904D01*
X143418145Y-102715903D01*
X143498258Y-102691602D01*
X143578373Y-102667299D01*
X143703248Y-102655000D01*
X144586752Y-102655000D01*
X144711627Y-102667299D01*
G37*
G36*
X170427935Y-102437664D02*
G01*
X170582624Y-102501739D01*
X170582626Y-102501740D01*
X170721844Y-102594762D01*
X170840238Y-102713156D01*
X170933260Y-102852374D01*
X170933261Y-102852376D01*
X170997336Y-103007065D01*
X171030000Y-103171281D01*
X171030000Y-103338719D01*
X170997336Y-103502935D01*
X170933261Y-103657624D01*
X170933260Y-103657626D01*
X170840238Y-103796844D01*
X170721844Y-103915238D01*
X170582626Y-104008260D01*
X170582625Y-104008261D01*
X170582624Y-104008261D01*
X170427935Y-104072336D01*
X170263719Y-104105000D01*
X170096281Y-104105000D01*
X169932065Y-104072336D01*
X169777376Y-104008261D01*
X169777375Y-104008261D01*
X169777374Y-104008260D01*
X169638156Y-103915238D01*
X169519762Y-103796844D01*
X169426740Y-103657626D01*
X169426739Y-103657624D01*
X169362664Y-103502935D01*
X169330000Y-103338719D01*
X169330000Y-103171281D01*
X169362664Y-103007065D01*
X169426739Y-102852376D01*
X169426740Y-102852374D01*
X169519762Y-102713156D01*
X169638156Y-102594762D01*
X169777374Y-102501740D01*
X169777376Y-102501739D01*
X169932065Y-102437664D01*
X170096281Y-102405000D01*
X170263719Y-102405000D01*
X170427935Y-102437664D01*
G37*
G36*
X122167935Y-101417664D02*
G01*
X122322624Y-101481739D01*
X122322626Y-101481740D01*
X122461844Y-101574762D01*
X122580238Y-101693156D01*
X122653433Y-101802701D01*
X122673261Y-101832376D01*
X122737336Y-101987065D01*
X122770000Y-102151281D01*
X122770000Y-102318719D01*
X122737336Y-102482935D01*
X122691015Y-102594762D01*
X122673260Y-102637626D01*
X122580238Y-102776844D01*
X122461844Y-102895238D01*
X122322626Y-102988260D01*
X122322625Y-102988261D01*
X122322624Y-102988261D01*
X122167935Y-103052336D01*
X122003719Y-103085000D01*
X121836281Y-103085000D01*
X121672065Y-103052336D01*
X121517376Y-102988261D01*
X121517375Y-102988261D01*
X121517374Y-102988260D01*
X121378156Y-102895238D01*
X121259762Y-102776844D01*
X121166740Y-102637626D01*
X121148985Y-102594762D01*
X121102664Y-102482935D01*
X121070000Y-102318719D01*
X121070000Y-102151281D01*
X121102664Y-101987065D01*
X121166739Y-101832376D01*
X121186567Y-101802701D01*
X121259762Y-101693156D01*
X121378156Y-101574762D01*
X121517374Y-101481740D01*
X121517376Y-101481739D01*
X121672065Y-101417664D01*
X121836281Y-101385000D01*
X122003719Y-101385000D01*
X122167935Y-101417664D01*
G37*
G36*
X144711627Y-100127299D02*
G01*
X144791742Y-100151601D01*
X144871855Y-100175903D01*
X144871857Y-100175904D01*
X145019518Y-100254831D01*
X145148949Y-100361051D01*
X145255169Y-100490482D01*
X145334096Y-100638143D01*
X145382701Y-100798373D01*
X145399112Y-100965000D01*
X145382701Y-101131627D01*
X145382700Y-101131629D01*
X145344718Y-101256843D01*
X145334096Y-101291857D01*
X145255169Y-101439518D01*
X145148949Y-101568949D01*
X145019518Y-101675169D01*
X144871857Y-101754096D01*
X144871855Y-101754097D01*
X144791742Y-101778399D01*
X144711627Y-101802701D01*
X144586752Y-101815000D01*
X143703248Y-101815000D01*
X143578373Y-101802701D01*
X143498258Y-101778399D01*
X143418145Y-101754097D01*
X143418143Y-101754096D01*
X143270482Y-101675169D01*
X143141051Y-101568949D01*
X143034831Y-101439518D01*
X142955904Y-101291857D01*
X142945283Y-101256843D01*
X142907300Y-101131629D01*
X142907299Y-101131627D01*
X142890888Y-100965000D01*
X142907299Y-100798373D01*
X142955904Y-100638143D01*
X143034831Y-100490482D01*
X143141051Y-100361051D01*
X143270482Y-100254831D01*
X143418143Y-100175904D01*
X143418145Y-100175903D01*
X143498258Y-100151601D01*
X143578373Y-100127299D01*
X143703248Y-100115000D01*
X144586752Y-100115000D01*
X144711627Y-100127299D01*
G37*
G36*
X137091627Y-100127299D02*
G01*
X137171742Y-100151601D01*
X137251855Y-100175903D01*
X137251857Y-100175904D01*
X137399518Y-100254831D01*
X137528949Y-100361051D01*
X137635169Y-100490482D01*
X137714096Y-100638143D01*
X137762701Y-100798373D01*
X137779112Y-100965000D01*
X137762701Y-101131627D01*
X137762700Y-101131629D01*
X137724718Y-101256843D01*
X137714096Y-101291857D01*
X137635169Y-101439518D01*
X137528949Y-101568949D01*
X137399518Y-101675169D01*
X137251857Y-101754096D01*
X137251855Y-101754097D01*
X137171742Y-101778399D01*
X137091627Y-101802701D01*
X136966752Y-101815000D01*
X136083248Y-101815000D01*
X135958373Y-101802701D01*
X135878258Y-101778399D01*
X135798145Y-101754097D01*
X135798143Y-101754096D01*
X135650482Y-101675169D01*
X135521051Y-101568949D01*
X135414831Y-101439518D01*
X135335904Y-101291857D01*
X135325283Y-101256843D01*
X135287300Y-101131629D01*
X135287299Y-101131627D01*
X135270888Y-100965000D01*
X135287299Y-100798373D01*
X135335904Y-100638143D01*
X135414831Y-100490482D01*
X135521051Y-100361051D01*
X135650482Y-100254831D01*
X135798143Y-100175904D01*
X135798145Y-100175903D01*
X135878258Y-100151601D01*
X135958373Y-100127299D01*
X136083248Y-100115000D01*
X136966752Y-100115000D01*
X137091627Y-100127299D01*
G37*
G36*
X170427935Y-99897664D02*
G01*
X170582624Y-99961739D01*
X170582626Y-99961740D01*
X170721844Y-100054762D01*
X170840238Y-100173156D01*
X170904089Y-100268717D01*
X170933261Y-100312376D01*
X170997336Y-100467065D01*
X171030000Y-100631281D01*
X171030000Y-100798719D01*
X170997336Y-100962935D01*
X170933261Y-101117624D01*
X170933260Y-101117626D01*
X170840238Y-101256844D01*
X170721844Y-101375238D01*
X170582626Y-101468260D01*
X170582625Y-101468261D01*
X170582624Y-101468261D01*
X170427935Y-101532336D01*
X170263719Y-101565000D01*
X170096281Y-101565000D01*
X169932065Y-101532336D01*
X169777376Y-101468261D01*
X169777375Y-101468261D01*
X169777374Y-101468260D01*
X169638156Y-101375238D01*
X169519762Y-101256844D01*
X169426740Y-101117626D01*
X169426739Y-101117624D01*
X169362664Y-100962935D01*
X169330000Y-100798719D01*
X169330000Y-100631281D01*
X169362664Y-100467065D01*
X169426739Y-100312376D01*
X169455911Y-100268717D01*
X169519762Y-100173156D01*
X169638156Y-100054762D01*
X169777374Y-99961740D01*
X169777376Y-99961739D01*
X169932065Y-99897664D01*
X170096281Y-99865000D01*
X170263719Y-99865000D01*
X170427935Y-99897664D01*
G37*
G36*
X153935000Y-100595000D02*
G01*
X152135000Y-100595000D01*
X152135000Y-98795000D01*
X153935000Y-98795000D01*
X153935000Y-100595000D01*
G37*
G36*
X158377520Y-98829586D02*
G01*
X158541310Y-98897430D01*
X158688717Y-98995924D01*
X158814076Y-99121283D01*
X158912570Y-99268690D01*
X158980414Y-99432480D01*
X159015000Y-99606358D01*
X159015000Y-99783642D01*
X158980414Y-99957520D01*
X158912570Y-100121310D01*
X158814076Y-100268717D01*
X158688717Y-100394076D01*
X158541310Y-100492570D01*
X158541309Y-100492571D01*
X158541308Y-100492571D01*
X158377520Y-100560414D01*
X158203644Y-100595000D01*
X158026356Y-100595000D01*
X157852480Y-100560414D01*
X157688692Y-100492571D01*
X157688691Y-100492571D01*
X157688690Y-100492570D01*
X157541283Y-100394076D01*
X157415924Y-100268717D01*
X157317430Y-100121310D01*
X157249586Y-99957520D01*
X157215000Y-99783642D01*
X157215000Y-99606358D01*
X157249586Y-99432480D01*
X157317430Y-99268690D01*
X157415924Y-99121283D01*
X157541283Y-98995924D01*
X157688690Y-98897430D01*
X157852480Y-98829586D01*
X158026356Y-98795000D01*
X158203644Y-98795000D01*
X158377520Y-98829586D01*
G37*
G36*
X155837520Y-98829586D02*
G01*
X156001310Y-98897430D01*
X156148717Y-98995924D01*
X156274076Y-99121283D01*
X156372570Y-99268690D01*
X156440414Y-99432480D01*
X156475000Y-99606358D01*
X156475000Y-99783642D01*
X156440414Y-99957520D01*
X156372570Y-100121310D01*
X156274076Y-100268717D01*
X156148717Y-100394076D01*
X156001310Y-100492570D01*
X156001309Y-100492571D01*
X156001308Y-100492571D01*
X155837520Y-100560414D01*
X155663644Y-100595000D01*
X155486356Y-100595000D01*
X155312480Y-100560414D01*
X155148692Y-100492571D01*
X155148691Y-100492571D01*
X155148690Y-100492570D01*
X155001283Y-100394076D01*
X154875924Y-100268717D01*
X154777430Y-100121310D01*
X154709586Y-99957520D01*
X154675000Y-99783642D01*
X154675000Y-99606358D01*
X154709586Y-99432480D01*
X154777430Y-99268690D01*
X154875924Y-99121283D01*
X155001283Y-98995924D01*
X155148690Y-98897430D01*
X155312480Y-98829586D01*
X155486356Y-98795000D01*
X155663644Y-98795000D01*
X155837520Y-98829586D01*
G37*
G36*
X160917520Y-98829586D02*
G01*
X161081310Y-98897430D01*
X161228717Y-98995924D01*
X161354076Y-99121283D01*
X161452570Y-99268690D01*
X161520414Y-99432480D01*
X161555000Y-99606358D01*
X161555000Y-99783642D01*
X161520414Y-99957520D01*
X161452570Y-100121310D01*
X161354076Y-100268717D01*
X161228717Y-100394076D01*
X161081310Y-100492570D01*
X161081309Y-100492571D01*
X161081308Y-100492571D01*
X160917520Y-100560414D01*
X160743644Y-100595000D01*
X160566356Y-100595000D01*
X160392480Y-100560414D01*
X160228692Y-100492571D01*
X160228691Y-100492571D01*
X160228690Y-100492570D01*
X160081283Y-100394076D01*
X159955924Y-100268717D01*
X159857430Y-100121310D01*
X159789586Y-99957520D01*
X159755000Y-99783642D01*
X159755000Y-99606358D01*
X159789586Y-99432480D01*
X159857430Y-99268690D01*
X159955924Y-99121283D01*
X160081283Y-98995924D01*
X160228690Y-98897430D01*
X160392480Y-98829586D01*
X160566356Y-98795000D01*
X160743644Y-98795000D01*
X160917520Y-98829586D01*
G37*
G36*
X122770000Y-100545000D02*
G01*
X121070000Y-100545000D01*
X121070000Y-98845000D01*
X122770000Y-98845000D01*
X122770000Y-100545000D01*
G37*
G36*
X170427935Y-97357664D02*
G01*
X170582624Y-97421739D01*
X170582626Y-97421740D01*
X170721844Y-97514762D01*
X170840238Y-97633156D01*
X170904089Y-97728717D01*
X170933261Y-97772376D01*
X170997336Y-97927065D01*
X171030000Y-98091281D01*
X171030000Y-98258719D01*
X170997336Y-98422935D01*
X170933261Y-98577624D01*
X170933260Y-98577626D01*
X170840238Y-98716844D01*
X170721844Y-98835238D01*
X170582626Y-98928260D01*
X170582625Y-98928261D01*
X170582624Y-98928261D01*
X170427935Y-98992336D01*
X170263719Y-99025000D01*
X170096281Y-99025000D01*
X169932065Y-98992336D01*
X169777376Y-98928261D01*
X169777375Y-98928261D01*
X169777374Y-98928260D01*
X169638156Y-98835238D01*
X169519762Y-98716844D01*
X169426740Y-98577626D01*
X169426739Y-98577624D01*
X169362664Y-98422935D01*
X169330000Y-98258719D01*
X169330000Y-98091281D01*
X169362664Y-97927065D01*
X169426739Y-97772376D01*
X169455911Y-97728717D01*
X169519762Y-97633156D01*
X169638156Y-97514762D01*
X169777374Y-97421740D01*
X169777376Y-97421739D01*
X169932065Y-97357664D01*
X170096281Y-97325000D01*
X170263719Y-97325000D01*
X170427935Y-97357664D01*
G37*
G36*
X160917520Y-96289586D02*
G01*
X161081310Y-96357430D01*
X161228717Y-96455924D01*
X161354076Y-96581283D01*
X161452570Y-96728690D01*
X161520414Y-96892480D01*
X161555000Y-97066358D01*
X161555000Y-97243642D01*
X161520414Y-97417520D01*
X161452570Y-97581310D01*
X161354076Y-97728717D01*
X161228717Y-97854076D01*
X161081310Y-97952570D01*
X161081309Y-97952571D01*
X161081308Y-97952571D01*
X160917520Y-98020414D01*
X160743644Y-98055000D01*
X160566356Y-98055000D01*
X160392480Y-98020414D01*
X160228692Y-97952571D01*
X160228691Y-97952571D01*
X160228690Y-97952570D01*
X160081283Y-97854076D01*
X159955924Y-97728717D01*
X159857430Y-97581310D01*
X159789586Y-97417520D01*
X159755000Y-97243642D01*
X159755000Y-97066358D01*
X159789586Y-96892480D01*
X159857430Y-96728690D01*
X159955924Y-96581283D01*
X160081283Y-96455924D01*
X160228690Y-96357430D01*
X160392480Y-96289586D01*
X160566356Y-96255000D01*
X160743644Y-96255000D01*
X160917520Y-96289586D01*
G37*
G36*
X153297520Y-96289586D02*
G01*
X153461310Y-96357430D01*
X153608717Y-96455924D01*
X153734076Y-96581283D01*
X153832570Y-96728690D01*
X153900414Y-96892480D01*
X153935000Y-97066358D01*
X153935000Y-97243642D01*
X153900414Y-97417520D01*
X153832570Y-97581310D01*
X153734076Y-97728717D01*
X153608717Y-97854076D01*
X153461310Y-97952570D01*
X153461309Y-97952571D01*
X153461308Y-97952571D01*
X153297520Y-98020414D01*
X153123644Y-98055000D01*
X152946356Y-98055000D01*
X152772480Y-98020414D01*
X152608692Y-97952571D01*
X152608691Y-97952571D01*
X152608690Y-97952570D01*
X152461283Y-97854076D01*
X152335924Y-97728717D01*
X152237430Y-97581310D01*
X152169586Y-97417520D01*
X152135000Y-97243642D01*
X152135000Y-97066358D01*
X152169586Y-96892480D01*
X152237430Y-96728690D01*
X152335924Y-96581283D01*
X152461283Y-96455924D01*
X152608690Y-96357430D01*
X152772480Y-96289586D01*
X152946356Y-96255000D01*
X153123644Y-96255000D01*
X153297520Y-96289586D01*
G37*
G36*
X155837520Y-96289586D02*
G01*
X156001310Y-96357430D01*
X156148717Y-96455924D01*
X156274076Y-96581283D01*
X156372570Y-96728690D01*
X156440414Y-96892480D01*
X156475000Y-97066358D01*
X156475000Y-97243642D01*
X156440414Y-97417520D01*
X156372570Y-97581310D01*
X156274076Y-97728717D01*
X156148717Y-97854076D01*
X156001310Y-97952570D01*
X156001309Y-97952571D01*
X156001308Y-97952571D01*
X155837520Y-98020414D01*
X155663644Y-98055000D01*
X155486356Y-98055000D01*
X155312480Y-98020414D01*
X155148692Y-97952571D01*
X155148691Y-97952571D01*
X155148690Y-97952570D01*
X155001283Y-97854076D01*
X154875924Y-97728717D01*
X154777430Y-97581310D01*
X154709586Y-97417520D01*
X154675000Y-97243642D01*
X154675000Y-97066358D01*
X154709586Y-96892480D01*
X154777430Y-96728690D01*
X154875924Y-96581283D01*
X155001283Y-96455924D01*
X155148690Y-96357430D01*
X155312480Y-96289586D01*
X155486356Y-96255000D01*
X155663644Y-96255000D01*
X155837520Y-96289586D01*
G37*
G36*
X158377520Y-96289586D02*
G01*
X158541310Y-96357430D01*
X158688717Y-96455924D01*
X158814076Y-96581283D01*
X158912570Y-96728690D01*
X158980414Y-96892480D01*
X159015000Y-97066358D01*
X159015000Y-97243642D01*
X158980414Y-97417520D01*
X158912570Y-97581310D01*
X158814076Y-97728717D01*
X158688717Y-97854076D01*
X158541310Y-97952570D01*
X158541309Y-97952571D01*
X158541308Y-97952571D01*
X158377520Y-98020414D01*
X158203644Y-98055000D01*
X158026356Y-98055000D01*
X157852480Y-98020414D01*
X157688692Y-97952571D01*
X157688691Y-97952571D01*
X157688690Y-97952570D01*
X157541283Y-97854076D01*
X157415924Y-97728717D01*
X157317430Y-97581310D01*
X157249586Y-97417520D01*
X157215000Y-97243642D01*
X157215000Y-97066358D01*
X157249586Y-96892480D01*
X157317430Y-96728690D01*
X157415924Y-96581283D01*
X157541283Y-96455924D01*
X157688690Y-96357430D01*
X157852480Y-96289586D01*
X158026356Y-96255000D01*
X158203644Y-96255000D01*
X158377520Y-96289586D01*
G37*
G36*
X170427935Y-94817664D02*
G01*
X170582624Y-94881739D01*
X170582626Y-94881740D01*
X170721844Y-94974762D01*
X170840238Y-95093156D01*
X170904089Y-95188717D01*
X170933261Y-95232376D01*
X170997336Y-95387065D01*
X171030000Y-95551281D01*
X171030000Y-95718719D01*
X170997336Y-95882935D01*
X170933261Y-96037624D01*
X170933260Y-96037626D01*
X170840238Y-96176844D01*
X170721844Y-96295238D01*
X170582626Y-96388260D01*
X170582625Y-96388261D01*
X170582624Y-96388261D01*
X170427935Y-96452336D01*
X170263719Y-96485000D01*
X170096281Y-96485000D01*
X169932065Y-96452336D01*
X169777376Y-96388261D01*
X169777375Y-96388261D01*
X169777374Y-96388260D01*
X169638156Y-96295238D01*
X169519762Y-96176844D01*
X169426740Y-96037626D01*
X169426739Y-96037624D01*
X169362664Y-95882935D01*
X169330000Y-95718719D01*
X169330000Y-95551281D01*
X169362664Y-95387065D01*
X169426739Y-95232376D01*
X169455911Y-95188717D01*
X169519762Y-95093156D01*
X169638156Y-94974762D01*
X169777374Y-94881740D01*
X169777376Y-94881739D01*
X169932065Y-94817664D01*
X170096281Y-94785000D01*
X170263719Y-94785000D01*
X170427935Y-94817664D01*
G37*
G36*
X129805000Y-95515000D02*
G01*
X128005000Y-95515000D01*
X128005000Y-93715000D01*
X129805000Y-93715000D01*
X129805000Y-95515000D01*
G37*
G36*
X134247520Y-93749586D02*
G01*
X134411310Y-93817430D01*
X134558717Y-93915924D01*
X134684076Y-94041283D01*
X134782570Y-94188690D01*
X134850414Y-94352480D01*
X134885000Y-94526358D01*
X134885000Y-94703642D01*
X134850414Y-94877520D01*
X134782570Y-95041310D01*
X134684076Y-95188717D01*
X134558717Y-95314076D01*
X134411310Y-95412570D01*
X134411309Y-95412571D01*
X134411308Y-95412571D01*
X134247520Y-95480414D01*
X134073644Y-95515000D01*
X133896356Y-95515000D01*
X133722480Y-95480414D01*
X133558692Y-95412571D01*
X133558691Y-95412571D01*
X133558690Y-95412570D01*
X133411283Y-95314076D01*
X133285924Y-95188717D01*
X133187430Y-95041310D01*
X133119586Y-94877520D01*
X133085000Y-94703642D01*
X133085000Y-94526358D01*
X133119586Y-94352480D01*
X133187430Y-94188690D01*
X133285924Y-94041283D01*
X133411283Y-93915924D01*
X133558690Y-93817430D01*
X133722480Y-93749586D01*
X133896356Y-93715000D01*
X134073644Y-93715000D01*
X134247520Y-93749586D01*
G37*
G36*
X136787520Y-93749586D02*
G01*
X136951310Y-93817430D01*
X137098717Y-93915924D01*
X137224076Y-94041283D01*
X137322570Y-94188690D01*
X137390414Y-94352480D01*
X137425000Y-94526358D01*
X137425000Y-94703642D01*
X137390414Y-94877520D01*
X137322570Y-95041310D01*
X137224076Y-95188717D01*
X137098717Y-95314076D01*
X136951310Y-95412570D01*
X136951309Y-95412571D01*
X136951308Y-95412571D01*
X136787520Y-95480414D01*
X136613644Y-95515000D01*
X136436356Y-95515000D01*
X136262480Y-95480414D01*
X136098692Y-95412571D01*
X136098691Y-95412571D01*
X136098690Y-95412570D01*
X135951283Y-95314076D01*
X135825924Y-95188717D01*
X135727430Y-95041310D01*
X135659586Y-94877520D01*
X135625000Y-94703642D01*
X135625000Y-94526358D01*
X135659586Y-94352480D01*
X135727430Y-94188690D01*
X135825924Y-94041283D01*
X135951283Y-93915924D01*
X136098690Y-93817430D01*
X136262480Y-93749586D01*
X136436356Y-93715000D01*
X136613644Y-93715000D01*
X136787520Y-93749586D01*
G37*
G36*
X139327520Y-93749586D02*
G01*
X139491310Y-93817430D01*
X139638717Y-93915924D01*
X139764076Y-94041283D01*
X139862570Y-94188690D01*
X139930414Y-94352480D01*
X139965000Y-94526358D01*
X139965000Y-94703642D01*
X139930414Y-94877520D01*
X139862570Y-95041310D01*
X139764076Y-95188717D01*
X139638717Y-95314076D01*
X139491310Y-95412570D01*
X139491309Y-95412571D01*
X139491308Y-95412571D01*
X139327520Y-95480414D01*
X139153644Y-95515000D01*
X138976356Y-95515000D01*
X138802480Y-95480414D01*
X138638692Y-95412571D01*
X138638691Y-95412571D01*
X138638690Y-95412570D01*
X138491283Y-95314076D01*
X138365924Y-95188717D01*
X138267430Y-95041310D01*
X138199586Y-94877520D01*
X138165000Y-94703642D01*
X138165000Y-94526358D01*
X138199586Y-94352480D01*
X138267430Y-94188690D01*
X138365924Y-94041283D01*
X138491283Y-93915924D01*
X138638690Y-93817430D01*
X138802480Y-93749586D01*
X138976356Y-93715000D01*
X139153644Y-93715000D01*
X139327520Y-93749586D01*
G37*
G36*
X131707520Y-93749586D02*
G01*
X131871310Y-93817430D01*
X132018717Y-93915924D01*
X132144076Y-94041283D01*
X132242570Y-94188690D01*
X132310414Y-94352480D01*
X132345000Y-94526358D01*
X132345000Y-94703642D01*
X132310414Y-94877520D01*
X132242570Y-95041310D01*
X132144076Y-95188717D01*
X132018717Y-95314076D01*
X131871310Y-95412570D01*
X131871309Y-95412571D01*
X131871308Y-95412571D01*
X131707520Y-95480414D01*
X131533644Y-95515000D01*
X131356356Y-95515000D01*
X131182480Y-95480414D01*
X131018692Y-95412571D01*
X131018691Y-95412571D01*
X131018690Y-95412570D01*
X130871283Y-95314076D01*
X130745924Y-95188717D01*
X130647430Y-95041310D01*
X130579586Y-94877520D01*
X130545000Y-94703642D01*
X130545000Y-94526358D01*
X130579586Y-94352480D01*
X130647430Y-94188690D01*
X130745924Y-94041283D01*
X130871283Y-93915924D01*
X131018690Y-93817430D01*
X131182480Y-93749586D01*
X131356356Y-93715000D01*
X131533644Y-93715000D01*
X131707520Y-93749586D01*
G37*
G36*
X170427935Y-92277664D02*
G01*
X170582624Y-92341739D01*
X170582626Y-92341740D01*
X170721844Y-92434762D01*
X170840238Y-92553156D01*
X170933260Y-92692374D01*
X170933261Y-92692376D01*
X170997336Y-92847065D01*
X171030000Y-93011281D01*
X171030000Y-93178719D01*
X170997336Y-93342935D01*
X170933261Y-93497624D01*
X170933260Y-93497626D01*
X170840238Y-93636844D01*
X170721844Y-93755238D01*
X170582626Y-93848260D01*
X170582625Y-93848261D01*
X170582624Y-93848261D01*
X170427935Y-93912336D01*
X170263719Y-93945000D01*
X170096281Y-93945000D01*
X169932065Y-93912336D01*
X169777376Y-93848261D01*
X169777375Y-93848261D01*
X169777374Y-93848260D01*
X169638156Y-93755238D01*
X169519762Y-93636844D01*
X169426740Y-93497626D01*
X169426739Y-93497624D01*
X169362664Y-93342935D01*
X169330000Y-93178719D01*
X169330000Y-93011281D01*
X169362664Y-92847065D01*
X169426739Y-92692376D01*
X169426740Y-92692374D01*
X169519762Y-92553156D01*
X169638156Y-92434762D01*
X169777374Y-92341740D01*
X169777376Y-92341739D01*
X169932065Y-92277664D01*
X170096281Y-92245000D01*
X170263719Y-92245000D01*
X170427935Y-92277664D01*
G37*
G36*
X170427935Y-89737664D02*
G01*
X170582624Y-89801739D01*
X170582626Y-89801740D01*
X170721844Y-89894762D01*
X170840238Y-90013156D01*
X170933260Y-90152374D01*
X170933261Y-90152376D01*
X170997336Y-90307065D01*
X171030000Y-90471281D01*
X171030000Y-90638719D01*
X170997336Y-90802935D01*
X170947495Y-90923260D01*
X170933260Y-90957626D01*
X170840238Y-91096844D01*
X170721844Y-91215238D01*
X170582626Y-91308260D01*
X170582625Y-91308261D01*
X170582624Y-91308261D01*
X170427935Y-91372336D01*
X170263719Y-91405000D01*
X170096281Y-91405000D01*
X169932065Y-91372336D01*
X169777376Y-91308261D01*
X169777375Y-91308261D01*
X169777374Y-91308260D01*
X169638156Y-91215238D01*
X169519762Y-91096844D01*
X169426740Y-90957626D01*
X169412505Y-90923260D01*
X169362664Y-90802935D01*
X169330000Y-90638719D01*
X169330000Y-90471281D01*
X169362664Y-90307065D01*
X169426739Y-90152376D01*
X169426740Y-90152374D01*
X169519762Y-90013156D01*
X169638156Y-89894762D01*
X169777374Y-89801740D01*
X169777376Y-89801739D01*
X169932065Y-89737664D01*
X170096281Y-89705000D01*
X170263719Y-89705000D01*
X170427935Y-89737664D01*
G37*
G36*
X146932935Y-89352664D02*
G01*
X147087624Y-89416739D01*
X147087626Y-89416740D01*
X147226844Y-89509762D01*
X147345238Y-89628156D01*
X147418409Y-89737665D01*
X147438261Y-89767376D01*
X147502336Y-89922065D01*
X147535000Y-90086281D01*
X147535000Y-90253719D01*
X147502336Y-90417935D01*
X147438261Y-90572624D01*
X147438260Y-90572626D01*
X147345238Y-90711844D01*
X147226844Y-90830238D01*
X147087626Y-90923260D01*
X147087625Y-90923261D01*
X147087624Y-90923261D01*
X146932935Y-90987336D01*
X146768719Y-91020000D01*
X146601281Y-91020000D01*
X146437065Y-90987336D01*
X146282376Y-90923261D01*
X146282375Y-90923261D01*
X146282374Y-90923260D01*
X146143156Y-90830238D01*
X146024762Y-90711844D01*
X145931740Y-90572626D01*
X145931739Y-90572624D01*
X145867664Y-90417935D01*
X145835000Y-90253719D01*
X145835000Y-90086281D01*
X145867664Y-89922065D01*
X145931739Y-89767376D01*
X145951591Y-89737665D01*
X146024762Y-89628156D01*
X146143156Y-89509762D01*
X146282374Y-89416740D01*
X146282376Y-89416739D01*
X146437065Y-89352664D01*
X146601281Y-89320000D01*
X146768719Y-89320000D01*
X146932935Y-89352664D01*
G37*
G36*
X136772935Y-89352664D02*
G01*
X136927624Y-89416739D01*
X136927626Y-89416740D01*
X137066844Y-89509762D01*
X137185238Y-89628156D01*
X137258409Y-89737665D01*
X137278261Y-89767376D01*
X137342336Y-89922065D01*
X137375000Y-90086281D01*
X137375000Y-90253719D01*
X137342336Y-90417935D01*
X137278261Y-90572624D01*
X137278260Y-90572626D01*
X137185238Y-90711844D01*
X137066844Y-90830238D01*
X136927626Y-90923260D01*
X136927625Y-90923261D01*
X136927624Y-90923261D01*
X136772935Y-90987336D01*
X136608719Y-91020000D01*
X136441281Y-91020000D01*
X136277065Y-90987336D01*
X136122376Y-90923261D01*
X136122375Y-90923261D01*
X136122374Y-90923260D01*
X135983156Y-90830238D01*
X135864762Y-90711844D01*
X135771740Y-90572626D01*
X135771739Y-90572624D01*
X135707664Y-90417935D01*
X135675000Y-90253719D01*
X135675000Y-90086281D01*
X135707664Y-89922065D01*
X135771739Y-89767376D01*
X135791591Y-89737665D01*
X135864762Y-89628156D01*
X135983156Y-89509762D01*
X136122374Y-89416740D01*
X136122376Y-89416739D01*
X136277065Y-89352664D01*
X136441281Y-89320000D01*
X136608719Y-89320000D01*
X136772935Y-89352664D01*
G37*
M02*
