%TF.GenerationSoftware,KiCad,Pcbnew,(5.1.6)-1*%
%TF.CreationDate,2021-11-10T22:47:38+01:00*%
%TF.ProjectId,carteExtensionMidi,63617274-6545-4787-9465-6e73696f6e4d,rev?*%
%TF.SameCoordinates,Original*%
%TF.FileFunction,Legend,Bot*%
%TF.FilePolarity,Positive*%
%FSLAX46Y46*%
G04 Gerber Fmt 4.6, Leading zero omitted, Abs format (unit mm)*
G04 Created by KiCad (PCBNEW (5.1.6)-1) date 2021-11-10 22:47:38*
%MOMM*%
%LPD*%
G01*
G04 APERTURE LIST*
%ADD10C,0.120000*%
%ADD11C,0.150000*%
G04 APERTURE END LIST*
D10*
%TO.C,A1*%
X159770000Y-137925000D02*
X157230000Y-140465000D01*
X171200000Y-137925000D02*
X159770000Y-137925000D01*
X172850000Y-136275000D02*
X171200000Y-137925000D01*
X172850000Y-71625000D02*
X172850000Y-136275000D01*
X163320000Y-71625000D02*
X172850000Y-71625000D01*
X163320000Y-65275000D02*
X163320000Y-71625000D01*
X151640000Y-65275000D02*
X163320000Y-65275000D01*
X151640000Y-71625000D02*
X151640000Y-65275000D01*
X131570000Y-71625000D02*
X151640000Y-71625000D01*
X131570000Y-69725000D02*
X131570000Y-71625000D01*
X122430000Y-69725000D02*
X131570000Y-69725000D01*
X122430000Y-71625000D02*
X122430000Y-69725000D01*
X119250000Y-71625000D02*
X122430000Y-71625000D01*
X119250000Y-137925000D02*
X119250000Y-71625000D01*
X121920000Y-137925000D02*
X119250000Y-137925000D01*
X124460000Y-140465000D02*
X121920000Y-137925000D01*
X157230000Y-140465000D02*
X124460000Y-140465000D01*
D11*
X118276666Y-100250714D02*
X118276666Y-100726904D01*
X118562380Y-100155476D02*
X117562380Y-100488809D01*
X118562380Y-100822142D01*
X118562380Y-101679285D02*
X118562380Y-101107857D01*
X118562380Y-101393571D02*
X117562380Y-101393571D01*
X117705238Y-101298333D01*
X117800476Y-101203095D01*
X117848095Y-101107857D01*
%TD*%
M02*
