M48
; DRILL file {KiCad (5.1.6)-1} date 11/10/21 22:47:40
; FORMAT={-:-/ absolute / inch / decimal}
; #@! TF.CreationDate,2021-11-10T22:47:40+01:00
; #@! TF.GenerationSoftware,Kicad,Pcbnew,(5.1.6)-1
; #@! TF.FileFunction,Plated,1,2,PTH
FMAT,2
INCH
T1C0.0315
T2C0.0394
%
G90
G05
T1
X6.325Y-4.05
X6.575Y-4.05
X6.05Y-4.725
X6.45Y-4.725
X5.925Y-5.0
X5.925Y-5.3
X6.15Y-4.925
X6.15Y-5.025
X6.15Y-5.125
X6.45Y-4.925
X6.45Y-5.025
X6.45Y-5.125
X5.375Y-3.55
X5.775Y-3.55
X5.3Y-5.0
X5.7Y-5.0
X5.375Y-3.975
X5.375Y-4.075
X5.375Y-4.175
X5.375Y-4.275
X5.375Y-4.375
X5.375Y-4.475
X5.375Y-4.575
X5.675Y-3.975
X5.675Y-4.075
X5.675Y-4.175
X5.675Y-4.275
X5.675Y-4.375
X5.675Y-4.475
X5.675Y-4.575
X5.175Y-4.175
X5.175Y-4.575
T2
X5.2Y-5.225
X5.3Y-5.225
X5.4Y-5.225
X5.5Y-5.225
X5.6Y-5.225
X5.075Y-3.725
X5.175Y-3.725
X5.275Y-3.725
X5.375Y-3.725
X5.475Y-3.725
X4.8Y-3.925
X4.8Y-4.025
X4.8Y-4.125
X4.8Y-4.225
X4.8Y-4.325
X4.8Y-4.425
X4.8Y-4.525
X4.8Y-4.625
X4.8Y-4.825
X4.8Y-4.925
X4.8Y-5.025
X4.8Y-5.125
X4.8Y-5.225
X4.8Y-5.325
X6.7Y-3.5652
X6.7Y-3.6652
X6.7Y-3.7652
X6.7Y-3.8652
X6.7Y-3.9652
X6.7Y-4.0652
X6.7Y-4.1652
X6.7Y-4.2652
X6.7Y-4.3652
X6.7Y-4.4652
X6.7Y-4.625
X6.7Y-4.725
X6.7Y-4.825
X6.7Y-4.925
X6.7Y-5.025
X6.7Y-5.125
X6.7Y-5.225
X6.7Y-5.325
X6.025Y-3.825
X6.025Y-3.925
X6.125Y-3.825
X6.125Y-3.925
X6.225Y-3.825
X6.225Y-3.925
X6.325Y-3.825
X6.325Y-3.925
T0
M30
