%TF.GenerationSoftware,KiCad,Pcbnew,(5.1.6)-1*%
%TF.CreationDate,2021-11-10T22:47:38+01:00*%
%TF.ProjectId,carteExtensionMidi,63617274-6545-4787-9465-6e73696f6e4d,rev?*%
%TF.SameCoordinates,Original*%
%TF.FileFunction,Copper,L1,Top*%
%TF.FilePolarity,Positive*%
%FSLAX46Y46*%
G04 Gerber Fmt 4.6, Leading zero omitted, Abs format (unit mm)*
G04 Created by KiCad (PCBNEW (5.1.6)-1) date 2021-11-10 22:47:38*
%MOMM*%
%LPD*%
G01*
G04 APERTURE LIST*
%TA.AperFunction,ComponentPad*%
%ADD10O,1.600000X1.600000*%
%TD*%
%TA.AperFunction,ComponentPad*%
%ADD11R,1.600000X1.600000*%
%TD*%
%TA.AperFunction,ComponentPad*%
%ADD12O,1.700000X1.700000*%
%TD*%
%TA.AperFunction,ComponentPad*%
%ADD13R,1.700000X1.700000*%
%TD*%
%TA.AperFunction,ComponentPad*%
%ADD14C,1.600000*%
%TD*%
%TA.AperFunction,ComponentPad*%
%ADD15R,2.400000X1.600000*%
%TD*%
%TA.AperFunction,ComponentPad*%
%ADD16O,2.400000X1.600000*%
%TD*%
%TA.AperFunction,ViaPad*%
%ADD17C,1.400000*%
%TD*%
%TA.AperFunction,Conductor*%
%ADD18C,0.750000*%
%TD*%
G04 APERTURE END LIST*
D10*
%TO.P,A1,32*%
%TO.N,IRQ_nrF*%
X170180000Y-90555000D03*
%TO.P,A1,31*%
%TO.N,Net-(A1-Pad31)*%
X170180000Y-93095000D03*
D11*
%TO.P,A1,1*%
%TO.N,Net-(A1-Pad1)*%
X121920000Y-99695000D03*
D10*
%TO.P,A1,17*%
%TO.N,MIDI_IN_RX*%
X170180000Y-130175000D03*
%TO.P,A1,2*%
%TO.N,Net-(A1-Pad2)*%
X121920000Y-102235000D03*
%TO.P,A1,18*%
%TO.N,Net-(A1-Pad18)*%
X170180000Y-127635000D03*
%TO.P,A1,3*%
%TO.N,Net-(A1-Pad3)*%
X121920000Y-104775000D03*
%TO.P,A1,19*%
%TO.N,start*%
X170180000Y-125095000D03*
%TO.P,A1,4*%
%TO.N,3.3V*%
X121920000Y-107315000D03*
%TO.P,A1,20*%
%TO.N,out_s*%
X170180000Y-122555000D03*
%TO.P,A1,5*%
%TO.N,5V*%
X121920000Y-109855000D03*
%TO.P,A1,21*%
%TO.N,enable*%
X170180000Y-120015000D03*
%TO.P,A1,6*%
%TO.N,GND*%
X121920000Y-112395000D03*
%TO.P,A1,22*%
%TO.N,Net-(A1-Pad22)*%
X170180000Y-117475000D03*
%TO.P,A1,7*%
%TO.N,GND*%
X121920000Y-114935000D03*
%TO.P,A1,23*%
%TO.N,MIDI_OUT_TX*%
X170180000Y-113415000D03*
%TO.P,A1,8*%
%TO.N,Vinput*%
X121920000Y-117475000D03*
%TO.P,A1,24*%
%TO.N,CE_nrF*%
X170180000Y-110875000D03*
%TO.P,A1,9*%
%TO.N,DMX_TX*%
X121920000Y-122555000D03*
%TO.P,A1,25*%
%TO.N,CSN_nrF*%
X170180000Y-108335000D03*
%TO.P,A1,10*%
%TO.N,Net-(A1-Pad10)*%
X121920000Y-125095000D03*
%TO.P,A1,26*%
%TO.N,MOSI_nrF*%
X170180000Y-105795000D03*
%TO.P,A1,11*%
%TO.N,Net-(A1-Pad11)*%
X121920000Y-127635000D03*
%TO.P,A1,27*%
%TO.N,MISO_nrF*%
X170180000Y-103255000D03*
%TO.P,A1,12*%
%TO.N,PitchIn*%
X121920000Y-130175000D03*
%TO.P,A1,28*%
%TO.N,SCK_nrF*%
X170180000Y-100715000D03*
%TO.P,A1,13*%
%TO.N,VolumeIn_Adapt*%
X121920000Y-132715000D03*
%TO.P,A1,29*%
%TO.N,Net-(A1-Pad29)*%
X170180000Y-98175000D03*
%TO.P,A1,14*%
%TO.N,AnInR*%
X121920000Y-135255000D03*
%TO.P,A1,30*%
%TO.N,Net-(A1-Pad30)*%
X170180000Y-95635000D03*
%TO.P,A1,15*%
%TO.N,Net-(A1-Pad15)*%
X170180000Y-135255000D03*
%TO.P,A1,16*%
%TO.N,Net-(A1-Pad16)*%
X170180000Y-132715000D03*
%TD*%
D11*
%TO.P,D1,1*%
%TO.N,Net-(D1-Pad1)*%
X150495000Y-127000000D03*
D10*
%TO.P,D1,2*%
%TO.N,Net-(D1-Pad2)*%
X150495000Y-134620000D03*
%TD*%
D12*
%TO.P,J1,5*%
%TO.N,Net-(J1-Pad5)*%
X142240000Y-132715000D03*
%TO.P,J1,4*%
%TO.N,Net-(D1-Pad2)*%
X139700000Y-132715000D03*
%TO.P,J1,3*%
%TO.N,Net-(J1-Pad3)*%
X137160000Y-132715000D03*
%TO.P,J1,2*%
%TO.N,Net-(J1-Pad2)*%
X134620000Y-132715000D03*
D13*
%TO.P,J1,1*%
%TO.N,Net-(J1-Pad1)*%
X132080000Y-132715000D03*
%TD*%
%TO.P,J2,1*%
%TO.N,Net-(J2-Pad1)*%
X128905000Y-94615000D03*
D12*
%TO.P,J2,2*%
%TO.N,Net-(J2-Pad2)*%
X131445000Y-94615000D03*
%TO.P,J2,3*%
%TO.N,GND*%
X133985000Y-94615000D03*
%TO.P,J2,4*%
%TO.N,Net-(J2-Pad4)*%
X136525000Y-94615000D03*
%TO.P,J2,5*%
%TO.N,Net-(J2-Pad5)*%
X139065000Y-94615000D03*
%TD*%
D13*
%TO.P,J8,1*%
%TO.N,GND*%
X153035000Y-99695000D03*
D12*
%TO.P,J8,2*%
%TO.N,3.3V*%
X153035000Y-97155000D03*
%TO.P,J8,3*%
%TO.N,CE_nrF*%
X155575000Y-99695000D03*
%TO.P,J8,4*%
%TO.N,CSN_nrF*%
X155575000Y-97155000D03*
%TO.P,J8,5*%
%TO.N,SCK_nrF*%
X158115000Y-99695000D03*
%TO.P,J8,6*%
%TO.N,MOSI_nrF*%
X158115000Y-97155000D03*
%TO.P,J8,7*%
%TO.N,MISO_nrF*%
X160655000Y-99695000D03*
%TO.P,J8,8*%
%TO.N,IRQ_nrF*%
X160655000Y-97155000D03*
%TD*%
D14*
%TO.P,R1,1*%
%TO.N,Net-(D1-Pad1)*%
X144780000Y-127000000D03*
D10*
%TO.P,R1,2*%
%TO.N,Net-(J1-Pad2)*%
X134620000Y-127000000D03*
%TD*%
%TO.P,R2,2*%
%TO.N,3.3V*%
X153670000Y-120015000D03*
D14*
%TO.P,R2,1*%
%TO.N,MIDI_IN_RX*%
X163830000Y-120015000D03*
%TD*%
%TO.P,R3,1*%
%TO.N,Net-(J2-Pad2)*%
X131445000Y-106045000D03*
D10*
%TO.P,R3,2*%
%TO.N,5V*%
X131445000Y-116205000D03*
%TD*%
%TO.P,R4,2*%
%TO.N,Net-(R4-Pad2)*%
X146685000Y-90170000D03*
D14*
%TO.P,R4,1*%
%TO.N,Net-(J2-Pad4)*%
X136525000Y-90170000D03*
%TD*%
D15*
%TO.P,U1,1*%
%TO.N,Net-(D1-Pad1)*%
X156210000Y-125095000D03*
D16*
%TO.P,U1,4*%
%TO.N,GND*%
X163830000Y-130175000D03*
%TO.P,U1,2*%
%TO.N,Net-(D1-Pad2)*%
X156210000Y-127635000D03*
%TO.P,U1,5*%
%TO.N,MIDI_IN_RX*%
X163830000Y-127635000D03*
%TO.P,U1,3*%
%TO.N,Net-(U1-Pad3)*%
X156210000Y-130175000D03*
%TO.P,U1,6*%
%TO.N,Net-(U1-Pad6)*%
X163830000Y-125095000D03*
%TD*%
D15*
%TO.P,U2,1*%
%TO.N,MIDI_OUT_TX*%
X144145000Y-116205000D03*
D16*
%TO.P,U2,8*%
%TO.N,N/C*%
X136525000Y-100965000D03*
%TO.P,U2,2*%
%TO.N,MIDI_OUT_TX*%
X144145000Y-113665000D03*
%TO.P,U2,9*%
%TO.N,N/C*%
X136525000Y-103505000D03*
%TO.P,U2,3*%
%TO.N,Net-(U2-Pad3)*%
X144145000Y-111125000D03*
%TO.P,U2,10*%
%TO.N,N/C*%
X136525000Y-106045000D03*
%TO.P,U2,4*%
%TO.N,Net-(R4-Pad2)*%
X144145000Y-108585000D03*
%TO.P,U2,11*%
%TO.N,N/C*%
X136525000Y-108585000D03*
%TO.P,U2,5*%
%TO.N,Net-(U2-Pad3)*%
X144145000Y-106045000D03*
%TO.P,U2,12*%
%TO.N,N/C*%
X136525000Y-111125000D03*
%TO.P,U2,6*%
%TO.N,Net-(U2-Pad3)*%
X144145000Y-103505000D03*
%TO.P,U2,13*%
%TO.N,N/C*%
X136525000Y-113665000D03*
%TO.P,U2,7*%
%TO.N,GND*%
X144145000Y-100965000D03*
%TO.P,U2,14*%
%TO.N,5V*%
X136525000Y-116205000D03*
%TD*%
D17*
%TO.N,MISO_nrF*%
X160655000Y-102870000D03*
X167005000Y-102870000D03*
%TD*%
D18*
%TO.N,MISO_nrF*%
X160655000Y-102870000D02*
X167005000Y-102870000D01*
%TD*%
M02*
