%TF.GenerationSoftware,KiCad,Pcbnew,(5.1.6)-1*%
%TF.CreationDate,2021-11-10T22:47:38+01:00*%
%TF.ProjectId,carteExtensionMidi,63617274-6545-4787-9465-6e73696f6e4d,rev?*%
%TF.SameCoordinates,Original*%
%TF.FileFunction,Legend,Top*%
%TF.FilePolarity,Positive*%
%FSLAX46Y46*%
G04 Gerber Fmt 4.6, Leading zero omitted, Abs format (unit mm)*
G04 Created by KiCad (PCBNEW (5.1.6)-1) date 2021-11-10 22:47:38*
%MOMM*%
%LPD*%
G01*
G04 APERTURE LIST*
%ADD10C,0.150000*%
%ADD11C,0.120000*%
G04 APERTURE END LIST*
D10*
X123817380Y-123007380D02*
X123817380Y-122007380D01*
X124055476Y-122007380D01*
X124198333Y-122055000D01*
X124293571Y-122150238D01*
X124341190Y-122245476D01*
X124388809Y-122435952D01*
X124388809Y-122578809D01*
X124341190Y-122769285D01*
X124293571Y-122864523D01*
X124198333Y-122959761D01*
X124055476Y-123007380D01*
X123817380Y-123007380D01*
X124817380Y-123007380D02*
X124817380Y-122007380D01*
X125150714Y-122721666D01*
X125484047Y-122007380D01*
X125484047Y-123007380D01*
X125865000Y-122007380D02*
X126531666Y-123007380D01*
X126531666Y-122007380D02*
X125865000Y-123007380D01*
X126674523Y-123102619D02*
X127436428Y-123102619D01*
X127531666Y-122007380D02*
X128103095Y-122007380D01*
X127817380Y-123007380D02*
X127817380Y-122007380D01*
X128341190Y-122007380D02*
X129007857Y-123007380D01*
X129007857Y-122007380D02*
X128341190Y-123007380D01*
X123618809Y-106767380D02*
X124237857Y-106767380D01*
X123904523Y-107148333D01*
X124047380Y-107148333D01*
X124142619Y-107195952D01*
X124190238Y-107243571D01*
X124237857Y-107338809D01*
X124237857Y-107576904D01*
X124190238Y-107672142D01*
X124142619Y-107719761D01*
X124047380Y-107767380D01*
X123761666Y-107767380D01*
X123666428Y-107719761D01*
X123618809Y-107672142D01*
X124666428Y-107672142D02*
X124714047Y-107719761D01*
X124666428Y-107767380D01*
X124618809Y-107719761D01*
X124666428Y-107672142D01*
X124666428Y-107767380D01*
X125047380Y-106767380D02*
X125666428Y-106767380D01*
X125333095Y-107148333D01*
X125475952Y-107148333D01*
X125571190Y-107195952D01*
X125618809Y-107243571D01*
X125666428Y-107338809D01*
X125666428Y-107576904D01*
X125618809Y-107672142D01*
X125571190Y-107719761D01*
X125475952Y-107767380D01*
X125190238Y-107767380D01*
X125095000Y-107719761D01*
X125047380Y-107672142D01*
X125952142Y-106767380D02*
X126285476Y-107767380D01*
X126618809Y-106767380D01*
X124269523Y-109307380D02*
X123793333Y-109307380D01*
X123745714Y-109783571D01*
X123793333Y-109735952D01*
X123888571Y-109688333D01*
X124126666Y-109688333D01*
X124221904Y-109735952D01*
X124269523Y-109783571D01*
X124317142Y-109878809D01*
X124317142Y-110116904D01*
X124269523Y-110212142D01*
X124221904Y-110259761D01*
X124126666Y-110307380D01*
X123888571Y-110307380D01*
X123793333Y-110259761D01*
X123745714Y-110212142D01*
X124602857Y-109307380D02*
X124936190Y-110307380D01*
X125269523Y-109307380D01*
X124333095Y-111895000D02*
X124237857Y-111847380D01*
X124095000Y-111847380D01*
X123952142Y-111895000D01*
X123856904Y-111990238D01*
X123809285Y-112085476D01*
X123761666Y-112275952D01*
X123761666Y-112418809D01*
X123809285Y-112609285D01*
X123856904Y-112704523D01*
X123952142Y-112799761D01*
X124095000Y-112847380D01*
X124190238Y-112847380D01*
X124333095Y-112799761D01*
X124380714Y-112752142D01*
X124380714Y-112418809D01*
X124190238Y-112418809D01*
X124809285Y-112847380D02*
X124809285Y-111847380D01*
X125380714Y-112847380D01*
X125380714Y-111847380D01*
X125856904Y-112847380D02*
X125856904Y-111847380D01*
X126095000Y-111847380D01*
X126237857Y-111895000D01*
X126333095Y-111990238D01*
X126380714Y-112085476D01*
X126428333Y-112275952D01*
X126428333Y-112418809D01*
X126380714Y-112609285D01*
X126333095Y-112704523D01*
X126237857Y-112799761D01*
X126095000Y-112847380D01*
X125856904Y-112847380D01*
X123096190Y-79748571D02*
X123429523Y-79748571D01*
X123572380Y-80272380D02*
X123096190Y-80272380D01*
X123096190Y-79272380D01*
X123572380Y-79272380D01*
X123905714Y-80272380D02*
X124429523Y-79605714D01*
X123905714Y-79605714D02*
X124429523Y-80272380D01*
X124667619Y-79605714D02*
X125048571Y-79605714D01*
X124810476Y-79272380D02*
X124810476Y-80129523D01*
X124858095Y-80224761D01*
X124953333Y-80272380D01*
X125048571Y-80272380D01*
X125762857Y-80224761D02*
X125667619Y-80272380D01*
X125477142Y-80272380D01*
X125381904Y-80224761D01*
X125334285Y-80129523D01*
X125334285Y-79748571D01*
X125381904Y-79653333D01*
X125477142Y-79605714D01*
X125667619Y-79605714D01*
X125762857Y-79653333D01*
X125810476Y-79748571D01*
X125810476Y-79843809D01*
X125334285Y-79939047D01*
X126239047Y-79605714D02*
X126239047Y-80272380D01*
X126239047Y-79700952D02*
X126286666Y-79653333D01*
X126381904Y-79605714D01*
X126524761Y-79605714D01*
X126620000Y-79653333D01*
X126667619Y-79748571D01*
X126667619Y-80272380D01*
X127096190Y-80224761D02*
X127191428Y-80272380D01*
X127381904Y-80272380D01*
X127477142Y-80224761D01*
X127524761Y-80129523D01*
X127524761Y-80081904D01*
X127477142Y-79986666D01*
X127381904Y-79939047D01*
X127239047Y-79939047D01*
X127143809Y-79891428D01*
X127096190Y-79796190D01*
X127096190Y-79748571D01*
X127143809Y-79653333D01*
X127239047Y-79605714D01*
X127381904Y-79605714D01*
X127477142Y-79653333D01*
X127953333Y-80272380D02*
X127953333Y-79605714D01*
X127953333Y-79272380D02*
X127905714Y-79320000D01*
X127953333Y-79367619D01*
X128000952Y-79320000D01*
X127953333Y-79272380D01*
X127953333Y-79367619D01*
X128572380Y-80272380D02*
X128477142Y-80224761D01*
X128429523Y-80177142D01*
X128381904Y-80081904D01*
X128381904Y-79796190D01*
X128429523Y-79700952D01*
X128477142Y-79653333D01*
X128572380Y-79605714D01*
X128715238Y-79605714D01*
X128810476Y-79653333D01*
X128858095Y-79700952D01*
X128905714Y-79796190D01*
X128905714Y-80081904D01*
X128858095Y-80177142D01*
X128810476Y-80224761D01*
X128715238Y-80272380D01*
X128572380Y-80272380D01*
X129334285Y-79605714D02*
X129334285Y-80272380D01*
X129334285Y-79700952D02*
X129381904Y-79653333D01*
X129477142Y-79605714D01*
X129620000Y-79605714D01*
X129715238Y-79653333D01*
X129762857Y-79748571D01*
X129762857Y-80272380D01*
X131000952Y-80272380D02*
X131000952Y-79272380D01*
X131334285Y-79986666D01*
X131667619Y-79272380D01*
X131667619Y-80272380D01*
X132143809Y-80272380D02*
X132143809Y-79272380D01*
X132620000Y-80272380D02*
X132620000Y-79272380D01*
X132858095Y-79272380D01*
X133000952Y-79320000D01*
X133096190Y-79415238D01*
X133143809Y-79510476D01*
X133191428Y-79700952D01*
X133191428Y-79843809D01*
X133143809Y-80034285D01*
X133096190Y-80129523D01*
X133000952Y-80224761D01*
X132858095Y-80272380D01*
X132620000Y-80272380D01*
X133620000Y-80272380D02*
X133620000Y-79272380D01*
X134096190Y-79891428D02*
X134858095Y-79891428D01*
X135334285Y-80272380D02*
X135334285Y-79272380D01*
X135810476Y-80272380D02*
X135810476Y-79272380D01*
X136381904Y-80272380D01*
X136381904Y-79272380D01*
X138334285Y-79224761D02*
X137477142Y-80510476D01*
X139429523Y-80272380D02*
X139429523Y-79272380D01*
X139762857Y-79986666D01*
X140096190Y-79272380D01*
X140096190Y-80272380D01*
X140572380Y-80272380D02*
X140572380Y-79272380D01*
X141048571Y-80272380D02*
X141048571Y-79272380D01*
X141286666Y-79272380D01*
X141429523Y-79320000D01*
X141524761Y-79415238D01*
X141572380Y-79510476D01*
X141620000Y-79700952D01*
X141620000Y-79843809D01*
X141572380Y-80034285D01*
X141524761Y-80129523D01*
X141429523Y-80224761D01*
X141286666Y-80272380D01*
X141048571Y-80272380D01*
X142048571Y-80272380D02*
X142048571Y-79272380D01*
X142524761Y-79891428D02*
X143286666Y-79891428D01*
X143953333Y-79272380D02*
X144143809Y-79272380D01*
X144239047Y-79320000D01*
X144334285Y-79415238D01*
X144381904Y-79605714D01*
X144381904Y-79939047D01*
X144334285Y-80129523D01*
X144239047Y-80224761D01*
X144143809Y-80272380D01*
X143953333Y-80272380D01*
X143858095Y-80224761D01*
X143762857Y-80129523D01*
X143715238Y-79939047D01*
X143715238Y-79605714D01*
X143762857Y-79415238D01*
X143858095Y-79320000D01*
X143953333Y-79272380D01*
X144810476Y-79272380D02*
X144810476Y-80081904D01*
X144858095Y-80177142D01*
X144905714Y-80224761D01*
X145000952Y-80272380D01*
X145191428Y-80272380D01*
X145286666Y-80224761D01*
X145334285Y-80177142D01*
X145381904Y-80081904D01*
X145381904Y-79272380D01*
X145715238Y-79272380D02*
X146286666Y-79272380D01*
X146000952Y-80272380D02*
X146000952Y-79272380D01*
X129977142Y-81922380D02*
X129500952Y-81922380D01*
X129500952Y-80922380D01*
X130310476Y-81398571D02*
X130643809Y-81398571D01*
X130786666Y-81922380D02*
X130310476Y-81922380D01*
X130310476Y-80922380D01*
X130786666Y-80922380D01*
X131215238Y-81255714D02*
X131215238Y-81922380D01*
X131215238Y-81350952D02*
X131262857Y-81303333D01*
X131358095Y-81255714D01*
X131500952Y-81255714D01*
X131596190Y-81303333D01*
X131643809Y-81398571D01*
X131643809Y-81922380D01*
X132072380Y-81874761D02*
X132167619Y-81922380D01*
X132358095Y-81922380D01*
X132453333Y-81874761D01*
X132500952Y-81779523D01*
X132500952Y-81731904D01*
X132453333Y-81636666D01*
X132358095Y-81589047D01*
X132215238Y-81589047D01*
X132120000Y-81541428D01*
X132072380Y-81446190D01*
X132072380Y-81398571D01*
X132120000Y-81303333D01*
X132215238Y-81255714D01*
X132358095Y-81255714D01*
X132453333Y-81303333D01*
X132929523Y-81398571D02*
X133262857Y-81398571D01*
X133405714Y-81922380D02*
X132929523Y-81922380D01*
X132929523Y-80922380D01*
X133405714Y-80922380D01*
X135310476Y-80874761D02*
X134453333Y-82160476D01*
X136358095Y-81017619D02*
X136405714Y-80970000D01*
X136500952Y-80922380D01*
X136739047Y-80922380D01*
X136834285Y-80970000D01*
X136881904Y-81017619D01*
X136929523Y-81112857D01*
X136929523Y-81208095D01*
X136881904Y-81350952D01*
X136310476Y-81922380D01*
X136929523Y-81922380D01*
X137548571Y-80922380D02*
X137643809Y-80922380D01*
X137739047Y-80970000D01*
X137786666Y-81017619D01*
X137834285Y-81112857D01*
X137881904Y-81303333D01*
X137881904Y-81541428D01*
X137834285Y-81731904D01*
X137786666Y-81827142D01*
X137739047Y-81874761D01*
X137643809Y-81922380D01*
X137548571Y-81922380D01*
X137453333Y-81874761D01*
X137405714Y-81827142D01*
X137358095Y-81731904D01*
X137310476Y-81541428D01*
X137310476Y-81303333D01*
X137358095Y-81112857D01*
X137405714Y-81017619D01*
X137453333Y-80970000D01*
X137548571Y-80922380D01*
X138262857Y-81017619D02*
X138310476Y-80970000D01*
X138405714Y-80922380D01*
X138643809Y-80922380D01*
X138739047Y-80970000D01*
X138786666Y-81017619D01*
X138834285Y-81112857D01*
X138834285Y-81208095D01*
X138786666Y-81350952D01*
X138215238Y-81922380D01*
X138834285Y-81922380D01*
X139786666Y-81922380D02*
X139215238Y-81922380D01*
X139500952Y-81922380D02*
X139500952Y-80922380D01*
X139405714Y-81065238D01*
X139310476Y-81160476D01*
X139215238Y-81208095D01*
X130262619Y-136342380D02*
X130262619Y-135342380D01*
X130595952Y-136056666D01*
X130929285Y-135342380D01*
X130929285Y-136342380D01*
X131405476Y-136342380D02*
X131405476Y-135342380D01*
X131881666Y-136342380D02*
X131881666Y-135342380D01*
X132119761Y-135342380D01*
X132262619Y-135390000D01*
X132357857Y-135485238D01*
X132405476Y-135580476D01*
X132453095Y-135770952D01*
X132453095Y-135913809D01*
X132405476Y-136104285D01*
X132357857Y-136199523D01*
X132262619Y-136294761D01*
X132119761Y-136342380D01*
X131881666Y-136342380D01*
X132881666Y-136342380D02*
X132881666Y-135342380D01*
X133119761Y-136437619D02*
X133881666Y-136437619D01*
X134119761Y-136342380D02*
X134119761Y-135342380D01*
X134595952Y-136342380D02*
X134595952Y-135342380D01*
X135167380Y-136342380D01*
X135167380Y-135342380D01*
X127055952Y-91892380D02*
X127055952Y-90892380D01*
X127389285Y-91606666D01*
X127722619Y-90892380D01*
X127722619Y-91892380D01*
X128198809Y-91892380D02*
X128198809Y-90892380D01*
X128675000Y-91892380D02*
X128675000Y-90892380D01*
X128913095Y-90892380D01*
X129055952Y-90940000D01*
X129151190Y-91035238D01*
X129198809Y-91130476D01*
X129246428Y-91320952D01*
X129246428Y-91463809D01*
X129198809Y-91654285D01*
X129151190Y-91749523D01*
X129055952Y-91844761D01*
X128913095Y-91892380D01*
X128675000Y-91892380D01*
X129675000Y-91892380D02*
X129675000Y-90892380D01*
X129913095Y-91987619D02*
X130675000Y-91987619D01*
X131103571Y-90892380D02*
X131294047Y-90892380D01*
X131389285Y-90940000D01*
X131484523Y-91035238D01*
X131532142Y-91225714D01*
X131532142Y-91559047D01*
X131484523Y-91749523D01*
X131389285Y-91844761D01*
X131294047Y-91892380D01*
X131103571Y-91892380D01*
X131008333Y-91844761D01*
X130913095Y-91749523D01*
X130865476Y-91559047D01*
X130865476Y-91225714D01*
X130913095Y-91035238D01*
X131008333Y-90940000D01*
X131103571Y-90892380D01*
X131960714Y-90892380D02*
X131960714Y-91701904D01*
X132008333Y-91797142D01*
X132055952Y-91844761D01*
X132151190Y-91892380D01*
X132341666Y-91892380D01*
X132436904Y-91844761D01*
X132484523Y-91797142D01*
X132532142Y-91701904D01*
X132532142Y-90892380D01*
X132865476Y-90892380D02*
X133436904Y-90892380D01*
X133151190Y-91892380D02*
X133151190Y-90892380D01*
X154662619Y-88050714D02*
X154662619Y-88717380D01*
X154662619Y-88145952D02*
X154710238Y-88098333D01*
X154805476Y-88050714D01*
X154948333Y-88050714D01*
X155043571Y-88098333D01*
X155091190Y-88193571D01*
X155091190Y-88717380D01*
X156138809Y-88717380D02*
X155805476Y-88241190D01*
X155567380Y-88717380D02*
X155567380Y-87717380D01*
X155948333Y-87717380D01*
X156043571Y-87765000D01*
X156091190Y-87812619D01*
X156138809Y-87907857D01*
X156138809Y-88050714D01*
X156091190Y-88145952D01*
X156043571Y-88193571D01*
X155948333Y-88241190D01*
X155567380Y-88241190D01*
X156900714Y-88193571D02*
X156567380Y-88193571D01*
X156567380Y-88717380D02*
X156567380Y-87717380D01*
X157043571Y-87717380D01*
X157376904Y-87812619D02*
X157424523Y-87765000D01*
X157519761Y-87717380D01*
X157757857Y-87717380D01*
X157853095Y-87765000D01*
X157900714Y-87812619D01*
X157948333Y-87907857D01*
X157948333Y-88003095D01*
X157900714Y-88145952D01*
X157329285Y-88717380D01*
X157948333Y-88717380D01*
X158805476Y-88050714D02*
X158805476Y-88717380D01*
X158567380Y-87669761D02*
X158329285Y-88384047D01*
X158948333Y-88384047D01*
X159805476Y-88717380D02*
X159329285Y-88717380D01*
X159329285Y-87717380D01*
X160329285Y-87717380D02*
X160424523Y-87717380D01*
X160519761Y-87765000D01*
X160567380Y-87812619D01*
X160615000Y-87907857D01*
X160662619Y-88098333D01*
X160662619Y-88336428D01*
X160615000Y-88526904D01*
X160567380Y-88622142D01*
X160519761Y-88669761D01*
X160424523Y-88717380D01*
X160329285Y-88717380D01*
X160234047Y-88669761D01*
X160186428Y-88622142D01*
X160138809Y-88526904D01*
X160091190Y-88336428D01*
X160091190Y-88098333D01*
X160138809Y-87907857D01*
X160186428Y-87812619D01*
X160234047Y-87765000D01*
X160329285Y-87717380D01*
X161615000Y-88717380D02*
X161043571Y-88717380D01*
X161329285Y-88717380D02*
X161329285Y-87717380D01*
X161234047Y-87860238D01*
X161138809Y-87955476D01*
X161043571Y-88003095D01*
D11*
%TO.C,D1*%
X151615000Y-129290000D02*
X149375000Y-129290000D01*
X151615000Y-129530000D02*
X149375000Y-129530000D01*
X151615000Y-129410000D02*
X149375000Y-129410000D01*
X150495000Y-133580000D02*
X150495000Y-132930000D01*
X150495000Y-128040000D02*
X150495000Y-128690000D01*
X151615000Y-132930000D02*
X151615000Y-128690000D01*
X149375000Y-132930000D02*
X151615000Y-132930000D01*
X149375000Y-128690000D02*
X149375000Y-132930000D01*
X151615000Y-128690000D02*
X149375000Y-128690000D01*
%TO.C,J1*%
X143570000Y-134045000D02*
X143570000Y-131385000D01*
X133350000Y-134045000D02*
X143570000Y-134045000D01*
X133350000Y-131385000D02*
X143570000Y-131385000D01*
X133350000Y-134045000D02*
X133350000Y-131385000D01*
X132080000Y-134045000D02*
X130750000Y-134045000D01*
X130750000Y-134045000D02*
X130750000Y-132715000D01*
%TO.C,J2*%
X127575000Y-95945000D02*
X127575000Y-94615000D01*
X128905000Y-95945000D02*
X127575000Y-95945000D01*
X130175000Y-95945000D02*
X130175000Y-93285000D01*
X130175000Y-93285000D02*
X140395000Y-93285000D01*
X130175000Y-95945000D02*
X140395000Y-95945000D01*
X140395000Y-95945000D02*
X140395000Y-93285000D01*
%TO.C,J8*%
X151705000Y-101025000D02*
X151705000Y-99695000D01*
X153035000Y-101025000D02*
X151705000Y-101025000D01*
X151705000Y-98425000D02*
X151705000Y-95825000D01*
X154305000Y-98425000D02*
X151705000Y-98425000D01*
X154305000Y-101025000D02*
X154305000Y-98425000D01*
X151705000Y-95825000D02*
X161985000Y-95825000D01*
X154305000Y-101025000D02*
X161985000Y-101025000D01*
X161985000Y-101025000D02*
X161985000Y-95825000D01*
%TO.C,R1*%
X135660000Y-127000000D02*
X136430000Y-127000000D01*
X143740000Y-127000000D02*
X142970000Y-127000000D01*
X136430000Y-128370000D02*
X142970000Y-128370000D01*
X136430000Y-125630000D02*
X136430000Y-128370000D01*
X142970000Y-125630000D02*
X136430000Y-125630000D01*
X142970000Y-128370000D02*
X142970000Y-125630000D01*
%TO.C,R2*%
X162020000Y-121385000D02*
X162020000Y-118645000D01*
X162020000Y-118645000D02*
X155480000Y-118645000D01*
X155480000Y-118645000D02*
X155480000Y-121385000D01*
X155480000Y-121385000D02*
X162020000Y-121385000D01*
X162790000Y-120015000D02*
X162020000Y-120015000D01*
X154710000Y-120015000D02*
X155480000Y-120015000D01*
%TO.C,R3*%
X131445000Y-115165000D02*
X131445000Y-114395000D01*
X131445000Y-107085000D02*
X131445000Y-107855000D01*
X132815000Y-114395000D02*
X132815000Y-107855000D01*
X130075000Y-114395000D02*
X132815000Y-114395000D01*
X130075000Y-107855000D02*
X130075000Y-114395000D01*
X132815000Y-107855000D02*
X130075000Y-107855000D01*
%TO.C,R4*%
X138335000Y-88800000D02*
X138335000Y-91540000D01*
X138335000Y-91540000D02*
X144875000Y-91540000D01*
X144875000Y-91540000D02*
X144875000Y-88800000D01*
X144875000Y-88800000D02*
X138335000Y-88800000D01*
X137565000Y-90170000D02*
X138335000Y-90170000D01*
X145645000Y-90170000D02*
X144875000Y-90170000D01*
%TO.C,U1*%
X162270000Y-123765000D02*
X161020000Y-123765000D01*
X162270000Y-131505000D02*
X162270000Y-123765000D01*
X157770000Y-131505000D02*
X162270000Y-131505000D01*
X157770000Y-123765000D02*
X157770000Y-131505000D01*
X159020000Y-123765000D02*
X157770000Y-123765000D01*
X161020000Y-123765000D02*
G75*
G02*
X159020000Y-123765000I-1000000J0D01*
G01*
%TO.C,U2*%
X138085000Y-117535000D02*
X139335000Y-117535000D01*
X138085000Y-99635000D02*
X138085000Y-117535000D01*
X142585000Y-99635000D02*
X138085000Y-99635000D01*
X142585000Y-117535000D02*
X142585000Y-99635000D01*
X141335000Y-117535000D02*
X142585000Y-117535000D01*
X139335000Y-117535000D02*
G75*
G02*
X141335000Y-117535000I1000000J0D01*
G01*
%TO.C,D1*%
D10*
X153067380Y-131548095D02*
X152067380Y-131548095D01*
X152067380Y-131310000D01*
X152115000Y-131167142D01*
X152210238Y-131071904D01*
X152305476Y-131024285D01*
X152495952Y-130976666D01*
X152638809Y-130976666D01*
X152829285Y-131024285D01*
X152924523Y-131071904D01*
X153019761Y-131167142D01*
X153067380Y-131310000D01*
X153067380Y-131548095D01*
X153067380Y-130024285D02*
X153067380Y-130595714D01*
X153067380Y-130310000D02*
X152067380Y-130310000D01*
X152210238Y-130405238D01*
X152305476Y-130500476D01*
X152353095Y-130595714D01*
X152747380Y-127261904D02*
X151747380Y-127261904D01*
X152747380Y-126690476D02*
X152175952Y-127119047D01*
X151747380Y-126690476D02*
X152318809Y-127261904D01*
%TO.C,J1*%
X129202380Y-133048333D02*
X129916666Y-133048333D01*
X130059523Y-133095952D01*
X130154761Y-133191190D01*
X130202380Y-133334047D01*
X130202380Y-133429285D01*
X130202380Y-132048333D02*
X130202380Y-132619761D01*
X130202380Y-132334047D02*
X129202380Y-132334047D01*
X129345238Y-132429285D01*
X129440476Y-132524523D01*
X129488095Y-132619761D01*
%TO.C,J2*%
X126027380Y-94948333D02*
X126741666Y-94948333D01*
X126884523Y-94995952D01*
X126979761Y-95091190D01*
X127027380Y-95234047D01*
X127027380Y-95329285D01*
X126122619Y-94519761D02*
X126075000Y-94472142D01*
X126027380Y-94376904D01*
X126027380Y-94138809D01*
X126075000Y-94043571D01*
X126122619Y-93995952D01*
X126217857Y-93948333D01*
X126313095Y-93948333D01*
X126455952Y-93995952D01*
X127027380Y-94567380D01*
X127027380Y-93948333D01*
%TO.C,J8*%
X150157380Y-98758333D02*
X150871666Y-98758333D01*
X151014523Y-98805952D01*
X151109761Y-98901190D01*
X151157380Y-99044047D01*
X151157380Y-99139285D01*
X150585952Y-98139285D02*
X150538333Y-98234523D01*
X150490714Y-98282142D01*
X150395476Y-98329761D01*
X150347857Y-98329761D01*
X150252619Y-98282142D01*
X150205000Y-98234523D01*
X150157380Y-98139285D01*
X150157380Y-97948809D01*
X150205000Y-97853571D01*
X150252619Y-97805952D01*
X150347857Y-97758333D01*
X150395476Y-97758333D01*
X150490714Y-97805952D01*
X150538333Y-97853571D01*
X150585952Y-97948809D01*
X150585952Y-98139285D01*
X150633571Y-98234523D01*
X150681190Y-98282142D01*
X150776428Y-98329761D01*
X150966904Y-98329761D01*
X151062142Y-98282142D01*
X151109761Y-98234523D01*
X151157380Y-98139285D01*
X151157380Y-97948809D01*
X151109761Y-97853571D01*
X151062142Y-97805952D01*
X150966904Y-97758333D01*
X150776428Y-97758333D01*
X150681190Y-97805952D01*
X150633571Y-97853571D01*
X150585952Y-97948809D01*
%TO.C,R1*%
X139533333Y-129822380D02*
X139200000Y-129346190D01*
X138961904Y-129822380D02*
X138961904Y-128822380D01*
X139342857Y-128822380D01*
X139438095Y-128870000D01*
X139485714Y-128917619D01*
X139533333Y-129012857D01*
X139533333Y-129155714D01*
X139485714Y-129250952D01*
X139438095Y-129298571D01*
X139342857Y-129346190D01*
X138961904Y-129346190D01*
X140485714Y-129822380D02*
X139914285Y-129822380D01*
X140200000Y-129822380D02*
X140200000Y-128822380D01*
X140104761Y-128965238D01*
X140009523Y-129060476D01*
X139914285Y-129108095D01*
%TO.C,R2*%
X158583333Y-122837380D02*
X158250000Y-122361190D01*
X158011904Y-122837380D02*
X158011904Y-121837380D01*
X158392857Y-121837380D01*
X158488095Y-121885000D01*
X158535714Y-121932619D01*
X158583333Y-122027857D01*
X158583333Y-122170714D01*
X158535714Y-122265952D01*
X158488095Y-122313571D01*
X158392857Y-122361190D01*
X158011904Y-122361190D01*
X158964285Y-121932619D02*
X159011904Y-121885000D01*
X159107142Y-121837380D01*
X159345238Y-121837380D01*
X159440476Y-121885000D01*
X159488095Y-121932619D01*
X159535714Y-122027857D01*
X159535714Y-122123095D01*
X159488095Y-122265952D01*
X158916666Y-122837380D01*
X159535714Y-122837380D01*
%TO.C,R3*%
X134267380Y-111291666D02*
X133791190Y-111625000D01*
X134267380Y-111863095D02*
X133267380Y-111863095D01*
X133267380Y-111482142D01*
X133315000Y-111386904D01*
X133362619Y-111339285D01*
X133457857Y-111291666D01*
X133600714Y-111291666D01*
X133695952Y-111339285D01*
X133743571Y-111386904D01*
X133791190Y-111482142D01*
X133791190Y-111863095D01*
X133267380Y-110958333D02*
X133267380Y-110339285D01*
X133648333Y-110672619D01*
X133648333Y-110529761D01*
X133695952Y-110434523D01*
X133743571Y-110386904D01*
X133838809Y-110339285D01*
X134076904Y-110339285D01*
X134172142Y-110386904D01*
X134219761Y-110434523D01*
X134267380Y-110529761D01*
X134267380Y-110815476D01*
X134219761Y-110910714D01*
X134172142Y-110958333D01*
%TO.C,R4*%
X141438333Y-88252380D02*
X141105000Y-87776190D01*
X140866904Y-88252380D02*
X140866904Y-87252380D01*
X141247857Y-87252380D01*
X141343095Y-87300000D01*
X141390714Y-87347619D01*
X141438333Y-87442857D01*
X141438333Y-87585714D01*
X141390714Y-87680952D01*
X141343095Y-87728571D01*
X141247857Y-87776190D01*
X140866904Y-87776190D01*
X142295476Y-87585714D02*
X142295476Y-88252380D01*
X142057380Y-87204761D02*
X141819285Y-87919047D01*
X142438333Y-87919047D01*
%TO.C,U1*%
X159258095Y-122217380D02*
X159258095Y-123026904D01*
X159305714Y-123122142D01*
X159353333Y-123169761D01*
X159448571Y-123217380D01*
X159639047Y-123217380D01*
X159734285Y-123169761D01*
X159781904Y-123122142D01*
X159829523Y-123026904D01*
X159829523Y-122217380D01*
X160829523Y-123217380D02*
X160258095Y-123217380D01*
X160543809Y-123217380D02*
X160543809Y-122217380D01*
X160448571Y-122360238D01*
X160353333Y-122455476D01*
X160258095Y-122503095D01*
%TO.C,U2*%
X139573095Y-117987380D02*
X139573095Y-118796904D01*
X139620714Y-118892142D01*
X139668333Y-118939761D01*
X139763571Y-118987380D01*
X139954047Y-118987380D01*
X140049285Y-118939761D01*
X140096904Y-118892142D01*
X140144523Y-118796904D01*
X140144523Y-117987380D01*
X140573095Y-118082619D02*
X140620714Y-118035000D01*
X140715952Y-117987380D01*
X140954047Y-117987380D01*
X141049285Y-118035000D01*
X141096904Y-118082619D01*
X141144523Y-118177857D01*
X141144523Y-118273095D01*
X141096904Y-118415952D01*
X140525476Y-118987380D01*
X141144523Y-118987380D01*
%TD*%
M02*
