M48
; DRILL file {KiCad (5.1.6)-1} date 10/18/21 16:57:24
; FORMAT={-:-/ absolute / inch / decimal}
; #@! TF.CreationDate,2021-10-18T16:57:24+02:00
; #@! TF.GenerationSoftware,Kicad,Pcbnew,(5.1.6)-1
; #@! TF.FileFunction,Plated,1,2,PTH
FMAT,2
INCH
T1C0.0315
T2C0.0394
T3C0.0512
%
G90
G05
T1
X7.85Y-5.7
X7.85Y-6.1
X8.325Y-3.7
X8.325Y-5.075
X8.35Y-5.55
X8.35Y-6.3
X8.575Y-4.1
X8.575Y-4.85
X8.725Y-5.0
X8.775Y-6.3
X9.0125Y-4.5125
X9.4Y-6.3
X9.825Y-4.5125
X10.425Y-5.0
X8.9Y-5.275
X9.0Y-5.175
X9.1Y-5.275
X9.275Y-4.775
X9.275Y-5.175
X9.425Y-4.775
X9.825Y-4.775
X8.825Y-2.3
X8.825Y-2.6
X8.925Y-2.3
X8.925Y-2.6
X9.025Y-2.3
X9.025Y-2.6
X9.125Y-2.3
X9.125Y-2.6
X8.1Y-5.275
X8.2Y-5.175
X8.3Y-5.275
X8.625Y-2.6
X8.625Y-3.0
X8.9Y-3.8
X8.9Y-3.9
X8.9Y-4.0
X8.9Y-4.1
X8.9Y-4.2
X8.9Y-4.3
X8.9Y-4.4
X9.2Y-3.8
X9.2Y-3.9
X9.2Y-4.0
X9.2Y-4.1
X9.2Y-4.2
X9.2Y-4.3
X9.2Y-4.4
X9.575Y-5.15
X9.575Y-5.2484
X8.5Y-5.275
X8.6Y-5.175
X8.7Y-5.275
X8.275Y-2.1
X8.275Y-2.5
X9.725Y-3.8
X9.725Y-3.9
X9.725Y-4.0
X9.725Y-4.1
X9.725Y-4.2
X9.725Y-4.3
X9.725Y-4.4
X10.025Y-3.8
X10.025Y-3.9
X10.025Y-4.0
X10.025Y-4.1
X10.025Y-4.2
X10.025Y-4.3
X10.025Y-4.4
T2
X8.525Y-6.0
X8.525Y-6.1
X8.525Y-6.2
X8.525Y-6.3
X8.625Y-6.0
X8.625Y-6.1
X8.625Y-6.2
X8.625Y-6.3
X8.075Y-2.9
X8.075Y-3.0
X8.075Y-3.1
X8.075Y-3.2
X8.075Y-3.3
X8.075Y-3.4
X8.075Y-3.5
X8.075Y-3.6
X8.075Y-3.7
X8.075Y-3.8
X8.075Y-3.9
X8.075Y-4.0
X8.075Y-4.1
X8.075Y-4.2
X8.075Y-4.3
X8.075Y-4.4
X8.075Y-4.5
X8.075Y-4.6
X8.075Y-4.7
X8.075Y-4.8
X8.175Y-2.9
X8.175Y-3.0
X8.175Y-3.1
X8.175Y-3.2
X8.175Y-3.3
X8.175Y-3.4
X8.175Y-3.5
X8.175Y-3.6
X8.175Y-3.7
X8.175Y-3.8
X8.175Y-3.9
X8.175Y-4.0
X8.175Y-4.1
X8.175Y-4.2
X8.175Y-4.3
X8.175Y-4.4
X8.175Y-4.5
X8.175Y-4.6
X8.175Y-4.7
X8.175Y-4.8
X9.025Y-3.45
X9.125Y-3.45
X9.225Y-3.45
X10.45Y-2.9
X10.45Y-3.0
X10.45Y-3.1
X10.45Y-3.2
X10.45Y-3.3
X10.45Y-3.4
X10.45Y-3.5
X10.45Y-3.6
X10.45Y-3.7
X10.45Y-3.8
X10.45Y-3.9
X10.45Y-4.0
X10.45Y-4.1
X10.45Y-4.2
X10.45Y-4.3
X10.45Y-4.4
X10.45Y-4.5
X10.45Y-4.6
X10.45Y-4.7
X10.45Y-4.8
X10.55Y-2.9
X10.55Y-3.0
X10.55Y-3.1
X10.55Y-3.2
X10.55Y-3.3
X10.55Y-3.4
X10.55Y-3.5
X10.55Y-3.6
X10.55Y-3.7
X10.55Y-3.8
X10.55Y-3.9
X10.55Y-4.0
X10.55Y-4.1
X10.55Y-4.2
X10.55Y-4.3
X10.55Y-4.4
X10.55Y-4.5
X10.55Y-4.6
X10.55Y-4.7
X10.55Y-4.8
X7.675Y-2.1
X7.675Y-2.2
X7.675Y-2.3
X7.775Y-2.1
X7.775Y-2.2
X7.775Y-2.3
T3
X9.7Y-5.8
X9.9Y-5.8
X9.2Y-5.8
X9.4Y-5.8
X10.425Y-5.225
X10.425Y-5.425
T0
M30
