%TF.GenerationSoftware,KiCad,Pcbnew,(5.1.6)-1*%
%TF.CreationDate,2021-10-18T16:55:43+02:00*%
%TF.ProjectId,carteDmx512,63617274-6544-46d7-9835-31322e6b6963,rev?*%
%TF.SameCoordinates,Original*%
%TF.FileFunction,Legend,Top*%
%TF.FilePolarity,Positive*%
%FSLAX46Y46*%
G04 Gerber Fmt 4.6, Leading zero omitted, Abs format (unit mm)*
G04 Created by KiCad (PCBNEW (5.1.6)-1) date 2021-10-18 16:55:43*
%MOMM*%
%LPD*%
G01*
G04 APERTURE LIST*
%ADD10C,0.150000*%
%ADD11C,0.120000*%
%ADD12C,0.300000*%
G04 APERTURE END LIST*
D10*
X239268095Y-154440000D02*
X239172857Y-154392380D01*
X239030000Y-154392380D01*
X238887142Y-154440000D01*
X238791904Y-154535238D01*
X238744285Y-154630476D01*
X238696666Y-154820952D01*
X238696666Y-154963809D01*
X238744285Y-155154285D01*
X238791904Y-155249523D01*
X238887142Y-155344761D01*
X239030000Y-155392380D01*
X239125238Y-155392380D01*
X239268095Y-155344761D01*
X239315714Y-155297142D01*
X239315714Y-154963809D01*
X239125238Y-154963809D01*
X239744285Y-155392380D02*
X239744285Y-154392380D01*
X240315714Y-155392380D01*
X240315714Y-154392380D01*
X240791904Y-155392380D02*
X240791904Y-154392380D01*
X241030000Y-154392380D01*
X241172857Y-154440000D01*
X241268095Y-154535238D01*
X241315714Y-154630476D01*
X241363333Y-154820952D01*
X241363333Y-154963809D01*
X241315714Y-155154285D01*
X241268095Y-155249523D01*
X241172857Y-155344761D01*
X241030000Y-155392380D01*
X240791904Y-155392380D01*
X251968095Y-154440000D02*
X251872857Y-154392380D01*
X251730000Y-154392380D01*
X251587142Y-154440000D01*
X251491904Y-154535238D01*
X251444285Y-154630476D01*
X251396666Y-154820952D01*
X251396666Y-154963809D01*
X251444285Y-155154285D01*
X251491904Y-155249523D01*
X251587142Y-155344761D01*
X251730000Y-155392380D01*
X251825238Y-155392380D01*
X251968095Y-155344761D01*
X252015714Y-155297142D01*
X252015714Y-154963809D01*
X251825238Y-154963809D01*
X252444285Y-155392380D02*
X252444285Y-154392380D01*
X253015714Y-155392380D01*
X253015714Y-154392380D01*
X253491904Y-155392380D02*
X253491904Y-154392380D01*
X253730000Y-154392380D01*
X253872857Y-154440000D01*
X253968095Y-154535238D01*
X254015714Y-154630476D01*
X254063333Y-154820952D01*
X254063333Y-154963809D01*
X254015714Y-155154285D01*
X253968095Y-155249523D01*
X253872857Y-155344761D01*
X253730000Y-155392380D01*
X253491904Y-155392380D01*
D11*
X220980000Y-146685000D02*
X220980000Y-161925000D01*
X189865000Y-146050000D02*
X220980000Y-146685000D01*
X189865000Y-161925000D02*
X189865000Y-146050000D01*
X220980000Y-161925000D02*
X189865000Y-161925000D01*
D10*
X269890952Y-128087380D02*
X269319523Y-128087380D01*
X269605238Y-128087380D02*
X269605238Y-127087380D01*
X269510000Y-127230238D01*
X269414761Y-127325476D01*
X269319523Y-127373095D01*
X270271904Y-127182619D02*
X270319523Y-127135000D01*
X270414761Y-127087380D01*
X270652857Y-127087380D01*
X270748095Y-127135000D01*
X270795714Y-127182619D01*
X270843333Y-127277857D01*
X270843333Y-127373095D01*
X270795714Y-127515952D01*
X270224285Y-128087380D01*
X270843333Y-128087380D01*
X271129047Y-127087380D02*
X271462380Y-128087380D01*
X271795714Y-127087380D01*
X198033095Y-159170714D02*
X198033095Y-159837380D01*
X198033095Y-159265952D02*
X198080714Y-159218333D01*
X198175952Y-159170714D01*
X198318809Y-159170714D01*
X198414047Y-159218333D01*
X198461666Y-159313571D01*
X198461666Y-159837380D01*
X198937857Y-159837380D02*
X198937857Y-159170714D01*
X198937857Y-159361190D02*
X198985476Y-159265952D01*
X199033095Y-159218333D01*
X199128333Y-159170714D01*
X199223571Y-159170714D01*
X199890238Y-159313571D02*
X199556904Y-159313571D01*
X199556904Y-159837380D02*
X199556904Y-158837380D01*
X200033095Y-158837380D01*
X200366428Y-158932619D02*
X200414047Y-158885000D01*
X200509285Y-158837380D01*
X200747380Y-158837380D01*
X200842619Y-158885000D01*
X200890238Y-158932619D01*
X200937857Y-159027857D01*
X200937857Y-159123095D01*
X200890238Y-159265952D01*
X200318809Y-159837380D01*
X200937857Y-159837380D01*
X201795000Y-159170714D02*
X201795000Y-159837380D01*
X201556904Y-158789761D02*
X201318809Y-159504047D01*
X201937857Y-159504047D01*
X202795000Y-159837380D02*
X202318809Y-159837380D01*
X202318809Y-158837380D01*
X203318809Y-158837380D02*
X203414047Y-158837380D01*
X203509285Y-158885000D01*
X203556904Y-158932619D01*
X203604523Y-159027857D01*
X203652142Y-159218333D01*
X203652142Y-159456428D01*
X203604523Y-159646904D01*
X203556904Y-159742142D01*
X203509285Y-159789761D01*
X203414047Y-159837380D01*
X203318809Y-159837380D01*
X203223571Y-159789761D01*
X203175952Y-159742142D01*
X203128333Y-159646904D01*
X203080714Y-159456428D01*
X203080714Y-159218333D01*
X203128333Y-159027857D01*
X203175952Y-158932619D01*
X203223571Y-158885000D01*
X203318809Y-158837380D01*
X204604523Y-159837380D02*
X204033095Y-159837380D01*
X204318809Y-159837380D02*
X204318809Y-158837380D01*
X204223571Y-158980238D01*
X204128333Y-159075476D01*
X204033095Y-159123095D01*
D12*
X242539285Y-78148571D02*
X242539285Y-76648571D01*
X243396428Y-78148571D01*
X243396428Y-76648571D01*
X244753571Y-77148571D02*
X244753571Y-78148571D01*
X244110714Y-77148571D02*
X244110714Y-77934285D01*
X244182142Y-78077142D01*
X244325000Y-78148571D01*
X244539285Y-78148571D01*
X244682142Y-78077142D01*
X244753571Y-78005714D01*
X246110714Y-78077142D02*
X245967857Y-78148571D01*
X245682142Y-78148571D01*
X245539285Y-78077142D01*
X245467857Y-78005714D01*
X245396428Y-77862857D01*
X245396428Y-77434285D01*
X245467857Y-77291428D01*
X245539285Y-77220000D01*
X245682142Y-77148571D01*
X245967857Y-77148571D01*
X246110714Y-77220000D01*
X246967857Y-78148571D02*
X246825000Y-78077142D01*
X246753571Y-77934285D01*
X246753571Y-76648571D01*
X248110714Y-78077142D02*
X247967857Y-78148571D01*
X247682142Y-78148571D01*
X247539285Y-78077142D01*
X247467857Y-77934285D01*
X247467857Y-77362857D01*
X247539285Y-77220000D01*
X247682142Y-77148571D01*
X247967857Y-77148571D01*
X248110714Y-77220000D01*
X248182142Y-77362857D01*
X248182142Y-77505714D01*
X247467857Y-77648571D01*
X249039285Y-78148571D02*
X248896428Y-78077142D01*
X248825000Y-78005714D01*
X248753571Y-77862857D01*
X248753571Y-77434285D01*
X248825000Y-77291428D01*
X248896428Y-77220000D01*
X249039285Y-77148571D01*
X249253571Y-77148571D01*
X249396428Y-77220000D01*
X249467857Y-77291428D01*
X249539285Y-77434285D01*
X249539285Y-77862857D01*
X249467857Y-78005714D01*
X249396428Y-78077142D01*
X249253571Y-78148571D01*
X249039285Y-78148571D01*
X252039285Y-78148571D02*
X251325000Y-78148571D01*
X251325000Y-76648571D01*
X253182142Y-77148571D02*
X253182142Y-78148571D01*
X252825000Y-76577142D02*
X252467857Y-77648571D01*
X253396428Y-77648571D01*
X253825000Y-76648571D02*
X254825000Y-76648571D01*
X254182142Y-78148571D01*
X256039285Y-76648571D02*
X255753571Y-76648571D01*
X255610714Y-76720000D01*
X255539285Y-76791428D01*
X255396428Y-77005714D01*
X255325000Y-77291428D01*
X255325000Y-77862857D01*
X255396428Y-78005714D01*
X255467857Y-78077142D01*
X255610714Y-78148571D01*
X255896428Y-78148571D01*
X256039285Y-78077142D01*
X256110714Y-78005714D01*
X256182142Y-77862857D01*
X256182142Y-77505714D01*
X256110714Y-77362857D01*
X256039285Y-77291428D01*
X255896428Y-77220000D01*
X255610714Y-77220000D01*
X255467857Y-77291428D01*
X255396428Y-77362857D01*
X255325000Y-77505714D01*
X257682142Y-78148571D02*
X257182142Y-77434285D01*
X256825000Y-78148571D02*
X256825000Y-76648571D01*
X257396428Y-76648571D01*
X257539285Y-76720000D01*
X257610714Y-76791428D01*
X257682142Y-76934285D01*
X257682142Y-77148571D01*
X257610714Y-77291428D01*
X257539285Y-77362857D01*
X257396428Y-77434285D01*
X256825000Y-77434285D01*
X259110714Y-76720000D02*
X258967857Y-76648571D01*
X258753571Y-76648571D01*
X258539285Y-76720000D01*
X258396428Y-76862857D01*
X258325000Y-77005714D01*
X258253571Y-77291428D01*
X258253571Y-77505714D01*
X258325000Y-77791428D01*
X258396428Y-77934285D01*
X258539285Y-78077142D01*
X258753571Y-78148571D01*
X258896428Y-78148571D01*
X259110714Y-78077142D01*
X259182142Y-78005714D01*
X259182142Y-77505714D01*
X258896428Y-77505714D01*
X207053571Y-54669285D02*
X205553571Y-54669285D01*
X205553571Y-54312142D01*
X205625000Y-54097857D01*
X205767857Y-53955000D01*
X205910714Y-53883571D01*
X206196428Y-53812142D01*
X206410714Y-53812142D01*
X206696428Y-53883571D01*
X206839285Y-53955000D01*
X206982142Y-54097857D01*
X207053571Y-54312142D01*
X207053571Y-54669285D01*
X207053571Y-53169285D02*
X205553571Y-53169285D01*
X206625000Y-52669285D01*
X205553571Y-52169285D01*
X207053571Y-52169285D01*
X205553571Y-51597857D02*
X207053571Y-50597857D01*
X205553571Y-50597857D02*
X207053571Y-51597857D01*
X228231428Y-76100714D02*
X228160000Y-76172142D01*
X227945714Y-76243571D01*
X227802857Y-76243571D01*
X227588571Y-76172142D01*
X227445714Y-76029285D01*
X227374285Y-75886428D01*
X227302857Y-75600714D01*
X227302857Y-75386428D01*
X227374285Y-75100714D01*
X227445714Y-74957857D01*
X227588571Y-74815000D01*
X227802857Y-74743571D01*
X227945714Y-74743571D01*
X228160000Y-74815000D01*
X228231428Y-74886428D01*
X228874285Y-76243571D02*
X228874285Y-74743571D01*
X229517142Y-76243571D02*
X229517142Y-75457857D01*
X229445714Y-75315000D01*
X229302857Y-75243571D01*
X229088571Y-75243571D01*
X228945714Y-75315000D01*
X228874285Y-75386428D01*
X230445714Y-76243571D02*
X230302857Y-76172142D01*
X230231428Y-76100714D01*
X230160000Y-75957857D01*
X230160000Y-75529285D01*
X230231428Y-75386428D01*
X230302857Y-75315000D01*
X230445714Y-75243571D01*
X230660000Y-75243571D01*
X230802857Y-75315000D01*
X230874285Y-75386428D01*
X230945714Y-75529285D01*
X230945714Y-75957857D01*
X230874285Y-76100714D01*
X230802857Y-76172142D01*
X230660000Y-76243571D01*
X230445714Y-76243571D01*
X231588571Y-76243571D02*
X231588571Y-75243571D01*
X231588571Y-74743571D02*
X231517142Y-74815000D01*
X231588571Y-74886428D01*
X231660000Y-74815000D01*
X231588571Y-74743571D01*
X231588571Y-74886428D01*
X232160000Y-76243571D02*
X232945714Y-75243571D01*
X232160000Y-75243571D02*
X232945714Y-76243571D01*
X233517142Y-76243571D02*
X233517142Y-74743571D01*
X233874285Y-74743571D01*
X234088571Y-74815000D01*
X234231428Y-74957857D01*
X234302857Y-75100714D01*
X234374285Y-75386428D01*
X234374285Y-75600714D01*
X234302857Y-75886428D01*
X234231428Y-76029285D01*
X234088571Y-76172142D01*
X233874285Y-76243571D01*
X233517142Y-76243571D01*
X235017142Y-76243571D02*
X235017142Y-74743571D01*
X235517142Y-75815000D01*
X236017142Y-74743571D01*
X236017142Y-76243571D01*
X236588571Y-74743571D02*
X237588571Y-76243571D01*
X237588571Y-74743571D02*
X236588571Y-76243571D01*
X218332857Y-139592857D02*
X218404285Y-139378571D01*
X218475714Y-139307142D01*
X218618571Y-139235714D01*
X218832857Y-139235714D01*
X218975714Y-139307142D01*
X219047142Y-139378571D01*
X219118571Y-139521428D01*
X219118571Y-140092857D01*
X217618571Y-140092857D01*
X217618571Y-139592857D01*
X217690000Y-139450000D01*
X217761428Y-139378571D01*
X217904285Y-139307142D01*
X218047142Y-139307142D01*
X218190000Y-139378571D01*
X218261428Y-139450000D01*
X218332857Y-139592857D01*
X218332857Y-140092857D01*
X207530000Y-139307142D02*
X207458571Y-139450000D01*
X207458571Y-139664285D01*
X207530000Y-139878571D01*
X207672857Y-140021428D01*
X207815714Y-140092857D01*
X208101428Y-140164285D01*
X208315714Y-140164285D01*
X208601428Y-140092857D01*
X208744285Y-140021428D01*
X208887142Y-139878571D01*
X208958571Y-139664285D01*
X208958571Y-139521428D01*
X208887142Y-139307142D01*
X208815714Y-139235714D01*
X208315714Y-139235714D01*
X208315714Y-139521428D01*
X229278571Y-139235714D02*
X228564285Y-139735714D01*
X229278571Y-140092857D02*
X227778571Y-140092857D01*
X227778571Y-139521428D01*
X227850000Y-139378571D01*
X227921428Y-139307142D01*
X228064285Y-139235714D01*
X228278571Y-139235714D01*
X228421428Y-139307142D01*
X228492857Y-139378571D01*
X228564285Y-139521428D01*
X228564285Y-140092857D01*
X258687857Y-144188571D02*
X258687857Y-142688571D01*
X259259285Y-142688571D01*
X259402142Y-142760000D01*
X259473571Y-142831428D01*
X259545000Y-142974285D01*
X259545000Y-143188571D01*
X259473571Y-143331428D01*
X259402142Y-143402857D01*
X259259285Y-143474285D01*
X258687857Y-143474285D01*
X260473571Y-142688571D02*
X260759285Y-142688571D01*
X260902142Y-142760000D01*
X261045000Y-142902857D01*
X261116428Y-143188571D01*
X261116428Y-143688571D01*
X261045000Y-143974285D01*
X260902142Y-144117142D01*
X260759285Y-144188571D01*
X260473571Y-144188571D01*
X260330714Y-144117142D01*
X260187857Y-143974285D01*
X260116428Y-143688571D01*
X260116428Y-143188571D01*
X260187857Y-142902857D01*
X260330714Y-142760000D01*
X260473571Y-142688571D01*
X261616428Y-142688571D02*
X261973571Y-144188571D01*
X262259285Y-143117142D01*
X262545000Y-144188571D01*
X262902142Y-142688571D01*
X263473571Y-143402857D02*
X263973571Y-143402857D01*
X264187857Y-144188571D02*
X263473571Y-144188571D01*
X263473571Y-142688571D01*
X264187857Y-142688571D01*
X265687857Y-144188571D02*
X265187857Y-143474285D01*
X264830714Y-144188571D02*
X264830714Y-142688571D01*
X265402142Y-142688571D01*
X265545000Y-142760000D01*
X265616428Y-142831428D01*
X265687857Y-142974285D01*
X265687857Y-143188571D01*
X265616428Y-143331428D01*
X265545000Y-143402857D01*
X265402142Y-143474285D01*
X264830714Y-143474285D01*
X268259285Y-144188571D02*
X267402142Y-144188571D01*
X267830714Y-144188571D02*
X267830714Y-142688571D01*
X267687857Y-142902857D01*
X267545000Y-143045714D01*
X267402142Y-143117142D01*
X268830714Y-142831428D02*
X268902142Y-142760000D01*
X269045000Y-142688571D01*
X269402142Y-142688571D01*
X269545000Y-142760000D01*
X269616428Y-142831428D01*
X269687857Y-142974285D01*
X269687857Y-143117142D01*
X269616428Y-143331428D01*
X268759285Y-144188571D01*
X269687857Y-144188571D01*
X270116428Y-142688571D02*
X270616428Y-144188571D01*
X271116428Y-142688571D01*
X244277142Y-157523571D02*
X244277142Y-156023571D01*
X244634285Y-156023571D01*
X244848571Y-156095000D01*
X244991428Y-156237857D01*
X245062857Y-156380714D01*
X245134285Y-156666428D01*
X245134285Y-156880714D01*
X245062857Y-157166428D01*
X244991428Y-157309285D01*
X244848571Y-157452142D01*
X244634285Y-157523571D01*
X244277142Y-157523571D01*
X245777142Y-157523571D02*
X245777142Y-156523571D01*
X245777142Y-156023571D02*
X245705714Y-156095000D01*
X245777142Y-156166428D01*
X245848571Y-156095000D01*
X245777142Y-156023571D01*
X245777142Y-156166428D01*
X246491428Y-157523571D02*
X246491428Y-156523571D01*
X246491428Y-156809285D02*
X246562857Y-156666428D01*
X246634285Y-156595000D01*
X246777142Y-156523571D01*
X246920000Y-156523571D01*
X247991428Y-157452142D02*
X247848571Y-157523571D01*
X247562857Y-157523571D01*
X247420000Y-157452142D01*
X247348571Y-157309285D01*
X247348571Y-156737857D01*
X247420000Y-156595000D01*
X247562857Y-156523571D01*
X247848571Y-156523571D01*
X247991428Y-156595000D01*
X248062857Y-156737857D01*
X248062857Y-156880714D01*
X247348571Y-157023571D01*
X249348571Y-157452142D02*
X249205714Y-157523571D01*
X248920000Y-157523571D01*
X248777142Y-157452142D01*
X248705714Y-157380714D01*
X248634285Y-157237857D01*
X248634285Y-156809285D01*
X248705714Y-156666428D01*
X248777142Y-156595000D01*
X248920000Y-156523571D01*
X249205714Y-156523571D01*
X249348571Y-156595000D01*
X249777142Y-156523571D02*
X250348571Y-156523571D01*
X249991428Y-156023571D02*
X249991428Y-157309285D01*
X250062857Y-157452142D01*
X250205714Y-157523571D01*
X250348571Y-157523571D01*
X251991428Y-157523571D02*
X251991428Y-156023571D01*
X252705714Y-157523571D02*
X252705714Y-156023571D01*
X253562857Y-157523571D01*
X253562857Y-156023571D01*
X232434285Y-156737857D02*
X231934285Y-156737857D01*
X231934285Y-157523571D02*
X231934285Y-156023571D01*
X232648571Y-156023571D01*
X233220000Y-157523571D02*
X233220000Y-156523571D01*
X233220000Y-156023571D02*
X233148571Y-156095000D01*
X233220000Y-156166428D01*
X233291428Y-156095000D01*
X233220000Y-156023571D01*
X233220000Y-156166428D01*
X234148571Y-157523571D02*
X234005714Y-157452142D01*
X233934285Y-157309285D01*
X233934285Y-156023571D01*
X234505714Y-156523571D02*
X235077142Y-156523571D01*
X234720000Y-156023571D02*
X234720000Y-157309285D01*
X234791428Y-157452142D01*
X234934285Y-157523571D01*
X235077142Y-157523571D01*
X236148571Y-157452142D02*
X236005714Y-157523571D01*
X235720000Y-157523571D01*
X235577142Y-157452142D01*
X235505714Y-157309285D01*
X235505714Y-156737857D01*
X235577142Y-156595000D01*
X235720000Y-156523571D01*
X236005714Y-156523571D01*
X236148571Y-156595000D01*
X236220000Y-156737857D01*
X236220000Y-156880714D01*
X235505714Y-157023571D01*
X236862857Y-157523571D02*
X236862857Y-156523571D01*
X236862857Y-156809285D02*
X236934285Y-156666428D01*
X237005714Y-156595000D01*
X237148571Y-156523571D01*
X237291428Y-156523571D01*
X238934285Y-157523571D02*
X238934285Y-156023571D01*
X239648571Y-157523571D02*
X239648571Y-156023571D01*
X240505714Y-157523571D01*
X240505714Y-156023571D01*
X193078571Y-88879285D02*
X193078571Y-89593571D01*
X191578571Y-89593571D01*
X192292857Y-88379285D02*
X192292857Y-87879285D01*
X193078571Y-87665000D02*
X193078571Y-88379285D01*
X191578571Y-88379285D01*
X191578571Y-87665000D01*
X192078571Y-87022142D02*
X193078571Y-87022142D01*
X192221428Y-87022142D02*
X192150000Y-86950714D01*
X192078571Y-86807857D01*
X192078571Y-86593571D01*
X192150000Y-86450714D01*
X192292857Y-86379285D01*
X193078571Y-86379285D01*
X193007142Y-85736428D02*
X193078571Y-85593571D01*
X193078571Y-85307857D01*
X193007142Y-85165000D01*
X192864285Y-85093571D01*
X192792857Y-85093571D01*
X192650000Y-85165000D01*
X192578571Y-85307857D01*
X192578571Y-85522142D01*
X192507142Y-85665000D01*
X192364285Y-85736428D01*
X192292857Y-85736428D01*
X192150000Y-85665000D01*
X192078571Y-85522142D01*
X192078571Y-85307857D01*
X192150000Y-85165000D01*
X192292857Y-84450714D02*
X192292857Y-83950714D01*
X193078571Y-83736428D02*
X193078571Y-84450714D01*
X191578571Y-84450714D01*
X191578571Y-83736428D01*
X191507142Y-80879285D02*
X193435714Y-82165000D01*
X191721428Y-79307857D02*
X191650000Y-79236428D01*
X191578571Y-79093571D01*
X191578571Y-78736428D01*
X191650000Y-78593571D01*
X191721428Y-78522142D01*
X191864285Y-78450714D01*
X192007142Y-78450714D01*
X192221428Y-78522142D01*
X193078571Y-79379285D01*
X193078571Y-78450714D01*
X191578571Y-77522142D02*
X191578571Y-77379285D01*
X191650000Y-77236428D01*
X191721428Y-77165000D01*
X191864285Y-77093571D01*
X192150000Y-77022142D01*
X192507142Y-77022142D01*
X192792857Y-77093571D01*
X192935714Y-77165000D01*
X193007142Y-77236428D01*
X193078571Y-77379285D01*
X193078571Y-77522142D01*
X193007142Y-77665000D01*
X192935714Y-77736428D01*
X192792857Y-77807857D01*
X192507142Y-77879285D01*
X192150000Y-77879285D01*
X191864285Y-77807857D01*
X191721428Y-77736428D01*
X191650000Y-77665000D01*
X191578571Y-77522142D01*
X191721428Y-76450714D02*
X191650000Y-76379285D01*
X191578571Y-76236428D01*
X191578571Y-75879285D01*
X191650000Y-75736428D01*
X191721428Y-75665000D01*
X191864285Y-75593571D01*
X192007142Y-75593571D01*
X192221428Y-75665000D01*
X193078571Y-76522142D01*
X193078571Y-75593571D01*
X193078571Y-74165000D02*
X193078571Y-75022142D01*
X193078571Y-74593571D02*
X191578571Y-74593571D01*
X191792857Y-74736428D01*
X191935714Y-74879285D01*
X192007142Y-75022142D01*
X195628571Y-97236428D02*
X194128571Y-97236428D01*
X194128571Y-96879285D01*
X194200000Y-96665000D01*
X194342857Y-96522142D01*
X194485714Y-96450714D01*
X194771428Y-96379285D01*
X194985714Y-96379285D01*
X195271428Y-96450714D01*
X195414285Y-96522142D01*
X195557142Y-96665000D01*
X195628571Y-96879285D01*
X195628571Y-97236428D01*
X195628571Y-95736428D02*
X194128571Y-95736428D01*
X195200000Y-95236428D01*
X194128571Y-94736428D01*
X195628571Y-94736428D01*
X194128571Y-94165000D02*
X195628571Y-93165000D01*
X194128571Y-93165000D02*
X195628571Y-94165000D01*
X194128571Y-91879285D02*
X194128571Y-92593571D01*
X194842857Y-92665000D01*
X194771428Y-92593571D01*
X194700000Y-92450714D01*
X194700000Y-92093571D01*
X194771428Y-91950714D01*
X194842857Y-91879285D01*
X194985714Y-91807857D01*
X195342857Y-91807857D01*
X195485714Y-91879285D01*
X195557142Y-91950714D01*
X195628571Y-92093571D01*
X195628571Y-92450714D01*
X195557142Y-92593571D01*
X195485714Y-92665000D01*
X195628571Y-90379285D02*
X195628571Y-91236428D01*
X195628571Y-90807857D02*
X194128571Y-90807857D01*
X194342857Y-90950714D01*
X194485714Y-91093571D01*
X194557142Y-91236428D01*
X194271428Y-89807857D02*
X194200000Y-89736428D01*
X194128571Y-89593571D01*
X194128571Y-89236428D01*
X194200000Y-89093571D01*
X194271428Y-89022142D01*
X194414285Y-88950714D01*
X194557142Y-88950714D01*
X194771428Y-89022142D01*
X195628571Y-89879285D01*
X195628571Y-88950714D01*
X194057142Y-86093571D02*
X195985714Y-87379285D01*
X195200000Y-84522142D02*
X195200000Y-83807857D01*
X195628571Y-84665000D02*
X194128571Y-84165000D01*
X195628571Y-83665000D01*
X195628571Y-83165000D02*
X194628571Y-83165000D01*
X194914285Y-83165000D02*
X194771428Y-83093571D01*
X194700000Y-83022142D01*
X194628571Y-82879285D01*
X194628571Y-82736428D01*
X194628571Y-82450714D02*
X194628571Y-81879285D01*
X194128571Y-82236428D02*
X195414285Y-82236428D01*
X195557142Y-82165000D01*
X195628571Y-82022142D01*
X195628571Y-81879285D01*
X195557142Y-81450714D02*
X195628571Y-81307857D01*
X195628571Y-81022142D01*
X195557142Y-80879285D01*
X195414285Y-80807857D01*
X195342857Y-80807857D01*
X195200000Y-80879285D01*
X195128571Y-81022142D01*
X195128571Y-81236428D01*
X195057142Y-81379285D01*
X194914285Y-81450714D01*
X194842857Y-81450714D01*
X194700000Y-81379285D01*
X194628571Y-81236428D01*
X194628571Y-81022142D01*
X194700000Y-80879285D01*
X195557142Y-78450714D02*
X195628571Y-78593571D01*
X195628571Y-78879285D01*
X195557142Y-79022142D01*
X195414285Y-79093571D01*
X194842857Y-79093571D01*
X194700000Y-79022142D01*
X194628571Y-78879285D01*
X194628571Y-78593571D01*
X194700000Y-78450714D01*
X194842857Y-78379285D01*
X194985714Y-78379285D01*
X195128571Y-79093571D01*
X194628571Y-77950714D02*
X194628571Y-77379285D01*
X194128571Y-77736428D02*
X195414285Y-77736428D01*
X195557142Y-77665000D01*
X195628571Y-77522142D01*
X195628571Y-77379285D01*
X195557142Y-75807857D02*
X195628571Y-75593571D01*
X195628571Y-75236428D01*
X195557142Y-75093571D01*
X195485714Y-75022142D01*
X195342857Y-74950714D01*
X195200000Y-74950714D01*
X195057142Y-75022142D01*
X194985714Y-75093571D01*
X194914285Y-75236428D01*
X194842857Y-75522142D01*
X194771428Y-75665000D01*
X194700000Y-75736428D01*
X194557142Y-75807857D01*
X194414285Y-75807857D01*
X194271428Y-75736428D01*
X194200000Y-75665000D01*
X194128571Y-75522142D01*
X194128571Y-75165000D01*
X194200000Y-74950714D01*
X195557142Y-73665000D02*
X195628571Y-73807857D01*
X195628571Y-74093571D01*
X195557142Y-74236428D01*
X195485714Y-74307857D01*
X195342857Y-74379285D01*
X194914285Y-74379285D01*
X194771428Y-74307857D01*
X194700000Y-74236428D01*
X194628571Y-74093571D01*
X194628571Y-73807857D01*
X194700000Y-73665000D01*
X195628571Y-73022142D02*
X194628571Y-73022142D01*
X194128571Y-73022142D02*
X194200000Y-73093571D01*
X194271428Y-73022142D01*
X194200000Y-72950714D01*
X194128571Y-73022142D01*
X194271428Y-73022142D01*
X195557142Y-71736428D02*
X195628571Y-71879285D01*
X195628571Y-72165000D01*
X195557142Y-72307857D01*
X195414285Y-72379285D01*
X194842857Y-72379285D01*
X194700000Y-72307857D01*
X194628571Y-72165000D01*
X194628571Y-71879285D01*
X194700000Y-71736428D01*
X194842857Y-71665000D01*
X194985714Y-71665000D01*
X195128571Y-72379285D01*
X194628571Y-71022142D02*
X195628571Y-71022142D01*
X194771428Y-71022142D02*
X194700000Y-70950714D01*
X194628571Y-70807857D01*
X194628571Y-70593571D01*
X194700000Y-70450714D01*
X194842857Y-70379285D01*
X195628571Y-70379285D01*
X195557142Y-69022142D02*
X195628571Y-69165000D01*
X195628571Y-69450714D01*
X195557142Y-69593571D01*
X195485714Y-69665000D01*
X195342857Y-69736428D01*
X194914285Y-69736428D01*
X194771428Y-69665000D01*
X194700000Y-69593571D01*
X194628571Y-69450714D01*
X194628571Y-69165000D01*
X194700000Y-69022142D01*
X195557142Y-67807857D02*
X195628571Y-67950714D01*
X195628571Y-68236428D01*
X195557142Y-68379285D01*
X195414285Y-68450714D01*
X194842857Y-68450714D01*
X194700000Y-68379285D01*
X194628571Y-68236428D01*
X194628571Y-67950714D01*
X194700000Y-67807857D01*
X194842857Y-67736428D01*
X194985714Y-67736428D01*
X195128571Y-68450714D01*
X195557142Y-67165000D02*
X195628571Y-67022142D01*
X195628571Y-66736428D01*
X195557142Y-66593571D01*
X195414285Y-66522142D01*
X195342857Y-66522142D01*
X195200000Y-66593571D01*
X195128571Y-66736428D01*
X195128571Y-66950714D01*
X195057142Y-67093571D01*
X194914285Y-67165000D01*
X194842857Y-67165000D01*
X194700000Y-67093571D01*
X194628571Y-66950714D01*
X194628571Y-66736428D01*
X194700000Y-66593571D01*
D10*
X200414047Y-55697380D02*
X200414047Y-54697380D01*
X200652142Y-54697380D01*
X200795000Y-54745000D01*
X200890238Y-54840238D01*
X200937857Y-54935476D01*
X200985476Y-55125952D01*
X200985476Y-55268809D01*
X200937857Y-55459285D01*
X200890238Y-55554523D01*
X200795000Y-55649761D01*
X200652142Y-55697380D01*
X200414047Y-55697380D01*
X201414047Y-55316428D02*
X202175952Y-55316428D01*
X200414047Y-53157380D02*
X200414047Y-52157380D01*
X200652142Y-52157380D01*
X200795000Y-52205000D01*
X200890238Y-52300238D01*
X200937857Y-52395476D01*
X200985476Y-52585952D01*
X200985476Y-52728809D01*
X200937857Y-52919285D01*
X200890238Y-53014523D01*
X200795000Y-53109761D01*
X200652142Y-53157380D01*
X200414047Y-53157380D01*
X201414047Y-52776428D02*
X202175952Y-52776428D01*
X201795000Y-53157380D02*
X201795000Y-52395476D01*
X201168095Y-57285000D02*
X201072857Y-57237380D01*
X200930000Y-57237380D01*
X200787142Y-57285000D01*
X200691904Y-57380238D01*
X200644285Y-57475476D01*
X200596666Y-57665952D01*
X200596666Y-57808809D01*
X200644285Y-57999285D01*
X200691904Y-58094523D01*
X200787142Y-58189761D01*
X200930000Y-58237380D01*
X201025238Y-58237380D01*
X201168095Y-58189761D01*
X201215714Y-58142142D01*
X201215714Y-57808809D01*
X201025238Y-57808809D01*
X201644285Y-58237380D02*
X201644285Y-57237380D01*
X202215714Y-58237380D01*
X202215714Y-57237380D01*
X202691904Y-58237380D02*
X202691904Y-57237380D01*
X202930000Y-57237380D01*
X203072857Y-57285000D01*
X203168095Y-57380238D01*
X203215714Y-57475476D01*
X203263333Y-57665952D01*
X203263333Y-57808809D01*
X203215714Y-57999285D01*
X203168095Y-58094523D01*
X203072857Y-58189761D01*
X202930000Y-58237380D01*
X202691904Y-58237380D01*
X210470952Y-119832380D02*
X210470952Y-118832380D01*
X210851904Y-118832380D01*
X210947142Y-118880000D01*
X210994761Y-118927619D01*
X211042380Y-119022857D01*
X211042380Y-119165714D01*
X210994761Y-119260952D01*
X210947142Y-119308571D01*
X210851904Y-119356190D01*
X210470952Y-119356190D01*
X212042380Y-119737142D02*
X211994761Y-119784761D01*
X211851904Y-119832380D01*
X211756666Y-119832380D01*
X211613809Y-119784761D01*
X211518571Y-119689523D01*
X211470952Y-119594285D01*
X211423333Y-119403809D01*
X211423333Y-119260952D01*
X211470952Y-119070476D01*
X211518571Y-118975238D01*
X211613809Y-118880000D01*
X211756666Y-118832380D01*
X211851904Y-118832380D01*
X211994761Y-118880000D01*
X212042380Y-118927619D01*
X212232857Y-119927619D02*
X212994761Y-119927619D01*
X213756666Y-119832380D02*
X213185238Y-119832380D01*
X213470952Y-119832380D02*
X213470952Y-118832380D01*
X213375714Y-118975238D01*
X213280476Y-119070476D01*
X213185238Y-119118095D01*
X210470952Y-122372380D02*
X210470952Y-121372380D01*
X210851904Y-121372380D01*
X210947142Y-121420000D01*
X210994761Y-121467619D01*
X211042380Y-121562857D01*
X211042380Y-121705714D01*
X210994761Y-121800952D01*
X210947142Y-121848571D01*
X210851904Y-121896190D01*
X210470952Y-121896190D01*
X212042380Y-122277142D02*
X211994761Y-122324761D01*
X211851904Y-122372380D01*
X211756666Y-122372380D01*
X211613809Y-122324761D01*
X211518571Y-122229523D01*
X211470952Y-122134285D01*
X211423333Y-121943809D01*
X211423333Y-121800952D01*
X211470952Y-121610476D01*
X211518571Y-121515238D01*
X211613809Y-121420000D01*
X211756666Y-121372380D01*
X211851904Y-121372380D01*
X211994761Y-121420000D01*
X212042380Y-121467619D01*
X212232857Y-122467619D02*
X212994761Y-122467619D01*
X213423333Y-121372380D02*
X213518571Y-121372380D01*
X213613809Y-121420000D01*
X213661428Y-121467619D01*
X213709047Y-121562857D01*
X213756666Y-121753333D01*
X213756666Y-121991428D01*
X213709047Y-122181904D01*
X213661428Y-122277142D01*
X213613809Y-122324761D01*
X213518571Y-122372380D01*
X213423333Y-122372380D01*
X213328095Y-122324761D01*
X213280476Y-122277142D01*
X213232857Y-122181904D01*
X213185238Y-121991428D01*
X213185238Y-121753333D01*
X213232857Y-121562857D01*
X213280476Y-121467619D01*
X213328095Y-121420000D01*
X213423333Y-121372380D01*
D11*
%TO.C,U1*%
X256075000Y-95130000D02*
X245575000Y-95130000D01*
X256075000Y-113150000D02*
X256075000Y-95130000D01*
X245575000Y-113150000D02*
X256075000Y-113150000D01*
X245575000Y-95130000D02*
X245575000Y-113150000D01*
X253075000Y-95190000D02*
X251825000Y-95190000D01*
X253075000Y-113090000D02*
X253075000Y-95190000D01*
X248575000Y-113090000D02*
X253075000Y-113090000D01*
X248575000Y-95190000D02*
X248575000Y-113090000D01*
X249825000Y-95190000D02*
X248575000Y-95190000D01*
X251825000Y-95190000D02*
G75*
G02*
X249825000Y-95190000I-1000000J0D01*
G01*
%TO.C,J4*%
X203775000Y-123250000D02*
X208975000Y-123250000D01*
X203775000Y-74930000D02*
X203775000Y-123250000D01*
X208975000Y-72330000D02*
X208975000Y-123250000D01*
X203775000Y-74930000D02*
X206375000Y-74930000D01*
X206375000Y-74930000D02*
X206375000Y-72330000D01*
X206375000Y-72330000D02*
X208975000Y-72330000D01*
X203775000Y-73660000D02*
X203775000Y-72330000D01*
X203775000Y-72330000D02*
X205105000Y-72330000D01*
%TO.C,J5*%
X264100000Y-72330000D02*
X265430000Y-72330000D01*
X264100000Y-73660000D02*
X264100000Y-72330000D01*
X266700000Y-72330000D02*
X269300000Y-72330000D01*
X266700000Y-74930000D02*
X266700000Y-72330000D01*
X264100000Y-74930000D02*
X266700000Y-74930000D01*
X269300000Y-72330000D02*
X269300000Y-123250000D01*
X264100000Y-74930000D02*
X264100000Y-123250000D01*
X264100000Y-123250000D02*
X269300000Y-123250000D01*
%TO.C,J3*%
X193615000Y-59750000D02*
X198815000Y-59750000D01*
X193615000Y-54610000D02*
X193615000Y-59750000D01*
X198815000Y-52010000D02*
X198815000Y-59750000D01*
X193615000Y-54610000D02*
X196215000Y-54610000D01*
X196215000Y-54610000D02*
X196215000Y-52010000D01*
X196215000Y-52010000D02*
X198815000Y-52010000D01*
X193615000Y-53340000D02*
X193615000Y-52010000D01*
X193615000Y-52010000D02*
X194945000Y-52010000D01*
%TO.C,RV1*%
X225180000Y-130425000D02*
X232020000Y-130425000D01*
X225180000Y-137665000D02*
X232020000Y-137665000D01*
X232020000Y-133335000D02*
X232020000Y-130425000D01*
X232020000Y-137665000D02*
X232020000Y-134635000D01*
X225180000Y-133335000D02*
X225180000Y-130425000D01*
X225180000Y-137665000D02*
X225180000Y-134635000D01*
%TO.C,RV2*%
X204860000Y-137665000D02*
X204860000Y-134635000D01*
X204860000Y-133335000D02*
X204860000Y-130425000D01*
X211700000Y-137665000D02*
X211700000Y-134635000D01*
X211700000Y-133335000D02*
X211700000Y-130425000D01*
X204860000Y-137665000D02*
X211700000Y-137665000D01*
X204860000Y-130425000D02*
X211700000Y-130425000D01*
%TO.C,RV3*%
X215020000Y-137665000D02*
X215020000Y-134635000D01*
X215020000Y-133335000D02*
X215020000Y-130425000D01*
X221860000Y-137665000D02*
X221860000Y-134635000D01*
X221860000Y-133335000D02*
X221860000Y-130425000D01*
X215020000Y-137665000D02*
X221860000Y-137665000D01*
X215020000Y-130425000D02*
X221860000Y-130425000D01*
%TO.C,U3*%
X222825000Y-63230000D02*
X222825000Y-64480000D01*
X222825000Y-64480000D02*
X233105000Y-64480000D01*
X233105000Y-64480000D02*
X233105000Y-59980000D01*
X233105000Y-59980000D02*
X222825000Y-59980000D01*
X222825000Y-59980000D02*
X222825000Y-61230000D01*
X222765000Y-67480000D02*
X233165000Y-67480000D01*
X233165000Y-67480000D02*
X233165000Y-56980000D01*
X233165000Y-56980000D02*
X222765000Y-56980000D01*
X222765000Y-56980000D02*
X222765000Y-67480000D01*
X222825000Y-61230000D02*
G75*
G02*
X222825000Y-63230000I0J-1000000D01*
G01*
%TO.C,J6*%
X266975000Y-137795000D02*
G75*
G03*
X266975000Y-137795000I-2180000J0D01*
G01*
X266975000Y-132715000D02*
G75*
G03*
X266975000Y-132715000I-2180000J0D01*
G01*
X269595000Y-140395000D02*
X269595000Y-130115000D01*
X267095000Y-140395000D02*
X267095000Y-130115000D01*
X260895000Y-140395000D02*
X260895000Y-130115000D01*
X258835000Y-140395000D02*
X258835000Y-130115000D01*
X270155000Y-140395000D02*
X270155000Y-130115000D01*
X258835000Y-140395000D02*
X270155000Y-140395000D01*
X258835000Y-130115000D02*
X270155000Y-130115000D01*
X263407000Y-136141000D02*
X263514000Y-136248000D01*
X266342000Y-139077000D02*
X266449000Y-139183000D01*
X263141000Y-136407000D02*
X263248000Y-136514000D01*
X266076000Y-139343000D02*
X266183000Y-139449000D01*
X263407000Y-131061000D02*
X263803000Y-131456000D01*
X266069000Y-133722000D02*
X266449000Y-134102000D01*
X263141000Y-131327000D02*
X263521000Y-131707000D01*
X265787000Y-133973000D02*
X266183000Y-134368000D01*
X269655000Y-140635000D02*
X270395000Y-140635000D01*
X270395000Y-140635000D02*
X270395000Y-140135000D01*
%TO.C,J2*%
X227905000Y-86190000D02*
X235645000Y-86190000D01*
X235645000Y-86190000D02*
X235645000Y-83530000D01*
X235645000Y-83530000D02*
X227905000Y-83530000D01*
X227905000Y-83530000D02*
X227905000Y-86190000D01*
X228855000Y-83530000D02*
X228855000Y-77530000D01*
X228855000Y-77530000D02*
X229615000Y-77530000D01*
X229615000Y-77530000D02*
X229615000Y-83530000D01*
X228915000Y-83530000D02*
X228915000Y-77530000D01*
X229035000Y-83530000D02*
X229035000Y-77530000D01*
X229155000Y-83530000D02*
X229155000Y-77530000D01*
X229275000Y-83530000D02*
X229275000Y-77530000D01*
X229395000Y-83530000D02*
X229395000Y-77530000D01*
X229515000Y-83530000D02*
X229515000Y-77530000D01*
X228855000Y-86520000D02*
X228855000Y-86190000D01*
X229615000Y-86520000D02*
X229615000Y-86190000D01*
X230505000Y-86190000D02*
X230505000Y-83530000D01*
X231395000Y-83530000D02*
X231395000Y-77530000D01*
X231395000Y-77530000D02*
X232155000Y-77530000D01*
X232155000Y-77530000D02*
X232155000Y-83530000D01*
X231395000Y-86587071D02*
X231395000Y-86190000D01*
X232155000Y-86587071D02*
X232155000Y-86190000D01*
X233045000Y-86190000D02*
X233045000Y-83530000D01*
X233935000Y-83530000D02*
X233935000Y-77530000D01*
X233935000Y-77530000D02*
X234695000Y-77530000D01*
X234695000Y-77530000D02*
X234695000Y-83530000D01*
X233935000Y-86587071D02*
X233935000Y-86190000D01*
X234695000Y-86587071D02*
X234695000Y-86190000D01*
X229235000Y-88900000D02*
X227965000Y-88900000D01*
X227965000Y-88900000D02*
X227965000Y-87630000D01*
%TO.C,U2*%
X228870000Y-95190000D02*
X227620000Y-95190000D01*
X227620000Y-95190000D02*
X227620000Y-113090000D01*
X227620000Y-113090000D02*
X232120000Y-113090000D01*
X232120000Y-113090000D02*
X232120000Y-95190000D01*
X232120000Y-95190000D02*
X230870000Y-95190000D01*
X224620000Y-95130000D02*
X224620000Y-113150000D01*
X224620000Y-113150000D02*
X235120000Y-113150000D01*
X235120000Y-113150000D02*
X235120000Y-95130000D01*
X235120000Y-95130000D02*
X224620000Y-95130000D01*
X230870000Y-95190000D02*
G75*
G02*
X228870000Y-95190000I-1000000J0D01*
G01*
%TO.C,J7*%
X241600000Y-141720000D02*
X241100000Y-141720000D01*
X241600000Y-142460000D02*
X241600000Y-141720000D01*
X234938000Y-146328000D02*
X235333000Y-145932000D01*
X232292000Y-148974000D02*
X232672000Y-148594000D01*
X234687000Y-146046000D02*
X235067000Y-145666000D01*
X232026000Y-148708000D02*
X232421000Y-148312000D01*
X240308000Y-146039000D02*
X240414000Y-145932000D01*
X237372000Y-148974000D02*
X237479000Y-148867000D01*
X240042000Y-145773000D02*
X240148000Y-145666000D01*
X237106000Y-148708000D02*
X237213000Y-148601000D01*
X231080000Y-153280000D02*
X231080000Y-141960000D01*
X241360000Y-153280000D02*
X241360000Y-141960000D01*
X241360000Y-141960000D02*
X231080000Y-141960000D01*
X241360000Y-153280000D02*
X231080000Y-153280000D01*
X241360000Y-151220000D02*
X231080000Y-151220000D01*
X241360000Y-145020000D02*
X231080000Y-145020000D01*
X241360000Y-142520000D02*
X231080000Y-142520000D01*
X235860000Y-147320000D02*
G75*
G03*
X235860000Y-147320000I-2180000J0D01*
G01*
X240940000Y-147320000D02*
G75*
G03*
X240940000Y-147320000I-2180000J0D01*
G01*
%TO.C,R3*%
X234215000Y-129635000D02*
X236955000Y-129635000D01*
X236955000Y-129635000D02*
X236955000Y-123095000D01*
X236955000Y-123095000D02*
X234215000Y-123095000D01*
X234215000Y-123095000D02*
X234215000Y-129635000D01*
X235585000Y-130405000D02*
X235585000Y-129635000D01*
X235585000Y-122325000D02*
X235585000Y-123095000D01*
%TO.C,R4*%
X248515000Y-121285000D02*
X247745000Y-121285000D01*
X240435000Y-121285000D02*
X241205000Y-121285000D01*
X247745000Y-119915000D02*
X241205000Y-119915000D01*
X247745000Y-122655000D02*
X247745000Y-119915000D01*
X241205000Y-122655000D02*
X247745000Y-122655000D01*
X241205000Y-119915000D02*
X241205000Y-122655000D01*
%TO.C,J1*%
X254300000Y-141720000D02*
X253800000Y-141720000D01*
X254300000Y-142460000D02*
X254300000Y-141720000D01*
X247638000Y-146328000D02*
X248033000Y-145932000D01*
X244992000Y-148974000D02*
X245372000Y-148594000D01*
X247387000Y-146046000D02*
X247767000Y-145666000D01*
X244726000Y-148708000D02*
X245121000Y-148312000D01*
X253008000Y-146039000D02*
X253114000Y-145932000D01*
X250072000Y-148974000D02*
X250179000Y-148867000D01*
X252742000Y-145773000D02*
X252848000Y-145666000D01*
X249806000Y-148708000D02*
X249913000Y-148601000D01*
X243780000Y-153280000D02*
X243780000Y-141960000D01*
X254060000Y-153280000D02*
X254060000Y-141960000D01*
X254060000Y-141960000D02*
X243780000Y-141960000D01*
X254060000Y-153280000D02*
X243780000Y-153280000D01*
X254060000Y-151220000D02*
X243780000Y-151220000D01*
X254060000Y-145020000D02*
X243780000Y-145020000D01*
X254060000Y-142520000D02*
X243780000Y-142520000D01*
X248560000Y-147320000D02*
G75*
G03*
X248560000Y-147320000I-2180000J0D01*
G01*
X253640000Y-147320000D02*
G75*
G03*
X253640000Y-147320000I-2180000J0D01*
G01*
%TO.C,J8*%
X220405000Y-151070000D02*
X215205000Y-151070000D01*
X220405000Y-158750000D02*
X220405000Y-151070000D01*
X215205000Y-161350000D02*
X215205000Y-151070000D01*
X220405000Y-158750000D02*
X217805000Y-158750000D01*
X217805000Y-158750000D02*
X217805000Y-161350000D01*
X217805000Y-161350000D02*
X215205000Y-161350000D01*
X220405000Y-160020000D02*
X220405000Y-161350000D01*
X220405000Y-161350000D02*
X219075000Y-161350000D01*
%TO.C,C1*%
X245825000Y-132060000D02*
G75*
G03*
X245825000Y-132060000I-2620000J0D01*
G01*
X245785000Y-132060000D02*
X240625000Y-132060000D01*
X245785000Y-132100000D02*
X240625000Y-132100000D01*
X245784000Y-132140000D02*
X240626000Y-132140000D01*
X245783000Y-132180000D02*
X240627000Y-132180000D01*
X245781000Y-132220000D02*
X240629000Y-132220000D01*
X245778000Y-132260000D02*
X240632000Y-132260000D01*
X245774000Y-132300000D02*
X244245000Y-132300000D01*
X242165000Y-132300000D02*
X240636000Y-132300000D01*
X245770000Y-132340000D02*
X244245000Y-132340000D01*
X242165000Y-132340000D02*
X240640000Y-132340000D01*
X245766000Y-132380000D02*
X244245000Y-132380000D01*
X242165000Y-132380000D02*
X240644000Y-132380000D01*
X245761000Y-132420000D02*
X244245000Y-132420000D01*
X242165000Y-132420000D02*
X240649000Y-132420000D01*
X245755000Y-132460000D02*
X244245000Y-132460000D01*
X242165000Y-132460000D02*
X240655000Y-132460000D01*
X245748000Y-132500000D02*
X244245000Y-132500000D01*
X242165000Y-132500000D02*
X240662000Y-132500000D01*
X245741000Y-132540000D02*
X244245000Y-132540000D01*
X242165000Y-132540000D02*
X240669000Y-132540000D01*
X245733000Y-132580000D02*
X244245000Y-132580000D01*
X242165000Y-132580000D02*
X240677000Y-132580000D01*
X245725000Y-132620000D02*
X244245000Y-132620000D01*
X242165000Y-132620000D02*
X240685000Y-132620000D01*
X245716000Y-132660000D02*
X244245000Y-132660000D01*
X242165000Y-132660000D02*
X240694000Y-132660000D01*
X245706000Y-132700000D02*
X244245000Y-132700000D01*
X242165000Y-132700000D02*
X240704000Y-132700000D01*
X245696000Y-132740000D02*
X244245000Y-132740000D01*
X242165000Y-132740000D02*
X240714000Y-132740000D01*
X245685000Y-132781000D02*
X244245000Y-132781000D01*
X242165000Y-132781000D02*
X240725000Y-132781000D01*
X245673000Y-132821000D02*
X244245000Y-132821000D01*
X242165000Y-132821000D02*
X240737000Y-132821000D01*
X245660000Y-132861000D02*
X244245000Y-132861000D01*
X242165000Y-132861000D02*
X240750000Y-132861000D01*
X245647000Y-132901000D02*
X244245000Y-132901000D01*
X242165000Y-132901000D02*
X240763000Y-132901000D01*
X245633000Y-132941000D02*
X244245000Y-132941000D01*
X242165000Y-132941000D02*
X240777000Y-132941000D01*
X245619000Y-132981000D02*
X244245000Y-132981000D01*
X242165000Y-132981000D02*
X240791000Y-132981000D01*
X245603000Y-133021000D02*
X244245000Y-133021000D01*
X242165000Y-133021000D02*
X240807000Y-133021000D01*
X245587000Y-133061000D02*
X244245000Y-133061000D01*
X242165000Y-133061000D02*
X240823000Y-133061000D01*
X245570000Y-133101000D02*
X244245000Y-133101000D01*
X242165000Y-133101000D02*
X240840000Y-133101000D01*
X245553000Y-133141000D02*
X244245000Y-133141000D01*
X242165000Y-133141000D02*
X240857000Y-133141000D01*
X245534000Y-133181000D02*
X244245000Y-133181000D01*
X242165000Y-133181000D02*
X240876000Y-133181000D01*
X245515000Y-133221000D02*
X244245000Y-133221000D01*
X242165000Y-133221000D02*
X240895000Y-133221000D01*
X245495000Y-133261000D02*
X244245000Y-133261000D01*
X242165000Y-133261000D02*
X240915000Y-133261000D01*
X245473000Y-133301000D02*
X244245000Y-133301000D01*
X242165000Y-133301000D02*
X240937000Y-133301000D01*
X245452000Y-133341000D02*
X244245000Y-133341000D01*
X242165000Y-133341000D02*
X240958000Y-133341000D01*
X245429000Y-133381000D02*
X244245000Y-133381000D01*
X242165000Y-133381000D02*
X240981000Y-133381000D01*
X245405000Y-133421000D02*
X244245000Y-133421000D01*
X242165000Y-133421000D02*
X241005000Y-133421000D01*
X245380000Y-133461000D02*
X244245000Y-133461000D01*
X242165000Y-133461000D02*
X241030000Y-133461000D01*
X245354000Y-133501000D02*
X244245000Y-133501000D01*
X242165000Y-133501000D02*
X241056000Y-133501000D01*
X245327000Y-133541000D02*
X244245000Y-133541000D01*
X242165000Y-133541000D02*
X241083000Y-133541000D01*
X245300000Y-133581000D02*
X244245000Y-133581000D01*
X242165000Y-133581000D02*
X241110000Y-133581000D01*
X245270000Y-133621000D02*
X244245000Y-133621000D01*
X242165000Y-133621000D02*
X241140000Y-133621000D01*
X245240000Y-133661000D02*
X244245000Y-133661000D01*
X242165000Y-133661000D02*
X241170000Y-133661000D01*
X245209000Y-133701000D02*
X244245000Y-133701000D01*
X242165000Y-133701000D02*
X241201000Y-133701000D01*
X245176000Y-133741000D02*
X244245000Y-133741000D01*
X242165000Y-133741000D02*
X241234000Y-133741000D01*
X245142000Y-133781000D02*
X244245000Y-133781000D01*
X242165000Y-133781000D02*
X241268000Y-133781000D01*
X245106000Y-133821000D02*
X244245000Y-133821000D01*
X242165000Y-133821000D02*
X241304000Y-133821000D01*
X245069000Y-133861000D02*
X244245000Y-133861000D01*
X242165000Y-133861000D02*
X241341000Y-133861000D01*
X245031000Y-133901000D02*
X244245000Y-133901000D01*
X242165000Y-133901000D02*
X241379000Y-133901000D01*
X244990000Y-133941000D02*
X244245000Y-133941000D01*
X242165000Y-133941000D02*
X241420000Y-133941000D01*
X244948000Y-133981000D02*
X244245000Y-133981000D01*
X242165000Y-133981000D02*
X241462000Y-133981000D01*
X244904000Y-134021000D02*
X244245000Y-134021000D01*
X242165000Y-134021000D02*
X241506000Y-134021000D01*
X244858000Y-134061000D02*
X244245000Y-134061000D01*
X242165000Y-134061000D02*
X241552000Y-134061000D01*
X244810000Y-134101000D02*
X244245000Y-134101000D01*
X242165000Y-134101000D02*
X241600000Y-134101000D01*
X244759000Y-134141000D02*
X244245000Y-134141000D01*
X242165000Y-134141000D02*
X241651000Y-134141000D01*
X244705000Y-134181000D02*
X244245000Y-134181000D01*
X242165000Y-134181000D02*
X241705000Y-134181000D01*
X244648000Y-134221000D02*
X244245000Y-134221000D01*
X242165000Y-134221000D02*
X241762000Y-134221000D01*
X244588000Y-134261000D02*
X244245000Y-134261000D01*
X242165000Y-134261000D02*
X241822000Y-134261000D01*
X244524000Y-134301000D02*
X244245000Y-134301000D01*
X242165000Y-134301000D02*
X241886000Y-134301000D01*
X244456000Y-134341000D02*
X244245000Y-134341000D01*
X242165000Y-134341000D02*
X241954000Y-134341000D01*
X244383000Y-134381000D02*
X242027000Y-134381000D01*
X244303000Y-134421000D02*
X242107000Y-134421000D01*
X244216000Y-134461000D02*
X242194000Y-134461000D01*
X244120000Y-134501000D02*
X242290000Y-134501000D01*
X244010000Y-134541000D02*
X242400000Y-134541000D01*
X243882000Y-134581000D02*
X242528000Y-134581000D01*
X243723000Y-134621000D02*
X242687000Y-134621000D01*
X243489000Y-134661000D02*
X242921000Y-134661000D01*
X244680000Y-129255225D02*
X244680000Y-129755225D01*
X244930000Y-129505225D02*
X244430000Y-129505225D01*
%TO.C,R1*%
X210185000Y-54380000D02*
X210185000Y-55150000D01*
X210185000Y-62460000D02*
X210185000Y-61690000D01*
X208815000Y-55150000D02*
X208815000Y-61690000D01*
X211555000Y-55150000D02*
X208815000Y-55150000D01*
X211555000Y-61690000D02*
X211555000Y-55150000D01*
X208815000Y-61690000D02*
X211555000Y-61690000D01*
%TO.C,R2*%
X220445000Y-67850000D02*
X217705000Y-67850000D01*
X217705000Y-67850000D02*
X217705000Y-74390000D01*
X217705000Y-74390000D02*
X220445000Y-74390000D01*
X220445000Y-74390000D02*
X220445000Y-67850000D01*
X219075000Y-67080000D02*
X219075000Y-67850000D01*
X219075000Y-75160000D02*
X219075000Y-74390000D01*
%TO.C,U1*%
D10*
X250063095Y-93642380D02*
X250063095Y-94451904D01*
X250110714Y-94547142D01*
X250158333Y-94594761D01*
X250253571Y-94642380D01*
X250444047Y-94642380D01*
X250539285Y-94594761D01*
X250586904Y-94547142D01*
X250634523Y-94451904D01*
X250634523Y-93642380D01*
X251634523Y-94642380D02*
X251063095Y-94642380D01*
X251348809Y-94642380D02*
X251348809Y-93642380D01*
X251253571Y-93785238D01*
X251158333Y-93880476D01*
X251063095Y-93928095D01*
%TO.C,J4*%
X206041666Y-70782380D02*
X206041666Y-71496666D01*
X205994047Y-71639523D01*
X205898809Y-71734761D01*
X205755952Y-71782380D01*
X205660714Y-71782380D01*
X206946428Y-71115714D02*
X206946428Y-71782380D01*
X206708333Y-70734761D02*
X206470238Y-71449047D01*
X207089285Y-71449047D01*
%TO.C,J5*%
X266366666Y-70782380D02*
X266366666Y-71496666D01*
X266319047Y-71639523D01*
X266223809Y-71734761D01*
X266080952Y-71782380D01*
X265985714Y-71782380D01*
X267319047Y-70782380D02*
X266842857Y-70782380D01*
X266795238Y-71258571D01*
X266842857Y-71210952D01*
X266938095Y-71163333D01*
X267176190Y-71163333D01*
X267271428Y-71210952D01*
X267319047Y-71258571D01*
X267366666Y-71353809D01*
X267366666Y-71591904D01*
X267319047Y-71687142D01*
X267271428Y-71734761D01*
X267176190Y-71782380D01*
X266938095Y-71782380D01*
X266842857Y-71734761D01*
X266795238Y-71687142D01*
%TO.C,J3*%
X195881666Y-50462380D02*
X195881666Y-51176666D01*
X195834047Y-51319523D01*
X195738809Y-51414761D01*
X195595952Y-51462380D01*
X195500714Y-51462380D01*
X196262619Y-50462380D02*
X196881666Y-50462380D01*
X196548333Y-50843333D01*
X196691190Y-50843333D01*
X196786428Y-50890952D01*
X196834047Y-50938571D01*
X196881666Y-51033809D01*
X196881666Y-51271904D01*
X196834047Y-51367142D01*
X196786428Y-51414761D01*
X196691190Y-51462380D01*
X196405476Y-51462380D01*
X196310238Y-51414761D01*
X196262619Y-51367142D01*
%TO.C,RV1*%
X224502380Y-134640238D02*
X224026190Y-134973571D01*
X224502380Y-135211666D02*
X223502380Y-135211666D01*
X223502380Y-134830714D01*
X223550000Y-134735476D01*
X223597619Y-134687857D01*
X223692857Y-134640238D01*
X223835714Y-134640238D01*
X223930952Y-134687857D01*
X223978571Y-134735476D01*
X224026190Y-134830714D01*
X224026190Y-135211666D01*
X223502380Y-134354523D02*
X224502380Y-134021190D01*
X223502380Y-133687857D01*
X224502380Y-132830714D02*
X224502380Y-133402142D01*
X224502380Y-133116428D02*
X223502380Y-133116428D01*
X223645238Y-133211666D01*
X223740476Y-133306904D01*
X223788095Y-133402142D01*
%TO.C,RV2*%
X204182380Y-134640238D02*
X203706190Y-134973571D01*
X204182380Y-135211666D02*
X203182380Y-135211666D01*
X203182380Y-134830714D01*
X203230000Y-134735476D01*
X203277619Y-134687857D01*
X203372857Y-134640238D01*
X203515714Y-134640238D01*
X203610952Y-134687857D01*
X203658571Y-134735476D01*
X203706190Y-134830714D01*
X203706190Y-135211666D01*
X203182380Y-134354523D02*
X204182380Y-134021190D01*
X203182380Y-133687857D01*
X203277619Y-133402142D02*
X203230000Y-133354523D01*
X203182380Y-133259285D01*
X203182380Y-133021190D01*
X203230000Y-132925952D01*
X203277619Y-132878333D01*
X203372857Y-132830714D01*
X203468095Y-132830714D01*
X203610952Y-132878333D01*
X204182380Y-133449761D01*
X204182380Y-132830714D01*
%TO.C,RV3*%
X214342380Y-134640238D02*
X213866190Y-134973571D01*
X214342380Y-135211666D02*
X213342380Y-135211666D01*
X213342380Y-134830714D01*
X213390000Y-134735476D01*
X213437619Y-134687857D01*
X213532857Y-134640238D01*
X213675714Y-134640238D01*
X213770952Y-134687857D01*
X213818571Y-134735476D01*
X213866190Y-134830714D01*
X213866190Y-135211666D01*
X213342380Y-134354523D02*
X214342380Y-134021190D01*
X213342380Y-133687857D01*
X213342380Y-133449761D02*
X213342380Y-132830714D01*
X213723333Y-133164047D01*
X213723333Y-133021190D01*
X213770952Y-132925952D01*
X213818571Y-132878333D01*
X213913809Y-132830714D01*
X214151904Y-132830714D01*
X214247142Y-132878333D01*
X214294761Y-132925952D01*
X214342380Y-133021190D01*
X214342380Y-133306904D01*
X214294761Y-133402142D01*
X214247142Y-133449761D01*
%TO.C,U3*%
X221277380Y-62991904D02*
X222086904Y-62991904D01*
X222182142Y-62944285D01*
X222229761Y-62896666D01*
X222277380Y-62801428D01*
X222277380Y-62610952D01*
X222229761Y-62515714D01*
X222182142Y-62468095D01*
X222086904Y-62420476D01*
X221277380Y-62420476D01*
X221277380Y-62039523D02*
X221277380Y-61420476D01*
X221658333Y-61753809D01*
X221658333Y-61610952D01*
X221705952Y-61515714D01*
X221753571Y-61468095D01*
X221848809Y-61420476D01*
X222086904Y-61420476D01*
X222182142Y-61468095D01*
X222229761Y-61515714D01*
X222277380Y-61610952D01*
X222277380Y-61896666D01*
X222229761Y-61991904D01*
X222182142Y-62039523D01*
%TO.C,J6*%
X257287380Y-135588333D02*
X258001666Y-135588333D01*
X258144523Y-135635952D01*
X258239761Y-135731190D01*
X258287380Y-135874047D01*
X258287380Y-135969285D01*
X257287380Y-134683571D02*
X257287380Y-134874047D01*
X257335000Y-134969285D01*
X257382619Y-135016904D01*
X257525476Y-135112142D01*
X257715952Y-135159761D01*
X258096904Y-135159761D01*
X258192142Y-135112142D01*
X258239761Y-135064523D01*
X258287380Y-134969285D01*
X258287380Y-134778809D01*
X258239761Y-134683571D01*
X258192142Y-134635952D01*
X258096904Y-134588333D01*
X257858809Y-134588333D01*
X257763571Y-134635952D01*
X257715952Y-134683571D01*
X257668333Y-134778809D01*
X257668333Y-134969285D01*
X257715952Y-135064523D01*
X257763571Y-135112142D01*
X257858809Y-135159761D01*
%TO.C,J2*%
X226417380Y-83578333D02*
X227131666Y-83578333D01*
X227274523Y-83625952D01*
X227369761Y-83721190D01*
X227417380Y-83864047D01*
X227417380Y-83959285D01*
X226512619Y-83149761D02*
X226465000Y-83102142D01*
X226417380Y-83006904D01*
X226417380Y-82768809D01*
X226465000Y-82673571D01*
X226512619Y-82625952D01*
X226607857Y-82578333D01*
X226703095Y-82578333D01*
X226845952Y-82625952D01*
X227417380Y-83197380D01*
X227417380Y-82578333D01*
%TO.C,U2*%
X229108095Y-93642380D02*
X229108095Y-94451904D01*
X229155714Y-94547142D01*
X229203333Y-94594761D01*
X229298571Y-94642380D01*
X229489047Y-94642380D01*
X229584285Y-94594761D01*
X229631904Y-94547142D01*
X229679523Y-94451904D01*
X229679523Y-93642380D01*
X230108095Y-93737619D02*
X230155714Y-93690000D01*
X230250952Y-93642380D01*
X230489047Y-93642380D01*
X230584285Y-93690000D01*
X230631904Y-93737619D01*
X230679523Y-93832857D01*
X230679523Y-93928095D01*
X230631904Y-94070952D01*
X230060476Y-94642380D01*
X230679523Y-94642380D01*
%TO.C,J7*%
X235886666Y-153732380D02*
X235886666Y-154446666D01*
X235839047Y-154589523D01*
X235743809Y-154684761D01*
X235600952Y-154732380D01*
X235505714Y-154732380D01*
X236267619Y-153732380D02*
X236934285Y-153732380D01*
X236505714Y-154732380D01*
%TO.C,R3*%
X233667380Y-126531666D02*
X233191190Y-126865000D01*
X233667380Y-127103095D02*
X232667380Y-127103095D01*
X232667380Y-126722142D01*
X232715000Y-126626904D01*
X232762619Y-126579285D01*
X232857857Y-126531666D01*
X233000714Y-126531666D01*
X233095952Y-126579285D01*
X233143571Y-126626904D01*
X233191190Y-126722142D01*
X233191190Y-127103095D01*
X232667380Y-126198333D02*
X232667380Y-125579285D01*
X233048333Y-125912619D01*
X233048333Y-125769761D01*
X233095952Y-125674523D01*
X233143571Y-125626904D01*
X233238809Y-125579285D01*
X233476904Y-125579285D01*
X233572142Y-125626904D01*
X233619761Y-125674523D01*
X233667380Y-125769761D01*
X233667380Y-126055476D01*
X233619761Y-126150714D01*
X233572142Y-126198333D01*
%TO.C,R4*%
X244308333Y-119367380D02*
X243975000Y-118891190D01*
X243736904Y-119367380D02*
X243736904Y-118367380D01*
X244117857Y-118367380D01*
X244213095Y-118415000D01*
X244260714Y-118462619D01*
X244308333Y-118557857D01*
X244308333Y-118700714D01*
X244260714Y-118795952D01*
X244213095Y-118843571D01*
X244117857Y-118891190D01*
X243736904Y-118891190D01*
X245165476Y-118700714D02*
X245165476Y-119367380D01*
X244927380Y-118319761D02*
X244689285Y-119034047D01*
X245308333Y-119034047D01*
%TO.C,J1*%
X248586666Y-153732380D02*
X248586666Y-154446666D01*
X248539047Y-154589523D01*
X248443809Y-154684761D01*
X248300952Y-154732380D01*
X248205714Y-154732380D01*
X249586666Y-154732380D02*
X249015238Y-154732380D01*
X249300952Y-154732380D02*
X249300952Y-153732380D01*
X249205714Y-153875238D01*
X249110476Y-153970476D01*
X249015238Y-154018095D01*
%TO.C,J8*%
X217471666Y-163917380D02*
X217471666Y-164631666D01*
X217424047Y-164774523D01*
X217328809Y-164869761D01*
X217185952Y-164917380D01*
X217090714Y-164917380D01*
X218090714Y-164345952D02*
X217995476Y-164298333D01*
X217947857Y-164250714D01*
X217900238Y-164155476D01*
X217900238Y-164107857D01*
X217947857Y-164012619D01*
X217995476Y-163965000D01*
X218090714Y-163917380D01*
X218281190Y-163917380D01*
X218376428Y-163965000D01*
X218424047Y-164012619D01*
X218471666Y-164107857D01*
X218471666Y-164155476D01*
X218424047Y-164250714D01*
X218376428Y-164298333D01*
X218281190Y-164345952D01*
X218090714Y-164345952D01*
X217995476Y-164393571D01*
X217947857Y-164441190D01*
X217900238Y-164536428D01*
X217900238Y-164726904D01*
X217947857Y-164822142D01*
X217995476Y-164869761D01*
X218090714Y-164917380D01*
X218281190Y-164917380D01*
X218376428Y-164869761D01*
X218424047Y-164822142D01*
X218471666Y-164726904D01*
X218471666Y-164536428D01*
X218424047Y-164441190D01*
X218376428Y-164393571D01*
X218281190Y-164345952D01*
%TO.C,C1*%
X247312142Y-132226666D02*
X247359761Y-132274285D01*
X247407380Y-132417142D01*
X247407380Y-132512380D01*
X247359761Y-132655238D01*
X247264523Y-132750476D01*
X247169285Y-132798095D01*
X246978809Y-132845714D01*
X246835952Y-132845714D01*
X246645476Y-132798095D01*
X246550238Y-132750476D01*
X246455000Y-132655238D01*
X246407380Y-132512380D01*
X246407380Y-132417142D01*
X246455000Y-132274285D01*
X246502619Y-132226666D01*
X247407380Y-131274285D02*
X247407380Y-131845714D01*
X247407380Y-131560000D02*
X246407380Y-131560000D01*
X246550238Y-131655238D01*
X246645476Y-131750476D01*
X246693095Y-131845714D01*
%TO.C,REF\u002A\u002A*%
X250126666Y-64197380D02*
X249793333Y-63721190D01*
X249555238Y-64197380D02*
X249555238Y-63197380D01*
X249936190Y-63197380D01*
X250031428Y-63245000D01*
X250079047Y-63292619D01*
X250126666Y-63387857D01*
X250126666Y-63530714D01*
X250079047Y-63625952D01*
X250031428Y-63673571D01*
X249936190Y-63721190D01*
X249555238Y-63721190D01*
X250555238Y-63673571D02*
X250888571Y-63673571D01*
X251031428Y-64197380D02*
X250555238Y-64197380D01*
X250555238Y-63197380D01*
X251031428Y-63197380D01*
X251793333Y-63673571D02*
X251460000Y-63673571D01*
X251460000Y-64197380D02*
X251460000Y-63197380D01*
X251936190Y-63197380D01*
X252460000Y-63197380D02*
X252460000Y-63435476D01*
X252221904Y-63340238D02*
X252460000Y-63435476D01*
X252698095Y-63340238D01*
X252317142Y-63625952D02*
X252460000Y-63435476D01*
X252602857Y-63625952D01*
X253221904Y-63197380D02*
X253221904Y-63435476D01*
X252983809Y-63340238D02*
X253221904Y-63435476D01*
X253460000Y-63340238D01*
X253079047Y-63625952D02*
X253221904Y-63435476D01*
X253364761Y-63625952D01*
X261556666Y-150557380D02*
X261223333Y-150081190D01*
X260985238Y-150557380D02*
X260985238Y-149557380D01*
X261366190Y-149557380D01*
X261461428Y-149605000D01*
X261509047Y-149652619D01*
X261556666Y-149747857D01*
X261556666Y-149890714D01*
X261509047Y-149985952D01*
X261461428Y-150033571D01*
X261366190Y-150081190D01*
X260985238Y-150081190D01*
X261985238Y-150033571D02*
X262318571Y-150033571D01*
X262461428Y-150557380D02*
X261985238Y-150557380D01*
X261985238Y-149557380D01*
X262461428Y-149557380D01*
X263223333Y-150033571D02*
X262890000Y-150033571D01*
X262890000Y-150557380D02*
X262890000Y-149557380D01*
X263366190Y-149557380D01*
X263890000Y-149557380D02*
X263890000Y-149795476D01*
X263651904Y-149700238D02*
X263890000Y-149795476D01*
X264128095Y-149700238D01*
X263747142Y-149985952D02*
X263890000Y-149795476D01*
X264032857Y-149985952D01*
X264651904Y-149557380D02*
X264651904Y-149795476D01*
X264413809Y-149700238D02*
X264651904Y-149795476D01*
X264890000Y-149700238D01*
X264509047Y-149985952D02*
X264651904Y-149795476D01*
X264794761Y-149985952D01*
X216471666Y-85787380D02*
X216138333Y-85311190D01*
X215900238Y-85787380D02*
X215900238Y-84787380D01*
X216281190Y-84787380D01*
X216376428Y-84835000D01*
X216424047Y-84882619D01*
X216471666Y-84977857D01*
X216471666Y-85120714D01*
X216424047Y-85215952D01*
X216376428Y-85263571D01*
X216281190Y-85311190D01*
X215900238Y-85311190D01*
X216900238Y-85263571D02*
X217233571Y-85263571D01*
X217376428Y-85787380D02*
X216900238Y-85787380D01*
X216900238Y-84787380D01*
X217376428Y-84787380D01*
X218138333Y-85263571D02*
X217805000Y-85263571D01*
X217805000Y-85787380D02*
X217805000Y-84787380D01*
X218281190Y-84787380D01*
X218805000Y-84787380D02*
X218805000Y-85025476D01*
X218566904Y-84930238D02*
X218805000Y-85025476D01*
X219043095Y-84930238D01*
X218662142Y-85215952D02*
X218805000Y-85025476D01*
X218947857Y-85215952D01*
X219566904Y-84787380D02*
X219566904Y-85025476D01*
X219328809Y-84930238D02*
X219566904Y-85025476D01*
X219805000Y-84930238D01*
X219424047Y-85215952D02*
X219566904Y-85025476D01*
X219709761Y-85215952D01*
%TO.C,R1*%
X208267380Y-58586666D02*
X207791190Y-58920000D01*
X208267380Y-59158095D02*
X207267380Y-59158095D01*
X207267380Y-58777142D01*
X207315000Y-58681904D01*
X207362619Y-58634285D01*
X207457857Y-58586666D01*
X207600714Y-58586666D01*
X207695952Y-58634285D01*
X207743571Y-58681904D01*
X207791190Y-58777142D01*
X207791190Y-59158095D01*
X208267380Y-57634285D02*
X208267380Y-58205714D01*
X208267380Y-57920000D02*
X207267380Y-57920000D01*
X207410238Y-58015238D01*
X207505476Y-58110476D01*
X207553095Y-58205714D01*
%TO.C,R2*%
X221897380Y-71286666D02*
X221421190Y-71620000D01*
X221897380Y-71858095D02*
X220897380Y-71858095D01*
X220897380Y-71477142D01*
X220945000Y-71381904D01*
X220992619Y-71334285D01*
X221087857Y-71286666D01*
X221230714Y-71286666D01*
X221325952Y-71334285D01*
X221373571Y-71381904D01*
X221421190Y-71477142D01*
X221421190Y-71858095D01*
X220992619Y-70905714D02*
X220945000Y-70858095D01*
X220897380Y-70762857D01*
X220897380Y-70524761D01*
X220945000Y-70429523D01*
X220992619Y-70381904D01*
X221087857Y-70334285D01*
X221183095Y-70334285D01*
X221325952Y-70381904D01*
X221897380Y-70953333D01*
X221897380Y-70334285D01*
%TD*%
M02*
