M48
; DRILL file {KiCad (5.1.6)-1} date 11/21/21 11:26:56
; FORMAT={-:-/ absolute / inch / decimal}
; #@! TF.CreationDate,2021-11-21T11:26:56+01:00
; #@! TF.GenerationSoftware,Kicad,Pcbnew,(5.1.6)-1
; #@! TF.FileFunction,Plated,1,2,PTH
FMAT,2
INCH
T1C0.0315
T2C0.0394
T3C0.0512
%
G90
G05
T1
X7.6Y-4.975
X8.275Y-4.975
X8.35Y-3.7
X8.35Y-4.35
X8.35Y-4.5
X8.35Y-4.9
X8.475Y-3.8
X8.65Y-3.625
X9.025Y-4.6
X9.375Y-2.3
X9.375Y-2.725
X9.825Y-4.6
X7.725Y-5.175
X7.725Y-5.375
X7.825Y-5.275
X9.725Y-3.8
X9.725Y-3.9
X9.725Y-4.0
X9.725Y-4.1
X9.725Y-4.2
X9.725Y-4.3
X9.725Y-4.4
X10.025Y-3.8
X10.025Y-3.9
X10.025Y-4.0
X10.025Y-4.1
X10.025Y-4.2
X10.025Y-4.3
X10.025Y-4.4
X8.875Y-5.15
X8.875Y-5.55
X8.475Y-5.15
X8.475Y-5.55
X10.25Y-5.425
X10.35Y-5.325
X10.35Y-5.525
X8.825Y-2.3
X8.825Y-2.6
X8.925Y-2.3
X8.925Y-2.6
X9.025Y-2.3
X9.025Y-2.6
X9.125Y-2.3
X9.125Y-2.6
X8.9Y-3.8
X8.9Y-3.9
X8.9Y-4.0
X8.9Y-4.1
X8.9Y-4.2
X8.9Y-4.3
X8.9Y-4.4
X9.2Y-3.8
X9.2Y-3.9
X9.2Y-4.0
X9.2Y-4.1
X9.2Y-4.2
X9.2Y-4.3
X9.2Y-4.4
X9.275Y-5.15
X9.275Y-5.55
X8.625Y-2.6
X8.625Y-3.0
X7.725Y-5.975
X7.725Y-6.175
X7.825Y-6.075
X7.725Y-5.575
X7.725Y-5.775
X7.825Y-5.675
X9.6Y-5.3
X9.6Y-5.4
X9.6Y-5.5
X9.6Y-5.6
X9.9Y-5.3
X9.9Y-5.4
X9.9Y-5.5
X9.9Y-5.6
X9.6Y-6.025
X10.0Y-6.025
X9.075Y-5.15
X9.075Y-5.55
X8.675Y-5.15
X8.675Y-5.55
X8.675Y-2.025
X9.075Y-2.025
T2
X7.5Y-4.0
X7.6Y-4.0
X7.7Y-4.0
X7.625Y-2.175
X7.625Y-2.275
X7.625Y-2.375
X7.725Y-2.175
X7.725Y-2.275
X7.725Y-2.375
X7.5Y-4.2
X7.6Y-4.2
X7.7Y-4.2
X10.45Y-2.9
X10.45Y-3.0
X10.45Y-3.1
X10.45Y-3.2
X10.45Y-3.3
X10.45Y-3.4
X10.45Y-3.5
X10.45Y-3.6
X10.45Y-3.7
X10.45Y-3.8
X10.45Y-3.9
X10.45Y-4.0
X10.45Y-4.1
X10.45Y-4.2
X10.45Y-4.3
X10.45Y-4.4
X10.45Y-4.5
X10.45Y-4.6
X10.45Y-4.7
X10.45Y-4.8
X10.55Y-2.9
X10.55Y-3.0
X10.55Y-3.1
X10.55Y-3.2
X10.55Y-3.3
X10.55Y-3.4
X10.55Y-3.5
X10.55Y-3.6
X10.55Y-3.7
X10.55Y-3.8
X10.55Y-3.9
X10.55Y-4.0
X10.55Y-4.1
X10.55Y-4.2
X10.55Y-4.3
X10.55Y-4.4
X10.55Y-4.5
X10.55Y-4.6
X10.55Y-4.7
X10.55Y-4.8
X8.075Y-2.9
X8.075Y-3.0
X8.075Y-3.1
X8.075Y-3.2
X8.075Y-3.3
X8.075Y-3.4
X8.075Y-3.5
X8.075Y-3.6
X8.075Y-3.7
X8.075Y-3.8
X8.075Y-3.9
X8.075Y-4.0
X8.075Y-4.1
X8.075Y-4.2
X8.075Y-4.3
X8.075Y-4.4
X8.075Y-4.5
X8.075Y-4.6
X8.075Y-4.7
X8.075Y-4.8
X8.175Y-2.9
X8.175Y-3.0
X8.175Y-3.1
X8.175Y-3.2
X8.175Y-3.3
X8.175Y-3.4
X8.175Y-3.5
X8.175Y-3.6
X8.175Y-3.7
X8.175Y-3.8
X8.175Y-3.9
X8.175Y-4.0
X8.175Y-4.1
X8.175Y-4.2
X8.175Y-4.3
X8.175Y-4.4
X8.175Y-4.5
X8.175Y-4.6
X8.175Y-4.7
X8.175Y-4.8
X7.5Y-4.4
X7.6Y-4.4
X7.7Y-4.4
X10.3Y-2.125
X10.3Y-2.225
X10.3Y-2.325
X7.5Y-4.6
X7.6Y-4.6
X7.7Y-4.6
T3
X10.375Y-6.025
X10.575Y-6.025
X8.325Y-6.125
X8.525Y-6.125
X8.95Y-6.125
X9.15Y-6.125
T0
M30
