%TF.GenerationSoftware,KiCad,Pcbnew,(5.1.6)-1*%
%TF.CreationDate,2021-11-21T11:26:53+01:00*%
%TF.ProjectId,carteDmx512,63617274-6544-46d7-9835-31322e6b6963,rev?*%
%TF.SameCoordinates,Original*%
%TF.FileFunction,Soldermask,Bot*%
%TF.FilePolarity,Negative*%
%FSLAX46Y46*%
G04 Gerber Fmt 4.6, Leading zero omitted, Abs format (unit mm)*
G04 Created by KiCad (PCBNEW (5.1.6)-1) date 2021-11-21 11:26:53*
%MOMM*%
%LPD*%
G01*
G04 APERTURE LIST*
%ADD10C,0.100000*%
G04 APERTURE END LIST*
D10*
G36*
X196390013Y-156094727D02*
G01*
X196439601Y-156104590D01*
X196579732Y-156162635D01*
X196705847Y-156246902D01*
X196813098Y-156354153D01*
X196867502Y-156435575D01*
X196897366Y-156480270D01*
X196955410Y-156620400D01*
X196985000Y-156769160D01*
X196985000Y-156920840D01*
X196965273Y-157020013D01*
X196955410Y-157069601D01*
X196897365Y-157209732D01*
X196813098Y-157335847D01*
X196705847Y-157443098D01*
X196579732Y-157527365D01*
X196439601Y-157585410D01*
X196390013Y-157595273D01*
X196290840Y-157615000D01*
X196139160Y-157615000D01*
X196039987Y-157595273D01*
X195990399Y-157585410D01*
X195850268Y-157527365D01*
X195724153Y-157443098D01*
X195616902Y-157335847D01*
X195532635Y-157209732D01*
X195474590Y-157069601D01*
X195464727Y-157020013D01*
X195445000Y-156920840D01*
X195445000Y-156769160D01*
X195474590Y-156620400D01*
X195532634Y-156480270D01*
X195562498Y-156435575D01*
X195616902Y-156354153D01*
X195724153Y-156246902D01*
X195850268Y-156162635D01*
X195990399Y-156104590D01*
X196039987Y-156094727D01*
X196139160Y-156075000D01*
X196290840Y-156075000D01*
X196390013Y-156094727D01*
G37*
G36*
X232803779Y-154276879D02*
G01*
X233049463Y-154378645D01*
X233049465Y-154378646D01*
X233058974Y-154385000D01*
X233270574Y-154526386D01*
X233458614Y-154714426D01*
X233606355Y-154935537D01*
X233708121Y-155181221D01*
X233760000Y-155442035D01*
X233760000Y-155707965D01*
X233708121Y-155968779D01*
X233606355Y-156214463D01*
X233513018Y-156354153D01*
X233458613Y-156435575D01*
X233270575Y-156623613D01*
X233049465Y-156771354D01*
X233049464Y-156771355D01*
X233049463Y-156771355D01*
X232803779Y-156873121D01*
X232542965Y-156925000D01*
X232277035Y-156925000D01*
X232016221Y-156873121D01*
X231770537Y-156771355D01*
X231770536Y-156771355D01*
X231770535Y-156771354D01*
X231549425Y-156623613D01*
X231361387Y-156435575D01*
X231306983Y-156354153D01*
X231213645Y-156214463D01*
X231111879Y-155968779D01*
X231060000Y-155707965D01*
X231060000Y-155442035D01*
X231111879Y-155181221D01*
X231213645Y-154935537D01*
X231361386Y-154714426D01*
X231549426Y-154526386D01*
X231761026Y-154385000D01*
X231770535Y-154378646D01*
X231770537Y-154378645D01*
X232016221Y-154276879D01*
X232277035Y-154225000D01*
X232542965Y-154225000D01*
X232803779Y-154276879D01*
G37*
G36*
X216928779Y-154276879D02*
G01*
X217174463Y-154378645D01*
X217174465Y-154378646D01*
X217183974Y-154385000D01*
X217395574Y-154526386D01*
X217583614Y-154714426D01*
X217731355Y-154935537D01*
X217833121Y-155181221D01*
X217885000Y-155442035D01*
X217885000Y-155707965D01*
X217833121Y-155968779D01*
X217731355Y-156214463D01*
X217638018Y-156354153D01*
X217583613Y-156435575D01*
X217395575Y-156623613D01*
X217174465Y-156771354D01*
X217174464Y-156771355D01*
X217174463Y-156771355D01*
X216928779Y-156873121D01*
X216667965Y-156925000D01*
X216402035Y-156925000D01*
X216141221Y-156873121D01*
X215895537Y-156771355D01*
X215895536Y-156771355D01*
X215895535Y-156771354D01*
X215674425Y-156623613D01*
X215486387Y-156435575D01*
X215431983Y-156354153D01*
X215338645Y-156214463D01*
X215236879Y-155968779D01*
X215185000Y-155707965D01*
X215185000Y-155442035D01*
X215236879Y-155181221D01*
X215338645Y-154935537D01*
X215486386Y-154714426D01*
X215674426Y-154526386D01*
X215886026Y-154385000D01*
X215895535Y-154378646D01*
X215895537Y-154378645D01*
X216141221Y-154276879D01*
X216402035Y-154225000D01*
X216667965Y-154225000D01*
X216928779Y-154276879D01*
G37*
G36*
X228680000Y-156925000D02*
G01*
X225980000Y-156925000D01*
X225980000Y-154225000D01*
X228680000Y-154225000D01*
X228680000Y-156925000D01*
G37*
G36*
X212805000Y-156925000D02*
G01*
X210105000Y-156925000D01*
X210105000Y-154225000D01*
X212805000Y-154225000D01*
X212805000Y-156925000D01*
G37*
G36*
X198930013Y-153554727D02*
G01*
X198979601Y-153564590D01*
X199119732Y-153622635D01*
X199245847Y-153706902D01*
X199353098Y-153814153D01*
X199407502Y-153895575D01*
X199437366Y-153940270D01*
X199495410Y-154080400D01*
X199525000Y-154229160D01*
X199525000Y-154380840D01*
X199505273Y-154480013D01*
X199495410Y-154529601D01*
X199437365Y-154669732D01*
X199353098Y-154795847D01*
X199245847Y-154903098D01*
X199119732Y-154987365D01*
X198979601Y-155045410D01*
X198930013Y-155055273D01*
X198830840Y-155075000D01*
X198679160Y-155075000D01*
X198579987Y-155055273D01*
X198530399Y-155045410D01*
X198390268Y-154987365D01*
X198264153Y-154903098D01*
X198156902Y-154795847D01*
X198072635Y-154669732D01*
X198014590Y-154529601D01*
X198004727Y-154480013D01*
X197985000Y-154380840D01*
X197985000Y-154229160D01*
X198014590Y-154080400D01*
X198072634Y-153940270D01*
X198102498Y-153895575D01*
X198156902Y-153814153D01*
X198264153Y-153706902D01*
X198390268Y-153622635D01*
X198530399Y-153564590D01*
X198579987Y-153554727D01*
X198679160Y-153535000D01*
X198830840Y-153535000D01*
X198930013Y-153554727D01*
G37*
G36*
X264875000Y-154385000D02*
G01*
X262175000Y-154385000D01*
X262175000Y-151685000D01*
X264875000Y-151685000D01*
X264875000Y-154385000D01*
G37*
G36*
X268998779Y-151736879D02*
G01*
X269244463Y-151838645D01*
X269244465Y-151838646D01*
X269355769Y-151913017D01*
X269465574Y-151986386D01*
X269653614Y-152174426D01*
X269801355Y-152395537D01*
X269903121Y-152641221D01*
X269955000Y-152902035D01*
X269955000Y-153167965D01*
X269903121Y-153428779D01*
X269801355Y-153674463D01*
X269682505Y-153852336D01*
X269653613Y-153895575D01*
X269465575Y-154083613D01*
X269244465Y-154231354D01*
X269244464Y-154231355D01*
X269244463Y-154231355D01*
X268998779Y-154333121D01*
X268737965Y-154385000D01*
X268472035Y-154385000D01*
X268211221Y-154333121D01*
X267965537Y-154231355D01*
X267965536Y-154231355D01*
X267965535Y-154231354D01*
X267744425Y-154083613D01*
X267556387Y-153895575D01*
X267527496Y-153852336D01*
X267408645Y-153674463D01*
X267306879Y-153428779D01*
X267255000Y-153167965D01*
X267255000Y-152902035D01*
X267306879Y-152641221D01*
X267408645Y-152395537D01*
X267556386Y-152174426D01*
X267744426Y-151986386D01*
X267854231Y-151913017D01*
X267965535Y-151838646D01*
X267965537Y-151838645D01*
X268211221Y-151736879D01*
X268472035Y-151685000D01*
X268737965Y-151685000D01*
X268998779Y-151736879D01*
G37*
G36*
X254247935Y-152217664D02*
G01*
X254402624Y-152281739D01*
X254402626Y-152281740D01*
X254541844Y-152374762D01*
X254660238Y-152493156D01*
X254688197Y-152535000D01*
X254753261Y-152632376D01*
X254817336Y-152787065D01*
X254850000Y-152951281D01*
X254850000Y-153118719D01*
X254817336Y-153282935D01*
X254756925Y-153428779D01*
X254753260Y-153437626D01*
X254660238Y-153576844D01*
X254541844Y-153695238D01*
X254402626Y-153788260D01*
X254402625Y-153788261D01*
X254402624Y-153788261D01*
X254247935Y-153852336D01*
X254083719Y-153885000D01*
X253916281Y-153885000D01*
X253752065Y-153852336D01*
X253597376Y-153788261D01*
X253597375Y-153788261D01*
X253597374Y-153788260D01*
X253458156Y-153695238D01*
X253339762Y-153576844D01*
X253246740Y-153437626D01*
X253243075Y-153428779D01*
X253182664Y-153282935D01*
X253150000Y-153118719D01*
X253150000Y-152951281D01*
X253182664Y-152787065D01*
X253246739Y-152632376D01*
X253311803Y-152535000D01*
X253339762Y-152493156D01*
X253458156Y-152374762D01*
X253597374Y-152281740D01*
X253597376Y-152281739D01*
X253752065Y-152217664D01*
X253916281Y-152185000D01*
X254083719Y-152185000D01*
X254247935Y-152217664D01*
G37*
G36*
X244087935Y-152217664D02*
G01*
X244242624Y-152281739D01*
X244242626Y-152281740D01*
X244381844Y-152374762D01*
X244500238Y-152493156D01*
X244528197Y-152535000D01*
X244593261Y-152632376D01*
X244657336Y-152787065D01*
X244690000Y-152951281D01*
X244690000Y-153118719D01*
X244657336Y-153282935D01*
X244596925Y-153428779D01*
X244593260Y-153437626D01*
X244500238Y-153576844D01*
X244381844Y-153695238D01*
X244242626Y-153788260D01*
X244242625Y-153788261D01*
X244242624Y-153788261D01*
X244087935Y-153852336D01*
X243923719Y-153885000D01*
X243756281Y-153885000D01*
X243592065Y-153852336D01*
X243437376Y-153788261D01*
X243437375Y-153788261D01*
X243437374Y-153788260D01*
X243298156Y-153695238D01*
X243179762Y-153576844D01*
X243086740Y-153437626D01*
X243083075Y-153428779D01*
X243022664Y-153282935D01*
X242990000Y-153118719D01*
X242990000Y-152951281D01*
X243022664Y-152787065D01*
X243086739Y-152632376D01*
X243151803Y-152535000D01*
X243179762Y-152493156D01*
X243298156Y-152374762D01*
X243437374Y-152281740D01*
X243437376Y-152281739D01*
X243592065Y-152217664D01*
X243756281Y-152185000D01*
X243923719Y-152185000D01*
X244087935Y-152217664D01*
G37*
G36*
X196390013Y-151014727D02*
G01*
X196439601Y-151024590D01*
X196579732Y-151082635D01*
X196705847Y-151166902D01*
X196813098Y-151274153D01*
X196897365Y-151400268D01*
X196897366Y-151400270D01*
X196955410Y-151540400D01*
X196984173Y-151685000D01*
X196985000Y-151689162D01*
X196985000Y-151840838D01*
X196955410Y-151989601D01*
X196897365Y-152129732D01*
X196813098Y-152255847D01*
X196705847Y-152363098D01*
X196579732Y-152447365D01*
X196439601Y-152505410D01*
X196390013Y-152515273D01*
X196290840Y-152535000D01*
X196139160Y-152535000D01*
X196039987Y-152515273D01*
X195990399Y-152505410D01*
X195850268Y-152447365D01*
X195724153Y-152363098D01*
X195616902Y-152255847D01*
X195532635Y-152129732D01*
X195474590Y-151989601D01*
X195445000Y-151840838D01*
X195445000Y-151689162D01*
X195445828Y-151685000D01*
X195474590Y-151540400D01*
X195532634Y-151400270D01*
X195532635Y-151400268D01*
X195616902Y-151274153D01*
X195724153Y-151166902D01*
X195850268Y-151082635D01*
X195990399Y-151024590D01*
X196039987Y-151014727D01*
X196139160Y-150995000D01*
X196290840Y-150995000D01*
X196390013Y-151014727D01*
G37*
G36*
X196390013Y-145934727D02*
G01*
X196439601Y-145944590D01*
X196579732Y-146002635D01*
X196705847Y-146086902D01*
X196813098Y-146194153D01*
X196897365Y-146320268D01*
X196955410Y-146460399D01*
X196985000Y-146609162D01*
X196985000Y-146760838D01*
X196955410Y-146909601D01*
X196897365Y-147049732D01*
X196813098Y-147175847D01*
X196705847Y-147283098D01*
X196579732Y-147367365D01*
X196439601Y-147425410D01*
X196390013Y-147435273D01*
X196290840Y-147455000D01*
X196139160Y-147455000D01*
X196039987Y-147435273D01*
X195990399Y-147425410D01*
X195850268Y-147367365D01*
X195724153Y-147283098D01*
X195616902Y-147175847D01*
X195532635Y-147049732D01*
X195474590Y-146909601D01*
X195445000Y-146760838D01*
X195445000Y-146609162D01*
X195474590Y-146460399D01*
X195532635Y-146320268D01*
X195616902Y-146194153D01*
X195724153Y-146086902D01*
X195850268Y-146002635D01*
X195990399Y-145944590D01*
X196039987Y-145934727D01*
X196139160Y-145915000D01*
X196290840Y-145915000D01*
X196390013Y-145934727D01*
G37*
G36*
X198930013Y-143394727D02*
G01*
X198979601Y-143404590D01*
X199119732Y-143462635D01*
X199245847Y-143546902D01*
X199353098Y-143654153D01*
X199437365Y-143780268D01*
X199495410Y-143920399D01*
X199525000Y-144069162D01*
X199525000Y-144220838D01*
X199495410Y-144369601D01*
X199437365Y-144509732D01*
X199353098Y-144635847D01*
X199245847Y-144743098D01*
X199119732Y-144827365D01*
X198979601Y-144885410D01*
X198930013Y-144895273D01*
X198830840Y-144915000D01*
X198679160Y-144915000D01*
X198579987Y-144895273D01*
X198530399Y-144885410D01*
X198390268Y-144827365D01*
X198264153Y-144743098D01*
X198156902Y-144635847D01*
X198072635Y-144509732D01*
X198014590Y-144369601D01*
X197985000Y-144220838D01*
X197985000Y-144069162D01*
X198014590Y-143920399D01*
X198072635Y-143780268D01*
X198156902Y-143654153D01*
X198264153Y-143546902D01*
X198390268Y-143462635D01*
X198530399Y-143404590D01*
X198579987Y-143394727D01*
X198679160Y-143375000D01*
X198830840Y-143375000D01*
X198930013Y-143394727D01*
G37*
G36*
X252026627Y-141402299D02*
G01*
X252106742Y-141426601D01*
X252186855Y-141450903D01*
X252186857Y-141450904D01*
X252334518Y-141529831D01*
X252463949Y-141636051D01*
X252570169Y-141765482D01*
X252649096Y-141913143D01*
X252649097Y-141913145D01*
X252666262Y-141969732D01*
X252697701Y-142073373D01*
X252714112Y-142240000D01*
X252697701Y-142406627D01*
X252649096Y-142566857D01*
X252570169Y-142714518D01*
X252463949Y-142843949D01*
X252334518Y-142950169D01*
X252186857Y-143029096D01*
X252186855Y-143029097D01*
X252106742Y-143053399D01*
X252026627Y-143077701D01*
X251901752Y-143090000D01*
X251018248Y-143090000D01*
X250893373Y-143077701D01*
X250813258Y-143053399D01*
X250733145Y-143029097D01*
X250733143Y-143029096D01*
X250585482Y-142950169D01*
X250456051Y-142843949D01*
X250349831Y-142714518D01*
X250270904Y-142566857D01*
X250222299Y-142406627D01*
X250205888Y-142240000D01*
X250222299Y-142073373D01*
X250253738Y-141969732D01*
X250270903Y-141913145D01*
X250270904Y-141913143D01*
X250349831Y-141765482D01*
X250456051Y-141636051D01*
X250585482Y-141529831D01*
X250733143Y-141450904D01*
X250733145Y-141450903D01*
X250813258Y-141426602D01*
X250893373Y-141402299D01*
X251018248Y-141390000D01*
X251901752Y-141390000D01*
X252026627Y-141402299D01*
G37*
G36*
X244406627Y-141402299D02*
G01*
X244486742Y-141426601D01*
X244566855Y-141450903D01*
X244566857Y-141450904D01*
X244714518Y-141529831D01*
X244843949Y-141636051D01*
X244950169Y-141765482D01*
X245029096Y-141913143D01*
X245029097Y-141913145D01*
X245046262Y-141969732D01*
X245077701Y-142073373D01*
X245094112Y-142240000D01*
X245077701Y-142406627D01*
X245029096Y-142566857D01*
X244950169Y-142714518D01*
X244843949Y-142843949D01*
X244714518Y-142950169D01*
X244566857Y-143029096D01*
X244566855Y-143029097D01*
X244486742Y-143053399D01*
X244406627Y-143077701D01*
X244281752Y-143090000D01*
X243398248Y-143090000D01*
X243273373Y-143077701D01*
X243193258Y-143053399D01*
X243113145Y-143029097D01*
X243113143Y-143029096D01*
X242965482Y-142950169D01*
X242836051Y-142843949D01*
X242729831Y-142714518D01*
X242650904Y-142566857D01*
X242602299Y-142406627D01*
X242585888Y-142240000D01*
X242602299Y-142073373D01*
X242633738Y-141969732D01*
X242650903Y-141913145D01*
X242650904Y-141913143D01*
X242729831Y-141765482D01*
X242836051Y-141636051D01*
X242965482Y-141529831D01*
X243113143Y-141450904D01*
X243113145Y-141450903D01*
X243193258Y-141426602D01*
X243273373Y-141402299D01*
X243398248Y-141390000D01*
X244281752Y-141390000D01*
X244406627Y-141402299D01*
G37*
G36*
X196390013Y-140854727D02*
G01*
X196439601Y-140864590D01*
X196579732Y-140922635D01*
X196705847Y-141006902D01*
X196813098Y-141114153D01*
X196882443Y-141217936D01*
X196897366Y-141240270D01*
X196955410Y-141380400D01*
X196981556Y-141511844D01*
X196985000Y-141529162D01*
X196985000Y-141680838D01*
X196955410Y-141829601D01*
X196897365Y-141969732D01*
X196813098Y-142095847D01*
X196705847Y-142203098D01*
X196579732Y-142287365D01*
X196439601Y-142345410D01*
X196390013Y-142355273D01*
X196290840Y-142375000D01*
X196139160Y-142375000D01*
X196039987Y-142355273D01*
X195990399Y-142345410D01*
X195850268Y-142287365D01*
X195724153Y-142203098D01*
X195616902Y-142095847D01*
X195532635Y-141969732D01*
X195474590Y-141829601D01*
X195445000Y-141680838D01*
X195445000Y-141529162D01*
X195448445Y-141511844D01*
X195474590Y-141380400D01*
X195532634Y-141240270D01*
X195547557Y-141217936D01*
X195616902Y-141114153D01*
X195724153Y-141006902D01*
X195850268Y-140922635D01*
X195990399Y-140864590D01*
X196039987Y-140854727D01*
X196139160Y-140835000D01*
X196290840Y-140835000D01*
X196390013Y-140854727D01*
G37*
G36*
X235832935Y-140152664D02*
G01*
X235987624Y-140216739D01*
X235987626Y-140216740D01*
X236126844Y-140309762D01*
X236245238Y-140428156D01*
X236333066Y-140559601D01*
X236338261Y-140567376D01*
X236402336Y-140722065D01*
X236435000Y-140886281D01*
X236435000Y-141053719D01*
X236402336Y-141217935D01*
X236393085Y-141240268D01*
X236338260Y-141372626D01*
X236245238Y-141511844D01*
X236126844Y-141630238D01*
X235987626Y-141723260D01*
X235987625Y-141723261D01*
X235987624Y-141723261D01*
X235832935Y-141787336D01*
X235668719Y-141820000D01*
X235501281Y-141820000D01*
X235337065Y-141787336D01*
X235182376Y-141723261D01*
X235182375Y-141723261D01*
X235182374Y-141723260D01*
X235043156Y-141630238D01*
X234924762Y-141511844D01*
X234831740Y-141372626D01*
X234776915Y-141240268D01*
X234767664Y-141217935D01*
X234735000Y-141053719D01*
X234735000Y-140886281D01*
X234767664Y-140722065D01*
X234831739Y-140567376D01*
X234836934Y-140559601D01*
X234924762Y-140428156D01*
X235043156Y-140309762D01*
X235182374Y-140216740D01*
X235182376Y-140216739D01*
X235337065Y-140152664D01*
X235501281Y-140120000D01*
X235668719Y-140120000D01*
X235832935Y-140152664D01*
G37*
G36*
X215512935Y-140152664D02*
G01*
X215667624Y-140216739D01*
X215667626Y-140216740D01*
X215806844Y-140309762D01*
X215925238Y-140428156D01*
X216013066Y-140559601D01*
X216018261Y-140567376D01*
X216082336Y-140722065D01*
X216115000Y-140886281D01*
X216115000Y-141053719D01*
X216082336Y-141217935D01*
X216073085Y-141240268D01*
X216018260Y-141372626D01*
X215925238Y-141511844D01*
X215806844Y-141630238D01*
X215667626Y-141723260D01*
X215667625Y-141723261D01*
X215667624Y-141723261D01*
X215512935Y-141787336D01*
X215348719Y-141820000D01*
X215181281Y-141820000D01*
X215017065Y-141787336D01*
X214862376Y-141723261D01*
X214862375Y-141723261D01*
X214862374Y-141723260D01*
X214723156Y-141630238D01*
X214604762Y-141511844D01*
X214511740Y-141372626D01*
X214456915Y-141240268D01*
X214447664Y-141217935D01*
X214415000Y-141053719D01*
X214415000Y-140886281D01*
X214447664Y-140722065D01*
X214511739Y-140567376D01*
X214516934Y-140559601D01*
X214604762Y-140428156D01*
X214723156Y-140309762D01*
X214862374Y-140216740D01*
X214862376Y-140216739D01*
X215017065Y-140152664D01*
X215181281Y-140120000D01*
X215348719Y-140120000D01*
X215512935Y-140152664D01*
G37*
G36*
X230752935Y-140152664D02*
G01*
X230907624Y-140216739D01*
X230907626Y-140216740D01*
X231046844Y-140309762D01*
X231165238Y-140428156D01*
X231253066Y-140559601D01*
X231258261Y-140567376D01*
X231322336Y-140722065D01*
X231355000Y-140886281D01*
X231355000Y-141053719D01*
X231322336Y-141217935D01*
X231313085Y-141240268D01*
X231258260Y-141372626D01*
X231165238Y-141511844D01*
X231046844Y-141630238D01*
X230907626Y-141723260D01*
X230907625Y-141723261D01*
X230907624Y-141723261D01*
X230752935Y-141787336D01*
X230588719Y-141820000D01*
X230421281Y-141820000D01*
X230257065Y-141787336D01*
X230102376Y-141723261D01*
X230102375Y-141723261D01*
X230102374Y-141723260D01*
X229963156Y-141630238D01*
X229844762Y-141511844D01*
X229751740Y-141372626D01*
X229696915Y-141240268D01*
X229687664Y-141217935D01*
X229655000Y-141053719D01*
X229655000Y-140886281D01*
X229687664Y-140722065D01*
X229751739Y-140567376D01*
X229756934Y-140559601D01*
X229844762Y-140428156D01*
X229963156Y-140309762D01*
X230102374Y-140216740D01*
X230102376Y-140216739D01*
X230257065Y-140152664D01*
X230421281Y-140120000D01*
X230588719Y-140120000D01*
X230752935Y-140152664D01*
G37*
G36*
X225672935Y-140152664D02*
G01*
X225827624Y-140216739D01*
X225827626Y-140216740D01*
X225966844Y-140309762D01*
X226085238Y-140428156D01*
X226173066Y-140559601D01*
X226178261Y-140567376D01*
X226242336Y-140722065D01*
X226275000Y-140886281D01*
X226275000Y-141053719D01*
X226242336Y-141217935D01*
X226233085Y-141240268D01*
X226178260Y-141372626D01*
X226085238Y-141511844D01*
X225966844Y-141630238D01*
X225827626Y-141723260D01*
X225827625Y-141723261D01*
X225827624Y-141723261D01*
X225672935Y-141787336D01*
X225508719Y-141820000D01*
X225341281Y-141820000D01*
X225177065Y-141787336D01*
X225022376Y-141723261D01*
X225022375Y-141723261D01*
X225022374Y-141723260D01*
X224883156Y-141630238D01*
X224764762Y-141511844D01*
X224671740Y-141372626D01*
X224616915Y-141240268D01*
X224607664Y-141217935D01*
X224575000Y-141053719D01*
X224575000Y-140886281D01*
X224607664Y-140722065D01*
X224671739Y-140567376D01*
X224676934Y-140559601D01*
X224764762Y-140428156D01*
X224883156Y-140309762D01*
X225022374Y-140216740D01*
X225022376Y-140216739D01*
X225177065Y-140152664D01*
X225341281Y-140120000D01*
X225508719Y-140120000D01*
X225672935Y-140152664D01*
G37*
G36*
X220592935Y-140152664D02*
G01*
X220747624Y-140216739D01*
X220747626Y-140216740D01*
X220886844Y-140309762D01*
X221005238Y-140428156D01*
X221093066Y-140559601D01*
X221098261Y-140567376D01*
X221162336Y-140722065D01*
X221195000Y-140886281D01*
X221195000Y-141053719D01*
X221162336Y-141217935D01*
X221153085Y-141240268D01*
X221098260Y-141372626D01*
X221005238Y-141511844D01*
X220886844Y-141630238D01*
X220747626Y-141723260D01*
X220747625Y-141723261D01*
X220747624Y-141723261D01*
X220592935Y-141787336D01*
X220428719Y-141820000D01*
X220261281Y-141820000D01*
X220097065Y-141787336D01*
X219942376Y-141723261D01*
X219942375Y-141723261D01*
X219942374Y-141723260D01*
X219803156Y-141630238D01*
X219684762Y-141511844D01*
X219591740Y-141372626D01*
X219536915Y-141240268D01*
X219527664Y-141217935D01*
X219495000Y-141053719D01*
X219495000Y-140886281D01*
X219527664Y-140722065D01*
X219591739Y-140567376D01*
X219596934Y-140559601D01*
X219684762Y-140428156D01*
X219803156Y-140309762D01*
X219942374Y-140216740D01*
X219942376Y-140216739D01*
X220097065Y-140152664D01*
X220261281Y-140120000D01*
X220428719Y-140120000D01*
X220592935Y-140152664D01*
G37*
G36*
X263065013Y-139584727D02*
G01*
X263114601Y-139594590D01*
X263254732Y-139652635D01*
X263380847Y-139736902D01*
X263488098Y-139844153D01*
X263572365Y-139970268D01*
X263572366Y-139970270D01*
X263630410Y-140110400D01*
X263660000Y-140259160D01*
X263660000Y-140410840D01*
X263656555Y-140428157D01*
X263630410Y-140559601D01*
X263572365Y-140699732D01*
X263488098Y-140825847D01*
X263380847Y-140933098D01*
X263254732Y-141017365D01*
X263114601Y-141075410D01*
X263065013Y-141085273D01*
X262965840Y-141105000D01*
X262814160Y-141105000D01*
X262714987Y-141085273D01*
X262665399Y-141075410D01*
X262525268Y-141017365D01*
X262399153Y-140933098D01*
X262291902Y-140825847D01*
X262207635Y-140699732D01*
X262149590Y-140559601D01*
X262123445Y-140428157D01*
X262120000Y-140410840D01*
X262120000Y-140259160D01*
X262149590Y-140110400D01*
X262207634Y-139970270D01*
X262207635Y-139970268D01*
X262291902Y-139844153D01*
X262399153Y-139736902D01*
X262525268Y-139652635D01*
X262665399Y-139594590D01*
X262714987Y-139584727D01*
X262814160Y-139565000D01*
X262965840Y-139565000D01*
X263065013Y-139584727D01*
G37*
G36*
X244406627Y-138862299D02*
G01*
X244486742Y-138886601D01*
X244566855Y-138910903D01*
X244566857Y-138910904D01*
X244714518Y-138989831D01*
X244843949Y-139096051D01*
X244950169Y-139225482D01*
X245029096Y-139373143D01*
X245077701Y-139533373D01*
X245094112Y-139700000D01*
X245077701Y-139866627D01*
X245077700Y-139866629D01*
X245046262Y-139970270D01*
X245029096Y-140026857D01*
X244950169Y-140174518D01*
X244843949Y-140303949D01*
X244714518Y-140410169D01*
X244566857Y-140489096D01*
X244566855Y-140489097D01*
X244486742Y-140513399D01*
X244406627Y-140537701D01*
X244281752Y-140550000D01*
X243398248Y-140550000D01*
X243273373Y-140537701D01*
X243193258Y-140513399D01*
X243113145Y-140489097D01*
X243113143Y-140489096D01*
X242965482Y-140410169D01*
X242836051Y-140303949D01*
X242729831Y-140174518D01*
X242650904Y-140026857D01*
X242633739Y-139970270D01*
X242602300Y-139866629D01*
X242602299Y-139866627D01*
X242585888Y-139700000D01*
X242602299Y-139533373D01*
X242650904Y-139373143D01*
X242729831Y-139225482D01*
X242836051Y-139096051D01*
X242965482Y-138989831D01*
X243113143Y-138910904D01*
X243113145Y-138910903D01*
X243193258Y-138886602D01*
X243273373Y-138862299D01*
X243398248Y-138850000D01*
X244281752Y-138850000D01*
X244406627Y-138862299D01*
G37*
G36*
X252026627Y-138862299D02*
G01*
X252106742Y-138886601D01*
X252186855Y-138910903D01*
X252186857Y-138910904D01*
X252334518Y-138989831D01*
X252463949Y-139096051D01*
X252570169Y-139225482D01*
X252649096Y-139373143D01*
X252697701Y-139533373D01*
X252714112Y-139700000D01*
X252697701Y-139866627D01*
X252697700Y-139866629D01*
X252666262Y-139970270D01*
X252649096Y-140026857D01*
X252570169Y-140174518D01*
X252463949Y-140303949D01*
X252334518Y-140410169D01*
X252186857Y-140489096D01*
X252186855Y-140489097D01*
X252106742Y-140513399D01*
X252026627Y-140537701D01*
X251901752Y-140550000D01*
X251018248Y-140550000D01*
X250893373Y-140537701D01*
X250813258Y-140513399D01*
X250733145Y-140489097D01*
X250733143Y-140489096D01*
X250585482Y-140410169D01*
X250456051Y-140303949D01*
X250349831Y-140174518D01*
X250270904Y-140026857D01*
X250253739Y-139970270D01*
X250222300Y-139866629D01*
X250222299Y-139866627D01*
X250205888Y-139700000D01*
X250222299Y-139533373D01*
X250270904Y-139373143D01*
X250349831Y-139225482D01*
X250456051Y-139096051D01*
X250585482Y-138989831D01*
X250733143Y-138910904D01*
X250733145Y-138910903D01*
X250813258Y-138886602D01*
X250893373Y-138862299D01*
X251018248Y-138850000D01*
X251901752Y-138850000D01*
X252026627Y-138862299D01*
G37*
G36*
X260525013Y-137044727D02*
G01*
X260574601Y-137054590D01*
X260714732Y-137112635D01*
X260840847Y-137196902D01*
X260948098Y-137304153D01*
X261032365Y-137430268D01*
X261090410Y-137570399D01*
X261120000Y-137719162D01*
X261120000Y-137870838D01*
X261090410Y-138019601D01*
X261032365Y-138159732D01*
X260948098Y-138285847D01*
X260840847Y-138393098D01*
X260714732Y-138477365D01*
X260574601Y-138535410D01*
X260525013Y-138545273D01*
X260425840Y-138565000D01*
X260274160Y-138565000D01*
X260174987Y-138545273D01*
X260125399Y-138535410D01*
X259985268Y-138477365D01*
X259859153Y-138393098D01*
X259751902Y-138285847D01*
X259667635Y-138159732D01*
X259609590Y-138019601D01*
X259580000Y-137870838D01*
X259580000Y-137719162D01*
X259609590Y-137570399D01*
X259667635Y-137430268D01*
X259751902Y-137304153D01*
X259859153Y-137196902D01*
X259985268Y-137112635D01*
X260125399Y-137054590D01*
X260174987Y-137044727D01*
X260274160Y-137025000D01*
X260425840Y-137025000D01*
X260525013Y-137044727D01*
G37*
G36*
X252026627Y-136322299D02*
G01*
X252106742Y-136346601D01*
X252186855Y-136370903D01*
X252186857Y-136370904D01*
X252334518Y-136449831D01*
X252463949Y-136556051D01*
X252570169Y-136685482D01*
X252649096Y-136833143D01*
X252649097Y-136833145D01*
X252666262Y-136889732D01*
X252697701Y-136993373D01*
X252714112Y-137160000D01*
X252697701Y-137326627D01*
X252697700Y-137326629D01*
X252666262Y-137430270D01*
X252649096Y-137486857D01*
X252570169Y-137634518D01*
X252463949Y-137763949D01*
X252334518Y-137870169D01*
X252186857Y-137949096D01*
X252186855Y-137949097D01*
X252106742Y-137973399D01*
X252026627Y-137997701D01*
X251901752Y-138010000D01*
X251018248Y-138010000D01*
X250893373Y-137997701D01*
X250813258Y-137973398D01*
X250733145Y-137949097D01*
X250733143Y-137949096D01*
X250585482Y-137870169D01*
X250456051Y-137763949D01*
X250349831Y-137634518D01*
X250270904Y-137486857D01*
X250253739Y-137430270D01*
X250222300Y-137326629D01*
X250222299Y-137326627D01*
X250205888Y-137160000D01*
X250222299Y-136993373D01*
X250253738Y-136889732D01*
X250270903Y-136833145D01*
X250270904Y-136833143D01*
X250349831Y-136685482D01*
X250456051Y-136556051D01*
X250585482Y-136449831D01*
X250733143Y-136370904D01*
X250733145Y-136370903D01*
X250813258Y-136346601D01*
X250893373Y-136322299D01*
X251018248Y-136310000D01*
X251901752Y-136310000D01*
X252026627Y-136322299D01*
G37*
G36*
X244406627Y-136322299D02*
G01*
X244486742Y-136346601D01*
X244566855Y-136370903D01*
X244566857Y-136370904D01*
X244714518Y-136449831D01*
X244843949Y-136556051D01*
X244950169Y-136685482D01*
X245029096Y-136833143D01*
X245029097Y-136833145D01*
X245046262Y-136889732D01*
X245077701Y-136993373D01*
X245094112Y-137160000D01*
X245077701Y-137326627D01*
X245077700Y-137326629D01*
X245046262Y-137430270D01*
X245029096Y-137486857D01*
X244950169Y-137634518D01*
X244843949Y-137763949D01*
X244714518Y-137870169D01*
X244566857Y-137949096D01*
X244566855Y-137949097D01*
X244486742Y-137973399D01*
X244406627Y-137997701D01*
X244281752Y-138010000D01*
X243398248Y-138010000D01*
X243273373Y-137997701D01*
X243193258Y-137973398D01*
X243113145Y-137949097D01*
X243113143Y-137949096D01*
X242965482Y-137870169D01*
X242836051Y-137763949D01*
X242729831Y-137634518D01*
X242650904Y-137486857D01*
X242633739Y-137430270D01*
X242602300Y-137326629D01*
X242602299Y-137326627D01*
X242585888Y-137160000D01*
X242602299Y-136993373D01*
X242633738Y-136889732D01*
X242650903Y-136833145D01*
X242650904Y-136833143D01*
X242729831Y-136685482D01*
X242836051Y-136556051D01*
X242965482Y-136449831D01*
X243113143Y-136370904D01*
X243113145Y-136370903D01*
X243193258Y-136346601D01*
X243273373Y-136322299D01*
X243398248Y-136310000D01*
X244281752Y-136310000D01*
X244406627Y-136322299D01*
G37*
G36*
X196390013Y-135774727D02*
G01*
X196439601Y-135784590D01*
X196579732Y-135842635D01*
X196705847Y-135926902D01*
X196813098Y-136034153D01*
X196897365Y-136160268D01*
X196955410Y-136300399D01*
X196985000Y-136449162D01*
X196985000Y-136600838D01*
X196955410Y-136749601D01*
X196897365Y-136889732D01*
X196813098Y-137015847D01*
X196705847Y-137123098D01*
X196579732Y-137207365D01*
X196439601Y-137265410D01*
X196390013Y-137275273D01*
X196290840Y-137295000D01*
X196139160Y-137295000D01*
X196039987Y-137275273D01*
X195990399Y-137265410D01*
X195850268Y-137207365D01*
X195724153Y-137123098D01*
X195616902Y-137015847D01*
X195532635Y-136889732D01*
X195474590Y-136749601D01*
X195445000Y-136600838D01*
X195445000Y-136449162D01*
X195474590Y-136300399D01*
X195532635Y-136160268D01*
X195616902Y-136034153D01*
X195724153Y-135926902D01*
X195850268Y-135842635D01*
X195990399Y-135784590D01*
X196039987Y-135774727D01*
X196139160Y-135755000D01*
X196290840Y-135755000D01*
X196390013Y-135774727D01*
G37*
G36*
X263065013Y-134504727D02*
G01*
X263114601Y-134514590D01*
X263254732Y-134572635D01*
X263380847Y-134656902D01*
X263488098Y-134764153D01*
X263572365Y-134890268D01*
X263630410Y-135030399D01*
X263660000Y-135179162D01*
X263660000Y-135330838D01*
X263630410Y-135479601D01*
X263572365Y-135619732D01*
X263488098Y-135745847D01*
X263380847Y-135853098D01*
X263254732Y-135937365D01*
X263114601Y-135995410D01*
X263065013Y-136005273D01*
X262965840Y-136025000D01*
X262814160Y-136025000D01*
X262714987Y-136005273D01*
X262665399Y-135995410D01*
X262525268Y-135937365D01*
X262399153Y-135853098D01*
X262291902Y-135745847D01*
X262207635Y-135619732D01*
X262149590Y-135479601D01*
X262120000Y-135330838D01*
X262120000Y-135179162D01*
X262149590Y-135030399D01*
X262207635Y-134890268D01*
X262291902Y-134764153D01*
X262399153Y-134656902D01*
X262525268Y-134572635D01*
X262665399Y-134514590D01*
X262714987Y-134504727D01*
X262814160Y-134485000D01*
X262965840Y-134485000D01*
X263065013Y-134504727D01*
G37*
G36*
X245090000Y-135470000D02*
G01*
X242590000Y-135470000D01*
X242590000Y-133770000D01*
X245090000Y-133770000D01*
X245090000Y-135470000D01*
G37*
G36*
X252026627Y-133782299D02*
G01*
X252106742Y-133806602D01*
X252186855Y-133830903D01*
X252186857Y-133830904D01*
X252334518Y-133909831D01*
X252463949Y-134016051D01*
X252570169Y-134145482D01*
X252649096Y-134293143D01*
X252649097Y-134293145D01*
X252666262Y-134349732D01*
X252697701Y-134453373D01*
X252714112Y-134620000D01*
X252697701Y-134786627D01*
X252697700Y-134786629D01*
X252666262Y-134890270D01*
X252649096Y-134946857D01*
X252570169Y-135094518D01*
X252463949Y-135223949D01*
X252334518Y-135330169D01*
X252186857Y-135409096D01*
X252186855Y-135409097D01*
X252106742Y-135433399D01*
X252026627Y-135457701D01*
X251901752Y-135470000D01*
X251018248Y-135470000D01*
X250893373Y-135457701D01*
X250813258Y-135433398D01*
X250733145Y-135409097D01*
X250733143Y-135409096D01*
X250585482Y-135330169D01*
X250456051Y-135223949D01*
X250349831Y-135094518D01*
X250270904Y-134946857D01*
X250253739Y-134890270D01*
X250222300Y-134786629D01*
X250222299Y-134786627D01*
X250205888Y-134620000D01*
X250222299Y-134453373D01*
X250253738Y-134349732D01*
X250270903Y-134293145D01*
X250270904Y-134293143D01*
X250349831Y-134145482D01*
X250456051Y-134016051D01*
X250585482Y-133909831D01*
X250733143Y-133830904D01*
X250733145Y-133830903D01*
X250813258Y-133806602D01*
X250893373Y-133782299D01*
X251018248Y-133770000D01*
X251901752Y-133770000D01*
X252026627Y-133782299D01*
G37*
G36*
X198930013Y-133234727D02*
G01*
X198979601Y-133244590D01*
X199119732Y-133302635D01*
X199245847Y-133386902D01*
X199353098Y-133494153D01*
X199437365Y-133620268D01*
X199495410Y-133760399D01*
X199525000Y-133909162D01*
X199525000Y-134060838D01*
X199495410Y-134209601D01*
X199437365Y-134349732D01*
X199353098Y-134475847D01*
X199245847Y-134583098D01*
X199119732Y-134667365D01*
X198979601Y-134725410D01*
X198930013Y-134735273D01*
X198830840Y-134755000D01*
X198679160Y-134755000D01*
X198579987Y-134735273D01*
X198530399Y-134725410D01*
X198390268Y-134667365D01*
X198264153Y-134583098D01*
X198156902Y-134475847D01*
X198072635Y-134349732D01*
X198014590Y-134209601D01*
X197985000Y-134060838D01*
X197985000Y-133909162D01*
X198014590Y-133760399D01*
X198072635Y-133620268D01*
X198156902Y-133494153D01*
X198264153Y-133386902D01*
X198390268Y-133302635D01*
X198530399Y-133244590D01*
X198579987Y-133234727D01*
X198679160Y-133215000D01*
X198830840Y-133215000D01*
X198930013Y-133234727D01*
G37*
G36*
X196390013Y-130694727D02*
G01*
X196439601Y-130704590D01*
X196579732Y-130762635D01*
X196705847Y-130846902D01*
X196813098Y-130954153D01*
X196882443Y-131057936D01*
X196897366Y-131080270D01*
X196955410Y-131220400D01*
X196981556Y-131351844D01*
X196985000Y-131369162D01*
X196985000Y-131520838D01*
X196955410Y-131669601D01*
X196897365Y-131809732D01*
X196813098Y-131935847D01*
X196705847Y-132043098D01*
X196579732Y-132127365D01*
X196439601Y-132185410D01*
X196390013Y-132195273D01*
X196290840Y-132215000D01*
X196139160Y-132215000D01*
X196039987Y-132195273D01*
X195990399Y-132185410D01*
X195850268Y-132127365D01*
X195724153Y-132043098D01*
X195616902Y-131935847D01*
X195532635Y-131809732D01*
X195474590Y-131669601D01*
X195445000Y-131520838D01*
X195445000Y-131369162D01*
X195448445Y-131351844D01*
X195474590Y-131220400D01*
X195532634Y-131080270D01*
X195547557Y-131057936D01*
X195616902Y-130954153D01*
X195724153Y-130846902D01*
X195850268Y-130762635D01*
X195990399Y-130704590D01*
X196039987Y-130694727D01*
X196139160Y-130675000D01*
X196290840Y-130675000D01*
X196390013Y-130694727D01*
G37*
G36*
X230752935Y-129992664D02*
G01*
X230907624Y-130056739D01*
X230907626Y-130056740D01*
X231046844Y-130149762D01*
X231165238Y-130268156D01*
X231258260Y-130407374D01*
X231258261Y-130407376D01*
X231322336Y-130562065D01*
X231355000Y-130726281D01*
X231355000Y-130893719D01*
X231322336Y-131057935D01*
X231313085Y-131080268D01*
X231258260Y-131212626D01*
X231165238Y-131351844D01*
X231046844Y-131470238D01*
X230907626Y-131563260D01*
X230907625Y-131563261D01*
X230907624Y-131563261D01*
X230752935Y-131627336D01*
X230588719Y-131660000D01*
X230421281Y-131660000D01*
X230257065Y-131627336D01*
X230102376Y-131563261D01*
X230102375Y-131563261D01*
X230102374Y-131563260D01*
X229963156Y-131470238D01*
X229844762Y-131351844D01*
X229751740Y-131212626D01*
X229696915Y-131080268D01*
X229687664Y-131057935D01*
X229655000Y-130893719D01*
X229655000Y-130726281D01*
X229687664Y-130562065D01*
X229751739Y-130407376D01*
X229751740Y-130407374D01*
X229844762Y-130268156D01*
X229963156Y-130149762D01*
X230102374Y-130056740D01*
X230102376Y-130056739D01*
X230257065Y-129992664D01*
X230421281Y-129960000D01*
X230588719Y-129960000D01*
X230752935Y-129992664D01*
G37*
G36*
X225672935Y-129992664D02*
G01*
X225827624Y-130056739D01*
X225827626Y-130056740D01*
X225966844Y-130149762D01*
X226085238Y-130268156D01*
X226178260Y-130407374D01*
X226178261Y-130407376D01*
X226242336Y-130562065D01*
X226275000Y-130726281D01*
X226275000Y-130893719D01*
X226242336Y-131057935D01*
X226233085Y-131080268D01*
X226178260Y-131212626D01*
X226085238Y-131351844D01*
X225966844Y-131470238D01*
X225827626Y-131563260D01*
X225827625Y-131563261D01*
X225827624Y-131563261D01*
X225672935Y-131627336D01*
X225508719Y-131660000D01*
X225341281Y-131660000D01*
X225177065Y-131627336D01*
X225022376Y-131563261D01*
X225022375Y-131563261D01*
X225022374Y-131563260D01*
X224883156Y-131470238D01*
X224764762Y-131351844D01*
X224671740Y-131212626D01*
X224616915Y-131080268D01*
X224607664Y-131057935D01*
X224575000Y-130893719D01*
X224575000Y-130726281D01*
X224607664Y-130562065D01*
X224671739Y-130407376D01*
X224671740Y-130407374D01*
X224764762Y-130268156D01*
X224883156Y-130149762D01*
X225022374Y-130056740D01*
X225022376Y-130056739D01*
X225177065Y-129992664D01*
X225341281Y-129960000D01*
X225508719Y-129960000D01*
X225672935Y-129992664D01*
G37*
G36*
X220592935Y-129992664D02*
G01*
X220747624Y-130056739D01*
X220747626Y-130056740D01*
X220886844Y-130149762D01*
X221005238Y-130268156D01*
X221098260Y-130407374D01*
X221098261Y-130407376D01*
X221162336Y-130562065D01*
X221195000Y-130726281D01*
X221195000Y-130893719D01*
X221162336Y-131057935D01*
X221153085Y-131080268D01*
X221098260Y-131212626D01*
X221005238Y-131351844D01*
X220886844Y-131470238D01*
X220747626Y-131563260D01*
X220747625Y-131563261D01*
X220747624Y-131563261D01*
X220592935Y-131627336D01*
X220428719Y-131660000D01*
X220261281Y-131660000D01*
X220097065Y-131627336D01*
X219942376Y-131563261D01*
X219942375Y-131563261D01*
X219942374Y-131563260D01*
X219803156Y-131470238D01*
X219684762Y-131351844D01*
X219591740Y-131212626D01*
X219536915Y-131080268D01*
X219527664Y-131057935D01*
X219495000Y-130893719D01*
X219495000Y-130726281D01*
X219527664Y-130562065D01*
X219591739Y-130407376D01*
X219591740Y-130407374D01*
X219684762Y-130268156D01*
X219803156Y-130149762D01*
X219942374Y-130056740D01*
X219942376Y-130056739D01*
X220097065Y-129992664D01*
X220261281Y-129960000D01*
X220428719Y-129960000D01*
X220592935Y-129992664D01*
G37*
G36*
X215512935Y-129992664D02*
G01*
X215667624Y-130056739D01*
X215667626Y-130056740D01*
X215806844Y-130149762D01*
X215925238Y-130268156D01*
X216018260Y-130407374D01*
X216018261Y-130407376D01*
X216082336Y-130562065D01*
X216115000Y-130726281D01*
X216115000Y-130893719D01*
X216082336Y-131057935D01*
X216073085Y-131080268D01*
X216018260Y-131212626D01*
X215925238Y-131351844D01*
X215806844Y-131470238D01*
X215667626Y-131563260D01*
X215667625Y-131563261D01*
X215667624Y-131563261D01*
X215512935Y-131627336D01*
X215348719Y-131660000D01*
X215181281Y-131660000D01*
X215017065Y-131627336D01*
X214862376Y-131563261D01*
X214862375Y-131563261D01*
X214862374Y-131563260D01*
X214723156Y-131470238D01*
X214604762Y-131351844D01*
X214511740Y-131212626D01*
X214456915Y-131080268D01*
X214447664Y-131057935D01*
X214415000Y-130893719D01*
X214415000Y-130726281D01*
X214447664Y-130562065D01*
X214511739Y-130407376D01*
X214511740Y-130407374D01*
X214604762Y-130268156D01*
X214723156Y-130149762D01*
X214862374Y-130056740D01*
X214862376Y-130056739D01*
X215017065Y-129992664D01*
X215181281Y-129960000D01*
X215348719Y-129960000D01*
X215512935Y-129992664D01*
G37*
G36*
X235832935Y-129992664D02*
G01*
X235987624Y-130056739D01*
X235987626Y-130056740D01*
X236126844Y-130149762D01*
X236245238Y-130268156D01*
X236338260Y-130407374D01*
X236338261Y-130407376D01*
X236402336Y-130562065D01*
X236435000Y-130726281D01*
X236435000Y-130893719D01*
X236402336Y-131057935D01*
X236393085Y-131080268D01*
X236338260Y-131212626D01*
X236245238Y-131351844D01*
X236126844Y-131470238D01*
X235987626Y-131563260D01*
X235987625Y-131563261D01*
X235987624Y-131563261D01*
X235832935Y-131627336D01*
X235668719Y-131660000D01*
X235501281Y-131660000D01*
X235337065Y-131627336D01*
X235182376Y-131563261D01*
X235182375Y-131563261D01*
X235182374Y-131563260D01*
X235043156Y-131470238D01*
X234924762Y-131351844D01*
X234831740Y-131212626D01*
X234776915Y-131080268D01*
X234767664Y-131057935D01*
X234735000Y-130893719D01*
X234735000Y-130726281D01*
X234767664Y-130562065D01*
X234831739Y-130407376D01*
X234831740Y-130407374D01*
X234924762Y-130268156D01*
X235043156Y-130149762D01*
X235182374Y-130056740D01*
X235182376Y-130056739D01*
X235337065Y-129992664D01*
X235501281Y-129960000D01*
X235668719Y-129960000D01*
X235832935Y-129992664D01*
G37*
G36*
X265692520Y-121054586D02*
G01*
X265856310Y-121122430D01*
X266003717Y-121220924D01*
X266129076Y-121346283D01*
X266227570Y-121493690D01*
X266295414Y-121657480D01*
X266330000Y-121831358D01*
X266330000Y-122008642D01*
X266295414Y-122182520D01*
X266227570Y-122346310D01*
X266129076Y-122493717D01*
X266003717Y-122619076D01*
X265856310Y-122717570D01*
X265856309Y-122717571D01*
X265856308Y-122717571D01*
X265692520Y-122785414D01*
X265518644Y-122820000D01*
X265341356Y-122820000D01*
X265167480Y-122785414D01*
X265003692Y-122717571D01*
X265003691Y-122717571D01*
X265003690Y-122717570D01*
X264856283Y-122619076D01*
X264730924Y-122493717D01*
X264632430Y-122346310D01*
X264564586Y-122182520D01*
X264530000Y-122008642D01*
X264530000Y-121831358D01*
X264564586Y-121657480D01*
X264632430Y-121493690D01*
X264730924Y-121346283D01*
X264856283Y-121220924D01*
X265003690Y-121122430D01*
X265167480Y-121054586D01*
X265341356Y-121020000D01*
X265518644Y-121020000D01*
X265692520Y-121054586D01*
G37*
G36*
X205367520Y-121054586D02*
G01*
X205531310Y-121122430D01*
X205678717Y-121220924D01*
X205804076Y-121346283D01*
X205902570Y-121493690D01*
X205970414Y-121657480D01*
X206005000Y-121831358D01*
X206005000Y-122008642D01*
X205970414Y-122182520D01*
X205902570Y-122346310D01*
X205804076Y-122493717D01*
X205678717Y-122619076D01*
X205531310Y-122717570D01*
X205531309Y-122717571D01*
X205531308Y-122717571D01*
X205367520Y-122785414D01*
X205193644Y-122820000D01*
X205016356Y-122820000D01*
X204842480Y-122785414D01*
X204678692Y-122717571D01*
X204678691Y-122717571D01*
X204678690Y-122717570D01*
X204531283Y-122619076D01*
X204405924Y-122493717D01*
X204307430Y-122346310D01*
X204239586Y-122182520D01*
X204205000Y-122008642D01*
X204205000Y-121831358D01*
X204239586Y-121657480D01*
X204307430Y-121493690D01*
X204405924Y-121346283D01*
X204531283Y-121220924D01*
X204678690Y-121122430D01*
X204842480Y-121054586D01*
X205016356Y-121020000D01*
X205193644Y-121020000D01*
X205367520Y-121054586D01*
G37*
G36*
X207907520Y-121054586D02*
G01*
X208071310Y-121122430D01*
X208218717Y-121220924D01*
X208344076Y-121346283D01*
X208442570Y-121493690D01*
X208510414Y-121657480D01*
X208545000Y-121831358D01*
X208545000Y-122008642D01*
X208510414Y-122182520D01*
X208442570Y-122346310D01*
X208344076Y-122493717D01*
X208218717Y-122619076D01*
X208071310Y-122717570D01*
X208071309Y-122717571D01*
X208071308Y-122717571D01*
X207907520Y-122785414D01*
X207733644Y-122820000D01*
X207556356Y-122820000D01*
X207382480Y-122785414D01*
X207218692Y-122717571D01*
X207218691Y-122717571D01*
X207218690Y-122717570D01*
X207071283Y-122619076D01*
X206945924Y-122493717D01*
X206847430Y-122346310D01*
X206779586Y-122182520D01*
X206745000Y-122008642D01*
X206745000Y-121831358D01*
X206779586Y-121657480D01*
X206847430Y-121493690D01*
X206945924Y-121346283D01*
X207071283Y-121220924D01*
X207218690Y-121122430D01*
X207382480Y-121054586D01*
X207556356Y-121020000D01*
X207733644Y-121020000D01*
X207907520Y-121054586D01*
G37*
G36*
X268232520Y-121054586D02*
G01*
X268396310Y-121122430D01*
X268543717Y-121220924D01*
X268669076Y-121346283D01*
X268767570Y-121493690D01*
X268835414Y-121657480D01*
X268870000Y-121831358D01*
X268870000Y-122008642D01*
X268835414Y-122182520D01*
X268767570Y-122346310D01*
X268669076Y-122493717D01*
X268543717Y-122619076D01*
X268396310Y-122717570D01*
X268396309Y-122717571D01*
X268396308Y-122717571D01*
X268232520Y-122785414D01*
X268058644Y-122820000D01*
X267881356Y-122820000D01*
X267707480Y-122785414D01*
X267543692Y-122717571D01*
X267543691Y-122717571D01*
X267543690Y-122717570D01*
X267396283Y-122619076D01*
X267270924Y-122493717D01*
X267172430Y-122346310D01*
X267104586Y-122182520D01*
X267070000Y-122008642D01*
X267070000Y-121831358D01*
X267104586Y-121657480D01*
X267172430Y-121493690D01*
X267270924Y-121346283D01*
X267396283Y-121220924D01*
X267543690Y-121122430D01*
X267707480Y-121054586D01*
X267881356Y-121020000D01*
X268058644Y-121020000D01*
X268232520Y-121054586D01*
G37*
G36*
X265692520Y-118514586D02*
G01*
X265856310Y-118582430D01*
X266003717Y-118680924D01*
X266129076Y-118806283D01*
X266227570Y-118953690D01*
X266295414Y-119117480D01*
X266330000Y-119291358D01*
X266330000Y-119468642D01*
X266295414Y-119642520D01*
X266227570Y-119806310D01*
X266129076Y-119953717D01*
X266003717Y-120079076D01*
X265856310Y-120177570D01*
X265856309Y-120177571D01*
X265856308Y-120177571D01*
X265692520Y-120245414D01*
X265518644Y-120280000D01*
X265341356Y-120280000D01*
X265167480Y-120245414D01*
X265003692Y-120177571D01*
X265003691Y-120177571D01*
X265003690Y-120177570D01*
X264856283Y-120079076D01*
X264730924Y-119953717D01*
X264632430Y-119806310D01*
X264564586Y-119642520D01*
X264530000Y-119468642D01*
X264530000Y-119291358D01*
X264564586Y-119117480D01*
X264632430Y-118953690D01*
X264730924Y-118806283D01*
X264856283Y-118680924D01*
X265003690Y-118582430D01*
X265167480Y-118514586D01*
X265341356Y-118480000D01*
X265518644Y-118480000D01*
X265692520Y-118514586D01*
G37*
G36*
X268232520Y-118514586D02*
G01*
X268396310Y-118582430D01*
X268543717Y-118680924D01*
X268669076Y-118806283D01*
X268767570Y-118953690D01*
X268835414Y-119117480D01*
X268870000Y-119291358D01*
X268870000Y-119468642D01*
X268835414Y-119642520D01*
X268767570Y-119806310D01*
X268669076Y-119953717D01*
X268543717Y-120079076D01*
X268396310Y-120177570D01*
X268396309Y-120177571D01*
X268396308Y-120177571D01*
X268232520Y-120245414D01*
X268058644Y-120280000D01*
X267881356Y-120280000D01*
X267707480Y-120245414D01*
X267543692Y-120177571D01*
X267543691Y-120177571D01*
X267543690Y-120177570D01*
X267396283Y-120079076D01*
X267270924Y-119953717D01*
X267172430Y-119806310D01*
X267104586Y-119642520D01*
X267070000Y-119468642D01*
X267070000Y-119291358D01*
X267104586Y-119117480D01*
X267172430Y-118953690D01*
X267270924Y-118806283D01*
X267396283Y-118680924D01*
X267543690Y-118582430D01*
X267707480Y-118514586D01*
X267881356Y-118480000D01*
X268058644Y-118480000D01*
X268232520Y-118514586D01*
G37*
G36*
X207907520Y-118514586D02*
G01*
X208071310Y-118582430D01*
X208218717Y-118680924D01*
X208344076Y-118806283D01*
X208442570Y-118953690D01*
X208510414Y-119117480D01*
X208545000Y-119291358D01*
X208545000Y-119468642D01*
X208510414Y-119642520D01*
X208442570Y-119806310D01*
X208344076Y-119953717D01*
X208218717Y-120079076D01*
X208071310Y-120177570D01*
X208071309Y-120177571D01*
X208071308Y-120177571D01*
X207907520Y-120245414D01*
X207733644Y-120280000D01*
X207556356Y-120280000D01*
X207382480Y-120245414D01*
X207218692Y-120177571D01*
X207218691Y-120177571D01*
X207218690Y-120177570D01*
X207071283Y-120079076D01*
X206945924Y-119953717D01*
X206847430Y-119806310D01*
X206779586Y-119642520D01*
X206745000Y-119468642D01*
X206745000Y-119291358D01*
X206779586Y-119117480D01*
X206847430Y-118953690D01*
X206945924Y-118806283D01*
X207071283Y-118680924D01*
X207218690Y-118582430D01*
X207382480Y-118514586D01*
X207556356Y-118480000D01*
X207733644Y-118480000D01*
X207907520Y-118514586D01*
G37*
G36*
X205367520Y-118514586D02*
G01*
X205531310Y-118582430D01*
X205678717Y-118680924D01*
X205804076Y-118806283D01*
X205902570Y-118953690D01*
X205970414Y-119117480D01*
X206005000Y-119291358D01*
X206005000Y-119468642D01*
X205970414Y-119642520D01*
X205902570Y-119806310D01*
X205804076Y-119953717D01*
X205678717Y-120079076D01*
X205531310Y-120177570D01*
X205531309Y-120177571D01*
X205531308Y-120177571D01*
X205367520Y-120245414D01*
X205193644Y-120280000D01*
X205016356Y-120280000D01*
X204842480Y-120245414D01*
X204678692Y-120177571D01*
X204678691Y-120177571D01*
X204678690Y-120177570D01*
X204531283Y-120079076D01*
X204405924Y-119953717D01*
X204307430Y-119806310D01*
X204239586Y-119642520D01*
X204205000Y-119468642D01*
X204205000Y-119291358D01*
X204239586Y-119117480D01*
X204307430Y-118953690D01*
X204405924Y-118806283D01*
X204531283Y-118680924D01*
X204678690Y-118582430D01*
X204842480Y-118514586D01*
X205016356Y-118480000D01*
X205193644Y-118480000D01*
X205367520Y-118514586D01*
G37*
G36*
X195842520Y-115974586D02*
G01*
X196006310Y-116042430D01*
X196153717Y-116140924D01*
X196279076Y-116266283D01*
X196377570Y-116413690D01*
X196445414Y-116577480D01*
X196480000Y-116751358D01*
X196480000Y-116928642D01*
X196445414Y-117102520D01*
X196377570Y-117266310D01*
X196279076Y-117413717D01*
X196153717Y-117539076D01*
X196006310Y-117637570D01*
X196006309Y-117637571D01*
X196006308Y-117637571D01*
X195842520Y-117705414D01*
X195668644Y-117740000D01*
X195491356Y-117740000D01*
X195317480Y-117705414D01*
X195153692Y-117637571D01*
X195153691Y-117637571D01*
X195153690Y-117637570D01*
X195006283Y-117539076D01*
X194880924Y-117413717D01*
X194782430Y-117266310D01*
X194714586Y-117102520D01*
X194680000Y-116928642D01*
X194680000Y-116751358D01*
X194714586Y-116577480D01*
X194782430Y-116413690D01*
X194880924Y-116266283D01*
X195006283Y-116140924D01*
X195153690Y-116042430D01*
X195317480Y-115974586D01*
X195491356Y-115940000D01*
X195668644Y-115940000D01*
X195842520Y-115974586D01*
G37*
G36*
X207907520Y-115974586D02*
G01*
X208071310Y-116042430D01*
X208218717Y-116140924D01*
X208344076Y-116266283D01*
X208442570Y-116413690D01*
X208510414Y-116577480D01*
X208545000Y-116751358D01*
X208545000Y-116928642D01*
X208510414Y-117102520D01*
X208442570Y-117266310D01*
X208344076Y-117413717D01*
X208218717Y-117539076D01*
X208071310Y-117637570D01*
X208071309Y-117637571D01*
X208071308Y-117637571D01*
X207907520Y-117705414D01*
X207733644Y-117740000D01*
X207556356Y-117740000D01*
X207382480Y-117705414D01*
X207218692Y-117637571D01*
X207218691Y-117637571D01*
X207218690Y-117637570D01*
X207071283Y-117539076D01*
X206945924Y-117413717D01*
X206847430Y-117266310D01*
X206779586Y-117102520D01*
X206745000Y-116928642D01*
X206745000Y-116751358D01*
X206779586Y-116577480D01*
X206847430Y-116413690D01*
X206945924Y-116266283D01*
X207071283Y-116140924D01*
X207218690Y-116042430D01*
X207382480Y-115974586D01*
X207556356Y-115940000D01*
X207733644Y-115940000D01*
X207907520Y-115974586D01*
G37*
G36*
X265692520Y-115974586D02*
G01*
X265856310Y-116042430D01*
X266003717Y-116140924D01*
X266129076Y-116266283D01*
X266227570Y-116413690D01*
X266295414Y-116577480D01*
X266330000Y-116751358D01*
X266330000Y-116928642D01*
X266295414Y-117102520D01*
X266227570Y-117266310D01*
X266129076Y-117413717D01*
X266003717Y-117539076D01*
X265856310Y-117637570D01*
X265856309Y-117637571D01*
X265856308Y-117637571D01*
X265692520Y-117705414D01*
X265518644Y-117740000D01*
X265341356Y-117740000D01*
X265167480Y-117705414D01*
X265003692Y-117637571D01*
X265003691Y-117637571D01*
X265003690Y-117637570D01*
X264856283Y-117539076D01*
X264730924Y-117413717D01*
X264632430Y-117266310D01*
X264564586Y-117102520D01*
X264530000Y-116928642D01*
X264530000Y-116751358D01*
X264564586Y-116577480D01*
X264632430Y-116413690D01*
X264730924Y-116266283D01*
X264856283Y-116140924D01*
X265003690Y-116042430D01*
X265167480Y-115974586D01*
X265341356Y-115940000D01*
X265518644Y-115940000D01*
X265692520Y-115974586D01*
G37*
G36*
X268232520Y-115974586D02*
G01*
X268396310Y-116042430D01*
X268543717Y-116140924D01*
X268669076Y-116266283D01*
X268767570Y-116413690D01*
X268835414Y-116577480D01*
X268870000Y-116751358D01*
X268870000Y-116928642D01*
X268835414Y-117102520D01*
X268767570Y-117266310D01*
X268669076Y-117413717D01*
X268543717Y-117539076D01*
X268396310Y-117637570D01*
X268396309Y-117637571D01*
X268396308Y-117637571D01*
X268232520Y-117705414D01*
X268058644Y-117740000D01*
X267881356Y-117740000D01*
X267707480Y-117705414D01*
X267543692Y-117637571D01*
X267543691Y-117637571D01*
X267543690Y-117637570D01*
X267396283Y-117539076D01*
X267270924Y-117413717D01*
X267172430Y-117266310D01*
X267104586Y-117102520D01*
X267070000Y-116928642D01*
X267070000Y-116751358D01*
X267104586Y-116577480D01*
X267172430Y-116413690D01*
X267270924Y-116266283D01*
X267396283Y-116140924D01*
X267543690Y-116042430D01*
X267707480Y-115974586D01*
X267881356Y-115940000D01*
X268058644Y-115940000D01*
X268232520Y-115974586D01*
G37*
G36*
X193302520Y-115974586D02*
G01*
X193466310Y-116042430D01*
X193613717Y-116140924D01*
X193739076Y-116266283D01*
X193837570Y-116413690D01*
X193905414Y-116577480D01*
X193940000Y-116751358D01*
X193940000Y-116928642D01*
X193905414Y-117102520D01*
X193837570Y-117266310D01*
X193739076Y-117413717D01*
X193613717Y-117539076D01*
X193466310Y-117637570D01*
X193466309Y-117637571D01*
X193466308Y-117637571D01*
X193302520Y-117705414D01*
X193128644Y-117740000D01*
X192951356Y-117740000D01*
X192777480Y-117705414D01*
X192613692Y-117637571D01*
X192613691Y-117637571D01*
X192613690Y-117637570D01*
X192466283Y-117539076D01*
X192340924Y-117413717D01*
X192242430Y-117266310D01*
X192174586Y-117102520D01*
X192140000Y-116928642D01*
X192140000Y-116751358D01*
X192174586Y-116577480D01*
X192242430Y-116413690D01*
X192340924Y-116266283D01*
X192466283Y-116140924D01*
X192613690Y-116042430D01*
X192777480Y-115974586D01*
X192951356Y-115940000D01*
X193128644Y-115940000D01*
X193302520Y-115974586D01*
G37*
G36*
X205367520Y-115974586D02*
G01*
X205531310Y-116042430D01*
X205678717Y-116140924D01*
X205804076Y-116266283D01*
X205902570Y-116413690D01*
X205970414Y-116577480D01*
X206005000Y-116751358D01*
X206005000Y-116928642D01*
X205970414Y-117102520D01*
X205902570Y-117266310D01*
X205804076Y-117413717D01*
X205678717Y-117539076D01*
X205531310Y-117637570D01*
X205531309Y-117637571D01*
X205531308Y-117637571D01*
X205367520Y-117705414D01*
X205193644Y-117740000D01*
X205016356Y-117740000D01*
X204842480Y-117705414D01*
X204678692Y-117637571D01*
X204678691Y-117637571D01*
X204678690Y-117637570D01*
X204531283Y-117539076D01*
X204405924Y-117413717D01*
X204307430Y-117266310D01*
X204239586Y-117102520D01*
X204205000Y-116928642D01*
X204205000Y-116751358D01*
X204239586Y-116577480D01*
X204307430Y-116413690D01*
X204405924Y-116266283D01*
X204531283Y-116140924D01*
X204678690Y-116042430D01*
X204842480Y-115974586D01*
X205016356Y-115940000D01*
X205193644Y-115940000D01*
X205367520Y-115974586D01*
G37*
G36*
X191400000Y-117740000D02*
G01*
X189600000Y-117740000D01*
X189600000Y-115940000D01*
X191400000Y-115940000D01*
X191400000Y-117740000D01*
G37*
G36*
X268232520Y-113434586D02*
G01*
X268396310Y-113502430D01*
X268543717Y-113600924D01*
X268669076Y-113726283D01*
X268767570Y-113873690D01*
X268835414Y-114037480D01*
X268870000Y-114211358D01*
X268870000Y-114388642D01*
X268835414Y-114562520D01*
X268767570Y-114726310D01*
X268669076Y-114873717D01*
X268543717Y-114999076D01*
X268396310Y-115097570D01*
X268396309Y-115097571D01*
X268396308Y-115097571D01*
X268232520Y-115165414D01*
X268058644Y-115200000D01*
X267881356Y-115200000D01*
X267707480Y-115165414D01*
X267543692Y-115097571D01*
X267543691Y-115097571D01*
X267543690Y-115097570D01*
X267396283Y-114999076D01*
X267270924Y-114873717D01*
X267172430Y-114726310D01*
X267104586Y-114562520D01*
X267070000Y-114388642D01*
X267070000Y-114211358D01*
X267104586Y-114037480D01*
X267172430Y-113873690D01*
X267270924Y-113726283D01*
X267396283Y-113600924D01*
X267543690Y-113502430D01*
X267707480Y-113434586D01*
X267881356Y-113400000D01*
X268058644Y-113400000D01*
X268232520Y-113434586D01*
G37*
G36*
X265692520Y-113434586D02*
G01*
X265856310Y-113502430D01*
X266003717Y-113600924D01*
X266129076Y-113726283D01*
X266227570Y-113873690D01*
X266295414Y-114037480D01*
X266330000Y-114211358D01*
X266330000Y-114388642D01*
X266295414Y-114562520D01*
X266227570Y-114726310D01*
X266129076Y-114873717D01*
X266003717Y-114999076D01*
X265856310Y-115097570D01*
X265856309Y-115097571D01*
X265856308Y-115097571D01*
X265692520Y-115165414D01*
X265518644Y-115200000D01*
X265341356Y-115200000D01*
X265167480Y-115165414D01*
X265003692Y-115097571D01*
X265003691Y-115097571D01*
X265003690Y-115097570D01*
X264856283Y-114999076D01*
X264730924Y-114873717D01*
X264632430Y-114726310D01*
X264564586Y-114562520D01*
X264530000Y-114388642D01*
X264530000Y-114211358D01*
X264564586Y-114037480D01*
X264632430Y-113873690D01*
X264730924Y-113726283D01*
X264856283Y-113600924D01*
X265003690Y-113502430D01*
X265167480Y-113434586D01*
X265341356Y-113400000D01*
X265518644Y-113400000D01*
X265692520Y-113434586D01*
G37*
G36*
X205367520Y-113434586D02*
G01*
X205531310Y-113502430D01*
X205678717Y-113600924D01*
X205804076Y-113726283D01*
X205902570Y-113873690D01*
X205970414Y-114037480D01*
X206005000Y-114211358D01*
X206005000Y-114388642D01*
X205970414Y-114562520D01*
X205902570Y-114726310D01*
X205804076Y-114873717D01*
X205678717Y-114999076D01*
X205531310Y-115097570D01*
X205531309Y-115097571D01*
X205531308Y-115097571D01*
X205367520Y-115165414D01*
X205193644Y-115200000D01*
X205016356Y-115200000D01*
X204842480Y-115165414D01*
X204678692Y-115097571D01*
X204678691Y-115097571D01*
X204678690Y-115097570D01*
X204531283Y-114999076D01*
X204405924Y-114873717D01*
X204307430Y-114726310D01*
X204239586Y-114562520D01*
X204205000Y-114388642D01*
X204205000Y-114211358D01*
X204239586Y-114037480D01*
X204307430Y-113873690D01*
X204405924Y-113726283D01*
X204531283Y-113600924D01*
X204678690Y-113502430D01*
X204842480Y-113434586D01*
X205016356Y-113400000D01*
X205193644Y-113400000D01*
X205367520Y-113434586D01*
G37*
G36*
X207907520Y-113434586D02*
G01*
X208071310Y-113502430D01*
X208218717Y-113600924D01*
X208344076Y-113726283D01*
X208442570Y-113873690D01*
X208510414Y-114037480D01*
X208545000Y-114211358D01*
X208545000Y-114388642D01*
X208510414Y-114562520D01*
X208442570Y-114726310D01*
X208344076Y-114873717D01*
X208218717Y-114999076D01*
X208071310Y-115097570D01*
X208071309Y-115097571D01*
X208071308Y-115097571D01*
X207907520Y-115165414D01*
X207733644Y-115200000D01*
X207556356Y-115200000D01*
X207382480Y-115165414D01*
X207218692Y-115097571D01*
X207218691Y-115097571D01*
X207218690Y-115097570D01*
X207071283Y-114999076D01*
X206945924Y-114873717D01*
X206847430Y-114726310D01*
X206779586Y-114562520D01*
X206745000Y-114388642D01*
X206745000Y-114211358D01*
X206779586Y-114037480D01*
X206847430Y-113873690D01*
X206945924Y-113726283D01*
X207071283Y-113600924D01*
X207218690Y-113502430D01*
X207382480Y-113434586D01*
X207556356Y-113400000D01*
X207733644Y-113400000D01*
X207907520Y-113434586D01*
G37*
G36*
X193302520Y-110894586D02*
G01*
X193466310Y-110962430D01*
X193613717Y-111060924D01*
X193739076Y-111186283D01*
X193837570Y-111333690D01*
X193905414Y-111497480D01*
X193940000Y-111671358D01*
X193940000Y-111848642D01*
X193905414Y-112022520D01*
X193837570Y-112186310D01*
X193739076Y-112333717D01*
X193613717Y-112459076D01*
X193466310Y-112557570D01*
X193466309Y-112557571D01*
X193466308Y-112557571D01*
X193302520Y-112625414D01*
X193128644Y-112660000D01*
X192951356Y-112660000D01*
X192777480Y-112625414D01*
X192613692Y-112557571D01*
X192613691Y-112557571D01*
X192613690Y-112557570D01*
X192466283Y-112459076D01*
X192340924Y-112333717D01*
X192242430Y-112186310D01*
X192174586Y-112022520D01*
X192140000Y-111848642D01*
X192140000Y-111671358D01*
X192174586Y-111497480D01*
X192242430Y-111333690D01*
X192340924Y-111186283D01*
X192466283Y-111060924D01*
X192613690Y-110962430D01*
X192777480Y-110894586D01*
X192951356Y-110860000D01*
X193128644Y-110860000D01*
X193302520Y-110894586D01*
G37*
G36*
X268232520Y-110894586D02*
G01*
X268396310Y-110962430D01*
X268543717Y-111060924D01*
X268669076Y-111186283D01*
X268767570Y-111333690D01*
X268835414Y-111497480D01*
X268870000Y-111671358D01*
X268870000Y-111848642D01*
X268835414Y-112022520D01*
X268767570Y-112186310D01*
X268669076Y-112333717D01*
X268543717Y-112459076D01*
X268396310Y-112557570D01*
X268396309Y-112557571D01*
X268396308Y-112557571D01*
X268232520Y-112625414D01*
X268058644Y-112660000D01*
X267881356Y-112660000D01*
X267707480Y-112625414D01*
X267543692Y-112557571D01*
X267543691Y-112557571D01*
X267543690Y-112557570D01*
X267396283Y-112459076D01*
X267270924Y-112333717D01*
X267172430Y-112186310D01*
X267104586Y-112022520D01*
X267070000Y-111848642D01*
X267070000Y-111671358D01*
X267104586Y-111497480D01*
X267172430Y-111333690D01*
X267270924Y-111186283D01*
X267396283Y-111060924D01*
X267543690Y-110962430D01*
X267707480Y-110894586D01*
X267881356Y-110860000D01*
X268058644Y-110860000D01*
X268232520Y-110894586D01*
G37*
G36*
X191400000Y-112660000D02*
G01*
X189600000Y-112660000D01*
X189600000Y-110860000D01*
X191400000Y-110860000D01*
X191400000Y-112660000D01*
G37*
G36*
X195842520Y-110894586D02*
G01*
X196006310Y-110962430D01*
X196153717Y-111060924D01*
X196279076Y-111186283D01*
X196377570Y-111333690D01*
X196445414Y-111497480D01*
X196480000Y-111671358D01*
X196480000Y-111848642D01*
X196445414Y-112022520D01*
X196377570Y-112186310D01*
X196279076Y-112333717D01*
X196153717Y-112459076D01*
X196006310Y-112557570D01*
X196006309Y-112557571D01*
X196006308Y-112557571D01*
X195842520Y-112625414D01*
X195668644Y-112660000D01*
X195491356Y-112660000D01*
X195317480Y-112625414D01*
X195153692Y-112557571D01*
X195153691Y-112557571D01*
X195153690Y-112557570D01*
X195006283Y-112459076D01*
X194880924Y-112333717D01*
X194782430Y-112186310D01*
X194714586Y-112022520D01*
X194680000Y-111848642D01*
X194680000Y-111671358D01*
X194714586Y-111497480D01*
X194782430Y-111333690D01*
X194880924Y-111186283D01*
X195006283Y-111060924D01*
X195153690Y-110962430D01*
X195317480Y-110894586D01*
X195491356Y-110860000D01*
X195668644Y-110860000D01*
X195842520Y-110894586D01*
G37*
G36*
X205367520Y-110894586D02*
G01*
X205531310Y-110962430D01*
X205678717Y-111060924D01*
X205804076Y-111186283D01*
X205902570Y-111333690D01*
X205970414Y-111497480D01*
X206005000Y-111671358D01*
X206005000Y-111848642D01*
X205970414Y-112022520D01*
X205902570Y-112186310D01*
X205804076Y-112333717D01*
X205678717Y-112459076D01*
X205531310Y-112557570D01*
X205531309Y-112557571D01*
X205531308Y-112557571D01*
X205367520Y-112625414D01*
X205193644Y-112660000D01*
X205016356Y-112660000D01*
X204842480Y-112625414D01*
X204678692Y-112557571D01*
X204678691Y-112557571D01*
X204678690Y-112557570D01*
X204531283Y-112459076D01*
X204405924Y-112333717D01*
X204307430Y-112186310D01*
X204239586Y-112022520D01*
X204205000Y-111848642D01*
X204205000Y-111671358D01*
X204239586Y-111497480D01*
X204307430Y-111333690D01*
X204405924Y-111186283D01*
X204531283Y-111060924D01*
X204678690Y-110962430D01*
X204842480Y-110894586D01*
X205016356Y-110860000D01*
X205193644Y-110860000D01*
X205367520Y-110894586D01*
G37*
G36*
X207907520Y-110894586D02*
G01*
X208071310Y-110962430D01*
X208218717Y-111060924D01*
X208344076Y-111186283D01*
X208442570Y-111333690D01*
X208510414Y-111497480D01*
X208545000Y-111671358D01*
X208545000Y-111848642D01*
X208510414Y-112022520D01*
X208442570Y-112186310D01*
X208344076Y-112333717D01*
X208218717Y-112459076D01*
X208071310Y-112557570D01*
X208071309Y-112557571D01*
X208071308Y-112557571D01*
X207907520Y-112625414D01*
X207733644Y-112660000D01*
X207556356Y-112660000D01*
X207382480Y-112625414D01*
X207218692Y-112557571D01*
X207218691Y-112557571D01*
X207218690Y-112557570D01*
X207071283Y-112459076D01*
X206945924Y-112333717D01*
X206847430Y-112186310D01*
X206779586Y-112022520D01*
X206745000Y-111848642D01*
X206745000Y-111671358D01*
X206779586Y-111497480D01*
X206847430Y-111333690D01*
X206945924Y-111186283D01*
X207071283Y-111060924D01*
X207218690Y-110962430D01*
X207382480Y-110894586D01*
X207556356Y-110860000D01*
X207733644Y-110860000D01*
X207907520Y-110894586D01*
G37*
G36*
X265692520Y-110894586D02*
G01*
X265856310Y-110962430D01*
X266003717Y-111060924D01*
X266129076Y-111186283D01*
X266227570Y-111333690D01*
X266295414Y-111497480D01*
X266330000Y-111671358D01*
X266330000Y-111848642D01*
X266295414Y-112022520D01*
X266227570Y-112186310D01*
X266129076Y-112333717D01*
X266003717Y-112459076D01*
X265856310Y-112557570D01*
X265856309Y-112557571D01*
X265856308Y-112557571D01*
X265692520Y-112625414D01*
X265518644Y-112660000D01*
X265341356Y-112660000D01*
X265167480Y-112625414D01*
X265003692Y-112557571D01*
X265003691Y-112557571D01*
X265003690Y-112557570D01*
X264856283Y-112459076D01*
X264730924Y-112333717D01*
X264632430Y-112186310D01*
X264564586Y-112022520D01*
X264530000Y-111848642D01*
X264530000Y-111671358D01*
X264564586Y-111497480D01*
X264632430Y-111333690D01*
X264730924Y-111186283D01*
X264856283Y-111060924D01*
X265003690Y-110962430D01*
X265167480Y-110894586D01*
X265341356Y-110860000D01*
X265518644Y-110860000D01*
X265692520Y-110894586D01*
G37*
G36*
X255201627Y-110922299D02*
G01*
X255281742Y-110946601D01*
X255361855Y-110970903D01*
X255361857Y-110970904D01*
X255509518Y-111049831D01*
X255638949Y-111156051D01*
X255745169Y-111285482D01*
X255824096Y-111433143D01*
X255872701Y-111593373D01*
X255889112Y-111760000D01*
X255872701Y-111926627D01*
X255824096Y-112086857D01*
X255745169Y-112234518D01*
X255638949Y-112363949D01*
X255509518Y-112470169D01*
X255361857Y-112549096D01*
X255361855Y-112549097D01*
X255333919Y-112557571D01*
X255201627Y-112597701D01*
X255076752Y-112610000D01*
X254193248Y-112610000D01*
X254068373Y-112597701D01*
X253936081Y-112557571D01*
X253908145Y-112549097D01*
X253908143Y-112549096D01*
X253760482Y-112470169D01*
X253631051Y-112363949D01*
X253524831Y-112234518D01*
X253445904Y-112086857D01*
X253397299Y-111926627D01*
X253380888Y-111760000D01*
X253397299Y-111593373D01*
X253445904Y-111433143D01*
X253524831Y-111285482D01*
X253631051Y-111156051D01*
X253760482Y-111049831D01*
X253908143Y-110970904D01*
X253908145Y-110970903D01*
X253988258Y-110946602D01*
X254068373Y-110922299D01*
X254193248Y-110910000D01*
X255076752Y-110910000D01*
X255201627Y-110922299D01*
G37*
G36*
X247581627Y-110922299D02*
G01*
X247661742Y-110946601D01*
X247741855Y-110970903D01*
X247741857Y-110970904D01*
X247889518Y-111049831D01*
X248018949Y-111156051D01*
X248125169Y-111285482D01*
X248204096Y-111433143D01*
X248252701Y-111593373D01*
X248269112Y-111760000D01*
X248252701Y-111926627D01*
X248204096Y-112086857D01*
X248125169Y-112234518D01*
X248018949Y-112363949D01*
X247889518Y-112470169D01*
X247741857Y-112549096D01*
X247741855Y-112549097D01*
X247713919Y-112557571D01*
X247581627Y-112597701D01*
X247456752Y-112610000D01*
X246573248Y-112610000D01*
X246448373Y-112597701D01*
X246316081Y-112557571D01*
X246288145Y-112549097D01*
X246288143Y-112549096D01*
X246140482Y-112470169D01*
X246011051Y-112363949D01*
X245904831Y-112234518D01*
X245825904Y-112086857D01*
X245777299Y-111926627D01*
X245760888Y-111760000D01*
X245777299Y-111593373D01*
X245825904Y-111433143D01*
X245904831Y-111285482D01*
X246011051Y-111156051D01*
X246140482Y-111049831D01*
X246288143Y-110970904D01*
X246288145Y-110970903D01*
X246368258Y-110946602D01*
X246448373Y-110922299D01*
X246573248Y-110910000D01*
X247456752Y-110910000D01*
X247581627Y-110922299D01*
G37*
G36*
X234246627Y-110922299D02*
G01*
X234326742Y-110946601D01*
X234406855Y-110970903D01*
X234406857Y-110970904D01*
X234554518Y-111049831D01*
X234683949Y-111156051D01*
X234790169Y-111285482D01*
X234869096Y-111433143D01*
X234917701Y-111593373D01*
X234934112Y-111760000D01*
X234917701Y-111926627D01*
X234869096Y-112086857D01*
X234790169Y-112234518D01*
X234683949Y-112363949D01*
X234554518Y-112470169D01*
X234406857Y-112549096D01*
X234406855Y-112549097D01*
X234378919Y-112557571D01*
X234246627Y-112597701D01*
X234121752Y-112610000D01*
X233238248Y-112610000D01*
X233113373Y-112597701D01*
X232981081Y-112557571D01*
X232953145Y-112549097D01*
X232953143Y-112549096D01*
X232805482Y-112470169D01*
X232676051Y-112363949D01*
X232569831Y-112234518D01*
X232490904Y-112086857D01*
X232442299Y-111926627D01*
X232425888Y-111760000D01*
X232442299Y-111593373D01*
X232490904Y-111433143D01*
X232569831Y-111285482D01*
X232676051Y-111156051D01*
X232805482Y-111049831D01*
X232953143Y-110970904D01*
X232953145Y-110970903D01*
X233033258Y-110946602D01*
X233113373Y-110922299D01*
X233238248Y-110910000D01*
X234121752Y-110910000D01*
X234246627Y-110922299D01*
G37*
G36*
X226626627Y-110922299D02*
G01*
X226706742Y-110946601D01*
X226786855Y-110970903D01*
X226786857Y-110970904D01*
X226934518Y-111049831D01*
X227063949Y-111156051D01*
X227170169Y-111285482D01*
X227249096Y-111433143D01*
X227297701Y-111593373D01*
X227314112Y-111760000D01*
X227297701Y-111926627D01*
X227249096Y-112086857D01*
X227170169Y-112234518D01*
X227063949Y-112363949D01*
X226934518Y-112470169D01*
X226786857Y-112549096D01*
X226786855Y-112549097D01*
X226758919Y-112557571D01*
X226626627Y-112597701D01*
X226501752Y-112610000D01*
X225618248Y-112610000D01*
X225493373Y-112597701D01*
X225361081Y-112557571D01*
X225333145Y-112549097D01*
X225333143Y-112549096D01*
X225185482Y-112470169D01*
X225056051Y-112363949D01*
X224949831Y-112234518D01*
X224870904Y-112086857D01*
X224822299Y-111926627D01*
X224805888Y-111760000D01*
X224822299Y-111593373D01*
X224870904Y-111433143D01*
X224949831Y-111285482D01*
X225056051Y-111156051D01*
X225185482Y-111049831D01*
X225333143Y-110970904D01*
X225333145Y-110970903D01*
X225413258Y-110946602D01*
X225493373Y-110922299D01*
X225618248Y-110910000D01*
X226501752Y-110910000D01*
X226626627Y-110922299D01*
G37*
G36*
X268232520Y-108354586D02*
G01*
X268396310Y-108422430D01*
X268543717Y-108520924D01*
X268669076Y-108646283D01*
X268767570Y-108793690D01*
X268835414Y-108957480D01*
X268870000Y-109131358D01*
X268870000Y-109308642D01*
X268835414Y-109482520D01*
X268767570Y-109646310D01*
X268669076Y-109793717D01*
X268543717Y-109919076D01*
X268396310Y-110017570D01*
X268396309Y-110017571D01*
X268396308Y-110017571D01*
X268232520Y-110085414D01*
X268058644Y-110120000D01*
X267881356Y-110120000D01*
X267707480Y-110085414D01*
X267543692Y-110017571D01*
X267543691Y-110017571D01*
X267543690Y-110017570D01*
X267396283Y-109919076D01*
X267270924Y-109793717D01*
X267172430Y-109646310D01*
X267104586Y-109482520D01*
X267070000Y-109308642D01*
X267070000Y-109131358D01*
X267104586Y-108957480D01*
X267172430Y-108793690D01*
X267270924Y-108646283D01*
X267396283Y-108520924D01*
X267543690Y-108422430D01*
X267707480Y-108354586D01*
X267881356Y-108320000D01*
X268058644Y-108320000D01*
X268232520Y-108354586D01*
G37*
G36*
X207907520Y-108354586D02*
G01*
X208071310Y-108422430D01*
X208218717Y-108520924D01*
X208344076Y-108646283D01*
X208442570Y-108793690D01*
X208510414Y-108957480D01*
X208545000Y-109131358D01*
X208545000Y-109308642D01*
X208510414Y-109482520D01*
X208442570Y-109646310D01*
X208344076Y-109793717D01*
X208218717Y-109919076D01*
X208071310Y-110017570D01*
X208071309Y-110017571D01*
X208071308Y-110017571D01*
X207907520Y-110085414D01*
X207733644Y-110120000D01*
X207556356Y-110120000D01*
X207382480Y-110085414D01*
X207218692Y-110017571D01*
X207218691Y-110017571D01*
X207218690Y-110017570D01*
X207071283Y-109919076D01*
X206945924Y-109793717D01*
X206847430Y-109646310D01*
X206779586Y-109482520D01*
X206745000Y-109308642D01*
X206745000Y-109131358D01*
X206779586Y-108957480D01*
X206847430Y-108793690D01*
X206945924Y-108646283D01*
X207071283Y-108520924D01*
X207218690Y-108422430D01*
X207382480Y-108354586D01*
X207556356Y-108320000D01*
X207733644Y-108320000D01*
X207907520Y-108354586D01*
G37*
G36*
X205367520Y-108354586D02*
G01*
X205531310Y-108422430D01*
X205678717Y-108520924D01*
X205804076Y-108646283D01*
X205902570Y-108793690D01*
X205970414Y-108957480D01*
X206005000Y-109131358D01*
X206005000Y-109308642D01*
X205970414Y-109482520D01*
X205902570Y-109646310D01*
X205804076Y-109793717D01*
X205678717Y-109919076D01*
X205531310Y-110017570D01*
X205531309Y-110017571D01*
X205531308Y-110017571D01*
X205367520Y-110085414D01*
X205193644Y-110120000D01*
X205016356Y-110120000D01*
X204842480Y-110085414D01*
X204678692Y-110017571D01*
X204678691Y-110017571D01*
X204678690Y-110017570D01*
X204531283Y-109919076D01*
X204405924Y-109793717D01*
X204307430Y-109646310D01*
X204239586Y-109482520D01*
X204205000Y-109308642D01*
X204205000Y-109131358D01*
X204239586Y-108957480D01*
X204307430Y-108793690D01*
X204405924Y-108646283D01*
X204531283Y-108520924D01*
X204678690Y-108422430D01*
X204842480Y-108354586D01*
X205016356Y-108320000D01*
X205193644Y-108320000D01*
X205367520Y-108354586D01*
G37*
G36*
X265692520Y-108354586D02*
G01*
X265856310Y-108422430D01*
X266003717Y-108520924D01*
X266129076Y-108646283D01*
X266227570Y-108793690D01*
X266295414Y-108957480D01*
X266330000Y-109131358D01*
X266330000Y-109308642D01*
X266295414Y-109482520D01*
X266227570Y-109646310D01*
X266129076Y-109793717D01*
X266003717Y-109919076D01*
X265856310Y-110017570D01*
X265856309Y-110017571D01*
X265856308Y-110017571D01*
X265692520Y-110085414D01*
X265518644Y-110120000D01*
X265341356Y-110120000D01*
X265167480Y-110085414D01*
X265003692Y-110017571D01*
X265003691Y-110017571D01*
X265003690Y-110017570D01*
X264856283Y-109919076D01*
X264730924Y-109793717D01*
X264632430Y-109646310D01*
X264564586Y-109482520D01*
X264530000Y-109308642D01*
X264530000Y-109131358D01*
X264564586Y-108957480D01*
X264632430Y-108793690D01*
X264730924Y-108646283D01*
X264856283Y-108520924D01*
X265003690Y-108422430D01*
X265167480Y-108354586D01*
X265341356Y-108320000D01*
X265518644Y-108320000D01*
X265692520Y-108354586D01*
G37*
G36*
X226626627Y-108382299D02*
G01*
X226706742Y-108406602D01*
X226786855Y-108430903D01*
X226786857Y-108430904D01*
X226934518Y-108509831D01*
X227063949Y-108616051D01*
X227170169Y-108745482D01*
X227249096Y-108893143D01*
X227297701Y-109053373D01*
X227314112Y-109220000D01*
X227297701Y-109386627D01*
X227249096Y-109546857D01*
X227170169Y-109694518D01*
X227063949Y-109823949D01*
X226934518Y-109930169D01*
X226786857Y-110009096D01*
X226786855Y-110009097D01*
X226758919Y-110017571D01*
X226626627Y-110057701D01*
X226501752Y-110070000D01*
X225618248Y-110070000D01*
X225493373Y-110057701D01*
X225361081Y-110017571D01*
X225333145Y-110009097D01*
X225333143Y-110009096D01*
X225185482Y-109930169D01*
X225056051Y-109823949D01*
X224949831Y-109694518D01*
X224870904Y-109546857D01*
X224822299Y-109386627D01*
X224805888Y-109220000D01*
X224822299Y-109053373D01*
X224870904Y-108893143D01*
X224949831Y-108745482D01*
X225056051Y-108616051D01*
X225185482Y-108509831D01*
X225333143Y-108430904D01*
X225333145Y-108430903D01*
X225413258Y-108406601D01*
X225493373Y-108382299D01*
X225618248Y-108370000D01*
X226501752Y-108370000D01*
X226626627Y-108382299D01*
G37*
G36*
X234246627Y-108382299D02*
G01*
X234326742Y-108406602D01*
X234406855Y-108430903D01*
X234406857Y-108430904D01*
X234554518Y-108509831D01*
X234683949Y-108616051D01*
X234790169Y-108745482D01*
X234869096Y-108893143D01*
X234917701Y-109053373D01*
X234934112Y-109220000D01*
X234917701Y-109386627D01*
X234869096Y-109546857D01*
X234790169Y-109694518D01*
X234683949Y-109823949D01*
X234554518Y-109930169D01*
X234406857Y-110009096D01*
X234406855Y-110009097D01*
X234378919Y-110017571D01*
X234246627Y-110057701D01*
X234121752Y-110070000D01*
X233238248Y-110070000D01*
X233113373Y-110057701D01*
X232981081Y-110017571D01*
X232953145Y-110009097D01*
X232953143Y-110009096D01*
X232805482Y-109930169D01*
X232676051Y-109823949D01*
X232569831Y-109694518D01*
X232490904Y-109546857D01*
X232442299Y-109386627D01*
X232425888Y-109220000D01*
X232442299Y-109053373D01*
X232490904Y-108893143D01*
X232569831Y-108745482D01*
X232676051Y-108616051D01*
X232805482Y-108509831D01*
X232953143Y-108430904D01*
X232953145Y-108430903D01*
X233033258Y-108406601D01*
X233113373Y-108382299D01*
X233238248Y-108370000D01*
X234121752Y-108370000D01*
X234246627Y-108382299D01*
G37*
G36*
X255201627Y-108382299D02*
G01*
X255281742Y-108406602D01*
X255361855Y-108430903D01*
X255361857Y-108430904D01*
X255509518Y-108509831D01*
X255638949Y-108616051D01*
X255745169Y-108745482D01*
X255824096Y-108893143D01*
X255872701Y-109053373D01*
X255889112Y-109220000D01*
X255872701Y-109386627D01*
X255824096Y-109546857D01*
X255745169Y-109694518D01*
X255638949Y-109823949D01*
X255509518Y-109930169D01*
X255361857Y-110009096D01*
X255361855Y-110009097D01*
X255333919Y-110017571D01*
X255201627Y-110057701D01*
X255076752Y-110070000D01*
X254193248Y-110070000D01*
X254068373Y-110057701D01*
X253936081Y-110017571D01*
X253908145Y-110009097D01*
X253908143Y-110009096D01*
X253760482Y-109930169D01*
X253631051Y-109823949D01*
X253524831Y-109694518D01*
X253445904Y-109546857D01*
X253397299Y-109386627D01*
X253380888Y-109220000D01*
X253397299Y-109053373D01*
X253445904Y-108893143D01*
X253524831Y-108745482D01*
X253631051Y-108616051D01*
X253760482Y-108509831D01*
X253908143Y-108430904D01*
X253908145Y-108430903D01*
X253988258Y-108406601D01*
X254068373Y-108382299D01*
X254193248Y-108370000D01*
X255076752Y-108370000D01*
X255201627Y-108382299D01*
G37*
G36*
X247581627Y-108382299D02*
G01*
X247661742Y-108406602D01*
X247741855Y-108430903D01*
X247741857Y-108430904D01*
X247889518Y-108509831D01*
X248018949Y-108616051D01*
X248125169Y-108745482D01*
X248204096Y-108893143D01*
X248252701Y-109053373D01*
X248269112Y-109220000D01*
X248252701Y-109386627D01*
X248204096Y-109546857D01*
X248125169Y-109694518D01*
X248018949Y-109823949D01*
X247889518Y-109930169D01*
X247741857Y-110009096D01*
X247741855Y-110009097D01*
X247713919Y-110017571D01*
X247581627Y-110057701D01*
X247456752Y-110070000D01*
X246573248Y-110070000D01*
X246448373Y-110057701D01*
X246316081Y-110017571D01*
X246288145Y-110009097D01*
X246288143Y-110009096D01*
X246140482Y-109930169D01*
X246011051Y-109823949D01*
X245904831Y-109694518D01*
X245825904Y-109546857D01*
X245777299Y-109386627D01*
X245760888Y-109220000D01*
X245777299Y-109053373D01*
X245825904Y-108893143D01*
X245904831Y-108745482D01*
X246011051Y-108616051D01*
X246140482Y-108509831D01*
X246288143Y-108430904D01*
X246288145Y-108430903D01*
X246368258Y-108406601D01*
X246448373Y-108382299D01*
X246573248Y-108370000D01*
X247456752Y-108370000D01*
X247581627Y-108382299D01*
G37*
G36*
X265692520Y-105814586D02*
G01*
X265856310Y-105882430D01*
X266003717Y-105980924D01*
X266129076Y-106106283D01*
X266227570Y-106253690D01*
X266295414Y-106417480D01*
X266330000Y-106591358D01*
X266330000Y-106768642D01*
X266295414Y-106942520D01*
X266227570Y-107106310D01*
X266129076Y-107253717D01*
X266003717Y-107379076D01*
X265856310Y-107477570D01*
X265856309Y-107477571D01*
X265856308Y-107477571D01*
X265692520Y-107545414D01*
X265518644Y-107580000D01*
X265341356Y-107580000D01*
X265167480Y-107545414D01*
X265003692Y-107477571D01*
X265003691Y-107477571D01*
X265003690Y-107477570D01*
X264856283Y-107379076D01*
X264730924Y-107253717D01*
X264632430Y-107106310D01*
X264564586Y-106942520D01*
X264530000Y-106768642D01*
X264530000Y-106591358D01*
X264564586Y-106417480D01*
X264632430Y-106253690D01*
X264730924Y-106106283D01*
X264856283Y-105980924D01*
X265003690Y-105882430D01*
X265167480Y-105814586D01*
X265341356Y-105780000D01*
X265518644Y-105780000D01*
X265692520Y-105814586D01*
G37*
G36*
X207907520Y-105814586D02*
G01*
X208071310Y-105882430D01*
X208218717Y-105980924D01*
X208344076Y-106106283D01*
X208442570Y-106253690D01*
X208510414Y-106417480D01*
X208545000Y-106591358D01*
X208545000Y-106768642D01*
X208510414Y-106942520D01*
X208442570Y-107106310D01*
X208344076Y-107253717D01*
X208218717Y-107379076D01*
X208071310Y-107477570D01*
X208071309Y-107477571D01*
X208071308Y-107477571D01*
X207907520Y-107545414D01*
X207733644Y-107580000D01*
X207556356Y-107580000D01*
X207382480Y-107545414D01*
X207218692Y-107477571D01*
X207218691Y-107477571D01*
X207218690Y-107477570D01*
X207071283Y-107379076D01*
X206945924Y-107253717D01*
X206847430Y-107106310D01*
X206779586Y-106942520D01*
X206745000Y-106768642D01*
X206745000Y-106591358D01*
X206779586Y-106417480D01*
X206847430Y-106253690D01*
X206945924Y-106106283D01*
X207071283Y-105980924D01*
X207218690Y-105882430D01*
X207382480Y-105814586D01*
X207556356Y-105780000D01*
X207733644Y-105780000D01*
X207907520Y-105814586D01*
G37*
G36*
X191400000Y-107580000D02*
G01*
X189600000Y-107580000D01*
X189600000Y-105780000D01*
X191400000Y-105780000D01*
X191400000Y-107580000D01*
G37*
G36*
X268232520Y-105814586D02*
G01*
X268396310Y-105882430D01*
X268543717Y-105980924D01*
X268669076Y-106106283D01*
X268767570Y-106253690D01*
X268835414Y-106417480D01*
X268870000Y-106591358D01*
X268870000Y-106768642D01*
X268835414Y-106942520D01*
X268767570Y-107106310D01*
X268669076Y-107253717D01*
X268543717Y-107379076D01*
X268396310Y-107477570D01*
X268396309Y-107477571D01*
X268396308Y-107477571D01*
X268232520Y-107545414D01*
X268058644Y-107580000D01*
X267881356Y-107580000D01*
X267707480Y-107545414D01*
X267543692Y-107477571D01*
X267543691Y-107477571D01*
X267543690Y-107477570D01*
X267396283Y-107379076D01*
X267270924Y-107253717D01*
X267172430Y-107106310D01*
X267104586Y-106942520D01*
X267070000Y-106768642D01*
X267070000Y-106591358D01*
X267104586Y-106417480D01*
X267172430Y-106253690D01*
X267270924Y-106106283D01*
X267396283Y-105980924D01*
X267543690Y-105882430D01*
X267707480Y-105814586D01*
X267881356Y-105780000D01*
X268058644Y-105780000D01*
X268232520Y-105814586D01*
G37*
G36*
X195842520Y-105814586D02*
G01*
X196006310Y-105882430D01*
X196153717Y-105980924D01*
X196279076Y-106106283D01*
X196377570Y-106253690D01*
X196445414Y-106417480D01*
X196480000Y-106591358D01*
X196480000Y-106768642D01*
X196445414Y-106942520D01*
X196377570Y-107106310D01*
X196279076Y-107253717D01*
X196153717Y-107379076D01*
X196006310Y-107477570D01*
X196006309Y-107477571D01*
X196006308Y-107477571D01*
X195842520Y-107545414D01*
X195668644Y-107580000D01*
X195491356Y-107580000D01*
X195317480Y-107545414D01*
X195153692Y-107477571D01*
X195153691Y-107477571D01*
X195153690Y-107477570D01*
X195006283Y-107379076D01*
X194880924Y-107253717D01*
X194782430Y-107106310D01*
X194714586Y-106942520D01*
X194680000Y-106768642D01*
X194680000Y-106591358D01*
X194714586Y-106417480D01*
X194782430Y-106253690D01*
X194880924Y-106106283D01*
X195006283Y-105980924D01*
X195153690Y-105882430D01*
X195317480Y-105814586D01*
X195491356Y-105780000D01*
X195668644Y-105780000D01*
X195842520Y-105814586D01*
G37*
G36*
X193302520Y-105814586D02*
G01*
X193466310Y-105882430D01*
X193613717Y-105980924D01*
X193739076Y-106106283D01*
X193837570Y-106253690D01*
X193905414Y-106417480D01*
X193940000Y-106591358D01*
X193940000Y-106768642D01*
X193905414Y-106942520D01*
X193837570Y-107106310D01*
X193739076Y-107253717D01*
X193613717Y-107379076D01*
X193466310Y-107477570D01*
X193466309Y-107477571D01*
X193466308Y-107477571D01*
X193302520Y-107545414D01*
X193128644Y-107580000D01*
X192951356Y-107580000D01*
X192777480Y-107545414D01*
X192613692Y-107477571D01*
X192613691Y-107477571D01*
X192613690Y-107477570D01*
X192466283Y-107379076D01*
X192340924Y-107253717D01*
X192242430Y-107106310D01*
X192174586Y-106942520D01*
X192140000Y-106768642D01*
X192140000Y-106591358D01*
X192174586Y-106417480D01*
X192242430Y-106253690D01*
X192340924Y-106106283D01*
X192466283Y-105980924D01*
X192613690Y-105882430D01*
X192777480Y-105814586D01*
X192951356Y-105780000D01*
X193128644Y-105780000D01*
X193302520Y-105814586D01*
G37*
G36*
X205367520Y-105814586D02*
G01*
X205531310Y-105882430D01*
X205678717Y-105980924D01*
X205804076Y-106106283D01*
X205902570Y-106253690D01*
X205970414Y-106417480D01*
X206005000Y-106591358D01*
X206005000Y-106768642D01*
X205970414Y-106942520D01*
X205902570Y-107106310D01*
X205804076Y-107253717D01*
X205678717Y-107379076D01*
X205531310Y-107477570D01*
X205531309Y-107477571D01*
X205531308Y-107477571D01*
X205367520Y-107545414D01*
X205193644Y-107580000D01*
X205016356Y-107580000D01*
X204842480Y-107545414D01*
X204678692Y-107477571D01*
X204678691Y-107477571D01*
X204678690Y-107477570D01*
X204531283Y-107379076D01*
X204405924Y-107253717D01*
X204307430Y-107106310D01*
X204239586Y-106942520D01*
X204205000Y-106768642D01*
X204205000Y-106591358D01*
X204239586Y-106417480D01*
X204307430Y-106253690D01*
X204405924Y-106106283D01*
X204531283Y-105980924D01*
X204678690Y-105882430D01*
X204842480Y-105814586D01*
X205016356Y-105780000D01*
X205193644Y-105780000D01*
X205367520Y-105814586D01*
G37*
G36*
X234246627Y-105842299D02*
G01*
X234326742Y-105866602D01*
X234406855Y-105890903D01*
X234406857Y-105890904D01*
X234554518Y-105969831D01*
X234683949Y-106076051D01*
X234790169Y-106205482D01*
X234869096Y-106353143D01*
X234917701Y-106513373D01*
X234934112Y-106680000D01*
X234917701Y-106846627D01*
X234869096Y-107006857D01*
X234790169Y-107154518D01*
X234683949Y-107283949D01*
X234554518Y-107390169D01*
X234406857Y-107469096D01*
X234406855Y-107469097D01*
X234378919Y-107477571D01*
X234246627Y-107517701D01*
X234121752Y-107530000D01*
X233238248Y-107530000D01*
X233113373Y-107517701D01*
X232981081Y-107477571D01*
X232953145Y-107469097D01*
X232953143Y-107469096D01*
X232805482Y-107390169D01*
X232676051Y-107283949D01*
X232569831Y-107154518D01*
X232490904Y-107006857D01*
X232442299Y-106846627D01*
X232425888Y-106680000D01*
X232442299Y-106513373D01*
X232490904Y-106353143D01*
X232569831Y-106205482D01*
X232676051Y-106076051D01*
X232805482Y-105969831D01*
X232953143Y-105890904D01*
X232953145Y-105890903D01*
X233033258Y-105866602D01*
X233113373Y-105842299D01*
X233238248Y-105830000D01*
X234121752Y-105830000D01*
X234246627Y-105842299D01*
G37*
G36*
X226626627Y-105842299D02*
G01*
X226706742Y-105866602D01*
X226786855Y-105890903D01*
X226786857Y-105890904D01*
X226934518Y-105969831D01*
X227063949Y-106076051D01*
X227170169Y-106205482D01*
X227249096Y-106353143D01*
X227297701Y-106513373D01*
X227314112Y-106680000D01*
X227297701Y-106846627D01*
X227249096Y-107006857D01*
X227170169Y-107154518D01*
X227063949Y-107283949D01*
X226934518Y-107390169D01*
X226786857Y-107469096D01*
X226786855Y-107469097D01*
X226758919Y-107477571D01*
X226626627Y-107517701D01*
X226501752Y-107530000D01*
X225618248Y-107530000D01*
X225493373Y-107517701D01*
X225361081Y-107477571D01*
X225333145Y-107469097D01*
X225333143Y-107469096D01*
X225185482Y-107390169D01*
X225056051Y-107283949D01*
X224949831Y-107154518D01*
X224870904Y-107006857D01*
X224822299Y-106846627D01*
X224805888Y-106680000D01*
X224822299Y-106513373D01*
X224870904Y-106353143D01*
X224949831Y-106205482D01*
X225056051Y-106076051D01*
X225185482Y-105969831D01*
X225333143Y-105890904D01*
X225333145Y-105890903D01*
X225413258Y-105866602D01*
X225493373Y-105842299D01*
X225618248Y-105830000D01*
X226501752Y-105830000D01*
X226626627Y-105842299D01*
G37*
G36*
X247581627Y-105842299D02*
G01*
X247661742Y-105866602D01*
X247741855Y-105890903D01*
X247741857Y-105890904D01*
X247889518Y-105969831D01*
X248018949Y-106076051D01*
X248125169Y-106205482D01*
X248204096Y-106353143D01*
X248252701Y-106513373D01*
X248269112Y-106680000D01*
X248252701Y-106846627D01*
X248204096Y-107006857D01*
X248125169Y-107154518D01*
X248018949Y-107283949D01*
X247889518Y-107390169D01*
X247741857Y-107469096D01*
X247741855Y-107469097D01*
X247713919Y-107477571D01*
X247581627Y-107517701D01*
X247456752Y-107530000D01*
X246573248Y-107530000D01*
X246448373Y-107517701D01*
X246316081Y-107477571D01*
X246288145Y-107469097D01*
X246288143Y-107469096D01*
X246140482Y-107390169D01*
X246011051Y-107283949D01*
X245904831Y-107154518D01*
X245825904Y-107006857D01*
X245777299Y-106846627D01*
X245760888Y-106680000D01*
X245777299Y-106513373D01*
X245825904Y-106353143D01*
X245904831Y-106205482D01*
X246011051Y-106076051D01*
X246140482Y-105969831D01*
X246288143Y-105890904D01*
X246288145Y-105890903D01*
X246368258Y-105866602D01*
X246448373Y-105842299D01*
X246573248Y-105830000D01*
X247456752Y-105830000D01*
X247581627Y-105842299D01*
G37*
G36*
X255201627Y-105842299D02*
G01*
X255281742Y-105866602D01*
X255361855Y-105890903D01*
X255361857Y-105890904D01*
X255509518Y-105969831D01*
X255638949Y-106076051D01*
X255745169Y-106205482D01*
X255824096Y-106353143D01*
X255872701Y-106513373D01*
X255889112Y-106680000D01*
X255872701Y-106846627D01*
X255824096Y-107006857D01*
X255745169Y-107154518D01*
X255638949Y-107283949D01*
X255509518Y-107390169D01*
X255361857Y-107469096D01*
X255361855Y-107469097D01*
X255333919Y-107477571D01*
X255201627Y-107517701D01*
X255076752Y-107530000D01*
X254193248Y-107530000D01*
X254068373Y-107517701D01*
X253936081Y-107477571D01*
X253908145Y-107469097D01*
X253908143Y-107469096D01*
X253760482Y-107390169D01*
X253631051Y-107283949D01*
X253524831Y-107154518D01*
X253445904Y-107006857D01*
X253397299Y-106846627D01*
X253380888Y-106680000D01*
X253397299Y-106513373D01*
X253445904Y-106353143D01*
X253524831Y-106205482D01*
X253631051Y-106076051D01*
X253760482Y-105969831D01*
X253908143Y-105890904D01*
X253908145Y-105890903D01*
X253988258Y-105866602D01*
X254068373Y-105842299D01*
X254193248Y-105830000D01*
X255076752Y-105830000D01*
X255201627Y-105842299D01*
G37*
G36*
X205367520Y-103274586D02*
G01*
X205531310Y-103342430D01*
X205678717Y-103440924D01*
X205804076Y-103566283D01*
X205902570Y-103713690D01*
X205970414Y-103877480D01*
X206005000Y-104051358D01*
X206005000Y-104228642D01*
X205970414Y-104402520D01*
X205902570Y-104566310D01*
X205804076Y-104713717D01*
X205678717Y-104839076D01*
X205531310Y-104937570D01*
X205531309Y-104937571D01*
X205531308Y-104937571D01*
X205367520Y-105005414D01*
X205193644Y-105040000D01*
X205016356Y-105040000D01*
X204842480Y-105005414D01*
X204678692Y-104937571D01*
X204678691Y-104937571D01*
X204678690Y-104937570D01*
X204531283Y-104839076D01*
X204405924Y-104713717D01*
X204307430Y-104566310D01*
X204239586Y-104402520D01*
X204205000Y-104228642D01*
X204205000Y-104051358D01*
X204239586Y-103877480D01*
X204307430Y-103713690D01*
X204405924Y-103566283D01*
X204531283Y-103440924D01*
X204678690Y-103342430D01*
X204842480Y-103274586D01*
X205016356Y-103240000D01*
X205193644Y-103240000D01*
X205367520Y-103274586D01*
G37*
G36*
X207907520Y-103274586D02*
G01*
X208071310Y-103342430D01*
X208218717Y-103440924D01*
X208344076Y-103566283D01*
X208442570Y-103713690D01*
X208510414Y-103877480D01*
X208545000Y-104051358D01*
X208545000Y-104228642D01*
X208510414Y-104402520D01*
X208442570Y-104566310D01*
X208344076Y-104713717D01*
X208218717Y-104839076D01*
X208071310Y-104937570D01*
X208071309Y-104937571D01*
X208071308Y-104937571D01*
X207907520Y-105005414D01*
X207733644Y-105040000D01*
X207556356Y-105040000D01*
X207382480Y-105005414D01*
X207218692Y-104937571D01*
X207218691Y-104937571D01*
X207218690Y-104937570D01*
X207071283Y-104839076D01*
X206945924Y-104713717D01*
X206847430Y-104566310D01*
X206779586Y-104402520D01*
X206745000Y-104228642D01*
X206745000Y-104051358D01*
X206779586Y-103877480D01*
X206847430Y-103713690D01*
X206945924Y-103566283D01*
X207071283Y-103440924D01*
X207218690Y-103342430D01*
X207382480Y-103274586D01*
X207556356Y-103240000D01*
X207733644Y-103240000D01*
X207907520Y-103274586D01*
G37*
G36*
X268232520Y-103274586D02*
G01*
X268396310Y-103342430D01*
X268543717Y-103440924D01*
X268669076Y-103566283D01*
X268767570Y-103713690D01*
X268835414Y-103877480D01*
X268870000Y-104051358D01*
X268870000Y-104228642D01*
X268835414Y-104402520D01*
X268767570Y-104566310D01*
X268669076Y-104713717D01*
X268543717Y-104839076D01*
X268396310Y-104937570D01*
X268396309Y-104937571D01*
X268396308Y-104937571D01*
X268232520Y-105005414D01*
X268058644Y-105040000D01*
X267881356Y-105040000D01*
X267707480Y-105005414D01*
X267543692Y-104937571D01*
X267543691Y-104937571D01*
X267543690Y-104937570D01*
X267396283Y-104839076D01*
X267270924Y-104713717D01*
X267172430Y-104566310D01*
X267104586Y-104402520D01*
X267070000Y-104228642D01*
X267070000Y-104051358D01*
X267104586Y-103877480D01*
X267172430Y-103713690D01*
X267270924Y-103566283D01*
X267396283Y-103440924D01*
X267543690Y-103342430D01*
X267707480Y-103274586D01*
X267881356Y-103240000D01*
X268058644Y-103240000D01*
X268232520Y-103274586D01*
G37*
G36*
X265692520Y-103274586D02*
G01*
X265856310Y-103342430D01*
X266003717Y-103440924D01*
X266129076Y-103566283D01*
X266227570Y-103713690D01*
X266295414Y-103877480D01*
X266330000Y-104051358D01*
X266330000Y-104228642D01*
X266295414Y-104402520D01*
X266227570Y-104566310D01*
X266129076Y-104713717D01*
X266003717Y-104839076D01*
X265856310Y-104937570D01*
X265856309Y-104937571D01*
X265856308Y-104937571D01*
X265692520Y-105005414D01*
X265518644Y-105040000D01*
X265341356Y-105040000D01*
X265167480Y-105005414D01*
X265003692Y-104937571D01*
X265003691Y-104937571D01*
X265003690Y-104937570D01*
X264856283Y-104839076D01*
X264730924Y-104713717D01*
X264632430Y-104566310D01*
X264564586Y-104402520D01*
X264530000Y-104228642D01*
X264530000Y-104051358D01*
X264564586Y-103877480D01*
X264632430Y-103713690D01*
X264730924Y-103566283D01*
X264856283Y-103440924D01*
X265003690Y-103342430D01*
X265167480Y-103274586D01*
X265341356Y-103240000D01*
X265518644Y-103240000D01*
X265692520Y-103274586D01*
G37*
G36*
X226626627Y-103302299D02*
G01*
X226706742Y-103326601D01*
X226786855Y-103350903D01*
X226786857Y-103350904D01*
X226934518Y-103429831D01*
X227063949Y-103536051D01*
X227170169Y-103665482D01*
X227249096Y-103813143D01*
X227297701Y-103973373D01*
X227314112Y-104140000D01*
X227297701Y-104306627D01*
X227249096Y-104466857D01*
X227170169Y-104614518D01*
X227063949Y-104743949D01*
X226934518Y-104850169D01*
X226786857Y-104929096D01*
X226786855Y-104929097D01*
X226758919Y-104937571D01*
X226626627Y-104977701D01*
X226501752Y-104990000D01*
X225618248Y-104990000D01*
X225493373Y-104977701D01*
X225361081Y-104937571D01*
X225333145Y-104929097D01*
X225333143Y-104929096D01*
X225185482Y-104850169D01*
X225056051Y-104743949D01*
X224949831Y-104614518D01*
X224870904Y-104466857D01*
X224822299Y-104306627D01*
X224805888Y-104140000D01*
X224822299Y-103973373D01*
X224870904Y-103813143D01*
X224949831Y-103665482D01*
X225056051Y-103536051D01*
X225185482Y-103429831D01*
X225333143Y-103350904D01*
X225333145Y-103350903D01*
X225413258Y-103326602D01*
X225493373Y-103302299D01*
X225618248Y-103290000D01*
X226501752Y-103290000D01*
X226626627Y-103302299D01*
G37*
G36*
X234246627Y-103302299D02*
G01*
X234326742Y-103326601D01*
X234406855Y-103350903D01*
X234406857Y-103350904D01*
X234554518Y-103429831D01*
X234683949Y-103536051D01*
X234790169Y-103665482D01*
X234869096Y-103813143D01*
X234917701Y-103973373D01*
X234934112Y-104140000D01*
X234917701Y-104306627D01*
X234869096Y-104466857D01*
X234790169Y-104614518D01*
X234683949Y-104743949D01*
X234554518Y-104850169D01*
X234406857Y-104929096D01*
X234406855Y-104929097D01*
X234378919Y-104937571D01*
X234246627Y-104977701D01*
X234121752Y-104990000D01*
X233238248Y-104990000D01*
X233113373Y-104977701D01*
X232981081Y-104937571D01*
X232953145Y-104929097D01*
X232953143Y-104929096D01*
X232805482Y-104850169D01*
X232676051Y-104743949D01*
X232569831Y-104614518D01*
X232490904Y-104466857D01*
X232442299Y-104306627D01*
X232425888Y-104140000D01*
X232442299Y-103973373D01*
X232490904Y-103813143D01*
X232569831Y-103665482D01*
X232676051Y-103536051D01*
X232805482Y-103429831D01*
X232953143Y-103350904D01*
X232953145Y-103350903D01*
X233033258Y-103326602D01*
X233113373Y-103302299D01*
X233238248Y-103290000D01*
X234121752Y-103290000D01*
X234246627Y-103302299D01*
G37*
G36*
X255201627Y-103302299D02*
G01*
X255281742Y-103326601D01*
X255361855Y-103350903D01*
X255361857Y-103350904D01*
X255509518Y-103429831D01*
X255638949Y-103536051D01*
X255745169Y-103665482D01*
X255824096Y-103813143D01*
X255872701Y-103973373D01*
X255889112Y-104140000D01*
X255872701Y-104306627D01*
X255824096Y-104466857D01*
X255745169Y-104614518D01*
X255638949Y-104743949D01*
X255509518Y-104850169D01*
X255361857Y-104929096D01*
X255361855Y-104929097D01*
X255333919Y-104937571D01*
X255201627Y-104977701D01*
X255076752Y-104990000D01*
X254193248Y-104990000D01*
X254068373Y-104977701D01*
X253936081Y-104937571D01*
X253908145Y-104929097D01*
X253908143Y-104929096D01*
X253760482Y-104850169D01*
X253631051Y-104743949D01*
X253524831Y-104614518D01*
X253445904Y-104466857D01*
X253397299Y-104306627D01*
X253380888Y-104140000D01*
X253397299Y-103973373D01*
X253445904Y-103813143D01*
X253524831Y-103665482D01*
X253631051Y-103536051D01*
X253760482Y-103429831D01*
X253908143Y-103350904D01*
X253908145Y-103350903D01*
X253988258Y-103326602D01*
X254068373Y-103302299D01*
X254193248Y-103290000D01*
X255076752Y-103290000D01*
X255201627Y-103302299D01*
G37*
G36*
X247581627Y-103302299D02*
G01*
X247661742Y-103326601D01*
X247741855Y-103350903D01*
X247741857Y-103350904D01*
X247889518Y-103429831D01*
X248018949Y-103536051D01*
X248125169Y-103665482D01*
X248204096Y-103813143D01*
X248252701Y-103973373D01*
X248269112Y-104140000D01*
X248252701Y-104306627D01*
X248204096Y-104466857D01*
X248125169Y-104614518D01*
X248018949Y-104743949D01*
X247889518Y-104850169D01*
X247741857Y-104929096D01*
X247741855Y-104929097D01*
X247713919Y-104937571D01*
X247581627Y-104977701D01*
X247456752Y-104990000D01*
X246573248Y-104990000D01*
X246448373Y-104977701D01*
X246316081Y-104937571D01*
X246288145Y-104929097D01*
X246288143Y-104929096D01*
X246140482Y-104850169D01*
X246011051Y-104743949D01*
X245904831Y-104614518D01*
X245825904Y-104466857D01*
X245777299Y-104306627D01*
X245760888Y-104140000D01*
X245777299Y-103973373D01*
X245825904Y-103813143D01*
X245904831Y-103665482D01*
X246011051Y-103536051D01*
X246140482Y-103429831D01*
X246288143Y-103350904D01*
X246288145Y-103350903D01*
X246368258Y-103326602D01*
X246448373Y-103302299D01*
X246573248Y-103290000D01*
X247456752Y-103290000D01*
X247581627Y-103302299D01*
G37*
G36*
X195842520Y-100734586D02*
G01*
X196006310Y-100802430D01*
X196153717Y-100900924D01*
X196279076Y-101026283D01*
X196377570Y-101173690D01*
X196445414Y-101337480D01*
X196480000Y-101511358D01*
X196480000Y-101688642D01*
X196445414Y-101862520D01*
X196377570Y-102026310D01*
X196279076Y-102173717D01*
X196153717Y-102299076D01*
X196006310Y-102397570D01*
X196006309Y-102397571D01*
X196006308Y-102397571D01*
X195842520Y-102465414D01*
X195668644Y-102500000D01*
X195491356Y-102500000D01*
X195317480Y-102465414D01*
X195153692Y-102397571D01*
X195153691Y-102397571D01*
X195153690Y-102397570D01*
X195006283Y-102299076D01*
X194880924Y-102173717D01*
X194782430Y-102026310D01*
X194714586Y-101862520D01*
X194680000Y-101688642D01*
X194680000Y-101511358D01*
X194714586Y-101337480D01*
X194782430Y-101173690D01*
X194880924Y-101026283D01*
X195006283Y-100900924D01*
X195153690Y-100802430D01*
X195317480Y-100734586D01*
X195491356Y-100700000D01*
X195668644Y-100700000D01*
X195842520Y-100734586D01*
G37*
G36*
X191400000Y-102500000D02*
G01*
X189600000Y-102500000D01*
X189600000Y-100700000D01*
X191400000Y-100700000D01*
X191400000Y-102500000D01*
G37*
G36*
X207907520Y-100734586D02*
G01*
X208071310Y-100802430D01*
X208218717Y-100900924D01*
X208344076Y-101026283D01*
X208442570Y-101173690D01*
X208510414Y-101337480D01*
X208545000Y-101511358D01*
X208545000Y-101688642D01*
X208510414Y-101862520D01*
X208442570Y-102026310D01*
X208344076Y-102173717D01*
X208218717Y-102299076D01*
X208071310Y-102397570D01*
X208071309Y-102397571D01*
X208071308Y-102397571D01*
X207907520Y-102465414D01*
X207733644Y-102500000D01*
X207556356Y-102500000D01*
X207382480Y-102465414D01*
X207218692Y-102397571D01*
X207218691Y-102397571D01*
X207218690Y-102397570D01*
X207071283Y-102299076D01*
X206945924Y-102173717D01*
X206847430Y-102026310D01*
X206779586Y-101862520D01*
X206745000Y-101688642D01*
X206745000Y-101511358D01*
X206779586Y-101337480D01*
X206847430Y-101173690D01*
X206945924Y-101026283D01*
X207071283Y-100900924D01*
X207218690Y-100802430D01*
X207382480Y-100734586D01*
X207556356Y-100700000D01*
X207733644Y-100700000D01*
X207907520Y-100734586D01*
G37*
G36*
X268232520Y-100734586D02*
G01*
X268396310Y-100802430D01*
X268543717Y-100900924D01*
X268669076Y-101026283D01*
X268767570Y-101173690D01*
X268835414Y-101337480D01*
X268870000Y-101511358D01*
X268870000Y-101688642D01*
X268835414Y-101862520D01*
X268767570Y-102026310D01*
X268669076Y-102173717D01*
X268543717Y-102299076D01*
X268396310Y-102397570D01*
X268396309Y-102397571D01*
X268396308Y-102397571D01*
X268232520Y-102465414D01*
X268058644Y-102500000D01*
X267881356Y-102500000D01*
X267707480Y-102465414D01*
X267543692Y-102397571D01*
X267543691Y-102397571D01*
X267543690Y-102397570D01*
X267396283Y-102299076D01*
X267270924Y-102173717D01*
X267172430Y-102026310D01*
X267104586Y-101862520D01*
X267070000Y-101688642D01*
X267070000Y-101511358D01*
X267104586Y-101337480D01*
X267172430Y-101173690D01*
X267270924Y-101026283D01*
X267396283Y-100900924D01*
X267543690Y-100802430D01*
X267707480Y-100734586D01*
X267881356Y-100700000D01*
X268058644Y-100700000D01*
X268232520Y-100734586D01*
G37*
G36*
X265692520Y-100734586D02*
G01*
X265856310Y-100802430D01*
X266003717Y-100900924D01*
X266129076Y-101026283D01*
X266227570Y-101173690D01*
X266295414Y-101337480D01*
X266330000Y-101511358D01*
X266330000Y-101688642D01*
X266295414Y-101862520D01*
X266227570Y-102026310D01*
X266129076Y-102173717D01*
X266003717Y-102299076D01*
X265856310Y-102397570D01*
X265856309Y-102397571D01*
X265856308Y-102397571D01*
X265692520Y-102465414D01*
X265518644Y-102500000D01*
X265341356Y-102500000D01*
X265167480Y-102465414D01*
X265003692Y-102397571D01*
X265003691Y-102397571D01*
X265003690Y-102397570D01*
X264856283Y-102299076D01*
X264730924Y-102173717D01*
X264632430Y-102026310D01*
X264564586Y-101862520D01*
X264530000Y-101688642D01*
X264530000Y-101511358D01*
X264564586Y-101337480D01*
X264632430Y-101173690D01*
X264730924Y-101026283D01*
X264856283Y-100900924D01*
X265003690Y-100802430D01*
X265167480Y-100734586D01*
X265341356Y-100700000D01*
X265518644Y-100700000D01*
X265692520Y-100734586D01*
G37*
G36*
X205367520Y-100734586D02*
G01*
X205531310Y-100802430D01*
X205678717Y-100900924D01*
X205804076Y-101026283D01*
X205902570Y-101173690D01*
X205970414Y-101337480D01*
X206005000Y-101511358D01*
X206005000Y-101688642D01*
X205970414Y-101862520D01*
X205902570Y-102026310D01*
X205804076Y-102173717D01*
X205678717Y-102299076D01*
X205531310Y-102397570D01*
X205531309Y-102397571D01*
X205531308Y-102397571D01*
X205367520Y-102465414D01*
X205193644Y-102500000D01*
X205016356Y-102500000D01*
X204842480Y-102465414D01*
X204678692Y-102397571D01*
X204678691Y-102397571D01*
X204678690Y-102397570D01*
X204531283Y-102299076D01*
X204405924Y-102173717D01*
X204307430Y-102026310D01*
X204239586Y-101862520D01*
X204205000Y-101688642D01*
X204205000Y-101511358D01*
X204239586Y-101337480D01*
X204307430Y-101173690D01*
X204405924Y-101026283D01*
X204531283Y-100900924D01*
X204678690Y-100802430D01*
X204842480Y-100734586D01*
X205016356Y-100700000D01*
X205193644Y-100700000D01*
X205367520Y-100734586D01*
G37*
G36*
X193302520Y-100734586D02*
G01*
X193466310Y-100802430D01*
X193613717Y-100900924D01*
X193739076Y-101026283D01*
X193837570Y-101173690D01*
X193905414Y-101337480D01*
X193940000Y-101511358D01*
X193940000Y-101688642D01*
X193905414Y-101862520D01*
X193837570Y-102026310D01*
X193739076Y-102173717D01*
X193613717Y-102299076D01*
X193466310Y-102397570D01*
X193466309Y-102397571D01*
X193466308Y-102397571D01*
X193302520Y-102465414D01*
X193128644Y-102500000D01*
X192951356Y-102500000D01*
X192777480Y-102465414D01*
X192613692Y-102397571D01*
X192613691Y-102397571D01*
X192613690Y-102397570D01*
X192466283Y-102299076D01*
X192340924Y-102173717D01*
X192242430Y-102026310D01*
X192174586Y-101862520D01*
X192140000Y-101688642D01*
X192140000Y-101511358D01*
X192174586Y-101337480D01*
X192242430Y-101173690D01*
X192340924Y-101026283D01*
X192466283Y-100900924D01*
X192613690Y-100802430D01*
X192777480Y-100734586D01*
X192951356Y-100700000D01*
X193128644Y-100700000D01*
X193302520Y-100734586D01*
G37*
G36*
X234246627Y-100762299D02*
G01*
X234326742Y-100786601D01*
X234406855Y-100810903D01*
X234406857Y-100810904D01*
X234554518Y-100889831D01*
X234683949Y-100996051D01*
X234790169Y-101125482D01*
X234869096Y-101273143D01*
X234917701Y-101433373D01*
X234934112Y-101600000D01*
X234917701Y-101766627D01*
X234869096Y-101926857D01*
X234790169Y-102074518D01*
X234683949Y-102203949D01*
X234554518Y-102310169D01*
X234406857Y-102389096D01*
X234406855Y-102389097D01*
X234378919Y-102397571D01*
X234246627Y-102437701D01*
X234121752Y-102450000D01*
X233238248Y-102450000D01*
X233113373Y-102437701D01*
X232981081Y-102397571D01*
X232953145Y-102389097D01*
X232953143Y-102389096D01*
X232805482Y-102310169D01*
X232676051Y-102203949D01*
X232569831Y-102074518D01*
X232490904Y-101926857D01*
X232442299Y-101766627D01*
X232425888Y-101600000D01*
X232442299Y-101433373D01*
X232490904Y-101273143D01*
X232569831Y-101125482D01*
X232676051Y-100996051D01*
X232805482Y-100889831D01*
X232953143Y-100810904D01*
X232953145Y-100810903D01*
X233033258Y-100786601D01*
X233113373Y-100762299D01*
X233238248Y-100750000D01*
X234121752Y-100750000D01*
X234246627Y-100762299D01*
G37*
G36*
X226626627Y-100762299D02*
G01*
X226706742Y-100786601D01*
X226786855Y-100810903D01*
X226786857Y-100810904D01*
X226934518Y-100889831D01*
X227063949Y-100996051D01*
X227170169Y-101125482D01*
X227249096Y-101273143D01*
X227297701Y-101433373D01*
X227314112Y-101600000D01*
X227297701Y-101766627D01*
X227249096Y-101926857D01*
X227170169Y-102074518D01*
X227063949Y-102203949D01*
X226934518Y-102310169D01*
X226786857Y-102389096D01*
X226786855Y-102389097D01*
X226758919Y-102397571D01*
X226626627Y-102437701D01*
X226501752Y-102450000D01*
X225618248Y-102450000D01*
X225493373Y-102437701D01*
X225361081Y-102397571D01*
X225333145Y-102389097D01*
X225333143Y-102389096D01*
X225185482Y-102310169D01*
X225056051Y-102203949D01*
X224949831Y-102074518D01*
X224870904Y-101926857D01*
X224822299Y-101766627D01*
X224805888Y-101600000D01*
X224822299Y-101433373D01*
X224870904Y-101273143D01*
X224949831Y-101125482D01*
X225056051Y-100996051D01*
X225185482Y-100889831D01*
X225333143Y-100810904D01*
X225333145Y-100810903D01*
X225413258Y-100786601D01*
X225493373Y-100762299D01*
X225618248Y-100750000D01*
X226501752Y-100750000D01*
X226626627Y-100762299D01*
G37*
G36*
X247581627Y-100762299D02*
G01*
X247661742Y-100786601D01*
X247741855Y-100810903D01*
X247741857Y-100810904D01*
X247889518Y-100889831D01*
X248018949Y-100996051D01*
X248125169Y-101125482D01*
X248204096Y-101273143D01*
X248252701Y-101433373D01*
X248269112Y-101600000D01*
X248252701Y-101766627D01*
X248204096Y-101926857D01*
X248125169Y-102074518D01*
X248018949Y-102203949D01*
X247889518Y-102310169D01*
X247741857Y-102389096D01*
X247741855Y-102389097D01*
X247713919Y-102397571D01*
X247581627Y-102437701D01*
X247456752Y-102450000D01*
X246573248Y-102450000D01*
X246448373Y-102437701D01*
X246316081Y-102397571D01*
X246288145Y-102389097D01*
X246288143Y-102389096D01*
X246140482Y-102310169D01*
X246011051Y-102203949D01*
X245904831Y-102074518D01*
X245825904Y-101926857D01*
X245777299Y-101766627D01*
X245760888Y-101600000D01*
X245777299Y-101433373D01*
X245825904Y-101273143D01*
X245904831Y-101125482D01*
X246011051Y-100996051D01*
X246140482Y-100889831D01*
X246288143Y-100810904D01*
X246288145Y-100810903D01*
X246368258Y-100786601D01*
X246448373Y-100762299D01*
X246573248Y-100750000D01*
X247456752Y-100750000D01*
X247581627Y-100762299D01*
G37*
G36*
X255201627Y-100762299D02*
G01*
X255281742Y-100786601D01*
X255361855Y-100810903D01*
X255361857Y-100810904D01*
X255509518Y-100889831D01*
X255638949Y-100996051D01*
X255745169Y-101125482D01*
X255824096Y-101273143D01*
X255872701Y-101433373D01*
X255889112Y-101600000D01*
X255872701Y-101766627D01*
X255824096Y-101926857D01*
X255745169Y-102074518D01*
X255638949Y-102203949D01*
X255509518Y-102310169D01*
X255361857Y-102389096D01*
X255361855Y-102389097D01*
X255333919Y-102397571D01*
X255201627Y-102437701D01*
X255076752Y-102450000D01*
X254193248Y-102450000D01*
X254068373Y-102437701D01*
X253936081Y-102397571D01*
X253908145Y-102389097D01*
X253908143Y-102389096D01*
X253760482Y-102310169D01*
X253631051Y-102203949D01*
X253524831Y-102074518D01*
X253445904Y-101926857D01*
X253397299Y-101766627D01*
X253380888Y-101600000D01*
X253397299Y-101433373D01*
X253445904Y-101273143D01*
X253524831Y-101125482D01*
X253631051Y-100996051D01*
X253760482Y-100889831D01*
X253908143Y-100810904D01*
X253908145Y-100810903D01*
X253988258Y-100786601D01*
X254068373Y-100762299D01*
X254193248Y-100750000D01*
X255076752Y-100750000D01*
X255201627Y-100762299D01*
G37*
G36*
X205367520Y-98194586D02*
G01*
X205531310Y-98262430D01*
X205678717Y-98360924D01*
X205804076Y-98486283D01*
X205902570Y-98633690D01*
X205970414Y-98797480D01*
X206005000Y-98971358D01*
X206005000Y-99148642D01*
X205970414Y-99322520D01*
X205902570Y-99486310D01*
X205804076Y-99633717D01*
X205678717Y-99759076D01*
X205531310Y-99857570D01*
X205531309Y-99857571D01*
X205531308Y-99857571D01*
X205367520Y-99925414D01*
X205193644Y-99960000D01*
X205016356Y-99960000D01*
X204842480Y-99925414D01*
X204678692Y-99857571D01*
X204678691Y-99857571D01*
X204678690Y-99857570D01*
X204531283Y-99759076D01*
X204405924Y-99633717D01*
X204307430Y-99486310D01*
X204239586Y-99322520D01*
X204205000Y-99148642D01*
X204205000Y-98971358D01*
X204239586Y-98797480D01*
X204307430Y-98633690D01*
X204405924Y-98486283D01*
X204531283Y-98360924D01*
X204678690Y-98262430D01*
X204842480Y-98194586D01*
X205016356Y-98160000D01*
X205193644Y-98160000D01*
X205367520Y-98194586D01*
G37*
G36*
X207907520Y-98194586D02*
G01*
X208071310Y-98262430D01*
X208218717Y-98360924D01*
X208344076Y-98486283D01*
X208442570Y-98633690D01*
X208510414Y-98797480D01*
X208545000Y-98971358D01*
X208545000Y-99148642D01*
X208510414Y-99322520D01*
X208442570Y-99486310D01*
X208344076Y-99633717D01*
X208218717Y-99759076D01*
X208071310Y-99857570D01*
X208071309Y-99857571D01*
X208071308Y-99857571D01*
X207907520Y-99925414D01*
X207733644Y-99960000D01*
X207556356Y-99960000D01*
X207382480Y-99925414D01*
X207218692Y-99857571D01*
X207218691Y-99857571D01*
X207218690Y-99857570D01*
X207071283Y-99759076D01*
X206945924Y-99633717D01*
X206847430Y-99486310D01*
X206779586Y-99322520D01*
X206745000Y-99148642D01*
X206745000Y-98971358D01*
X206779586Y-98797480D01*
X206847430Y-98633690D01*
X206945924Y-98486283D01*
X207071283Y-98360924D01*
X207218690Y-98262430D01*
X207382480Y-98194586D01*
X207556356Y-98160000D01*
X207733644Y-98160000D01*
X207907520Y-98194586D01*
G37*
G36*
X265692520Y-98194586D02*
G01*
X265856310Y-98262430D01*
X266003717Y-98360924D01*
X266129076Y-98486283D01*
X266227570Y-98633690D01*
X266295414Y-98797480D01*
X266330000Y-98971358D01*
X266330000Y-99148642D01*
X266295414Y-99322520D01*
X266227570Y-99486310D01*
X266129076Y-99633717D01*
X266003717Y-99759076D01*
X265856310Y-99857570D01*
X265856309Y-99857571D01*
X265856308Y-99857571D01*
X265692520Y-99925414D01*
X265518644Y-99960000D01*
X265341356Y-99960000D01*
X265167480Y-99925414D01*
X265003692Y-99857571D01*
X265003691Y-99857571D01*
X265003690Y-99857570D01*
X264856283Y-99759076D01*
X264730924Y-99633717D01*
X264632430Y-99486310D01*
X264564586Y-99322520D01*
X264530000Y-99148642D01*
X264530000Y-98971358D01*
X264564586Y-98797480D01*
X264632430Y-98633690D01*
X264730924Y-98486283D01*
X264856283Y-98360924D01*
X265003690Y-98262430D01*
X265167480Y-98194586D01*
X265341356Y-98160000D01*
X265518644Y-98160000D01*
X265692520Y-98194586D01*
G37*
G36*
X268232520Y-98194586D02*
G01*
X268396310Y-98262430D01*
X268543717Y-98360924D01*
X268669076Y-98486283D01*
X268767570Y-98633690D01*
X268835414Y-98797480D01*
X268870000Y-98971358D01*
X268870000Y-99148642D01*
X268835414Y-99322520D01*
X268767570Y-99486310D01*
X268669076Y-99633717D01*
X268543717Y-99759076D01*
X268396310Y-99857570D01*
X268396309Y-99857571D01*
X268396308Y-99857571D01*
X268232520Y-99925414D01*
X268058644Y-99960000D01*
X267881356Y-99960000D01*
X267707480Y-99925414D01*
X267543692Y-99857571D01*
X267543691Y-99857571D01*
X267543690Y-99857570D01*
X267396283Y-99759076D01*
X267270924Y-99633717D01*
X267172430Y-99486310D01*
X267104586Y-99322520D01*
X267070000Y-99148642D01*
X267070000Y-98971358D01*
X267104586Y-98797480D01*
X267172430Y-98633690D01*
X267270924Y-98486283D01*
X267396283Y-98360924D01*
X267543690Y-98262430D01*
X267707480Y-98194586D01*
X267881356Y-98160000D01*
X268058644Y-98160000D01*
X268232520Y-98194586D01*
G37*
G36*
X226626627Y-98222299D02*
G01*
X226706742Y-98246601D01*
X226786855Y-98270903D01*
X226786857Y-98270904D01*
X226934518Y-98349831D01*
X227063949Y-98456051D01*
X227170169Y-98585482D01*
X227249096Y-98733143D01*
X227297701Y-98893373D01*
X227314112Y-99060000D01*
X227297701Y-99226627D01*
X227249096Y-99386857D01*
X227170169Y-99534518D01*
X227063949Y-99663949D01*
X226934518Y-99770169D01*
X226786857Y-99849096D01*
X226786855Y-99849097D01*
X226758919Y-99857571D01*
X226626627Y-99897701D01*
X226501752Y-99910000D01*
X225618248Y-99910000D01*
X225493373Y-99897701D01*
X225361081Y-99857571D01*
X225333145Y-99849097D01*
X225333143Y-99849096D01*
X225185482Y-99770169D01*
X225056051Y-99663949D01*
X224949831Y-99534518D01*
X224870904Y-99386857D01*
X224822299Y-99226627D01*
X224805888Y-99060000D01*
X224822299Y-98893373D01*
X224870904Y-98733143D01*
X224949831Y-98585482D01*
X225056051Y-98456051D01*
X225185482Y-98349831D01*
X225333143Y-98270904D01*
X225333145Y-98270903D01*
X225413258Y-98246601D01*
X225493373Y-98222299D01*
X225618248Y-98210000D01*
X226501752Y-98210000D01*
X226626627Y-98222299D01*
G37*
G36*
X234246627Y-98222299D02*
G01*
X234326742Y-98246601D01*
X234406855Y-98270903D01*
X234406857Y-98270904D01*
X234554518Y-98349831D01*
X234683949Y-98456051D01*
X234790169Y-98585482D01*
X234869096Y-98733143D01*
X234917701Y-98893373D01*
X234934112Y-99060000D01*
X234917701Y-99226627D01*
X234869096Y-99386857D01*
X234790169Y-99534518D01*
X234683949Y-99663949D01*
X234554518Y-99770169D01*
X234406857Y-99849096D01*
X234406855Y-99849097D01*
X234378919Y-99857571D01*
X234246627Y-99897701D01*
X234121752Y-99910000D01*
X233238248Y-99910000D01*
X233113373Y-99897701D01*
X232981081Y-99857571D01*
X232953145Y-99849097D01*
X232953143Y-99849096D01*
X232805482Y-99770169D01*
X232676051Y-99663949D01*
X232569831Y-99534518D01*
X232490904Y-99386857D01*
X232442299Y-99226627D01*
X232425888Y-99060000D01*
X232442299Y-98893373D01*
X232490904Y-98733143D01*
X232569831Y-98585482D01*
X232676051Y-98456051D01*
X232805482Y-98349831D01*
X232953143Y-98270904D01*
X232953145Y-98270903D01*
X233033258Y-98246601D01*
X233113373Y-98222299D01*
X233238248Y-98210000D01*
X234121752Y-98210000D01*
X234246627Y-98222299D01*
G37*
G36*
X255201627Y-98222299D02*
G01*
X255281742Y-98246601D01*
X255361855Y-98270903D01*
X255361857Y-98270904D01*
X255509518Y-98349831D01*
X255638949Y-98456051D01*
X255745169Y-98585482D01*
X255824096Y-98733143D01*
X255872701Y-98893373D01*
X255889112Y-99060000D01*
X255872701Y-99226627D01*
X255824096Y-99386857D01*
X255745169Y-99534518D01*
X255638949Y-99663949D01*
X255509518Y-99770169D01*
X255361857Y-99849096D01*
X255361855Y-99849097D01*
X255333919Y-99857571D01*
X255201627Y-99897701D01*
X255076752Y-99910000D01*
X254193248Y-99910000D01*
X254068373Y-99897701D01*
X253936081Y-99857571D01*
X253908145Y-99849097D01*
X253908143Y-99849096D01*
X253760482Y-99770169D01*
X253631051Y-99663949D01*
X253524831Y-99534518D01*
X253445904Y-99386857D01*
X253397299Y-99226627D01*
X253380888Y-99060000D01*
X253397299Y-98893373D01*
X253445904Y-98733143D01*
X253524831Y-98585482D01*
X253631051Y-98456051D01*
X253760482Y-98349831D01*
X253908143Y-98270904D01*
X253908145Y-98270903D01*
X253988258Y-98246601D01*
X254068373Y-98222299D01*
X254193248Y-98210000D01*
X255076752Y-98210000D01*
X255201627Y-98222299D01*
G37*
G36*
X247581627Y-98222299D02*
G01*
X247661742Y-98246601D01*
X247741855Y-98270903D01*
X247741857Y-98270904D01*
X247889518Y-98349831D01*
X248018949Y-98456051D01*
X248125169Y-98585482D01*
X248204096Y-98733143D01*
X248252701Y-98893373D01*
X248269112Y-99060000D01*
X248252701Y-99226627D01*
X248204096Y-99386857D01*
X248125169Y-99534518D01*
X248018949Y-99663949D01*
X247889518Y-99770169D01*
X247741857Y-99849096D01*
X247741855Y-99849097D01*
X247713919Y-99857571D01*
X247581627Y-99897701D01*
X247456752Y-99910000D01*
X246573248Y-99910000D01*
X246448373Y-99897701D01*
X246316081Y-99857571D01*
X246288145Y-99849097D01*
X246288143Y-99849096D01*
X246140482Y-99770169D01*
X246011051Y-99663949D01*
X245904831Y-99534518D01*
X245825904Y-99386857D01*
X245777299Y-99226627D01*
X245760888Y-99060000D01*
X245777299Y-98893373D01*
X245825904Y-98733143D01*
X245904831Y-98585482D01*
X246011051Y-98456051D01*
X246140482Y-98349831D01*
X246288143Y-98270904D01*
X246288145Y-98270903D01*
X246368258Y-98246601D01*
X246448373Y-98222299D01*
X246573248Y-98210000D01*
X247456752Y-98210000D01*
X247581627Y-98222299D01*
G37*
G36*
X268232520Y-95654586D02*
G01*
X268396310Y-95722430D01*
X268543717Y-95820924D01*
X268669076Y-95946283D01*
X268767570Y-96093690D01*
X268835414Y-96257480D01*
X268870000Y-96431358D01*
X268870000Y-96608642D01*
X268835414Y-96782520D01*
X268767570Y-96946310D01*
X268669076Y-97093717D01*
X268543717Y-97219076D01*
X268396310Y-97317570D01*
X268396309Y-97317571D01*
X268396308Y-97317571D01*
X268232520Y-97385414D01*
X268058644Y-97420000D01*
X267881356Y-97420000D01*
X267707480Y-97385414D01*
X267543692Y-97317571D01*
X267543691Y-97317571D01*
X267543690Y-97317570D01*
X267396283Y-97219076D01*
X267270924Y-97093717D01*
X267172430Y-96946310D01*
X267104586Y-96782520D01*
X267070000Y-96608642D01*
X267070000Y-96431358D01*
X267104586Y-96257480D01*
X267172430Y-96093690D01*
X267270924Y-95946283D01*
X267396283Y-95820924D01*
X267543690Y-95722430D01*
X267707480Y-95654586D01*
X267881356Y-95620000D01*
X268058644Y-95620000D01*
X268232520Y-95654586D01*
G37*
G36*
X265692520Y-95654586D02*
G01*
X265856310Y-95722430D01*
X266003717Y-95820924D01*
X266129076Y-95946283D01*
X266227570Y-96093690D01*
X266295414Y-96257480D01*
X266330000Y-96431358D01*
X266330000Y-96608642D01*
X266295414Y-96782520D01*
X266227570Y-96946310D01*
X266129076Y-97093717D01*
X266003717Y-97219076D01*
X265856310Y-97317570D01*
X265856309Y-97317571D01*
X265856308Y-97317571D01*
X265692520Y-97385414D01*
X265518644Y-97420000D01*
X265341356Y-97420000D01*
X265167480Y-97385414D01*
X265003692Y-97317571D01*
X265003691Y-97317571D01*
X265003690Y-97317570D01*
X264856283Y-97219076D01*
X264730924Y-97093717D01*
X264632430Y-96946310D01*
X264564586Y-96782520D01*
X264530000Y-96608642D01*
X264530000Y-96431358D01*
X264564586Y-96257480D01*
X264632430Y-96093690D01*
X264730924Y-95946283D01*
X264856283Y-95820924D01*
X265003690Y-95722430D01*
X265167480Y-95654586D01*
X265341356Y-95620000D01*
X265518644Y-95620000D01*
X265692520Y-95654586D01*
G37*
G36*
X207907520Y-95654586D02*
G01*
X208071310Y-95722430D01*
X208218717Y-95820924D01*
X208344076Y-95946283D01*
X208442570Y-96093690D01*
X208510414Y-96257480D01*
X208545000Y-96431358D01*
X208545000Y-96608642D01*
X208510414Y-96782520D01*
X208442570Y-96946310D01*
X208344076Y-97093717D01*
X208218717Y-97219076D01*
X208071310Y-97317570D01*
X208071309Y-97317571D01*
X208071308Y-97317571D01*
X207907520Y-97385414D01*
X207733644Y-97420000D01*
X207556356Y-97420000D01*
X207382480Y-97385414D01*
X207218692Y-97317571D01*
X207218691Y-97317571D01*
X207218690Y-97317570D01*
X207071283Y-97219076D01*
X206945924Y-97093717D01*
X206847430Y-96946310D01*
X206779586Y-96782520D01*
X206745000Y-96608642D01*
X206745000Y-96431358D01*
X206779586Y-96257480D01*
X206847430Y-96093690D01*
X206945924Y-95946283D01*
X207071283Y-95820924D01*
X207218690Y-95722430D01*
X207382480Y-95654586D01*
X207556356Y-95620000D01*
X207733644Y-95620000D01*
X207907520Y-95654586D01*
G37*
G36*
X205367520Y-95654586D02*
G01*
X205531310Y-95722430D01*
X205678717Y-95820924D01*
X205804076Y-95946283D01*
X205902570Y-96093690D01*
X205970414Y-96257480D01*
X206005000Y-96431358D01*
X206005000Y-96608642D01*
X205970414Y-96782520D01*
X205902570Y-96946310D01*
X205804076Y-97093717D01*
X205678717Y-97219076D01*
X205531310Y-97317570D01*
X205531309Y-97317571D01*
X205531308Y-97317571D01*
X205367520Y-97385414D01*
X205193644Y-97420000D01*
X205016356Y-97420000D01*
X204842480Y-97385414D01*
X204678692Y-97317571D01*
X204678691Y-97317571D01*
X204678690Y-97317570D01*
X204531283Y-97219076D01*
X204405924Y-97093717D01*
X204307430Y-96946310D01*
X204239586Y-96782520D01*
X204205000Y-96608642D01*
X204205000Y-96431358D01*
X204239586Y-96257480D01*
X204307430Y-96093690D01*
X204405924Y-95946283D01*
X204531283Y-95820924D01*
X204678690Y-95722430D01*
X204842480Y-95654586D01*
X205016356Y-95620000D01*
X205193644Y-95620000D01*
X205367520Y-95654586D01*
G37*
G36*
X234246627Y-95682299D02*
G01*
X234326742Y-95706602D01*
X234406855Y-95730903D01*
X234406857Y-95730904D01*
X234554518Y-95809831D01*
X234683949Y-95916051D01*
X234790169Y-96045482D01*
X234869096Y-96193143D01*
X234917701Y-96353373D01*
X234934112Y-96520000D01*
X234917701Y-96686627D01*
X234869096Y-96846857D01*
X234790169Y-96994518D01*
X234683949Y-97123949D01*
X234554518Y-97230169D01*
X234406857Y-97309096D01*
X234406855Y-97309097D01*
X234378919Y-97317571D01*
X234246627Y-97357701D01*
X234121752Y-97370000D01*
X233238248Y-97370000D01*
X233113373Y-97357701D01*
X232981081Y-97317571D01*
X232953145Y-97309097D01*
X232953143Y-97309096D01*
X232805482Y-97230169D01*
X232676051Y-97123949D01*
X232569831Y-96994518D01*
X232490904Y-96846857D01*
X232442299Y-96686627D01*
X232425888Y-96520000D01*
X232442299Y-96353373D01*
X232490904Y-96193143D01*
X232569831Y-96045482D01*
X232676051Y-95916051D01*
X232805482Y-95809831D01*
X232953143Y-95730904D01*
X232953145Y-95730903D01*
X233033258Y-95706601D01*
X233113373Y-95682299D01*
X233238248Y-95670000D01*
X234121752Y-95670000D01*
X234246627Y-95682299D01*
G37*
G36*
X227310000Y-97370000D02*
G01*
X224810000Y-97370000D01*
X224810000Y-95670000D01*
X227310000Y-95670000D01*
X227310000Y-97370000D01*
G37*
G36*
X255201627Y-95682299D02*
G01*
X255281742Y-95706602D01*
X255361855Y-95730903D01*
X255361857Y-95730904D01*
X255509518Y-95809831D01*
X255638949Y-95916051D01*
X255745169Y-96045482D01*
X255824096Y-96193143D01*
X255872701Y-96353373D01*
X255889112Y-96520000D01*
X255872701Y-96686627D01*
X255824096Y-96846857D01*
X255745169Y-96994518D01*
X255638949Y-97123949D01*
X255509518Y-97230169D01*
X255361857Y-97309096D01*
X255361855Y-97309097D01*
X255333919Y-97317571D01*
X255201627Y-97357701D01*
X255076752Y-97370000D01*
X254193248Y-97370000D01*
X254068373Y-97357701D01*
X253936081Y-97317571D01*
X253908145Y-97309097D01*
X253908143Y-97309096D01*
X253760482Y-97230169D01*
X253631051Y-97123949D01*
X253524831Y-96994518D01*
X253445904Y-96846857D01*
X253397299Y-96686627D01*
X253380888Y-96520000D01*
X253397299Y-96353373D01*
X253445904Y-96193143D01*
X253524831Y-96045482D01*
X253631051Y-95916051D01*
X253760482Y-95809831D01*
X253908143Y-95730904D01*
X253908145Y-95730903D01*
X253988258Y-95706601D01*
X254068373Y-95682299D01*
X254193248Y-95670000D01*
X255076752Y-95670000D01*
X255201627Y-95682299D01*
G37*
G36*
X248265000Y-97370000D02*
G01*
X245765000Y-97370000D01*
X245765000Y-95670000D01*
X248265000Y-95670000D01*
X248265000Y-97370000D01*
G37*
G36*
X265692520Y-93114586D02*
G01*
X265856310Y-93182430D01*
X266003717Y-93280924D01*
X266129076Y-93406283D01*
X266227570Y-93553690D01*
X266295414Y-93717480D01*
X266330000Y-93891358D01*
X266330000Y-94068642D01*
X266295414Y-94242520D01*
X266227570Y-94406310D01*
X266129076Y-94553717D01*
X266003717Y-94679076D01*
X265856310Y-94777570D01*
X265856309Y-94777571D01*
X265856308Y-94777571D01*
X265692520Y-94845414D01*
X265518644Y-94880000D01*
X265341356Y-94880000D01*
X265167480Y-94845414D01*
X265003692Y-94777571D01*
X265003691Y-94777571D01*
X265003690Y-94777570D01*
X264856283Y-94679076D01*
X264730924Y-94553717D01*
X264632430Y-94406310D01*
X264564586Y-94242520D01*
X264530000Y-94068642D01*
X264530000Y-93891358D01*
X264564586Y-93717480D01*
X264632430Y-93553690D01*
X264730924Y-93406283D01*
X264856283Y-93280924D01*
X265003690Y-93182430D01*
X265167480Y-93114586D01*
X265341356Y-93080000D01*
X265518644Y-93080000D01*
X265692520Y-93114586D01*
G37*
G36*
X268232520Y-93114586D02*
G01*
X268396310Y-93182430D01*
X268543717Y-93280924D01*
X268669076Y-93406283D01*
X268767570Y-93553690D01*
X268835414Y-93717480D01*
X268870000Y-93891358D01*
X268870000Y-94068642D01*
X268835414Y-94242520D01*
X268767570Y-94406310D01*
X268669076Y-94553717D01*
X268543717Y-94679076D01*
X268396310Y-94777570D01*
X268396309Y-94777571D01*
X268396308Y-94777571D01*
X268232520Y-94845414D01*
X268058644Y-94880000D01*
X267881356Y-94880000D01*
X267707480Y-94845414D01*
X267543692Y-94777571D01*
X267543691Y-94777571D01*
X267543690Y-94777570D01*
X267396283Y-94679076D01*
X267270924Y-94553717D01*
X267172430Y-94406310D01*
X267104586Y-94242520D01*
X267070000Y-94068642D01*
X267070000Y-93891358D01*
X267104586Y-93717480D01*
X267172430Y-93553690D01*
X267270924Y-93406283D01*
X267396283Y-93280924D01*
X267543690Y-93182430D01*
X267707480Y-93114586D01*
X267881356Y-93080000D01*
X268058644Y-93080000D01*
X268232520Y-93114586D01*
G37*
G36*
X207907520Y-93114586D02*
G01*
X208071310Y-93182430D01*
X208218717Y-93280924D01*
X208344076Y-93406283D01*
X208442570Y-93553690D01*
X208510414Y-93717480D01*
X208545000Y-93891358D01*
X208545000Y-94068642D01*
X208510414Y-94242520D01*
X208442570Y-94406310D01*
X208344076Y-94553717D01*
X208218717Y-94679076D01*
X208071310Y-94777570D01*
X208071309Y-94777571D01*
X208071308Y-94777571D01*
X207907520Y-94845414D01*
X207733644Y-94880000D01*
X207556356Y-94880000D01*
X207382480Y-94845414D01*
X207218692Y-94777571D01*
X207218691Y-94777571D01*
X207218690Y-94777570D01*
X207071283Y-94679076D01*
X206945924Y-94553717D01*
X206847430Y-94406310D01*
X206779586Y-94242520D01*
X206745000Y-94068642D01*
X206745000Y-93891358D01*
X206779586Y-93717480D01*
X206847430Y-93553690D01*
X206945924Y-93406283D01*
X207071283Y-93280924D01*
X207218690Y-93182430D01*
X207382480Y-93114586D01*
X207556356Y-93080000D01*
X207733644Y-93080000D01*
X207907520Y-93114586D01*
G37*
G36*
X205367520Y-93114586D02*
G01*
X205531310Y-93182430D01*
X205678717Y-93280924D01*
X205804076Y-93406283D01*
X205902570Y-93553690D01*
X205970414Y-93717480D01*
X206005000Y-93891358D01*
X206005000Y-94068642D01*
X205970414Y-94242520D01*
X205902570Y-94406310D01*
X205804076Y-94553717D01*
X205678717Y-94679076D01*
X205531310Y-94777570D01*
X205531309Y-94777571D01*
X205531308Y-94777571D01*
X205367520Y-94845414D01*
X205193644Y-94880000D01*
X205016356Y-94880000D01*
X204842480Y-94845414D01*
X204678692Y-94777571D01*
X204678691Y-94777571D01*
X204678690Y-94777570D01*
X204531283Y-94679076D01*
X204405924Y-94553717D01*
X204307430Y-94406310D01*
X204239586Y-94242520D01*
X204205000Y-94068642D01*
X204205000Y-93891358D01*
X204239586Y-93717480D01*
X204307430Y-93553690D01*
X204405924Y-93406283D01*
X204531283Y-93280924D01*
X204678690Y-93182430D01*
X204842480Y-93114586D01*
X205016356Y-93080000D01*
X205193644Y-93080000D01*
X205367520Y-93114586D01*
G37*
G36*
X207907520Y-90574586D02*
G01*
X208071310Y-90642430D01*
X208218717Y-90740924D01*
X208344076Y-90866283D01*
X208442570Y-91013690D01*
X208510414Y-91177480D01*
X208545000Y-91351358D01*
X208545000Y-91528642D01*
X208510414Y-91702520D01*
X208442570Y-91866310D01*
X208344076Y-92013717D01*
X208218717Y-92139076D01*
X208071310Y-92237570D01*
X208071309Y-92237571D01*
X208071308Y-92237571D01*
X207907520Y-92305414D01*
X207733644Y-92340000D01*
X207556356Y-92340000D01*
X207382480Y-92305414D01*
X207218692Y-92237571D01*
X207218691Y-92237571D01*
X207218690Y-92237570D01*
X207071283Y-92139076D01*
X206945924Y-92013717D01*
X206847430Y-91866310D01*
X206779586Y-91702520D01*
X206745000Y-91528642D01*
X206745000Y-91351358D01*
X206779586Y-91177480D01*
X206847430Y-91013690D01*
X206945924Y-90866283D01*
X207071283Y-90740924D01*
X207218690Y-90642430D01*
X207382480Y-90574586D01*
X207556356Y-90540000D01*
X207733644Y-90540000D01*
X207907520Y-90574586D01*
G37*
G36*
X205367520Y-90574586D02*
G01*
X205531310Y-90642430D01*
X205678717Y-90740924D01*
X205804076Y-90866283D01*
X205902570Y-91013690D01*
X205970414Y-91177480D01*
X206005000Y-91351358D01*
X206005000Y-91528642D01*
X205970414Y-91702520D01*
X205902570Y-91866310D01*
X205804076Y-92013717D01*
X205678717Y-92139076D01*
X205531310Y-92237570D01*
X205531309Y-92237571D01*
X205531308Y-92237571D01*
X205367520Y-92305414D01*
X205193644Y-92340000D01*
X205016356Y-92340000D01*
X204842480Y-92305414D01*
X204678692Y-92237571D01*
X204678691Y-92237571D01*
X204678690Y-92237570D01*
X204531283Y-92139076D01*
X204405924Y-92013717D01*
X204307430Y-91866310D01*
X204239586Y-91702520D01*
X204205000Y-91528642D01*
X204205000Y-91351358D01*
X204239586Y-91177480D01*
X204307430Y-91013690D01*
X204405924Y-90866283D01*
X204531283Y-90740924D01*
X204678690Y-90642430D01*
X204842480Y-90574586D01*
X205016356Y-90540000D01*
X205193644Y-90540000D01*
X205367520Y-90574586D01*
G37*
G36*
X268232520Y-90574586D02*
G01*
X268396310Y-90642430D01*
X268543717Y-90740924D01*
X268669076Y-90866283D01*
X268767570Y-91013690D01*
X268835414Y-91177480D01*
X268870000Y-91351358D01*
X268870000Y-91528642D01*
X268835414Y-91702520D01*
X268767570Y-91866310D01*
X268669076Y-92013717D01*
X268543717Y-92139076D01*
X268396310Y-92237570D01*
X268396309Y-92237571D01*
X268396308Y-92237571D01*
X268232520Y-92305414D01*
X268058644Y-92340000D01*
X267881356Y-92340000D01*
X267707480Y-92305414D01*
X267543692Y-92237571D01*
X267543691Y-92237571D01*
X267543690Y-92237570D01*
X267396283Y-92139076D01*
X267270924Y-92013717D01*
X267172430Y-91866310D01*
X267104586Y-91702520D01*
X267070000Y-91528642D01*
X267070000Y-91351358D01*
X267104586Y-91177480D01*
X267172430Y-91013690D01*
X267270924Y-90866283D01*
X267396283Y-90740924D01*
X267543690Y-90642430D01*
X267707480Y-90574586D01*
X267881356Y-90540000D01*
X268058644Y-90540000D01*
X268232520Y-90574586D01*
G37*
G36*
X265692520Y-90574586D02*
G01*
X265856310Y-90642430D01*
X266003717Y-90740924D01*
X266129076Y-90866283D01*
X266227570Y-91013690D01*
X266295414Y-91177480D01*
X266330000Y-91351358D01*
X266330000Y-91528642D01*
X266295414Y-91702520D01*
X266227570Y-91866310D01*
X266129076Y-92013717D01*
X266003717Y-92139076D01*
X265856310Y-92237570D01*
X265856309Y-92237571D01*
X265856308Y-92237571D01*
X265692520Y-92305414D01*
X265518644Y-92340000D01*
X265341356Y-92340000D01*
X265167480Y-92305414D01*
X265003692Y-92237571D01*
X265003691Y-92237571D01*
X265003690Y-92237570D01*
X264856283Y-92139076D01*
X264730924Y-92013717D01*
X264632430Y-91866310D01*
X264564586Y-91702520D01*
X264530000Y-91528642D01*
X264530000Y-91351358D01*
X264564586Y-91177480D01*
X264632430Y-91013690D01*
X264730924Y-90866283D01*
X264856283Y-90740924D01*
X265003690Y-90642430D01*
X265167480Y-90574586D01*
X265341356Y-90540000D01*
X265518644Y-90540000D01*
X265692520Y-90574586D01*
G37*
G36*
X207907520Y-88034586D02*
G01*
X208071310Y-88102430D01*
X208218717Y-88200924D01*
X208344076Y-88326283D01*
X208442570Y-88473690D01*
X208510414Y-88637480D01*
X208545000Y-88811358D01*
X208545000Y-88988642D01*
X208510414Y-89162520D01*
X208442570Y-89326310D01*
X208344076Y-89473717D01*
X208218717Y-89599076D01*
X208071310Y-89697570D01*
X208071309Y-89697571D01*
X208071308Y-89697571D01*
X207907520Y-89765414D01*
X207733644Y-89800000D01*
X207556356Y-89800000D01*
X207382480Y-89765414D01*
X207218692Y-89697571D01*
X207218691Y-89697571D01*
X207218690Y-89697570D01*
X207071283Y-89599076D01*
X206945924Y-89473717D01*
X206847430Y-89326310D01*
X206779586Y-89162520D01*
X206745000Y-88988642D01*
X206745000Y-88811358D01*
X206779586Y-88637480D01*
X206847430Y-88473690D01*
X206945924Y-88326283D01*
X207071283Y-88200924D01*
X207218690Y-88102430D01*
X207382480Y-88034586D01*
X207556356Y-88000000D01*
X207733644Y-88000000D01*
X207907520Y-88034586D01*
G37*
G36*
X205367520Y-88034586D02*
G01*
X205531310Y-88102430D01*
X205678717Y-88200924D01*
X205804076Y-88326283D01*
X205902570Y-88473690D01*
X205970414Y-88637480D01*
X206005000Y-88811358D01*
X206005000Y-88988642D01*
X205970414Y-89162520D01*
X205902570Y-89326310D01*
X205804076Y-89473717D01*
X205678717Y-89599076D01*
X205531310Y-89697570D01*
X205531309Y-89697571D01*
X205531308Y-89697571D01*
X205367520Y-89765414D01*
X205193644Y-89800000D01*
X205016356Y-89800000D01*
X204842480Y-89765414D01*
X204678692Y-89697571D01*
X204678691Y-89697571D01*
X204678690Y-89697570D01*
X204531283Y-89599076D01*
X204405924Y-89473717D01*
X204307430Y-89326310D01*
X204239586Y-89162520D01*
X204205000Y-88988642D01*
X204205000Y-88811358D01*
X204239586Y-88637480D01*
X204307430Y-88473690D01*
X204405924Y-88326283D01*
X204531283Y-88200924D01*
X204678690Y-88102430D01*
X204842480Y-88034586D01*
X205016356Y-88000000D01*
X205193644Y-88000000D01*
X205367520Y-88034586D01*
G37*
G36*
X268232520Y-88034586D02*
G01*
X268396310Y-88102430D01*
X268543717Y-88200924D01*
X268669076Y-88326283D01*
X268767570Y-88473690D01*
X268835414Y-88637480D01*
X268870000Y-88811358D01*
X268870000Y-88988642D01*
X268835414Y-89162520D01*
X268767570Y-89326310D01*
X268669076Y-89473717D01*
X268543717Y-89599076D01*
X268396310Y-89697570D01*
X268396309Y-89697571D01*
X268396308Y-89697571D01*
X268232520Y-89765414D01*
X268058644Y-89800000D01*
X267881356Y-89800000D01*
X267707480Y-89765414D01*
X267543692Y-89697571D01*
X267543691Y-89697571D01*
X267543690Y-89697570D01*
X267396283Y-89599076D01*
X267270924Y-89473717D01*
X267172430Y-89326310D01*
X267104586Y-89162520D01*
X267070000Y-88988642D01*
X267070000Y-88811358D01*
X267104586Y-88637480D01*
X267172430Y-88473690D01*
X267270924Y-88326283D01*
X267396283Y-88200924D01*
X267543690Y-88102430D01*
X267707480Y-88034586D01*
X267881356Y-88000000D01*
X268058644Y-88000000D01*
X268232520Y-88034586D01*
G37*
G36*
X265692520Y-88034586D02*
G01*
X265856310Y-88102430D01*
X266003717Y-88200924D01*
X266129076Y-88326283D01*
X266227570Y-88473690D01*
X266295414Y-88637480D01*
X266330000Y-88811358D01*
X266330000Y-88988642D01*
X266295414Y-89162520D01*
X266227570Y-89326310D01*
X266129076Y-89473717D01*
X266003717Y-89599076D01*
X265856310Y-89697570D01*
X265856309Y-89697571D01*
X265856308Y-89697571D01*
X265692520Y-89765414D01*
X265518644Y-89800000D01*
X265341356Y-89800000D01*
X265167480Y-89765414D01*
X265003692Y-89697571D01*
X265003691Y-89697571D01*
X265003690Y-89697570D01*
X264856283Y-89599076D01*
X264730924Y-89473717D01*
X264632430Y-89326310D01*
X264564586Y-89162520D01*
X264530000Y-88988642D01*
X264530000Y-88811358D01*
X264564586Y-88637480D01*
X264632430Y-88473690D01*
X264730924Y-88326283D01*
X264856283Y-88200924D01*
X265003690Y-88102430D01*
X265167480Y-88034586D01*
X265341356Y-88000000D01*
X265518644Y-88000000D01*
X265692520Y-88034586D01*
G37*
G36*
X268232520Y-85494586D02*
G01*
X268396310Y-85562430D01*
X268543717Y-85660924D01*
X268669076Y-85786283D01*
X268767570Y-85933690D01*
X268835414Y-86097480D01*
X268870000Y-86271358D01*
X268870000Y-86448642D01*
X268835414Y-86622520D01*
X268767570Y-86786310D01*
X268669076Y-86933717D01*
X268543717Y-87059076D01*
X268396310Y-87157570D01*
X268396309Y-87157571D01*
X268396308Y-87157571D01*
X268232520Y-87225414D01*
X268058644Y-87260000D01*
X267881356Y-87260000D01*
X267707480Y-87225414D01*
X267543692Y-87157571D01*
X267543691Y-87157571D01*
X267543690Y-87157570D01*
X267396283Y-87059076D01*
X267270924Y-86933717D01*
X267172430Y-86786310D01*
X267104586Y-86622520D01*
X267070000Y-86448642D01*
X267070000Y-86271358D01*
X267104586Y-86097480D01*
X267172430Y-85933690D01*
X267270924Y-85786283D01*
X267396283Y-85660924D01*
X267543690Y-85562430D01*
X267707480Y-85494586D01*
X267881356Y-85460000D01*
X268058644Y-85460000D01*
X268232520Y-85494586D01*
G37*
G36*
X207907520Y-85494586D02*
G01*
X208071310Y-85562430D01*
X208218717Y-85660924D01*
X208344076Y-85786283D01*
X208442570Y-85933690D01*
X208510414Y-86097480D01*
X208545000Y-86271358D01*
X208545000Y-86448642D01*
X208510414Y-86622520D01*
X208442570Y-86786310D01*
X208344076Y-86933717D01*
X208218717Y-87059076D01*
X208071310Y-87157570D01*
X208071309Y-87157571D01*
X208071308Y-87157571D01*
X207907520Y-87225414D01*
X207733644Y-87260000D01*
X207556356Y-87260000D01*
X207382480Y-87225414D01*
X207218692Y-87157571D01*
X207218691Y-87157571D01*
X207218690Y-87157570D01*
X207071283Y-87059076D01*
X206945924Y-86933717D01*
X206847430Y-86786310D01*
X206779586Y-86622520D01*
X206745000Y-86448642D01*
X206745000Y-86271358D01*
X206779586Y-86097480D01*
X206847430Y-85933690D01*
X206945924Y-85786283D01*
X207071283Y-85660924D01*
X207218690Y-85562430D01*
X207382480Y-85494586D01*
X207556356Y-85460000D01*
X207733644Y-85460000D01*
X207907520Y-85494586D01*
G37*
G36*
X265692520Y-85494586D02*
G01*
X265856310Y-85562430D01*
X266003717Y-85660924D01*
X266129076Y-85786283D01*
X266227570Y-85933690D01*
X266295414Y-86097480D01*
X266330000Y-86271358D01*
X266330000Y-86448642D01*
X266295414Y-86622520D01*
X266227570Y-86786310D01*
X266129076Y-86933717D01*
X266003717Y-87059076D01*
X265856310Y-87157570D01*
X265856309Y-87157571D01*
X265856308Y-87157571D01*
X265692520Y-87225414D01*
X265518644Y-87260000D01*
X265341356Y-87260000D01*
X265167480Y-87225414D01*
X265003692Y-87157571D01*
X265003691Y-87157571D01*
X265003690Y-87157570D01*
X264856283Y-87059076D01*
X264730924Y-86933717D01*
X264632430Y-86786310D01*
X264564586Y-86622520D01*
X264530000Y-86448642D01*
X264530000Y-86271358D01*
X264564586Y-86097480D01*
X264632430Y-85933690D01*
X264730924Y-85786283D01*
X264856283Y-85660924D01*
X265003690Y-85562430D01*
X265167480Y-85494586D01*
X265341356Y-85460000D01*
X265518644Y-85460000D01*
X265692520Y-85494586D01*
G37*
G36*
X205367520Y-85494586D02*
G01*
X205531310Y-85562430D01*
X205678717Y-85660924D01*
X205804076Y-85786283D01*
X205902570Y-85933690D01*
X205970414Y-86097480D01*
X206005000Y-86271358D01*
X206005000Y-86448642D01*
X205970414Y-86622520D01*
X205902570Y-86786310D01*
X205804076Y-86933717D01*
X205678717Y-87059076D01*
X205531310Y-87157570D01*
X205531309Y-87157571D01*
X205531308Y-87157571D01*
X205367520Y-87225414D01*
X205193644Y-87260000D01*
X205016356Y-87260000D01*
X204842480Y-87225414D01*
X204678692Y-87157571D01*
X204678691Y-87157571D01*
X204678690Y-87157570D01*
X204531283Y-87059076D01*
X204405924Y-86933717D01*
X204307430Y-86786310D01*
X204239586Y-86622520D01*
X204205000Y-86448642D01*
X204205000Y-86271358D01*
X204239586Y-86097480D01*
X204307430Y-85933690D01*
X204405924Y-85786283D01*
X204531283Y-85660924D01*
X204678690Y-85562430D01*
X204842480Y-85494586D01*
X205016356Y-85460000D01*
X205193644Y-85460000D01*
X205367520Y-85494586D01*
G37*
G36*
X268232520Y-82954586D02*
G01*
X268396310Y-83022430D01*
X268543717Y-83120924D01*
X268669076Y-83246283D01*
X268767570Y-83393690D01*
X268835414Y-83557480D01*
X268870000Y-83731358D01*
X268870000Y-83908642D01*
X268835414Y-84082520D01*
X268767570Y-84246310D01*
X268669076Y-84393717D01*
X268543717Y-84519076D01*
X268396310Y-84617570D01*
X268396309Y-84617571D01*
X268396308Y-84617571D01*
X268232520Y-84685414D01*
X268058644Y-84720000D01*
X267881356Y-84720000D01*
X267707480Y-84685414D01*
X267543692Y-84617571D01*
X267543691Y-84617571D01*
X267543690Y-84617570D01*
X267396283Y-84519076D01*
X267270924Y-84393717D01*
X267172430Y-84246310D01*
X267104586Y-84082520D01*
X267070000Y-83908642D01*
X267070000Y-83731358D01*
X267104586Y-83557480D01*
X267172430Y-83393690D01*
X267270924Y-83246283D01*
X267396283Y-83120924D01*
X267543690Y-83022430D01*
X267707480Y-82954586D01*
X267881356Y-82920000D01*
X268058644Y-82920000D01*
X268232520Y-82954586D01*
G37*
G36*
X265692520Y-82954586D02*
G01*
X265856310Y-83022430D01*
X266003717Y-83120924D01*
X266129076Y-83246283D01*
X266227570Y-83393690D01*
X266295414Y-83557480D01*
X266330000Y-83731358D01*
X266330000Y-83908642D01*
X266295414Y-84082520D01*
X266227570Y-84246310D01*
X266129076Y-84393717D01*
X266003717Y-84519076D01*
X265856310Y-84617570D01*
X265856309Y-84617571D01*
X265856308Y-84617571D01*
X265692520Y-84685414D01*
X265518644Y-84720000D01*
X265341356Y-84720000D01*
X265167480Y-84685414D01*
X265003692Y-84617571D01*
X265003691Y-84617571D01*
X265003690Y-84617570D01*
X264856283Y-84519076D01*
X264730924Y-84393717D01*
X264632430Y-84246310D01*
X264564586Y-84082520D01*
X264530000Y-83908642D01*
X264530000Y-83731358D01*
X264564586Y-83557480D01*
X264632430Y-83393690D01*
X264730924Y-83246283D01*
X264856283Y-83120924D01*
X265003690Y-83022430D01*
X265167480Y-82954586D01*
X265341356Y-82920000D01*
X265518644Y-82920000D01*
X265692520Y-82954586D01*
G37*
G36*
X205367520Y-82954586D02*
G01*
X205531310Y-83022430D01*
X205678717Y-83120924D01*
X205804076Y-83246283D01*
X205902570Y-83393690D01*
X205970414Y-83557480D01*
X206005000Y-83731358D01*
X206005000Y-83908642D01*
X205970414Y-84082520D01*
X205902570Y-84246310D01*
X205804076Y-84393717D01*
X205678717Y-84519076D01*
X205531310Y-84617570D01*
X205531309Y-84617571D01*
X205531308Y-84617571D01*
X205367520Y-84685414D01*
X205193644Y-84720000D01*
X205016356Y-84720000D01*
X204842480Y-84685414D01*
X204678692Y-84617571D01*
X204678691Y-84617571D01*
X204678690Y-84617570D01*
X204531283Y-84519076D01*
X204405924Y-84393717D01*
X204307430Y-84246310D01*
X204239586Y-84082520D01*
X204205000Y-83908642D01*
X204205000Y-83731358D01*
X204239586Y-83557480D01*
X204307430Y-83393690D01*
X204405924Y-83246283D01*
X204531283Y-83120924D01*
X204678690Y-83022430D01*
X204842480Y-82954586D01*
X205016356Y-82920000D01*
X205193644Y-82920000D01*
X205367520Y-82954586D01*
G37*
G36*
X207907520Y-82954586D02*
G01*
X208071310Y-83022430D01*
X208218717Y-83120924D01*
X208344076Y-83246283D01*
X208442570Y-83393690D01*
X208510414Y-83557480D01*
X208545000Y-83731358D01*
X208545000Y-83908642D01*
X208510414Y-84082520D01*
X208442570Y-84246310D01*
X208344076Y-84393717D01*
X208218717Y-84519076D01*
X208071310Y-84617570D01*
X208071309Y-84617571D01*
X208071308Y-84617571D01*
X207907520Y-84685414D01*
X207733644Y-84720000D01*
X207556356Y-84720000D01*
X207382480Y-84685414D01*
X207218692Y-84617571D01*
X207218691Y-84617571D01*
X207218690Y-84617570D01*
X207071283Y-84519076D01*
X206945924Y-84393717D01*
X206847430Y-84246310D01*
X206779586Y-84082520D01*
X206745000Y-83908642D01*
X206745000Y-83731358D01*
X206779586Y-83557480D01*
X206847430Y-83393690D01*
X206945924Y-83246283D01*
X207071283Y-83120924D01*
X207218690Y-83022430D01*
X207382480Y-82954586D01*
X207556356Y-82920000D01*
X207733644Y-82920000D01*
X207907520Y-82954586D01*
G37*
G36*
X207907520Y-80414586D02*
G01*
X208071310Y-80482430D01*
X208218717Y-80580924D01*
X208344076Y-80706283D01*
X208442570Y-80853690D01*
X208510414Y-81017480D01*
X208545000Y-81191358D01*
X208545000Y-81368642D01*
X208510414Y-81542520D01*
X208442570Y-81706310D01*
X208344076Y-81853717D01*
X208218717Y-81979076D01*
X208071310Y-82077570D01*
X208071309Y-82077571D01*
X208071308Y-82077571D01*
X207907520Y-82145414D01*
X207733644Y-82180000D01*
X207556356Y-82180000D01*
X207382480Y-82145414D01*
X207218692Y-82077571D01*
X207218691Y-82077571D01*
X207218690Y-82077570D01*
X207071283Y-81979076D01*
X206945924Y-81853717D01*
X206847430Y-81706310D01*
X206779586Y-81542520D01*
X206745000Y-81368642D01*
X206745000Y-81191358D01*
X206779586Y-81017480D01*
X206847430Y-80853690D01*
X206945924Y-80706283D01*
X207071283Y-80580924D01*
X207218690Y-80482430D01*
X207382480Y-80414586D01*
X207556356Y-80380000D01*
X207733644Y-80380000D01*
X207907520Y-80414586D01*
G37*
G36*
X268232520Y-80414586D02*
G01*
X268396310Y-80482430D01*
X268543717Y-80580924D01*
X268669076Y-80706283D01*
X268767570Y-80853690D01*
X268835414Y-81017480D01*
X268870000Y-81191358D01*
X268870000Y-81368642D01*
X268835414Y-81542520D01*
X268767570Y-81706310D01*
X268669076Y-81853717D01*
X268543717Y-81979076D01*
X268396310Y-82077570D01*
X268396309Y-82077571D01*
X268396308Y-82077571D01*
X268232520Y-82145414D01*
X268058644Y-82180000D01*
X267881356Y-82180000D01*
X267707480Y-82145414D01*
X267543692Y-82077571D01*
X267543691Y-82077571D01*
X267543690Y-82077570D01*
X267396283Y-81979076D01*
X267270924Y-81853717D01*
X267172430Y-81706310D01*
X267104586Y-81542520D01*
X267070000Y-81368642D01*
X267070000Y-81191358D01*
X267104586Y-81017480D01*
X267172430Y-80853690D01*
X267270924Y-80706283D01*
X267396283Y-80580924D01*
X267543690Y-80482430D01*
X267707480Y-80414586D01*
X267881356Y-80380000D01*
X268058644Y-80380000D01*
X268232520Y-80414586D01*
G37*
G36*
X265692520Y-80414586D02*
G01*
X265856310Y-80482430D01*
X266003717Y-80580924D01*
X266129076Y-80706283D01*
X266227570Y-80853690D01*
X266295414Y-81017480D01*
X266330000Y-81191358D01*
X266330000Y-81368642D01*
X266295414Y-81542520D01*
X266227570Y-81706310D01*
X266129076Y-81853717D01*
X266003717Y-81979076D01*
X265856310Y-82077570D01*
X265856309Y-82077571D01*
X265856308Y-82077571D01*
X265692520Y-82145414D01*
X265518644Y-82180000D01*
X265341356Y-82180000D01*
X265167480Y-82145414D01*
X265003692Y-82077571D01*
X265003691Y-82077571D01*
X265003690Y-82077570D01*
X264856283Y-81979076D01*
X264730924Y-81853717D01*
X264632430Y-81706310D01*
X264564586Y-81542520D01*
X264530000Y-81368642D01*
X264530000Y-81191358D01*
X264564586Y-81017480D01*
X264632430Y-80853690D01*
X264730924Y-80706283D01*
X264856283Y-80580924D01*
X265003690Y-80482430D01*
X265167480Y-80414586D01*
X265341356Y-80380000D01*
X265518644Y-80380000D01*
X265692520Y-80414586D01*
G37*
G36*
X205367520Y-80414586D02*
G01*
X205531310Y-80482430D01*
X205678717Y-80580924D01*
X205804076Y-80706283D01*
X205902570Y-80853690D01*
X205970414Y-81017480D01*
X206005000Y-81191358D01*
X206005000Y-81368642D01*
X205970414Y-81542520D01*
X205902570Y-81706310D01*
X205804076Y-81853717D01*
X205678717Y-81979076D01*
X205531310Y-82077570D01*
X205531309Y-82077571D01*
X205531308Y-82077571D01*
X205367520Y-82145414D01*
X205193644Y-82180000D01*
X205016356Y-82180000D01*
X204842480Y-82145414D01*
X204678692Y-82077571D01*
X204678691Y-82077571D01*
X204678690Y-82077570D01*
X204531283Y-81979076D01*
X204405924Y-81853717D01*
X204307430Y-81706310D01*
X204239586Y-81542520D01*
X204205000Y-81368642D01*
X204205000Y-81191358D01*
X204239586Y-81017480D01*
X204307430Y-80853690D01*
X204405924Y-80706283D01*
X204531283Y-80580924D01*
X204678690Y-80482430D01*
X204842480Y-80414586D01*
X205016356Y-80380000D01*
X205193644Y-80380000D01*
X205367520Y-80414586D01*
G37*
G36*
X268232520Y-77874586D02*
G01*
X268396310Y-77942430D01*
X268543717Y-78040924D01*
X268669076Y-78166283D01*
X268767570Y-78313690D01*
X268835414Y-78477480D01*
X268870000Y-78651358D01*
X268870000Y-78828642D01*
X268835414Y-79002520D01*
X268767570Y-79166310D01*
X268669076Y-79313717D01*
X268543717Y-79439076D01*
X268396310Y-79537570D01*
X268396309Y-79537571D01*
X268396308Y-79537571D01*
X268232520Y-79605414D01*
X268058644Y-79640000D01*
X267881356Y-79640000D01*
X267707480Y-79605414D01*
X267543692Y-79537571D01*
X267543691Y-79537571D01*
X267543690Y-79537570D01*
X267396283Y-79439076D01*
X267270924Y-79313717D01*
X267172430Y-79166310D01*
X267104586Y-79002520D01*
X267070000Y-78828642D01*
X267070000Y-78651358D01*
X267104586Y-78477480D01*
X267172430Y-78313690D01*
X267270924Y-78166283D01*
X267396283Y-78040924D01*
X267543690Y-77942430D01*
X267707480Y-77874586D01*
X267881356Y-77840000D01*
X268058644Y-77840000D01*
X268232520Y-77874586D01*
G37*
G36*
X205367520Y-77874586D02*
G01*
X205531310Y-77942430D01*
X205678717Y-78040924D01*
X205804076Y-78166283D01*
X205902570Y-78313690D01*
X205970414Y-78477480D01*
X206005000Y-78651358D01*
X206005000Y-78828642D01*
X205970414Y-79002520D01*
X205902570Y-79166310D01*
X205804076Y-79313717D01*
X205678717Y-79439076D01*
X205531310Y-79537570D01*
X205531309Y-79537571D01*
X205531308Y-79537571D01*
X205367520Y-79605414D01*
X205193644Y-79640000D01*
X205016356Y-79640000D01*
X204842480Y-79605414D01*
X204678692Y-79537571D01*
X204678691Y-79537571D01*
X204678690Y-79537570D01*
X204531283Y-79439076D01*
X204405924Y-79313717D01*
X204307430Y-79166310D01*
X204239586Y-79002520D01*
X204205000Y-78828642D01*
X204205000Y-78651358D01*
X204239586Y-78477480D01*
X204307430Y-78313690D01*
X204405924Y-78166283D01*
X204531283Y-78040924D01*
X204678690Y-77942430D01*
X204842480Y-77874586D01*
X205016356Y-77840000D01*
X205193644Y-77840000D01*
X205367520Y-77874586D01*
G37*
G36*
X265692520Y-77874586D02*
G01*
X265856310Y-77942430D01*
X266003717Y-78040924D01*
X266129076Y-78166283D01*
X266227570Y-78313690D01*
X266295414Y-78477480D01*
X266330000Y-78651358D01*
X266330000Y-78828642D01*
X266295414Y-79002520D01*
X266227570Y-79166310D01*
X266129076Y-79313717D01*
X266003717Y-79439076D01*
X265856310Y-79537570D01*
X265856309Y-79537571D01*
X265856308Y-79537571D01*
X265692520Y-79605414D01*
X265518644Y-79640000D01*
X265341356Y-79640000D01*
X265167480Y-79605414D01*
X265003692Y-79537571D01*
X265003691Y-79537571D01*
X265003690Y-79537570D01*
X264856283Y-79439076D01*
X264730924Y-79313717D01*
X264632430Y-79166310D01*
X264564586Y-79002520D01*
X264530000Y-78828642D01*
X264530000Y-78651358D01*
X264564586Y-78477480D01*
X264632430Y-78313690D01*
X264730924Y-78166283D01*
X264856283Y-78040924D01*
X265003690Y-77942430D01*
X265167480Y-77874586D01*
X265341356Y-77840000D01*
X265518644Y-77840000D01*
X265692520Y-77874586D01*
G37*
G36*
X207907520Y-77874586D02*
G01*
X208071310Y-77942430D01*
X208218717Y-78040924D01*
X208344076Y-78166283D01*
X208442570Y-78313690D01*
X208510414Y-78477480D01*
X208545000Y-78651358D01*
X208545000Y-78828642D01*
X208510414Y-79002520D01*
X208442570Y-79166310D01*
X208344076Y-79313717D01*
X208218717Y-79439076D01*
X208071310Y-79537570D01*
X208071309Y-79537571D01*
X208071308Y-79537571D01*
X207907520Y-79605414D01*
X207733644Y-79640000D01*
X207556356Y-79640000D01*
X207382480Y-79605414D01*
X207218692Y-79537571D01*
X207218691Y-79537571D01*
X207218690Y-79537570D01*
X207071283Y-79439076D01*
X206945924Y-79313717D01*
X206847430Y-79166310D01*
X206779586Y-79002520D01*
X206745000Y-78828642D01*
X206745000Y-78651358D01*
X206779586Y-78477480D01*
X206847430Y-78313690D01*
X206945924Y-78166283D01*
X207071283Y-78040924D01*
X207218690Y-77942430D01*
X207382480Y-77874586D01*
X207556356Y-77840000D01*
X207733644Y-77840000D01*
X207907520Y-77874586D01*
G37*
G36*
X268232520Y-75334586D02*
G01*
X268396310Y-75402430D01*
X268543717Y-75500924D01*
X268669076Y-75626283D01*
X268767570Y-75773690D01*
X268835414Y-75937480D01*
X268870000Y-76111358D01*
X268870000Y-76288642D01*
X268835414Y-76462520D01*
X268767570Y-76626310D01*
X268669076Y-76773717D01*
X268543717Y-76899076D01*
X268396310Y-76997570D01*
X268396309Y-76997571D01*
X268396308Y-76997571D01*
X268232520Y-77065414D01*
X268058644Y-77100000D01*
X267881356Y-77100000D01*
X267707480Y-77065414D01*
X267543692Y-76997571D01*
X267543691Y-76997571D01*
X267543690Y-76997570D01*
X267396283Y-76899076D01*
X267270924Y-76773717D01*
X267172430Y-76626310D01*
X267104586Y-76462520D01*
X267070000Y-76288642D01*
X267070000Y-76111358D01*
X267104586Y-75937480D01*
X267172430Y-75773690D01*
X267270924Y-75626283D01*
X267396283Y-75500924D01*
X267543690Y-75402430D01*
X267707480Y-75334586D01*
X267881356Y-75300000D01*
X268058644Y-75300000D01*
X268232520Y-75334586D01*
G37*
G36*
X265692520Y-75334586D02*
G01*
X265856310Y-75402430D01*
X266003717Y-75500924D01*
X266129076Y-75626283D01*
X266227570Y-75773690D01*
X266295414Y-75937480D01*
X266330000Y-76111358D01*
X266330000Y-76288642D01*
X266295414Y-76462520D01*
X266227570Y-76626310D01*
X266129076Y-76773717D01*
X266003717Y-76899076D01*
X265856310Y-76997570D01*
X265856309Y-76997571D01*
X265856308Y-76997571D01*
X265692520Y-77065414D01*
X265518644Y-77100000D01*
X265341356Y-77100000D01*
X265167480Y-77065414D01*
X265003692Y-76997571D01*
X265003691Y-76997571D01*
X265003690Y-76997570D01*
X264856283Y-76899076D01*
X264730924Y-76773717D01*
X264632430Y-76626310D01*
X264564586Y-76462520D01*
X264530000Y-76288642D01*
X264530000Y-76111358D01*
X264564586Y-75937480D01*
X264632430Y-75773690D01*
X264730924Y-75626283D01*
X264856283Y-75500924D01*
X265003690Y-75402430D01*
X265167480Y-75334586D01*
X265341356Y-75300000D01*
X265518644Y-75300000D01*
X265692520Y-75334586D01*
G37*
G36*
X207907520Y-75334586D02*
G01*
X208071310Y-75402430D01*
X208218717Y-75500924D01*
X208344076Y-75626283D01*
X208442570Y-75773690D01*
X208510414Y-75937480D01*
X208545000Y-76111358D01*
X208545000Y-76288642D01*
X208510414Y-76462520D01*
X208442570Y-76626310D01*
X208344076Y-76773717D01*
X208218717Y-76899076D01*
X208071310Y-76997570D01*
X208071309Y-76997571D01*
X208071308Y-76997571D01*
X207907520Y-77065414D01*
X207733644Y-77100000D01*
X207556356Y-77100000D01*
X207382480Y-77065414D01*
X207218692Y-76997571D01*
X207218691Y-76997571D01*
X207218690Y-76997570D01*
X207071283Y-76899076D01*
X206945924Y-76773717D01*
X206847430Y-76626310D01*
X206779586Y-76462520D01*
X206745000Y-76288642D01*
X206745000Y-76111358D01*
X206779586Y-75937480D01*
X206847430Y-75773690D01*
X206945924Y-75626283D01*
X207071283Y-75500924D01*
X207218690Y-75402430D01*
X207382480Y-75334586D01*
X207556356Y-75300000D01*
X207733644Y-75300000D01*
X207907520Y-75334586D01*
G37*
G36*
X205367520Y-75334586D02*
G01*
X205531310Y-75402430D01*
X205678717Y-75500924D01*
X205804076Y-75626283D01*
X205902570Y-75773690D01*
X205970414Y-75937480D01*
X206005000Y-76111358D01*
X206005000Y-76288642D01*
X205970414Y-76462520D01*
X205902570Y-76626310D01*
X205804076Y-76773717D01*
X205678717Y-76899076D01*
X205531310Y-76997570D01*
X205531309Y-76997571D01*
X205531308Y-76997571D01*
X205367520Y-77065414D01*
X205193644Y-77100000D01*
X205016356Y-77100000D01*
X204842480Y-77065414D01*
X204678692Y-76997571D01*
X204678691Y-76997571D01*
X204678690Y-76997570D01*
X204531283Y-76899076D01*
X204405924Y-76773717D01*
X204307430Y-76626310D01*
X204239586Y-76462520D01*
X204205000Y-76288642D01*
X204205000Y-76111358D01*
X204239586Y-75937480D01*
X204307430Y-75773690D01*
X204405924Y-75626283D01*
X204531283Y-75500924D01*
X204678690Y-75402430D01*
X204842480Y-75334586D01*
X205016356Y-75300000D01*
X205193644Y-75300000D01*
X205367520Y-75334586D01*
G37*
G36*
X219322935Y-75382664D02*
G01*
X219477624Y-75446739D01*
X219477626Y-75446740D01*
X219616844Y-75539762D01*
X219735238Y-75658156D01*
X219812435Y-75773690D01*
X219828261Y-75797376D01*
X219892336Y-75952065D01*
X219925000Y-76116281D01*
X219925000Y-76283719D01*
X219892336Y-76447935D01*
X219828261Y-76602624D01*
X219828260Y-76602626D01*
X219735238Y-76741844D01*
X219616844Y-76860238D01*
X219477626Y-76953260D01*
X219477625Y-76953261D01*
X219477624Y-76953261D01*
X219322935Y-77017336D01*
X219158719Y-77050000D01*
X218991281Y-77050000D01*
X218827065Y-77017336D01*
X218672376Y-76953261D01*
X218672375Y-76953261D01*
X218672374Y-76953260D01*
X218533156Y-76860238D01*
X218414762Y-76741844D01*
X218321740Y-76602626D01*
X218321739Y-76602624D01*
X218257664Y-76447935D01*
X218225000Y-76283719D01*
X218225000Y-76116281D01*
X218257664Y-75952065D01*
X218321739Y-75797376D01*
X218337565Y-75773690D01*
X218414762Y-75658156D01*
X218533156Y-75539762D01*
X218672374Y-75446740D01*
X218672376Y-75446739D01*
X218827065Y-75382664D01*
X218991281Y-75350000D01*
X219158719Y-75350000D01*
X219322935Y-75382664D01*
G37*
G36*
X207907520Y-72794586D02*
G01*
X208071310Y-72862430D01*
X208218717Y-72960924D01*
X208344076Y-73086283D01*
X208442570Y-73233690D01*
X208510414Y-73397480D01*
X208545000Y-73571358D01*
X208545000Y-73748642D01*
X208510414Y-73922520D01*
X208442570Y-74086310D01*
X208344076Y-74233717D01*
X208218717Y-74359076D01*
X208071310Y-74457570D01*
X208071309Y-74457571D01*
X208071308Y-74457571D01*
X207907520Y-74525414D01*
X207733644Y-74560000D01*
X207556356Y-74560000D01*
X207382480Y-74525414D01*
X207218692Y-74457571D01*
X207218691Y-74457571D01*
X207218690Y-74457570D01*
X207071283Y-74359076D01*
X206945924Y-74233717D01*
X206847430Y-74086310D01*
X206779586Y-73922520D01*
X206745000Y-73748642D01*
X206745000Y-73571358D01*
X206779586Y-73397480D01*
X206847430Y-73233690D01*
X206945924Y-73086283D01*
X207071283Y-72960924D01*
X207218690Y-72862430D01*
X207382480Y-72794586D01*
X207556356Y-72760000D01*
X207733644Y-72760000D01*
X207907520Y-72794586D01*
G37*
G36*
X206005000Y-74560000D02*
G01*
X204205000Y-74560000D01*
X204205000Y-72760000D01*
X206005000Y-72760000D01*
X206005000Y-74560000D01*
G37*
G36*
X268232520Y-72794586D02*
G01*
X268396310Y-72862430D01*
X268543717Y-72960924D01*
X268669076Y-73086283D01*
X268767570Y-73233690D01*
X268835414Y-73397480D01*
X268870000Y-73571358D01*
X268870000Y-73748642D01*
X268835414Y-73922520D01*
X268767570Y-74086310D01*
X268669076Y-74233717D01*
X268543717Y-74359076D01*
X268396310Y-74457570D01*
X268396309Y-74457571D01*
X268396308Y-74457571D01*
X268232520Y-74525414D01*
X268058644Y-74560000D01*
X267881356Y-74560000D01*
X267707480Y-74525414D01*
X267543692Y-74457571D01*
X267543691Y-74457571D01*
X267543690Y-74457570D01*
X267396283Y-74359076D01*
X267270924Y-74233717D01*
X267172430Y-74086310D01*
X267104586Y-73922520D01*
X267070000Y-73748642D01*
X267070000Y-73571358D01*
X267104586Y-73397480D01*
X267172430Y-73233690D01*
X267270924Y-73086283D01*
X267396283Y-72960924D01*
X267543690Y-72862430D01*
X267707480Y-72794586D01*
X267881356Y-72760000D01*
X268058644Y-72760000D01*
X268232520Y-72794586D01*
G37*
G36*
X266330000Y-74560000D02*
G01*
X264530000Y-74560000D01*
X264530000Y-72760000D01*
X266330000Y-72760000D01*
X266330000Y-74560000D01*
G37*
G36*
X229401626Y-64802299D02*
G01*
X229561857Y-64850904D01*
X229709518Y-64929831D01*
X229838949Y-65036051D01*
X229945169Y-65165482D01*
X230024096Y-65313143D01*
X230072701Y-65473373D01*
X230085000Y-65598248D01*
X230085000Y-66481751D01*
X230072701Y-66606626D01*
X230072700Y-66606629D01*
X230044305Y-66700238D01*
X230024096Y-66766857D01*
X229945169Y-66914518D01*
X229838949Y-67043949D01*
X229709518Y-67150169D01*
X229561857Y-67229096D01*
X229561855Y-67229097D01*
X229481742Y-67253398D01*
X229401627Y-67277701D01*
X229235000Y-67294112D01*
X229068374Y-67277701D01*
X228988259Y-67253399D01*
X228908146Y-67229097D01*
X228908144Y-67229096D01*
X228760483Y-67150169D01*
X228631052Y-67043949D01*
X228524832Y-66914518D01*
X228445905Y-66766857D01*
X228397300Y-66606627D01*
X228385000Y-66481751D01*
X228385000Y-65598249D01*
X228397299Y-65473374D01*
X228445904Y-65313143D01*
X228524831Y-65165482D01*
X228631051Y-65036051D01*
X228760482Y-64929831D01*
X228908143Y-64850904D01*
X228908145Y-64850903D01*
X228988258Y-64826602D01*
X229068373Y-64802299D01*
X229235000Y-64785888D01*
X229401626Y-64802299D01*
G37*
G36*
X226861626Y-64802299D02*
G01*
X227021857Y-64850904D01*
X227169518Y-64929831D01*
X227298949Y-65036051D01*
X227405169Y-65165482D01*
X227484096Y-65313143D01*
X227532701Y-65473373D01*
X227545000Y-65598248D01*
X227545000Y-66481751D01*
X227532701Y-66606626D01*
X227532700Y-66606629D01*
X227504305Y-66700238D01*
X227484096Y-66766857D01*
X227405169Y-66914518D01*
X227298949Y-67043949D01*
X227169518Y-67150169D01*
X227021857Y-67229096D01*
X227021855Y-67229097D01*
X226941742Y-67253398D01*
X226861627Y-67277701D01*
X226695000Y-67294112D01*
X226528374Y-67277701D01*
X226448259Y-67253399D01*
X226368146Y-67229097D01*
X226368144Y-67229096D01*
X226220483Y-67150169D01*
X226091052Y-67043949D01*
X225984832Y-66914518D01*
X225905905Y-66766857D01*
X225857300Y-66606627D01*
X225845000Y-66481751D01*
X225845000Y-65598249D01*
X225857299Y-65473374D01*
X225905904Y-65313143D01*
X225984831Y-65165482D01*
X226091051Y-65036051D01*
X226220482Y-64929831D01*
X226368143Y-64850904D01*
X226368145Y-64850903D01*
X226448258Y-64826602D01*
X226528373Y-64802299D01*
X226695000Y-64785888D01*
X226861626Y-64802299D01*
G37*
G36*
X231941626Y-64802299D02*
G01*
X232101857Y-64850904D01*
X232249518Y-64929831D01*
X232378949Y-65036051D01*
X232485169Y-65165482D01*
X232564096Y-65313143D01*
X232612701Y-65473373D01*
X232625000Y-65598248D01*
X232625000Y-66481751D01*
X232612701Y-66606626D01*
X232612700Y-66606629D01*
X232584305Y-66700238D01*
X232564096Y-66766857D01*
X232485169Y-66914518D01*
X232378949Y-67043949D01*
X232249518Y-67150169D01*
X232101857Y-67229096D01*
X232101855Y-67229097D01*
X232021742Y-67253398D01*
X231941627Y-67277701D01*
X231775000Y-67294112D01*
X231608374Y-67277701D01*
X231528259Y-67253399D01*
X231448146Y-67229097D01*
X231448144Y-67229096D01*
X231300483Y-67150169D01*
X231171052Y-67043949D01*
X231064832Y-66914518D01*
X230985905Y-66766857D01*
X230937300Y-66606627D01*
X230925000Y-66481751D01*
X230925000Y-65598249D01*
X230937299Y-65473374D01*
X230985904Y-65313143D01*
X231064831Y-65165482D01*
X231171051Y-65036051D01*
X231300482Y-64929831D01*
X231448143Y-64850904D01*
X231448145Y-64850903D01*
X231528258Y-64826602D01*
X231608373Y-64802299D01*
X231775000Y-64785888D01*
X231941626Y-64802299D01*
G37*
G36*
X225005000Y-67290000D02*
G01*
X223305000Y-67290000D01*
X223305000Y-64790000D01*
X225005000Y-64790000D01*
X225005000Y-67290000D01*
G37*
G36*
X219322935Y-65222664D02*
G01*
X219477624Y-65286739D01*
X219477626Y-65286740D01*
X219616844Y-65379762D01*
X219735238Y-65498156D01*
X219828260Y-65637374D01*
X219828261Y-65637376D01*
X219892336Y-65792065D01*
X219925000Y-65956281D01*
X219925000Y-66123719D01*
X219892336Y-66287935D01*
X219828261Y-66442624D01*
X219828260Y-66442626D01*
X219735238Y-66581844D01*
X219616844Y-66700238D01*
X219477626Y-66793260D01*
X219477625Y-66793261D01*
X219477624Y-66793261D01*
X219322935Y-66857336D01*
X219158719Y-66890000D01*
X218991281Y-66890000D01*
X218827065Y-66857336D01*
X218672376Y-66793261D01*
X218672375Y-66793261D01*
X218672374Y-66793260D01*
X218533156Y-66700238D01*
X218414762Y-66581844D01*
X218321740Y-66442626D01*
X218321739Y-66442624D01*
X218257664Y-66287935D01*
X218225000Y-66123719D01*
X218225000Y-65956281D01*
X218257664Y-65792065D01*
X218321739Y-65637376D01*
X218321740Y-65637374D01*
X218414762Y-65498156D01*
X218533156Y-65379762D01*
X218672374Y-65286740D01*
X218672376Y-65286739D01*
X218827065Y-65222664D01*
X218991281Y-65190000D01*
X219158719Y-65190000D01*
X219322935Y-65222664D01*
G37*
G36*
X193937520Y-59459586D02*
G01*
X193989967Y-59481310D01*
X194101310Y-59527430D01*
X194248717Y-59625924D01*
X194374076Y-59751283D01*
X194441754Y-59852571D01*
X194472571Y-59898692D01*
X194495894Y-59955000D01*
X194540414Y-60062480D01*
X194575000Y-60236358D01*
X194575000Y-60413642D01*
X194540414Y-60587520D01*
X194472570Y-60751310D01*
X194374076Y-60898717D01*
X194248717Y-61024076D01*
X194101310Y-61122570D01*
X194101309Y-61122571D01*
X194101308Y-61122571D01*
X193937520Y-61190414D01*
X193763644Y-61225000D01*
X193586356Y-61225000D01*
X193412480Y-61190414D01*
X193248692Y-61122571D01*
X193248691Y-61122571D01*
X193248690Y-61122570D01*
X193101283Y-61024076D01*
X192975924Y-60898717D01*
X192877430Y-60751310D01*
X192809586Y-60587520D01*
X192775000Y-60413642D01*
X192775000Y-60236358D01*
X192809586Y-60062480D01*
X192854106Y-59955000D01*
X192877429Y-59898692D01*
X192908246Y-59852571D01*
X192975924Y-59751283D01*
X193101283Y-59625924D01*
X193248690Y-59527430D01*
X193360034Y-59481310D01*
X193412480Y-59459586D01*
X193586356Y-59425000D01*
X193763644Y-59425000D01*
X193937520Y-59459586D01*
G37*
G36*
X196477520Y-59459586D02*
G01*
X196529967Y-59481310D01*
X196641310Y-59527430D01*
X196788717Y-59625924D01*
X196914076Y-59751283D01*
X196981754Y-59852571D01*
X197012571Y-59898692D01*
X197035894Y-59955000D01*
X197080414Y-60062480D01*
X197115000Y-60236358D01*
X197115000Y-60413642D01*
X197080414Y-60587520D01*
X197012570Y-60751310D01*
X196914076Y-60898717D01*
X196788717Y-61024076D01*
X196641310Y-61122570D01*
X196641309Y-61122571D01*
X196641308Y-61122571D01*
X196477520Y-61190414D01*
X196303644Y-61225000D01*
X196126356Y-61225000D01*
X195952480Y-61190414D01*
X195788692Y-61122571D01*
X195788691Y-61122571D01*
X195788690Y-61122570D01*
X195641283Y-61024076D01*
X195515924Y-60898717D01*
X195417430Y-60751310D01*
X195349586Y-60587520D01*
X195315000Y-60413642D01*
X195315000Y-60236358D01*
X195349586Y-60062480D01*
X195394106Y-59955000D01*
X195417429Y-59898692D01*
X195448246Y-59852571D01*
X195515924Y-59751283D01*
X195641283Y-59625924D01*
X195788690Y-59527430D01*
X195900034Y-59481310D01*
X195952480Y-59459586D01*
X196126356Y-59425000D01*
X196303644Y-59425000D01*
X196477520Y-59459586D01*
G37*
G36*
X261882520Y-58189586D02*
G01*
X261934967Y-58211310D01*
X262046310Y-58257430D01*
X262193717Y-58355924D01*
X262319076Y-58481283D01*
X262386754Y-58582571D01*
X262417571Y-58628692D01*
X262485414Y-58792480D01*
X262520000Y-58966356D01*
X262520000Y-59143644D01*
X262485414Y-59317520D01*
X262426569Y-59459586D01*
X262417570Y-59481310D01*
X262319076Y-59628717D01*
X262193717Y-59754076D01*
X262046310Y-59852570D01*
X262046309Y-59852571D01*
X262046308Y-59852571D01*
X261882520Y-59920414D01*
X261708644Y-59955000D01*
X261531356Y-59955000D01*
X261357480Y-59920414D01*
X261193692Y-59852571D01*
X261193691Y-59852571D01*
X261193690Y-59852570D01*
X261046283Y-59754076D01*
X260920924Y-59628717D01*
X260822430Y-59481310D01*
X260813432Y-59459586D01*
X260754586Y-59317520D01*
X260720000Y-59143644D01*
X260720000Y-58966356D01*
X260754586Y-58792480D01*
X260822429Y-58628692D01*
X260853246Y-58582571D01*
X260920924Y-58481283D01*
X261046283Y-58355924D01*
X261193690Y-58257430D01*
X261305034Y-58211310D01*
X261357480Y-58189586D01*
X261531356Y-58155000D01*
X261708644Y-58155000D01*
X261882520Y-58189586D01*
G37*
G36*
X231941626Y-57182299D02*
G01*
X232101857Y-57230904D01*
X232249518Y-57309831D01*
X232378949Y-57416051D01*
X232466292Y-57522480D01*
X232485168Y-57545481D01*
X232564097Y-57693145D01*
X232588398Y-57773258D01*
X232612701Y-57853373D01*
X232625000Y-57978248D01*
X232625000Y-58861751D01*
X232612701Y-58986626D01*
X232612700Y-58986629D01*
X232565072Y-59143642D01*
X232564096Y-59146857D01*
X232485169Y-59294518D01*
X232378949Y-59423949D01*
X232249518Y-59530169D01*
X232101857Y-59609096D01*
X232101855Y-59609097D01*
X232037178Y-59628716D01*
X231941627Y-59657701D01*
X231775000Y-59674112D01*
X231608374Y-59657701D01*
X231512823Y-59628716D01*
X231448146Y-59609097D01*
X231448144Y-59609096D01*
X231300483Y-59530169D01*
X231171052Y-59423949D01*
X231064832Y-59294518D01*
X230985905Y-59146857D01*
X230984930Y-59143642D01*
X230937301Y-58986629D01*
X230937300Y-58986627D01*
X230925000Y-58861751D01*
X230925000Y-57978249D01*
X230937299Y-57853374D01*
X230985904Y-57693143D01*
X231064831Y-57545482D01*
X231171051Y-57416051D01*
X231300482Y-57309831D01*
X231448143Y-57230904D01*
X231448145Y-57230903D01*
X231528258Y-57206602D01*
X231608373Y-57182299D01*
X231775000Y-57165888D01*
X231941626Y-57182299D01*
G37*
G36*
X229401626Y-57182299D02*
G01*
X229561857Y-57230904D01*
X229709518Y-57309831D01*
X229838949Y-57416051D01*
X229926292Y-57522480D01*
X229945168Y-57545481D01*
X230024097Y-57693145D01*
X230048398Y-57773258D01*
X230072701Y-57853373D01*
X230085000Y-57978248D01*
X230085000Y-58861751D01*
X230072701Y-58986626D01*
X230072700Y-58986629D01*
X230025072Y-59143642D01*
X230024096Y-59146857D01*
X229945169Y-59294518D01*
X229838949Y-59423949D01*
X229709518Y-59530169D01*
X229561857Y-59609096D01*
X229561855Y-59609097D01*
X229497178Y-59628716D01*
X229401627Y-59657701D01*
X229235000Y-59674112D01*
X229068374Y-59657701D01*
X228972823Y-59628716D01*
X228908146Y-59609097D01*
X228908144Y-59609096D01*
X228760483Y-59530169D01*
X228631052Y-59423949D01*
X228524832Y-59294518D01*
X228445905Y-59146857D01*
X228444930Y-59143642D01*
X228397301Y-58986629D01*
X228397300Y-58986627D01*
X228385000Y-58861751D01*
X228385000Y-57978249D01*
X228397299Y-57853374D01*
X228445904Y-57693143D01*
X228524831Y-57545482D01*
X228631051Y-57416051D01*
X228760482Y-57309831D01*
X228908143Y-57230904D01*
X228908145Y-57230903D01*
X228988258Y-57206602D01*
X229068373Y-57182299D01*
X229235000Y-57165888D01*
X229401626Y-57182299D01*
G37*
G36*
X224321626Y-57182299D02*
G01*
X224481857Y-57230904D01*
X224629518Y-57309831D01*
X224758949Y-57416051D01*
X224846292Y-57522480D01*
X224865168Y-57545481D01*
X224944097Y-57693145D01*
X224968398Y-57773258D01*
X224992701Y-57853373D01*
X225005000Y-57978248D01*
X225005000Y-58861751D01*
X224992701Y-58986626D01*
X224992700Y-58986629D01*
X224945072Y-59143642D01*
X224944096Y-59146857D01*
X224865169Y-59294518D01*
X224758949Y-59423949D01*
X224629518Y-59530169D01*
X224481857Y-59609096D01*
X224481855Y-59609097D01*
X224417178Y-59628716D01*
X224321627Y-59657701D01*
X224155000Y-59674112D01*
X223988374Y-59657701D01*
X223892823Y-59628716D01*
X223828146Y-59609097D01*
X223828144Y-59609096D01*
X223680483Y-59530169D01*
X223551052Y-59423949D01*
X223444832Y-59294518D01*
X223365905Y-59146857D01*
X223364930Y-59143642D01*
X223317301Y-58986629D01*
X223317300Y-58986627D01*
X223305000Y-58861751D01*
X223305000Y-57978249D01*
X223317299Y-57853374D01*
X223365904Y-57693143D01*
X223444831Y-57545482D01*
X223551051Y-57416051D01*
X223680482Y-57309831D01*
X223828143Y-57230904D01*
X223828145Y-57230903D01*
X223908258Y-57206602D01*
X223988373Y-57182299D01*
X224155000Y-57165888D01*
X224321626Y-57182299D01*
G37*
G36*
X226861626Y-57182299D02*
G01*
X227021857Y-57230904D01*
X227169518Y-57309831D01*
X227298949Y-57416051D01*
X227386292Y-57522480D01*
X227405168Y-57545481D01*
X227484097Y-57693145D01*
X227508398Y-57773258D01*
X227532701Y-57853373D01*
X227545000Y-57978248D01*
X227545000Y-58861751D01*
X227532701Y-58986626D01*
X227532700Y-58986629D01*
X227485072Y-59143642D01*
X227484096Y-59146857D01*
X227405169Y-59294518D01*
X227298949Y-59423949D01*
X227169518Y-59530169D01*
X227021857Y-59609096D01*
X227021855Y-59609097D01*
X226957178Y-59628716D01*
X226861627Y-59657701D01*
X226695000Y-59674112D01*
X226528374Y-59657701D01*
X226432823Y-59628716D01*
X226368146Y-59609097D01*
X226368144Y-59609096D01*
X226220483Y-59530169D01*
X226091052Y-59423949D01*
X225984832Y-59294518D01*
X225905905Y-59146857D01*
X225904930Y-59143642D01*
X225857301Y-58986629D01*
X225857300Y-58986627D01*
X225845000Y-58861751D01*
X225845000Y-57978249D01*
X225857299Y-57853374D01*
X225905904Y-57693143D01*
X225984831Y-57545482D01*
X226091051Y-57416051D01*
X226220482Y-57309831D01*
X226368143Y-57230904D01*
X226368145Y-57230903D01*
X226448258Y-57206602D01*
X226528373Y-57182299D01*
X226695000Y-57165888D01*
X226861626Y-57182299D01*
G37*
G36*
X196477520Y-56919586D02*
G01*
X196529967Y-56941310D01*
X196641310Y-56987430D01*
X196788717Y-57085924D01*
X196914076Y-57211283D01*
X196981754Y-57312571D01*
X197012571Y-57358692D01*
X197080414Y-57522480D01*
X197115000Y-57696356D01*
X197115000Y-57873644D01*
X197080414Y-58047520D01*
X197021569Y-58189586D01*
X197012570Y-58211310D01*
X196914076Y-58358717D01*
X196788717Y-58484076D01*
X196641310Y-58582570D01*
X196641309Y-58582571D01*
X196641308Y-58582571D01*
X196477520Y-58650414D01*
X196303644Y-58685000D01*
X196126356Y-58685000D01*
X195952480Y-58650414D01*
X195788692Y-58582571D01*
X195788691Y-58582571D01*
X195788690Y-58582570D01*
X195641283Y-58484076D01*
X195515924Y-58358717D01*
X195417430Y-58211310D01*
X195408432Y-58189586D01*
X195349586Y-58047520D01*
X195315000Y-57873644D01*
X195315000Y-57696356D01*
X195349586Y-57522480D01*
X195417429Y-57358692D01*
X195448246Y-57312571D01*
X195515924Y-57211283D01*
X195641283Y-57085924D01*
X195788690Y-56987430D01*
X195900034Y-56941310D01*
X195952480Y-56919586D01*
X196126356Y-56885000D01*
X196303644Y-56885000D01*
X196477520Y-56919586D01*
G37*
G36*
X193937520Y-56919586D02*
G01*
X193989967Y-56941310D01*
X194101310Y-56987430D01*
X194248717Y-57085924D01*
X194374076Y-57211283D01*
X194441754Y-57312571D01*
X194472571Y-57358692D01*
X194540414Y-57522480D01*
X194575000Y-57696356D01*
X194575000Y-57873644D01*
X194540414Y-58047520D01*
X194481569Y-58189586D01*
X194472570Y-58211310D01*
X194374076Y-58358717D01*
X194248717Y-58484076D01*
X194101310Y-58582570D01*
X194101309Y-58582571D01*
X194101308Y-58582571D01*
X193937520Y-58650414D01*
X193763644Y-58685000D01*
X193586356Y-58685000D01*
X193412480Y-58650414D01*
X193248692Y-58582571D01*
X193248691Y-58582571D01*
X193248690Y-58582570D01*
X193101283Y-58484076D01*
X192975924Y-58358717D01*
X192877430Y-58211310D01*
X192868432Y-58189586D01*
X192809586Y-58047520D01*
X192775000Y-57873644D01*
X192775000Y-57696356D01*
X192809586Y-57522480D01*
X192877429Y-57358692D01*
X192908246Y-57312571D01*
X192975924Y-57211283D01*
X193101283Y-57085924D01*
X193248690Y-56987430D01*
X193360034Y-56941310D01*
X193412480Y-56919586D01*
X193586356Y-56885000D01*
X193763644Y-56885000D01*
X193937520Y-56919586D01*
G37*
G36*
X261882520Y-55649586D02*
G01*
X261934967Y-55671310D01*
X262046310Y-55717430D01*
X262193717Y-55815924D01*
X262319076Y-55941283D01*
X262386754Y-56042571D01*
X262417571Y-56088692D01*
X262485414Y-56252480D01*
X262520000Y-56426356D01*
X262520000Y-56603644D01*
X262485414Y-56777520D01*
X262426569Y-56919586D01*
X262417570Y-56941310D01*
X262319076Y-57088717D01*
X262193717Y-57214076D01*
X262046310Y-57312570D01*
X262046309Y-57312571D01*
X262046308Y-57312571D01*
X261882520Y-57380414D01*
X261708644Y-57415000D01*
X261531356Y-57415000D01*
X261357480Y-57380414D01*
X261193692Y-57312571D01*
X261193691Y-57312571D01*
X261193690Y-57312570D01*
X261046283Y-57214076D01*
X260920924Y-57088717D01*
X260822430Y-56941310D01*
X260813432Y-56919586D01*
X260754586Y-56777520D01*
X260720000Y-56603644D01*
X260720000Y-56426356D01*
X260754586Y-56252480D01*
X260822429Y-56088692D01*
X260853246Y-56042571D01*
X260920924Y-55941283D01*
X261046283Y-55815924D01*
X261193690Y-55717430D01*
X261305034Y-55671310D01*
X261357480Y-55649586D01*
X261531356Y-55615000D01*
X261708644Y-55615000D01*
X261882520Y-55649586D01*
G37*
G36*
X196477520Y-54379586D02*
G01*
X196641310Y-54447430D01*
X196788717Y-54545924D01*
X196914076Y-54671283D01*
X197012570Y-54818690D01*
X197012571Y-54818692D01*
X197080414Y-54982480D01*
X197115000Y-55156356D01*
X197115000Y-55333644D01*
X197080414Y-55507520D01*
X197021569Y-55649586D01*
X197012570Y-55671310D01*
X196914076Y-55818717D01*
X196788717Y-55944076D01*
X196641310Y-56042570D01*
X196641309Y-56042571D01*
X196641308Y-56042571D01*
X196477520Y-56110414D01*
X196303644Y-56145000D01*
X196126356Y-56145000D01*
X195952480Y-56110414D01*
X195788692Y-56042571D01*
X195788691Y-56042571D01*
X195788690Y-56042570D01*
X195641283Y-55944076D01*
X195515924Y-55818717D01*
X195417430Y-55671310D01*
X195408432Y-55649586D01*
X195349586Y-55507520D01*
X195315000Y-55333644D01*
X195315000Y-55156356D01*
X195349586Y-54982480D01*
X195417429Y-54818692D01*
X195417430Y-54818690D01*
X195515924Y-54671283D01*
X195641283Y-54545924D01*
X195788690Y-54447430D01*
X195952480Y-54379586D01*
X196126356Y-54345000D01*
X196303644Y-54345000D01*
X196477520Y-54379586D01*
G37*
G36*
X194575000Y-56145000D02*
G01*
X192775000Y-56145000D01*
X192775000Y-54345000D01*
X194575000Y-54345000D01*
X194575000Y-56145000D01*
G37*
G36*
X262520000Y-54875000D02*
G01*
X260720000Y-54875000D01*
X260720000Y-53075000D01*
X262520000Y-53075000D01*
X262520000Y-54875000D01*
G37*
G36*
X220592935Y-50617664D02*
G01*
X220747624Y-50681739D01*
X220747626Y-50681740D01*
X220886844Y-50774762D01*
X221005238Y-50893156D01*
X221098260Y-51032374D01*
X221098261Y-51032376D01*
X221162336Y-51187065D01*
X221195000Y-51351281D01*
X221195000Y-51518719D01*
X221162336Y-51682935D01*
X221098261Y-51837624D01*
X221098260Y-51837626D01*
X221005238Y-51976844D01*
X220886844Y-52095238D01*
X220747626Y-52188260D01*
X220747625Y-52188261D01*
X220747624Y-52188261D01*
X220592935Y-52252336D01*
X220428719Y-52285000D01*
X220261281Y-52285000D01*
X220097065Y-52252336D01*
X219942376Y-52188261D01*
X219942375Y-52188261D01*
X219942374Y-52188260D01*
X219803156Y-52095238D01*
X219684762Y-51976844D01*
X219591740Y-51837626D01*
X219591739Y-51837624D01*
X219527664Y-51682935D01*
X219495000Y-51518719D01*
X219495000Y-51351281D01*
X219527664Y-51187065D01*
X219591739Y-51032376D01*
X219591740Y-51032374D01*
X219684762Y-50893156D01*
X219803156Y-50774762D01*
X219942374Y-50681740D01*
X219942376Y-50681739D01*
X220097065Y-50617664D01*
X220261281Y-50585000D01*
X220428719Y-50585000D01*
X220592935Y-50617664D01*
G37*
G36*
X230752935Y-50617664D02*
G01*
X230907624Y-50681739D01*
X230907626Y-50681740D01*
X231046844Y-50774762D01*
X231165238Y-50893156D01*
X231258260Y-51032374D01*
X231258261Y-51032376D01*
X231322336Y-51187065D01*
X231355000Y-51351281D01*
X231355000Y-51518719D01*
X231322336Y-51682935D01*
X231258261Y-51837624D01*
X231258260Y-51837626D01*
X231165238Y-51976844D01*
X231046844Y-52095238D01*
X230907626Y-52188260D01*
X230907625Y-52188261D01*
X230907624Y-52188261D01*
X230752935Y-52252336D01*
X230588719Y-52285000D01*
X230421281Y-52285000D01*
X230257065Y-52252336D01*
X230102376Y-52188261D01*
X230102375Y-52188261D01*
X230102374Y-52188260D01*
X229963156Y-52095238D01*
X229844762Y-51976844D01*
X229751740Y-51837626D01*
X229751739Y-51837624D01*
X229687664Y-51682935D01*
X229655000Y-51518719D01*
X229655000Y-51351281D01*
X229687664Y-51187065D01*
X229751739Y-51032376D01*
X229751740Y-51032374D01*
X229844762Y-50893156D01*
X229963156Y-50774762D01*
X230102374Y-50681740D01*
X230102376Y-50681739D01*
X230257065Y-50617664D01*
X230421281Y-50585000D01*
X230588719Y-50585000D01*
X230752935Y-50617664D01*
G37*
M02*
