%TF.GenerationSoftware,KiCad,Pcbnew,(5.1.6)-1*%
%TF.CreationDate,2021-11-21T11:26:52+01:00*%
%TF.ProjectId,carteDmx512,63617274-6544-46d7-9835-31322e6b6963,rev?*%
%TF.SameCoordinates,Original*%
%TF.FileFunction,Copper,L1,Top*%
%TF.FilePolarity,Positive*%
%FSLAX46Y46*%
G04 Gerber Fmt 4.6, Leading zero omitted, Abs format (unit mm)*
G04 Created by KiCad (PCBNEW (5.1.6)-1) date 2021-11-21 11:26:52*
%MOMM*%
%LPD*%
G01*
G04 APERTURE LIST*
%TA.AperFunction,ComponentPad*%
%ADD10O,2.400000X1.600000*%
%TD*%
%TA.AperFunction,ComponentPad*%
%ADD11R,2.400000X1.600000*%
%TD*%
%TA.AperFunction,ComponentPad*%
%ADD12R,1.700000X1.700000*%
%TD*%
%TA.AperFunction,ComponentPad*%
%ADD13O,1.700000X1.700000*%
%TD*%
%TA.AperFunction,ComponentPad*%
%ADD14C,1.440000*%
%TD*%
%TA.AperFunction,ComponentPad*%
%ADD15R,1.600000X2.400000*%
%TD*%
%TA.AperFunction,ComponentPad*%
%ADD16O,1.600000X2.400000*%
%TD*%
%TA.AperFunction,ComponentPad*%
%ADD17R,2.600000X2.600000*%
%TD*%
%TA.AperFunction,ComponentPad*%
%ADD18C,2.600000*%
%TD*%
%TA.AperFunction,ComponentPad*%
%ADD19O,1.600000X1.600000*%
%TD*%
%TA.AperFunction,ComponentPad*%
%ADD20C,1.600000*%
%TD*%
%TA.AperFunction,ViaPad*%
%ADD21C,1.400000*%
%TD*%
%TA.AperFunction,Conductor*%
%ADD22C,1.000000*%
%TD*%
G04 APERTURE END LIST*
D10*
%TO.P,U1,14*%
%TO.N,5V*%
X254635000Y-96520000D03*
%TO.P,U1,7*%
%TO.N,GND*%
X247015000Y-111760000D03*
%TO.P,U1,13*%
%TO.N,Net-(J2-Pad3)*%
X254635000Y-99060000D03*
%TO.P,U1,6*%
%TO.N,start*%
X247015000Y-109220000D03*
%TO.P,U1,12*%
%TO.N,Net-(J2-Pad3)*%
X254635000Y-101600000D03*
%TO.P,U1,5*%
%TO.N,out_s*%
X247015000Y-106680000D03*
%TO.P,U1,11*%
%TO.N,Net-(J2-Pad1)*%
X254635000Y-104140000D03*
%TO.P,U1,4*%
%TO.N,Net-(U1-Pad4)*%
X247015000Y-104140000D03*
%TO.P,U1,10*%
%TO.N,N/C*%
X254635000Y-106680000D03*
%TO.P,U1,3*%
X247015000Y-101600000D03*
%TO.P,U1,9*%
X254635000Y-109220000D03*
%TO.P,U1,2*%
X247015000Y-99060000D03*
%TO.P,U1,8*%
X254635000Y-111760000D03*
D11*
%TO.P,U1,1*%
X247015000Y-96520000D03*
%TD*%
D12*
%TO.P,J4,1*%
%TO.N,Net-(J4-Pad1)*%
X205105000Y-73660000D03*
D13*
%TO.P,J4,2*%
%TO.N,Net-(J4-Pad2)*%
X207645000Y-73660000D03*
%TO.P,J4,3*%
%TO.N,TX*%
X205105000Y-76200000D03*
%TO.P,J4,4*%
%TO.N,Net-(J4-Pad4)*%
X207645000Y-76200000D03*
%TO.P,J4,5*%
%TO.N,Net-(J4-Pad5)*%
X205105000Y-78740000D03*
%TO.P,J4,6*%
%TO.N,Net-(J4-Pad6)*%
X207645000Y-78740000D03*
%TO.P,J4,7*%
%TO.N,Net-(J4-Pad7)*%
X205105000Y-81280000D03*
%TO.P,J4,8*%
%TO.N,Net-(J4-Pad8)*%
X207645000Y-81280000D03*
%TO.P,J4,9*%
%TO.N,Net-(J4-Pad9)*%
X205105000Y-83820000D03*
%TO.P,J4,10*%
%TO.N,Net-(J4-Pad10)*%
X207645000Y-83820000D03*
%TO.P,J4,11*%
%TO.N,Net-(J4-Pad11)*%
X205105000Y-86360000D03*
%TO.P,J4,12*%
%TO.N,Net-(J4-Pad12)*%
X207645000Y-86360000D03*
%TO.P,J4,13*%
%TO.N,Net-(J4-Pad13)*%
X205105000Y-88900000D03*
%TO.P,J4,14*%
%TO.N,Net-(J4-Pad14)*%
X207645000Y-88900000D03*
%TO.P,J4,15*%
%TO.N,Net-(J4-Pad15)*%
X205105000Y-91440000D03*
%TO.P,J4,16*%
%TO.N,Net-(J4-Pad16)*%
X207645000Y-91440000D03*
%TO.P,J4,17*%
%TO.N,Net-(J4-Pad17)*%
X205105000Y-93980000D03*
%TO.P,J4,18*%
%TO.N,3.3V*%
X207645000Y-93980000D03*
%TO.P,J4,19*%
%TO.N,Net-(J4-Pad19)*%
X205105000Y-96520000D03*
%TO.P,J4,20*%
%TO.N,5V*%
X207645000Y-96520000D03*
%TO.P,J4,21*%
%TO.N,GND*%
X205105000Y-99060000D03*
%TO.P,J4,22*%
X207645000Y-99060000D03*
%TO.P,J4,23*%
%TO.N,Net-(J4-Pad23)*%
X205105000Y-101600000D03*
%TO.P,J4,24*%
%TO.N,GND*%
X207645000Y-101600000D03*
%TO.P,J4,25*%
%TO.N,Net-(J4-Pad25)*%
X205105000Y-104140000D03*
%TO.P,J4,26*%
%TO.N,Vinput*%
X207645000Y-104140000D03*
%TO.P,J4,27*%
%TO.N,Mode_Autre*%
X205105000Y-106680000D03*
%TO.P,J4,28*%
%TO.N,Net-(J4-Pad28)*%
X207645000Y-106680000D03*
%TO.P,J4,29*%
%TO.N,Choix_There*%
X205105000Y-109220000D03*
%TO.P,J4,30*%
%TO.N,Net-(J4-Pad30)*%
X207645000Y-109220000D03*
%TO.P,J4,31*%
%TO.N,Mode_Epi*%
X205105000Y-111760000D03*
%TO.P,J4,32*%
%TO.N,Net-(J4-Pad32)*%
X207645000Y-111760000D03*
%TO.P,J4,33*%
%TO.N,Mode_Demo*%
X205105000Y-114300000D03*
%TO.P,J4,34*%
%TO.N,Net-(J4-Pad34)*%
X207645000Y-114300000D03*
%TO.P,J4,35*%
%TO.N,Net-(J4-Pad35)*%
X205105000Y-116840000D03*
%TO.P,J4,36*%
%TO.N,PitchIn_Adapt*%
X207645000Y-116840000D03*
%TO.P,J4,37*%
%TO.N,AnInG*%
X205105000Y-119380000D03*
%TO.P,J4,38*%
%TO.N,VolumeIn_Adapt*%
X207645000Y-119380000D03*
%TO.P,J4,39*%
%TO.N,AnInB*%
X205105000Y-121920000D03*
%TO.P,J4,40*%
%TO.N,AnInR*%
X207645000Y-121920000D03*
%TD*%
%TO.P,J5,40*%
%TO.N,Net-(J5-Pad40)*%
X267970000Y-121920000D03*
%TO.P,J5,39*%
%TO.N,Net-(J5-Pad39)*%
X265430000Y-121920000D03*
%TO.P,J5,38*%
%TO.N,Net-(J5-Pad38)*%
X267970000Y-119380000D03*
%TO.P,J5,37*%
%TO.N,Net-(J5-Pad37)*%
X265430000Y-119380000D03*
%TO.P,J5,36*%
%TO.N,Net-(J5-Pad36)*%
X267970000Y-116840000D03*
%TO.P,J5,35*%
%TO.N,Net-(J5-Pad35)*%
X265430000Y-116840000D03*
%TO.P,J5,34*%
%TO.N,Net-(J5-Pad34)*%
X267970000Y-114300000D03*
%TO.P,J5,33*%
%TO.N,Net-(J5-Pad33)*%
X265430000Y-114300000D03*
%TO.P,J5,32*%
%TO.N,Net-(J5-Pad32)*%
X267970000Y-111760000D03*
%TO.P,J5,31*%
%TO.N,start*%
X265430000Y-111760000D03*
%TO.P,J5,30*%
%TO.N,Net-(J5-Pad30)*%
X267970000Y-109220000D03*
%TO.P,J5,29*%
%TO.N,Net-(J5-Pad29)*%
X265430000Y-109220000D03*
%TO.P,J5,28*%
%TO.N,Net-(J5-Pad28)*%
X267970000Y-106680000D03*
%TO.P,J5,27*%
%TO.N,out_s*%
X265430000Y-106680000D03*
%TO.P,J5,26*%
%TO.N,Net-(J5-Pad26)*%
X267970000Y-104140000D03*
%TO.P,J5,25*%
%TO.N,Net-(J5-Pad25)*%
X265430000Y-104140000D03*
%TO.P,J5,24*%
%TO.N,Net-(J5-Pad24)*%
X267970000Y-101600000D03*
%TO.P,J5,23*%
%TO.N,Net-(J5-Pad23)*%
X265430000Y-101600000D03*
%TO.P,J5,22*%
%TO.N,GND*%
X267970000Y-99060000D03*
%TO.P,J5,21*%
%TO.N,Net-(J5-Pad21)*%
X265430000Y-99060000D03*
%TO.P,J5,20*%
%TO.N,Net-(J5-Pad20)*%
X267970000Y-96520000D03*
%TO.P,J5,19*%
%TO.N,Net-(J5-Pad19)*%
X265430000Y-96520000D03*
%TO.P,J5,18*%
%TO.N,Net-(J5-Pad18)*%
X267970000Y-93980000D03*
%TO.P,J5,17*%
%TO.N,Net-(J5-Pad17)*%
X265430000Y-93980000D03*
%TO.P,J5,16*%
%TO.N,Net-(J5-Pad16)*%
X267970000Y-91440000D03*
%TO.P,J5,15*%
%TO.N,Net-(J5-Pad15)*%
X265430000Y-91440000D03*
%TO.P,J5,14*%
%TO.N,Net-(J5-Pad14)*%
X267970000Y-88900000D03*
%TO.P,J5,13*%
%TO.N,Net-(J5-Pad13)*%
X265430000Y-88900000D03*
%TO.P,J5,12*%
%TO.N,Net-(J5-Pad12)*%
X267970000Y-86360000D03*
%TO.P,J5,11*%
%TO.N,Net-(J5-Pad11)*%
X265430000Y-86360000D03*
%TO.P,J5,10*%
%TO.N,Net-(J5-Pad10)*%
X267970000Y-83820000D03*
%TO.P,J5,9*%
%TO.N,Net-(J5-Pad9)*%
X265430000Y-83820000D03*
%TO.P,J5,8*%
%TO.N,Net-(J5-Pad8)*%
X267970000Y-81280000D03*
%TO.P,J5,7*%
%TO.N,Net-(J5-Pad7)*%
X265430000Y-81280000D03*
%TO.P,J5,6*%
%TO.N,enable*%
X267970000Y-78740000D03*
%TO.P,J5,5*%
%TO.N,Net-(J5-Pad5)*%
X265430000Y-78740000D03*
%TO.P,J5,4*%
%TO.N,Net-(J5-Pad4)*%
X267970000Y-76200000D03*
%TO.P,J5,3*%
%TO.N,Net-(J5-Pad3)*%
X265430000Y-76200000D03*
%TO.P,J5,2*%
%TO.N,Net-(J5-Pad2)*%
X267970000Y-73660000D03*
D12*
%TO.P,J5,1*%
%TO.N,Net-(J5-Pad1)*%
X265430000Y-73660000D03*
%TD*%
%TO.P,J3,1*%
%TO.N,Net-(J3-Pad1)*%
X193675000Y-55245000D03*
D13*
%TO.P,J3,2*%
X196215000Y-55245000D03*
%TO.P,J3,3*%
%TO.N,Net-(J3-Pad3)*%
X193675000Y-57785000D03*
%TO.P,J3,4*%
X196215000Y-57785000D03*
%TO.P,J3,5*%
%TO.N,GND*%
X193675000Y-60325000D03*
%TO.P,J3,6*%
X196215000Y-60325000D03*
%TD*%
D14*
%TO.P,RV1,1*%
%TO.N,3.3V*%
X196215000Y-156845000D03*
%TO.P,RV1,2*%
%TO.N,AnInR*%
X198755000Y-154305000D03*
%TO.P,RV1,3*%
%TO.N,GND*%
X196215000Y-151765000D03*
%TD*%
%TO.P,RV2,3*%
%TO.N,GND*%
X196215000Y-131445000D03*
%TO.P,RV2,2*%
%TO.N,AnInG*%
X198755000Y-133985000D03*
%TO.P,RV2,1*%
%TO.N,3.3V*%
X196215000Y-136525000D03*
%TD*%
%TO.P,RV3,3*%
%TO.N,GND*%
X196215000Y-141605000D03*
%TO.P,RV3,2*%
%TO.N,AnInB*%
X198755000Y-144145000D03*
%TO.P,RV3,1*%
%TO.N,3.3V*%
X196215000Y-146685000D03*
%TD*%
D15*
%TO.P,U3,1*%
%TO.N,Net-(R2-Pad1)*%
X224155000Y-66040000D03*
D16*
%TO.P,U3,5*%
%TO.N,GND*%
X231775000Y-58420000D03*
%TO.P,U3,2*%
%TO.N,5V*%
X226695000Y-66040000D03*
%TO.P,U3,6*%
%TO.N,Net-(J3-Pad3)*%
X229235000Y-58420000D03*
%TO.P,U3,3*%
%TO.N,enable*%
X229235000Y-66040000D03*
%TO.P,U3,7*%
%TO.N,Net-(J3-Pad1)*%
X226695000Y-58420000D03*
%TO.P,U3,4*%
%TO.N,DMX_TX*%
X231775000Y-66040000D03*
%TO.P,U3,8*%
%TO.N,5V*%
X224155000Y-58420000D03*
%TD*%
D17*
%TO.P,J6,1*%
%TO.N,GND*%
X263525000Y-153035000D03*
D18*
%TO.P,J6,2*%
%TO.N,Vinput*%
X268605000Y-153035000D03*
%TD*%
D12*
%TO.P,J2,1*%
%TO.N,Net-(J2-Pad1)*%
X261620000Y-53975000D03*
D13*
%TO.P,J2,2*%
%TO.N,DMX_TX*%
X261620000Y-56515000D03*
%TO.P,J2,3*%
%TO.N,Net-(J2-Pad3)*%
X261620000Y-59055000D03*
%TD*%
D11*
%TO.P,U2,1*%
%TO.N,TX*%
X226060000Y-96520000D03*
D10*
%TO.P,U2,8*%
%TO.N,Net-(U1-Pad4)*%
X233680000Y-111760000D03*
%TO.P,U2,2*%
%TO.N,notstart*%
X226060000Y-99060000D03*
%TO.P,U2,9*%
%TO.N,Net-(U2-Pad11)*%
X233680000Y-109220000D03*
%TO.P,U2,3*%
%TO.N,Net-(U2-Pad12)*%
X226060000Y-101600000D03*
%TO.P,U2,10*%
%TO.N,Net-(J2-Pad3)*%
X233680000Y-106680000D03*
%TO.P,U2,4*%
%TO.N,notstart*%
X226060000Y-104140000D03*
%TO.P,U2,11*%
%TO.N,Net-(U2-Pad11)*%
X233680000Y-104140000D03*
%TO.P,U2,5*%
%TO.N,start*%
X226060000Y-106680000D03*
%TO.P,U2,12*%
%TO.N,Net-(U2-Pad12)*%
X233680000Y-101600000D03*
%TO.P,U2,6*%
%TO.N,start*%
X226060000Y-109220000D03*
%TO.P,U2,13*%
%TO.N,Net-(U2-Pad12)*%
X233680000Y-99060000D03*
%TO.P,U2,7*%
%TO.N,GND*%
X226060000Y-111760000D03*
%TO.P,U2,14*%
%TO.N,5V*%
X233680000Y-96520000D03*
%TD*%
D17*
%TO.P,J7,1*%
%TO.N,GND*%
X211455000Y-155575000D03*
D18*
%TO.P,J7,2*%
%TO.N,VolumeIn*%
X216535000Y-155575000D03*
%TD*%
D19*
%TO.P,R3,2*%
%TO.N,VolumeIn_Adapt*%
X215265000Y-130810000D03*
D20*
%TO.P,R3,1*%
%TO.N,VolumeIn*%
X215265000Y-140970000D03*
%TD*%
%TO.P,R4,1*%
%TO.N,VolumeIn_Adapt*%
X220345000Y-130810000D03*
D19*
%TO.P,R4,2*%
%TO.N,GND*%
X220345000Y-140970000D03*
%TD*%
%TO.P,R5,2*%
%TO.N,PitchIn*%
X225425000Y-140970000D03*
D20*
%TO.P,R5,1*%
%TO.N,Net-(R5-Pad1)*%
X225425000Y-130810000D03*
%TD*%
%TO.P,R6,1*%
%TO.N,PitchDC*%
X230505000Y-130810000D03*
D19*
%TO.P,R6,2*%
%TO.N,Net-(R5-Pad1)*%
X230505000Y-140970000D03*
%TD*%
D20*
%TO.P,R7,1*%
%TO.N,GND*%
X243840000Y-153035000D03*
D19*
%TO.P,R7,2*%
%TO.N,Net-(R7-Pad2)*%
X254000000Y-153035000D03*
%TD*%
%TO.P,R8,2*%
%TO.N,PitchIn_Adapt*%
X235585000Y-130810000D03*
D20*
%TO.P,R8,1*%
%TO.N,Net-(R7-Pad2)*%
X235585000Y-140970000D03*
%TD*%
D11*
%TO.P,U4,1*%
%TO.N,PitchIn_Adapt*%
X243840000Y-134620000D03*
D10*
%TO.P,U4,5*%
%TO.N,Net-(RV4-Pad2)*%
X251460000Y-142240000D03*
%TO.P,U4,2*%
%TO.N,Net-(R7-Pad2)*%
X243840000Y-137160000D03*
%TO.P,U4,6*%
%TO.N,PitchDC*%
X251460000Y-139700000D03*
%TO.P,U4,3*%
%TO.N,Net-(R5-Pad1)*%
X243840000Y-139700000D03*
%TO.P,U4,7*%
%TO.N,PitchDC*%
X251460000Y-137160000D03*
%TO.P,U4,4*%
%TO.N,GND*%
X243840000Y-142240000D03*
%TO.P,U4,8*%
%TO.N,Vinput*%
X251460000Y-134620000D03*
%TD*%
D17*
%TO.P,J1,1*%
%TO.N,GND*%
X227330000Y-155575000D03*
D18*
%TO.P,J1,2*%
%TO.N,PitchIn*%
X232410000Y-155575000D03*
%TD*%
D14*
%TO.P,RV4,3*%
%TO.N,GND*%
X262890000Y-140335000D03*
%TO.P,RV4,2*%
%TO.N,Net-(RV4-Pad2)*%
X260350000Y-137795000D03*
%TO.P,RV4,1*%
%TO.N,3.3V*%
X262890000Y-135255000D03*
%TD*%
D12*
%TO.P,J8,1*%
%TO.N,GND*%
X190500000Y-111760000D03*
D13*
%TO.P,J8,2*%
%TO.N,3.3V*%
X193040000Y-111760000D03*
%TO.P,J8,3*%
%TO.N,Mode_Epi*%
X195580000Y-111760000D03*
%TD*%
%TO.P,J9,3*%
%TO.N,Mode_Demo*%
X195580000Y-116840000D03*
%TO.P,J9,2*%
%TO.N,3.3V*%
X193040000Y-116840000D03*
D12*
%TO.P,J9,1*%
%TO.N,GND*%
X190500000Y-116840000D03*
%TD*%
%TO.P,J10,1*%
%TO.N,GND*%
X190500000Y-106680000D03*
D13*
%TO.P,J10,2*%
%TO.N,3.3V*%
X193040000Y-106680000D03*
%TO.P,J10,3*%
%TO.N,Choix_There*%
X195580000Y-106680000D03*
%TD*%
%TO.P,J11,3*%
%TO.N,Mode_Autre*%
X195580000Y-101600000D03*
%TO.P,J11,2*%
%TO.N,3.3V*%
X193040000Y-101600000D03*
D12*
%TO.P,J11,1*%
%TO.N,GND*%
X190500000Y-101600000D03*
%TD*%
D19*
%TO.P,R1,2*%
%TO.N,Net-(J3-Pad3)*%
X230505000Y-51435000D03*
D20*
%TO.P,R1,1*%
%TO.N,Net-(J3-Pad1)*%
X220345000Y-51435000D03*
%TD*%
%TO.P,R2,1*%
%TO.N,Net-(R2-Pad1)*%
X219075000Y-66040000D03*
D19*
%TO.P,R2,2*%
%TO.N,GND*%
X219075000Y-76200000D03*
%TD*%
D21*
%TO.N,start*%
X249555000Y-116840000D03*
X229235000Y-116840000D03*
%TO.N,GND*%
X238125000Y-58420000D03*
X238125000Y-69215000D03*
%TO.N,5V*%
X219710000Y-92075000D03*
X215264996Y-96520000D03*
%TO.N,3.3V*%
X212089998Y-93980002D03*
X212090000Y-124460000D03*
X212089998Y-114300000D03*
X212089998Y-110490000D03*
X210185000Y-126365000D03*
X193040000Y-126365000D03*
%TD*%
D22*
%TO.N,start*%
X249555000Y-116840000D02*
X229235000Y-116840000D01*
%TO.N,GND*%
X238125000Y-58420000D02*
X238125000Y-69215000D01*
%TO.N,5V*%
X215265000Y-96520000D02*
X215264996Y-96520000D01*
X219710000Y-92075000D02*
X215265000Y-96520000D01*
%TO.N,3.3V*%
X212089998Y-124459998D02*
X212090000Y-124460000D01*
X212089998Y-114300000D02*
X212089998Y-124459998D01*
X212089998Y-93980002D02*
X212089998Y-110490000D01*
X210185000Y-126365000D02*
X193040000Y-126365000D01*
%TD*%
M02*
