%TF.GenerationSoftware,KiCad,Pcbnew,(5.1.6)-1*%
%TF.CreationDate,2021-11-21T11:26:52+01:00*%
%TF.ProjectId,carteDmx512,63617274-6544-46d7-9835-31322e6b6963,rev?*%
%TF.SameCoordinates,Original*%
%TF.FileFunction,Legend,Top*%
%TF.FilePolarity,Positive*%
%FSLAX46Y46*%
G04 Gerber Fmt 4.6, Leading zero omitted, Abs format (unit mm)*
G04 Created by KiCad (PCBNEW (5.1.6)-1) date 2021-11-21 11:26:52*
%MOMM*%
%LPD*%
G01*
G04 APERTURE LIST*
%ADD10C,0.300000*%
%ADD11C,0.150000*%
%ADD12C,0.120000*%
G04 APERTURE END LIST*
D10*
X205783571Y-59749285D02*
X204283571Y-59749285D01*
X204283571Y-59392142D01*
X204355000Y-59177857D01*
X204497857Y-59035000D01*
X204640714Y-58963571D01*
X204926428Y-58892142D01*
X205140714Y-58892142D01*
X205426428Y-58963571D01*
X205569285Y-59035000D01*
X205712142Y-59177857D01*
X205783571Y-59392142D01*
X205783571Y-59749285D01*
X205783571Y-58249285D02*
X204283571Y-58249285D01*
X205355000Y-57749285D01*
X204283571Y-57249285D01*
X205783571Y-57249285D01*
X204283571Y-56677857D02*
X205783571Y-55677857D01*
X204283571Y-55677857D02*
X205783571Y-56677857D01*
X261251428Y-50700714D02*
X261180000Y-50772142D01*
X260965714Y-50843571D01*
X260822857Y-50843571D01*
X260608571Y-50772142D01*
X260465714Y-50629285D01*
X260394285Y-50486428D01*
X260322857Y-50200714D01*
X260322857Y-49986428D01*
X260394285Y-49700714D01*
X260465714Y-49557857D01*
X260608571Y-49415000D01*
X260822857Y-49343571D01*
X260965714Y-49343571D01*
X261180000Y-49415000D01*
X261251428Y-49486428D01*
X261894285Y-50843571D02*
X261894285Y-49343571D01*
X262537142Y-50843571D02*
X262537142Y-50057857D01*
X262465714Y-49915000D01*
X262322857Y-49843571D01*
X262108571Y-49843571D01*
X261965714Y-49915000D01*
X261894285Y-49986428D01*
X263465714Y-50843571D02*
X263322857Y-50772142D01*
X263251428Y-50700714D01*
X263180000Y-50557857D01*
X263180000Y-50129285D01*
X263251428Y-49986428D01*
X263322857Y-49915000D01*
X263465714Y-49843571D01*
X263680000Y-49843571D01*
X263822857Y-49915000D01*
X263894285Y-49986428D01*
X263965714Y-50129285D01*
X263965714Y-50557857D01*
X263894285Y-50700714D01*
X263822857Y-50772142D01*
X263680000Y-50843571D01*
X263465714Y-50843571D01*
X264608571Y-50843571D02*
X264608571Y-49843571D01*
X264608571Y-49343571D02*
X264537142Y-49415000D01*
X264608571Y-49486428D01*
X264680000Y-49415000D01*
X264608571Y-49343571D01*
X264608571Y-49486428D01*
X265180000Y-50843571D02*
X265965714Y-49843571D01*
X265180000Y-49843571D02*
X265965714Y-50843571D01*
X266537142Y-50843571D02*
X266537142Y-49343571D01*
X266894285Y-49343571D01*
X267108571Y-49415000D01*
X267251428Y-49557857D01*
X267322857Y-49700714D01*
X267394285Y-49986428D01*
X267394285Y-50200714D01*
X267322857Y-50486428D01*
X267251428Y-50629285D01*
X267108571Y-50772142D01*
X266894285Y-50843571D01*
X266537142Y-50843571D01*
X268037142Y-50843571D02*
X268037142Y-49343571D01*
X268537142Y-50415000D01*
X269037142Y-49343571D01*
X269037142Y-50843571D01*
X269608571Y-49343571D02*
X270608571Y-50843571D01*
X270608571Y-49343571D02*
X269608571Y-50843571D01*
X230474285Y-88308571D02*
X230474285Y-86808571D01*
X231331428Y-88308571D01*
X231331428Y-86808571D01*
X232688571Y-87308571D02*
X232688571Y-88308571D01*
X232045714Y-87308571D02*
X232045714Y-88094285D01*
X232117142Y-88237142D01*
X232260000Y-88308571D01*
X232474285Y-88308571D01*
X232617142Y-88237142D01*
X232688571Y-88165714D01*
X234045714Y-88237142D02*
X233902857Y-88308571D01*
X233617142Y-88308571D01*
X233474285Y-88237142D01*
X233402857Y-88165714D01*
X233331428Y-88022857D01*
X233331428Y-87594285D01*
X233402857Y-87451428D01*
X233474285Y-87380000D01*
X233617142Y-87308571D01*
X233902857Y-87308571D01*
X234045714Y-87380000D01*
X234902857Y-88308571D02*
X234760000Y-88237142D01*
X234688571Y-88094285D01*
X234688571Y-86808571D01*
X236045714Y-88237142D02*
X235902857Y-88308571D01*
X235617142Y-88308571D01*
X235474285Y-88237142D01*
X235402857Y-88094285D01*
X235402857Y-87522857D01*
X235474285Y-87380000D01*
X235617142Y-87308571D01*
X235902857Y-87308571D01*
X236045714Y-87380000D01*
X236117142Y-87522857D01*
X236117142Y-87665714D01*
X235402857Y-87808571D01*
X236974285Y-88308571D02*
X236831428Y-88237142D01*
X236760000Y-88165714D01*
X236688571Y-88022857D01*
X236688571Y-87594285D01*
X236760000Y-87451428D01*
X236831428Y-87380000D01*
X236974285Y-87308571D01*
X237188571Y-87308571D01*
X237331428Y-87380000D01*
X237402857Y-87451428D01*
X237474285Y-87594285D01*
X237474285Y-88022857D01*
X237402857Y-88165714D01*
X237331428Y-88237142D01*
X237188571Y-88308571D01*
X236974285Y-88308571D01*
X239974285Y-88308571D02*
X239260000Y-88308571D01*
X239260000Y-86808571D01*
X241117142Y-87308571D02*
X241117142Y-88308571D01*
X240760000Y-86737142D02*
X240402857Y-87808571D01*
X241331428Y-87808571D01*
X241760000Y-86808571D02*
X242760000Y-86808571D01*
X242117142Y-88308571D01*
X243974285Y-86808571D02*
X243688571Y-86808571D01*
X243545714Y-86880000D01*
X243474285Y-86951428D01*
X243331428Y-87165714D01*
X243260000Y-87451428D01*
X243260000Y-88022857D01*
X243331428Y-88165714D01*
X243402857Y-88237142D01*
X243545714Y-88308571D01*
X243831428Y-88308571D01*
X243974285Y-88237142D01*
X244045714Y-88165714D01*
X244117142Y-88022857D01*
X244117142Y-87665714D01*
X244045714Y-87522857D01*
X243974285Y-87451428D01*
X243831428Y-87380000D01*
X243545714Y-87380000D01*
X243402857Y-87451428D01*
X243331428Y-87522857D01*
X243260000Y-87665714D01*
X245617142Y-88308571D02*
X245117142Y-87594285D01*
X244760000Y-88308571D02*
X244760000Y-86808571D01*
X245331428Y-86808571D01*
X245474285Y-86880000D01*
X245545714Y-86951428D01*
X245617142Y-87094285D01*
X245617142Y-87308571D01*
X245545714Y-87451428D01*
X245474285Y-87522857D01*
X245331428Y-87594285D01*
X244760000Y-87594285D01*
X247045714Y-86880000D02*
X246902857Y-86808571D01*
X246688571Y-86808571D01*
X246474285Y-86880000D01*
X246331428Y-87022857D01*
X246260000Y-87165714D01*
X246188571Y-87451428D01*
X246188571Y-87665714D01*
X246260000Y-87951428D01*
X246331428Y-88094285D01*
X246474285Y-88237142D01*
X246688571Y-88308571D01*
X246831428Y-88308571D01*
X247045714Y-88237142D01*
X247117142Y-88165714D01*
X247117142Y-87665714D01*
X246831428Y-87665714D01*
X259032857Y-131417142D02*
X259247142Y-131488571D01*
X259604285Y-131488571D01*
X259747142Y-131417142D01*
X259818571Y-131345714D01*
X259890000Y-131202857D01*
X259890000Y-131060000D01*
X259818571Y-130917142D01*
X259747142Y-130845714D01*
X259604285Y-130774285D01*
X259318571Y-130702857D01*
X259175714Y-130631428D01*
X259104285Y-130560000D01*
X259032857Y-130417142D01*
X259032857Y-130274285D01*
X259104285Y-130131428D01*
X259175714Y-130060000D01*
X259318571Y-129988571D01*
X259675714Y-129988571D01*
X259890000Y-130060000D01*
X261104285Y-131417142D02*
X260961428Y-131488571D01*
X260675714Y-131488571D01*
X260532857Y-131417142D01*
X260461428Y-131274285D01*
X260461428Y-130702857D01*
X260532857Y-130560000D01*
X260675714Y-130488571D01*
X260961428Y-130488571D01*
X261104285Y-130560000D01*
X261175714Y-130702857D01*
X261175714Y-130845714D01*
X260461428Y-130988571D01*
X262461428Y-130488571D02*
X262461428Y-131488571D01*
X261818571Y-130488571D02*
X261818571Y-131274285D01*
X261890000Y-131417142D01*
X262032857Y-131488571D01*
X262247142Y-131488571D01*
X262390000Y-131417142D01*
X262461428Y-131345714D01*
X263175714Y-131488571D02*
X263175714Y-130488571D01*
X263175714Y-129988571D02*
X263104285Y-130060000D01*
X263175714Y-130131428D01*
X263247142Y-130060000D01*
X263175714Y-129988571D01*
X263175714Y-130131428D01*
X264104285Y-131488571D02*
X263961428Y-131417142D01*
X263890000Y-131274285D01*
X263890000Y-129988571D01*
X264461428Y-129988571D02*
X265318571Y-129988571D01*
X264890000Y-131488571D02*
X264890000Y-129988571D01*
X265818571Y-131488571D02*
X265818571Y-129988571D01*
X265818571Y-130702857D02*
X266675714Y-130702857D01*
X266675714Y-131488571D02*
X266675714Y-129988571D01*
X202037142Y-153562857D02*
X202251428Y-153634285D01*
X202322857Y-153705714D01*
X202394285Y-153848571D01*
X202394285Y-154062857D01*
X202322857Y-154205714D01*
X202251428Y-154277142D01*
X202108571Y-154348571D01*
X201537142Y-154348571D01*
X201537142Y-152848571D01*
X202037142Y-152848571D01*
X202180000Y-152920000D01*
X202251428Y-152991428D01*
X202322857Y-153134285D01*
X202322857Y-153277142D01*
X202251428Y-153420000D01*
X202180000Y-153491428D01*
X202037142Y-153562857D01*
X201537142Y-153562857D01*
X202322857Y-143395000D02*
X202180000Y-143323571D01*
X201965714Y-143323571D01*
X201751428Y-143395000D01*
X201608571Y-143537857D01*
X201537142Y-143680714D01*
X201465714Y-143966428D01*
X201465714Y-144180714D01*
X201537142Y-144466428D01*
X201608571Y-144609285D01*
X201751428Y-144752142D01*
X201965714Y-144823571D01*
X202108571Y-144823571D01*
X202322857Y-144752142D01*
X202394285Y-144680714D01*
X202394285Y-144180714D01*
X202108571Y-144180714D01*
X202394285Y-134663571D02*
X201894285Y-133949285D01*
X201537142Y-134663571D02*
X201537142Y-133163571D01*
X202108571Y-133163571D01*
X202251428Y-133235000D01*
X202322857Y-133306428D01*
X202394285Y-133449285D01*
X202394285Y-133663571D01*
X202322857Y-133806428D01*
X202251428Y-133877857D01*
X202108571Y-133949285D01*
X201537142Y-133949285D01*
X259322857Y-161968571D02*
X259322857Y-160468571D01*
X259894285Y-160468571D01*
X260037142Y-160540000D01*
X260108571Y-160611428D01*
X260180000Y-160754285D01*
X260180000Y-160968571D01*
X260108571Y-161111428D01*
X260037142Y-161182857D01*
X259894285Y-161254285D01*
X259322857Y-161254285D01*
X261108571Y-160468571D02*
X261394285Y-160468571D01*
X261537142Y-160540000D01*
X261680000Y-160682857D01*
X261751428Y-160968571D01*
X261751428Y-161468571D01*
X261680000Y-161754285D01*
X261537142Y-161897142D01*
X261394285Y-161968571D01*
X261108571Y-161968571D01*
X260965714Y-161897142D01*
X260822857Y-161754285D01*
X260751428Y-161468571D01*
X260751428Y-160968571D01*
X260822857Y-160682857D01*
X260965714Y-160540000D01*
X261108571Y-160468571D01*
X262251428Y-160468571D02*
X262608571Y-161968571D01*
X262894285Y-160897142D01*
X263180000Y-161968571D01*
X263537142Y-160468571D01*
X264108571Y-161182857D02*
X264608571Y-161182857D01*
X264822857Y-161968571D02*
X264108571Y-161968571D01*
X264108571Y-160468571D01*
X264822857Y-160468571D01*
X266322857Y-161968571D02*
X265822857Y-161254285D01*
X265465714Y-161968571D02*
X265465714Y-160468571D01*
X266037142Y-160468571D01*
X266180000Y-160540000D01*
X266251428Y-160611428D01*
X266322857Y-160754285D01*
X266322857Y-160968571D01*
X266251428Y-161111428D01*
X266180000Y-161182857D01*
X266037142Y-161254285D01*
X265465714Y-161254285D01*
X268894285Y-161968571D02*
X268037142Y-161968571D01*
X268465714Y-161968571D02*
X268465714Y-160468571D01*
X268322857Y-160682857D01*
X268180000Y-160825714D01*
X268037142Y-160897142D01*
X269465714Y-160611428D02*
X269537142Y-160540000D01*
X269680000Y-160468571D01*
X270037142Y-160468571D01*
X270180000Y-160540000D01*
X270251428Y-160611428D01*
X270322857Y-160754285D01*
X270322857Y-160897142D01*
X270251428Y-161111428D01*
X269394285Y-161968571D01*
X270322857Y-161968571D01*
X270751428Y-160468571D02*
X271251428Y-161968571D01*
X271751428Y-160468571D01*
X225655714Y-163238571D02*
X225655714Y-161738571D01*
X226227142Y-161738571D01*
X226370000Y-161810000D01*
X226441428Y-161881428D01*
X226512857Y-162024285D01*
X226512857Y-162238571D01*
X226441428Y-162381428D01*
X226370000Y-162452857D01*
X226227142Y-162524285D01*
X225655714Y-162524285D01*
X227155714Y-163238571D02*
X227155714Y-162238571D01*
X227155714Y-161738571D02*
X227084285Y-161810000D01*
X227155714Y-161881428D01*
X227227142Y-161810000D01*
X227155714Y-161738571D01*
X227155714Y-161881428D01*
X227655714Y-162238571D02*
X228227142Y-162238571D01*
X227870000Y-161738571D02*
X227870000Y-163024285D01*
X227941428Y-163167142D01*
X228084285Y-163238571D01*
X228227142Y-163238571D01*
X229370000Y-163167142D02*
X229227142Y-163238571D01*
X228941428Y-163238571D01*
X228798571Y-163167142D01*
X228727142Y-163095714D01*
X228655714Y-162952857D01*
X228655714Y-162524285D01*
X228727142Y-162381428D01*
X228798571Y-162310000D01*
X228941428Y-162238571D01*
X229227142Y-162238571D01*
X229370000Y-162310000D01*
X230012857Y-163238571D02*
X230012857Y-161738571D01*
X230655714Y-163238571D02*
X230655714Y-162452857D01*
X230584285Y-162310000D01*
X230441428Y-162238571D01*
X230227142Y-162238571D01*
X230084285Y-162310000D01*
X230012857Y-162381428D01*
X232512857Y-163238571D02*
X232512857Y-161738571D01*
X233227142Y-163238571D02*
X233227142Y-161738571D01*
X234084285Y-163238571D01*
X234084285Y-161738571D01*
X208387857Y-161738571D02*
X208887857Y-163238571D01*
X209387857Y-161738571D01*
X210102142Y-163238571D02*
X209959285Y-163167142D01*
X209887857Y-163095714D01*
X209816428Y-162952857D01*
X209816428Y-162524285D01*
X209887857Y-162381428D01*
X209959285Y-162310000D01*
X210102142Y-162238571D01*
X210316428Y-162238571D01*
X210459285Y-162310000D01*
X210530714Y-162381428D01*
X210602142Y-162524285D01*
X210602142Y-162952857D01*
X210530714Y-163095714D01*
X210459285Y-163167142D01*
X210316428Y-163238571D01*
X210102142Y-163238571D01*
X211459285Y-163238571D02*
X211316428Y-163167142D01*
X211245000Y-163024285D01*
X211245000Y-161738571D01*
X212673571Y-162238571D02*
X212673571Y-163238571D01*
X212030714Y-162238571D02*
X212030714Y-163024285D01*
X212102142Y-163167142D01*
X212245000Y-163238571D01*
X212459285Y-163238571D01*
X212602142Y-163167142D01*
X212673571Y-163095714D01*
X213387857Y-163238571D02*
X213387857Y-162238571D01*
X213387857Y-162381428D02*
X213459285Y-162310000D01*
X213602142Y-162238571D01*
X213816428Y-162238571D01*
X213959285Y-162310000D01*
X214030714Y-162452857D01*
X214030714Y-163238571D01*
X214030714Y-162452857D02*
X214102142Y-162310000D01*
X214245000Y-162238571D01*
X214459285Y-162238571D01*
X214602142Y-162310000D01*
X214673571Y-162452857D01*
X214673571Y-163238571D01*
X215959285Y-163167142D02*
X215816428Y-163238571D01*
X215530714Y-163238571D01*
X215387857Y-163167142D01*
X215316428Y-163024285D01*
X215316428Y-162452857D01*
X215387857Y-162310000D01*
X215530714Y-162238571D01*
X215816428Y-162238571D01*
X215959285Y-162310000D01*
X216030714Y-162452857D01*
X216030714Y-162595714D01*
X215316428Y-162738571D01*
X217816428Y-163238571D02*
X217816428Y-161738571D01*
X218530714Y-163238571D02*
X218530714Y-161738571D01*
X219387857Y-163238571D01*
X219387857Y-161738571D01*
X194983571Y-86339285D02*
X194983571Y-87053571D01*
X193483571Y-87053571D01*
X194197857Y-85839285D02*
X194197857Y-85339285D01*
X194983571Y-85125000D02*
X194983571Y-85839285D01*
X193483571Y-85839285D01*
X193483571Y-85125000D01*
X193983571Y-84482142D02*
X194983571Y-84482142D01*
X194126428Y-84482142D02*
X194055000Y-84410714D01*
X193983571Y-84267857D01*
X193983571Y-84053571D01*
X194055000Y-83910714D01*
X194197857Y-83839285D01*
X194983571Y-83839285D01*
X194912142Y-83196428D02*
X194983571Y-83053571D01*
X194983571Y-82767857D01*
X194912142Y-82625000D01*
X194769285Y-82553571D01*
X194697857Y-82553571D01*
X194555000Y-82625000D01*
X194483571Y-82767857D01*
X194483571Y-82982142D01*
X194412142Y-83125000D01*
X194269285Y-83196428D01*
X194197857Y-83196428D01*
X194055000Y-83125000D01*
X193983571Y-82982142D01*
X193983571Y-82767857D01*
X194055000Y-82625000D01*
X194197857Y-81910714D02*
X194197857Y-81410714D01*
X194983571Y-81196428D02*
X194983571Y-81910714D01*
X193483571Y-81910714D01*
X193483571Y-81196428D01*
X193412142Y-78339285D02*
X195340714Y-79625000D01*
X193626428Y-76767857D02*
X193555000Y-76696428D01*
X193483571Y-76553571D01*
X193483571Y-76196428D01*
X193555000Y-76053571D01*
X193626428Y-75982142D01*
X193769285Y-75910714D01*
X193912142Y-75910714D01*
X194126428Y-75982142D01*
X194983571Y-76839285D01*
X194983571Y-75910714D01*
X193483571Y-74982142D02*
X193483571Y-74839285D01*
X193555000Y-74696428D01*
X193626428Y-74625000D01*
X193769285Y-74553571D01*
X194055000Y-74482142D01*
X194412142Y-74482142D01*
X194697857Y-74553571D01*
X194840714Y-74625000D01*
X194912142Y-74696428D01*
X194983571Y-74839285D01*
X194983571Y-74982142D01*
X194912142Y-75125000D01*
X194840714Y-75196428D01*
X194697857Y-75267857D01*
X194412142Y-75339285D01*
X194055000Y-75339285D01*
X193769285Y-75267857D01*
X193626428Y-75196428D01*
X193555000Y-75125000D01*
X193483571Y-74982142D01*
X193626428Y-73910714D02*
X193555000Y-73839285D01*
X193483571Y-73696428D01*
X193483571Y-73339285D01*
X193555000Y-73196428D01*
X193626428Y-73125000D01*
X193769285Y-73053571D01*
X193912142Y-73053571D01*
X194126428Y-73125000D01*
X194983571Y-73982142D01*
X194983571Y-73053571D01*
X194983571Y-71625000D02*
X194983571Y-72482142D01*
X194983571Y-72053571D02*
X193483571Y-72053571D01*
X193697857Y-72196428D01*
X193840714Y-72339285D01*
X193912142Y-72482142D01*
X197533571Y-94696428D02*
X196033571Y-94696428D01*
X196033571Y-94339285D01*
X196105000Y-94125000D01*
X196247857Y-93982142D01*
X196390714Y-93910714D01*
X196676428Y-93839285D01*
X196890714Y-93839285D01*
X197176428Y-93910714D01*
X197319285Y-93982142D01*
X197462142Y-94125000D01*
X197533571Y-94339285D01*
X197533571Y-94696428D01*
X197533571Y-93196428D02*
X196033571Y-93196428D01*
X197105000Y-92696428D01*
X196033571Y-92196428D01*
X197533571Y-92196428D01*
X196033571Y-91625000D02*
X197533571Y-90625000D01*
X196033571Y-90625000D02*
X197533571Y-91625000D01*
X196033571Y-89339285D02*
X196033571Y-90053571D01*
X196747857Y-90125000D01*
X196676428Y-90053571D01*
X196605000Y-89910714D01*
X196605000Y-89553571D01*
X196676428Y-89410714D01*
X196747857Y-89339285D01*
X196890714Y-89267857D01*
X197247857Y-89267857D01*
X197390714Y-89339285D01*
X197462142Y-89410714D01*
X197533571Y-89553571D01*
X197533571Y-89910714D01*
X197462142Y-90053571D01*
X197390714Y-90125000D01*
X197533571Y-87839285D02*
X197533571Y-88696428D01*
X197533571Y-88267857D02*
X196033571Y-88267857D01*
X196247857Y-88410714D01*
X196390714Y-88553571D01*
X196462142Y-88696428D01*
X196176428Y-87267857D02*
X196105000Y-87196428D01*
X196033571Y-87053571D01*
X196033571Y-86696428D01*
X196105000Y-86553571D01*
X196176428Y-86482142D01*
X196319285Y-86410714D01*
X196462142Y-86410714D01*
X196676428Y-86482142D01*
X197533571Y-87339285D01*
X197533571Y-86410714D01*
X195962142Y-83553571D02*
X197890714Y-84839285D01*
X197105000Y-81982142D02*
X197105000Y-81267857D01*
X197533571Y-82125000D02*
X196033571Y-81625000D01*
X197533571Y-81125000D01*
X197533571Y-80625000D02*
X196533571Y-80625000D01*
X196819285Y-80625000D02*
X196676428Y-80553571D01*
X196605000Y-80482142D01*
X196533571Y-80339285D01*
X196533571Y-80196428D01*
X196533571Y-79910714D02*
X196533571Y-79339285D01*
X196033571Y-79696428D02*
X197319285Y-79696428D01*
X197462142Y-79625000D01*
X197533571Y-79482142D01*
X197533571Y-79339285D01*
X197462142Y-78910714D02*
X197533571Y-78767857D01*
X197533571Y-78482142D01*
X197462142Y-78339285D01*
X197319285Y-78267857D01*
X197247857Y-78267857D01*
X197105000Y-78339285D01*
X197033571Y-78482142D01*
X197033571Y-78696428D01*
X196962142Y-78839285D01*
X196819285Y-78910714D01*
X196747857Y-78910714D01*
X196605000Y-78839285D01*
X196533571Y-78696428D01*
X196533571Y-78482142D01*
X196605000Y-78339285D01*
X197462142Y-75910714D02*
X197533571Y-76053571D01*
X197533571Y-76339285D01*
X197462142Y-76482142D01*
X197319285Y-76553571D01*
X196747857Y-76553571D01*
X196605000Y-76482142D01*
X196533571Y-76339285D01*
X196533571Y-76053571D01*
X196605000Y-75910714D01*
X196747857Y-75839285D01*
X196890714Y-75839285D01*
X197033571Y-76553571D01*
X196533571Y-75410714D02*
X196533571Y-74839285D01*
X196033571Y-75196428D02*
X197319285Y-75196428D01*
X197462142Y-75125000D01*
X197533571Y-74982142D01*
X197533571Y-74839285D01*
X197462142Y-73267857D02*
X197533571Y-73053571D01*
X197533571Y-72696428D01*
X197462142Y-72553571D01*
X197390714Y-72482142D01*
X197247857Y-72410714D01*
X197105000Y-72410714D01*
X196962142Y-72482142D01*
X196890714Y-72553571D01*
X196819285Y-72696428D01*
X196747857Y-72982142D01*
X196676428Y-73125000D01*
X196605000Y-73196428D01*
X196462142Y-73267857D01*
X196319285Y-73267857D01*
X196176428Y-73196428D01*
X196105000Y-73125000D01*
X196033571Y-72982142D01*
X196033571Y-72625000D01*
X196105000Y-72410714D01*
X197462142Y-71125000D02*
X197533571Y-71267857D01*
X197533571Y-71553571D01*
X197462142Y-71696428D01*
X197390714Y-71767857D01*
X197247857Y-71839285D01*
X196819285Y-71839285D01*
X196676428Y-71767857D01*
X196605000Y-71696428D01*
X196533571Y-71553571D01*
X196533571Y-71267857D01*
X196605000Y-71125000D01*
X197533571Y-70482142D02*
X196533571Y-70482142D01*
X196033571Y-70482142D02*
X196105000Y-70553571D01*
X196176428Y-70482142D01*
X196105000Y-70410714D01*
X196033571Y-70482142D01*
X196176428Y-70482142D01*
X197462142Y-69196428D02*
X197533571Y-69339285D01*
X197533571Y-69625000D01*
X197462142Y-69767857D01*
X197319285Y-69839285D01*
X196747857Y-69839285D01*
X196605000Y-69767857D01*
X196533571Y-69625000D01*
X196533571Y-69339285D01*
X196605000Y-69196428D01*
X196747857Y-69125000D01*
X196890714Y-69125000D01*
X197033571Y-69839285D01*
X196533571Y-68482142D02*
X197533571Y-68482142D01*
X196676428Y-68482142D02*
X196605000Y-68410714D01*
X196533571Y-68267857D01*
X196533571Y-68053571D01*
X196605000Y-67910714D01*
X196747857Y-67839285D01*
X197533571Y-67839285D01*
X197462142Y-66482142D02*
X197533571Y-66625000D01*
X197533571Y-66910714D01*
X197462142Y-67053571D01*
X197390714Y-67125000D01*
X197247857Y-67196428D01*
X196819285Y-67196428D01*
X196676428Y-67125000D01*
X196605000Y-67053571D01*
X196533571Y-66910714D01*
X196533571Y-66625000D01*
X196605000Y-66482142D01*
X197462142Y-65267857D02*
X197533571Y-65410714D01*
X197533571Y-65696428D01*
X197462142Y-65839285D01*
X197319285Y-65910714D01*
X196747857Y-65910714D01*
X196605000Y-65839285D01*
X196533571Y-65696428D01*
X196533571Y-65410714D01*
X196605000Y-65267857D01*
X196747857Y-65196428D01*
X196890714Y-65196428D01*
X197033571Y-65910714D01*
X197462142Y-64625000D02*
X197533571Y-64482142D01*
X197533571Y-64196428D01*
X197462142Y-64053571D01*
X197319285Y-63982142D01*
X197247857Y-63982142D01*
X197105000Y-64053571D01*
X197033571Y-64196428D01*
X197033571Y-64410714D01*
X196962142Y-64553571D01*
X196819285Y-64625000D01*
X196747857Y-64625000D01*
X196605000Y-64553571D01*
X196533571Y-64410714D01*
X196533571Y-64196428D01*
X196605000Y-64053571D01*
D11*
X258889761Y-107132380D02*
X258889761Y-106132380D01*
X259270714Y-106132380D01*
X259365952Y-106180000D01*
X259413571Y-106227619D01*
X259461190Y-106322857D01*
X259461190Y-106465714D01*
X259413571Y-106560952D01*
X259365952Y-106608571D01*
X259270714Y-106656190D01*
X258889761Y-106656190D01*
X260223095Y-106608571D02*
X260365952Y-106656190D01*
X260413571Y-106703809D01*
X260461190Y-106799047D01*
X260461190Y-106941904D01*
X260413571Y-107037142D01*
X260365952Y-107084761D01*
X260270714Y-107132380D01*
X259889761Y-107132380D01*
X259889761Y-106132380D01*
X260223095Y-106132380D01*
X260318333Y-106180000D01*
X260365952Y-106227619D01*
X260413571Y-106322857D01*
X260413571Y-106418095D01*
X260365952Y-106513333D01*
X260318333Y-106560952D01*
X260223095Y-106608571D01*
X259889761Y-106608571D01*
X260651666Y-107227619D02*
X261413571Y-107227619D01*
X262175476Y-107132380D02*
X261604047Y-107132380D01*
X261889761Y-107132380D02*
X261889761Y-106132380D01*
X261794523Y-106275238D01*
X261699285Y-106370476D01*
X261604047Y-106418095D01*
X262794523Y-106132380D02*
X262889761Y-106132380D01*
X262985000Y-106180000D01*
X263032619Y-106227619D01*
X263080238Y-106322857D01*
X263127857Y-106513333D01*
X263127857Y-106751428D01*
X263080238Y-106941904D01*
X263032619Y-107037142D01*
X262985000Y-107084761D01*
X262889761Y-107132380D01*
X262794523Y-107132380D01*
X262699285Y-107084761D01*
X262651666Y-107037142D01*
X262604047Y-106941904D01*
X262556428Y-106751428D01*
X262556428Y-106513333D01*
X262604047Y-106322857D01*
X262651666Y-106227619D01*
X262699285Y-106180000D01*
X262794523Y-106132380D01*
X259365952Y-112212380D02*
X259365952Y-111212380D01*
X259746904Y-111212380D01*
X259842142Y-111260000D01*
X259889761Y-111307619D01*
X259937380Y-111402857D01*
X259937380Y-111545714D01*
X259889761Y-111640952D01*
X259842142Y-111688571D01*
X259746904Y-111736190D01*
X259365952Y-111736190D01*
X260699285Y-111688571D02*
X260842142Y-111736190D01*
X260889761Y-111783809D01*
X260937380Y-111879047D01*
X260937380Y-112021904D01*
X260889761Y-112117142D01*
X260842142Y-112164761D01*
X260746904Y-112212380D01*
X260365952Y-112212380D01*
X260365952Y-111212380D01*
X260699285Y-111212380D01*
X260794523Y-111260000D01*
X260842142Y-111307619D01*
X260889761Y-111402857D01*
X260889761Y-111498095D01*
X260842142Y-111593333D01*
X260794523Y-111640952D01*
X260699285Y-111688571D01*
X260365952Y-111688571D01*
X261127857Y-112307619D02*
X261889761Y-112307619D01*
X262604047Y-111212380D02*
X262127857Y-111212380D01*
X262080238Y-111688571D01*
X262127857Y-111640952D01*
X262223095Y-111593333D01*
X262461190Y-111593333D01*
X262556428Y-111640952D01*
X262604047Y-111688571D01*
X262651666Y-111783809D01*
X262651666Y-112021904D01*
X262604047Y-112117142D01*
X262556428Y-112164761D01*
X262461190Y-112212380D01*
X262223095Y-112212380D01*
X262127857Y-112164761D01*
X262080238Y-112117142D01*
X270160952Y-79192380D02*
X270160952Y-78192380D01*
X270541904Y-78192380D01*
X270637142Y-78240000D01*
X270684761Y-78287619D01*
X270732380Y-78382857D01*
X270732380Y-78525714D01*
X270684761Y-78620952D01*
X270637142Y-78668571D01*
X270541904Y-78716190D01*
X270160952Y-78716190D01*
X271732380Y-79097142D02*
X271684761Y-79144761D01*
X271541904Y-79192380D01*
X271446666Y-79192380D01*
X271303809Y-79144761D01*
X271208571Y-79049523D01*
X271160952Y-78954285D01*
X271113333Y-78763809D01*
X271113333Y-78620952D01*
X271160952Y-78430476D01*
X271208571Y-78335238D01*
X271303809Y-78240000D01*
X271446666Y-78192380D01*
X271541904Y-78192380D01*
X271684761Y-78240000D01*
X271732380Y-78287619D01*
X271922857Y-79287619D02*
X272684761Y-79287619D01*
X273351428Y-78192380D02*
X273160952Y-78192380D01*
X273065714Y-78240000D01*
X273018095Y-78287619D01*
X272922857Y-78430476D01*
X272875238Y-78620952D01*
X272875238Y-79001904D01*
X272922857Y-79097142D01*
X272970476Y-79144761D01*
X273065714Y-79192380D01*
X273256190Y-79192380D01*
X273351428Y-79144761D01*
X273399047Y-79097142D01*
X273446666Y-79001904D01*
X273446666Y-78763809D01*
X273399047Y-78668571D01*
X273351428Y-78620952D01*
X273256190Y-78573333D01*
X273065714Y-78573333D01*
X272970476Y-78620952D01*
X272922857Y-78668571D01*
X272875238Y-78763809D01*
X199144047Y-58237380D02*
X199144047Y-57237380D01*
X199382142Y-57237380D01*
X199525000Y-57285000D01*
X199620238Y-57380238D01*
X199667857Y-57475476D01*
X199715476Y-57665952D01*
X199715476Y-57808809D01*
X199667857Y-57999285D01*
X199620238Y-58094523D01*
X199525000Y-58189761D01*
X199382142Y-58237380D01*
X199144047Y-58237380D01*
X200144047Y-57856428D02*
X200905952Y-57856428D01*
X199144047Y-55697380D02*
X199144047Y-54697380D01*
X199382142Y-54697380D01*
X199525000Y-54745000D01*
X199620238Y-54840238D01*
X199667857Y-54935476D01*
X199715476Y-55125952D01*
X199715476Y-55268809D01*
X199667857Y-55459285D01*
X199620238Y-55554523D01*
X199525000Y-55649761D01*
X199382142Y-55697380D01*
X199144047Y-55697380D01*
X200144047Y-55316428D02*
X200905952Y-55316428D01*
X200525000Y-55697380D02*
X200525000Y-54935476D01*
X199898095Y-59825000D02*
X199802857Y-59777380D01*
X199660000Y-59777380D01*
X199517142Y-59825000D01*
X199421904Y-59920238D01*
X199374285Y-60015476D01*
X199326666Y-60205952D01*
X199326666Y-60348809D01*
X199374285Y-60539285D01*
X199421904Y-60634523D01*
X199517142Y-60729761D01*
X199660000Y-60777380D01*
X199755238Y-60777380D01*
X199898095Y-60729761D01*
X199945714Y-60682142D01*
X199945714Y-60348809D01*
X199755238Y-60348809D01*
X200374285Y-60777380D02*
X200374285Y-59777380D01*
X200945714Y-60777380D01*
X200945714Y-59777380D01*
X201421904Y-60777380D02*
X201421904Y-59777380D01*
X201660000Y-59777380D01*
X201802857Y-59825000D01*
X201898095Y-59920238D01*
X201945714Y-60015476D01*
X201993333Y-60205952D01*
X201993333Y-60348809D01*
X201945714Y-60539285D01*
X201898095Y-60634523D01*
X201802857Y-60729761D01*
X201660000Y-60777380D01*
X201421904Y-60777380D01*
X210629761Y-76652380D02*
X210629761Y-75652380D01*
X211010714Y-75652380D01*
X211105952Y-75700000D01*
X211153571Y-75747619D01*
X211201190Y-75842857D01*
X211201190Y-75985714D01*
X211153571Y-76080952D01*
X211105952Y-76128571D01*
X211010714Y-76176190D01*
X210629761Y-76176190D01*
X212201190Y-76557142D02*
X212153571Y-76604761D01*
X212010714Y-76652380D01*
X211915476Y-76652380D01*
X211772619Y-76604761D01*
X211677380Y-76509523D01*
X211629761Y-76414285D01*
X211582142Y-76223809D01*
X211582142Y-76080952D01*
X211629761Y-75890476D01*
X211677380Y-75795238D01*
X211772619Y-75700000D01*
X211915476Y-75652380D01*
X212010714Y-75652380D01*
X212153571Y-75700000D01*
X212201190Y-75747619D01*
X212391666Y-76747619D02*
X213153571Y-76747619D01*
X213915476Y-76652380D02*
X213344047Y-76652380D01*
X213629761Y-76652380D02*
X213629761Y-75652380D01*
X213534523Y-75795238D01*
X213439285Y-75890476D01*
X213344047Y-75938095D01*
X214867857Y-76652380D02*
X214296428Y-76652380D01*
X214582142Y-76652380D02*
X214582142Y-75652380D01*
X214486904Y-75795238D01*
X214391666Y-75890476D01*
X214296428Y-75938095D01*
X197929761Y-76652380D02*
X197929761Y-75652380D01*
X198310714Y-75652380D01*
X198405952Y-75700000D01*
X198453571Y-75747619D01*
X198501190Y-75842857D01*
X198501190Y-75985714D01*
X198453571Y-76080952D01*
X198405952Y-76128571D01*
X198310714Y-76176190D01*
X197929761Y-76176190D01*
X199501190Y-76557142D02*
X199453571Y-76604761D01*
X199310714Y-76652380D01*
X199215476Y-76652380D01*
X199072619Y-76604761D01*
X198977380Y-76509523D01*
X198929761Y-76414285D01*
X198882142Y-76223809D01*
X198882142Y-76080952D01*
X198929761Y-75890476D01*
X198977380Y-75795238D01*
X199072619Y-75700000D01*
X199215476Y-75652380D01*
X199310714Y-75652380D01*
X199453571Y-75700000D01*
X199501190Y-75747619D01*
X199691666Y-76747619D02*
X200453571Y-76747619D01*
X201215476Y-76652380D02*
X200644047Y-76652380D01*
X200929761Y-76652380D02*
X200929761Y-75652380D01*
X200834523Y-75795238D01*
X200739285Y-75890476D01*
X200644047Y-75938095D01*
X201834523Y-75652380D02*
X201929761Y-75652380D01*
X202025000Y-75700000D01*
X202072619Y-75747619D01*
X202120238Y-75842857D01*
X202167857Y-76033333D01*
X202167857Y-76271428D01*
X202120238Y-76461904D01*
X202072619Y-76557142D01*
X202025000Y-76604761D01*
X201929761Y-76652380D01*
X201834523Y-76652380D01*
X201739285Y-76604761D01*
X201691666Y-76557142D01*
X201644047Y-76461904D01*
X201596428Y-76271428D01*
X201596428Y-76033333D01*
X201644047Y-75842857D01*
X201691666Y-75747619D01*
X201739285Y-75700000D01*
X201834523Y-75652380D01*
X210470952Y-119832380D02*
X210470952Y-118832380D01*
X210851904Y-118832380D01*
X210947142Y-118880000D01*
X210994761Y-118927619D01*
X211042380Y-119022857D01*
X211042380Y-119165714D01*
X210994761Y-119260952D01*
X210947142Y-119308571D01*
X210851904Y-119356190D01*
X210470952Y-119356190D01*
X212042380Y-119737142D02*
X211994761Y-119784761D01*
X211851904Y-119832380D01*
X211756666Y-119832380D01*
X211613809Y-119784761D01*
X211518571Y-119689523D01*
X211470952Y-119594285D01*
X211423333Y-119403809D01*
X211423333Y-119260952D01*
X211470952Y-119070476D01*
X211518571Y-118975238D01*
X211613809Y-118880000D01*
X211756666Y-118832380D01*
X211851904Y-118832380D01*
X211994761Y-118880000D01*
X212042380Y-118927619D01*
X212232857Y-119927619D02*
X212994761Y-119927619D01*
X213756666Y-119832380D02*
X213185238Y-119832380D01*
X213470952Y-119832380D02*
X213470952Y-118832380D01*
X213375714Y-118975238D01*
X213280476Y-119070476D01*
X213185238Y-119118095D01*
X210470952Y-122372380D02*
X210470952Y-121372380D01*
X210851904Y-121372380D01*
X210947142Y-121420000D01*
X210994761Y-121467619D01*
X211042380Y-121562857D01*
X211042380Y-121705714D01*
X210994761Y-121800952D01*
X210947142Y-121848571D01*
X210851904Y-121896190D01*
X210470952Y-121896190D01*
X212042380Y-122277142D02*
X211994761Y-122324761D01*
X211851904Y-122372380D01*
X211756666Y-122372380D01*
X211613809Y-122324761D01*
X211518571Y-122229523D01*
X211470952Y-122134285D01*
X211423333Y-121943809D01*
X211423333Y-121800952D01*
X211470952Y-121610476D01*
X211518571Y-121515238D01*
X211613809Y-121420000D01*
X211756666Y-121372380D01*
X211851904Y-121372380D01*
X211994761Y-121420000D01*
X212042380Y-121467619D01*
X212232857Y-122467619D02*
X212994761Y-122467619D01*
X213423333Y-121372380D02*
X213518571Y-121372380D01*
X213613809Y-121420000D01*
X213661428Y-121467619D01*
X213709047Y-121562857D01*
X213756666Y-121753333D01*
X213756666Y-121991428D01*
X213709047Y-122181904D01*
X213661428Y-122277142D01*
X213613809Y-122324761D01*
X213518571Y-122372380D01*
X213423333Y-122372380D01*
X213328095Y-122324761D01*
X213280476Y-122277142D01*
X213232857Y-122181904D01*
X213185238Y-121991428D01*
X213185238Y-121753333D01*
X213232857Y-121562857D01*
X213280476Y-121467619D01*
X213328095Y-121420000D01*
X213423333Y-121372380D01*
D12*
%TO.C,U1*%
X249825000Y-95190000D02*
X248575000Y-95190000D01*
X248575000Y-95190000D02*
X248575000Y-113090000D01*
X248575000Y-113090000D02*
X253075000Y-113090000D01*
X253075000Y-113090000D02*
X253075000Y-95190000D01*
X253075000Y-95190000D02*
X251825000Y-95190000D01*
X245575000Y-95130000D02*
X245575000Y-113150000D01*
X245575000Y-113150000D02*
X256075000Y-113150000D01*
X256075000Y-113150000D02*
X256075000Y-95130000D01*
X256075000Y-95130000D02*
X245575000Y-95130000D01*
X251825000Y-95190000D02*
G75*
G02*
X249825000Y-95190000I-1000000J0D01*
G01*
%TO.C,J4*%
X203775000Y-72330000D02*
X205105000Y-72330000D01*
X203775000Y-73660000D02*
X203775000Y-72330000D01*
X206375000Y-72330000D02*
X208975000Y-72330000D01*
X206375000Y-74930000D02*
X206375000Y-72330000D01*
X203775000Y-74930000D02*
X206375000Y-74930000D01*
X208975000Y-72330000D02*
X208975000Y-123250000D01*
X203775000Y-74930000D02*
X203775000Y-123250000D01*
X203775000Y-123250000D02*
X208975000Y-123250000D01*
%TO.C,J5*%
X264100000Y-123250000D02*
X269300000Y-123250000D01*
X264100000Y-74930000D02*
X264100000Y-123250000D01*
X269300000Y-72330000D02*
X269300000Y-123250000D01*
X264100000Y-74930000D02*
X266700000Y-74930000D01*
X266700000Y-74930000D02*
X266700000Y-72330000D01*
X266700000Y-72330000D02*
X269300000Y-72330000D01*
X264100000Y-73660000D02*
X264100000Y-72330000D01*
X264100000Y-72330000D02*
X265430000Y-72330000D01*
%TO.C,J3*%
X192345000Y-53915000D02*
X193675000Y-53915000D01*
X192345000Y-55245000D02*
X192345000Y-53915000D01*
X194945000Y-53915000D02*
X197545000Y-53915000D01*
X194945000Y-56515000D02*
X194945000Y-53915000D01*
X192345000Y-56515000D02*
X194945000Y-56515000D01*
X197545000Y-53915000D02*
X197545000Y-61655000D01*
X192345000Y-56515000D02*
X192345000Y-61655000D01*
X192345000Y-61655000D02*
X197545000Y-61655000D01*
%TO.C,RV1*%
X192535000Y-150885000D02*
X195565000Y-150885000D01*
X196865000Y-150885000D02*
X199775000Y-150885000D01*
X192535000Y-157725000D02*
X195565000Y-157725000D01*
X196865000Y-157725000D02*
X199775000Y-157725000D01*
X192535000Y-150885000D02*
X192535000Y-157725000D01*
X199775000Y-150885000D02*
X199775000Y-157725000D01*
%TO.C,RV2*%
X199775000Y-130565000D02*
X199775000Y-137405000D01*
X192535000Y-130565000D02*
X192535000Y-137405000D01*
X196865000Y-137405000D02*
X199775000Y-137405000D01*
X192535000Y-137405000D02*
X195565000Y-137405000D01*
X196865000Y-130565000D02*
X199775000Y-130565000D01*
X192535000Y-130565000D02*
X195565000Y-130565000D01*
%TO.C,RV3*%
X199775000Y-140725000D02*
X199775000Y-147565000D01*
X192535000Y-140725000D02*
X192535000Y-147565000D01*
X196865000Y-147565000D02*
X199775000Y-147565000D01*
X192535000Y-147565000D02*
X195565000Y-147565000D01*
X196865000Y-140725000D02*
X199775000Y-140725000D01*
X192535000Y-140725000D02*
X195565000Y-140725000D01*
%TO.C,U3*%
X222765000Y-56980000D02*
X222765000Y-67480000D01*
X233165000Y-56980000D02*
X222765000Y-56980000D01*
X233165000Y-67480000D02*
X233165000Y-56980000D01*
X222765000Y-67480000D02*
X233165000Y-67480000D01*
X222825000Y-59980000D02*
X222825000Y-61230000D01*
X233105000Y-59980000D02*
X222825000Y-59980000D01*
X233105000Y-64480000D02*
X233105000Y-59980000D01*
X222825000Y-64480000D02*
X233105000Y-64480000D01*
X222825000Y-63230000D02*
X222825000Y-64480000D01*
X222825000Y-61230000D02*
G75*
G02*
X222825000Y-63230000I0J-1000000D01*
G01*
%TO.C,J6*%
X260685000Y-158635000D02*
X261185000Y-158635000D01*
X260685000Y-157895000D02*
X260685000Y-158635000D01*
X267347000Y-154027000D02*
X266952000Y-154423000D01*
X269993000Y-151381000D02*
X269613000Y-151761000D01*
X267598000Y-154309000D02*
X267218000Y-154689000D01*
X270259000Y-151647000D02*
X269864000Y-152043000D01*
X261977000Y-154316000D02*
X261871000Y-154423000D01*
X264913000Y-151381000D02*
X264806000Y-151488000D01*
X262243000Y-154582000D02*
X262137000Y-154689000D01*
X265179000Y-151647000D02*
X265072000Y-151754000D01*
X271205000Y-147075000D02*
X271205000Y-158395000D01*
X260925000Y-147075000D02*
X260925000Y-158395000D01*
X260925000Y-158395000D02*
X271205000Y-158395000D01*
X260925000Y-147075000D02*
X271205000Y-147075000D01*
X260925000Y-149135000D02*
X271205000Y-149135000D01*
X260925000Y-155335000D02*
X271205000Y-155335000D01*
X260925000Y-157835000D02*
X271205000Y-157835000D01*
X270785000Y-153035000D02*
G75*
G03*
X270785000Y-153035000I-2180000J0D01*
G01*
X265705000Y-153035000D02*
G75*
G03*
X265705000Y-153035000I-2180000J0D01*
G01*
%TO.C,J2*%
X260350000Y-52705000D02*
X261620000Y-52705000D01*
X260350000Y-53975000D02*
X260350000Y-52705000D01*
X262662929Y-59435000D02*
X263060000Y-59435000D01*
X262662929Y-58675000D02*
X263060000Y-58675000D01*
X271720000Y-59435000D02*
X265720000Y-59435000D01*
X271720000Y-58675000D02*
X271720000Y-59435000D01*
X265720000Y-58675000D02*
X271720000Y-58675000D01*
X263060000Y-57785000D02*
X265720000Y-57785000D01*
X262662929Y-56895000D02*
X263060000Y-56895000D01*
X262662929Y-56135000D02*
X263060000Y-56135000D01*
X271720000Y-56895000D02*
X265720000Y-56895000D01*
X271720000Y-56135000D02*
X271720000Y-56895000D01*
X265720000Y-56135000D02*
X271720000Y-56135000D01*
X263060000Y-55245000D02*
X265720000Y-55245000D01*
X262730000Y-54355000D02*
X263060000Y-54355000D01*
X262730000Y-53595000D02*
X263060000Y-53595000D01*
X265720000Y-54255000D02*
X271720000Y-54255000D01*
X265720000Y-54135000D02*
X271720000Y-54135000D01*
X265720000Y-54015000D02*
X271720000Y-54015000D01*
X265720000Y-53895000D02*
X271720000Y-53895000D01*
X265720000Y-53775000D02*
X271720000Y-53775000D01*
X265720000Y-53655000D02*
X271720000Y-53655000D01*
X271720000Y-54355000D02*
X265720000Y-54355000D01*
X271720000Y-53595000D02*
X271720000Y-54355000D01*
X265720000Y-53595000D02*
X271720000Y-53595000D01*
X265720000Y-52645000D02*
X263060000Y-52645000D01*
X265720000Y-60385000D02*
X265720000Y-52645000D01*
X263060000Y-60385000D02*
X265720000Y-60385000D01*
X263060000Y-52645000D02*
X263060000Y-60385000D01*
%TO.C,U2*%
X235120000Y-95130000D02*
X224620000Y-95130000D01*
X235120000Y-113150000D02*
X235120000Y-95130000D01*
X224620000Y-113150000D02*
X235120000Y-113150000D01*
X224620000Y-95130000D02*
X224620000Y-113150000D01*
X232120000Y-95190000D02*
X230870000Y-95190000D01*
X232120000Y-113090000D02*
X232120000Y-95190000D01*
X227620000Y-113090000D02*
X232120000Y-113090000D01*
X227620000Y-95190000D02*
X227620000Y-113090000D01*
X228870000Y-95190000D02*
X227620000Y-95190000D01*
X230870000Y-95190000D02*
G75*
G02*
X228870000Y-95190000I-1000000J0D01*
G01*
%TO.C,J7*%
X213635000Y-155575000D02*
G75*
G03*
X213635000Y-155575000I-2180000J0D01*
G01*
X218715000Y-155575000D02*
G75*
G03*
X218715000Y-155575000I-2180000J0D01*
G01*
X208855000Y-160375000D02*
X219135000Y-160375000D01*
X208855000Y-157875000D02*
X219135000Y-157875000D01*
X208855000Y-151675000D02*
X219135000Y-151675000D01*
X208855000Y-149615000D02*
X219135000Y-149615000D01*
X208855000Y-160935000D02*
X219135000Y-160935000D01*
X208855000Y-149615000D02*
X208855000Y-160935000D01*
X219135000Y-149615000D02*
X219135000Y-160935000D01*
X213109000Y-154187000D02*
X213002000Y-154294000D01*
X210173000Y-157122000D02*
X210067000Y-157229000D01*
X212843000Y-153921000D02*
X212736000Y-154028000D01*
X209907000Y-156856000D02*
X209801000Y-156963000D01*
X218189000Y-154187000D02*
X217794000Y-154583000D01*
X215528000Y-156849000D02*
X215148000Y-157229000D01*
X217923000Y-153921000D02*
X217543000Y-154301000D01*
X215277000Y-156567000D02*
X214882000Y-156963000D01*
X208615000Y-160435000D02*
X208615000Y-161175000D01*
X208615000Y-161175000D02*
X209115000Y-161175000D01*
%TO.C,R3*%
X215265000Y-131850000D02*
X215265000Y-132620000D01*
X215265000Y-139930000D02*
X215265000Y-139160000D01*
X213895000Y-132620000D02*
X213895000Y-139160000D01*
X216635000Y-132620000D02*
X213895000Y-132620000D01*
X216635000Y-139160000D02*
X216635000Y-132620000D01*
X213895000Y-139160000D02*
X216635000Y-139160000D01*
%TO.C,R4*%
X221715000Y-132620000D02*
X218975000Y-132620000D01*
X218975000Y-132620000D02*
X218975000Y-139160000D01*
X218975000Y-139160000D02*
X221715000Y-139160000D01*
X221715000Y-139160000D02*
X221715000Y-132620000D01*
X220345000Y-131850000D02*
X220345000Y-132620000D01*
X220345000Y-139930000D02*
X220345000Y-139160000D01*
%TO.C,R5*%
X225425000Y-139930000D02*
X225425000Y-139160000D01*
X225425000Y-131850000D02*
X225425000Y-132620000D01*
X226795000Y-139160000D02*
X226795000Y-132620000D01*
X224055000Y-139160000D02*
X226795000Y-139160000D01*
X224055000Y-132620000D02*
X224055000Y-139160000D01*
X226795000Y-132620000D02*
X224055000Y-132620000D01*
%TO.C,R6*%
X231875000Y-132620000D02*
X229135000Y-132620000D01*
X229135000Y-132620000D02*
X229135000Y-139160000D01*
X229135000Y-139160000D02*
X231875000Y-139160000D01*
X231875000Y-139160000D02*
X231875000Y-132620000D01*
X230505000Y-131850000D02*
X230505000Y-132620000D01*
X230505000Y-139930000D02*
X230505000Y-139160000D01*
%TO.C,R7*%
X245650000Y-151665000D02*
X245650000Y-154405000D01*
X245650000Y-154405000D02*
X252190000Y-154405000D01*
X252190000Y-154405000D02*
X252190000Y-151665000D01*
X252190000Y-151665000D02*
X245650000Y-151665000D01*
X244880000Y-153035000D02*
X245650000Y-153035000D01*
X252960000Y-153035000D02*
X252190000Y-153035000D01*
%TO.C,R8*%
X235585000Y-131850000D02*
X235585000Y-132620000D01*
X235585000Y-139930000D02*
X235585000Y-139160000D01*
X234215000Y-132620000D02*
X234215000Y-139160000D01*
X236955000Y-132620000D02*
X234215000Y-132620000D01*
X236955000Y-139160000D02*
X236955000Y-132620000D01*
X234215000Y-139160000D02*
X236955000Y-139160000D01*
%TO.C,U4*%
X246650000Y-133290000D02*
X245400000Y-133290000D01*
X245400000Y-133290000D02*
X245400000Y-143570000D01*
X245400000Y-143570000D02*
X249900000Y-143570000D01*
X249900000Y-143570000D02*
X249900000Y-133290000D01*
X249900000Y-133290000D02*
X248650000Y-133290000D01*
X242400000Y-133230000D02*
X242400000Y-143630000D01*
X242400000Y-143630000D02*
X252900000Y-143630000D01*
X252900000Y-143630000D02*
X252900000Y-133230000D01*
X252900000Y-133230000D02*
X242400000Y-133230000D01*
X248650000Y-133290000D02*
G75*
G02*
X246650000Y-133290000I-1000000J0D01*
G01*
%TO.C,J1*%
X229510000Y-155575000D02*
G75*
G03*
X229510000Y-155575000I-2180000J0D01*
G01*
X234590000Y-155575000D02*
G75*
G03*
X234590000Y-155575000I-2180000J0D01*
G01*
X224730000Y-160375000D02*
X235010000Y-160375000D01*
X224730000Y-157875000D02*
X235010000Y-157875000D01*
X224730000Y-151675000D02*
X235010000Y-151675000D01*
X224730000Y-149615000D02*
X235010000Y-149615000D01*
X224730000Y-160935000D02*
X235010000Y-160935000D01*
X224730000Y-149615000D02*
X224730000Y-160935000D01*
X235010000Y-149615000D02*
X235010000Y-160935000D01*
X228984000Y-154187000D02*
X228877000Y-154294000D01*
X226048000Y-157122000D02*
X225942000Y-157229000D01*
X228718000Y-153921000D02*
X228611000Y-154028000D01*
X225782000Y-156856000D02*
X225676000Y-156963000D01*
X234064000Y-154187000D02*
X233669000Y-154583000D01*
X231403000Y-156849000D02*
X231023000Y-157229000D01*
X233798000Y-153921000D02*
X233418000Y-154301000D01*
X231152000Y-156567000D02*
X230757000Y-156963000D01*
X224490000Y-160435000D02*
X224490000Y-161175000D01*
X224490000Y-161175000D02*
X224990000Y-161175000D01*
%TO.C,RV4*%
X266570000Y-141215000D02*
X263540000Y-141215000D01*
X262240000Y-141215000D02*
X259330000Y-141215000D01*
X266570000Y-134375000D02*
X263540000Y-134375000D01*
X262240000Y-134375000D02*
X259330000Y-134375000D01*
X266570000Y-141215000D02*
X266570000Y-134375000D01*
X259330000Y-141215000D02*
X259330000Y-134375000D01*
%TO.C,J8*%
X189170000Y-113090000D02*
X189170000Y-111760000D01*
X190500000Y-113090000D02*
X189170000Y-113090000D01*
X191770000Y-113090000D02*
X191770000Y-110430000D01*
X191770000Y-110430000D02*
X196910000Y-110430000D01*
X191770000Y-113090000D02*
X196910000Y-113090000D01*
X196910000Y-113090000D02*
X196910000Y-110430000D01*
%TO.C,J9*%
X196910000Y-118170000D02*
X196910000Y-115510000D01*
X191770000Y-118170000D02*
X196910000Y-118170000D01*
X191770000Y-115510000D02*
X196910000Y-115510000D01*
X191770000Y-118170000D02*
X191770000Y-115510000D01*
X190500000Y-118170000D02*
X189170000Y-118170000D01*
X189170000Y-118170000D02*
X189170000Y-116840000D01*
%TO.C,J10*%
X189170000Y-108010000D02*
X189170000Y-106680000D01*
X190500000Y-108010000D02*
X189170000Y-108010000D01*
X191770000Y-108010000D02*
X191770000Y-105350000D01*
X191770000Y-105350000D02*
X196910000Y-105350000D01*
X191770000Y-108010000D02*
X196910000Y-108010000D01*
X196910000Y-108010000D02*
X196910000Y-105350000D01*
%TO.C,J11*%
X196910000Y-102930000D02*
X196910000Y-100270000D01*
X191770000Y-102930000D02*
X196910000Y-102930000D01*
X191770000Y-100270000D02*
X196910000Y-100270000D01*
X191770000Y-102930000D02*
X191770000Y-100270000D01*
X190500000Y-102930000D02*
X189170000Y-102930000D01*
X189170000Y-102930000D02*
X189170000Y-101600000D01*
%TO.C,R1*%
X222155000Y-50065000D02*
X222155000Y-52805000D01*
X222155000Y-52805000D02*
X228695000Y-52805000D01*
X228695000Y-52805000D02*
X228695000Y-50065000D01*
X228695000Y-50065000D02*
X222155000Y-50065000D01*
X221385000Y-51435000D02*
X222155000Y-51435000D01*
X229465000Y-51435000D02*
X228695000Y-51435000D01*
%TO.C,R2*%
X219075000Y-75160000D02*
X219075000Y-74390000D01*
X219075000Y-67080000D02*
X219075000Y-67850000D01*
X220445000Y-74390000D02*
X220445000Y-67850000D01*
X217705000Y-74390000D02*
X220445000Y-74390000D01*
X217705000Y-67850000D02*
X217705000Y-74390000D01*
X220445000Y-67850000D02*
X217705000Y-67850000D01*
%TO.C,U1*%
D11*
X250063095Y-93642380D02*
X250063095Y-94451904D01*
X250110714Y-94547142D01*
X250158333Y-94594761D01*
X250253571Y-94642380D01*
X250444047Y-94642380D01*
X250539285Y-94594761D01*
X250586904Y-94547142D01*
X250634523Y-94451904D01*
X250634523Y-93642380D01*
X251634523Y-94642380D02*
X251063095Y-94642380D01*
X251348809Y-94642380D02*
X251348809Y-93642380D01*
X251253571Y-93785238D01*
X251158333Y-93880476D01*
X251063095Y-93928095D01*
%TO.C,J4*%
X206041666Y-70782380D02*
X206041666Y-71496666D01*
X205994047Y-71639523D01*
X205898809Y-71734761D01*
X205755952Y-71782380D01*
X205660714Y-71782380D01*
X206946428Y-71115714D02*
X206946428Y-71782380D01*
X206708333Y-70734761D02*
X206470238Y-71449047D01*
X207089285Y-71449047D01*
%TO.C,J5*%
X266366666Y-70782380D02*
X266366666Y-71496666D01*
X266319047Y-71639523D01*
X266223809Y-71734761D01*
X266080952Y-71782380D01*
X265985714Y-71782380D01*
X267319047Y-70782380D02*
X266842857Y-70782380D01*
X266795238Y-71258571D01*
X266842857Y-71210952D01*
X266938095Y-71163333D01*
X267176190Y-71163333D01*
X267271428Y-71210952D01*
X267319047Y-71258571D01*
X267366666Y-71353809D01*
X267366666Y-71591904D01*
X267319047Y-71687142D01*
X267271428Y-71734761D01*
X267176190Y-71782380D01*
X266938095Y-71782380D01*
X266842857Y-71734761D01*
X266795238Y-71687142D01*
%TO.C,J3*%
X194611666Y-52367380D02*
X194611666Y-53081666D01*
X194564047Y-53224523D01*
X194468809Y-53319761D01*
X194325952Y-53367380D01*
X194230714Y-53367380D01*
X194992619Y-52367380D02*
X195611666Y-52367380D01*
X195278333Y-52748333D01*
X195421190Y-52748333D01*
X195516428Y-52795952D01*
X195564047Y-52843571D01*
X195611666Y-52938809D01*
X195611666Y-53176904D01*
X195564047Y-53272142D01*
X195516428Y-53319761D01*
X195421190Y-53367380D01*
X195135476Y-53367380D01*
X195040238Y-53319761D01*
X194992619Y-53272142D01*
%TO.C,RV1*%
X195559761Y-150207380D02*
X195226428Y-149731190D01*
X194988333Y-150207380D02*
X194988333Y-149207380D01*
X195369285Y-149207380D01*
X195464523Y-149255000D01*
X195512142Y-149302619D01*
X195559761Y-149397857D01*
X195559761Y-149540714D01*
X195512142Y-149635952D01*
X195464523Y-149683571D01*
X195369285Y-149731190D01*
X194988333Y-149731190D01*
X195845476Y-149207380D02*
X196178809Y-150207380D01*
X196512142Y-149207380D01*
X197369285Y-150207380D02*
X196797857Y-150207380D01*
X197083571Y-150207380D02*
X197083571Y-149207380D01*
X196988333Y-149350238D01*
X196893095Y-149445476D01*
X196797857Y-149493095D01*
%TO.C,RV2*%
X195559761Y-129887380D02*
X195226428Y-129411190D01*
X194988333Y-129887380D02*
X194988333Y-128887380D01*
X195369285Y-128887380D01*
X195464523Y-128935000D01*
X195512142Y-128982619D01*
X195559761Y-129077857D01*
X195559761Y-129220714D01*
X195512142Y-129315952D01*
X195464523Y-129363571D01*
X195369285Y-129411190D01*
X194988333Y-129411190D01*
X195845476Y-128887380D02*
X196178809Y-129887380D01*
X196512142Y-128887380D01*
X196797857Y-128982619D02*
X196845476Y-128935000D01*
X196940714Y-128887380D01*
X197178809Y-128887380D01*
X197274047Y-128935000D01*
X197321666Y-128982619D01*
X197369285Y-129077857D01*
X197369285Y-129173095D01*
X197321666Y-129315952D01*
X196750238Y-129887380D01*
X197369285Y-129887380D01*
%TO.C,RV3*%
X195559761Y-140047380D02*
X195226428Y-139571190D01*
X194988333Y-140047380D02*
X194988333Y-139047380D01*
X195369285Y-139047380D01*
X195464523Y-139095000D01*
X195512142Y-139142619D01*
X195559761Y-139237857D01*
X195559761Y-139380714D01*
X195512142Y-139475952D01*
X195464523Y-139523571D01*
X195369285Y-139571190D01*
X194988333Y-139571190D01*
X195845476Y-139047380D02*
X196178809Y-140047380D01*
X196512142Y-139047380D01*
X196750238Y-139047380D02*
X197369285Y-139047380D01*
X197035952Y-139428333D01*
X197178809Y-139428333D01*
X197274047Y-139475952D01*
X197321666Y-139523571D01*
X197369285Y-139618809D01*
X197369285Y-139856904D01*
X197321666Y-139952142D01*
X197274047Y-139999761D01*
X197178809Y-140047380D01*
X196893095Y-140047380D01*
X196797857Y-139999761D01*
X196750238Y-139952142D01*
%TO.C,U3*%
X221277380Y-62991904D02*
X222086904Y-62991904D01*
X222182142Y-62944285D01*
X222229761Y-62896666D01*
X222277380Y-62801428D01*
X222277380Y-62610952D01*
X222229761Y-62515714D01*
X222182142Y-62468095D01*
X222086904Y-62420476D01*
X221277380Y-62420476D01*
X221277380Y-62039523D02*
X221277380Y-61420476D01*
X221658333Y-61753809D01*
X221658333Y-61610952D01*
X221705952Y-61515714D01*
X221753571Y-61468095D01*
X221848809Y-61420476D01*
X222086904Y-61420476D01*
X222182142Y-61468095D01*
X222229761Y-61515714D01*
X222277380Y-61610952D01*
X222277380Y-61896666D01*
X222229761Y-61991904D01*
X222182142Y-62039523D01*
%TO.C,J6*%
X265731666Y-145527380D02*
X265731666Y-146241666D01*
X265684047Y-146384523D01*
X265588809Y-146479761D01*
X265445952Y-146527380D01*
X265350714Y-146527380D01*
X266636428Y-145527380D02*
X266445952Y-145527380D01*
X266350714Y-145575000D01*
X266303095Y-145622619D01*
X266207857Y-145765476D01*
X266160238Y-145955952D01*
X266160238Y-146336904D01*
X266207857Y-146432142D01*
X266255476Y-146479761D01*
X266350714Y-146527380D01*
X266541190Y-146527380D01*
X266636428Y-146479761D01*
X266684047Y-146432142D01*
X266731666Y-146336904D01*
X266731666Y-146098809D01*
X266684047Y-146003571D01*
X266636428Y-145955952D01*
X266541190Y-145908333D01*
X266350714Y-145908333D01*
X266255476Y-145955952D01*
X266207857Y-146003571D01*
X266160238Y-146098809D01*
%TO.C,J2*%
X265671666Y-51157380D02*
X265671666Y-51871666D01*
X265624047Y-52014523D01*
X265528809Y-52109761D01*
X265385952Y-52157380D01*
X265290714Y-52157380D01*
X266100238Y-51252619D02*
X266147857Y-51205000D01*
X266243095Y-51157380D01*
X266481190Y-51157380D01*
X266576428Y-51205000D01*
X266624047Y-51252619D01*
X266671666Y-51347857D01*
X266671666Y-51443095D01*
X266624047Y-51585952D01*
X266052619Y-52157380D01*
X266671666Y-52157380D01*
%TO.C,U2*%
X229108095Y-93642380D02*
X229108095Y-94451904D01*
X229155714Y-94547142D01*
X229203333Y-94594761D01*
X229298571Y-94642380D01*
X229489047Y-94642380D01*
X229584285Y-94594761D01*
X229631904Y-94547142D01*
X229679523Y-94451904D01*
X229679523Y-93642380D01*
X230108095Y-93737619D02*
X230155714Y-93690000D01*
X230250952Y-93642380D01*
X230489047Y-93642380D01*
X230584285Y-93690000D01*
X230631904Y-93737619D01*
X230679523Y-93832857D01*
X230679523Y-93928095D01*
X230631904Y-94070952D01*
X230060476Y-94642380D01*
X230679523Y-94642380D01*
%TO.C,J7*%
X213661666Y-148067380D02*
X213661666Y-148781666D01*
X213614047Y-148924523D01*
X213518809Y-149019761D01*
X213375952Y-149067380D01*
X213280714Y-149067380D01*
X214042619Y-148067380D02*
X214709285Y-148067380D01*
X214280714Y-149067380D01*
%TO.C,R3*%
X213347380Y-136056666D02*
X212871190Y-136390000D01*
X213347380Y-136628095D02*
X212347380Y-136628095D01*
X212347380Y-136247142D01*
X212395000Y-136151904D01*
X212442619Y-136104285D01*
X212537857Y-136056666D01*
X212680714Y-136056666D01*
X212775952Y-136104285D01*
X212823571Y-136151904D01*
X212871190Y-136247142D01*
X212871190Y-136628095D01*
X212347380Y-135723333D02*
X212347380Y-135104285D01*
X212728333Y-135437619D01*
X212728333Y-135294761D01*
X212775952Y-135199523D01*
X212823571Y-135151904D01*
X212918809Y-135104285D01*
X213156904Y-135104285D01*
X213252142Y-135151904D01*
X213299761Y-135199523D01*
X213347380Y-135294761D01*
X213347380Y-135580476D01*
X213299761Y-135675714D01*
X213252142Y-135723333D01*
%TO.C,R4*%
X223167380Y-136056666D02*
X222691190Y-136390000D01*
X223167380Y-136628095D02*
X222167380Y-136628095D01*
X222167380Y-136247142D01*
X222215000Y-136151904D01*
X222262619Y-136104285D01*
X222357857Y-136056666D01*
X222500714Y-136056666D01*
X222595952Y-136104285D01*
X222643571Y-136151904D01*
X222691190Y-136247142D01*
X222691190Y-136628095D01*
X222500714Y-135199523D02*
X223167380Y-135199523D01*
X222119761Y-135437619D02*
X222834047Y-135675714D01*
X222834047Y-135056666D01*
%TO.C,R5*%
X228247380Y-136056666D02*
X227771190Y-136390000D01*
X228247380Y-136628095D02*
X227247380Y-136628095D01*
X227247380Y-136247142D01*
X227295000Y-136151904D01*
X227342619Y-136104285D01*
X227437857Y-136056666D01*
X227580714Y-136056666D01*
X227675952Y-136104285D01*
X227723571Y-136151904D01*
X227771190Y-136247142D01*
X227771190Y-136628095D01*
X227247380Y-135151904D02*
X227247380Y-135628095D01*
X227723571Y-135675714D01*
X227675952Y-135628095D01*
X227628333Y-135532857D01*
X227628333Y-135294761D01*
X227675952Y-135199523D01*
X227723571Y-135151904D01*
X227818809Y-135104285D01*
X228056904Y-135104285D01*
X228152142Y-135151904D01*
X228199761Y-135199523D01*
X228247380Y-135294761D01*
X228247380Y-135532857D01*
X228199761Y-135628095D01*
X228152142Y-135675714D01*
%TO.C,R6*%
X233327380Y-136056666D02*
X232851190Y-136390000D01*
X233327380Y-136628095D02*
X232327380Y-136628095D01*
X232327380Y-136247142D01*
X232375000Y-136151904D01*
X232422619Y-136104285D01*
X232517857Y-136056666D01*
X232660714Y-136056666D01*
X232755952Y-136104285D01*
X232803571Y-136151904D01*
X232851190Y-136247142D01*
X232851190Y-136628095D01*
X232327380Y-135199523D02*
X232327380Y-135390000D01*
X232375000Y-135485238D01*
X232422619Y-135532857D01*
X232565476Y-135628095D01*
X232755952Y-135675714D01*
X233136904Y-135675714D01*
X233232142Y-135628095D01*
X233279761Y-135580476D01*
X233327380Y-135485238D01*
X233327380Y-135294761D01*
X233279761Y-135199523D01*
X233232142Y-135151904D01*
X233136904Y-135104285D01*
X232898809Y-135104285D01*
X232803571Y-135151904D01*
X232755952Y-135199523D01*
X232708333Y-135294761D01*
X232708333Y-135485238D01*
X232755952Y-135580476D01*
X232803571Y-135628095D01*
X232898809Y-135675714D01*
%TO.C,R7*%
X248753333Y-151117380D02*
X248420000Y-150641190D01*
X248181904Y-151117380D02*
X248181904Y-150117380D01*
X248562857Y-150117380D01*
X248658095Y-150165000D01*
X248705714Y-150212619D01*
X248753333Y-150307857D01*
X248753333Y-150450714D01*
X248705714Y-150545952D01*
X248658095Y-150593571D01*
X248562857Y-150641190D01*
X248181904Y-150641190D01*
X249086666Y-150117380D02*
X249753333Y-150117380D01*
X249324761Y-151117380D01*
%TO.C,R8*%
X233667380Y-136056666D02*
X233191190Y-136390000D01*
X233667380Y-136628095D02*
X232667380Y-136628095D01*
X232667380Y-136247142D01*
X232715000Y-136151904D01*
X232762619Y-136104285D01*
X232857857Y-136056666D01*
X233000714Y-136056666D01*
X233095952Y-136104285D01*
X233143571Y-136151904D01*
X233191190Y-136247142D01*
X233191190Y-136628095D01*
X233095952Y-135485238D02*
X233048333Y-135580476D01*
X233000714Y-135628095D01*
X232905476Y-135675714D01*
X232857857Y-135675714D01*
X232762619Y-135628095D01*
X232715000Y-135580476D01*
X232667380Y-135485238D01*
X232667380Y-135294761D01*
X232715000Y-135199523D01*
X232762619Y-135151904D01*
X232857857Y-135104285D01*
X232905476Y-135104285D01*
X233000714Y-135151904D01*
X233048333Y-135199523D01*
X233095952Y-135294761D01*
X233095952Y-135485238D01*
X233143571Y-135580476D01*
X233191190Y-135628095D01*
X233286428Y-135675714D01*
X233476904Y-135675714D01*
X233572142Y-135628095D01*
X233619761Y-135580476D01*
X233667380Y-135485238D01*
X233667380Y-135294761D01*
X233619761Y-135199523D01*
X233572142Y-135151904D01*
X233476904Y-135104285D01*
X233286428Y-135104285D01*
X233191190Y-135151904D01*
X233143571Y-135199523D01*
X233095952Y-135294761D01*
%TO.C,U4*%
X246888095Y-131742380D02*
X246888095Y-132551904D01*
X246935714Y-132647142D01*
X246983333Y-132694761D01*
X247078571Y-132742380D01*
X247269047Y-132742380D01*
X247364285Y-132694761D01*
X247411904Y-132647142D01*
X247459523Y-132551904D01*
X247459523Y-131742380D01*
X248364285Y-132075714D02*
X248364285Y-132742380D01*
X248126190Y-131694761D02*
X247888095Y-132409047D01*
X248507142Y-132409047D01*
%TO.C,J1*%
X229536666Y-148067380D02*
X229536666Y-148781666D01*
X229489047Y-148924523D01*
X229393809Y-149019761D01*
X229250952Y-149067380D01*
X229155714Y-149067380D01*
X230536666Y-149067380D02*
X229965238Y-149067380D01*
X230250952Y-149067380D02*
X230250952Y-148067380D01*
X230155714Y-148210238D01*
X230060476Y-148305476D01*
X229965238Y-148353095D01*
%TO.C,RV4*%
X262354761Y-142797380D02*
X262021428Y-142321190D01*
X261783333Y-142797380D02*
X261783333Y-141797380D01*
X262164285Y-141797380D01*
X262259523Y-141845000D01*
X262307142Y-141892619D01*
X262354761Y-141987857D01*
X262354761Y-142130714D01*
X262307142Y-142225952D01*
X262259523Y-142273571D01*
X262164285Y-142321190D01*
X261783333Y-142321190D01*
X262640476Y-141797380D02*
X262973809Y-142797380D01*
X263307142Y-141797380D01*
X264069047Y-142130714D02*
X264069047Y-142797380D01*
X263830952Y-141749761D02*
X263592857Y-142464047D01*
X264211904Y-142464047D01*
%TO.C,J8*%
X187622380Y-112093333D02*
X188336666Y-112093333D01*
X188479523Y-112140952D01*
X188574761Y-112236190D01*
X188622380Y-112379047D01*
X188622380Y-112474285D01*
X188050952Y-111474285D02*
X188003333Y-111569523D01*
X187955714Y-111617142D01*
X187860476Y-111664761D01*
X187812857Y-111664761D01*
X187717619Y-111617142D01*
X187670000Y-111569523D01*
X187622380Y-111474285D01*
X187622380Y-111283809D01*
X187670000Y-111188571D01*
X187717619Y-111140952D01*
X187812857Y-111093333D01*
X187860476Y-111093333D01*
X187955714Y-111140952D01*
X188003333Y-111188571D01*
X188050952Y-111283809D01*
X188050952Y-111474285D01*
X188098571Y-111569523D01*
X188146190Y-111617142D01*
X188241428Y-111664761D01*
X188431904Y-111664761D01*
X188527142Y-111617142D01*
X188574761Y-111569523D01*
X188622380Y-111474285D01*
X188622380Y-111283809D01*
X188574761Y-111188571D01*
X188527142Y-111140952D01*
X188431904Y-111093333D01*
X188241428Y-111093333D01*
X188146190Y-111140952D01*
X188098571Y-111188571D01*
X188050952Y-111283809D01*
%TO.C,J9*%
X187622380Y-117173333D02*
X188336666Y-117173333D01*
X188479523Y-117220952D01*
X188574761Y-117316190D01*
X188622380Y-117459047D01*
X188622380Y-117554285D01*
X188622380Y-116649523D02*
X188622380Y-116459047D01*
X188574761Y-116363809D01*
X188527142Y-116316190D01*
X188384285Y-116220952D01*
X188193809Y-116173333D01*
X187812857Y-116173333D01*
X187717619Y-116220952D01*
X187670000Y-116268571D01*
X187622380Y-116363809D01*
X187622380Y-116554285D01*
X187670000Y-116649523D01*
X187717619Y-116697142D01*
X187812857Y-116744761D01*
X188050952Y-116744761D01*
X188146190Y-116697142D01*
X188193809Y-116649523D01*
X188241428Y-116554285D01*
X188241428Y-116363809D01*
X188193809Y-116268571D01*
X188146190Y-116220952D01*
X188050952Y-116173333D01*
%TO.C,J10*%
X187622380Y-107489523D02*
X188336666Y-107489523D01*
X188479523Y-107537142D01*
X188574761Y-107632380D01*
X188622380Y-107775238D01*
X188622380Y-107870476D01*
X188622380Y-106489523D02*
X188622380Y-107060952D01*
X188622380Y-106775238D02*
X187622380Y-106775238D01*
X187765238Y-106870476D01*
X187860476Y-106965714D01*
X187908095Y-107060952D01*
X187622380Y-105870476D02*
X187622380Y-105775238D01*
X187670000Y-105680000D01*
X187717619Y-105632380D01*
X187812857Y-105584761D01*
X188003333Y-105537142D01*
X188241428Y-105537142D01*
X188431904Y-105584761D01*
X188527142Y-105632380D01*
X188574761Y-105680000D01*
X188622380Y-105775238D01*
X188622380Y-105870476D01*
X188574761Y-105965714D01*
X188527142Y-106013333D01*
X188431904Y-106060952D01*
X188241428Y-106108571D01*
X188003333Y-106108571D01*
X187812857Y-106060952D01*
X187717619Y-106013333D01*
X187670000Y-105965714D01*
X187622380Y-105870476D01*
%TO.C,J11*%
X187622380Y-102409523D02*
X188336666Y-102409523D01*
X188479523Y-102457142D01*
X188574761Y-102552380D01*
X188622380Y-102695238D01*
X188622380Y-102790476D01*
X188622380Y-101409523D02*
X188622380Y-101980952D01*
X188622380Y-101695238D02*
X187622380Y-101695238D01*
X187765238Y-101790476D01*
X187860476Y-101885714D01*
X187908095Y-101980952D01*
X188622380Y-100457142D02*
X188622380Y-101028571D01*
X188622380Y-100742857D02*
X187622380Y-100742857D01*
X187765238Y-100838095D01*
X187860476Y-100933333D01*
X187908095Y-101028571D01*
%TO.C,R1*%
X225258333Y-49517380D02*
X224925000Y-49041190D01*
X224686904Y-49517380D02*
X224686904Y-48517380D01*
X225067857Y-48517380D01*
X225163095Y-48565000D01*
X225210714Y-48612619D01*
X225258333Y-48707857D01*
X225258333Y-48850714D01*
X225210714Y-48945952D01*
X225163095Y-48993571D01*
X225067857Y-49041190D01*
X224686904Y-49041190D01*
X226210714Y-49517380D02*
X225639285Y-49517380D01*
X225925000Y-49517380D02*
X225925000Y-48517380D01*
X225829761Y-48660238D01*
X225734523Y-48755476D01*
X225639285Y-48803095D01*
%TO.C,R2*%
X221897380Y-71286666D02*
X221421190Y-71620000D01*
X221897380Y-71858095D02*
X220897380Y-71858095D01*
X220897380Y-71477142D01*
X220945000Y-71381904D01*
X220992619Y-71334285D01*
X221087857Y-71286666D01*
X221230714Y-71286666D01*
X221325952Y-71334285D01*
X221373571Y-71381904D01*
X221421190Y-71477142D01*
X221421190Y-71858095D01*
X220992619Y-70905714D02*
X220945000Y-70858095D01*
X220897380Y-70762857D01*
X220897380Y-70524761D01*
X220945000Y-70429523D01*
X220992619Y-70381904D01*
X221087857Y-70334285D01*
X221183095Y-70334285D01*
X221325952Y-70381904D01*
X221897380Y-70953333D01*
X221897380Y-70334285D01*
%TD*%
M02*
