%TF.GenerationSoftware,KiCad,Pcbnew,(5.0.1)-4*%
%TF.CreationDate,2021-10-01T09:14:40+02:00*%
%TF.ProjectId,carteDmx512,6361727465446D783531322E6B696361,rev?*%
%TF.SameCoordinates,Original*%
%TF.FileFunction,Copper,L2,Bot,Signal*%
%TF.FilePolarity,Positive*%
%FSLAX46Y46*%
G04 Gerber Fmt 4.6, Leading zero omitted, Abs format (unit mm)*
G04 Created by KiCad (PCBNEW (5.0.1)-4) date 01/10/2021 09:14:40*
%MOMM*%
%LPD*%
G01*
G04 APERTURE LIST*
%TA.AperFunction,NonConductor*%
%ADD10C,0.300000*%
%TD*%
%TA.AperFunction,ComponentPad*%
%ADD11O,2.400000X1.600000*%
%TD*%
%TA.AperFunction,ComponentPad*%
%ADD12R,2.400000X1.600000*%
%TD*%
%TA.AperFunction,ComponentPad*%
%ADD13R,1.700000X1.700000*%
%TD*%
%TA.AperFunction,ComponentPad*%
%ADD14O,1.700000X1.700000*%
%TD*%
%TA.AperFunction,ComponentPad*%
%ADD15O,1.600000X1.600000*%
%TD*%
%TA.AperFunction,ComponentPad*%
%ADD16C,1.600000*%
%TD*%
%TA.AperFunction,ComponentPad*%
%ADD17C,1.440000*%
%TD*%
%TA.AperFunction,ComponentPad*%
%ADD18R,1.600000X2.400000*%
%TD*%
%TA.AperFunction,ComponentPad*%
%ADD19O,1.600000X2.400000*%
%TD*%
%TA.AperFunction,ComponentPad*%
%ADD20R,2.600000X2.600000*%
%TD*%
%TA.AperFunction,ComponentPad*%
%ADD21C,2.600000*%
%TD*%
%TA.AperFunction,ComponentPad*%
%ADD22R,1.600000X1.600000*%
%TD*%
%TA.AperFunction,ViaPad*%
%ADD23C,1.400000*%
%TD*%
%TA.AperFunction,Conductor*%
%ADD24C,1.000000*%
%TD*%
%TA.AperFunction,Conductor*%
%ADD25C,0.800000*%
%TD*%
G04 APERTURE END LIST*
D10*
X249552142Y-56476428D02*
X249552142Y-57976428D01*
X249909285Y-57976428D01*
X250123571Y-57905000D01*
X250266428Y-57762142D01*
X250337857Y-57619285D01*
X250409285Y-57333571D01*
X250409285Y-57119285D01*
X250337857Y-56833571D01*
X250266428Y-56690714D01*
X250123571Y-56547857D01*
X249909285Y-56476428D01*
X249552142Y-56476428D01*
X251052142Y-56476428D02*
X251052142Y-57976428D01*
X251552142Y-56905000D01*
X252052142Y-57976428D01*
X252052142Y-56476428D01*
X252623571Y-57976428D02*
X253623571Y-56476428D01*
X253623571Y-57976428D02*
X252623571Y-56476428D01*
X254909285Y-57976428D02*
X254195000Y-57976428D01*
X254123571Y-57262142D01*
X254195000Y-57333571D01*
X254337857Y-57405000D01*
X254695000Y-57405000D01*
X254837857Y-57333571D01*
X254909285Y-57262142D01*
X254980714Y-57119285D01*
X254980714Y-56762142D01*
X254909285Y-56619285D01*
X254837857Y-56547857D01*
X254695000Y-56476428D01*
X254337857Y-56476428D01*
X254195000Y-56547857D01*
X254123571Y-56619285D01*
X256409285Y-56476428D02*
X255552142Y-56476428D01*
X255980714Y-56476428D02*
X255980714Y-57976428D01*
X255837857Y-57762142D01*
X255695000Y-57619285D01*
X255552142Y-57547857D01*
X256980714Y-57833571D02*
X257052142Y-57905000D01*
X257195000Y-57976428D01*
X257552142Y-57976428D01*
X257695000Y-57905000D01*
X257766428Y-57833571D01*
X257837857Y-57690714D01*
X257837857Y-57547857D01*
X257766428Y-57333571D01*
X256909285Y-56476428D01*
X257837857Y-56476428D01*
X260695000Y-58047857D02*
X259409285Y-56119285D01*
X262266428Y-57833571D02*
X262337857Y-57905000D01*
X262480714Y-57976428D01*
X262837857Y-57976428D01*
X262980714Y-57905000D01*
X263052142Y-57833571D01*
X263123571Y-57690714D01*
X263123571Y-57547857D01*
X263052142Y-57333571D01*
X262195000Y-56476428D01*
X263123571Y-56476428D01*
X264052142Y-57976428D02*
X264195000Y-57976428D01*
X264337857Y-57905000D01*
X264409285Y-57833571D01*
X264480714Y-57690714D01*
X264552142Y-57405000D01*
X264552142Y-57047857D01*
X264480714Y-56762142D01*
X264409285Y-56619285D01*
X264337857Y-56547857D01*
X264195000Y-56476428D01*
X264052142Y-56476428D01*
X263909285Y-56547857D01*
X263837857Y-56619285D01*
X263766428Y-56762142D01*
X263695000Y-57047857D01*
X263695000Y-57405000D01*
X263766428Y-57690714D01*
X263837857Y-57833571D01*
X263909285Y-57905000D01*
X264052142Y-57976428D01*
X265123571Y-57833571D02*
X265195000Y-57905000D01*
X265337857Y-57976428D01*
X265695000Y-57976428D01*
X265837857Y-57905000D01*
X265909285Y-57833571D01*
X265980714Y-57690714D01*
X265980714Y-57547857D01*
X265909285Y-57333571D01*
X265052142Y-56476428D01*
X265980714Y-56476428D01*
X267409285Y-56476428D02*
X266552142Y-56476428D01*
X266980714Y-56476428D02*
X266980714Y-57976428D01*
X266837857Y-57762142D01*
X266695000Y-57619285D01*
X266552142Y-57547857D01*
X256266428Y-53926428D02*
X255552142Y-53926428D01*
X255552142Y-55426428D01*
X256766428Y-54712142D02*
X257266428Y-54712142D01*
X257480714Y-53926428D02*
X256766428Y-53926428D01*
X256766428Y-55426428D01*
X257480714Y-55426428D01*
X258123571Y-54926428D02*
X258123571Y-53926428D01*
X258123571Y-54783571D02*
X258195000Y-54855000D01*
X258337857Y-54926428D01*
X258552142Y-54926428D01*
X258695000Y-54855000D01*
X258766428Y-54712142D01*
X258766428Y-53926428D01*
X259409285Y-53997857D02*
X259552142Y-53926428D01*
X259837857Y-53926428D01*
X259980714Y-53997857D01*
X260052142Y-54140714D01*
X260052142Y-54212142D01*
X259980714Y-54355000D01*
X259837857Y-54426428D01*
X259623571Y-54426428D01*
X259480714Y-54497857D01*
X259409285Y-54640714D01*
X259409285Y-54712142D01*
X259480714Y-54855000D01*
X259623571Y-54926428D01*
X259837857Y-54926428D01*
X259980714Y-54855000D01*
X260695000Y-54712142D02*
X261195000Y-54712142D01*
X261409285Y-53926428D02*
X260695000Y-53926428D01*
X260695000Y-55426428D01*
X261409285Y-55426428D01*
D11*
%TO.P,U1,14*%
%TO.N,5V*%
X254635000Y-96520000D03*
%TO.P,U1,7*%
%TO.N,GND*%
X247015000Y-111760000D03*
%TO.P,U1,13*%
%TO.N,Net-(J2-Pad1)*%
X254635000Y-99060000D03*
%TO.P,U1,6*%
%TO.N,start*%
X247015000Y-109220000D03*
%TO.P,U1,12*%
%TO.N,Net-(J2-Pad1)*%
X254635000Y-101600000D03*
%TO.P,U1,5*%
%TO.N,out_s*%
X247015000Y-106680000D03*
%TO.P,U1,11*%
%TO.N,Net-(J2-Pad3)*%
X254635000Y-104140000D03*
%TO.P,U1,4*%
%TO.N,Net-(U1-Pad4)*%
X247015000Y-104140000D03*
%TO.P,U1,10*%
%TO.N,N/C*%
X254635000Y-106680000D03*
%TO.P,U1,3*%
X247015000Y-101600000D03*
%TO.P,U1,9*%
X254635000Y-109220000D03*
%TO.P,U1,2*%
X247015000Y-99060000D03*
%TO.P,U1,8*%
X254635000Y-111760000D03*
D12*
%TO.P,U1,1*%
X247015000Y-96520000D03*
%TD*%
D13*
%TO.P,J4,1*%
%TO.N,SCK_nrF*%
X205105000Y-73660000D03*
D14*
%TO.P,J4,2*%
%TO.N,MISO_nrF*%
X207645000Y-73660000D03*
%TO.P,J4,3*%
%TO.N,MOSI_nrF*%
X205105000Y-76200000D03*
%TO.P,J4,4*%
%TO.N,IRQ_nrF*%
X207645000Y-76200000D03*
%TO.P,J4,5*%
%TO.N,Net-(J4-Pad5)*%
X205105000Y-78740000D03*
%TO.P,J4,6*%
%TO.N,Net-(J4-Pad6)*%
X207645000Y-78740000D03*
%TO.P,J4,7*%
%TO.N,Net-(J4-Pad7)*%
X205105000Y-81280000D03*
%TO.P,J4,8*%
%TO.N,Net-(J4-Pad8)*%
X207645000Y-81280000D03*
%TO.P,J4,9*%
%TO.N,Net-(J4-Pad9)*%
X205105000Y-83820000D03*
%TO.P,J4,10*%
%TO.N,Net-(J4-Pad10)*%
X207645000Y-83820000D03*
%TO.P,J4,11*%
%TO.N,Net-(J4-Pad11)*%
X205105000Y-86360000D03*
%TO.P,J4,12*%
%TO.N,Net-(J4-Pad12)*%
X207645000Y-86360000D03*
%TO.P,J4,13*%
%TO.N,Net-(J4-Pad13)*%
X205105000Y-88900000D03*
%TO.P,J4,14*%
%TO.N,Net-(J4-Pad14)*%
X207645000Y-88900000D03*
%TO.P,J4,15*%
%TO.N,Net-(J4-Pad15)*%
X205105000Y-91440000D03*
%TO.P,J4,16*%
%TO.N,Net-(J4-Pad16)*%
X207645000Y-91440000D03*
%TO.P,J4,17*%
%TO.N,Net-(J4-Pad17)*%
X205105000Y-93980000D03*
%TO.P,J4,18*%
%TO.N,3.3V*%
X207645000Y-93980000D03*
%TO.P,J4,19*%
%TO.N,Net-(J4-Pad19)*%
X205105000Y-96520000D03*
%TO.P,J4,20*%
%TO.N,5V*%
X207645000Y-96520000D03*
%TO.P,J4,21*%
%TO.N,Net-(J4-Pad21)*%
X205105000Y-99060000D03*
%TO.P,J4,22*%
%TO.N,Net-(J4-Pad22)*%
X207645000Y-99060000D03*
%TO.P,J4,23*%
%TO.N,Net-(J4-Pad23)*%
X205105000Y-101600000D03*
%TO.P,J4,24*%
%TO.N,Net-(J4-Pad24)*%
X207645000Y-101600000D03*
%TO.P,J4,25*%
%TO.N,Net-(J4-Pad25)*%
X205105000Y-104140000D03*
%TO.P,J4,26*%
%TO.N,Vinput*%
X207645000Y-104140000D03*
%TO.P,J4,27*%
%TO.N,Net-(J4-Pad27)*%
X205105000Y-106680000D03*
%TO.P,J4,28*%
%TO.N,Net-(J4-Pad28)*%
X207645000Y-106680000D03*
%TO.P,J4,29*%
%TO.N,Net-(J4-Pad29)*%
X205105000Y-109220000D03*
%TO.P,J4,30*%
%TO.N,TX*%
X207645000Y-109220000D03*
%TO.P,J4,31*%
%TO.N,CE_nrF*%
X205105000Y-111760000D03*
%TO.P,J4,32*%
%TO.N,Net-(J4-Pad32)*%
X207645000Y-111760000D03*
%TO.P,J4,33*%
%TO.N,CSN_nrF*%
X205105000Y-114300000D03*
%TO.P,J4,34*%
%TO.N,Net-(J4-Pad34)*%
X207645000Y-114300000D03*
%TO.P,J4,35*%
%TO.N,Net-(J4-Pad35)*%
X205105000Y-116840000D03*
%TO.P,J4,36*%
%TO.N,PitchIn*%
X207645000Y-116840000D03*
%TO.P,J4,37*%
%TO.N,AnInG*%
X205105000Y-119380000D03*
%TO.P,J4,38*%
%TO.N,VolumeIn_Adapt*%
X207645000Y-119380000D03*
%TO.P,J4,39*%
%TO.N,AnInB*%
X205105000Y-121920000D03*
%TO.P,J4,40*%
%TO.N,AnInR*%
X207645000Y-121920000D03*
%TD*%
%TO.P,J5,40*%
%TO.N,Net-(J5-Pad40)*%
X267970000Y-121920000D03*
%TO.P,J5,39*%
%TO.N,Net-(J5-Pad39)*%
X265430000Y-121920000D03*
%TO.P,J5,38*%
%TO.N,Net-(J5-Pad38)*%
X267970000Y-119380000D03*
%TO.P,J5,37*%
%TO.N,Net-(J5-Pad37)*%
X265430000Y-119380000D03*
%TO.P,J5,36*%
%TO.N,Net-(J5-Pad36)*%
X267970000Y-116840000D03*
%TO.P,J5,35*%
%TO.N,Net-(J5-Pad35)*%
X265430000Y-116840000D03*
%TO.P,J5,34*%
%TO.N,Net-(J5-Pad34)*%
X267970000Y-114300000D03*
%TO.P,J5,33*%
%TO.N,Net-(J5-Pad33)*%
X265430000Y-114300000D03*
%TO.P,J5,32*%
%TO.N,Net-(J5-Pad32)*%
X267970000Y-111760000D03*
%TO.P,J5,31*%
%TO.N,start*%
X265430000Y-111760000D03*
%TO.P,J5,30*%
%TO.N,Net-(J5-Pad30)*%
X267970000Y-109220000D03*
%TO.P,J5,29*%
%TO.N,out_s*%
X265430000Y-109220000D03*
%TO.P,J5,28*%
%TO.N,Net-(J5-Pad28)*%
X267970000Y-106680000D03*
%TO.P,J5,27*%
%TO.N,enable*%
X265430000Y-106680000D03*
%TO.P,J5,26*%
%TO.N,Net-(J5-Pad26)*%
X267970000Y-104140000D03*
%TO.P,J5,25*%
%TO.N,Net-(J5-Pad25)*%
X265430000Y-104140000D03*
%TO.P,J5,24*%
%TO.N,Net-(J5-Pad24)*%
X267970000Y-101600000D03*
%TO.P,J5,23*%
%TO.N,Net-(J5-Pad23)*%
X265430000Y-101600000D03*
%TO.P,J5,22*%
%TO.N,GND*%
X267970000Y-99060000D03*
%TO.P,J5,21*%
%TO.N,Net-(J5-Pad21)*%
X265430000Y-99060000D03*
%TO.P,J5,20*%
%TO.N,Net-(J5-Pad20)*%
X267970000Y-96520000D03*
%TO.P,J5,19*%
%TO.N,Net-(J5-Pad19)*%
X265430000Y-96520000D03*
%TO.P,J5,18*%
%TO.N,Net-(J5-Pad18)*%
X267970000Y-93980000D03*
%TO.P,J5,17*%
%TO.N,Net-(J5-Pad17)*%
X265430000Y-93980000D03*
%TO.P,J5,16*%
%TO.N,Net-(J5-Pad16)*%
X267970000Y-91440000D03*
%TO.P,J5,15*%
%TO.N,Net-(J5-Pad15)*%
X265430000Y-91440000D03*
%TO.P,J5,14*%
%TO.N,Net-(J5-Pad14)*%
X267970000Y-88900000D03*
%TO.P,J5,13*%
%TO.N,Net-(J5-Pad13)*%
X265430000Y-88900000D03*
%TO.P,J5,12*%
%TO.N,Net-(J5-Pad12)*%
X267970000Y-86360000D03*
%TO.P,J5,11*%
%TO.N,GND*%
X265430000Y-86360000D03*
%TO.P,J5,10*%
%TO.N,Net-(J5-Pad10)*%
X267970000Y-83820000D03*
%TO.P,J5,9*%
%TO.N,Net-(J5-Pad9)*%
X265430000Y-83820000D03*
%TO.P,J5,8*%
%TO.N,Net-(J5-Pad8)*%
X267970000Y-81280000D03*
%TO.P,J5,7*%
%TO.N,Net-(J5-Pad7)*%
X265430000Y-81280000D03*
%TO.P,J5,6*%
%TO.N,Net-(J5-Pad6)*%
X267970000Y-78740000D03*
%TO.P,J5,5*%
%TO.N,Net-(J5-Pad5)*%
X265430000Y-78740000D03*
%TO.P,J5,4*%
%TO.N,Net-(J5-Pad4)*%
X267970000Y-76200000D03*
%TO.P,J5,3*%
%TO.N,Net-(J5-Pad3)*%
X265430000Y-76200000D03*
%TO.P,J5,2*%
%TO.N,Net-(J5-Pad2)*%
X267970000Y-73660000D03*
D13*
%TO.P,J5,1*%
%TO.N,Net-(J5-Pad1)*%
X265430000Y-73660000D03*
%TD*%
%TO.P,J3,1*%
%TO.N,Net-(J3-Pad1)*%
X194945000Y-53340000D03*
D14*
%TO.P,J3,2*%
X197485000Y-53340000D03*
%TO.P,J3,3*%
%TO.N,Net-(J3-Pad3)*%
X194945000Y-55880000D03*
%TO.P,J3,4*%
X197485000Y-55880000D03*
%TO.P,J3,5*%
%TO.N,GND*%
X194945000Y-58420000D03*
%TO.P,J3,6*%
X197485000Y-58420000D03*
%TD*%
D15*
%TO.P,R1,2*%
%TO.N,Net-(J3-Pad1)*%
X213360000Y-53340000D03*
D16*
%TO.P,R1,1*%
%TO.N,Net-(J3-Pad3)*%
X213360000Y-68580000D03*
%TD*%
%TO.P,R2,1*%
%TO.N,Net-(R2-Pad1)*%
X219075000Y-66040000D03*
D15*
%TO.P,R2,2*%
%TO.N,GND*%
X219075000Y-81280000D03*
%TD*%
D17*
%TO.P,RV1,1*%
%TO.N,3.3V*%
X231140000Y-133985000D03*
%TO.P,RV1,2*%
%TO.N,AnInR*%
X228600000Y-131445000D03*
%TO.P,RV1,3*%
%TO.N,GND*%
X226060000Y-133985000D03*
%TD*%
%TO.P,RV2,3*%
%TO.N,GND*%
X205740000Y-133985000D03*
%TO.P,RV2,2*%
%TO.N,AnInG*%
X208280000Y-131445000D03*
%TO.P,RV2,1*%
%TO.N,3.3V*%
X210820000Y-133985000D03*
%TD*%
%TO.P,RV3,3*%
%TO.N,GND*%
X215900000Y-133985000D03*
%TO.P,RV3,2*%
%TO.N,AnInB*%
X218440000Y-131445000D03*
%TO.P,RV3,1*%
%TO.N,3.3V*%
X220980000Y-133985000D03*
%TD*%
D18*
%TO.P,U3,1*%
%TO.N,Net-(R2-Pad1)*%
X224155000Y-66040000D03*
D19*
%TO.P,U3,5*%
%TO.N,GND*%
X231775000Y-58420000D03*
%TO.P,U3,2*%
%TO.N,5V*%
X226695000Y-66040000D03*
%TO.P,U3,6*%
%TO.N,Net-(J3-Pad1)*%
X229235000Y-58420000D03*
%TO.P,U3,3*%
%TO.N,enable*%
X229235000Y-66040000D03*
%TO.P,U3,7*%
%TO.N,Net-(J3-Pad3)*%
X226695000Y-58420000D03*
%TO.P,U3,4*%
%TO.N,DMX_TX*%
X231775000Y-66040000D03*
%TO.P,U3,8*%
%TO.N,5V*%
X224155000Y-58420000D03*
%TD*%
D20*
%TO.P,J6,1*%
%TO.N,GND*%
X264795000Y-137795000D03*
D21*
%TO.P,J6,2*%
%TO.N,Vinput*%
X264795000Y-132715000D03*
%TD*%
D13*
%TO.P,J2,1*%
%TO.N,Net-(J2-Pad1)*%
X229235000Y-87630000D03*
D14*
%TO.P,J2,2*%
%TO.N,DMX_TX*%
X231775000Y-87630000D03*
%TO.P,J2,3*%
%TO.N,Net-(J2-Pad3)*%
X234315000Y-87630000D03*
%TD*%
D12*
%TO.P,U2,1*%
%TO.N,TX*%
X226060000Y-96520000D03*
D11*
%TO.P,U2,8*%
%TO.N,Net-(U1-Pad4)*%
X233680000Y-111760000D03*
%TO.P,U2,2*%
%TO.N,notstart*%
X226060000Y-99060000D03*
%TO.P,U2,9*%
%TO.N,Net-(U2-Pad11)*%
X233680000Y-109220000D03*
%TO.P,U2,3*%
%TO.N,Net-(U2-Pad12)*%
X226060000Y-101600000D03*
%TO.P,U2,10*%
%TO.N,Net-(J2-Pad1)*%
X233680000Y-106680000D03*
%TO.P,U2,4*%
%TO.N,notstart*%
X226060000Y-104140000D03*
%TO.P,U2,11*%
%TO.N,Net-(U2-Pad11)*%
X233680000Y-104140000D03*
%TO.P,U2,5*%
%TO.N,start*%
X226060000Y-106680000D03*
%TO.P,U2,12*%
%TO.N,Net-(U2-Pad12)*%
X233680000Y-101600000D03*
%TO.P,U2,6*%
%TO.N,start*%
X226060000Y-109220000D03*
%TO.P,U2,13*%
%TO.N,Net-(U2-Pad12)*%
X233680000Y-99060000D03*
%TO.P,U2,7*%
%TO.N,GND*%
X226060000Y-111760000D03*
%TO.P,U2,14*%
%TO.N,5V*%
X233680000Y-96520000D03*
%TD*%
D20*
%TO.P,J7,1*%
%TO.N,GND*%
X238760000Y-147320000D03*
D21*
%TO.P,J7,2*%
%TO.N,VolumeIn*%
X233680000Y-147320000D03*
%TD*%
D15*
%TO.P,R3,2*%
%TO.N,VolumeIn_Adapt*%
X235585000Y-121285000D03*
D16*
%TO.P,R3,1*%
%TO.N,3.3V*%
X235585000Y-131445000D03*
%TD*%
%TO.P,R4,1*%
%TO.N,VolumeIn_Adapt*%
X239395000Y-121285000D03*
D15*
%TO.P,R4,2*%
%TO.N,GND*%
X249555000Y-121285000D03*
%TD*%
D20*
%TO.P,J1,1*%
%TO.N,GND*%
X251460000Y-147320000D03*
D21*
%TO.P,J1,2*%
%TO.N,PitchIn*%
X246380000Y-147320000D03*
%TD*%
D13*
%TO.P,J8,1*%
%TO.N,GND*%
X219075000Y-160020000D03*
D14*
%TO.P,J8,2*%
%TO.N,3.3V*%
X216535000Y-160020000D03*
%TO.P,J8,3*%
%TO.N,CE_nrF*%
X219075000Y-157480000D03*
%TO.P,J8,4*%
%TO.N,CSN_nrF*%
X216535000Y-157480000D03*
%TO.P,J8,5*%
%TO.N,SCK_nrF*%
X219075000Y-154940000D03*
%TO.P,J8,6*%
%TO.N,MOSI_nrF*%
X216535000Y-154940000D03*
%TO.P,J8,7*%
%TO.N,MISO_nrF*%
X219075000Y-152400000D03*
%TO.P,J8,8*%
%TO.N,IRQ_nrF*%
X216535000Y-152400000D03*
%TD*%
D22*
%TO.P,C1,1*%
%TO.N,VolumeIn_Adapt*%
X243205000Y-130810000D03*
D16*
%TO.P,C1,2*%
%TO.N,VolumeIn*%
X243205000Y-133310000D03*
%TD*%
D23*
%TO.N,start*%
X228917500Y-114617502D03*
X249555000Y-114617501D03*
%TO.N,GND*%
X222885000Y-160020000D03*
X238760000Y-160020000D03*
%TO.N,3.3V*%
X212090000Y-160020000D03*
X211455000Y-93980000D03*
X211455000Y-128905000D03*
X212090000Y-140970000D03*
%TO.N,Vinput*%
X217805000Y-104140000D03*
X264794994Y-127000000D03*
X217805000Y-123190000D03*
X221615000Y-127000004D03*
%TO.N,MOSI_nrF*%
X199390000Y-144780000D03*
X199390000Y-154940000D03*
%TD*%
D24*
%TO.N,AnInB*%
X205105000Y-121920000D02*
X205105000Y-123825000D01*
X205105000Y-123825000D02*
X206375000Y-125095000D01*
X212090000Y-125095000D02*
X218440000Y-131445000D01*
X206375000Y-125095000D02*
X212090000Y-125095000D01*
%TO.N,AnInG*%
X202565000Y-120650000D02*
X203835000Y-119380000D01*
X202565000Y-130175000D02*
X202565000Y-120650000D01*
X203835000Y-119380000D02*
X205105000Y-119380000D01*
X208280000Y-131445000D02*
X203835000Y-131445000D01*
X203835000Y-131445000D02*
X202565000Y-130175000D01*
%TO.N,AnInR*%
X215265000Y-123190000D02*
X223520000Y-131445000D01*
X223520000Y-131445000D02*
X228600000Y-131445000D01*
X207645000Y-121920000D02*
X208915000Y-123190000D01*
X208915000Y-123190000D02*
X215265000Y-123190000D01*
%TO.N,out_s*%
X260350000Y-109220000D02*
X265430000Y-109220000D01*
X255905000Y-113665000D02*
X260350000Y-109220000D01*
X248920000Y-106680000D02*
X251460000Y-109220000D01*
X252730000Y-113665000D02*
X255905000Y-113665000D01*
X247015000Y-106680000D02*
X248920000Y-106680000D01*
X251460000Y-109220000D02*
X251460000Y-112395000D01*
X251460000Y-112395000D02*
X252730000Y-113665000D01*
%TO.N,start*%
X226060000Y-106680000D02*
X226060000Y-109220000D01*
X226060000Y-109220000D02*
X228917500Y-112077500D01*
X228917500Y-112077500D02*
X228917500Y-114617502D01*
X247015000Y-109220000D02*
X249215000Y-109220000D01*
X249555000Y-109560000D02*
X249555000Y-114617501D01*
X249215000Y-109220000D02*
X249555000Y-109560000D01*
X250507499Y-115570000D02*
X249555000Y-114617501D01*
X256540000Y-115570000D02*
X250507499Y-115570000D01*
X265430000Y-111760000D02*
X260350000Y-111760000D01*
X260350000Y-111760000D02*
X256540000Y-115570000D01*
%TO.N,enable*%
X262890000Y-106680000D02*
X264160000Y-106680000D01*
X261620000Y-105410000D02*
X262890000Y-106680000D01*
X233045000Y-63500000D02*
X233680000Y-64135000D01*
X229235000Y-66040000D02*
X229235000Y-64770000D01*
X230505000Y-63500000D02*
X233045000Y-63500000D01*
X264160000Y-106680000D02*
X265430000Y-106680000D01*
X229235000Y-64770000D02*
X230505000Y-63500000D01*
X233680000Y-69215000D02*
X230505000Y-72390000D01*
X261620000Y-90170000D02*
X261620000Y-105410000D01*
X230505000Y-72390000D02*
X230505000Y-81915000D01*
X233680000Y-64135000D02*
X233680000Y-69215000D01*
X234315000Y-85725000D02*
X257175000Y-85725000D01*
X257175000Y-85725000D02*
X261620000Y-90170000D01*
X230505000Y-81915000D02*
X234315000Y-85725000D01*
%TO.N,TX*%
X224155000Y-96520000D02*
X226060000Y-96520000D01*
X220345000Y-100330000D02*
X224155000Y-96520000D01*
X220345000Y-104140000D02*
X220345000Y-100330000D01*
X207645000Y-109220000D02*
X215265000Y-109220000D01*
X215265000Y-109220000D02*
X220345000Y-104140000D01*
%TO.N,GND*%
X219075000Y-160020000D02*
X222885000Y-160020000D01*
%TO.N,5V*%
X224155000Y-58420000D02*
X224155000Y-60325000D01*
X224155000Y-60325000D02*
X226695000Y-62865000D01*
X226695000Y-62865000D02*
X226695000Y-66040000D01*
X254635000Y-93345000D02*
X254635000Y-96520000D01*
X253365000Y-92075000D02*
X254635000Y-93345000D01*
X233680000Y-96520000D02*
X233680000Y-92075000D01*
X233680000Y-92075000D02*
X253365000Y-92075000D01*
X226695000Y-66040000D02*
X226695000Y-92075000D01*
X226695000Y-92075000D02*
X233680000Y-92075000D01*
X216535000Y-101600000D02*
X226060000Y-92075000D01*
X207645000Y-96520000D02*
X208915000Y-96520000D01*
X226060000Y-92075000D02*
X226695000Y-92075000D01*
X213995000Y-101600000D02*
X216535000Y-101600000D01*
X208915000Y-96520000D02*
X213995000Y-101600000D01*
%TO.N,3.3V*%
X210820000Y-133985000D02*
X210820000Y-135890000D01*
X210820000Y-135890000D02*
X212090000Y-137160000D01*
X212090000Y-137160000D02*
X220980000Y-137160000D01*
X220980000Y-137160000D02*
X220980000Y-133985000D01*
X220980000Y-137160000D02*
X229870000Y-137160000D01*
X231140000Y-135890000D02*
X231140000Y-133985000D01*
X229870000Y-137160000D02*
X231140000Y-135890000D01*
X216535000Y-160020000D02*
X212090000Y-160020000D01*
X207645000Y-93980000D02*
X211455000Y-93980000D01*
X210820000Y-133985000D02*
X210820000Y-129540000D01*
X210820000Y-129540000D02*
X211455000Y-128905000D01*
X212090000Y-137160000D02*
X212090000Y-140970000D01*
X233045000Y-133985000D02*
X235585000Y-131445000D01*
X231140000Y-133985000D02*
X233045000Y-133985000D01*
%TO.N,Net-(J2-Pad3)*%
X255905000Y-87630000D02*
X234315000Y-87630000D01*
X259715000Y-91440000D02*
X255905000Y-87630000D01*
X259715000Y-102870000D02*
X259715000Y-91440000D01*
X254635000Y-104140000D02*
X258445000Y-104140000D01*
X258445000Y-104140000D02*
X259715000Y-102870000D01*
%TO.N,DMX_TX*%
X231775000Y-86360000D02*
X231775000Y-87630000D01*
X228600000Y-83185000D02*
X231775000Y-86360000D01*
X228600000Y-71120000D02*
X228600000Y-83185000D01*
X231775000Y-66040000D02*
X231775000Y-67945000D01*
X231775000Y-67945000D02*
X228600000Y-71120000D01*
%TO.N,Net-(J2-Pad1)*%
X254635000Y-101600000D02*
X254635000Y-99060000D01*
X252095000Y-99060000D02*
X254635000Y-99060000D01*
X250825000Y-97790000D02*
X252095000Y-99060000D01*
X250825000Y-95250000D02*
X250825000Y-97790000D01*
X249555000Y-93980000D02*
X250825000Y-95250000D01*
X235585000Y-106680000D02*
X236855000Y-105410000D01*
X233680000Y-106680000D02*
X235585000Y-106680000D01*
X236855000Y-105410000D02*
X236855000Y-96520000D01*
X239395000Y-93980000D02*
X249555000Y-93980000D01*
X236855000Y-96520000D02*
X239395000Y-93980000D01*
X257810000Y-100330000D02*
X256540000Y-101600000D01*
X256540000Y-101600000D02*
X254635000Y-101600000D01*
X229235000Y-88900000D02*
X230505000Y-90170000D01*
X230505000Y-90170000D02*
X255270000Y-90170000D01*
X229235000Y-87630000D02*
X229235000Y-88900000D01*
X257810000Y-92710000D02*
X257810000Y-100330000D01*
X255270000Y-90170000D02*
X257810000Y-92710000D01*
%TO.N,Net-(J3-Pad3)*%
X194945000Y-55880000D02*
X197485000Y-55880000D01*
X226695000Y-56515000D02*
X226695000Y-58420000D01*
X226060000Y-55880000D02*
X226695000Y-56515000D01*
X197485000Y-55880000D02*
X213995000Y-55880000D01*
X213995000Y-55880000D02*
X226060000Y-55880000D01*
X213360000Y-55880000D02*
X213995000Y-55880000D01*
X213360000Y-68580000D02*
X213360000Y-55880000D01*
%TO.N,Net-(J3-Pad1)*%
X194945000Y-53340000D02*
X197485000Y-53340000D01*
X229235000Y-55245000D02*
X229235000Y-57150000D01*
X197485000Y-53340000D02*
X227330000Y-53340000D01*
X229235000Y-57150000D02*
X229235000Y-58420000D01*
X227330000Y-53340000D02*
X229235000Y-55245000D01*
%TO.N,Net-(R2-Pad1)*%
X219075000Y-66040000D02*
X224155000Y-66040000D01*
%TO.N,notstart*%
X224155000Y-99060000D02*
X226060000Y-99060000D01*
X222885000Y-100330000D02*
X224155000Y-99060000D01*
X222885000Y-102870000D02*
X222885000Y-100330000D01*
X226060000Y-104140000D02*
X224155000Y-104140000D01*
X224155000Y-104140000D02*
X222885000Y-102870000D01*
%TO.N,Net-(U1-Pad4)*%
X243205000Y-104140000D02*
X247015000Y-104140000D01*
X233680000Y-111760000D02*
X235585000Y-111760000D01*
X235585000Y-111760000D02*
X243205000Y-104140000D01*
%TO.N,Vinput*%
X207645000Y-104140000D02*
X214630000Y-104140000D01*
X214630000Y-104140000D02*
X217805000Y-104140000D01*
X264795000Y-132715000D02*
X264795000Y-128270000D01*
X264795000Y-128270000D02*
X264795000Y-127000006D01*
X264795000Y-127000006D02*
X264794994Y-127000000D01*
X221615000Y-127000000D02*
X221615000Y-127000004D01*
X217805000Y-123190000D02*
X221615000Y-127000000D01*
%TO.N,Net-(U2-Pad11)*%
X233680000Y-109220000D02*
X231775000Y-109220000D01*
X231775000Y-109220000D02*
X231140000Y-108585000D01*
X231140000Y-108585000D02*
X231140000Y-104775000D01*
X231775000Y-104140000D02*
X233680000Y-104140000D01*
X231140000Y-104775000D02*
X231775000Y-104140000D01*
%TO.N,Net-(U2-Pad12)*%
X226060000Y-101600000D02*
X233680000Y-101600000D01*
X233680000Y-101600000D02*
X233680000Y-99060000D01*
%TO.N,PitchIn*%
X212725000Y-119380000D02*
X210185000Y-116840000D01*
X210185000Y-116840000D02*
X207645000Y-116840000D01*
X240982500Y-119380000D02*
X212725000Y-119380000D01*
X246380000Y-147320000D02*
X246380000Y-124777500D01*
X246380000Y-124777500D02*
X240982500Y-119380000D01*
%TO.N,VolumeIn_Adapt*%
X243205000Y-125730000D02*
X243205000Y-130810000D01*
X207645000Y-119380000D02*
X209550000Y-119380000D01*
X211455000Y-121285000D02*
X234950000Y-121285000D01*
X209550000Y-119380000D02*
X211455000Y-121285000D01*
X235585000Y-121285000D02*
X239395000Y-121285000D01*
X243205000Y-125095000D02*
X243205000Y-125730000D01*
X239395000Y-121285000D02*
X243205000Y-125095000D01*
%TO.N,VolumeIn*%
X243205000Y-135255000D02*
X243205000Y-133310000D01*
X243205000Y-135770000D02*
X243205000Y-135255000D01*
X233680000Y-147320000D02*
X233680000Y-145295000D01*
X233680000Y-145295000D02*
X243205000Y-135770000D01*
%TO.N,IRQ_nrF*%
X210185000Y-74930000D02*
X208915000Y-76200000D01*
X210185000Y-71120000D02*
X210185000Y-74930000D01*
X208280000Y-69215000D02*
X210185000Y-71120000D01*
X201930000Y-69215000D02*
X208280000Y-69215000D01*
X196215000Y-74930000D02*
X201930000Y-69215000D01*
X197485000Y-152400000D02*
X191135000Y-146050000D01*
X208915000Y-76200000D02*
X207645000Y-76200000D01*
X191135000Y-146050000D02*
X191135000Y-110490000D01*
X191135000Y-110490000D02*
X196215000Y-105410000D01*
X216535000Y-152400000D02*
X197485000Y-152400000D01*
X196215000Y-105410000D02*
X196215000Y-74930000D01*
%TO.N,CE_nrF*%
X200660000Y-111760000D02*
X205105000Y-111760000D01*
X198755000Y-113665000D02*
X200660000Y-111760000D01*
X198755000Y-141605000D02*
X198755000Y-113665000D01*
X203200000Y-146050000D02*
X198755000Y-141605000D01*
X220277081Y-157480000D02*
X223520000Y-154237081D01*
X223520000Y-149225000D02*
X220345000Y-146050000D01*
X219075000Y-157480000D02*
X220277081Y-157480000D01*
X223520000Y-154237081D02*
X223520000Y-149225000D01*
X220345000Y-146050000D02*
X203200000Y-146050000D01*
%TO.N,MOSI_nrF*%
X216535000Y-154940000D02*
X199390000Y-154940000D01*
X196850000Y-142240000D02*
X199390000Y-144780000D01*
X203200000Y-76200000D02*
X201930000Y-77470000D01*
X201930000Y-107315000D02*
X196850000Y-112395000D01*
X205105000Y-76200000D02*
X203200000Y-76200000D01*
X196850000Y-112395000D02*
X196850000Y-142240000D01*
X201930000Y-77470000D02*
X201930000Y-107315000D01*
%TO.N,MISO_nrF*%
X207645000Y-72390000D02*
X207645000Y-73660000D01*
X206375000Y-71120000D02*
X207645000Y-72390000D01*
X202882500Y-71120000D02*
X206375000Y-71120000D01*
X198120000Y-75882500D02*
X202882500Y-71120000D01*
X193040000Y-111125000D02*
X198120000Y-106045000D01*
X198120000Y-106045000D02*
X198120000Y-75882500D01*
X193040000Y-144780000D02*
X193040000Y-111125000D01*
X219075000Y-152400000D02*
X219075000Y-151130000D01*
X198120000Y-149860000D02*
X193040000Y-144780000D01*
X219075000Y-151130000D02*
X217805000Y-149860000D01*
X217805000Y-149860000D02*
X198120000Y-149860000D01*
%TO.N,SCK_nrF*%
X220345000Y-154940000D02*
X219075000Y-154940000D01*
X221615000Y-153670000D02*
X220345000Y-154940000D01*
X221615000Y-149860000D02*
X221615000Y-153670000D01*
X219710000Y-147955000D02*
X221615000Y-149860000D01*
X199390000Y-147955000D02*
X219710000Y-147955000D01*
X194945000Y-143510000D02*
X199390000Y-147955000D01*
X205105000Y-73660000D02*
X203255000Y-73660000D01*
X200025000Y-76890000D02*
X200025000Y-106680000D01*
X203255000Y-73660000D02*
X200025000Y-76890000D01*
X194945000Y-111760000D02*
X194945000Y-143510000D01*
X200025000Y-106680000D02*
X194945000Y-111760000D01*
%TO.N,CSN_nrF*%
X200660000Y-116205000D02*
X202565000Y-114300000D01*
X211455000Y-162560000D02*
X223520000Y-162560000D01*
X210185000Y-161290000D02*
X211455000Y-162560000D01*
X225425000Y-160655000D02*
X225425000Y-148590000D01*
X210185000Y-158115000D02*
X210185000Y-161290000D01*
X216535000Y-157480000D02*
X210820000Y-157480000D01*
X210820000Y-157480000D02*
X210185000Y-158115000D01*
X200660000Y-140970000D02*
X200660000Y-116205000D01*
X223520000Y-162560000D02*
X225425000Y-160655000D01*
X225425000Y-148590000D02*
X220980000Y-144145000D01*
X203835000Y-144145000D02*
X200660000Y-140970000D01*
X202565000Y-114300000D02*
X205105000Y-114300000D01*
X220980000Y-144145000D02*
X203835000Y-144145000D01*
%TD*%
D25*
%TO.N,GND*%
G36*
X272727001Y-165412000D02*
X188283000Y-165412000D01*
X188283000Y-110490000D01*
X189720189Y-110490000D01*
X189727001Y-110559164D01*
X189727000Y-145980846D01*
X189720189Y-146050000D01*
X189727000Y-146119154D01*
X189727000Y-146119163D01*
X189747373Y-146326015D01*
X189827884Y-146591424D01*
X189858063Y-146647884D01*
X189958627Y-146836027D01*
X190090488Y-146996700D01*
X190090491Y-146996703D01*
X190134577Y-147050422D01*
X190188297Y-147094509D01*
X196440491Y-153346704D01*
X196484577Y-153400423D01*
X196538296Y-153444509D01*
X196538299Y-153444512D01*
X196698972Y-153576373D01*
X196804697Y-153632884D01*
X196943575Y-153707116D01*
X197208984Y-153787627D01*
X197415836Y-153808000D01*
X197415845Y-153808000D01*
X197484999Y-153814811D01*
X197554153Y-153808000D01*
X198247945Y-153808000D01*
X198140985Y-153914960D01*
X197965009Y-154178327D01*
X197843795Y-154470964D01*
X197782000Y-154781626D01*
X197782000Y-155098374D01*
X197843795Y-155409036D01*
X197965009Y-155701673D01*
X198140985Y-155965040D01*
X198364960Y-156189015D01*
X198628327Y-156364991D01*
X198920964Y-156486205D01*
X199231626Y-156548000D01*
X199548374Y-156548000D01*
X199859036Y-156486205D01*
X200151673Y-156364991D01*
X200177102Y-156348000D01*
X209979904Y-156348000D01*
X209819577Y-156479577D01*
X209775483Y-156533306D01*
X209238298Y-157070490D01*
X209184577Y-157114578D01*
X209140491Y-157168297D01*
X209140488Y-157168300D01*
X209008627Y-157328973D01*
X208938744Y-157459716D01*
X208877884Y-157573576D01*
X208797373Y-157838985D01*
X208777000Y-158045837D01*
X208777000Y-158045846D01*
X208770189Y-158115000D01*
X208777000Y-158184154D01*
X208777001Y-161220837D01*
X208770189Y-161290000D01*
X208797374Y-161566016D01*
X208877885Y-161831425D01*
X209008627Y-162076027D01*
X209140488Y-162236700D01*
X209140492Y-162236704D01*
X209184578Y-162290423D01*
X209238296Y-162334509D01*
X210410491Y-163506704D01*
X210454577Y-163560423D01*
X210508296Y-163604509D01*
X210508299Y-163604512D01*
X210668972Y-163736373D01*
X210799715Y-163806256D01*
X210913575Y-163867116D01*
X211178984Y-163947627D01*
X211385836Y-163968000D01*
X211385845Y-163968000D01*
X211454999Y-163974811D01*
X211524153Y-163968000D01*
X223450846Y-163968000D01*
X223520000Y-163974811D01*
X223589154Y-163968000D01*
X223589164Y-163968000D01*
X223796016Y-163947627D01*
X224061425Y-163867116D01*
X224306027Y-163736373D01*
X224520423Y-163560423D01*
X224564513Y-163506699D01*
X226371703Y-161699509D01*
X226425422Y-161655423D01*
X226498797Y-161566016D01*
X226601373Y-161441028D01*
X226732115Y-161196426D01*
X226732116Y-161196425D01*
X226812627Y-160931016D01*
X226833000Y-160724164D01*
X226833000Y-160724154D01*
X226839811Y-160655000D01*
X226833000Y-160585846D01*
X226833000Y-154057984D01*
X260382000Y-154057984D01*
X260382000Y-154552016D01*
X260478381Y-155036557D01*
X260667439Y-155492983D01*
X260941909Y-155903757D01*
X261291243Y-156253091D01*
X261702017Y-156527561D01*
X262158443Y-156716619D01*
X262642984Y-156813000D01*
X263137016Y-156813000D01*
X263621557Y-156716619D01*
X264077983Y-156527561D01*
X264488757Y-156253091D01*
X264838091Y-155903757D01*
X265112561Y-155492983D01*
X265301619Y-155036557D01*
X265398000Y-154552016D01*
X265398000Y-154057984D01*
X265301619Y-153573443D01*
X265112561Y-153117017D01*
X264838091Y-152706243D01*
X264488757Y-152356909D01*
X264077983Y-152082439D01*
X263621557Y-151893381D01*
X263137016Y-151797000D01*
X262642984Y-151797000D01*
X262158443Y-151893381D01*
X261702017Y-152082439D01*
X261291243Y-152356909D01*
X260941909Y-152706243D01*
X260667439Y-153117017D01*
X260478381Y-153573443D01*
X260382000Y-154057984D01*
X226833000Y-154057984D01*
X226833000Y-148659153D01*
X226839811Y-148589999D01*
X226833000Y-148520845D01*
X226833000Y-148520836D01*
X226812627Y-148313984D01*
X226732116Y-148048575D01*
X226632082Y-147861425D01*
X226601373Y-147803972D01*
X226469512Y-147643299D01*
X226469509Y-147643296D01*
X226425423Y-147589577D01*
X226371704Y-147545491D01*
X222024511Y-143198299D01*
X221980423Y-143144577D01*
X221766027Y-142968627D01*
X221521425Y-142837884D01*
X221256016Y-142757373D01*
X221049164Y-142737000D01*
X221049154Y-142737000D01*
X220980000Y-142730189D01*
X220910846Y-142737000D01*
X204418213Y-142737000D01*
X202068000Y-140386788D01*
X202068000Y-135015954D01*
X204779757Y-135015954D01*
X204819355Y-135337223D01*
X205100851Y-135490850D01*
X205406909Y-135586607D01*
X205725767Y-135620815D01*
X206045172Y-135592160D01*
X206352850Y-135501742D01*
X206636976Y-135353037D01*
X206660645Y-135337223D01*
X206700243Y-135015954D01*
X205740000Y-134055711D01*
X204779757Y-135015954D01*
X202068000Y-135015954D01*
X202068000Y-131669212D01*
X202790491Y-132391704D01*
X202834577Y-132445423D01*
X202888296Y-132489509D01*
X202888299Y-132489512D01*
X203048972Y-132621373D01*
X203154697Y-132677884D01*
X203293575Y-132752116D01*
X203558984Y-132832627D01*
X203765836Y-132853000D01*
X203765845Y-132853000D01*
X203834999Y-132859811D01*
X203904153Y-132853000D01*
X204561257Y-132853000D01*
X204549272Y-132864985D01*
X204709044Y-133024757D01*
X204387777Y-133064355D01*
X204234150Y-133345851D01*
X204138393Y-133651909D01*
X204104185Y-133970767D01*
X204132840Y-134290172D01*
X204223258Y-134597850D01*
X204371963Y-134881976D01*
X204387777Y-134905645D01*
X204709046Y-134945243D01*
X205669289Y-133985000D01*
X205655147Y-133970858D01*
X205725858Y-133900147D01*
X205740000Y-133914289D01*
X205754142Y-133900147D01*
X205824853Y-133970858D01*
X205810711Y-133985000D01*
X206770954Y-134945243D01*
X207092223Y-134905645D01*
X207245850Y-134624149D01*
X207341607Y-134318091D01*
X207375815Y-133999233D01*
X207347160Y-133679828D01*
X207256742Y-133372150D01*
X207108037Y-133088024D01*
X207092223Y-133064355D01*
X206770956Y-133024757D01*
X206930728Y-132864985D01*
X206918743Y-132853000D01*
X207456898Y-132853000D01*
X207508853Y-132887715D01*
X207805130Y-133010437D01*
X208119656Y-133073000D01*
X208440344Y-133073000D01*
X208754870Y-133010437D01*
X209051147Y-132887715D01*
X209317789Y-132709550D01*
X209412000Y-132615339D01*
X209412000Y-133161898D01*
X209377285Y-133213853D01*
X209254563Y-133510130D01*
X209192000Y-133824656D01*
X209192000Y-134145344D01*
X209254563Y-134459870D01*
X209377285Y-134756147D01*
X209412000Y-134808102D01*
X209412001Y-135820837D01*
X209405189Y-135890000D01*
X209432374Y-136166016D01*
X209512885Y-136431425D01*
X209643627Y-136676027D01*
X209775488Y-136836700D01*
X209775492Y-136836704D01*
X209819578Y-136890423D01*
X209873296Y-136934509D01*
X210682000Y-137743213D01*
X210682001Y-140182897D01*
X210665009Y-140208327D01*
X210543795Y-140500964D01*
X210482000Y-140811626D01*
X210482000Y-141128374D01*
X210543795Y-141439036D01*
X210665009Y-141731673D01*
X210840985Y-141995040D01*
X211064960Y-142219015D01*
X211328327Y-142394991D01*
X211620964Y-142516205D01*
X211931626Y-142578000D01*
X212248374Y-142578000D01*
X212559036Y-142516205D01*
X212851673Y-142394991D01*
X213115040Y-142219015D01*
X213339015Y-141995040D01*
X213514991Y-141731673D01*
X213636205Y-141439036D01*
X213698000Y-141128374D01*
X213698000Y-140811626D01*
X213636205Y-140500964D01*
X213514991Y-140208327D01*
X213498000Y-140182898D01*
X213498000Y-138568000D01*
X220910836Y-138568000D01*
X220980000Y-138574812D01*
X221049164Y-138568000D01*
X229800846Y-138568000D01*
X229870000Y-138574811D01*
X229939154Y-138568000D01*
X229939164Y-138568000D01*
X230146016Y-138547627D01*
X230411425Y-138467116D01*
X230656027Y-138336373D01*
X230870423Y-138160423D01*
X230914513Y-138106699D01*
X232086708Y-136934505D01*
X232140422Y-136890423D01*
X232184505Y-136836708D01*
X232184512Y-136836701D01*
X232316373Y-136676028D01*
X232447115Y-136431426D01*
X232447116Y-136431425D01*
X232527627Y-136166016D01*
X232548000Y-135959164D01*
X232548000Y-135959155D01*
X232554811Y-135890001D01*
X232548000Y-135820847D01*
X232548000Y-135393000D01*
X232975846Y-135393000D01*
X233045000Y-135399811D01*
X233114154Y-135393000D01*
X233114164Y-135393000D01*
X233321016Y-135372627D01*
X233586425Y-135292116D01*
X233831027Y-135161373D01*
X234045423Y-134985423D01*
X234089513Y-134931699D01*
X235896765Y-133124447D01*
X236083205Y-133087362D01*
X236394041Y-132958610D01*
X236673786Y-132771690D01*
X236911690Y-132533786D01*
X237098610Y-132254041D01*
X237227362Y-131943205D01*
X237293000Y-131613223D01*
X237293000Y-131276777D01*
X237227362Y-130946795D01*
X237098610Y-130635959D01*
X236911690Y-130356214D01*
X236673786Y-130118310D01*
X236394041Y-129931390D01*
X236083205Y-129802638D01*
X235753223Y-129737000D01*
X235416777Y-129737000D01*
X235086795Y-129802638D01*
X234775959Y-129931390D01*
X234496214Y-130118310D01*
X234258310Y-130356214D01*
X234071390Y-130635959D01*
X233942638Y-130946795D01*
X233905553Y-131133235D01*
X232461788Y-132577000D01*
X231963102Y-132577000D01*
X231911147Y-132542285D01*
X231614870Y-132419563D01*
X231300344Y-132357000D01*
X230979656Y-132357000D01*
X230665130Y-132419563D01*
X230368853Y-132542285D01*
X230102211Y-132720450D01*
X229875450Y-132947211D01*
X229697285Y-133213853D01*
X229574563Y-133510130D01*
X229512000Y-133824656D01*
X229512000Y-134145344D01*
X229574563Y-134459870D01*
X229697285Y-134756147D01*
X229732001Y-134808102D01*
X229732000Y-135306787D01*
X229286788Y-135752000D01*
X222388000Y-135752000D01*
X222388000Y-135015954D01*
X225099757Y-135015954D01*
X225139355Y-135337223D01*
X225420851Y-135490850D01*
X225726909Y-135586607D01*
X226045767Y-135620815D01*
X226365172Y-135592160D01*
X226672850Y-135501742D01*
X226956976Y-135353037D01*
X226980645Y-135337223D01*
X227020243Y-135015954D01*
X226060000Y-134055711D01*
X225099757Y-135015954D01*
X222388000Y-135015954D01*
X222388000Y-134808102D01*
X222422715Y-134756147D01*
X222545437Y-134459870D01*
X222608000Y-134145344D01*
X222608000Y-133824656D01*
X222545437Y-133510130D01*
X222422715Y-133213853D01*
X222244550Y-132947211D01*
X222017789Y-132720450D01*
X221751147Y-132542285D01*
X221454870Y-132419563D01*
X221140344Y-132357000D01*
X220819656Y-132357000D01*
X220505130Y-132419563D01*
X220208853Y-132542285D01*
X219942211Y-132720450D01*
X219715450Y-132947211D01*
X219537285Y-133213853D01*
X219414563Y-133510130D01*
X219352000Y-133824656D01*
X219352000Y-134145344D01*
X219414563Y-134459870D01*
X219537285Y-134756147D01*
X219572001Y-134808103D01*
X219572000Y-135752000D01*
X212673213Y-135752000D01*
X212228000Y-135306788D01*
X212228000Y-135015954D01*
X214939757Y-135015954D01*
X214979355Y-135337223D01*
X215260851Y-135490850D01*
X215566909Y-135586607D01*
X215885767Y-135620815D01*
X216205172Y-135592160D01*
X216512850Y-135501742D01*
X216796976Y-135353037D01*
X216820645Y-135337223D01*
X216860243Y-135015954D01*
X215900000Y-134055711D01*
X214939757Y-135015954D01*
X212228000Y-135015954D01*
X212228000Y-134808102D01*
X212262715Y-134756147D01*
X212385437Y-134459870D01*
X212448000Y-134145344D01*
X212448000Y-133970767D01*
X214264185Y-133970767D01*
X214292840Y-134290172D01*
X214383258Y-134597850D01*
X214531963Y-134881976D01*
X214547777Y-134905645D01*
X214869046Y-134945243D01*
X215829289Y-133985000D01*
X215970711Y-133985000D01*
X216930954Y-134945243D01*
X217252223Y-134905645D01*
X217405850Y-134624149D01*
X217501607Y-134318091D01*
X217535815Y-133999233D01*
X217507160Y-133679828D01*
X217416742Y-133372150D01*
X217268037Y-133088024D01*
X217252223Y-133064355D01*
X216930954Y-133024757D01*
X215970711Y-133985000D01*
X215829289Y-133985000D01*
X214869046Y-133024757D01*
X214547777Y-133064355D01*
X214394150Y-133345851D01*
X214298393Y-133651909D01*
X214264185Y-133970767D01*
X212448000Y-133970767D01*
X212448000Y-133824656D01*
X212385437Y-133510130D01*
X212262715Y-133213853D01*
X212228000Y-133161898D01*
X212228000Y-132954046D01*
X214939757Y-132954046D01*
X215900000Y-133914289D01*
X216860243Y-132954046D01*
X216820645Y-132632777D01*
X216539149Y-132479150D01*
X216233091Y-132383393D01*
X215914233Y-132349185D01*
X215594828Y-132377840D01*
X215287150Y-132468258D01*
X215003024Y-132616963D01*
X214979355Y-132632777D01*
X214939757Y-132954046D01*
X212228000Y-132954046D01*
X212228000Y-130322423D01*
X212480040Y-130154015D01*
X212704015Y-129930040D01*
X212879991Y-129666673D01*
X213001205Y-129374036D01*
X213063000Y-129063374D01*
X213063000Y-128746626D01*
X213001205Y-128435964D01*
X212879991Y-128143327D01*
X212704015Y-127879960D01*
X212480040Y-127655985D01*
X212216673Y-127480009D01*
X211924036Y-127358795D01*
X211613374Y-127297000D01*
X211296626Y-127297000D01*
X210985964Y-127358795D01*
X210693327Y-127480009D01*
X210429960Y-127655985D01*
X210205985Y-127879960D01*
X210030009Y-128143327D01*
X209908795Y-128435964D01*
X209902828Y-128465960D01*
X209873298Y-128495490D01*
X209819578Y-128539577D01*
X209775492Y-128593296D01*
X209775488Y-128593300D01*
X209643627Y-128753973D01*
X209512885Y-128998575D01*
X209432374Y-129263984D01*
X209405189Y-129540000D01*
X209412001Y-129609164D01*
X209412001Y-130274662D01*
X209317789Y-130180450D01*
X209051147Y-130002285D01*
X208754870Y-129879563D01*
X208440344Y-129817000D01*
X208119656Y-129817000D01*
X207805130Y-129879563D01*
X207508853Y-130002285D01*
X207456898Y-130037000D01*
X204418213Y-130037000D01*
X203973000Y-129591788D01*
X203973000Y-124665096D01*
X204060488Y-124771700D01*
X204060492Y-124771704D01*
X204104578Y-124825423D01*
X204158296Y-124869509D01*
X205330491Y-126041704D01*
X205374577Y-126095423D01*
X205428296Y-126139509D01*
X205428299Y-126139512D01*
X205588972Y-126271373D01*
X205719715Y-126341256D01*
X205833575Y-126402116D01*
X206098984Y-126482627D01*
X206305836Y-126503000D01*
X206305845Y-126503000D01*
X206374999Y-126509811D01*
X206444153Y-126503000D01*
X211506788Y-126503000D01*
X216862373Y-131858586D01*
X216874563Y-131919870D01*
X216997285Y-132216147D01*
X217175450Y-132482789D01*
X217402211Y-132709550D01*
X217668853Y-132887715D01*
X217965130Y-133010437D01*
X218279656Y-133073000D01*
X218600344Y-133073000D01*
X218914870Y-133010437D01*
X219211147Y-132887715D01*
X219477789Y-132709550D01*
X219704550Y-132482789D01*
X219882715Y-132216147D01*
X220005437Y-131919870D01*
X220068000Y-131605344D01*
X220068000Y-131284656D01*
X220005437Y-130970130D01*
X219882715Y-130673853D01*
X219704550Y-130407211D01*
X219477789Y-130180450D01*
X219211147Y-130002285D01*
X218914870Y-129879563D01*
X218853586Y-129867373D01*
X213584212Y-124598000D01*
X214681788Y-124598000D01*
X222475487Y-132391699D01*
X222519577Y-132445423D01*
X222573300Y-132489512D01*
X222733972Y-132621373D01*
X222839697Y-132677884D01*
X222978575Y-132752116D01*
X223243984Y-132832627D01*
X223450836Y-132853000D01*
X223450846Y-132853000D01*
X223520000Y-132859811D01*
X223589154Y-132853000D01*
X224881257Y-132853000D01*
X224869272Y-132864985D01*
X225029044Y-133024757D01*
X224707777Y-133064355D01*
X224554150Y-133345851D01*
X224458393Y-133651909D01*
X224424185Y-133970767D01*
X224452840Y-134290172D01*
X224543258Y-134597850D01*
X224691963Y-134881976D01*
X224707777Y-134905645D01*
X225029046Y-134945243D01*
X225989289Y-133985000D01*
X225975147Y-133970858D01*
X226045858Y-133900147D01*
X226060000Y-133914289D01*
X226074142Y-133900147D01*
X226144853Y-133970858D01*
X226130711Y-133985000D01*
X227090954Y-134945243D01*
X227412223Y-134905645D01*
X227565850Y-134624149D01*
X227661607Y-134318091D01*
X227695815Y-133999233D01*
X227667160Y-133679828D01*
X227576742Y-133372150D01*
X227428037Y-133088024D01*
X227412223Y-133064355D01*
X227090956Y-133024757D01*
X227250728Y-132864985D01*
X227238743Y-132853000D01*
X227776898Y-132853000D01*
X227828853Y-132887715D01*
X228125130Y-133010437D01*
X228439656Y-133073000D01*
X228760344Y-133073000D01*
X229074870Y-133010437D01*
X229371147Y-132887715D01*
X229637789Y-132709550D01*
X229864550Y-132482789D01*
X230042715Y-132216147D01*
X230165437Y-131919870D01*
X230228000Y-131605344D01*
X230228000Y-131284656D01*
X230165437Y-130970130D01*
X230042715Y-130673853D01*
X229864550Y-130407211D01*
X229637789Y-130180450D01*
X229371147Y-130002285D01*
X229074870Y-129879563D01*
X228760344Y-129817000D01*
X228439656Y-129817000D01*
X228125130Y-129879563D01*
X227828853Y-130002285D01*
X227776898Y-130037000D01*
X224103212Y-130037000D01*
X222445331Y-128379119D01*
X222640040Y-128249019D01*
X222864015Y-128025044D01*
X223039991Y-127761677D01*
X223161205Y-127469040D01*
X223223000Y-127158378D01*
X223223000Y-126841630D01*
X223161205Y-126530968D01*
X223039991Y-126238331D01*
X222864015Y-125974964D01*
X222640040Y-125750989D01*
X222376673Y-125575013D01*
X222084036Y-125453799D01*
X222054045Y-125447833D01*
X219357172Y-122750960D01*
X219351205Y-122720964D01*
X219339622Y-122693000D01*
X234608318Y-122693000D01*
X234631495Y-122712021D01*
X234928214Y-122870621D01*
X235250174Y-122968286D01*
X235501096Y-122993000D01*
X235668904Y-122993000D01*
X235919826Y-122968286D01*
X236241786Y-122870621D01*
X236538505Y-122712021D01*
X236561682Y-122693000D01*
X238427903Y-122693000D01*
X238585959Y-122798610D01*
X238896795Y-122927362D01*
X239083236Y-122964448D01*
X241797000Y-125678212D01*
X241797001Y-129334345D01*
X241759841Y-129364841D01*
X241646373Y-129503102D01*
X241562059Y-129660842D01*
X241510138Y-129832001D01*
X241492607Y-130010000D01*
X241492607Y-131610000D01*
X241510138Y-131787999D01*
X241562059Y-131959158D01*
X241646373Y-132116898D01*
X241759841Y-132255159D01*
X241821705Y-132305929D01*
X241691390Y-132500959D01*
X241562638Y-132811795D01*
X241497000Y-133141777D01*
X241497000Y-133478223D01*
X241562638Y-133808205D01*
X241691390Y-134119041D01*
X241797001Y-134277098D01*
X241797000Y-135185835D01*
X241797000Y-135186787D01*
X232733297Y-144250491D01*
X232679578Y-144294577D01*
X232635492Y-144348296D01*
X232635488Y-144348300D01*
X232503627Y-144508973D01*
X232372885Y-144753575D01*
X232292374Y-145018984D01*
X232265189Y-145295000D01*
X232272001Y-145364163D01*
X232272001Y-145605415D01*
X231964934Y-145912482D01*
X231723295Y-146274120D01*
X231556852Y-146675950D01*
X231472000Y-147102531D01*
X231472000Y-147537469D01*
X231556852Y-147964050D01*
X231723295Y-148365880D01*
X231964934Y-148727518D01*
X232272482Y-149035066D01*
X232634120Y-149276705D01*
X233035950Y-149443148D01*
X233462531Y-149528000D01*
X233897469Y-149528000D01*
X234324050Y-149443148D01*
X234725880Y-149276705D01*
X235087518Y-149035066D01*
X235395066Y-148727518D01*
X235636705Y-148365880D01*
X235803148Y-147964050D01*
X235876158Y-147597000D01*
X236552000Y-147597000D01*
X236552000Y-148709430D01*
X236586894Y-148884854D01*
X236655341Y-149050099D01*
X236754710Y-149198816D01*
X236881184Y-149325290D01*
X237029901Y-149424659D01*
X237195146Y-149493106D01*
X237370570Y-149528000D01*
X238483000Y-149528000D01*
X238710000Y-149301000D01*
X238710000Y-147370000D01*
X238810000Y-147370000D01*
X238810000Y-149301000D01*
X239037000Y-149528000D01*
X240149430Y-149528000D01*
X240324854Y-149493106D01*
X240490099Y-149424659D01*
X240638816Y-149325290D01*
X240765290Y-149198816D01*
X240864659Y-149050099D01*
X240933106Y-148884854D01*
X240968000Y-148709430D01*
X240968000Y-147597000D01*
X240741000Y-147370000D01*
X238810000Y-147370000D01*
X238710000Y-147370000D01*
X236779000Y-147370000D01*
X236552000Y-147597000D01*
X235876158Y-147597000D01*
X235888000Y-147537469D01*
X235888000Y-147102531D01*
X235803148Y-146675950D01*
X235636705Y-146274120D01*
X235407153Y-145930570D01*
X236552000Y-145930570D01*
X236552000Y-147043000D01*
X236779000Y-147270000D01*
X238710000Y-147270000D01*
X238710000Y-145339000D01*
X238810000Y-145339000D01*
X238810000Y-147270000D01*
X240741000Y-147270000D01*
X240968000Y-147043000D01*
X240968000Y-145930570D01*
X240933106Y-145755146D01*
X240864659Y-145589901D01*
X240765290Y-145441184D01*
X240638816Y-145314710D01*
X240490099Y-145215341D01*
X240324854Y-145146894D01*
X240149430Y-145112000D01*
X239037000Y-145112000D01*
X238810000Y-145339000D01*
X238710000Y-145339000D01*
X238483000Y-145112000D01*
X237370570Y-145112000D01*
X237195146Y-145146894D01*
X237029901Y-145215341D01*
X236881184Y-145314710D01*
X236754710Y-145441184D01*
X236655341Y-145589901D01*
X236586894Y-145755146D01*
X236552000Y-145930570D01*
X235407153Y-145930570D01*
X235395066Y-145912482D01*
X235224398Y-145741814D01*
X244151709Y-136814504D01*
X244205422Y-136770423D01*
X244249505Y-136716708D01*
X244249512Y-136716701D01*
X244381373Y-136556028D01*
X244512115Y-136311426D01*
X244512116Y-136311425D01*
X244592627Y-136046016D01*
X244613000Y-135839164D01*
X244613000Y-135839155D01*
X244619811Y-135770001D01*
X244613000Y-135700847D01*
X244613000Y-134277097D01*
X244718610Y-134119041D01*
X244847362Y-133808205D01*
X244913000Y-133478223D01*
X244913000Y-133141777D01*
X244847362Y-132811795D01*
X244718610Y-132500959D01*
X244588295Y-132305929D01*
X244650159Y-132255159D01*
X244763627Y-132116898D01*
X244847941Y-131959158D01*
X244899862Y-131787999D01*
X244917393Y-131610000D01*
X244917393Y-130010000D01*
X244899862Y-129832001D01*
X244847941Y-129660842D01*
X244763627Y-129503102D01*
X244650159Y-129364841D01*
X244613000Y-129334345D01*
X244613000Y-125164161D01*
X244619812Y-125095000D01*
X244613000Y-125025836D01*
X244610364Y-124999076D01*
X244972001Y-125360713D01*
X244972000Y-145605416D01*
X244664934Y-145912482D01*
X244423295Y-146274120D01*
X244256852Y-146675950D01*
X244172000Y-147102531D01*
X244172000Y-147537469D01*
X244256852Y-147964050D01*
X244423295Y-148365880D01*
X244664934Y-148727518D01*
X244972482Y-149035066D01*
X245334120Y-149276705D01*
X245735950Y-149443148D01*
X246162531Y-149528000D01*
X246597469Y-149528000D01*
X247024050Y-149443148D01*
X247425880Y-149276705D01*
X247787518Y-149035066D01*
X248095066Y-148727518D01*
X248336705Y-148365880D01*
X248503148Y-147964050D01*
X248576158Y-147597000D01*
X249252000Y-147597000D01*
X249252000Y-148709430D01*
X249286894Y-148884854D01*
X249355341Y-149050099D01*
X249454710Y-149198816D01*
X249581184Y-149325290D01*
X249729901Y-149424659D01*
X249895146Y-149493106D01*
X250070570Y-149528000D01*
X251183000Y-149528000D01*
X251410000Y-149301000D01*
X251410000Y-147370000D01*
X251510000Y-147370000D01*
X251510000Y-149301000D01*
X251737000Y-149528000D01*
X252849430Y-149528000D01*
X253024854Y-149493106D01*
X253190099Y-149424659D01*
X253338816Y-149325290D01*
X253465290Y-149198816D01*
X253564659Y-149050099D01*
X253633106Y-148884854D01*
X253668000Y-148709430D01*
X253668000Y-147597000D01*
X253441000Y-147370000D01*
X251510000Y-147370000D01*
X251410000Y-147370000D01*
X249479000Y-147370000D01*
X249252000Y-147597000D01*
X248576158Y-147597000D01*
X248588000Y-147537469D01*
X248588000Y-147102531D01*
X248503148Y-146675950D01*
X248336705Y-146274120D01*
X248107153Y-145930570D01*
X249252000Y-145930570D01*
X249252000Y-147043000D01*
X249479000Y-147270000D01*
X251410000Y-147270000D01*
X251410000Y-145339000D01*
X251510000Y-145339000D01*
X251510000Y-147270000D01*
X253441000Y-147270000D01*
X253668000Y-147043000D01*
X253668000Y-145930570D01*
X253633106Y-145755146D01*
X253564659Y-145589901D01*
X253465290Y-145441184D01*
X253338816Y-145314710D01*
X253190099Y-145215341D01*
X253024854Y-145146894D01*
X252849430Y-145112000D01*
X251737000Y-145112000D01*
X251510000Y-145339000D01*
X251410000Y-145339000D01*
X251183000Y-145112000D01*
X250070570Y-145112000D01*
X249895146Y-145146894D01*
X249729901Y-145215341D01*
X249581184Y-145314710D01*
X249454710Y-145441184D01*
X249355341Y-145589901D01*
X249286894Y-145755146D01*
X249252000Y-145930570D01*
X248107153Y-145930570D01*
X248095066Y-145912482D01*
X247788000Y-145605416D01*
X247788000Y-138072000D01*
X262587000Y-138072000D01*
X262587000Y-139184430D01*
X262621894Y-139359854D01*
X262690341Y-139525099D01*
X262789710Y-139673816D01*
X262916184Y-139800290D01*
X263064901Y-139899659D01*
X263230146Y-139968106D01*
X263405570Y-140003000D01*
X264518000Y-140003000D01*
X264745000Y-139776000D01*
X264745000Y-137845000D01*
X264845000Y-137845000D01*
X264845000Y-139776000D01*
X265072000Y-140003000D01*
X266184430Y-140003000D01*
X266359854Y-139968106D01*
X266525099Y-139899659D01*
X266673816Y-139800290D01*
X266800290Y-139673816D01*
X266899659Y-139525099D01*
X266968106Y-139359854D01*
X267003000Y-139184430D01*
X267003000Y-138072000D01*
X266776000Y-137845000D01*
X264845000Y-137845000D01*
X264745000Y-137845000D01*
X262814000Y-137845000D01*
X262587000Y-138072000D01*
X247788000Y-138072000D01*
X247788000Y-136405570D01*
X262587000Y-136405570D01*
X262587000Y-137518000D01*
X262814000Y-137745000D01*
X264745000Y-137745000D01*
X264745000Y-135814000D01*
X264845000Y-135814000D01*
X264845000Y-137745000D01*
X266776000Y-137745000D01*
X267003000Y-137518000D01*
X267003000Y-136405570D01*
X266968106Y-136230146D01*
X266899659Y-136064901D01*
X266800290Y-135916184D01*
X266673816Y-135789710D01*
X266525099Y-135690341D01*
X266359854Y-135621894D01*
X266184430Y-135587000D01*
X265072000Y-135587000D01*
X264845000Y-135814000D01*
X264745000Y-135814000D01*
X264518000Y-135587000D01*
X263405570Y-135587000D01*
X263230146Y-135621894D01*
X263064901Y-135690341D01*
X262916184Y-135789710D01*
X262789710Y-135916184D01*
X262690341Y-136064901D01*
X262621894Y-136230146D01*
X262587000Y-136405570D01*
X247788000Y-136405570D01*
X247788000Y-132497531D01*
X262587000Y-132497531D01*
X262587000Y-132932469D01*
X262671852Y-133359050D01*
X262838295Y-133760880D01*
X263079934Y-134122518D01*
X263387482Y-134430066D01*
X263749120Y-134671705D01*
X264150950Y-134838148D01*
X264577531Y-134923000D01*
X265012469Y-134923000D01*
X265439050Y-134838148D01*
X265840880Y-134671705D01*
X266202518Y-134430066D01*
X266510066Y-134122518D01*
X266751705Y-133760880D01*
X266918148Y-133359050D01*
X267003000Y-132932469D01*
X267003000Y-132497531D01*
X266918148Y-132070950D01*
X266751705Y-131669120D01*
X266510066Y-131307482D01*
X266203000Y-131000416D01*
X266203000Y-127787093D01*
X266219985Y-127761673D01*
X266341199Y-127469036D01*
X266402994Y-127158374D01*
X266402994Y-126841626D01*
X266341199Y-126530964D01*
X266219985Y-126238327D01*
X266044009Y-125974960D01*
X265820034Y-125750985D01*
X265556667Y-125575009D01*
X265264030Y-125453795D01*
X264953368Y-125392000D01*
X264636620Y-125392000D01*
X264325958Y-125453795D01*
X264033321Y-125575009D01*
X263769954Y-125750985D01*
X263545979Y-125974960D01*
X263370003Y-126238327D01*
X263248789Y-126530964D01*
X263186994Y-126841626D01*
X263186994Y-127158374D01*
X263248789Y-127469036D01*
X263370003Y-127761673D01*
X263387000Y-127787111D01*
X263387000Y-128339163D01*
X263387001Y-128339173D01*
X263387000Y-131000416D01*
X263079934Y-131307482D01*
X262838295Y-131669120D01*
X262671852Y-132070950D01*
X262587000Y-132497531D01*
X247788000Y-132497531D01*
X247788000Y-124846654D01*
X247794811Y-124777500D01*
X247788000Y-124708346D01*
X247788000Y-124708336D01*
X247767627Y-124501484D01*
X247687116Y-124236075D01*
X247687116Y-124236074D01*
X247556373Y-123991472D01*
X247424512Y-123830800D01*
X247380423Y-123777077D01*
X247326699Y-123732987D01*
X245195172Y-121601460D01*
X247876573Y-121601460D01*
X247883230Y-121634937D01*
X247983622Y-121954359D01*
X248144401Y-122248058D01*
X248359388Y-122504747D01*
X248620322Y-122714562D01*
X248917175Y-122869440D01*
X249238540Y-122963429D01*
X249505000Y-122765270D01*
X249505000Y-121335000D01*
X249605000Y-121335000D01*
X249605000Y-122765270D01*
X249871460Y-122963429D01*
X250192825Y-122869440D01*
X250489678Y-122714562D01*
X250750612Y-122504747D01*
X250965599Y-122248058D01*
X251126378Y-121954359D01*
X251226770Y-121634937D01*
X251233427Y-121601460D01*
X251035156Y-121335000D01*
X249605000Y-121335000D01*
X249505000Y-121335000D01*
X248074844Y-121335000D01*
X247876573Y-121601460D01*
X245195172Y-121601460D01*
X244562252Y-120968540D01*
X247876573Y-120968540D01*
X248074844Y-121235000D01*
X249505000Y-121235000D01*
X249505000Y-119804730D01*
X249605000Y-119804730D01*
X249605000Y-121235000D01*
X251035156Y-121235000D01*
X251233427Y-120968540D01*
X251226770Y-120935063D01*
X251126378Y-120615641D01*
X250965599Y-120321942D01*
X250750612Y-120065253D01*
X250489678Y-119855438D01*
X250192825Y-119700560D01*
X249871460Y-119606571D01*
X249605000Y-119804730D01*
X249505000Y-119804730D01*
X249238540Y-119606571D01*
X248917175Y-119700560D01*
X248620322Y-119855438D01*
X248359388Y-120065253D01*
X248144401Y-120321942D01*
X247983622Y-120615641D01*
X247883230Y-120935063D01*
X247876573Y-120968540D01*
X244562252Y-120968540D01*
X242027011Y-118433299D01*
X241982923Y-118379577D01*
X241768527Y-118203627D01*
X241523925Y-118072884D01*
X241258516Y-117992373D01*
X241051664Y-117972000D01*
X241051654Y-117972000D01*
X240982500Y-117965189D01*
X240913346Y-117972000D01*
X213308213Y-117972000D01*
X211229513Y-115893301D01*
X211185423Y-115839577D01*
X210971027Y-115663627D01*
X210726425Y-115532884D01*
X210461016Y-115452373D01*
X210254164Y-115432000D01*
X210254154Y-115432000D01*
X210185000Y-115425189D01*
X210115846Y-115432000D01*
X208990216Y-115432000D01*
X209113796Y-115281418D01*
X209277039Y-114976013D01*
X209377563Y-114644628D01*
X209411506Y-114300000D01*
X209377563Y-113955372D01*
X209277039Y-113623987D01*
X209113796Y-113318582D01*
X208894108Y-113050892D01*
X208868651Y-113030000D01*
X208894108Y-113009108D01*
X209113796Y-112741418D01*
X209277039Y-112436013D01*
X209377563Y-112104628D01*
X209380337Y-112076460D01*
X223981573Y-112076460D01*
X224062879Y-112367428D01*
X224212071Y-112667339D01*
X224416906Y-112932382D01*
X224669512Y-113152371D01*
X224960182Y-113318852D01*
X225277746Y-113425427D01*
X225610000Y-113468000D01*
X226010000Y-113468000D01*
X226010000Y-111810000D01*
X224179844Y-111810000D01*
X223981573Y-112076460D01*
X209380337Y-112076460D01*
X209411506Y-111760000D01*
X209377563Y-111415372D01*
X209277039Y-111083987D01*
X209113796Y-110778582D01*
X208990216Y-110628000D01*
X215195846Y-110628000D01*
X215265000Y-110634811D01*
X215334154Y-110628000D01*
X215334164Y-110628000D01*
X215541016Y-110607627D01*
X215806425Y-110527116D01*
X216051027Y-110396373D01*
X216265423Y-110220423D01*
X216309513Y-110166699D01*
X221291703Y-105184509D01*
X221345422Y-105140423D01*
X221389512Y-105086700D01*
X221521373Y-104926028D01*
X221652115Y-104681426D01*
X221652116Y-104681425D01*
X221732627Y-104416016D01*
X221753000Y-104209164D01*
X221753000Y-104209154D01*
X221759811Y-104140000D01*
X221753000Y-104070846D01*
X221753000Y-103710096D01*
X221840488Y-103816700D01*
X221840489Y-103816701D01*
X221884577Y-103870422D01*
X221938297Y-103914509D01*
X223110491Y-105086704D01*
X223154577Y-105140423D01*
X223208296Y-105184509D01*
X223208299Y-105184512D01*
X223368972Y-105316373D01*
X223474697Y-105372884D01*
X223613575Y-105447116D01*
X223878984Y-105527627D01*
X224085836Y-105548000D01*
X224085845Y-105548000D01*
X224154999Y-105554811D01*
X224224153Y-105548000D01*
X224379466Y-105548000D01*
X224232979Y-105726495D01*
X224074379Y-106023214D01*
X223976714Y-106345174D01*
X223943736Y-106680000D01*
X223976714Y-107014826D01*
X224074379Y-107336786D01*
X224232979Y-107633505D01*
X224446418Y-107893582D01*
X224515164Y-107950000D01*
X224446418Y-108006418D01*
X224232979Y-108266495D01*
X224074379Y-108563214D01*
X223976714Y-108885174D01*
X223943736Y-109220000D01*
X223976714Y-109554826D01*
X224074379Y-109876786D01*
X224232979Y-110173505D01*
X224446418Y-110433582D01*
X224522286Y-110495845D01*
X224416906Y-110587618D01*
X224212071Y-110852661D01*
X224062879Y-111152572D01*
X223981573Y-111443540D01*
X224179844Y-111710000D01*
X226010000Y-111710000D01*
X226010000Y-111690000D01*
X226110000Y-111690000D01*
X226110000Y-111710000D01*
X226130000Y-111710000D01*
X226130000Y-111810000D01*
X226110000Y-111810000D01*
X226110000Y-113468000D01*
X226510000Y-113468000D01*
X226842254Y-113425427D01*
X227159818Y-113318852D01*
X227450488Y-113152371D01*
X227509500Y-113100978D01*
X227509501Y-113830399D01*
X227492509Y-113855829D01*
X227371295Y-114148466D01*
X227309500Y-114459128D01*
X227309500Y-114775876D01*
X227371295Y-115086538D01*
X227492509Y-115379175D01*
X227668485Y-115642542D01*
X227892460Y-115866517D01*
X228155827Y-116042493D01*
X228448464Y-116163707D01*
X228759126Y-116225502D01*
X229075874Y-116225502D01*
X229386536Y-116163707D01*
X229679173Y-116042493D01*
X229942540Y-115866517D01*
X230166515Y-115642542D01*
X230342491Y-115379175D01*
X230463705Y-115086538D01*
X230525500Y-114775876D01*
X230525500Y-114459128D01*
X230463705Y-114148466D01*
X230342491Y-113855829D01*
X230325500Y-113830400D01*
X230325500Y-112146653D01*
X230332311Y-112077499D01*
X230325500Y-112008345D01*
X230325500Y-112008336D01*
X230305127Y-111801484D01*
X230224616Y-111536075D01*
X230148984Y-111394578D01*
X230093873Y-111291472D01*
X229962012Y-111130799D01*
X229962005Y-111130792D01*
X229917922Y-111077077D01*
X229864208Y-111032996D01*
X228165052Y-109333839D01*
X228176264Y-109220000D01*
X228143286Y-108885174D01*
X228045621Y-108563214D01*
X227887021Y-108266495D01*
X227673582Y-108006418D01*
X227604836Y-107950000D01*
X227673582Y-107893582D01*
X227887021Y-107633505D01*
X228045621Y-107336786D01*
X228143286Y-107014826D01*
X228176264Y-106680000D01*
X228143286Y-106345174D01*
X228045621Y-106023214D01*
X227887021Y-105726495D01*
X227673582Y-105466418D01*
X227604836Y-105410000D01*
X227673582Y-105353582D01*
X227887021Y-105093505D01*
X228045621Y-104796786D01*
X228143286Y-104474826D01*
X228176264Y-104140000D01*
X228143286Y-103805174D01*
X228045621Y-103483214D01*
X227887021Y-103186495D01*
X227740534Y-103008000D01*
X230934904Y-103008000D01*
X230774577Y-103139577D01*
X230730483Y-103193306D01*
X230193298Y-103730490D01*
X230139578Y-103774577D01*
X230095492Y-103828296D01*
X230095488Y-103828300D01*
X229963627Y-103988973D01*
X229832885Y-104233575D01*
X229752374Y-104498984D01*
X229725189Y-104775000D01*
X229732001Y-104844164D01*
X229732000Y-108515846D01*
X229725189Y-108585000D01*
X229732000Y-108654154D01*
X229732000Y-108654163D01*
X229752373Y-108861015D01*
X229832884Y-109126424D01*
X229832885Y-109126425D01*
X229963627Y-109371027D01*
X230095488Y-109531700D01*
X230095491Y-109531703D01*
X230139577Y-109585422D01*
X230193298Y-109629510D01*
X230730483Y-110166694D01*
X230774577Y-110220423D01*
X230959729Y-110372373D01*
X230988973Y-110396373D01*
X231233574Y-110527116D01*
X231297205Y-110546418D01*
X231498984Y-110607627D01*
X231705836Y-110628000D01*
X231705838Y-110628000D01*
X231775000Y-110634812D01*
X231844161Y-110628000D01*
X231999466Y-110628000D01*
X231852979Y-110806495D01*
X231694379Y-111103214D01*
X231596714Y-111425174D01*
X231563736Y-111760000D01*
X231596714Y-112094826D01*
X231694379Y-112416786D01*
X231852979Y-112713505D01*
X232066418Y-112973582D01*
X232326495Y-113187021D01*
X232623214Y-113345621D01*
X232945174Y-113443286D01*
X233196096Y-113468000D01*
X234163904Y-113468000D01*
X234414826Y-113443286D01*
X234736786Y-113345621D01*
X235033505Y-113187021D01*
X235056682Y-113168000D01*
X235515846Y-113168000D01*
X235585000Y-113174811D01*
X235654154Y-113168000D01*
X235654164Y-113168000D01*
X235861016Y-113147627D01*
X236126425Y-113067116D01*
X236371027Y-112936373D01*
X236585423Y-112760423D01*
X236629513Y-112706699D01*
X237259752Y-112076460D01*
X244936573Y-112076460D01*
X245017879Y-112367428D01*
X245167071Y-112667339D01*
X245371906Y-112932382D01*
X245624512Y-113152371D01*
X245915182Y-113318852D01*
X246232746Y-113425427D01*
X246565000Y-113468000D01*
X246965000Y-113468000D01*
X246965000Y-111810000D01*
X245134844Y-111810000D01*
X244936573Y-112076460D01*
X237259752Y-112076460D01*
X243788213Y-105548000D01*
X245334466Y-105548000D01*
X245187979Y-105726495D01*
X245029379Y-106023214D01*
X244931714Y-106345174D01*
X244898736Y-106680000D01*
X244931714Y-107014826D01*
X245029379Y-107336786D01*
X245187979Y-107633505D01*
X245401418Y-107893582D01*
X245470164Y-107950000D01*
X245401418Y-108006418D01*
X245187979Y-108266495D01*
X245029379Y-108563214D01*
X244931714Y-108885174D01*
X244898736Y-109220000D01*
X244931714Y-109554826D01*
X245029379Y-109876786D01*
X245187979Y-110173505D01*
X245401418Y-110433582D01*
X245477286Y-110495845D01*
X245371906Y-110587618D01*
X245167071Y-110852661D01*
X245017879Y-111152572D01*
X244936573Y-111443540D01*
X245134844Y-111710000D01*
X246965000Y-111710000D01*
X246965000Y-111690000D01*
X247065000Y-111690000D01*
X247065000Y-111710000D01*
X247085000Y-111710000D01*
X247085000Y-111810000D01*
X247065000Y-111810000D01*
X247065000Y-113468000D01*
X247465000Y-113468000D01*
X247797254Y-113425427D01*
X248114818Y-113318852D01*
X248147001Y-113300419D01*
X248147001Y-113830398D01*
X248130009Y-113855828D01*
X248008795Y-114148465D01*
X247947000Y-114459127D01*
X247947000Y-114775875D01*
X248008795Y-115086537D01*
X248130009Y-115379174D01*
X248305985Y-115642541D01*
X248529960Y-115866516D01*
X248793327Y-116042492D01*
X249085964Y-116163706D01*
X249115959Y-116169672D01*
X249462990Y-116516704D01*
X249507076Y-116570423D01*
X249560795Y-116614509D01*
X249560798Y-116614512D01*
X249721471Y-116746373D01*
X249852214Y-116816256D01*
X249966074Y-116877116D01*
X250231483Y-116957627D01*
X250438335Y-116978000D01*
X250438344Y-116978000D01*
X250507498Y-116984811D01*
X250576652Y-116978000D01*
X256470846Y-116978000D01*
X256540000Y-116984811D01*
X256609154Y-116978000D01*
X256609164Y-116978000D01*
X256816016Y-116957627D01*
X257081425Y-116877116D01*
X257326027Y-116746373D01*
X257540423Y-116570423D01*
X257584513Y-116516699D01*
X260933212Y-113168000D01*
X264084784Y-113168000D01*
X263961204Y-113318582D01*
X263797961Y-113623987D01*
X263697437Y-113955372D01*
X263663494Y-114300000D01*
X263697437Y-114644628D01*
X263797961Y-114976013D01*
X263961204Y-115281418D01*
X264180892Y-115549108D01*
X264206349Y-115570000D01*
X264180892Y-115590892D01*
X263961204Y-115858582D01*
X263797961Y-116163987D01*
X263697437Y-116495372D01*
X263663494Y-116840000D01*
X263697437Y-117184628D01*
X263797961Y-117516013D01*
X263961204Y-117821418D01*
X264180892Y-118089108D01*
X264206349Y-118110000D01*
X264180892Y-118130892D01*
X263961204Y-118398582D01*
X263797961Y-118703987D01*
X263697437Y-119035372D01*
X263663494Y-119380000D01*
X263697437Y-119724628D01*
X263797961Y-120056013D01*
X263961204Y-120361418D01*
X264180892Y-120629108D01*
X264206349Y-120650000D01*
X264180892Y-120670892D01*
X263961204Y-120938582D01*
X263797961Y-121243987D01*
X263697437Y-121575372D01*
X263663494Y-121920000D01*
X263697437Y-122264628D01*
X263797961Y-122596013D01*
X263961204Y-122901418D01*
X264180892Y-123169108D01*
X264448582Y-123388796D01*
X264753987Y-123552039D01*
X265085372Y-123652563D01*
X265343637Y-123678000D01*
X265516363Y-123678000D01*
X265774628Y-123652563D01*
X266106013Y-123552039D01*
X266411418Y-123388796D01*
X266679108Y-123169108D01*
X266700000Y-123143651D01*
X266720892Y-123169108D01*
X266988582Y-123388796D01*
X267293987Y-123552039D01*
X267625372Y-123652563D01*
X267883637Y-123678000D01*
X268056363Y-123678000D01*
X268314628Y-123652563D01*
X268646013Y-123552039D01*
X268951418Y-123388796D01*
X269219108Y-123169108D01*
X269438796Y-122901418D01*
X269602039Y-122596013D01*
X269702563Y-122264628D01*
X269736506Y-121920000D01*
X269702563Y-121575372D01*
X269602039Y-121243987D01*
X269438796Y-120938582D01*
X269219108Y-120670892D01*
X269193651Y-120650000D01*
X269219108Y-120629108D01*
X269438796Y-120361418D01*
X269602039Y-120056013D01*
X269702563Y-119724628D01*
X269736506Y-119380000D01*
X269702563Y-119035372D01*
X269602039Y-118703987D01*
X269438796Y-118398582D01*
X269219108Y-118130892D01*
X269193651Y-118110000D01*
X269219108Y-118089108D01*
X269438796Y-117821418D01*
X269602039Y-117516013D01*
X269702563Y-117184628D01*
X269736506Y-116840000D01*
X269702563Y-116495372D01*
X269602039Y-116163987D01*
X269438796Y-115858582D01*
X269219108Y-115590892D01*
X269193651Y-115570000D01*
X269219108Y-115549108D01*
X269438796Y-115281418D01*
X269602039Y-114976013D01*
X269702563Y-114644628D01*
X269736506Y-114300000D01*
X269702563Y-113955372D01*
X269602039Y-113623987D01*
X269438796Y-113318582D01*
X269219108Y-113050892D01*
X269193651Y-113030000D01*
X269219108Y-113009108D01*
X269438796Y-112741418D01*
X269602039Y-112436013D01*
X269702563Y-112104628D01*
X269736506Y-111760000D01*
X269702563Y-111415372D01*
X269602039Y-111083987D01*
X269438796Y-110778582D01*
X269219108Y-110510892D01*
X269193651Y-110490000D01*
X269219108Y-110469108D01*
X269438796Y-110201418D01*
X269602039Y-109896013D01*
X269702563Y-109564628D01*
X269736506Y-109220000D01*
X269702563Y-108875372D01*
X269602039Y-108543987D01*
X269438796Y-108238582D01*
X269219108Y-107970892D01*
X269193651Y-107950000D01*
X269219108Y-107929108D01*
X269438796Y-107661418D01*
X269602039Y-107356013D01*
X269702563Y-107024628D01*
X269736506Y-106680000D01*
X269702563Y-106335372D01*
X269602039Y-106003987D01*
X269438796Y-105698582D01*
X269219108Y-105430892D01*
X269193651Y-105410000D01*
X269219108Y-105389108D01*
X269438796Y-105121418D01*
X269602039Y-104816013D01*
X269702563Y-104484628D01*
X269736506Y-104140000D01*
X269702563Y-103795372D01*
X269602039Y-103463987D01*
X269438796Y-103158582D01*
X269219108Y-102890892D01*
X269193651Y-102870000D01*
X269219108Y-102849108D01*
X269438796Y-102581418D01*
X269602039Y-102276013D01*
X269702563Y-101944628D01*
X269736506Y-101600000D01*
X269702563Y-101255372D01*
X269602039Y-100923987D01*
X269438796Y-100618582D01*
X269219108Y-100350892D01*
X269188246Y-100325564D01*
X269199565Y-100316478D01*
X269421066Y-100052459D01*
X269586803Y-99750300D01*
X269690407Y-99421613D01*
X269697832Y-99384285D01*
X269500183Y-99110000D01*
X268020000Y-99110000D01*
X268020000Y-99130000D01*
X267920000Y-99130000D01*
X267920000Y-99110000D01*
X267900000Y-99110000D01*
X267900000Y-99010000D01*
X267920000Y-99010000D01*
X267920000Y-98990000D01*
X268020000Y-98990000D01*
X268020000Y-99010000D01*
X269500183Y-99010000D01*
X269697832Y-98735715D01*
X269690407Y-98698387D01*
X269586803Y-98369700D01*
X269421066Y-98067541D01*
X269199565Y-97803522D01*
X269188246Y-97794436D01*
X269219108Y-97769108D01*
X269438796Y-97501418D01*
X269602039Y-97196013D01*
X269702563Y-96864628D01*
X269736506Y-96520000D01*
X269702563Y-96175372D01*
X269602039Y-95843987D01*
X269438796Y-95538582D01*
X269219108Y-95270892D01*
X269193651Y-95250000D01*
X269219108Y-95229108D01*
X269438796Y-94961418D01*
X269602039Y-94656013D01*
X269702563Y-94324628D01*
X269736506Y-93980000D01*
X269702563Y-93635372D01*
X269602039Y-93303987D01*
X269438796Y-92998582D01*
X269219108Y-92730892D01*
X269193651Y-92710000D01*
X269219108Y-92689108D01*
X269438796Y-92421418D01*
X269602039Y-92116013D01*
X269702563Y-91784628D01*
X269736506Y-91440000D01*
X269702563Y-91095372D01*
X269602039Y-90763987D01*
X269438796Y-90458582D01*
X269219108Y-90190892D01*
X269193651Y-90170000D01*
X269219108Y-90149108D01*
X269438796Y-89881418D01*
X269602039Y-89576013D01*
X269702563Y-89244628D01*
X269736506Y-88900000D01*
X269702563Y-88555372D01*
X269602039Y-88223987D01*
X269438796Y-87918582D01*
X269219108Y-87650892D01*
X269193651Y-87630000D01*
X269219108Y-87609108D01*
X269438796Y-87341418D01*
X269602039Y-87036013D01*
X269702563Y-86704628D01*
X269736506Y-86360000D01*
X269702563Y-86015372D01*
X269602039Y-85683987D01*
X269438796Y-85378582D01*
X269219108Y-85110892D01*
X269193651Y-85090000D01*
X269219108Y-85069108D01*
X269438796Y-84801418D01*
X269602039Y-84496013D01*
X269702563Y-84164628D01*
X269736506Y-83820000D01*
X269702563Y-83475372D01*
X269602039Y-83143987D01*
X269438796Y-82838582D01*
X269219108Y-82570892D01*
X269193651Y-82550000D01*
X269219108Y-82529108D01*
X269438796Y-82261418D01*
X269602039Y-81956013D01*
X269702563Y-81624628D01*
X269736506Y-81280000D01*
X269702563Y-80935372D01*
X269602039Y-80603987D01*
X269438796Y-80298582D01*
X269219108Y-80030892D01*
X269193651Y-80010000D01*
X269219108Y-79989108D01*
X269438796Y-79721418D01*
X269602039Y-79416013D01*
X269702563Y-79084628D01*
X269736506Y-78740000D01*
X269702563Y-78395372D01*
X269602039Y-78063987D01*
X269438796Y-77758582D01*
X269219108Y-77490892D01*
X269193651Y-77470000D01*
X269219108Y-77449108D01*
X269438796Y-77181418D01*
X269602039Y-76876013D01*
X269702563Y-76544628D01*
X269736506Y-76200000D01*
X269702563Y-75855372D01*
X269602039Y-75523987D01*
X269438796Y-75218582D01*
X269219108Y-74950892D01*
X269193651Y-74930000D01*
X269219108Y-74909108D01*
X269438796Y-74641418D01*
X269602039Y-74336013D01*
X269702563Y-74004628D01*
X269736506Y-73660000D01*
X269702563Y-73315372D01*
X269602039Y-72983987D01*
X269438796Y-72678582D01*
X269219108Y-72410892D01*
X268951418Y-72191204D01*
X268646013Y-72027961D01*
X268314628Y-71927437D01*
X268056363Y-71902000D01*
X267883637Y-71902000D01*
X267625372Y-71927437D01*
X267293987Y-72027961D01*
X266988582Y-72191204D01*
X266963612Y-72211696D01*
X266925159Y-72164841D01*
X266786898Y-72051373D01*
X266629158Y-71967059D01*
X266457999Y-71915138D01*
X266280000Y-71897607D01*
X264580000Y-71897607D01*
X264402001Y-71915138D01*
X264230842Y-71967059D01*
X264073102Y-72051373D01*
X263934841Y-72164841D01*
X263821373Y-72303102D01*
X263737059Y-72460842D01*
X263685138Y-72632001D01*
X263667607Y-72810000D01*
X263667607Y-74510000D01*
X263685138Y-74687999D01*
X263737059Y-74859158D01*
X263821373Y-75016898D01*
X263934841Y-75155159D01*
X263981696Y-75193612D01*
X263961204Y-75218582D01*
X263797961Y-75523987D01*
X263697437Y-75855372D01*
X263663494Y-76200000D01*
X263697437Y-76544628D01*
X263797961Y-76876013D01*
X263961204Y-77181418D01*
X264180892Y-77449108D01*
X264206349Y-77470000D01*
X264180892Y-77490892D01*
X263961204Y-77758582D01*
X263797961Y-78063987D01*
X263697437Y-78395372D01*
X263663494Y-78740000D01*
X263697437Y-79084628D01*
X263797961Y-79416013D01*
X263961204Y-79721418D01*
X264180892Y-79989108D01*
X264206349Y-80010000D01*
X264180892Y-80030892D01*
X263961204Y-80298582D01*
X263797961Y-80603987D01*
X263697437Y-80935372D01*
X263663494Y-81280000D01*
X263697437Y-81624628D01*
X263797961Y-81956013D01*
X263961204Y-82261418D01*
X264180892Y-82529108D01*
X264206349Y-82550000D01*
X264180892Y-82570892D01*
X263961204Y-82838582D01*
X263797961Y-83143987D01*
X263697437Y-83475372D01*
X263663494Y-83820000D01*
X263697437Y-84164628D01*
X263797961Y-84496013D01*
X263961204Y-84801418D01*
X264180892Y-85069108D01*
X264211754Y-85094436D01*
X264200435Y-85103522D01*
X263978934Y-85367541D01*
X263813197Y-85669700D01*
X263709593Y-85998387D01*
X263702168Y-86035715D01*
X263899817Y-86310000D01*
X265380000Y-86310000D01*
X265380000Y-86290000D01*
X265480000Y-86290000D01*
X265480000Y-86310000D01*
X265500000Y-86310000D01*
X265500000Y-86410000D01*
X265480000Y-86410000D01*
X265480000Y-86430000D01*
X265380000Y-86430000D01*
X265380000Y-86410000D01*
X263899817Y-86410000D01*
X263702168Y-86684285D01*
X263709593Y-86721613D01*
X263813197Y-87050300D01*
X263978934Y-87352459D01*
X264200435Y-87616478D01*
X264211754Y-87625564D01*
X264180892Y-87650892D01*
X263961204Y-87918582D01*
X263797961Y-88223987D01*
X263697437Y-88555372D01*
X263663494Y-88900000D01*
X263697437Y-89244628D01*
X263797961Y-89576013D01*
X263961204Y-89881418D01*
X264180892Y-90149108D01*
X264206349Y-90170000D01*
X264180892Y-90190892D01*
X263961204Y-90458582D01*
X263797961Y-90763987D01*
X263697437Y-91095372D01*
X263663494Y-91440000D01*
X263697437Y-91784628D01*
X263797961Y-92116013D01*
X263961204Y-92421418D01*
X264180892Y-92689108D01*
X264206349Y-92710000D01*
X264180892Y-92730892D01*
X263961204Y-92998582D01*
X263797961Y-93303987D01*
X263697437Y-93635372D01*
X263663494Y-93980000D01*
X263697437Y-94324628D01*
X263797961Y-94656013D01*
X263961204Y-94961418D01*
X264180892Y-95229108D01*
X264206349Y-95250000D01*
X264180892Y-95270892D01*
X263961204Y-95538582D01*
X263797961Y-95843987D01*
X263697437Y-96175372D01*
X263663494Y-96520000D01*
X263697437Y-96864628D01*
X263797961Y-97196013D01*
X263961204Y-97501418D01*
X264180892Y-97769108D01*
X264206349Y-97790000D01*
X264180892Y-97810892D01*
X263961204Y-98078582D01*
X263797961Y-98383987D01*
X263697437Y-98715372D01*
X263663494Y-99060000D01*
X263697437Y-99404628D01*
X263797961Y-99736013D01*
X263961204Y-100041418D01*
X264180892Y-100309108D01*
X264206349Y-100330000D01*
X264180892Y-100350892D01*
X263961204Y-100618582D01*
X263797961Y-100923987D01*
X263697437Y-101255372D01*
X263663494Y-101600000D01*
X263697437Y-101944628D01*
X263797961Y-102276013D01*
X263961204Y-102581418D01*
X264180892Y-102849108D01*
X264206349Y-102870000D01*
X264180892Y-102890892D01*
X263961204Y-103158582D01*
X263797961Y-103463987D01*
X263697437Y-103795372D01*
X263663494Y-104140000D01*
X263697437Y-104484628D01*
X263797961Y-104816013D01*
X263961204Y-105121418D01*
X264084784Y-105272000D01*
X263473213Y-105272000D01*
X263028000Y-104826788D01*
X263028000Y-90239153D01*
X263034811Y-90169999D01*
X263028000Y-90100845D01*
X263028000Y-90100836D01*
X263007627Y-89893984D01*
X262927116Y-89628575D01*
X262800874Y-89392393D01*
X262796373Y-89383972D01*
X262664512Y-89223299D01*
X262664505Y-89223292D01*
X262620422Y-89169577D01*
X262566709Y-89125496D01*
X258219512Y-84778300D01*
X258175423Y-84724577D01*
X257961027Y-84548627D01*
X257716425Y-84417884D01*
X257451016Y-84337373D01*
X257244164Y-84317000D01*
X257244154Y-84317000D01*
X257175000Y-84310189D01*
X257105846Y-84317000D01*
X234898212Y-84317000D01*
X231913000Y-81331788D01*
X231913000Y-72973212D01*
X234626704Y-70259509D01*
X234680423Y-70215423D01*
X234724509Y-70161704D01*
X234724512Y-70161701D01*
X234856373Y-70001028D01*
X234987115Y-69756426D01*
X234987116Y-69756425D01*
X235067627Y-69491016D01*
X235088000Y-69284164D01*
X235088000Y-69284155D01*
X235094811Y-69215001D01*
X235088000Y-69145847D01*
X235088000Y-67697984D01*
X248952000Y-67697984D01*
X248952000Y-68192016D01*
X249048381Y-68676557D01*
X249237439Y-69132983D01*
X249511909Y-69543757D01*
X249861243Y-69893091D01*
X250272017Y-70167561D01*
X250728443Y-70356619D01*
X251212984Y-70453000D01*
X251707016Y-70453000D01*
X252191557Y-70356619D01*
X252647983Y-70167561D01*
X253058757Y-69893091D01*
X253408091Y-69543757D01*
X253682561Y-69132983D01*
X253871619Y-68676557D01*
X253968000Y-68192016D01*
X253968000Y-67697984D01*
X253871619Y-67213443D01*
X253682561Y-66757017D01*
X253408091Y-66346243D01*
X253058757Y-65996909D01*
X252647983Y-65722439D01*
X252191557Y-65533381D01*
X251707016Y-65437000D01*
X251212984Y-65437000D01*
X250728443Y-65533381D01*
X250272017Y-65722439D01*
X249861243Y-65996909D01*
X249511909Y-66346243D01*
X249237439Y-66757017D01*
X249048381Y-67213443D01*
X248952000Y-67697984D01*
X235088000Y-67697984D01*
X235088000Y-64204161D01*
X235094812Y-64135000D01*
X235088000Y-64065836D01*
X235067627Y-63858984D01*
X234987132Y-63593627D01*
X234987116Y-63593574D01*
X234856373Y-63348973D01*
X234680422Y-63134577D01*
X234626698Y-63090487D01*
X234089514Y-62553302D01*
X234045423Y-62499577D01*
X233831027Y-62323627D01*
X233586425Y-62192884D01*
X233321016Y-62112373D01*
X233114164Y-62092000D01*
X233114154Y-62092000D01*
X233045000Y-62085189D01*
X232975846Y-62092000D01*
X230574153Y-62092000D01*
X230504999Y-62085189D01*
X230435845Y-62092000D01*
X230435836Y-62092000D01*
X230228984Y-62112373D01*
X229963575Y-62192884D01*
X229849715Y-62253744D01*
X229718972Y-62323627D01*
X229558299Y-62455488D01*
X229558296Y-62455491D01*
X229504577Y-62499577D01*
X229460491Y-62553296D01*
X228288296Y-63725491D01*
X228234578Y-63769577D01*
X228190492Y-63823296D01*
X228190488Y-63823300D01*
X228103000Y-63929904D01*
X228103000Y-62934153D01*
X228109811Y-62864999D01*
X228103000Y-62795845D01*
X228103000Y-62795836D01*
X228082627Y-62588984D01*
X228002116Y-62323575D01*
X227871373Y-62078973D01*
X227855454Y-62059575D01*
X227739512Y-61918299D01*
X227739505Y-61918292D01*
X227695422Y-61864577D01*
X227641708Y-61820496D01*
X226308964Y-60487751D01*
X226360175Y-60503286D01*
X226695000Y-60536264D01*
X227029826Y-60503286D01*
X227351786Y-60405621D01*
X227648505Y-60247021D01*
X227908582Y-60033582D01*
X227965000Y-59964836D01*
X228021419Y-60033582D01*
X228281496Y-60247021D01*
X228578215Y-60405621D01*
X228900175Y-60503286D01*
X229235000Y-60536264D01*
X229569826Y-60503286D01*
X229891786Y-60405621D01*
X230188505Y-60247021D01*
X230448582Y-60033582D01*
X230510845Y-59957714D01*
X230602618Y-60063094D01*
X230867661Y-60267929D01*
X231167572Y-60417121D01*
X231458540Y-60498427D01*
X231725000Y-60300156D01*
X231725000Y-58470000D01*
X231825000Y-58470000D01*
X231825000Y-60300156D01*
X232091460Y-60498427D01*
X232382428Y-60417121D01*
X232682339Y-60267929D01*
X232947382Y-60063094D01*
X233167371Y-59810488D01*
X233333852Y-59519818D01*
X233440427Y-59202254D01*
X233483000Y-58870000D01*
X233483000Y-58470000D01*
X231825000Y-58470000D01*
X231725000Y-58470000D01*
X231705000Y-58470000D01*
X231705000Y-58370000D01*
X231725000Y-58370000D01*
X231725000Y-56539844D01*
X231825000Y-56539844D01*
X231825000Y-58370000D01*
X233483000Y-58370000D01*
X233483000Y-57970000D01*
X233440427Y-57637746D01*
X233333852Y-57320182D01*
X233167371Y-57029512D01*
X232947382Y-56776906D01*
X232682339Y-56572071D01*
X232382428Y-56422879D01*
X232091460Y-56341573D01*
X231825000Y-56539844D01*
X231725000Y-56539844D01*
X231458540Y-56341573D01*
X231167572Y-56422879D01*
X230867661Y-56572071D01*
X230643000Y-56745697D01*
X230643000Y-55314154D01*
X230649811Y-55245000D01*
X230643000Y-55175846D01*
X230643000Y-55175836D01*
X230622627Y-54968984D01*
X230542116Y-54703575D01*
X230480932Y-54589108D01*
X230411373Y-54458972D01*
X230279512Y-54298300D01*
X230279509Y-54298297D01*
X230235422Y-54244577D01*
X230181703Y-54200491D01*
X228374513Y-52393301D01*
X228330423Y-52339577D01*
X228284636Y-52302000D01*
X248137000Y-52302000D01*
X248137000Y-59218000D01*
X268753000Y-59218000D01*
X268753000Y-52302000D01*
X248137000Y-52302000D01*
X228284636Y-52302000D01*
X228116027Y-52163627D01*
X227871425Y-52032884D01*
X227606016Y-51952373D01*
X227399164Y-51932000D01*
X227399154Y-51932000D01*
X227330000Y-51925189D01*
X227260846Y-51932000D01*
X214336682Y-51932000D01*
X214313505Y-51912979D01*
X214016786Y-51754379D01*
X213694826Y-51656714D01*
X213443904Y-51632000D01*
X213276096Y-51632000D01*
X213025174Y-51656714D01*
X212703214Y-51754379D01*
X212406495Y-51912979D01*
X212383318Y-51932000D01*
X198540498Y-51932000D01*
X198466418Y-51871204D01*
X198161013Y-51707961D01*
X197829628Y-51607437D01*
X197571363Y-51582000D01*
X197398637Y-51582000D01*
X197140372Y-51607437D01*
X196808987Y-51707961D01*
X196503582Y-51871204D01*
X196478612Y-51891696D01*
X196440159Y-51844841D01*
X196301898Y-51731373D01*
X196144158Y-51647059D01*
X195972999Y-51595138D01*
X195795000Y-51577607D01*
X194095000Y-51577607D01*
X193917001Y-51595138D01*
X193745842Y-51647059D01*
X193588102Y-51731373D01*
X193449841Y-51844841D01*
X193336373Y-51983102D01*
X193252059Y-52140842D01*
X193200138Y-52312001D01*
X193182607Y-52490000D01*
X193182607Y-54190000D01*
X193200138Y-54367999D01*
X193252059Y-54539158D01*
X193336373Y-54696898D01*
X193449841Y-54835159D01*
X193496696Y-54873612D01*
X193476204Y-54898582D01*
X193312961Y-55203987D01*
X193212437Y-55535372D01*
X193178494Y-55880000D01*
X193212437Y-56224628D01*
X193312961Y-56556013D01*
X193476204Y-56861418D01*
X193695892Y-57129108D01*
X193726754Y-57154436D01*
X193715435Y-57163522D01*
X193493934Y-57427541D01*
X193328197Y-57729700D01*
X193224593Y-58058387D01*
X193217168Y-58095715D01*
X193414817Y-58370000D01*
X194895000Y-58370000D01*
X194895000Y-58350000D01*
X194995000Y-58350000D01*
X194995000Y-58370000D01*
X197435000Y-58370000D01*
X197435000Y-58350000D01*
X197535000Y-58350000D01*
X197535000Y-58370000D01*
X199015183Y-58370000D01*
X199212832Y-58095715D01*
X199205407Y-58058387D01*
X199101803Y-57729700D01*
X198936066Y-57427541D01*
X198818997Y-57288000D01*
X211952001Y-57288000D01*
X211952000Y-67612903D01*
X211846390Y-67770959D01*
X211717638Y-68081795D01*
X211652000Y-68411777D01*
X211652000Y-68748223D01*
X211717638Y-69078205D01*
X211846390Y-69389041D01*
X212033310Y-69668786D01*
X212271214Y-69906690D01*
X212550959Y-70093610D01*
X212861795Y-70222362D01*
X213191777Y-70288000D01*
X213528223Y-70288000D01*
X213858205Y-70222362D01*
X214169041Y-70093610D01*
X214448786Y-69906690D01*
X214686690Y-69668786D01*
X214873610Y-69389041D01*
X215002362Y-69078205D01*
X215068000Y-68748223D01*
X215068000Y-68411777D01*
X215002362Y-68081795D01*
X214873610Y-67770959D01*
X214768000Y-67612903D01*
X214768000Y-57288000D01*
X222609582Y-57288000D01*
X222569379Y-57363215D01*
X222471714Y-57685175D01*
X222447000Y-57936097D01*
X222447000Y-58903904D01*
X222471714Y-59154826D01*
X222569379Y-59476786D01*
X222727979Y-59773505D01*
X222747001Y-59796683D01*
X222747001Y-60255837D01*
X222740189Y-60325000D01*
X222767374Y-60601016D01*
X222847885Y-60866425D01*
X222978627Y-61111027D01*
X223110488Y-61271700D01*
X223110492Y-61271704D01*
X223154578Y-61325423D01*
X223208297Y-61369509D01*
X225287000Y-63448213D01*
X225287000Y-63991854D01*
X225132999Y-63945138D01*
X224955000Y-63927607D01*
X223355000Y-63927607D01*
X223177001Y-63945138D01*
X223005842Y-63997059D01*
X222848102Y-64081373D01*
X222709841Y-64194841D01*
X222596373Y-64333102D01*
X222512059Y-64490842D01*
X222469239Y-64632000D01*
X220042097Y-64632000D01*
X219884041Y-64526390D01*
X219573205Y-64397638D01*
X219243223Y-64332000D01*
X218906777Y-64332000D01*
X218576795Y-64397638D01*
X218265959Y-64526390D01*
X217986214Y-64713310D01*
X217748310Y-64951214D01*
X217561390Y-65230959D01*
X217432638Y-65541795D01*
X217367000Y-65871777D01*
X217367000Y-66208223D01*
X217432638Y-66538205D01*
X217561390Y-66849041D01*
X217748310Y-67128786D01*
X217986214Y-67366690D01*
X218265959Y-67553610D01*
X218576795Y-67682362D01*
X218906777Y-67748000D01*
X219243223Y-67748000D01*
X219573205Y-67682362D01*
X219884041Y-67553610D01*
X220042097Y-67448000D01*
X222469239Y-67448000D01*
X222512059Y-67589158D01*
X222596373Y-67746898D01*
X222709841Y-67885159D01*
X222848102Y-67998627D01*
X223005842Y-68082941D01*
X223177001Y-68134862D01*
X223355000Y-68152393D01*
X224955000Y-68152393D01*
X225132999Y-68134862D01*
X225287000Y-68088146D01*
X225287001Y-90891663D01*
X225273972Y-90898627D01*
X225113299Y-91030488D01*
X225113296Y-91030491D01*
X225059577Y-91074577D01*
X225015491Y-91128296D01*
X215951788Y-100192000D01*
X214578212Y-100192000D01*
X209959512Y-95573300D01*
X209915423Y-95519577D01*
X209755096Y-95388000D01*
X210667898Y-95388000D01*
X210693327Y-95404991D01*
X210985964Y-95526205D01*
X211296626Y-95588000D01*
X211613374Y-95588000D01*
X211924036Y-95526205D01*
X212216673Y-95404991D01*
X212480040Y-95229015D01*
X212704015Y-95005040D01*
X212879991Y-94741673D01*
X213001205Y-94449036D01*
X213063000Y-94138374D01*
X213063000Y-93821626D01*
X213001205Y-93510964D01*
X212879991Y-93218327D01*
X212704015Y-92954960D01*
X212480040Y-92730985D01*
X212216673Y-92555009D01*
X211924036Y-92433795D01*
X211613374Y-92372000D01*
X211296626Y-92372000D01*
X210985964Y-92433795D01*
X210693327Y-92555009D01*
X210667898Y-92572000D01*
X208990216Y-92572000D01*
X209113796Y-92421418D01*
X209277039Y-92116013D01*
X209377563Y-91784628D01*
X209411506Y-91440000D01*
X209377563Y-91095372D01*
X209277039Y-90763987D01*
X209113796Y-90458582D01*
X208894108Y-90190892D01*
X208868651Y-90170000D01*
X208894108Y-90149108D01*
X209113796Y-89881418D01*
X209277039Y-89576013D01*
X209364411Y-89287984D01*
X215297000Y-89287984D01*
X215297000Y-89782016D01*
X215393381Y-90266557D01*
X215582439Y-90722983D01*
X215856909Y-91133757D01*
X216206243Y-91483091D01*
X216617017Y-91757561D01*
X217073443Y-91946619D01*
X217557984Y-92043000D01*
X218052016Y-92043000D01*
X218536557Y-91946619D01*
X218992983Y-91757561D01*
X219403757Y-91483091D01*
X219753091Y-91133757D01*
X220027561Y-90722983D01*
X220216619Y-90266557D01*
X220313000Y-89782016D01*
X220313000Y-89287984D01*
X220216619Y-88803443D01*
X220027561Y-88347017D01*
X219753091Y-87936243D01*
X219403757Y-87586909D01*
X218992983Y-87312439D01*
X218536557Y-87123381D01*
X218052016Y-87027000D01*
X217557984Y-87027000D01*
X217073443Y-87123381D01*
X216617017Y-87312439D01*
X216206243Y-87586909D01*
X215856909Y-87936243D01*
X215582439Y-88347017D01*
X215393381Y-88803443D01*
X215297000Y-89287984D01*
X209364411Y-89287984D01*
X209377563Y-89244628D01*
X209411506Y-88900000D01*
X209377563Y-88555372D01*
X209277039Y-88223987D01*
X209113796Y-87918582D01*
X208894108Y-87650892D01*
X208868651Y-87630000D01*
X208894108Y-87609108D01*
X209113796Y-87341418D01*
X209277039Y-87036013D01*
X209377563Y-86704628D01*
X209411506Y-86360000D01*
X209377563Y-86015372D01*
X209277039Y-85683987D01*
X209113796Y-85378582D01*
X208894108Y-85110892D01*
X208868651Y-85090000D01*
X208894108Y-85069108D01*
X209113796Y-84801418D01*
X209277039Y-84496013D01*
X209377563Y-84164628D01*
X209411506Y-83820000D01*
X209377563Y-83475372D01*
X209277039Y-83143987D01*
X209113796Y-82838582D01*
X208894108Y-82570892D01*
X208868651Y-82550000D01*
X208894108Y-82529108D01*
X209113796Y-82261418D01*
X209277039Y-81956013D01*
X209377563Y-81624628D01*
X209380337Y-81596460D01*
X217396571Y-81596460D01*
X217490560Y-81917825D01*
X217645438Y-82214678D01*
X217855253Y-82475612D01*
X218111942Y-82690599D01*
X218405641Y-82851378D01*
X218725063Y-82951770D01*
X218758540Y-82958427D01*
X219025000Y-82760156D01*
X219025000Y-81330000D01*
X219125000Y-81330000D01*
X219125000Y-82760156D01*
X219391460Y-82958427D01*
X219424937Y-82951770D01*
X219744359Y-82851378D01*
X220038058Y-82690599D01*
X220294747Y-82475612D01*
X220504562Y-82214678D01*
X220659440Y-81917825D01*
X220753429Y-81596460D01*
X220555270Y-81330000D01*
X219125000Y-81330000D01*
X219025000Y-81330000D01*
X217594730Y-81330000D01*
X217396571Y-81596460D01*
X209380337Y-81596460D01*
X209411506Y-81280000D01*
X209380338Y-80963540D01*
X217396571Y-80963540D01*
X217594730Y-81230000D01*
X219025000Y-81230000D01*
X219025000Y-79799844D01*
X219125000Y-79799844D01*
X219125000Y-81230000D01*
X220555270Y-81230000D01*
X220753429Y-80963540D01*
X220659440Y-80642175D01*
X220504562Y-80345322D01*
X220294747Y-80084388D01*
X220038058Y-79869401D01*
X219744359Y-79708622D01*
X219424937Y-79608230D01*
X219391460Y-79601573D01*
X219125000Y-79799844D01*
X219025000Y-79799844D01*
X218758540Y-79601573D01*
X218725063Y-79608230D01*
X218405641Y-79708622D01*
X218111942Y-79869401D01*
X217855253Y-80084388D01*
X217645438Y-80345322D01*
X217490560Y-80642175D01*
X217396571Y-80963540D01*
X209380338Y-80963540D01*
X209377563Y-80935372D01*
X209277039Y-80603987D01*
X209113796Y-80298582D01*
X208894108Y-80030892D01*
X208868651Y-80010000D01*
X208894108Y-79989108D01*
X209113796Y-79721418D01*
X209277039Y-79416013D01*
X209377563Y-79084628D01*
X209411506Y-78740000D01*
X209377563Y-78395372D01*
X209277039Y-78063987D01*
X209113796Y-77758582D01*
X208989764Y-77607448D01*
X209191016Y-77587627D01*
X209456425Y-77507116D01*
X209701027Y-77376373D01*
X209915423Y-77200423D01*
X209959513Y-77146699D01*
X211131704Y-75974509D01*
X211185423Y-75930423D01*
X211229509Y-75876704D01*
X211229512Y-75876701D01*
X211361373Y-75716028D01*
X211475574Y-75502373D01*
X211492116Y-75471425D01*
X211572627Y-75206016D01*
X211593000Y-74999164D01*
X211593000Y-74999155D01*
X211599811Y-74930001D01*
X211593000Y-74860847D01*
X211593000Y-71189154D01*
X211599811Y-71120000D01*
X211593000Y-71050846D01*
X211593000Y-71050836D01*
X211572627Y-70843984D01*
X211492116Y-70578575D01*
X211361374Y-70333974D01*
X211361373Y-70333972D01*
X211229512Y-70173300D01*
X211229509Y-70173297D01*
X211185422Y-70119577D01*
X211131703Y-70075491D01*
X209324513Y-68268301D01*
X209280423Y-68214577D01*
X209066027Y-68038627D01*
X208821425Y-67907884D01*
X208556016Y-67827373D01*
X208349164Y-67807000D01*
X208349154Y-67807000D01*
X208280000Y-67800189D01*
X208210846Y-67807000D01*
X201999161Y-67807000D01*
X201930000Y-67800188D01*
X201860839Y-67807000D01*
X201860836Y-67807000D01*
X201653984Y-67827373D01*
X201388575Y-67907884D01*
X201143972Y-68038627D01*
X200983300Y-68170487D01*
X200983296Y-68170491D01*
X200929577Y-68214577D01*
X200885491Y-68268296D01*
X195268297Y-73885491D01*
X195214578Y-73929577D01*
X195170492Y-73983296D01*
X195170488Y-73983300D01*
X195038627Y-74143973D01*
X194907885Y-74388575D01*
X194827374Y-74653984D01*
X194800189Y-74930000D01*
X194807001Y-74999164D01*
X194807000Y-104826788D01*
X190188297Y-109445491D01*
X190134578Y-109489577D01*
X190090492Y-109543296D01*
X190090488Y-109543300D01*
X189958627Y-109703973D01*
X189827885Y-109948575D01*
X189747374Y-110213984D01*
X189720189Y-110490000D01*
X188283000Y-110490000D01*
X188283000Y-58744285D01*
X193217168Y-58744285D01*
X193224593Y-58781613D01*
X193328197Y-59110300D01*
X193493934Y-59412459D01*
X193715435Y-59676478D01*
X193984187Y-59892211D01*
X194289863Y-60051368D01*
X194620715Y-60147833D01*
X194895000Y-59950290D01*
X194895000Y-58470000D01*
X194995000Y-58470000D01*
X194995000Y-59950290D01*
X195269285Y-60147833D01*
X195600137Y-60051368D01*
X195905813Y-59892211D01*
X196174565Y-59676478D01*
X196215000Y-59628281D01*
X196255435Y-59676478D01*
X196524187Y-59892211D01*
X196829863Y-60051368D01*
X197160715Y-60147833D01*
X197435000Y-59950290D01*
X197435000Y-58470000D01*
X197535000Y-58470000D01*
X197535000Y-59950290D01*
X197809285Y-60147833D01*
X198140137Y-60051368D01*
X198445813Y-59892211D01*
X198714565Y-59676478D01*
X198936066Y-59412459D01*
X199101803Y-59110300D01*
X199205407Y-58781613D01*
X199212832Y-58744285D01*
X199015183Y-58470000D01*
X197535000Y-58470000D01*
X197435000Y-58470000D01*
X194995000Y-58470000D01*
X194895000Y-58470000D01*
X193414817Y-58470000D01*
X193217168Y-58744285D01*
X188283000Y-58744285D01*
X188283000Y-48583000D01*
X272727000Y-48583000D01*
X272727001Y-165412000D01*
X272727001Y-165412000D01*
G37*
X272727001Y-165412000D02*
X188283000Y-165412000D01*
X188283000Y-110490000D01*
X189720189Y-110490000D01*
X189727001Y-110559164D01*
X189727000Y-145980846D01*
X189720189Y-146050000D01*
X189727000Y-146119154D01*
X189727000Y-146119163D01*
X189747373Y-146326015D01*
X189827884Y-146591424D01*
X189858063Y-146647884D01*
X189958627Y-146836027D01*
X190090488Y-146996700D01*
X190090491Y-146996703D01*
X190134577Y-147050422D01*
X190188297Y-147094509D01*
X196440491Y-153346704D01*
X196484577Y-153400423D01*
X196538296Y-153444509D01*
X196538299Y-153444512D01*
X196698972Y-153576373D01*
X196804697Y-153632884D01*
X196943575Y-153707116D01*
X197208984Y-153787627D01*
X197415836Y-153808000D01*
X197415845Y-153808000D01*
X197484999Y-153814811D01*
X197554153Y-153808000D01*
X198247945Y-153808000D01*
X198140985Y-153914960D01*
X197965009Y-154178327D01*
X197843795Y-154470964D01*
X197782000Y-154781626D01*
X197782000Y-155098374D01*
X197843795Y-155409036D01*
X197965009Y-155701673D01*
X198140985Y-155965040D01*
X198364960Y-156189015D01*
X198628327Y-156364991D01*
X198920964Y-156486205D01*
X199231626Y-156548000D01*
X199548374Y-156548000D01*
X199859036Y-156486205D01*
X200151673Y-156364991D01*
X200177102Y-156348000D01*
X209979904Y-156348000D01*
X209819577Y-156479577D01*
X209775483Y-156533306D01*
X209238298Y-157070490D01*
X209184577Y-157114578D01*
X209140491Y-157168297D01*
X209140488Y-157168300D01*
X209008627Y-157328973D01*
X208938744Y-157459716D01*
X208877884Y-157573576D01*
X208797373Y-157838985D01*
X208777000Y-158045837D01*
X208777000Y-158045846D01*
X208770189Y-158115000D01*
X208777000Y-158184154D01*
X208777001Y-161220837D01*
X208770189Y-161290000D01*
X208797374Y-161566016D01*
X208877885Y-161831425D01*
X209008627Y-162076027D01*
X209140488Y-162236700D01*
X209140492Y-162236704D01*
X209184578Y-162290423D01*
X209238296Y-162334509D01*
X210410491Y-163506704D01*
X210454577Y-163560423D01*
X210508296Y-163604509D01*
X210508299Y-163604512D01*
X210668972Y-163736373D01*
X210799715Y-163806256D01*
X210913575Y-163867116D01*
X211178984Y-163947627D01*
X211385836Y-163968000D01*
X211385845Y-163968000D01*
X211454999Y-163974811D01*
X211524153Y-163968000D01*
X223450846Y-163968000D01*
X223520000Y-163974811D01*
X223589154Y-163968000D01*
X223589164Y-163968000D01*
X223796016Y-163947627D01*
X224061425Y-163867116D01*
X224306027Y-163736373D01*
X224520423Y-163560423D01*
X224564513Y-163506699D01*
X226371703Y-161699509D01*
X226425422Y-161655423D01*
X226498797Y-161566016D01*
X226601373Y-161441028D01*
X226732115Y-161196426D01*
X226732116Y-161196425D01*
X226812627Y-160931016D01*
X226833000Y-160724164D01*
X226833000Y-160724154D01*
X226839811Y-160655000D01*
X226833000Y-160585846D01*
X226833000Y-154057984D01*
X260382000Y-154057984D01*
X260382000Y-154552016D01*
X260478381Y-155036557D01*
X260667439Y-155492983D01*
X260941909Y-155903757D01*
X261291243Y-156253091D01*
X261702017Y-156527561D01*
X262158443Y-156716619D01*
X262642984Y-156813000D01*
X263137016Y-156813000D01*
X263621557Y-156716619D01*
X264077983Y-156527561D01*
X264488757Y-156253091D01*
X264838091Y-155903757D01*
X265112561Y-155492983D01*
X265301619Y-155036557D01*
X265398000Y-154552016D01*
X265398000Y-154057984D01*
X265301619Y-153573443D01*
X265112561Y-153117017D01*
X264838091Y-152706243D01*
X264488757Y-152356909D01*
X264077983Y-152082439D01*
X263621557Y-151893381D01*
X263137016Y-151797000D01*
X262642984Y-151797000D01*
X262158443Y-151893381D01*
X261702017Y-152082439D01*
X261291243Y-152356909D01*
X260941909Y-152706243D01*
X260667439Y-153117017D01*
X260478381Y-153573443D01*
X260382000Y-154057984D01*
X226833000Y-154057984D01*
X226833000Y-148659153D01*
X226839811Y-148589999D01*
X226833000Y-148520845D01*
X226833000Y-148520836D01*
X226812627Y-148313984D01*
X226732116Y-148048575D01*
X226632082Y-147861425D01*
X226601373Y-147803972D01*
X226469512Y-147643299D01*
X226469509Y-147643296D01*
X226425423Y-147589577D01*
X226371704Y-147545491D01*
X222024511Y-143198299D01*
X221980423Y-143144577D01*
X221766027Y-142968627D01*
X221521425Y-142837884D01*
X221256016Y-142757373D01*
X221049164Y-142737000D01*
X221049154Y-142737000D01*
X220980000Y-142730189D01*
X220910846Y-142737000D01*
X204418213Y-142737000D01*
X202068000Y-140386788D01*
X202068000Y-135015954D01*
X204779757Y-135015954D01*
X204819355Y-135337223D01*
X205100851Y-135490850D01*
X205406909Y-135586607D01*
X205725767Y-135620815D01*
X206045172Y-135592160D01*
X206352850Y-135501742D01*
X206636976Y-135353037D01*
X206660645Y-135337223D01*
X206700243Y-135015954D01*
X205740000Y-134055711D01*
X204779757Y-135015954D01*
X202068000Y-135015954D01*
X202068000Y-131669212D01*
X202790491Y-132391704D01*
X202834577Y-132445423D01*
X202888296Y-132489509D01*
X202888299Y-132489512D01*
X203048972Y-132621373D01*
X203154697Y-132677884D01*
X203293575Y-132752116D01*
X203558984Y-132832627D01*
X203765836Y-132853000D01*
X203765845Y-132853000D01*
X203834999Y-132859811D01*
X203904153Y-132853000D01*
X204561257Y-132853000D01*
X204549272Y-132864985D01*
X204709044Y-133024757D01*
X204387777Y-133064355D01*
X204234150Y-133345851D01*
X204138393Y-133651909D01*
X204104185Y-133970767D01*
X204132840Y-134290172D01*
X204223258Y-134597850D01*
X204371963Y-134881976D01*
X204387777Y-134905645D01*
X204709046Y-134945243D01*
X205669289Y-133985000D01*
X205655147Y-133970858D01*
X205725858Y-133900147D01*
X205740000Y-133914289D01*
X205754142Y-133900147D01*
X205824853Y-133970858D01*
X205810711Y-133985000D01*
X206770954Y-134945243D01*
X207092223Y-134905645D01*
X207245850Y-134624149D01*
X207341607Y-134318091D01*
X207375815Y-133999233D01*
X207347160Y-133679828D01*
X207256742Y-133372150D01*
X207108037Y-133088024D01*
X207092223Y-133064355D01*
X206770956Y-133024757D01*
X206930728Y-132864985D01*
X206918743Y-132853000D01*
X207456898Y-132853000D01*
X207508853Y-132887715D01*
X207805130Y-133010437D01*
X208119656Y-133073000D01*
X208440344Y-133073000D01*
X208754870Y-133010437D01*
X209051147Y-132887715D01*
X209317789Y-132709550D01*
X209412000Y-132615339D01*
X209412000Y-133161898D01*
X209377285Y-133213853D01*
X209254563Y-133510130D01*
X209192000Y-133824656D01*
X209192000Y-134145344D01*
X209254563Y-134459870D01*
X209377285Y-134756147D01*
X209412000Y-134808102D01*
X209412001Y-135820837D01*
X209405189Y-135890000D01*
X209432374Y-136166016D01*
X209512885Y-136431425D01*
X209643627Y-136676027D01*
X209775488Y-136836700D01*
X209775492Y-136836704D01*
X209819578Y-136890423D01*
X209873296Y-136934509D01*
X210682000Y-137743213D01*
X210682001Y-140182897D01*
X210665009Y-140208327D01*
X210543795Y-140500964D01*
X210482000Y-140811626D01*
X210482000Y-141128374D01*
X210543795Y-141439036D01*
X210665009Y-141731673D01*
X210840985Y-141995040D01*
X211064960Y-142219015D01*
X211328327Y-142394991D01*
X211620964Y-142516205D01*
X211931626Y-142578000D01*
X212248374Y-142578000D01*
X212559036Y-142516205D01*
X212851673Y-142394991D01*
X213115040Y-142219015D01*
X213339015Y-141995040D01*
X213514991Y-141731673D01*
X213636205Y-141439036D01*
X213698000Y-141128374D01*
X213698000Y-140811626D01*
X213636205Y-140500964D01*
X213514991Y-140208327D01*
X213498000Y-140182898D01*
X213498000Y-138568000D01*
X220910836Y-138568000D01*
X220980000Y-138574812D01*
X221049164Y-138568000D01*
X229800846Y-138568000D01*
X229870000Y-138574811D01*
X229939154Y-138568000D01*
X229939164Y-138568000D01*
X230146016Y-138547627D01*
X230411425Y-138467116D01*
X230656027Y-138336373D01*
X230870423Y-138160423D01*
X230914513Y-138106699D01*
X232086708Y-136934505D01*
X232140422Y-136890423D01*
X232184505Y-136836708D01*
X232184512Y-136836701D01*
X232316373Y-136676028D01*
X232447115Y-136431426D01*
X232447116Y-136431425D01*
X232527627Y-136166016D01*
X232548000Y-135959164D01*
X232548000Y-135959155D01*
X232554811Y-135890001D01*
X232548000Y-135820847D01*
X232548000Y-135393000D01*
X232975846Y-135393000D01*
X233045000Y-135399811D01*
X233114154Y-135393000D01*
X233114164Y-135393000D01*
X233321016Y-135372627D01*
X233586425Y-135292116D01*
X233831027Y-135161373D01*
X234045423Y-134985423D01*
X234089513Y-134931699D01*
X235896765Y-133124447D01*
X236083205Y-133087362D01*
X236394041Y-132958610D01*
X236673786Y-132771690D01*
X236911690Y-132533786D01*
X237098610Y-132254041D01*
X237227362Y-131943205D01*
X237293000Y-131613223D01*
X237293000Y-131276777D01*
X237227362Y-130946795D01*
X237098610Y-130635959D01*
X236911690Y-130356214D01*
X236673786Y-130118310D01*
X236394041Y-129931390D01*
X236083205Y-129802638D01*
X235753223Y-129737000D01*
X235416777Y-129737000D01*
X235086795Y-129802638D01*
X234775959Y-129931390D01*
X234496214Y-130118310D01*
X234258310Y-130356214D01*
X234071390Y-130635959D01*
X233942638Y-130946795D01*
X233905553Y-131133235D01*
X232461788Y-132577000D01*
X231963102Y-132577000D01*
X231911147Y-132542285D01*
X231614870Y-132419563D01*
X231300344Y-132357000D01*
X230979656Y-132357000D01*
X230665130Y-132419563D01*
X230368853Y-132542285D01*
X230102211Y-132720450D01*
X229875450Y-132947211D01*
X229697285Y-133213853D01*
X229574563Y-133510130D01*
X229512000Y-133824656D01*
X229512000Y-134145344D01*
X229574563Y-134459870D01*
X229697285Y-134756147D01*
X229732001Y-134808102D01*
X229732000Y-135306787D01*
X229286788Y-135752000D01*
X222388000Y-135752000D01*
X222388000Y-135015954D01*
X225099757Y-135015954D01*
X225139355Y-135337223D01*
X225420851Y-135490850D01*
X225726909Y-135586607D01*
X226045767Y-135620815D01*
X226365172Y-135592160D01*
X226672850Y-135501742D01*
X226956976Y-135353037D01*
X226980645Y-135337223D01*
X227020243Y-135015954D01*
X226060000Y-134055711D01*
X225099757Y-135015954D01*
X222388000Y-135015954D01*
X222388000Y-134808102D01*
X222422715Y-134756147D01*
X222545437Y-134459870D01*
X222608000Y-134145344D01*
X222608000Y-133824656D01*
X222545437Y-133510130D01*
X222422715Y-133213853D01*
X222244550Y-132947211D01*
X222017789Y-132720450D01*
X221751147Y-132542285D01*
X221454870Y-132419563D01*
X221140344Y-132357000D01*
X220819656Y-132357000D01*
X220505130Y-132419563D01*
X220208853Y-132542285D01*
X219942211Y-132720450D01*
X219715450Y-132947211D01*
X219537285Y-133213853D01*
X219414563Y-133510130D01*
X219352000Y-133824656D01*
X219352000Y-134145344D01*
X219414563Y-134459870D01*
X219537285Y-134756147D01*
X219572001Y-134808103D01*
X219572000Y-135752000D01*
X212673213Y-135752000D01*
X212228000Y-135306788D01*
X212228000Y-135015954D01*
X214939757Y-135015954D01*
X214979355Y-135337223D01*
X215260851Y-135490850D01*
X215566909Y-135586607D01*
X215885767Y-135620815D01*
X216205172Y-135592160D01*
X216512850Y-135501742D01*
X216796976Y-135353037D01*
X216820645Y-135337223D01*
X216860243Y-135015954D01*
X215900000Y-134055711D01*
X214939757Y-135015954D01*
X212228000Y-135015954D01*
X212228000Y-134808102D01*
X212262715Y-134756147D01*
X212385437Y-134459870D01*
X212448000Y-134145344D01*
X212448000Y-133970767D01*
X214264185Y-133970767D01*
X214292840Y-134290172D01*
X214383258Y-134597850D01*
X214531963Y-134881976D01*
X214547777Y-134905645D01*
X214869046Y-134945243D01*
X215829289Y-133985000D01*
X215970711Y-133985000D01*
X216930954Y-134945243D01*
X217252223Y-134905645D01*
X217405850Y-134624149D01*
X217501607Y-134318091D01*
X217535815Y-133999233D01*
X217507160Y-133679828D01*
X217416742Y-133372150D01*
X217268037Y-133088024D01*
X217252223Y-133064355D01*
X216930954Y-133024757D01*
X215970711Y-133985000D01*
X215829289Y-133985000D01*
X214869046Y-133024757D01*
X214547777Y-133064355D01*
X214394150Y-133345851D01*
X214298393Y-133651909D01*
X214264185Y-133970767D01*
X212448000Y-133970767D01*
X212448000Y-133824656D01*
X212385437Y-133510130D01*
X212262715Y-133213853D01*
X212228000Y-133161898D01*
X212228000Y-132954046D01*
X214939757Y-132954046D01*
X215900000Y-133914289D01*
X216860243Y-132954046D01*
X216820645Y-132632777D01*
X216539149Y-132479150D01*
X216233091Y-132383393D01*
X215914233Y-132349185D01*
X215594828Y-132377840D01*
X215287150Y-132468258D01*
X215003024Y-132616963D01*
X214979355Y-132632777D01*
X214939757Y-132954046D01*
X212228000Y-132954046D01*
X212228000Y-130322423D01*
X212480040Y-130154015D01*
X212704015Y-129930040D01*
X212879991Y-129666673D01*
X213001205Y-129374036D01*
X213063000Y-129063374D01*
X213063000Y-128746626D01*
X213001205Y-128435964D01*
X212879991Y-128143327D01*
X212704015Y-127879960D01*
X212480040Y-127655985D01*
X212216673Y-127480009D01*
X211924036Y-127358795D01*
X211613374Y-127297000D01*
X211296626Y-127297000D01*
X210985964Y-127358795D01*
X210693327Y-127480009D01*
X210429960Y-127655985D01*
X210205985Y-127879960D01*
X210030009Y-128143327D01*
X209908795Y-128435964D01*
X209902828Y-128465960D01*
X209873298Y-128495490D01*
X209819578Y-128539577D01*
X209775492Y-128593296D01*
X209775488Y-128593300D01*
X209643627Y-128753973D01*
X209512885Y-128998575D01*
X209432374Y-129263984D01*
X209405189Y-129540000D01*
X209412001Y-129609164D01*
X209412001Y-130274662D01*
X209317789Y-130180450D01*
X209051147Y-130002285D01*
X208754870Y-129879563D01*
X208440344Y-129817000D01*
X208119656Y-129817000D01*
X207805130Y-129879563D01*
X207508853Y-130002285D01*
X207456898Y-130037000D01*
X204418213Y-130037000D01*
X203973000Y-129591788D01*
X203973000Y-124665096D01*
X204060488Y-124771700D01*
X204060492Y-124771704D01*
X204104578Y-124825423D01*
X204158296Y-124869509D01*
X205330491Y-126041704D01*
X205374577Y-126095423D01*
X205428296Y-126139509D01*
X205428299Y-126139512D01*
X205588972Y-126271373D01*
X205719715Y-126341256D01*
X205833575Y-126402116D01*
X206098984Y-126482627D01*
X206305836Y-126503000D01*
X206305845Y-126503000D01*
X206374999Y-126509811D01*
X206444153Y-126503000D01*
X211506788Y-126503000D01*
X216862373Y-131858586D01*
X216874563Y-131919870D01*
X216997285Y-132216147D01*
X217175450Y-132482789D01*
X217402211Y-132709550D01*
X217668853Y-132887715D01*
X217965130Y-133010437D01*
X218279656Y-133073000D01*
X218600344Y-133073000D01*
X218914870Y-133010437D01*
X219211147Y-132887715D01*
X219477789Y-132709550D01*
X219704550Y-132482789D01*
X219882715Y-132216147D01*
X220005437Y-131919870D01*
X220068000Y-131605344D01*
X220068000Y-131284656D01*
X220005437Y-130970130D01*
X219882715Y-130673853D01*
X219704550Y-130407211D01*
X219477789Y-130180450D01*
X219211147Y-130002285D01*
X218914870Y-129879563D01*
X218853586Y-129867373D01*
X213584212Y-124598000D01*
X214681788Y-124598000D01*
X222475487Y-132391699D01*
X222519577Y-132445423D01*
X222573300Y-132489512D01*
X222733972Y-132621373D01*
X222839697Y-132677884D01*
X222978575Y-132752116D01*
X223243984Y-132832627D01*
X223450836Y-132853000D01*
X223450846Y-132853000D01*
X223520000Y-132859811D01*
X223589154Y-132853000D01*
X224881257Y-132853000D01*
X224869272Y-132864985D01*
X225029044Y-133024757D01*
X224707777Y-133064355D01*
X224554150Y-133345851D01*
X224458393Y-133651909D01*
X224424185Y-133970767D01*
X224452840Y-134290172D01*
X224543258Y-134597850D01*
X224691963Y-134881976D01*
X224707777Y-134905645D01*
X225029046Y-134945243D01*
X225989289Y-133985000D01*
X225975147Y-133970858D01*
X226045858Y-133900147D01*
X226060000Y-133914289D01*
X226074142Y-133900147D01*
X226144853Y-133970858D01*
X226130711Y-133985000D01*
X227090954Y-134945243D01*
X227412223Y-134905645D01*
X227565850Y-134624149D01*
X227661607Y-134318091D01*
X227695815Y-133999233D01*
X227667160Y-133679828D01*
X227576742Y-133372150D01*
X227428037Y-133088024D01*
X227412223Y-133064355D01*
X227090956Y-133024757D01*
X227250728Y-132864985D01*
X227238743Y-132853000D01*
X227776898Y-132853000D01*
X227828853Y-132887715D01*
X228125130Y-133010437D01*
X228439656Y-133073000D01*
X228760344Y-133073000D01*
X229074870Y-133010437D01*
X229371147Y-132887715D01*
X229637789Y-132709550D01*
X229864550Y-132482789D01*
X230042715Y-132216147D01*
X230165437Y-131919870D01*
X230228000Y-131605344D01*
X230228000Y-131284656D01*
X230165437Y-130970130D01*
X230042715Y-130673853D01*
X229864550Y-130407211D01*
X229637789Y-130180450D01*
X229371147Y-130002285D01*
X229074870Y-129879563D01*
X228760344Y-129817000D01*
X228439656Y-129817000D01*
X228125130Y-129879563D01*
X227828853Y-130002285D01*
X227776898Y-130037000D01*
X224103212Y-130037000D01*
X222445331Y-128379119D01*
X222640040Y-128249019D01*
X222864015Y-128025044D01*
X223039991Y-127761677D01*
X223161205Y-127469040D01*
X223223000Y-127158378D01*
X223223000Y-126841630D01*
X223161205Y-126530968D01*
X223039991Y-126238331D01*
X222864015Y-125974964D01*
X222640040Y-125750989D01*
X222376673Y-125575013D01*
X222084036Y-125453799D01*
X222054045Y-125447833D01*
X219357172Y-122750960D01*
X219351205Y-122720964D01*
X219339622Y-122693000D01*
X234608318Y-122693000D01*
X234631495Y-122712021D01*
X234928214Y-122870621D01*
X235250174Y-122968286D01*
X235501096Y-122993000D01*
X235668904Y-122993000D01*
X235919826Y-122968286D01*
X236241786Y-122870621D01*
X236538505Y-122712021D01*
X236561682Y-122693000D01*
X238427903Y-122693000D01*
X238585959Y-122798610D01*
X238896795Y-122927362D01*
X239083236Y-122964448D01*
X241797000Y-125678212D01*
X241797001Y-129334345D01*
X241759841Y-129364841D01*
X241646373Y-129503102D01*
X241562059Y-129660842D01*
X241510138Y-129832001D01*
X241492607Y-130010000D01*
X241492607Y-131610000D01*
X241510138Y-131787999D01*
X241562059Y-131959158D01*
X241646373Y-132116898D01*
X241759841Y-132255159D01*
X241821705Y-132305929D01*
X241691390Y-132500959D01*
X241562638Y-132811795D01*
X241497000Y-133141777D01*
X241497000Y-133478223D01*
X241562638Y-133808205D01*
X241691390Y-134119041D01*
X241797001Y-134277098D01*
X241797000Y-135185835D01*
X241797000Y-135186787D01*
X232733297Y-144250491D01*
X232679578Y-144294577D01*
X232635492Y-144348296D01*
X232635488Y-144348300D01*
X232503627Y-144508973D01*
X232372885Y-144753575D01*
X232292374Y-145018984D01*
X232265189Y-145295000D01*
X232272001Y-145364163D01*
X232272001Y-145605415D01*
X231964934Y-145912482D01*
X231723295Y-146274120D01*
X231556852Y-146675950D01*
X231472000Y-147102531D01*
X231472000Y-147537469D01*
X231556852Y-147964050D01*
X231723295Y-148365880D01*
X231964934Y-148727518D01*
X232272482Y-149035066D01*
X232634120Y-149276705D01*
X233035950Y-149443148D01*
X233462531Y-149528000D01*
X233897469Y-149528000D01*
X234324050Y-149443148D01*
X234725880Y-149276705D01*
X235087518Y-149035066D01*
X235395066Y-148727518D01*
X235636705Y-148365880D01*
X235803148Y-147964050D01*
X235876158Y-147597000D01*
X236552000Y-147597000D01*
X236552000Y-148709430D01*
X236586894Y-148884854D01*
X236655341Y-149050099D01*
X236754710Y-149198816D01*
X236881184Y-149325290D01*
X237029901Y-149424659D01*
X237195146Y-149493106D01*
X237370570Y-149528000D01*
X238483000Y-149528000D01*
X238710000Y-149301000D01*
X238710000Y-147370000D01*
X238810000Y-147370000D01*
X238810000Y-149301000D01*
X239037000Y-149528000D01*
X240149430Y-149528000D01*
X240324854Y-149493106D01*
X240490099Y-149424659D01*
X240638816Y-149325290D01*
X240765290Y-149198816D01*
X240864659Y-149050099D01*
X240933106Y-148884854D01*
X240968000Y-148709430D01*
X240968000Y-147597000D01*
X240741000Y-147370000D01*
X238810000Y-147370000D01*
X238710000Y-147370000D01*
X236779000Y-147370000D01*
X236552000Y-147597000D01*
X235876158Y-147597000D01*
X235888000Y-147537469D01*
X235888000Y-147102531D01*
X235803148Y-146675950D01*
X235636705Y-146274120D01*
X235407153Y-145930570D01*
X236552000Y-145930570D01*
X236552000Y-147043000D01*
X236779000Y-147270000D01*
X238710000Y-147270000D01*
X238710000Y-145339000D01*
X238810000Y-145339000D01*
X238810000Y-147270000D01*
X240741000Y-147270000D01*
X240968000Y-147043000D01*
X240968000Y-145930570D01*
X240933106Y-145755146D01*
X240864659Y-145589901D01*
X240765290Y-145441184D01*
X240638816Y-145314710D01*
X240490099Y-145215341D01*
X240324854Y-145146894D01*
X240149430Y-145112000D01*
X239037000Y-145112000D01*
X238810000Y-145339000D01*
X238710000Y-145339000D01*
X238483000Y-145112000D01*
X237370570Y-145112000D01*
X237195146Y-145146894D01*
X237029901Y-145215341D01*
X236881184Y-145314710D01*
X236754710Y-145441184D01*
X236655341Y-145589901D01*
X236586894Y-145755146D01*
X236552000Y-145930570D01*
X235407153Y-145930570D01*
X235395066Y-145912482D01*
X235224398Y-145741814D01*
X244151709Y-136814504D01*
X244205422Y-136770423D01*
X244249505Y-136716708D01*
X244249512Y-136716701D01*
X244381373Y-136556028D01*
X244512115Y-136311426D01*
X244512116Y-136311425D01*
X244592627Y-136046016D01*
X244613000Y-135839164D01*
X244613000Y-135839155D01*
X244619811Y-135770001D01*
X244613000Y-135700847D01*
X244613000Y-134277097D01*
X244718610Y-134119041D01*
X244847362Y-133808205D01*
X244913000Y-133478223D01*
X244913000Y-133141777D01*
X244847362Y-132811795D01*
X244718610Y-132500959D01*
X244588295Y-132305929D01*
X244650159Y-132255159D01*
X244763627Y-132116898D01*
X244847941Y-131959158D01*
X244899862Y-131787999D01*
X244917393Y-131610000D01*
X244917393Y-130010000D01*
X244899862Y-129832001D01*
X244847941Y-129660842D01*
X244763627Y-129503102D01*
X244650159Y-129364841D01*
X244613000Y-129334345D01*
X244613000Y-125164161D01*
X244619812Y-125095000D01*
X244613000Y-125025836D01*
X244610364Y-124999076D01*
X244972001Y-125360713D01*
X244972000Y-145605416D01*
X244664934Y-145912482D01*
X244423295Y-146274120D01*
X244256852Y-146675950D01*
X244172000Y-147102531D01*
X244172000Y-147537469D01*
X244256852Y-147964050D01*
X244423295Y-148365880D01*
X244664934Y-148727518D01*
X244972482Y-149035066D01*
X245334120Y-149276705D01*
X245735950Y-149443148D01*
X246162531Y-149528000D01*
X246597469Y-149528000D01*
X247024050Y-149443148D01*
X247425880Y-149276705D01*
X247787518Y-149035066D01*
X248095066Y-148727518D01*
X248336705Y-148365880D01*
X248503148Y-147964050D01*
X248576158Y-147597000D01*
X249252000Y-147597000D01*
X249252000Y-148709430D01*
X249286894Y-148884854D01*
X249355341Y-149050099D01*
X249454710Y-149198816D01*
X249581184Y-149325290D01*
X249729901Y-149424659D01*
X249895146Y-149493106D01*
X250070570Y-149528000D01*
X251183000Y-149528000D01*
X251410000Y-149301000D01*
X251410000Y-147370000D01*
X251510000Y-147370000D01*
X251510000Y-149301000D01*
X251737000Y-149528000D01*
X252849430Y-149528000D01*
X253024854Y-149493106D01*
X253190099Y-149424659D01*
X253338816Y-149325290D01*
X253465290Y-149198816D01*
X253564659Y-149050099D01*
X253633106Y-148884854D01*
X253668000Y-148709430D01*
X253668000Y-147597000D01*
X253441000Y-147370000D01*
X251510000Y-147370000D01*
X251410000Y-147370000D01*
X249479000Y-147370000D01*
X249252000Y-147597000D01*
X248576158Y-147597000D01*
X248588000Y-147537469D01*
X248588000Y-147102531D01*
X248503148Y-146675950D01*
X248336705Y-146274120D01*
X248107153Y-145930570D01*
X249252000Y-145930570D01*
X249252000Y-147043000D01*
X249479000Y-147270000D01*
X251410000Y-147270000D01*
X251410000Y-145339000D01*
X251510000Y-145339000D01*
X251510000Y-147270000D01*
X253441000Y-147270000D01*
X253668000Y-147043000D01*
X253668000Y-145930570D01*
X253633106Y-145755146D01*
X253564659Y-145589901D01*
X253465290Y-145441184D01*
X253338816Y-145314710D01*
X253190099Y-145215341D01*
X253024854Y-145146894D01*
X252849430Y-145112000D01*
X251737000Y-145112000D01*
X251510000Y-145339000D01*
X251410000Y-145339000D01*
X251183000Y-145112000D01*
X250070570Y-145112000D01*
X249895146Y-145146894D01*
X249729901Y-145215341D01*
X249581184Y-145314710D01*
X249454710Y-145441184D01*
X249355341Y-145589901D01*
X249286894Y-145755146D01*
X249252000Y-145930570D01*
X248107153Y-145930570D01*
X248095066Y-145912482D01*
X247788000Y-145605416D01*
X247788000Y-138072000D01*
X262587000Y-138072000D01*
X262587000Y-139184430D01*
X262621894Y-139359854D01*
X262690341Y-139525099D01*
X262789710Y-139673816D01*
X262916184Y-139800290D01*
X263064901Y-139899659D01*
X263230146Y-139968106D01*
X263405570Y-140003000D01*
X264518000Y-140003000D01*
X264745000Y-139776000D01*
X264745000Y-137845000D01*
X264845000Y-137845000D01*
X264845000Y-139776000D01*
X265072000Y-140003000D01*
X266184430Y-140003000D01*
X266359854Y-139968106D01*
X266525099Y-139899659D01*
X266673816Y-139800290D01*
X266800290Y-139673816D01*
X266899659Y-139525099D01*
X266968106Y-139359854D01*
X267003000Y-139184430D01*
X267003000Y-138072000D01*
X266776000Y-137845000D01*
X264845000Y-137845000D01*
X264745000Y-137845000D01*
X262814000Y-137845000D01*
X262587000Y-138072000D01*
X247788000Y-138072000D01*
X247788000Y-136405570D01*
X262587000Y-136405570D01*
X262587000Y-137518000D01*
X262814000Y-137745000D01*
X264745000Y-137745000D01*
X264745000Y-135814000D01*
X264845000Y-135814000D01*
X264845000Y-137745000D01*
X266776000Y-137745000D01*
X267003000Y-137518000D01*
X267003000Y-136405570D01*
X266968106Y-136230146D01*
X266899659Y-136064901D01*
X266800290Y-135916184D01*
X266673816Y-135789710D01*
X266525099Y-135690341D01*
X266359854Y-135621894D01*
X266184430Y-135587000D01*
X265072000Y-135587000D01*
X264845000Y-135814000D01*
X264745000Y-135814000D01*
X264518000Y-135587000D01*
X263405570Y-135587000D01*
X263230146Y-135621894D01*
X263064901Y-135690341D01*
X262916184Y-135789710D01*
X262789710Y-135916184D01*
X262690341Y-136064901D01*
X262621894Y-136230146D01*
X262587000Y-136405570D01*
X247788000Y-136405570D01*
X247788000Y-132497531D01*
X262587000Y-132497531D01*
X262587000Y-132932469D01*
X262671852Y-133359050D01*
X262838295Y-133760880D01*
X263079934Y-134122518D01*
X263387482Y-134430066D01*
X263749120Y-134671705D01*
X264150950Y-134838148D01*
X264577531Y-134923000D01*
X265012469Y-134923000D01*
X265439050Y-134838148D01*
X265840880Y-134671705D01*
X266202518Y-134430066D01*
X266510066Y-134122518D01*
X266751705Y-133760880D01*
X266918148Y-133359050D01*
X267003000Y-132932469D01*
X267003000Y-132497531D01*
X266918148Y-132070950D01*
X266751705Y-131669120D01*
X266510066Y-131307482D01*
X266203000Y-131000416D01*
X266203000Y-127787093D01*
X266219985Y-127761673D01*
X266341199Y-127469036D01*
X266402994Y-127158374D01*
X266402994Y-126841626D01*
X266341199Y-126530964D01*
X266219985Y-126238327D01*
X266044009Y-125974960D01*
X265820034Y-125750985D01*
X265556667Y-125575009D01*
X265264030Y-125453795D01*
X264953368Y-125392000D01*
X264636620Y-125392000D01*
X264325958Y-125453795D01*
X264033321Y-125575009D01*
X263769954Y-125750985D01*
X263545979Y-125974960D01*
X263370003Y-126238327D01*
X263248789Y-126530964D01*
X263186994Y-126841626D01*
X263186994Y-127158374D01*
X263248789Y-127469036D01*
X263370003Y-127761673D01*
X263387000Y-127787111D01*
X263387000Y-128339163D01*
X263387001Y-128339173D01*
X263387000Y-131000416D01*
X263079934Y-131307482D01*
X262838295Y-131669120D01*
X262671852Y-132070950D01*
X262587000Y-132497531D01*
X247788000Y-132497531D01*
X247788000Y-124846654D01*
X247794811Y-124777500D01*
X247788000Y-124708346D01*
X247788000Y-124708336D01*
X247767627Y-124501484D01*
X247687116Y-124236075D01*
X247687116Y-124236074D01*
X247556373Y-123991472D01*
X247424512Y-123830800D01*
X247380423Y-123777077D01*
X247326699Y-123732987D01*
X245195172Y-121601460D01*
X247876573Y-121601460D01*
X247883230Y-121634937D01*
X247983622Y-121954359D01*
X248144401Y-122248058D01*
X248359388Y-122504747D01*
X248620322Y-122714562D01*
X248917175Y-122869440D01*
X249238540Y-122963429D01*
X249505000Y-122765270D01*
X249505000Y-121335000D01*
X249605000Y-121335000D01*
X249605000Y-122765270D01*
X249871460Y-122963429D01*
X250192825Y-122869440D01*
X250489678Y-122714562D01*
X250750612Y-122504747D01*
X250965599Y-122248058D01*
X251126378Y-121954359D01*
X251226770Y-121634937D01*
X251233427Y-121601460D01*
X251035156Y-121335000D01*
X249605000Y-121335000D01*
X249505000Y-121335000D01*
X248074844Y-121335000D01*
X247876573Y-121601460D01*
X245195172Y-121601460D01*
X244562252Y-120968540D01*
X247876573Y-120968540D01*
X248074844Y-121235000D01*
X249505000Y-121235000D01*
X249505000Y-119804730D01*
X249605000Y-119804730D01*
X249605000Y-121235000D01*
X251035156Y-121235000D01*
X251233427Y-120968540D01*
X251226770Y-120935063D01*
X251126378Y-120615641D01*
X250965599Y-120321942D01*
X250750612Y-120065253D01*
X250489678Y-119855438D01*
X250192825Y-119700560D01*
X249871460Y-119606571D01*
X249605000Y-119804730D01*
X249505000Y-119804730D01*
X249238540Y-119606571D01*
X248917175Y-119700560D01*
X248620322Y-119855438D01*
X248359388Y-120065253D01*
X248144401Y-120321942D01*
X247983622Y-120615641D01*
X247883230Y-120935063D01*
X247876573Y-120968540D01*
X244562252Y-120968540D01*
X242027011Y-118433299D01*
X241982923Y-118379577D01*
X241768527Y-118203627D01*
X241523925Y-118072884D01*
X241258516Y-117992373D01*
X241051664Y-117972000D01*
X241051654Y-117972000D01*
X240982500Y-117965189D01*
X240913346Y-117972000D01*
X213308213Y-117972000D01*
X211229513Y-115893301D01*
X211185423Y-115839577D01*
X210971027Y-115663627D01*
X210726425Y-115532884D01*
X210461016Y-115452373D01*
X210254164Y-115432000D01*
X210254154Y-115432000D01*
X210185000Y-115425189D01*
X210115846Y-115432000D01*
X208990216Y-115432000D01*
X209113796Y-115281418D01*
X209277039Y-114976013D01*
X209377563Y-114644628D01*
X209411506Y-114300000D01*
X209377563Y-113955372D01*
X209277039Y-113623987D01*
X209113796Y-113318582D01*
X208894108Y-113050892D01*
X208868651Y-113030000D01*
X208894108Y-113009108D01*
X209113796Y-112741418D01*
X209277039Y-112436013D01*
X209377563Y-112104628D01*
X209380337Y-112076460D01*
X223981573Y-112076460D01*
X224062879Y-112367428D01*
X224212071Y-112667339D01*
X224416906Y-112932382D01*
X224669512Y-113152371D01*
X224960182Y-113318852D01*
X225277746Y-113425427D01*
X225610000Y-113468000D01*
X226010000Y-113468000D01*
X226010000Y-111810000D01*
X224179844Y-111810000D01*
X223981573Y-112076460D01*
X209380337Y-112076460D01*
X209411506Y-111760000D01*
X209377563Y-111415372D01*
X209277039Y-111083987D01*
X209113796Y-110778582D01*
X208990216Y-110628000D01*
X215195846Y-110628000D01*
X215265000Y-110634811D01*
X215334154Y-110628000D01*
X215334164Y-110628000D01*
X215541016Y-110607627D01*
X215806425Y-110527116D01*
X216051027Y-110396373D01*
X216265423Y-110220423D01*
X216309513Y-110166699D01*
X221291703Y-105184509D01*
X221345422Y-105140423D01*
X221389512Y-105086700D01*
X221521373Y-104926028D01*
X221652115Y-104681426D01*
X221652116Y-104681425D01*
X221732627Y-104416016D01*
X221753000Y-104209164D01*
X221753000Y-104209154D01*
X221759811Y-104140000D01*
X221753000Y-104070846D01*
X221753000Y-103710096D01*
X221840488Y-103816700D01*
X221840489Y-103816701D01*
X221884577Y-103870422D01*
X221938297Y-103914509D01*
X223110491Y-105086704D01*
X223154577Y-105140423D01*
X223208296Y-105184509D01*
X223208299Y-105184512D01*
X223368972Y-105316373D01*
X223474697Y-105372884D01*
X223613575Y-105447116D01*
X223878984Y-105527627D01*
X224085836Y-105548000D01*
X224085845Y-105548000D01*
X224154999Y-105554811D01*
X224224153Y-105548000D01*
X224379466Y-105548000D01*
X224232979Y-105726495D01*
X224074379Y-106023214D01*
X223976714Y-106345174D01*
X223943736Y-106680000D01*
X223976714Y-107014826D01*
X224074379Y-107336786D01*
X224232979Y-107633505D01*
X224446418Y-107893582D01*
X224515164Y-107950000D01*
X224446418Y-108006418D01*
X224232979Y-108266495D01*
X224074379Y-108563214D01*
X223976714Y-108885174D01*
X223943736Y-109220000D01*
X223976714Y-109554826D01*
X224074379Y-109876786D01*
X224232979Y-110173505D01*
X224446418Y-110433582D01*
X224522286Y-110495845D01*
X224416906Y-110587618D01*
X224212071Y-110852661D01*
X224062879Y-111152572D01*
X223981573Y-111443540D01*
X224179844Y-111710000D01*
X226010000Y-111710000D01*
X226010000Y-111690000D01*
X226110000Y-111690000D01*
X226110000Y-111710000D01*
X226130000Y-111710000D01*
X226130000Y-111810000D01*
X226110000Y-111810000D01*
X226110000Y-113468000D01*
X226510000Y-113468000D01*
X226842254Y-113425427D01*
X227159818Y-113318852D01*
X227450488Y-113152371D01*
X227509500Y-113100978D01*
X227509501Y-113830399D01*
X227492509Y-113855829D01*
X227371295Y-114148466D01*
X227309500Y-114459128D01*
X227309500Y-114775876D01*
X227371295Y-115086538D01*
X227492509Y-115379175D01*
X227668485Y-115642542D01*
X227892460Y-115866517D01*
X228155827Y-116042493D01*
X228448464Y-116163707D01*
X228759126Y-116225502D01*
X229075874Y-116225502D01*
X229386536Y-116163707D01*
X229679173Y-116042493D01*
X229942540Y-115866517D01*
X230166515Y-115642542D01*
X230342491Y-115379175D01*
X230463705Y-115086538D01*
X230525500Y-114775876D01*
X230525500Y-114459128D01*
X230463705Y-114148466D01*
X230342491Y-113855829D01*
X230325500Y-113830400D01*
X230325500Y-112146653D01*
X230332311Y-112077499D01*
X230325500Y-112008345D01*
X230325500Y-112008336D01*
X230305127Y-111801484D01*
X230224616Y-111536075D01*
X230148984Y-111394578D01*
X230093873Y-111291472D01*
X229962012Y-111130799D01*
X229962005Y-111130792D01*
X229917922Y-111077077D01*
X229864208Y-111032996D01*
X228165052Y-109333839D01*
X228176264Y-109220000D01*
X228143286Y-108885174D01*
X228045621Y-108563214D01*
X227887021Y-108266495D01*
X227673582Y-108006418D01*
X227604836Y-107950000D01*
X227673582Y-107893582D01*
X227887021Y-107633505D01*
X228045621Y-107336786D01*
X228143286Y-107014826D01*
X228176264Y-106680000D01*
X228143286Y-106345174D01*
X228045621Y-106023214D01*
X227887021Y-105726495D01*
X227673582Y-105466418D01*
X227604836Y-105410000D01*
X227673582Y-105353582D01*
X227887021Y-105093505D01*
X228045621Y-104796786D01*
X228143286Y-104474826D01*
X228176264Y-104140000D01*
X228143286Y-103805174D01*
X228045621Y-103483214D01*
X227887021Y-103186495D01*
X227740534Y-103008000D01*
X230934904Y-103008000D01*
X230774577Y-103139577D01*
X230730483Y-103193306D01*
X230193298Y-103730490D01*
X230139578Y-103774577D01*
X230095492Y-103828296D01*
X230095488Y-103828300D01*
X229963627Y-103988973D01*
X229832885Y-104233575D01*
X229752374Y-104498984D01*
X229725189Y-104775000D01*
X229732001Y-104844164D01*
X229732000Y-108515846D01*
X229725189Y-108585000D01*
X229732000Y-108654154D01*
X229732000Y-108654163D01*
X229752373Y-108861015D01*
X229832884Y-109126424D01*
X229832885Y-109126425D01*
X229963627Y-109371027D01*
X230095488Y-109531700D01*
X230095491Y-109531703D01*
X230139577Y-109585422D01*
X230193298Y-109629510D01*
X230730483Y-110166694D01*
X230774577Y-110220423D01*
X230959729Y-110372373D01*
X230988973Y-110396373D01*
X231233574Y-110527116D01*
X231297205Y-110546418D01*
X231498984Y-110607627D01*
X231705836Y-110628000D01*
X231705838Y-110628000D01*
X231775000Y-110634812D01*
X231844161Y-110628000D01*
X231999466Y-110628000D01*
X231852979Y-110806495D01*
X231694379Y-111103214D01*
X231596714Y-111425174D01*
X231563736Y-111760000D01*
X231596714Y-112094826D01*
X231694379Y-112416786D01*
X231852979Y-112713505D01*
X232066418Y-112973582D01*
X232326495Y-113187021D01*
X232623214Y-113345621D01*
X232945174Y-113443286D01*
X233196096Y-113468000D01*
X234163904Y-113468000D01*
X234414826Y-113443286D01*
X234736786Y-113345621D01*
X235033505Y-113187021D01*
X235056682Y-113168000D01*
X235515846Y-113168000D01*
X235585000Y-113174811D01*
X235654154Y-113168000D01*
X235654164Y-113168000D01*
X235861016Y-113147627D01*
X236126425Y-113067116D01*
X236371027Y-112936373D01*
X236585423Y-112760423D01*
X236629513Y-112706699D01*
X237259752Y-112076460D01*
X244936573Y-112076460D01*
X245017879Y-112367428D01*
X245167071Y-112667339D01*
X245371906Y-112932382D01*
X245624512Y-113152371D01*
X245915182Y-113318852D01*
X246232746Y-113425427D01*
X246565000Y-113468000D01*
X246965000Y-113468000D01*
X246965000Y-111810000D01*
X245134844Y-111810000D01*
X244936573Y-112076460D01*
X237259752Y-112076460D01*
X243788213Y-105548000D01*
X245334466Y-105548000D01*
X245187979Y-105726495D01*
X245029379Y-106023214D01*
X244931714Y-106345174D01*
X244898736Y-106680000D01*
X244931714Y-107014826D01*
X245029379Y-107336786D01*
X245187979Y-107633505D01*
X245401418Y-107893582D01*
X245470164Y-107950000D01*
X245401418Y-108006418D01*
X245187979Y-108266495D01*
X245029379Y-108563214D01*
X244931714Y-108885174D01*
X244898736Y-109220000D01*
X244931714Y-109554826D01*
X245029379Y-109876786D01*
X245187979Y-110173505D01*
X245401418Y-110433582D01*
X245477286Y-110495845D01*
X245371906Y-110587618D01*
X245167071Y-110852661D01*
X245017879Y-111152572D01*
X244936573Y-111443540D01*
X245134844Y-111710000D01*
X246965000Y-111710000D01*
X246965000Y-111690000D01*
X247065000Y-111690000D01*
X247065000Y-111710000D01*
X247085000Y-111710000D01*
X247085000Y-111810000D01*
X247065000Y-111810000D01*
X247065000Y-113468000D01*
X247465000Y-113468000D01*
X247797254Y-113425427D01*
X248114818Y-113318852D01*
X248147001Y-113300419D01*
X248147001Y-113830398D01*
X248130009Y-113855828D01*
X248008795Y-114148465D01*
X247947000Y-114459127D01*
X247947000Y-114775875D01*
X248008795Y-115086537D01*
X248130009Y-115379174D01*
X248305985Y-115642541D01*
X248529960Y-115866516D01*
X248793327Y-116042492D01*
X249085964Y-116163706D01*
X249115959Y-116169672D01*
X249462990Y-116516704D01*
X249507076Y-116570423D01*
X249560795Y-116614509D01*
X249560798Y-116614512D01*
X249721471Y-116746373D01*
X249852214Y-116816256D01*
X249966074Y-116877116D01*
X250231483Y-116957627D01*
X250438335Y-116978000D01*
X250438344Y-116978000D01*
X250507498Y-116984811D01*
X250576652Y-116978000D01*
X256470846Y-116978000D01*
X256540000Y-116984811D01*
X256609154Y-116978000D01*
X256609164Y-116978000D01*
X256816016Y-116957627D01*
X257081425Y-116877116D01*
X257326027Y-116746373D01*
X257540423Y-116570423D01*
X257584513Y-116516699D01*
X260933212Y-113168000D01*
X264084784Y-113168000D01*
X263961204Y-113318582D01*
X263797961Y-113623987D01*
X263697437Y-113955372D01*
X263663494Y-114300000D01*
X263697437Y-114644628D01*
X263797961Y-114976013D01*
X263961204Y-115281418D01*
X264180892Y-115549108D01*
X264206349Y-115570000D01*
X264180892Y-115590892D01*
X263961204Y-115858582D01*
X263797961Y-116163987D01*
X263697437Y-116495372D01*
X263663494Y-116840000D01*
X263697437Y-117184628D01*
X263797961Y-117516013D01*
X263961204Y-117821418D01*
X264180892Y-118089108D01*
X264206349Y-118110000D01*
X264180892Y-118130892D01*
X263961204Y-118398582D01*
X263797961Y-118703987D01*
X263697437Y-119035372D01*
X263663494Y-119380000D01*
X263697437Y-119724628D01*
X263797961Y-120056013D01*
X263961204Y-120361418D01*
X264180892Y-120629108D01*
X264206349Y-120650000D01*
X264180892Y-120670892D01*
X263961204Y-120938582D01*
X263797961Y-121243987D01*
X263697437Y-121575372D01*
X263663494Y-121920000D01*
X263697437Y-122264628D01*
X263797961Y-122596013D01*
X263961204Y-122901418D01*
X264180892Y-123169108D01*
X264448582Y-123388796D01*
X264753987Y-123552039D01*
X265085372Y-123652563D01*
X265343637Y-123678000D01*
X265516363Y-123678000D01*
X265774628Y-123652563D01*
X266106013Y-123552039D01*
X266411418Y-123388796D01*
X266679108Y-123169108D01*
X266700000Y-123143651D01*
X266720892Y-123169108D01*
X266988582Y-123388796D01*
X267293987Y-123552039D01*
X267625372Y-123652563D01*
X267883637Y-123678000D01*
X268056363Y-123678000D01*
X268314628Y-123652563D01*
X268646013Y-123552039D01*
X268951418Y-123388796D01*
X269219108Y-123169108D01*
X269438796Y-122901418D01*
X269602039Y-122596013D01*
X269702563Y-122264628D01*
X269736506Y-121920000D01*
X269702563Y-121575372D01*
X269602039Y-121243987D01*
X269438796Y-120938582D01*
X269219108Y-120670892D01*
X269193651Y-120650000D01*
X269219108Y-120629108D01*
X269438796Y-120361418D01*
X269602039Y-120056013D01*
X269702563Y-119724628D01*
X269736506Y-119380000D01*
X269702563Y-119035372D01*
X269602039Y-118703987D01*
X269438796Y-118398582D01*
X269219108Y-118130892D01*
X269193651Y-118110000D01*
X269219108Y-118089108D01*
X269438796Y-117821418D01*
X269602039Y-117516013D01*
X269702563Y-117184628D01*
X269736506Y-116840000D01*
X269702563Y-116495372D01*
X269602039Y-116163987D01*
X269438796Y-115858582D01*
X269219108Y-115590892D01*
X269193651Y-115570000D01*
X269219108Y-115549108D01*
X269438796Y-115281418D01*
X269602039Y-114976013D01*
X269702563Y-114644628D01*
X269736506Y-114300000D01*
X269702563Y-113955372D01*
X269602039Y-113623987D01*
X269438796Y-113318582D01*
X269219108Y-113050892D01*
X269193651Y-113030000D01*
X269219108Y-113009108D01*
X269438796Y-112741418D01*
X269602039Y-112436013D01*
X269702563Y-112104628D01*
X269736506Y-111760000D01*
X269702563Y-111415372D01*
X269602039Y-111083987D01*
X269438796Y-110778582D01*
X269219108Y-110510892D01*
X269193651Y-110490000D01*
X269219108Y-110469108D01*
X269438796Y-110201418D01*
X269602039Y-109896013D01*
X269702563Y-109564628D01*
X269736506Y-109220000D01*
X269702563Y-108875372D01*
X269602039Y-108543987D01*
X269438796Y-108238582D01*
X269219108Y-107970892D01*
X269193651Y-107950000D01*
X269219108Y-107929108D01*
X269438796Y-107661418D01*
X269602039Y-107356013D01*
X269702563Y-107024628D01*
X269736506Y-106680000D01*
X269702563Y-106335372D01*
X269602039Y-106003987D01*
X269438796Y-105698582D01*
X269219108Y-105430892D01*
X269193651Y-105410000D01*
X269219108Y-105389108D01*
X269438796Y-105121418D01*
X269602039Y-104816013D01*
X269702563Y-104484628D01*
X269736506Y-104140000D01*
X269702563Y-103795372D01*
X269602039Y-103463987D01*
X269438796Y-103158582D01*
X269219108Y-102890892D01*
X269193651Y-102870000D01*
X269219108Y-102849108D01*
X269438796Y-102581418D01*
X269602039Y-102276013D01*
X269702563Y-101944628D01*
X269736506Y-101600000D01*
X269702563Y-101255372D01*
X269602039Y-100923987D01*
X269438796Y-100618582D01*
X269219108Y-100350892D01*
X269188246Y-100325564D01*
X269199565Y-100316478D01*
X269421066Y-100052459D01*
X269586803Y-99750300D01*
X269690407Y-99421613D01*
X269697832Y-99384285D01*
X269500183Y-99110000D01*
X268020000Y-99110000D01*
X268020000Y-99130000D01*
X267920000Y-99130000D01*
X267920000Y-99110000D01*
X267900000Y-99110000D01*
X267900000Y-99010000D01*
X267920000Y-99010000D01*
X267920000Y-98990000D01*
X268020000Y-98990000D01*
X268020000Y-99010000D01*
X269500183Y-99010000D01*
X269697832Y-98735715D01*
X269690407Y-98698387D01*
X269586803Y-98369700D01*
X269421066Y-98067541D01*
X269199565Y-97803522D01*
X269188246Y-97794436D01*
X269219108Y-97769108D01*
X269438796Y-97501418D01*
X269602039Y-97196013D01*
X269702563Y-96864628D01*
X269736506Y-96520000D01*
X269702563Y-96175372D01*
X269602039Y-95843987D01*
X269438796Y-95538582D01*
X269219108Y-95270892D01*
X269193651Y-95250000D01*
X269219108Y-95229108D01*
X269438796Y-94961418D01*
X269602039Y-94656013D01*
X269702563Y-94324628D01*
X269736506Y-93980000D01*
X269702563Y-93635372D01*
X269602039Y-93303987D01*
X269438796Y-92998582D01*
X269219108Y-92730892D01*
X269193651Y-92710000D01*
X269219108Y-92689108D01*
X269438796Y-92421418D01*
X269602039Y-92116013D01*
X269702563Y-91784628D01*
X269736506Y-91440000D01*
X269702563Y-91095372D01*
X269602039Y-90763987D01*
X269438796Y-90458582D01*
X269219108Y-90190892D01*
X269193651Y-90170000D01*
X269219108Y-90149108D01*
X269438796Y-89881418D01*
X269602039Y-89576013D01*
X269702563Y-89244628D01*
X269736506Y-88900000D01*
X269702563Y-88555372D01*
X269602039Y-88223987D01*
X269438796Y-87918582D01*
X269219108Y-87650892D01*
X269193651Y-87630000D01*
X269219108Y-87609108D01*
X269438796Y-87341418D01*
X269602039Y-87036013D01*
X269702563Y-86704628D01*
X269736506Y-86360000D01*
X269702563Y-86015372D01*
X269602039Y-85683987D01*
X269438796Y-85378582D01*
X269219108Y-85110892D01*
X269193651Y-85090000D01*
X269219108Y-85069108D01*
X269438796Y-84801418D01*
X269602039Y-84496013D01*
X269702563Y-84164628D01*
X269736506Y-83820000D01*
X269702563Y-83475372D01*
X269602039Y-83143987D01*
X269438796Y-82838582D01*
X269219108Y-82570892D01*
X269193651Y-82550000D01*
X269219108Y-82529108D01*
X269438796Y-82261418D01*
X269602039Y-81956013D01*
X269702563Y-81624628D01*
X269736506Y-81280000D01*
X269702563Y-80935372D01*
X269602039Y-80603987D01*
X269438796Y-80298582D01*
X269219108Y-80030892D01*
X269193651Y-80010000D01*
X269219108Y-79989108D01*
X269438796Y-79721418D01*
X269602039Y-79416013D01*
X269702563Y-79084628D01*
X269736506Y-78740000D01*
X269702563Y-78395372D01*
X269602039Y-78063987D01*
X269438796Y-77758582D01*
X269219108Y-77490892D01*
X269193651Y-77470000D01*
X269219108Y-77449108D01*
X269438796Y-77181418D01*
X269602039Y-76876013D01*
X269702563Y-76544628D01*
X269736506Y-76200000D01*
X269702563Y-75855372D01*
X269602039Y-75523987D01*
X269438796Y-75218582D01*
X269219108Y-74950892D01*
X269193651Y-74930000D01*
X269219108Y-74909108D01*
X269438796Y-74641418D01*
X269602039Y-74336013D01*
X269702563Y-74004628D01*
X269736506Y-73660000D01*
X269702563Y-73315372D01*
X269602039Y-72983987D01*
X269438796Y-72678582D01*
X269219108Y-72410892D01*
X268951418Y-72191204D01*
X268646013Y-72027961D01*
X268314628Y-71927437D01*
X268056363Y-71902000D01*
X267883637Y-71902000D01*
X267625372Y-71927437D01*
X267293987Y-72027961D01*
X266988582Y-72191204D01*
X266963612Y-72211696D01*
X266925159Y-72164841D01*
X266786898Y-72051373D01*
X266629158Y-71967059D01*
X266457999Y-71915138D01*
X266280000Y-71897607D01*
X264580000Y-71897607D01*
X264402001Y-71915138D01*
X264230842Y-71967059D01*
X264073102Y-72051373D01*
X263934841Y-72164841D01*
X263821373Y-72303102D01*
X263737059Y-72460842D01*
X263685138Y-72632001D01*
X263667607Y-72810000D01*
X263667607Y-74510000D01*
X263685138Y-74687999D01*
X263737059Y-74859158D01*
X263821373Y-75016898D01*
X263934841Y-75155159D01*
X263981696Y-75193612D01*
X263961204Y-75218582D01*
X263797961Y-75523987D01*
X263697437Y-75855372D01*
X263663494Y-76200000D01*
X263697437Y-76544628D01*
X263797961Y-76876013D01*
X263961204Y-77181418D01*
X264180892Y-77449108D01*
X264206349Y-77470000D01*
X264180892Y-77490892D01*
X263961204Y-77758582D01*
X263797961Y-78063987D01*
X263697437Y-78395372D01*
X263663494Y-78740000D01*
X263697437Y-79084628D01*
X263797961Y-79416013D01*
X263961204Y-79721418D01*
X264180892Y-79989108D01*
X264206349Y-80010000D01*
X264180892Y-80030892D01*
X263961204Y-80298582D01*
X263797961Y-80603987D01*
X263697437Y-80935372D01*
X263663494Y-81280000D01*
X263697437Y-81624628D01*
X263797961Y-81956013D01*
X263961204Y-82261418D01*
X264180892Y-82529108D01*
X264206349Y-82550000D01*
X264180892Y-82570892D01*
X263961204Y-82838582D01*
X263797961Y-83143987D01*
X263697437Y-83475372D01*
X263663494Y-83820000D01*
X263697437Y-84164628D01*
X263797961Y-84496013D01*
X263961204Y-84801418D01*
X264180892Y-85069108D01*
X264211754Y-85094436D01*
X264200435Y-85103522D01*
X263978934Y-85367541D01*
X263813197Y-85669700D01*
X263709593Y-85998387D01*
X263702168Y-86035715D01*
X263899817Y-86310000D01*
X265380000Y-86310000D01*
X265380000Y-86290000D01*
X265480000Y-86290000D01*
X265480000Y-86310000D01*
X265500000Y-86310000D01*
X265500000Y-86410000D01*
X265480000Y-86410000D01*
X265480000Y-86430000D01*
X265380000Y-86430000D01*
X265380000Y-86410000D01*
X263899817Y-86410000D01*
X263702168Y-86684285D01*
X263709593Y-86721613D01*
X263813197Y-87050300D01*
X263978934Y-87352459D01*
X264200435Y-87616478D01*
X264211754Y-87625564D01*
X264180892Y-87650892D01*
X263961204Y-87918582D01*
X263797961Y-88223987D01*
X263697437Y-88555372D01*
X263663494Y-88900000D01*
X263697437Y-89244628D01*
X263797961Y-89576013D01*
X263961204Y-89881418D01*
X264180892Y-90149108D01*
X264206349Y-90170000D01*
X264180892Y-90190892D01*
X263961204Y-90458582D01*
X263797961Y-90763987D01*
X263697437Y-91095372D01*
X263663494Y-91440000D01*
X263697437Y-91784628D01*
X263797961Y-92116013D01*
X263961204Y-92421418D01*
X264180892Y-92689108D01*
X264206349Y-92710000D01*
X264180892Y-92730892D01*
X263961204Y-92998582D01*
X263797961Y-93303987D01*
X263697437Y-93635372D01*
X263663494Y-93980000D01*
X263697437Y-94324628D01*
X263797961Y-94656013D01*
X263961204Y-94961418D01*
X264180892Y-95229108D01*
X264206349Y-95250000D01*
X264180892Y-95270892D01*
X263961204Y-95538582D01*
X263797961Y-95843987D01*
X263697437Y-96175372D01*
X263663494Y-96520000D01*
X263697437Y-96864628D01*
X263797961Y-97196013D01*
X263961204Y-97501418D01*
X264180892Y-97769108D01*
X264206349Y-97790000D01*
X264180892Y-97810892D01*
X263961204Y-98078582D01*
X263797961Y-98383987D01*
X263697437Y-98715372D01*
X263663494Y-99060000D01*
X263697437Y-99404628D01*
X263797961Y-99736013D01*
X263961204Y-100041418D01*
X264180892Y-100309108D01*
X264206349Y-100330000D01*
X264180892Y-100350892D01*
X263961204Y-100618582D01*
X263797961Y-100923987D01*
X263697437Y-101255372D01*
X263663494Y-101600000D01*
X263697437Y-101944628D01*
X263797961Y-102276013D01*
X263961204Y-102581418D01*
X264180892Y-102849108D01*
X264206349Y-102870000D01*
X264180892Y-102890892D01*
X263961204Y-103158582D01*
X263797961Y-103463987D01*
X263697437Y-103795372D01*
X263663494Y-104140000D01*
X263697437Y-104484628D01*
X263797961Y-104816013D01*
X263961204Y-105121418D01*
X264084784Y-105272000D01*
X263473213Y-105272000D01*
X263028000Y-104826788D01*
X263028000Y-90239153D01*
X263034811Y-90169999D01*
X263028000Y-90100845D01*
X263028000Y-90100836D01*
X263007627Y-89893984D01*
X262927116Y-89628575D01*
X262800874Y-89392393D01*
X262796373Y-89383972D01*
X262664512Y-89223299D01*
X262664505Y-89223292D01*
X262620422Y-89169577D01*
X262566709Y-89125496D01*
X258219512Y-84778300D01*
X258175423Y-84724577D01*
X257961027Y-84548627D01*
X257716425Y-84417884D01*
X257451016Y-84337373D01*
X257244164Y-84317000D01*
X257244154Y-84317000D01*
X257175000Y-84310189D01*
X257105846Y-84317000D01*
X234898212Y-84317000D01*
X231913000Y-81331788D01*
X231913000Y-72973212D01*
X234626704Y-70259509D01*
X234680423Y-70215423D01*
X234724509Y-70161704D01*
X234724512Y-70161701D01*
X234856373Y-70001028D01*
X234987115Y-69756426D01*
X234987116Y-69756425D01*
X235067627Y-69491016D01*
X235088000Y-69284164D01*
X235088000Y-69284155D01*
X235094811Y-69215001D01*
X235088000Y-69145847D01*
X235088000Y-67697984D01*
X248952000Y-67697984D01*
X248952000Y-68192016D01*
X249048381Y-68676557D01*
X249237439Y-69132983D01*
X249511909Y-69543757D01*
X249861243Y-69893091D01*
X250272017Y-70167561D01*
X250728443Y-70356619D01*
X251212984Y-70453000D01*
X251707016Y-70453000D01*
X252191557Y-70356619D01*
X252647983Y-70167561D01*
X253058757Y-69893091D01*
X253408091Y-69543757D01*
X253682561Y-69132983D01*
X253871619Y-68676557D01*
X253968000Y-68192016D01*
X253968000Y-67697984D01*
X253871619Y-67213443D01*
X253682561Y-66757017D01*
X253408091Y-66346243D01*
X253058757Y-65996909D01*
X252647983Y-65722439D01*
X252191557Y-65533381D01*
X251707016Y-65437000D01*
X251212984Y-65437000D01*
X250728443Y-65533381D01*
X250272017Y-65722439D01*
X249861243Y-65996909D01*
X249511909Y-66346243D01*
X249237439Y-66757017D01*
X249048381Y-67213443D01*
X248952000Y-67697984D01*
X235088000Y-67697984D01*
X235088000Y-64204161D01*
X235094812Y-64135000D01*
X235088000Y-64065836D01*
X235067627Y-63858984D01*
X234987132Y-63593627D01*
X234987116Y-63593574D01*
X234856373Y-63348973D01*
X234680422Y-63134577D01*
X234626698Y-63090487D01*
X234089514Y-62553302D01*
X234045423Y-62499577D01*
X233831027Y-62323627D01*
X233586425Y-62192884D01*
X233321016Y-62112373D01*
X233114164Y-62092000D01*
X233114154Y-62092000D01*
X233045000Y-62085189D01*
X232975846Y-62092000D01*
X230574153Y-62092000D01*
X230504999Y-62085189D01*
X230435845Y-62092000D01*
X230435836Y-62092000D01*
X230228984Y-62112373D01*
X229963575Y-62192884D01*
X229849715Y-62253744D01*
X229718972Y-62323627D01*
X229558299Y-62455488D01*
X229558296Y-62455491D01*
X229504577Y-62499577D01*
X229460491Y-62553296D01*
X228288296Y-63725491D01*
X228234578Y-63769577D01*
X228190492Y-63823296D01*
X228190488Y-63823300D01*
X228103000Y-63929904D01*
X228103000Y-62934153D01*
X228109811Y-62864999D01*
X228103000Y-62795845D01*
X228103000Y-62795836D01*
X228082627Y-62588984D01*
X228002116Y-62323575D01*
X227871373Y-62078973D01*
X227855454Y-62059575D01*
X227739512Y-61918299D01*
X227739505Y-61918292D01*
X227695422Y-61864577D01*
X227641708Y-61820496D01*
X226308964Y-60487751D01*
X226360175Y-60503286D01*
X226695000Y-60536264D01*
X227029826Y-60503286D01*
X227351786Y-60405621D01*
X227648505Y-60247021D01*
X227908582Y-60033582D01*
X227965000Y-59964836D01*
X228021419Y-60033582D01*
X228281496Y-60247021D01*
X228578215Y-60405621D01*
X228900175Y-60503286D01*
X229235000Y-60536264D01*
X229569826Y-60503286D01*
X229891786Y-60405621D01*
X230188505Y-60247021D01*
X230448582Y-60033582D01*
X230510845Y-59957714D01*
X230602618Y-60063094D01*
X230867661Y-60267929D01*
X231167572Y-60417121D01*
X231458540Y-60498427D01*
X231725000Y-60300156D01*
X231725000Y-58470000D01*
X231825000Y-58470000D01*
X231825000Y-60300156D01*
X232091460Y-60498427D01*
X232382428Y-60417121D01*
X232682339Y-60267929D01*
X232947382Y-60063094D01*
X233167371Y-59810488D01*
X233333852Y-59519818D01*
X233440427Y-59202254D01*
X233483000Y-58870000D01*
X233483000Y-58470000D01*
X231825000Y-58470000D01*
X231725000Y-58470000D01*
X231705000Y-58470000D01*
X231705000Y-58370000D01*
X231725000Y-58370000D01*
X231725000Y-56539844D01*
X231825000Y-56539844D01*
X231825000Y-58370000D01*
X233483000Y-58370000D01*
X233483000Y-57970000D01*
X233440427Y-57637746D01*
X233333852Y-57320182D01*
X233167371Y-57029512D01*
X232947382Y-56776906D01*
X232682339Y-56572071D01*
X232382428Y-56422879D01*
X232091460Y-56341573D01*
X231825000Y-56539844D01*
X231725000Y-56539844D01*
X231458540Y-56341573D01*
X231167572Y-56422879D01*
X230867661Y-56572071D01*
X230643000Y-56745697D01*
X230643000Y-55314154D01*
X230649811Y-55245000D01*
X230643000Y-55175846D01*
X230643000Y-55175836D01*
X230622627Y-54968984D01*
X230542116Y-54703575D01*
X230480932Y-54589108D01*
X230411373Y-54458972D01*
X230279512Y-54298300D01*
X230279509Y-54298297D01*
X230235422Y-54244577D01*
X230181703Y-54200491D01*
X228374513Y-52393301D01*
X228330423Y-52339577D01*
X228284636Y-52302000D01*
X248137000Y-52302000D01*
X248137000Y-59218000D01*
X268753000Y-59218000D01*
X268753000Y-52302000D01*
X248137000Y-52302000D01*
X228284636Y-52302000D01*
X228116027Y-52163627D01*
X227871425Y-52032884D01*
X227606016Y-51952373D01*
X227399164Y-51932000D01*
X227399154Y-51932000D01*
X227330000Y-51925189D01*
X227260846Y-51932000D01*
X214336682Y-51932000D01*
X214313505Y-51912979D01*
X214016786Y-51754379D01*
X213694826Y-51656714D01*
X213443904Y-51632000D01*
X213276096Y-51632000D01*
X213025174Y-51656714D01*
X212703214Y-51754379D01*
X212406495Y-51912979D01*
X212383318Y-51932000D01*
X198540498Y-51932000D01*
X198466418Y-51871204D01*
X198161013Y-51707961D01*
X197829628Y-51607437D01*
X197571363Y-51582000D01*
X197398637Y-51582000D01*
X197140372Y-51607437D01*
X196808987Y-51707961D01*
X196503582Y-51871204D01*
X196478612Y-51891696D01*
X196440159Y-51844841D01*
X196301898Y-51731373D01*
X196144158Y-51647059D01*
X195972999Y-51595138D01*
X195795000Y-51577607D01*
X194095000Y-51577607D01*
X193917001Y-51595138D01*
X193745842Y-51647059D01*
X193588102Y-51731373D01*
X193449841Y-51844841D01*
X193336373Y-51983102D01*
X193252059Y-52140842D01*
X193200138Y-52312001D01*
X193182607Y-52490000D01*
X193182607Y-54190000D01*
X193200138Y-54367999D01*
X193252059Y-54539158D01*
X193336373Y-54696898D01*
X193449841Y-54835159D01*
X193496696Y-54873612D01*
X193476204Y-54898582D01*
X193312961Y-55203987D01*
X193212437Y-55535372D01*
X193178494Y-55880000D01*
X193212437Y-56224628D01*
X193312961Y-56556013D01*
X193476204Y-56861418D01*
X193695892Y-57129108D01*
X193726754Y-57154436D01*
X193715435Y-57163522D01*
X193493934Y-57427541D01*
X193328197Y-57729700D01*
X193224593Y-58058387D01*
X193217168Y-58095715D01*
X193414817Y-58370000D01*
X194895000Y-58370000D01*
X194895000Y-58350000D01*
X194995000Y-58350000D01*
X194995000Y-58370000D01*
X197435000Y-58370000D01*
X197435000Y-58350000D01*
X197535000Y-58350000D01*
X197535000Y-58370000D01*
X199015183Y-58370000D01*
X199212832Y-58095715D01*
X199205407Y-58058387D01*
X199101803Y-57729700D01*
X198936066Y-57427541D01*
X198818997Y-57288000D01*
X211952001Y-57288000D01*
X211952000Y-67612903D01*
X211846390Y-67770959D01*
X211717638Y-68081795D01*
X211652000Y-68411777D01*
X211652000Y-68748223D01*
X211717638Y-69078205D01*
X211846390Y-69389041D01*
X212033310Y-69668786D01*
X212271214Y-69906690D01*
X212550959Y-70093610D01*
X212861795Y-70222362D01*
X213191777Y-70288000D01*
X213528223Y-70288000D01*
X213858205Y-70222362D01*
X214169041Y-70093610D01*
X214448786Y-69906690D01*
X214686690Y-69668786D01*
X214873610Y-69389041D01*
X215002362Y-69078205D01*
X215068000Y-68748223D01*
X215068000Y-68411777D01*
X215002362Y-68081795D01*
X214873610Y-67770959D01*
X214768000Y-67612903D01*
X214768000Y-57288000D01*
X222609582Y-57288000D01*
X222569379Y-57363215D01*
X222471714Y-57685175D01*
X222447000Y-57936097D01*
X222447000Y-58903904D01*
X222471714Y-59154826D01*
X222569379Y-59476786D01*
X222727979Y-59773505D01*
X222747001Y-59796683D01*
X222747001Y-60255837D01*
X222740189Y-60325000D01*
X222767374Y-60601016D01*
X222847885Y-60866425D01*
X222978627Y-61111027D01*
X223110488Y-61271700D01*
X223110492Y-61271704D01*
X223154578Y-61325423D01*
X223208297Y-61369509D01*
X225287000Y-63448213D01*
X225287000Y-63991854D01*
X225132999Y-63945138D01*
X224955000Y-63927607D01*
X223355000Y-63927607D01*
X223177001Y-63945138D01*
X223005842Y-63997059D01*
X222848102Y-64081373D01*
X222709841Y-64194841D01*
X222596373Y-64333102D01*
X222512059Y-64490842D01*
X222469239Y-64632000D01*
X220042097Y-64632000D01*
X219884041Y-64526390D01*
X219573205Y-64397638D01*
X219243223Y-64332000D01*
X218906777Y-64332000D01*
X218576795Y-64397638D01*
X218265959Y-64526390D01*
X217986214Y-64713310D01*
X217748310Y-64951214D01*
X217561390Y-65230959D01*
X217432638Y-65541795D01*
X217367000Y-65871777D01*
X217367000Y-66208223D01*
X217432638Y-66538205D01*
X217561390Y-66849041D01*
X217748310Y-67128786D01*
X217986214Y-67366690D01*
X218265959Y-67553610D01*
X218576795Y-67682362D01*
X218906777Y-67748000D01*
X219243223Y-67748000D01*
X219573205Y-67682362D01*
X219884041Y-67553610D01*
X220042097Y-67448000D01*
X222469239Y-67448000D01*
X222512059Y-67589158D01*
X222596373Y-67746898D01*
X222709841Y-67885159D01*
X222848102Y-67998627D01*
X223005842Y-68082941D01*
X223177001Y-68134862D01*
X223355000Y-68152393D01*
X224955000Y-68152393D01*
X225132999Y-68134862D01*
X225287000Y-68088146D01*
X225287001Y-90891663D01*
X225273972Y-90898627D01*
X225113299Y-91030488D01*
X225113296Y-91030491D01*
X225059577Y-91074577D01*
X225015491Y-91128296D01*
X215951788Y-100192000D01*
X214578212Y-100192000D01*
X209959512Y-95573300D01*
X209915423Y-95519577D01*
X209755096Y-95388000D01*
X210667898Y-95388000D01*
X210693327Y-95404991D01*
X210985964Y-95526205D01*
X211296626Y-95588000D01*
X211613374Y-95588000D01*
X211924036Y-95526205D01*
X212216673Y-95404991D01*
X212480040Y-95229015D01*
X212704015Y-95005040D01*
X212879991Y-94741673D01*
X213001205Y-94449036D01*
X213063000Y-94138374D01*
X213063000Y-93821626D01*
X213001205Y-93510964D01*
X212879991Y-93218327D01*
X212704015Y-92954960D01*
X212480040Y-92730985D01*
X212216673Y-92555009D01*
X211924036Y-92433795D01*
X211613374Y-92372000D01*
X211296626Y-92372000D01*
X210985964Y-92433795D01*
X210693327Y-92555009D01*
X210667898Y-92572000D01*
X208990216Y-92572000D01*
X209113796Y-92421418D01*
X209277039Y-92116013D01*
X209377563Y-91784628D01*
X209411506Y-91440000D01*
X209377563Y-91095372D01*
X209277039Y-90763987D01*
X209113796Y-90458582D01*
X208894108Y-90190892D01*
X208868651Y-90170000D01*
X208894108Y-90149108D01*
X209113796Y-89881418D01*
X209277039Y-89576013D01*
X209364411Y-89287984D01*
X215297000Y-89287984D01*
X215297000Y-89782016D01*
X215393381Y-90266557D01*
X215582439Y-90722983D01*
X215856909Y-91133757D01*
X216206243Y-91483091D01*
X216617017Y-91757561D01*
X217073443Y-91946619D01*
X217557984Y-92043000D01*
X218052016Y-92043000D01*
X218536557Y-91946619D01*
X218992983Y-91757561D01*
X219403757Y-91483091D01*
X219753091Y-91133757D01*
X220027561Y-90722983D01*
X220216619Y-90266557D01*
X220313000Y-89782016D01*
X220313000Y-89287984D01*
X220216619Y-88803443D01*
X220027561Y-88347017D01*
X219753091Y-87936243D01*
X219403757Y-87586909D01*
X218992983Y-87312439D01*
X218536557Y-87123381D01*
X218052016Y-87027000D01*
X217557984Y-87027000D01*
X217073443Y-87123381D01*
X216617017Y-87312439D01*
X216206243Y-87586909D01*
X215856909Y-87936243D01*
X215582439Y-88347017D01*
X215393381Y-88803443D01*
X215297000Y-89287984D01*
X209364411Y-89287984D01*
X209377563Y-89244628D01*
X209411506Y-88900000D01*
X209377563Y-88555372D01*
X209277039Y-88223987D01*
X209113796Y-87918582D01*
X208894108Y-87650892D01*
X208868651Y-87630000D01*
X208894108Y-87609108D01*
X209113796Y-87341418D01*
X209277039Y-87036013D01*
X209377563Y-86704628D01*
X209411506Y-86360000D01*
X209377563Y-86015372D01*
X209277039Y-85683987D01*
X209113796Y-85378582D01*
X208894108Y-85110892D01*
X208868651Y-85090000D01*
X208894108Y-85069108D01*
X209113796Y-84801418D01*
X209277039Y-84496013D01*
X209377563Y-84164628D01*
X209411506Y-83820000D01*
X209377563Y-83475372D01*
X209277039Y-83143987D01*
X209113796Y-82838582D01*
X208894108Y-82570892D01*
X208868651Y-82550000D01*
X208894108Y-82529108D01*
X209113796Y-82261418D01*
X209277039Y-81956013D01*
X209377563Y-81624628D01*
X209380337Y-81596460D01*
X217396571Y-81596460D01*
X217490560Y-81917825D01*
X217645438Y-82214678D01*
X217855253Y-82475612D01*
X218111942Y-82690599D01*
X218405641Y-82851378D01*
X218725063Y-82951770D01*
X218758540Y-82958427D01*
X219025000Y-82760156D01*
X219025000Y-81330000D01*
X219125000Y-81330000D01*
X219125000Y-82760156D01*
X219391460Y-82958427D01*
X219424937Y-82951770D01*
X219744359Y-82851378D01*
X220038058Y-82690599D01*
X220294747Y-82475612D01*
X220504562Y-82214678D01*
X220659440Y-81917825D01*
X220753429Y-81596460D01*
X220555270Y-81330000D01*
X219125000Y-81330000D01*
X219025000Y-81330000D01*
X217594730Y-81330000D01*
X217396571Y-81596460D01*
X209380337Y-81596460D01*
X209411506Y-81280000D01*
X209380338Y-80963540D01*
X217396571Y-80963540D01*
X217594730Y-81230000D01*
X219025000Y-81230000D01*
X219025000Y-79799844D01*
X219125000Y-79799844D01*
X219125000Y-81230000D01*
X220555270Y-81230000D01*
X220753429Y-80963540D01*
X220659440Y-80642175D01*
X220504562Y-80345322D01*
X220294747Y-80084388D01*
X220038058Y-79869401D01*
X219744359Y-79708622D01*
X219424937Y-79608230D01*
X219391460Y-79601573D01*
X219125000Y-79799844D01*
X219025000Y-79799844D01*
X218758540Y-79601573D01*
X218725063Y-79608230D01*
X218405641Y-79708622D01*
X218111942Y-79869401D01*
X217855253Y-80084388D01*
X217645438Y-80345322D01*
X217490560Y-80642175D01*
X217396571Y-80963540D01*
X209380338Y-80963540D01*
X209377563Y-80935372D01*
X209277039Y-80603987D01*
X209113796Y-80298582D01*
X208894108Y-80030892D01*
X208868651Y-80010000D01*
X208894108Y-79989108D01*
X209113796Y-79721418D01*
X209277039Y-79416013D01*
X209377563Y-79084628D01*
X209411506Y-78740000D01*
X209377563Y-78395372D01*
X209277039Y-78063987D01*
X209113796Y-77758582D01*
X208989764Y-77607448D01*
X209191016Y-77587627D01*
X209456425Y-77507116D01*
X209701027Y-77376373D01*
X209915423Y-77200423D01*
X209959513Y-77146699D01*
X211131704Y-75974509D01*
X211185423Y-75930423D01*
X211229509Y-75876704D01*
X211229512Y-75876701D01*
X211361373Y-75716028D01*
X211475574Y-75502373D01*
X211492116Y-75471425D01*
X211572627Y-75206016D01*
X211593000Y-74999164D01*
X211593000Y-74999155D01*
X211599811Y-74930001D01*
X211593000Y-74860847D01*
X211593000Y-71189154D01*
X211599811Y-71120000D01*
X211593000Y-71050846D01*
X211593000Y-71050836D01*
X211572627Y-70843984D01*
X211492116Y-70578575D01*
X211361374Y-70333974D01*
X211361373Y-70333972D01*
X211229512Y-70173300D01*
X211229509Y-70173297D01*
X211185422Y-70119577D01*
X211131703Y-70075491D01*
X209324513Y-68268301D01*
X209280423Y-68214577D01*
X209066027Y-68038627D01*
X208821425Y-67907884D01*
X208556016Y-67827373D01*
X208349164Y-67807000D01*
X208349154Y-67807000D01*
X208280000Y-67800189D01*
X208210846Y-67807000D01*
X201999161Y-67807000D01*
X201930000Y-67800188D01*
X201860839Y-67807000D01*
X201860836Y-67807000D01*
X201653984Y-67827373D01*
X201388575Y-67907884D01*
X201143972Y-68038627D01*
X200983300Y-68170487D01*
X200983296Y-68170491D01*
X200929577Y-68214577D01*
X200885491Y-68268296D01*
X195268297Y-73885491D01*
X195214578Y-73929577D01*
X195170492Y-73983296D01*
X195170488Y-73983300D01*
X195038627Y-74143973D01*
X194907885Y-74388575D01*
X194827374Y-74653984D01*
X194800189Y-74930000D01*
X194807001Y-74999164D01*
X194807000Y-104826788D01*
X190188297Y-109445491D01*
X190134578Y-109489577D01*
X190090492Y-109543296D01*
X190090488Y-109543300D01*
X189958627Y-109703973D01*
X189827885Y-109948575D01*
X189747374Y-110213984D01*
X189720189Y-110490000D01*
X188283000Y-110490000D01*
X188283000Y-58744285D01*
X193217168Y-58744285D01*
X193224593Y-58781613D01*
X193328197Y-59110300D01*
X193493934Y-59412459D01*
X193715435Y-59676478D01*
X193984187Y-59892211D01*
X194289863Y-60051368D01*
X194620715Y-60147833D01*
X194895000Y-59950290D01*
X194895000Y-58470000D01*
X194995000Y-58470000D01*
X194995000Y-59950290D01*
X195269285Y-60147833D01*
X195600137Y-60051368D01*
X195905813Y-59892211D01*
X196174565Y-59676478D01*
X196215000Y-59628281D01*
X196255435Y-59676478D01*
X196524187Y-59892211D01*
X196829863Y-60051368D01*
X197160715Y-60147833D01*
X197435000Y-59950290D01*
X197435000Y-58470000D01*
X197535000Y-58470000D01*
X197535000Y-59950290D01*
X197809285Y-60147833D01*
X198140137Y-60051368D01*
X198445813Y-59892211D01*
X198714565Y-59676478D01*
X198936066Y-59412459D01*
X199101803Y-59110300D01*
X199205407Y-58781613D01*
X199212832Y-58744285D01*
X199015183Y-58470000D01*
X197535000Y-58470000D01*
X197435000Y-58470000D01*
X194995000Y-58470000D01*
X194895000Y-58470000D01*
X193414817Y-58470000D01*
X193217168Y-58744285D01*
X188283000Y-58744285D01*
X188283000Y-48583000D01*
X272727000Y-48583000D01*
X272727001Y-165412000D01*
G36*
X224017000Y-160071788D02*
X222936788Y-161152000D01*
X220791004Y-161152000D01*
X220798106Y-161134854D01*
X220833000Y-160959430D01*
X220833000Y-160297000D01*
X220606000Y-160070000D01*
X219125000Y-160070000D01*
X219125000Y-160090000D01*
X219025000Y-160090000D01*
X219025000Y-160070000D01*
X219005000Y-160070000D01*
X219005000Y-159970000D01*
X219025000Y-159970000D01*
X219025000Y-159950000D01*
X219125000Y-159950000D01*
X219125000Y-159970000D01*
X220606000Y-159970000D01*
X220833000Y-159743000D01*
X220833000Y-159080570D01*
X220798106Y-158905146D01*
X220756951Y-158805789D01*
X220818506Y-158787116D01*
X221063108Y-158656373D01*
X221277504Y-158480423D01*
X221321594Y-158426699D01*
X224017000Y-155731293D01*
X224017000Y-160071788D01*
X224017000Y-160071788D01*
G37*
X224017000Y-160071788D02*
X222936788Y-161152000D01*
X220791004Y-161152000D01*
X220798106Y-161134854D01*
X220833000Y-160959430D01*
X220833000Y-160297000D01*
X220606000Y-160070000D01*
X219125000Y-160070000D01*
X219125000Y-160090000D01*
X219025000Y-160090000D01*
X219025000Y-160070000D01*
X219005000Y-160070000D01*
X219005000Y-159970000D01*
X219025000Y-159970000D01*
X219025000Y-159950000D01*
X219125000Y-159950000D01*
X219125000Y-159970000D01*
X220606000Y-159970000D01*
X220833000Y-159743000D01*
X220833000Y-159080570D01*
X220798106Y-158905146D01*
X220756951Y-158805789D01*
X220818506Y-158787116D01*
X221063108Y-158656373D01*
X221277504Y-158480423D01*
X221321594Y-158426699D01*
X224017000Y-155731293D01*
X224017000Y-160071788D01*
%TD*%
M02*
