M48
;DRILL file {KiCad (5.0.1)-4} date 01/10/2021 09:14:42
;FORMAT={-:-/ absolute / metric / decimal}
FMAT,2
METRIC,TZ
T1C0.800
T2C1.000
T3C1.300
T4C3.200
%
G90
G05
M71
T1
X199.39Y-144.78
X199.39Y-154.94
X211.455Y-93.98
X211.455Y-128.905
X212.09Y-140.97
X212.09Y-160.02
X217.805Y-104.14
X217.805Y-123.19
X221.615Y-127.
X222.885Y-160.02
X228.917Y-114.618
X238.76Y-160.02
X249.555Y-114.618
X264.795Y-127.
X243.205Y-130.81
X243.205Y-133.31
X226.06Y-96.52
X226.06Y-99.06
X226.06Y-101.6
X226.06Y-104.14
X226.06Y-106.68
X226.06Y-109.22
X226.06Y-111.76
X233.68Y-96.52
X233.68Y-99.06
X233.68Y-101.6
X233.68Y-104.14
X233.68Y-106.68
X233.68Y-109.22
X233.68Y-111.76
X215.9Y-133.985
X218.44Y-131.445
X220.98Y-133.985
X205.74Y-133.985
X208.28Y-131.445
X210.82Y-133.985
X247.015Y-96.52
X247.015Y-99.06
X247.015Y-101.6
X247.015Y-104.14
X247.015Y-106.68
X247.015Y-109.22
X247.015Y-111.76
X254.635Y-96.52
X254.635Y-99.06
X254.635Y-101.6
X254.635Y-104.14
X254.635Y-106.68
X254.635Y-109.22
X254.635Y-111.76
X239.395Y-121.285
X249.555Y-121.285
X226.06Y-133.985
X228.6Y-131.445
X231.14Y-133.985
X219.075Y-66.04
X219.075Y-81.28
X235.585Y-121.285
X235.585Y-131.445
X213.36Y-53.34
X213.36Y-68.58
X224.155Y-58.42
X224.155Y-66.04
X226.695Y-58.42
X226.695Y-66.04
X229.235Y-58.42
X229.235Y-66.04
X231.775Y-58.42
X231.775Y-66.04
T2
X229.235Y-87.63
X231.775Y-87.63
X234.315Y-87.63
X265.43Y-73.66
X265.43Y-76.2
X265.43Y-78.74
X265.43Y-81.28
X265.43Y-83.82
X265.43Y-86.36
X265.43Y-88.9
X265.43Y-91.44
X265.43Y-93.98
X265.43Y-96.52
X265.43Y-99.06
X265.43Y-101.6
X265.43Y-104.14
X265.43Y-106.68
X265.43Y-109.22
X265.43Y-111.76
X265.43Y-114.3
X265.43Y-116.84
X265.43Y-119.38
X265.43Y-121.92
X267.97Y-73.66
X267.97Y-76.2
X267.97Y-78.74
X267.97Y-81.28
X267.97Y-83.82
X267.97Y-86.36
X267.97Y-88.9
X267.97Y-91.44
X267.97Y-93.98
X267.97Y-96.52
X267.97Y-99.06
X267.97Y-101.6
X267.97Y-104.14
X267.97Y-106.68
X267.97Y-109.22
X267.97Y-111.76
X267.97Y-114.3
X267.97Y-116.84
X267.97Y-119.38
X267.97Y-121.92
X216.535Y-152.4
X216.535Y-154.94
X216.535Y-157.48
X216.535Y-160.02
X219.075Y-152.4
X219.075Y-154.94
X219.075Y-157.48
X219.075Y-160.02
X194.945Y-53.34
X194.945Y-55.88
X194.945Y-58.42
X197.485Y-53.34
X197.485Y-55.88
X197.485Y-58.42
X205.105Y-73.66
X205.105Y-76.2
X205.105Y-78.74
X205.105Y-81.28
X205.105Y-83.82
X205.105Y-86.36
X205.105Y-88.9
X205.105Y-91.44
X205.105Y-93.98
X205.105Y-96.52
X205.105Y-99.06
X205.105Y-101.6
X205.105Y-104.14
X205.105Y-106.68
X205.105Y-109.22
X205.105Y-111.76
X205.105Y-114.3
X205.105Y-116.84
X205.105Y-119.38
X205.105Y-121.92
X207.645Y-73.66
X207.645Y-76.2
X207.645Y-78.74
X207.645Y-81.28
X207.645Y-83.82
X207.645Y-86.36
X207.645Y-88.9
X207.645Y-91.44
X207.645Y-93.98
X207.645Y-96.52
X207.645Y-99.06
X207.645Y-101.6
X207.645Y-104.14
X207.645Y-106.68
X207.645Y-109.22
X207.645Y-111.76
X207.645Y-114.3
X207.645Y-116.84
X207.645Y-119.38
X207.645Y-121.92
T3
X246.38Y-147.32
X251.46Y-147.32
X264.795Y-132.715
X264.795Y-137.795
X233.68Y-147.32
X238.76Y-147.32
T4
X262.89Y-154.305
X217.805Y-89.535
X251.46Y-67.945
T0
M30
