%TF.GenerationSoftware,KiCad,Pcbnew,(5.1.6)-1*%
%TF.CreationDate,2021-02-01T21:39:40+01:00*%
%TF.ProjectId,carteDmx512,63617274-6544-46d7-9835-31322e6b6963,rev?*%
%TF.SameCoordinates,Original*%
%TF.FileFunction,Copper,L2,Bot*%
%TF.FilePolarity,Positive*%
%FSLAX46Y46*%
G04 Gerber Fmt 4.6, Leading zero omitted, Abs format (unit mm)*
G04 Created by KiCad (PCBNEW (5.1.6)-1) date 2021-02-01 21:39:40*
%MOMM*%
%LPD*%
G01*
G04 APERTURE LIST*
%TA.AperFunction,NonConductor*%
%ADD10C,0.300000*%
%TD*%
%TA.AperFunction,ComponentPad*%
%ADD11O,2.400000X1.600000*%
%TD*%
%TA.AperFunction,ComponentPad*%
%ADD12R,2.400000X1.600000*%
%TD*%
%TA.AperFunction,ComponentPad*%
%ADD13C,1.440000*%
%TD*%
%TA.AperFunction,ComponentPad*%
%ADD14O,1.600000X1.600000*%
%TD*%
%TA.AperFunction,ComponentPad*%
%ADD15C,1.600000*%
%TD*%
%TA.AperFunction,ComponentPad*%
%ADD16O,1.700000X1.700000*%
%TD*%
%TA.AperFunction,ComponentPad*%
%ADD17R,1.700000X1.700000*%
%TD*%
%TA.AperFunction,ViaPad*%
%ADD18C,1.400000*%
%TD*%
%TA.AperFunction,Conductor*%
%ADD19C,1.000000*%
%TD*%
%TA.AperFunction,Conductor*%
%ADD20C,0.254000*%
%TD*%
G04 APERTURE END LIST*
D10*
X116819285Y-161328571D02*
X117533571Y-161328571D01*
X117533571Y-159828571D01*
X116319285Y-160542857D02*
X115819285Y-160542857D01*
X115605000Y-161328571D02*
X116319285Y-161328571D01*
X116319285Y-159828571D01*
X115605000Y-159828571D01*
X114962142Y-160328571D02*
X114962142Y-161328571D01*
X114962142Y-160471428D02*
X114890714Y-160400000D01*
X114747857Y-160328571D01*
X114533571Y-160328571D01*
X114390714Y-160400000D01*
X114319285Y-160542857D01*
X114319285Y-161328571D01*
X113676428Y-161257142D02*
X113533571Y-161328571D01*
X113247857Y-161328571D01*
X113105000Y-161257142D01*
X113033571Y-161114285D01*
X113033571Y-161042857D01*
X113105000Y-160900000D01*
X113247857Y-160828571D01*
X113462142Y-160828571D01*
X113605000Y-160757142D01*
X113676428Y-160614285D01*
X113676428Y-160542857D01*
X113605000Y-160400000D01*
X113462142Y-160328571D01*
X113247857Y-160328571D01*
X113105000Y-160400000D01*
X112390714Y-160542857D02*
X111890714Y-160542857D01*
X111676428Y-161328571D02*
X112390714Y-161328571D01*
X112390714Y-159828571D01*
X111676428Y-159828571D01*
X108819285Y-159757142D02*
X110105000Y-161685714D01*
X107247857Y-159971428D02*
X107176428Y-159900000D01*
X107033571Y-159828571D01*
X106676428Y-159828571D01*
X106533571Y-159900000D01*
X106462142Y-159971428D01*
X106390714Y-160114285D01*
X106390714Y-160257142D01*
X106462142Y-160471428D01*
X107319285Y-161328571D01*
X106390714Y-161328571D01*
X105462142Y-159828571D02*
X105319285Y-159828571D01*
X105176428Y-159900000D01*
X105105000Y-159971428D01*
X105033571Y-160114285D01*
X104962142Y-160400000D01*
X104962142Y-160757142D01*
X105033571Y-161042857D01*
X105105000Y-161185714D01*
X105176428Y-161257142D01*
X105319285Y-161328571D01*
X105462142Y-161328571D01*
X105605000Y-161257142D01*
X105676428Y-161185714D01*
X105747857Y-161042857D01*
X105819285Y-160757142D01*
X105819285Y-160400000D01*
X105747857Y-160114285D01*
X105676428Y-159971428D01*
X105605000Y-159900000D01*
X105462142Y-159828571D01*
X104390714Y-159971428D02*
X104319285Y-159900000D01*
X104176428Y-159828571D01*
X103819285Y-159828571D01*
X103676428Y-159900000D01*
X103605000Y-159971428D01*
X103533571Y-160114285D01*
X103533571Y-160257142D01*
X103605000Y-160471428D01*
X104462142Y-161328571D01*
X103533571Y-161328571D01*
X102105000Y-161328571D02*
X102962142Y-161328571D01*
X102533571Y-161328571D02*
X102533571Y-159828571D01*
X102676428Y-160042857D01*
X102819285Y-160185714D01*
X102962142Y-160257142D01*
X113962142Y-163878571D02*
X113962142Y-162378571D01*
X113605000Y-162378571D01*
X113390714Y-162450000D01*
X113247857Y-162592857D01*
X113176428Y-162735714D01*
X113105000Y-163021428D01*
X113105000Y-163235714D01*
X113176428Y-163521428D01*
X113247857Y-163664285D01*
X113390714Y-163807142D01*
X113605000Y-163878571D01*
X113962142Y-163878571D01*
X112462142Y-163878571D02*
X112462142Y-162378571D01*
X111962142Y-163450000D01*
X111462142Y-162378571D01*
X111462142Y-163878571D01*
X110890714Y-162378571D02*
X109890714Y-163878571D01*
X109890714Y-162378571D02*
X110890714Y-163878571D01*
X108605000Y-162378571D02*
X109319285Y-162378571D01*
X109390714Y-163092857D01*
X109319285Y-163021428D01*
X109176428Y-162950000D01*
X108819285Y-162950000D01*
X108676428Y-163021428D01*
X108605000Y-163092857D01*
X108533571Y-163235714D01*
X108533571Y-163592857D01*
X108605000Y-163735714D01*
X108676428Y-163807142D01*
X108819285Y-163878571D01*
X109176428Y-163878571D01*
X109319285Y-163807142D01*
X109390714Y-163735714D01*
X107105000Y-163878571D02*
X107962142Y-163878571D01*
X107533571Y-163878571D02*
X107533571Y-162378571D01*
X107676428Y-162592857D01*
X107819285Y-162735714D01*
X107962142Y-162807142D01*
X106533571Y-162521428D02*
X106462142Y-162450000D01*
X106319285Y-162378571D01*
X105962142Y-162378571D01*
X105819285Y-162450000D01*
X105747857Y-162521428D01*
X105676428Y-162664285D01*
X105676428Y-162807142D01*
X105747857Y-163021428D01*
X106605000Y-163878571D01*
X105676428Y-163878571D01*
D11*
%TO.P,U3,8*%
%TO.N,5V*%
X82550000Y-170180000D03*
%TO.P,U3,4*%
%TO.N,DMX_TX*%
X90170000Y-162560000D03*
%TO.P,U3,7*%
%TO.N,Net-(J3-Pad1)*%
X82550000Y-167640000D03*
%TO.P,U3,3*%
%TO.N,enable*%
X90170000Y-165100000D03*
%TO.P,U3,6*%
%TO.N,Net-(J3-Pad3)*%
X82550000Y-165100000D03*
%TO.P,U3,2*%
%TO.N,5V*%
X90170000Y-167640000D03*
%TO.P,U3,5*%
%TO.N,GND*%
X82550000Y-162560000D03*
D12*
%TO.P,U3,1*%
%TO.N,Net-(R2-Pad1)*%
X90170000Y-170180000D03*
%TD*%
D13*
%TO.P,RV3,1*%
%TO.N,3.3V*%
X135890000Y-158750000D03*
%TO.P,RV3,2*%
%TO.N,AnInB*%
X133350000Y-161290000D03*
%TO.P,RV3,3*%
%TO.N,GND*%
X135890000Y-163830000D03*
%TD*%
%TO.P,RV2,1*%
%TO.N,3.3V*%
X135890000Y-147955000D03*
%TO.P,RV2,2*%
%TO.N,AnInG*%
X133350000Y-150495000D03*
%TO.P,RV2,3*%
%TO.N,GND*%
X135890000Y-153035000D03*
%TD*%
%TO.P,RV1,1*%
%TO.N,3.3V*%
X135890000Y-137160000D03*
%TO.P,RV1,2*%
%TO.N,AnInR*%
X133350000Y-139700000D03*
%TO.P,RV1,3*%
%TO.N,GND*%
X135890000Y-142240000D03*
%TD*%
D14*
%TO.P,R2,2*%
%TO.N,GND*%
X114935000Y-170180000D03*
D15*
%TO.P,R2,1*%
%TO.N,Net-(R2-Pad1)*%
X99695000Y-170180000D03*
%TD*%
D14*
%TO.P,R1,2*%
%TO.N,Net-(J3-Pad3)*%
X72390000Y-158750000D03*
D15*
%TO.P,R1,1*%
%TO.N,Net-(J3-Pad1)*%
X72390000Y-173990000D03*
%TD*%
D16*
%TO.P,J3,6*%
%TO.N,GND*%
X69850000Y-148590000D03*
%TO.P,J3,5*%
X72390000Y-148590000D03*
%TO.P,J3,4*%
%TO.N,Net-(J3-Pad3)*%
X69850000Y-151130000D03*
%TO.P,J3,3*%
X72390000Y-151130000D03*
%TO.P,J3,2*%
%TO.N,Net-(J3-Pad1)*%
X69850000Y-153670000D03*
D17*
%TO.P,J3,1*%
X72390000Y-153670000D03*
%TD*%
D16*
%TO.P,J2,3*%
%TO.N,Net-(J2-Pad3)*%
X71120000Y-130175000D03*
%TO.P,J2,2*%
%TO.N,DMX_TX*%
X71120000Y-132715000D03*
D17*
%TO.P,J2,1*%
%TO.N,Net-(J2-Pad1)*%
X71120000Y-135255000D03*
%TD*%
D16*
%TO.P,J1,20*%
%TO.N,AnInB*%
X119380000Y-153035000D03*
%TO.P,J1,19*%
X116840000Y-153035000D03*
%TO.P,J1,18*%
%TO.N,AnInG*%
X119380000Y-150495000D03*
%TO.P,J1,17*%
X116840000Y-150495000D03*
%TO.P,J1,16*%
%TO.N,AnInR*%
X119380000Y-147955000D03*
%TO.P,J1,15*%
X116840000Y-147955000D03*
%TO.P,J1,14*%
%TO.N,enable*%
X119380000Y-145415000D03*
%TO.P,J1,13*%
X116840000Y-145415000D03*
%TO.P,J1,12*%
%TO.N,out_s*%
X119380000Y-142875000D03*
%TO.P,J1,11*%
X116840000Y-142875000D03*
%TO.P,J1,10*%
%TO.N,start*%
X119380000Y-140335000D03*
%TO.P,J1,9*%
X116840000Y-140335000D03*
%TO.P,J1,8*%
%TO.N,TX*%
X119380000Y-137795000D03*
%TO.P,J1,7*%
X116840000Y-137795000D03*
%TO.P,J1,6*%
%TO.N,GND*%
X119380000Y-135255000D03*
%TO.P,J1,5*%
X116840000Y-135255000D03*
%TO.P,J1,4*%
%TO.N,3.3V*%
X119380000Y-132715000D03*
%TO.P,J1,3*%
X116840000Y-132715000D03*
%TO.P,J1,2*%
%TO.N,5V*%
X119380000Y-130175000D03*
D17*
%TO.P,J1,1*%
X116840000Y-130175000D03*
%TD*%
D12*
%TO.P,U1,1*%
%TO.N,out_s*%
X103505000Y-142875000D03*
D11*
%TO.P,U1,8*%
%TO.N,N/C*%
X95885000Y-127635000D03*
%TO.P,U1,2*%
%TO.N,start*%
X103505000Y-140335000D03*
%TO.P,U1,9*%
%TO.N,N/C*%
X95885000Y-130175000D03*
%TO.P,U1,3*%
%TO.N,Net-(U1-Pad3)*%
X103505000Y-137795000D03*
%TO.P,U1,10*%
%TO.N,N/C*%
X95885000Y-132715000D03*
%TO.P,U1,4*%
%TO.N,Net-(U1-Pad4)*%
X103505000Y-135255000D03*
%TO.P,U1,11*%
%TO.N,notstart*%
X95885000Y-135255000D03*
%TO.P,U1,5*%
%TO.N,TX*%
X103505000Y-132715000D03*
%TO.P,U1,12*%
%TO.N,start*%
X95885000Y-137795000D03*
%TO.P,U1,6*%
%TO.N,notstart*%
X103505000Y-130175000D03*
%TO.P,U1,13*%
%TO.N,start*%
X95885000Y-140335000D03*
%TO.P,U1,7*%
%TO.N,GND*%
X103505000Y-127635000D03*
%TO.P,U1,14*%
%TO.N,5V*%
X95885000Y-142875000D03*
%TD*%
%TO.P,U2,14*%
%TO.N,5V*%
X79375000Y-142875000D03*
%TO.P,U2,7*%
%TO.N,GND*%
X86995000Y-127635000D03*
%TO.P,U2,13*%
%TO.N,Net-(U2-Pad13)*%
X79375000Y-140335000D03*
%TO.P,U2,6*%
%TO.N,Net-(U1-Pad4)*%
X86995000Y-130175000D03*
%TO.P,U2,12*%
%TO.N,Net-(U1-Pad3)*%
X79375000Y-137795000D03*
%TO.P,U2,5*%
%TO.N,Net-(U1-Pad4)*%
X86995000Y-132715000D03*
%TO.P,U2,11*%
%TO.N,Net-(J2-Pad1)*%
X79375000Y-135255000D03*
%TO.P,U2,4*%
%TO.N,Net-(U2-Pad13)*%
X86995000Y-135255000D03*
%TO.P,U2,10*%
%TO.N,Net-(J2-Pad3)*%
X79375000Y-132715000D03*
%TO.P,U2,3*%
%TO.N,N/C*%
X86995000Y-137795000D03*
%TO.P,U2,9*%
%TO.N,Net-(J2-Pad1)*%
X79375000Y-130175000D03*
%TO.P,U2,2*%
%TO.N,N/C*%
X86995000Y-140335000D03*
%TO.P,U2,8*%
%TO.N,Net-(J2-Pad1)*%
X79375000Y-127635000D03*
D12*
%TO.P,U2,1*%
%TO.N,N/C*%
X86995000Y-142875000D03*
%TD*%
D18*
%TO.N,5V*%
X94615000Y-167640000D03*
X94615000Y-146050000D03*
%TO.N,Net-(U1-Pad3)*%
X107950000Y-137795000D03*
X107950000Y-147955000D03*
%TO.N,Net-(U1-Pad4)*%
X90805000Y-132715000D03*
X107950000Y-135255000D03*
X90805000Y-122555000D03*
X107950000Y-122555000D03*
%TD*%
D19*
%TO.N,AnInB*%
X119380000Y-153035000D02*
X116840000Y-153035000D01*
X125095000Y-153035000D02*
X119380000Y-153035000D01*
X133350000Y-161290000D02*
X125095000Y-153035000D01*
%TO.N,AnInG*%
X116840000Y-150495000D02*
X119380000Y-150495000D01*
X119380000Y-150495000D02*
X133350000Y-150495000D01*
%TO.N,AnInR*%
X116840000Y-147955000D02*
X119380000Y-147955000D01*
X133350000Y-140970000D02*
X133350000Y-139700000D01*
X119380000Y-147955000D02*
X126365000Y-147955000D01*
X126365000Y-147955000D02*
X133350000Y-140970000D01*
%TO.N,out_s*%
X119380000Y-142875000D02*
X116840000Y-142875000D01*
X103505000Y-142875000D02*
X116840000Y-142875000D01*
%TO.N,start*%
X116840000Y-140335000D02*
X119380000Y-140335000D01*
X103505000Y-140335000D02*
X95885000Y-140335000D01*
X95885000Y-137795000D02*
X95885000Y-140335000D01*
X116840000Y-140335000D02*
X103505000Y-140335000D01*
%TO.N,enable*%
X116840000Y-145415000D02*
X119380000Y-145415000D01*
X113030000Y-145415000D02*
X116840000Y-145415000D01*
X111760000Y-145415000D02*
X113030000Y-145415000D01*
X110490000Y-146685000D02*
X111760000Y-145415000D01*
X110490000Y-148590000D02*
X110490000Y-146685000D01*
X109220000Y-149860000D02*
X110490000Y-148590000D01*
X90170000Y-165100000D02*
X93345000Y-165100000D01*
X94615000Y-163830000D02*
X94615000Y-151130000D01*
X93345000Y-165100000D02*
X94615000Y-163830000D01*
X94615000Y-151130000D02*
X95885000Y-149860000D01*
X95885000Y-149860000D02*
X109220000Y-149860000D01*
%TO.N,TX*%
X116840000Y-137795000D02*
X119380000Y-137795000D01*
X108585000Y-132715000D02*
X103505000Y-132715000D01*
X116840000Y-137795000D02*
X113665000Y-137795000D01*
X113665000Y-137795000D02*
X108585000Y-132715000D01*
%TO.N,GND*%
X119380000Y-135255000D02*
X116840000Y-135255000D01*
X135890000Y-167640000D02*
X135890000Y-163830000D01*
X114935000Y-170180000D02*
X133350000Y-170180000D01*
X133350000Y-170180000D02*
X135890000Y-167640000D01*
X86995000Y-127635000D02*
X86995000Y-125095000D01*
X135890000Y-142240000D02*
X135890000Y-139700000D01*
X131445000Y-135255000D02*
X119380000Y-135255000D01*
X135890000Y-139700000D02*
X131445000Y-135255000D01*
X135890000Y-163830000D02*
X135890000Y-161290000D01*
X135890000Y-161290000D02*
X133985000Y-159385000D01*
X133985000Y-154940000D02*
X135890000Y-153035000D01*
X133985000Y-159385000D02*
X133985000Y-154940000D01*
X133985000Y-144145000D02*
X135890000Y-142240000D01*
X133985000Y-148590000D02*
X133985000Y-144145000D01*
X135890000Y-153035000D02*
X135890000Y-150495000D01*
X135890000Y-150495000D02*
X133985000Y-148590000D01*
X114300000Y-135255000D02*
X116840000Y-135255000D01*
X112395000Y-133350000D02*
X114300000Y-135255000D01*
X103505000Y-127635000D02*
X110490000Y-127635000D01*
X112395000Y-129540000D02*
X112395000Y-133350000D01*
X110490000Y-127635000D02*
X112395000Y-129540000D01*
X69215000Y-125095000D02*
X66675000Y-127635000D01*
X86995000Y-125095000D02*
X69215000Y-125095000D01*
X66675000Y-127635000D02*
X66675000Y-145415000D01*
X66675000Y-145415000D02*
X69850000Y-148590000D01*
X82550000Y-156845000D02*
X82550000Y-162560000D01*
X69850000Y-148590000D02*
X74295000Y-148590000D01*
X74295000Y-148590000D02*
X82550000Y-156845000D01*
X103505000Y-127000000D02*
X103505000Y-127635000D01*
X86995000Y-125095000D02*
X101600000Y-125095000D01*
X101600000Y-125095000D02*
X103505000Y-127000000D01*
%TO.N,3.3V*%
X119380000Y-132715000D02*
X116840000Y-132715000D01*
%TO.N,5V*%
X82550000Y-170180000D02*
X84455000Y-170180000D01*
X86995000Y-167640000D02*
X90170000Y-167640000D01*
X84455000Y-170180000D02*
X86995000Y-167640000D01*
X90170000Y-167640000D02*
X94615000Y-167640000D01*
X116840000Y-130175000D02*
X119380000Y-130175000D01*
X95885000Y-142875000D02*
X95885000Y-144780000D01*
X95885000Y-144780000D02*
X94615000Y-146050000D01*
X80750000Y-146050000D02*
X94615000Y-146050000D01*
X79375000Y-142875000D02*
X79375000Y-144675000D01*
X79375000Y-144675000D02*
X80750000Y-146050000D01*
X86360000Y-173990000D02*
X135890000Y-173990000D01*
X133350000Y-130175000D02*
X119380000Y-130175000D01*
X141605000Y-138430000D02*
X133350000Y-130175000D01*
X82550000Y-170180000D02*
X86360000Y-173990000D01*
X135890000Y-173990000D02*
X141605000Y-168275000D01*
X141605000Y-168275000D02*
X141605000Y-138430000D01*
%TO.N,3.3V*%
X135890000Y-137160000D02*
X137795000Y-137160000D01*
X137795000Y-137160000D02*
X139700000Y-139065000D01*
X139700000Y-139065000D02*
X139700000Y-147955000D01*
X139700000Y-147955000D02*
X135890000Y-147955000D01*
X135890000Y-158750000D02*
X137795000Y-158750000D01*
X137795000Y-158750000D02*
X139700000Y-156845000D01*
X139700000Y-156845000D02*
X139700000Y-148590000D01*
X139700000Y-148590000D02*
X139700000Y-147955000D01*
X131445000Y-132715000D02*
X135890000Y-137160000D01*
X119380000Y-132715000D02*
X131445000Y-132715000D01*
%TO.N,Net-(J2-Pad3)*%
X79375000Y-132715000D02*
X76835000Y-132715000D01*
X76835000Y-132715000D02*
X74295000Y-130175000D01*
X74295000Y-130175000D02*
X71120000Y-130175000D01*
%TO.N,DMX_TX*%
X90170000Y-160655000D02*
X90170000Y-162560000D01*
X68580000Y-139065000D02*
X90170000Y-160655000D01*
X68580000Y-133985000D02*
X68580000Y-139065000D01*
X71120000Y-132715000D02*
X69850000Y-132715000D01*
X69850000Y-132715000D02*
X68580000Y-133985000D01*
%TO.N,Net-(J2-Pad1)*%
X79375000Y-127635000D02*
X81915000Y-127635000D01*
X81915000Y-127635000D02*
X83185000Y-128905000D01*
X83185000Y-128905000D02*
X83185000Y-133985000D01*
X81915000Y-135255000D02*
X79375000Y-135255000D01*
X83185000Y-133985000D02*
X81915000Y-135255000D01*
X79375000Y-127635000D02*
X79375000Y-130175000D01*
X79375000Y-135255000D02*
X71120000Y-135255000D01*
%TO.N,Net-(J3-Pad3)*%
X72390000Y-158750000D02*
X75565000Y-158750000D01*
X72390000Y-151130000D02*
X69850000Y-151130000D01*
X75565000Y-152400000D02*
X75565000Y-158750000D01*
X72390000Y-151130000D02*
X74295000Y-151130000D01*
X74295000Y-151130000D02*
X75565000Y-152400000D01*
X75565000Y-163195000D02*
X75565000Y-158750000D01*
X82550000Y-165100000D02*
X77470000Y-165100000D01*
X77470000Y-165100000D02*
X75565000Y-163195000D01*
%TO.N,Net-(J3-Pad1)*%
X72390000Y-171450000D02*
X72390000Y-173990000D01*
X72390000Y-153670000D02*
X69850000Y-153670000D01*
X72390000Y-169545000D02*
X72390000Y-171450000D01*
X82550000Y-167640000D02*
X72390000Y-167640000D01*
X72390000Y-167640000D02*
X72390000Y-169545000D01*
X72390000Y-167640000D02*
X72390000Y-171450000D01*
X69850000Y-153670000D02*
X69850000Y-165100000D01*
X69850000Y-165100000D02*
X72390000Y-167640000D01*
%TO.N,Net-(R2-Pad1)*%
X99695000Y-170180000D02*
X90170000Y-170180000D01*
%TO.N,notstart*%
X95885000Y-135255000D02*
X97790000Y-135255000D01*
X97790000Y-135255000D02*
X99695000Y-133350000D01*
X99695000Y-133350000D02*
X99695000Y-131445000D01*
X100965000Y-130175000D02*
X103505000Y-130175000D01*
X99695000Y-131445000D02*
X100965000Y-130175000D01*
%TO.N,Net-(U1-Pad3)*%
X103505000Y-137795000D02*
X107950000Y-137795000D01*
X76200000Y-140970000D02*
X76200000Y-144145000D01*
X80010000Y-147955000D02*
X107950000Y-147955000D01*
X79375000Y-137795000D02*
X76200000Y-140970000D01*
X76200000Y-144145000D02*
X80010000Y-147955000D01*
%TO.N,Net-(U1-Pad4)*%
X86995000Y-130175000D02*
X86995000Y-132715000D01*
X86995000Y-132715000D02*
X90805000Y-132715000D01*
X103505000Y-135255000D02*
X107950000Y-135255000D01*
X90805000Y-122555000D02*
X91794949Y-122555000D01*
X91794949Y-122555000D02*
X107950000Y-122555000D01*
%TO.N,Net-(U2-Pad13)*%
X83185000Y-139065000D02*
X81915000Y-140335000D01*
X81915000Y-140335000D02*
X79375000Y-140335000D01*
X83185000Y-136525000D02*
X83185000Y-139065000D01*
X86995000Y-135255000D02*
X84455000Y-135255000D01*
X84455000Y-135255000D02*
X83185000Y-136525000D01*
%TD*%
D20*
%TO.N,GND*%
G36*
X142850001Y-175870000D02*
G01*
X64795000Y-175870000D01*
X64795000Y-148092015D01*
X68450988Y-148092015D01*
X68552152Y-148317000D01*
X69577000Y-148317000D01*
X69577000Y-147289049D01*
X70123000Y-147289049D01*
X70123000Y-148317000D01*
X72117000Y-148317000D01*
X72117000Y-147289049D01*
X72663000Y-147289049D01*
X72663000Y-148317000D01*
X73687848Y-148317000D01*
X73789012Y-148092015D01*
X73731388Y-147952871D01*
X73581316Y-147703421D01*
X73385462Y-147488042D01*
X73151353Y-147315011D01*
X72887986Y-147190977D01*
X72663000Y-147289049D01*
X72117000Y-147289049D01*
X71892014Y-147190977D01*
X71628647Y-147315011D01*
X71394538Y-147488042D01*
X71198684Y-147703421D01*
X71120000Y-147834210D01*
X71041316Y-147703421D01*
X70845462Y-147488042D01*
X70611353Y-147315011D01*
X70347986Y-147190977D01*
X70123000Y-147289049D01*
X69577000Y-147289049D01*
X69352014Y-147190977D01*
X69088647Y-147315011D01*
X68854538Y-147488042D01*
X68658684Y-147703421D01*
X68508612Y-147952871D01*
X68450988Y-148092015D01*
X64795000Y-148092015D01*
X64795000Y-133985000D01*
X67439509Y-133985000D01*
X67445000Y-134040752D01*
X67445001Y-139009239D01*
X67439509Y-139065000D01*
X67461423Y-139287498D01*
X67526324Y-139501446D01*
X67563960Y-139571857D01*
X67631717Y-139698623D01*
X67773552Y-139871449D01*
X67816860Y-139906991D01*
X89035000Y-161125132D01*
X89035000Y-161325736D01*
X88968899Y-161361068D01*
X88750392Y-161540392D01*
X88571068Y-161758899D01*
X88437818Y-162008192D01*
X88355764Y-162278691D01*
X88328057Y-162560000D01*
X88355764Y-162841309D01*
X88437818Y-163111808D01*
X88571068Y-163361101D01*
X88750392Y-163579608D01*
X88968899Y-163758932D01*
X89101858Y-163830000D01*
X88968899Y-163901068D01*
X88750392Y-164080392D01*
X88571068Y-164298899D01*
X88437818Y-164548192D01*
X88355764Y-164818691D01*
X88328057Y-165100000D01*
X88355764Y-165381309D01*
X88437818Y-165651808D01*
X88571068Y-165901101D01*
X88750392Y-166119608D01*
X88968899Y-166298932D01*
X89101858Y-166370000D01*
X88968899Y-166441068D01*
X88890998Y-166505000D01*
X87050741Y-166505000D01*
X86994999Y-166499510D01*
X86939257Y-166505000D01*
X86939248Y-166505000D01*
X86772501Y-166521423D01*
X86558553Y-166586324D01*
X86361377Y-166691716D01*
X86188551Y-166833551D01*
X86153009Y-166876859D01*
X83984869Y-169045000D01*
X83829002Y-169045000D01*
X83751101Y-168981068D01*
X83618142Y-168910000D01*
X83751101Y-168838932D01*
X83969608Y-168659608D01*
X84148932Y-168441101D01*
X84282182Y-168191808D01*
X84364236Y-167921309D01*
X84391943Y-167640000D01*
X84364236Y-167358691D01*
X84282182Y-167088192D01*
X84148932Y-166838899D01*
X83969608Y-166620392D01*
X83751101Y-166441068D01*
X83618142Y-166370000D01*
X83751101Y-166298932D01*
X83969608Y-166119608D01*
X84148932Y-165901101D01*
X84282182Y-165651808D01*
X84364236Y-165381309D01*
X84391943Y-165100000D01*
X84364236Y-164818691D01*
X84282182Y-164548192D01*
X84148932Y-164298899D01*
X83969608Y-164080392D01*
X83751101Y-163901068D01*
X83633093Y-163837991D01*
X83838983Y-163708791D01*
X84046019Y-163513285D01*
X84210936Y-163281145D01*
X84298741Y-163050023D01*
X84196710Y-162833000D01*
X82823000Y-162833000D01*
X82823000Y-162853000D01*
X82277000Y-162853000D01*
X82277000Y-162833000D01*
X80903290Y-162833000D01*
X80801259Y-163050023D01*
X80889064Y-163281145D01*
X81053981Y-163513285D01*
X81261017Y-163708791D01*
X81466907Y-163837991D01*
X81348899Y-163901068D01*
X81270998Y-163965000D01*
X77940132Y-163965000D01*
X76700000Y-162724869D01*
X76700000Y-162069977D01*
X80801259Y-162069977D01*
X80903290Y-162287000D01*
X82277000Y-162287000D01*
X82277000Y-161271725D01*
X82823000Y-161271725D01*
X82823000Y-162287000D01*
X84196710Y-162287000D01*
X84298741Y-162069977D01*
X84210936Y-161838855D01*
X84046019Y-161606715D01*
X83838983Y-161411209D01*
X83597783Y-161259851D01*
X83331690Y-161158457D01*
X83050928Y-161110923D01*
X82823000Y-161271725D01*
X82277000Y-161271725D01*
X82049072Y-161110923D01*
X81768310Y-161158457D01*
X81502217Y-161259851D01*
X81261017Y-161411209D01*
X81053981Y-161606715D01*
X80889064Y-161838855D01*
X80801259Y-162069977D01*
X76700000Y-162069977D01*
X76700000Y-158805752D01*
X76705491Y-158750000D01*
X76700000Y-158694248D01*
X76700000Y-152455743D01*
X76705490Y-152399999D01*
X76700000Y-152344255D01*
X76700000Y-152344248D01*
X76683577Y-152177501D01*
X76618676Y-151963553D01*
X76513284Y-151766377D01*
X76371449Y-151593551D01*
X76328140Y-151558008D01*
X75136996Y-150366865D01*
X75101449Y-150323551D01*
X74928623Y-150181716D01*
X74731447Y-150076324D01*
X74517499Y-150011423D01*
X74350752Y-149995000D01*
X74350751Y-149995000D01*
X74295000Y-149989509D01*
X74239249Y-149995000D01*
X73355107Y-149995000D01*
X73336632Y-149976525D01*
X73160067Y-149858548D01*
X73385462Y-149691958D01*
X73581316Y-149476579D01*
X73731388Y-149227129D01*
X73789012Y-149087985D01*
X73687848Y-148863000D01*
X72663000Y-148863000D01*
X72663000Y-148883000D01*
X72117000Y-148883000D01*
X72117000Y-148863000D01*
X70123000Y-148863000D01*
X70123000Y-148883000D01*
X69577000Y-148883000D01*
X69577000Y-148863000D01*
X68552152Y-148863000D01*
X68450988Y-149087985D01*
X68508612Y-149227129D01*
X68658684Y-149476579D01*
X68854538Y-149691958D01*
X69079933Y-149858548D01*
X68903368Y-149976525D01*
X68696525Y-150183368D01*
X68534010Y-150426589D01*
X68422068Y-150696842D01*
X68365000Y-150983740D01*
X68365000Y-151276260D01*
X68422068Y-151563158D01*
X68534010Y-151833411D01*
X68696525Y-152076632D01*
X68903368Y-152283475D01*
X69077760Y-152400000D01*
X68903368Y-152516525D01*
X68696525Y-152723368D01*
X68534010Y-152966589D01*
X68422068Y-153236842D01*
X68365000Y-153523740D01*
X68365000Y-153816260D01*
X68422068Y-154103158D01*
X68534010Y-154373411D01*
X68696525Y-154616632D01*
X68715000Y-154635107D01*
X68715001Y-165044239D01*
X68709509Y-165100000D01*
X68731423Y-165322498D01*
X68796324Y-165536446D01*
X68796325Y-165536447D01*
X68901717Y-165733623D01*
X69043552Y-165906449D01*
X69086860Y-165941991D01*
X71255000Y-168110132D01*
X71255000Y-169489249D01*
X71255001Y-171394239D01*
X71255000Y-171394249D01*
X71255001Y-173105715D01*
X71118320Y-173310273D01*
X71010147Y-173571426D01*
X70955000Y-173848665D01*
X70955000Y-174131335D01*
X71010147Y-174408574D01*
X71118320Y-174669727D01*
X71275363Y-174904759D01*
X71475241Y-175104637D01*
X71710273Y-175261680D01*
X71971426Y-175369853D01*
X72248665Y-175425000D01*
X72531335Y-175425000D01*
X72808574Y-175369853D01*
X73069727Y-175261680D01*
X73304759Y-175104637D01*
X73504637Y-174904759D01*
X73661680Y-174669727D01*
X73769853Y-174408574D01*
X73825000Y-174131335D01*
X73825000Y-173848665D01*
X73769853Y-173571426D01*
X73661680Y-173310273D01*
X73525000Y-173105716D01*
X73525000Y-168775000D01*
X81270998Y-168775000D01*
X81348899Y-168838932D01*
X81481858Y-168910000D01*
X81348899Y-168981068D01*
X81130392Y-169160392D01*
X80951068Y-169378899D01*
X80817818Y-169628192D01*
X80735764Y-169898691D01*
X80708057Y-170180000D01*
X80735764Y-170461309D01*
X80817818Y-170731808D01*
X80951068Y-170981101D01*
X81130392Y-171199608D01*
X81348899Y-171378932D01*
X81598192Y-171512182D01*
X81868691Y-171594236D01*
X82079508Y-171615000D01*
X82379869Y-171615000D01*
X85518013Y-174753146D01*
X85553551Y-174796449D01*
X85596854Y-174831987D01*
X85596856Y-174831989D01*
X85726377Y-174938284D01*
X85923553Y-175043676D01*
X86137501Y-175108577D01*
X86360000Y-175130491D01*
X86415752Y-175125000D01*
X135834249Y-175125000D01*
X135890000Y-175130491D01*
X135945751Y-175125000D01*
X135945752Y-175125000D01*
X136112499Y-175108577D01*
X136326447Y-175043676D01*
X136523623Y-174938284D01*
X136696449Y-174796449D01*
X136731996Y-174753135D01*
X142368146Y-169116987D01*
X142411449Y-169081449D01*
X142457361Y-169025506D01*
X142553284Y-168908623D01*
X142658676Y-168711447D01*
X142723577Y-168497499D01*
X142745491Y-168275000D01*
X142740000Y-168219248D01*
X142740000Y-138485751D01*
X142745491Y-138430000D01*
X142723577Y-138207501D01*
X142658676Y-137993553D01*
X142644188Y-137966448D01*
X142553284Y-137796377D01*
X142411449Y-137623551D01*
X142368141Y-137588009D01*
X134191996Y-129411865D01*
X134156449Y-129368551D01*
X133983623Y-129226716D01*
X133786447Y-129121324D01*
X133572499Y-129056423D01*
X133405752Y-129040000D01*
X133405751Y-129040000D01*
X133350000Y-129034509D01*
X133294249Y-129040000D01*
X120345107Y-129040000D01*
X120326632Y-129021525D01*
X120083411Y-128859010D01*
X119813158Y-128747068D01*
X119526260Y-128690000D01*
X119233740Y-128690000D01*
X118946842Y-128747068D01*
X118676589Y-128859010D01*
X118433368Y-129021525D01*
X118414893Y-129040000D01*
X118257683Y-129040000D01*
X118220537Y-128970506D01*
X118141185Y-128873815D01*
X118044494Y-128794463D01*
X117934180Y-128735498D01*
X117814482Y-128699188D01*
X117690000Y-128686928D01*
X115990000Y-128686928D01*
X115865518Y-128699188D01*
X115745820Y-128735498D01*
X115635506Y-128794463D01*
X115538815Y-128873815D01*
X115459463Y-128970506D01*
X115400498Y-129080820D01*
X115364188Y-129200518D01*
X115351928Y-129325000D01*
X115351928Y-131025000D01*
X115364188Y-131149482D01*
X115400498Y-131269180D01*
X115459463Y-131379494D01*
X115538815Y-131476185D01*
X115635506Y-131555537D01*
X115745820Y-131614502D01*
X115818380Y-131636513D01*
X115686525Y-131768368D01*
X115524010Y-132011589D01*
X115412068Y-132281842D01*
X115355000Y-132568740D01*
X115355000Y-132861260D01*
X115412068Y-133148158D01*
X115524010Y-133418411D01*
X115686525Y-133661632D01*
X115893368Y-133868475D01*
X116069933Y-133986452D01*
X115844538Y-134153042D01*
X115648684Y-134368421D01*
X115498612Y-134617871D01*
X115440988Y-134757015D01*
X115542152Y-134982000D01*
X116567000Y-134982000D01*
X116567000Y-134962000D01*
X117113000Y-134962000D01*
X117113000Y-134982000D01*
X119107000Y-134982000D01*
X119107000Y-134962000D01*
X119653000Y-134962000D01*
X119653000Y-134982000D01*
X120677848Y-134982000D01*
X120779012Y-134757015D01*
X120721388Y-134617871D01*
X120571316Y-134368421D01*
X120375462Y-134153042D01*
X120150067Y-133986452D01*
X120326632Y-133868475D01*
X120345107Y-133850000D01*
X130974869Y-133850000D01*
X134563971Y-137439103D01*
X134587072Y-137555239D01*
X134689215Y-137801833D01*
X134837503Y-138023762D01*
X135026238Y-138212497D01*
X135248167Y-138360785D01*
X135494761Y-138462928D01*
X135756544Y-138515000D01*
X136023456Y-138515000D01*
X136285239Y-138462928D01*
X136531833Y-138360785D01*
X136630287Y-138295000D01*
X137324869Y-138295000D01*
X138565000Y-139535132D01*
X138565001Y-146820000D01*
X136630287Y-146820000D01*
X136531833Y-146754215D01*
X136285239Y-146652072D01*
X136023456Y-146600000D01*
X135756544Y-146600000D01*
X135494761Y-146652072D01*
X135248167Y-146754215D01*
X135026238Y-146902503D01*
X134837503Y-147091238D01*
X134689215Y-147313167D01*
X134587072Y-147559761D01*
X134535000Y-147821544D01*
X134535000Y-148088456D01*
X134587072Y-148350239D01*
X134689215Y-148596833D01*
X134837503Y-148818762D01*
X135026238Y-149007497D01*
X135248167Y-149155785D01*
X135494761Y-149257928D01*
X135756544Y-149310000D01*
X136023456Y-149310000D01*
X136285239Y-149257928D01*
X136531833Y-149155785D01*
X136630287Y-149090000D01*
X138565001Y-149090000D01*
X138565000Y-156374868D01*
X137324869Y-157615000D01*
X136630287Y-157615000D01*
X136531833Y-157549215D01*
X136285239Y-157447072D01*
X136023456Y-157395000D01*
X135756544Y-157395000D01*
X135494761Y-157447072D01*
X135248167Y-157549215D01*
X135026238Y-157697503D01*
X134837503Y-157886238D01*
X134689215Y-158108167D01*
X134587072Y-158354761D01*
X134535000Y-158616544D01*
X134535000Y-158883456D01*
X134587072Y-159145239D01*
X134689215Y-159391833D01*
X134837503Y-159613762D01*
X135026238Y-159802497D01*
X135248167Y-159950785D01*
X135494761Y-160052928D01*
X135756544Y-160105000D01*
X136023456Y-160105000D01*
X136285239Y-160052928D01*
X136531833Y-159950785D01*
X136630287Y-159885000D01*
X137739249Y-159885000D01*
X137795000Y-159890491D01*
X137850751Y-159885000D01*
X137850752Y-159885000D01*
X138017499Y-159868577D01*
X138231447Y-159803676D01*
X138428623Y-159698284D01*
X138601449Y-159556449D01*
X138636996Y-159513135D01*
X140463141Y-157686991D01*
X140470000Y-157681362D01*
X140470000Y-167804867D01*
X135419869Y-172855000D01*
X86830133Y-172855000D01*
X85096748Y-171121616D01*
X85261449Y-170986449D01*
X85296996Y-170943135D01*
X87465132Y-168775000D01*
X88776910Y-168775000D01*
X88725820Y-168790498D01*
X88615506Y-168849463D01*
X88518815Y-168928815D01*
X88439463Y-169025506D01*
X88380498Y-169135820D01*
X88344188Y-169255518D01*
X88331928Y-169380000D01*
X88331928Y-170980000D01*
X88344188Y-171104482D01*
X88380498Y-171224180D01*
X88439463Y-171334494D01*
X88518815Y-171431185D01*
X88615506Y-171510537D01*
X88725820Y-171569502D01*
X88845518Y-171605812D01*
X88970000Y-171618072D01*
X91370000Y-171618072D01*
X91494482Y-171605812D01*
X91614180Y-171569502D01*
X91724494Y-171510537D01*
X91821185Y-171431185D01*
X91900537Y-171334494D01*
X91910957Y-171315000D01*
X98810716Y-171315000D01*
X99015273Y-171451680D01*
X99276426Y-171559853D01*
X99553665Y-171615000D01*
X99836335Y-171615000D01*
X100113574Y-171559853D01*
X100374727Y-171451680D01*
X100609759Y-171294637D01*
X100809637Y-171094759D01*
X100966680Y-170859727D01*
X101045257Y-170670023D01*
X113586259Y-170670023D01*
X113634790Y-170787212D01*
X113778234Y-171029203D01*
X113966132Y-171238560D01*
X114191263Y-171407237D01*
X114444976Y-171528752D01*
X114662000Y-171430053D01*
X114662000Y-170453000D01*
X115208000Y-170453000D01*
X115208000Y-171430053D01*
X115425024Y-171528752D01*
X115678737Y-171407237D01*
X115903868Y-171238560D01*
X116091766Y-171029203D01*
X116235210Y-170787212D01*
X116283741Y-170670023D01*
X116181710Y-170453000D01*
X115208000Y-170453000D01*
X114662000Y-170453000D01*
X113688290Y-170453000D01*
X113586259Y-170670023D01*
X101045257Y-170670023D01*
X101074853Y-170598574D01*
X101130000Y-170321335D01*
X101130000Y-170038665D01*
X101074853Y-169761426D01*
X101045258Y-169689977D01*
X113586259Y-169689977D01*
X113688290Y-169907000D01*
X114662000Y-169907000D01*
X114662000Y-168929947D01*
X115208000Y-168929947D01*
X115208000Y-169907000D01*
X116181710Y-169907000D01*
X116283741Y-169689977D01*
X116235210Y-169572788D01*
X116091766Y-169330797D01*
X115903868Y-169121440D01*
X115678737Y-168952763D01*
X115425024Y-168831248D01*
X115208000Y-168929947D01*
X114662000Y-168929947D01*
X114444976Y-168831248D01*
X114191263Y-168952763D01*
X113966132Y-169121440D01*
X113778234Y-169330797D01*
X113634790Y-169572788D01*
X113586259Y-169689977D01*
X101045258Y-169689977D01*
X100966680Y-169500273D01*
X100809637Y-169265241D01*
X100609759Y-169065363D01*
X100374727Y-168908320D01*
X100113574Y-168800147D01*
X99836335Y-168745000D01*
X99553665Y-168745000D01*
X99276426Y-168800147D01*
X99015273Y-168908320D01*
X98810716Y-169045000D01*
X91910957Y-169045000D01*
X91900537Y-169025506D01*
X91821185Y-168928815D01*
X91724494Y-168849463D01*
X91614180Y-168790498D01*
X91563090Y-168775000D01*
X93910712Y-168775000D01*
X93982641Y-168823061D01*
X94225595Y-168923696D01*
X94483514Y-168975000D01*
X94746486Y-168975000D01*
X95004405Y-168923696D01*
X95247359Y-168823061D01*
X95466013Y-168676962D01*
X95651962Y-168491013D01*
X95798061Y-168272359D01*
X95898696Y-168029405D01*
X95950000Y-167771486D01*
X95950000Y-167508514D01*
X95898696Y-167250595D01*
X95798061Y-167007641D01*
X95651962Y-166788987D01*
X95466013Y-166603038D01*
X95247359Y-166456939D01*
X95004405Y-166356304D01*
X94746486Y-166305000D01*
X94483514Y-166305000D01*
X94225595Y-166356304D01*
X93982641Y-166456939D01*
X93910712Y-166505000D01*
X91449002Y-166505000D01*
X91371101Y-166441068D01*
X91238142Y-166370000D01*
X91371101Y-166298932D01*
X91449002Y-166235000D01*
X93289249Y-166235000D01*
X93345000Y-166240491D01*
X93400751Y-166235000D01*
X93400752Y-166235000D01*
X93567499Y-166218577D01*
X93781447Y-166153676D01*
X93978623Y-166048284D01*
X94151449Y-165906449D01*
X94186996Y-165863135D01*
X95378140Y-164671992D01*
X95421449Y-164636449D01*
X95563284Y-164463623D01*
X95668676Y-164266447D01*
X95733577Y-164052499D01*
X95750000Y-163885752D01*
X95750000Y-163885745D01*
X95755490Y-163830001D01*
X95750000Y-163774257D01*
X95750000Y-158860000D01*
X101034286Y-158860000D01*
X101034286Y-165230000D01*
X118675715Y-165230000D01*
X118675715Y-164851356D01*
X135254725Y-164851356D01*
X135326811Y-165069618D01*
X135579471Y-165155672D01*
X135844063Y-165190781D01*
X136110421Y-165173596D01*
X136368308Y-165104778D01*
X136453189Y-165069618D01*
X136525275Y-164851356D01*
X135890000Y-164216080D01*
X135254725Y-164851356D01*
X118675715Y-164851356D01*
X118675715Y-163784063D01*
X134529219Y-163784063D01*
X134546404Y-164050421D01*
X134615222Y-164308308D01*
X134650382Y-164393189D01*
X134868644Y-164465275D01*
X135503920Y-163830000D01*
X136276080Y-163830000D01*
X136911356Y-164465275D01*
X137129618Y-164393189D01*
X137215672Y-164140529D01*
X137250781Y-163875937D01*
X137233596Y-163609579D01*
X137164778Y-163351692D01*
X137129618Y-163266811D01*
X136911356Y-163194725D01*
X136276080Y-163830000D01*
X135503920Y-163830000D01*
X134868644Y-163194725D01*
X134650382Y-163266811D01*
X134564328Y-163519471D01*
X134529219Y-163784063D01*
X118675715Y-163784063D01*
X118675715Y-162808644D01*
X135254725Y-162808644D01*
X135890000Y-163443920D01*
X136525275Y-162808644D01*
X136453189Y-162590382D01*
X136200529Y-162504328D01*
X135935937Y-162469219D01*
X135669579Y-162486404D01*
X135411692Y-162555222D01*
X135326811Y-162590382D01*
X135254725Y-162808644D01*
X118675715Y-162808644D01*
X118675715Y-158860000D01*
X101034286Y-158860000D01*
X95750000Y-158860000D01*
X95750000Y-151600131D01*
X96355132Y-150995000D01*
X109164249Y-150995000D01*
X109220000Y-151000491D01*
X109275751Y-150995000D01*
X109275752Y-150995000D01*
X109442499Y-150978577D01*
X109656447Y-150913676D01*
X109853623Y-150808284D01*
X110026449Y-150666449D01*
X110061996Y-150623135D01*
X111253140Y-149431992D01*
X111296449Y-149396449D01*
X111438284Y-149223623D01*
X111543676Y-149026447D01*
X111608577Y-148812499D01*
X111625000Y-148645752D01*
X111625000Y-148645745D01*
X111630490Y-148590001D01*
X111625000Y-148534257D01*
X111625000Y-147155131D01*
X112230132Y-146550000D01*
X115874893Y-146550000D01*
X115893368Y-146568475D01*
X116067760Y-146685000D01*
X115893368Y-146801525D01*
X115686525Y-147008368D01*
X115524010Y-147251589D01*
X115412068Y-147521842D01*
X115355000Y-147808740D01*
X115355000Y-148101260D01*
X115412068Y-148388158D01*
X115524010Y-148658411D01*
X115686525Y-148901632D01*
X115893368Y-149108475D01*
X116067760Y-149225000D01*
X115893368Y-149341525D01*
X115686525Y-149548368D01*
X115524010Y-149791589D01*
X115412068Y-150061842D01*
X115355000Y-150348740D01*
X115355000Y-150641260D01*
X115412068Y-150928158D01*
X115524010Y-151198411D01*
X115686525Y-151441632D01*
X115893368Y-151648475D01*
X116067760Y-151765000D01*
X115893368Y-151881525D01*
X115686525Y-152088368D01*
X115524010Y-152331589D01*
X115412068Y-152601842D01*
X115355000Y-152888740D01*
X115355000Y-153181260D01*
X115412068Y-153468158D01*
X115524010Y-153738411D01*
X115686525Y-153981632D01*
X115893368Y-154188475D01*
X116136589Y-154350990D01*
X116406842Y-154462932D01*
X116693740Y-154520000D01*
X116986260Y-154520000D01*
X117273158Y-154462932D01*
X117543411Y-154350990D01*
X117786632Y-154188475D01*
X117805107Y-154170000D01*
X118414893Y-154170000D01*
X118433368Y-154188475D01*
X118676589Y-154350990D01*
X118946842Y-154462932D01*
X119233740Y-154520000D01*
X119526260Y-154520000D01*
X119813158Y-154462932D01*
X120083411Y-154350990D01*
X120326632Y-154188475D01*
X120345107Y-154170000D01*
X124624869Y-154170000D01*
X132023971Y-161569103D01*
X132047072Y-161685239D01*
X132149215Y-161931833D01*
X132297503Y-162153762D01*
X132486238Y-162342497D01*
X132708167Y-162490785D01*
X132954761Y-162592928D01*
X133216544Y-162645000D01*
X133483456Y-162645000D01*
X133745239Y-162592928D01*
X133991833Y-162490785D01*
X134213762Y-162342497D01*
X134402497Y-162153762D01*
X134550785Y-161931833D01*
X134652928Y-161685239D01*
X134705000Y-161423456D01*
X134705000Y-161156544D01*
X134652928Y-160894761D01*
X134550785Y-160648167D01*
X134402497Y-160426238D01*
X134213762Y-160237503D01*
X133991833Y-160089215D01*
X133745239Y-159987072D01*
X133629103Y-159963971D01*
X127721488Y-154056356D01*
X135254725Y-154056356D01*
X135326811Y-154274618D01*
X135579471Y-154360672D01*
X135844063Y-154395781D01*
X136110421Y-154378596D01*
X136368308Y-154309778D01*
X136453189Y-154274618D01*
X136525275Y-154056356D01*
X135890000Y-153421080D01*
X135254725Y-154056356D01*
X127721488Y-154056356D01*
X126654195Y-152989063D01*
X134529219Y-152989063D01*
X134546404Y-153255421D01*
X134615222Y-153513308D01*
X134650382Y-153598189D01*
X134868644Y-153670275D01*
X135503920Y-153035000D01*
X136276080Y-153035000D01*
X136911356Y-153670275D01*
X137129618Y-153598189D01*
X137215672Y-153345529D01*
X137250781Y-153080937D01*
X137233596Y-152814579D01*
X137164778Y-152556692D01*
X137129618Y-152471811D01*
X136911356Y-152399725D01*
X136276080Y-153035000D01*
X135503920Y-153035000D01*
X134868644Y-152399725D01*
X134650382Y-152471811D01*
X134564328Y-152724471D01*
X134529219Y-152989063D01*
X126654195Y-152989063D01*
X125936996Y-152271865D01*
X125901449Y-152228551D01*
X125728623Y-152086716D01*
X125591914Y-152013644D01*
X135254725Y-152013644D01*
X135890000Y-152648920D01*
X136525275Y-152013644D01*
X136453189Y-151795382D01*
X136200529Y-151709328D01*
X135935937Y-151674219D01*
X135669579Y-151691404D01*
X135411692Y-151760222D01*
X135326811Y-151795382D01*
X135254725Y-152013644D01*
X125591914Y-152013644D01*
X125531447Y-151981324D01*
X125317499Y-151916423D01*
X125150752Y-151900000D01*
X125150751Y-151900000D01*
X125095000Y-151894509D01*
X125039249Y-151900000D01*
X120345107Y-151900000D01*
X120326632Y-151881525D01*
X120152240Y-151765000D01*
X120326632Y-151648475D01*
X120345107Y-151630000D01*
X132609713Y-151630000D01*
X132708167Y-151695785D01*
X132954761Y-151797928D01*
X133216544Y-151850000D01*
X133483456Y-151850000D01*
X133745239Y-151797928D01*
X133991833Y-151695785D01*
X134213762Y-151547497D01*
X134402497Y-151358762D01*
X134550785Y-151136833D01*
X134652928Y-150890239D01*
X134705000Y-150628456D01*
X134705000Y-150361544D01*
X134652928Y-150099761D01*
X134550785Y-149853167D01*
X134402497Y-149631238D01*
X134213762Y-149442503D01*
X133991833Y-149294215D01*
X133745239Y-149192072D01*
X133483456Y-149140000D01*
X133216544Y-149140000D01*
X132954761Y-149192072D01*
X132708167Y-149294215D01*
X132609713Y-149360000D01*
X120345107Y-149360000D01*
X120326632Y-149341525D01*
X120152240Y-149225000D01*
X120326632Y-149108475D01*
X120345107Y-149090000D01*
X126309249Y-149090000D01*
X126365000Y-149095491D01*
X126420751Y-149090000D01*
X126420752Y-149090000D01*
X126587499Y-149073577D01*
X126801447Y-149008676D01*
X126998623Y-148903284D01*
X127171449Y-148761449D01*
X127206996Y-148718135D01*
X132663775Y-143261356D01*
X135254725Y-143261356D01*
X135326811Y-143479618D01*
X135579471Y-143565672D01*
X135844063Y-143600781D01*
X136110421Y-143583596D01*
X136368308Y-143514778D01*
X136453189Y-143479618D01*
X136525275Y-143261356D01*
X135890000Y-142626080D01*
X135254725Y-143261356D01*
X132663775Y-143261356D01*
X133731069Y-142194063D01*
X134529219Y-142194063D01*
X134546404Y-142460421D01*
X134615222Y-142718308D01*
X134650382Y-142803189D01*
X134868644Y-142875275D01*
X135503920Y-142240000D01*
X136276080Y-142240000D01*
X136911356Y-142875275D01*
X137129618Y-142803189D01*
X137215672Y-142550529D01*
X137250781Y-142285937D01*
X137233596Y-142019579D01*
X137164778Y-141761692D01*
X137129618Y-141676811D01*
X136911356Y-141604725D01*
X136276080Y-142240000D01*
X135503920Y-142240000D01*
X134868644Y-141604725D01*
X134650382Y-141676811D01*
X134564328Y-141929471D01*
X134529219Y-142194063D01*
X133731069Y-142194063D01*
X134113146Y-141811987D01*
X134156449Y-141776449D01*
X134202361Y-141720506D01*
X134298284Y-141603623D01*
X134403676Y-141406447D01*
X134460645Y-141218644D01*
X135254725Y-141218644D01*
X135890000Y-141853920D01*
X136525275Y-141218644D01*
X136453189Y-141000382D01*
X136200529Y-140914328D01*
X135935937Y-140879219D01*
X135669579Y-140896404D01*
X135411692Y-140965222D01*
X135326811Y-141000382D01*
X135254725Y-141218644D01*
X134460645Y-141218644D01*
X134468577Y-141192499D01*
X134490491Y-140970000D01*
X134485000Y-140914248D01*
X134485000Y-140440287D01*
X134550785Y-140341833D01*
X134652928Y-140095239D01*
X134705000Y-139833456D01*
X134705000Y-139566544D01*
X134652928Y-139304761D01*
X134550785Y-139058167D01*
X134402497Y-138836238D01*
X134213762Y-138647503D01*
X133991833Y-138499215D01*
X133745239Y-138397072D01*
X133483456Y-138345000D01*
X133216544Y-138345000D01*
X132954761Y-138397072D01*
X132708167Y-138499215D01*
X132486238Y-138647503D01*
X132297503Y-138836238D01*
X132149215Y-139058167D01*
X132047072Y-139304761D01*
X131995000Y-139566544D01*
X131995000Y-139833456D01*
X132047072Y-140095239D01*
X132149215Y-140341833D01*
X132215000Y-140440287D01*
X132215000Y-140499867D01*
X125894869Y-146820000D01*
X120345107Y-146820000D01*
X120326632Y-146801525D01*
X120152240Y-146685000D01*
X120326632Y-146568475D01*
X120533475Y-146361632D01*
X120695990Y-146118411D01*
X120807932Y-145848158D01*
X120865000Y-145561260D01*
X120865000Y-145268740D01*
X120807932Y-144981842D01*
X120695990Y-144711589D01*
X120533475Y-144468368D01*
X120326632Y-144261525D01*
X120152240Y-144145000D01*
X120326632Y-144028475D01*
X120533475Y-143821632D01*
X120695990Y-143578411D01*
X120807932Y-143308158D01*
X120865000Y-143021260D01*
X120865000Y-142728740D01*
X120807932Y-142441842D01*
X120695990Y-142171589D01*
X120533475Y-141928368D01*
X120326632Y-141721525D01*
X120152240Y-141605000D01*
X120326632Y-141488475D01*
X120533475Y-141281632D01*
X120695990Y-141038411D01*
X120807932Y-140768158D01*
X120865000Y-140481260D01*
X120865000Y-140188740D01*
X120807932Y-139901842D01*
X120695990Y-139631589D01*
X120533475Y-139388368D01*
X120326632Y-139181525D01*
X120152240Y-139065000D01*
X120326632Y-138948475D01*
X120533475Y-138741632D01*
X120695990Y-138498411D01*
X120807932Y-138228158D01*
X120865000Y-137941260D01*
X120865000Y-137648740D01*
X120807932Y-137361842D01*
X120695990Y-137091589D01*
X120533475Y-136848368D01*
X120326632Y-136641525D01*
X120150067Y-136523548D01*
X120375462Y-136356958D01*
X120571316Y-136141579D01*
X120721388Y-135892129D01*
X120779012Y-135752985D01*
X120677848Y-135528000D01*
X119653000Y-135528000D01*
X119653000Y-135548000D01*
X119107000Y-135548000D01*
X119107000Y-135528000D01*
X117113000Y-135528000D01*
X117113000Y-135548000D01*
X116567000Y-135548000D01*
X116567000Y-135528000D01*
X115542152Y-135528000D01*
X115440988Y-135752985D01*
X115498612Y-135892129D01*
X115648684Y-136141579D01*
X115844538Y-136356958D01*
X116069933Y-136523548D01*
X115893368Y-136641525D01*
X115874893Y-136660000D01*
X114135132Y-136660000D01*
X109426996Y-131951865D01*
X109391449Y-131908551D01*
X109218623Y-131766716D01*
X109021447Y-131661324D01*
X108807499Y-131596423D01*
X108640752Y-131580000D01*
X108640751Y-131580000D01*
X108585000Y-131574509D01*
X108529249Y-131580000D01*
X104784002Y-131580000D01*
X104706101Y-131516068D01*
X104573142Y-131445000D01*
X104706101Y-131373932D01*
X104924608Y-131194608D01*
X105103932Y-130976101D01*
X105237182Y-130726808D01*
X105319236Y-130456309D01*
X105346943Y-130175000D01*
X105319236Y-129893691D01*
X105237182Y-129623192D01*
X105103932Y-129373899D01*
X104924608Y-129155392D01*
X104706101Y-128976068D01*
X104588093Y-128912991D01*
X104793983Y-128783791D01*
X105001019Y-128588285D01*
X105165936Y-128356145D01*
X105253741Y-128125023D01*
X105151710Y-127908000D01*
X103778000Y-127908000D01*
X103778000Y-127928000D01*
X103232000Y-127928000D01*
X103232000Y-127908000D01*
X101858290Y-127908000D01*
X101756259Y-128125023D01*
X101844064Y-128356145D01*
X102008981Y-128588285D01*
X102216017Y-128783791D01*
X102421907Y-128912991D01*
X102303899Y-128976068D01*
X102225998Y-129040000D01*
X101020743Y-129040000D01*
X100964999Y-129034510D01*
X100909255Y-129040000D01*
X100909248Y-129040000D01*
X100763493Y-129054356D01*
X100742500Y-129056423D01*
X100697744Y-129070000D01*
X100528553Y-129121324D01*
X100331377Y-129226716D01*
X100158551Y-129368551D01*
X100123008Y-129411860D01*
X98931860Y-130603009D01*
X98888552Y-130638551D01*
X98746717Y-130811377D01*
X98710887Y-130878411D01*
X98641324Y-131008554D01*
X98576423Y-131222502D01*
X98554509Y-131445000D01*
X98560001Y-131500761D01*
X98560000Y-132879868D01*
X97319869Y-134120000D01*
X97164002Y-134120000D01*
X97086101Y-134056068D01*
X96953142Y-133985000D01*
X97086101Y-133913932D01*
X97304608Y-133734608D01*
X97483932Y-133516101D01*
X97617182Y-133266808D01*
X97699236Y-132996309D01*
X97726943Y-132715000D01*
X97699236Y-132433691D01*
X97617182Y-132163192D01*
X97483932Y-131913899D01*
X97304608Y-131695392D01*
X97086101Y-131516068D01*
X96953142Y-131445000D01*
X97086101Y-131373932D01*
X97304608Y-131194608D01*
X97483932Y-130976101D01*
X97617182Y-130726808D01*
X97699236Y-130456309D01*
X97726943Y-130175000D01*
X97699236Y-129893691D01*
X97617182Y-129623192D01*
X97483932Y-129373899D01*
X97304608Y-129155392D01*
X97086101Y-128976068D01*
X96953142Y-128905000D01*
X97086101Y-128833932D01*
X97304608Y-128654608D01*
X97483932Y-128436101D01*
X97617182Y-128186808D01*
X97699236Y-127916309D01*
X97726943Y-127635000D01*
X97699236Y-127353691D01*
X97635925Y-127144977D01*
X101756259Y-127144977D01*
X101858290Y-127362000D01*
X103232000Y-127362000D01*
X103232000Y-126346725D01*
X103778000Y-126346725D01*
X103778000Y-127362000D01*
X105151710Y-127362000D01*
X105253741Y-127144977D01*
X105165936Y-126913855D01*
X105001019Y-126681715D01*
X104793983Y-126486209D01*
X104552783Y-126334851D01*
X104286690Y-126233457D01*
X104005928Y-126185923D01*
X103778000Y-126346725D01*
X103232000Y-126346725D01*
X103004072Y-126185923D01*
X102723310Y-126233457D01*
X102457217Y-126334851D01*
X102216017Y-126486209D01*
X102008981Y-126681715D01*
X101844064Y-126913855D01*
X101756259Y-127144977D01*
X97635925Y-127144977D01*
X97617182Y-127083192D01*
X97483932Y-126833899D01*
X97304608Y-126615392D01*
X97086101Y-126436068D01*
X96836808Y-126302818D01*
X96566309Y-126220764D01*
X96355492Y-126200000D01*
X95414508Y-126200000D01*
X95203691Y-126220764D01*
X94933192Y-126302818D01*
X94683899Y-126436068D01*
X94465392Y-126615392D01*
X94286068Y-126833899D01*
X94152818Y-127083192D01*
X94070764Y-127353691D01*
X94043057Y-127635000D01*
X94070764Y-127916309D01*
X94152818Y-128186808D01*
X94286068Y-128436101D01*
X94465392Y-128654608D01*
X94683899Y-128833932D01*
X94816858Y-128905000D01*
X94683899Y-128976068D01*
X94465392Y-129155392D01*
X94286068Y-129373899D01*
X94152818Y-129623192D01*
X94070764Y-129893691D01*
X94043057Y-130175000D01*
X94070764Y-130456309D01*
X94152818Y-130726808D01*
X94286068Y-130976101D01*
X94465392Y-131194608D01*
X94683899Y-131373932D01*
X94816858Y-131445000D01*
X94683899Y-131516068D01*
X94465392Y-131695392D01*
X94286068Y-131913899D01*
X94152818Y-132163192D01*
X94070764Y-132433691D01*
X94043057Y-132715000D01*
X94070764Y-132996309D01*
X94152818Y-133266808D01*
X94286068Y-133516101D01*
X94465392Y-133734608D01*
X94683899Y-133913932D01*
X94816858Y-133985000D01*
X94683899Y-134056068D01*
X94465392Y-134235392D01*
X94286068Y-134453899D01*
X94152818Y-134703192D01*
X94070764Y-134973691D01*
X94043057Y-135255000D01*
X94070764Y-135536309D01*
X94152818Y-135806808D01*
X94286068Y-136056101D01*
X94465392Y-136274608D01*
X94683899Y-136453932D01*
X94816858Y-136525000D01*
X94683899Y-136596068D01*
X94465392Y-136775392D01*
X94286068Y-136993899D01*
X94152818Y-137243192D01*
X94070764Y-137513691D01*
X94043057Y-137795000D01*
X94070764Y-138076309D01*
X94152818Y-138346808D01*
X94286068Y-138596101D01*
X94465392Y-138814608D01*
X94683899Y-138993932D01*
X94750000Y-139029264D01*
X94750001Y-139100736D01*
X94683899Y-139136068D01*
X94465392Y-139315392D01*
X94286068Y-139533899D01*
X94152818Y-139783192D01*
X94070764Y-140053691D01*
X94043057Y-140335000D01*
X94070764Y-140616309D01*
X94152818Y-140886808D01*
X94286068Y-141136101D01*
X94465392Y-141354608D01*
X94683899Y-141533932D01*
X94816858Y-141605000D01*
X94683899Y-141676068D01*
X94465392Y-141855392D01*
X94286068Y-142073899D01*
X94152818Y-142323192D01*
X94070764Y-142593691D01*
X94043057Y-142875000D01*
X94070764Y-143156309D01*
X94152818Y-143426808D01*
X94286068Y-143676101D01*
X94465392Y-143894608D01*
X94683899Y-144073932D01*
X94750001Y-144109264D01*
X94750001Y-144309868D01*
X94310442Y-144749427D01*
X94225595Y-144766304D01*
X93982641Y-144866939D01*
X93910712Y-144915000D01*
X81220132Y-144915000D01*
X80510000Y-144204868D01*
X80510000Y-144109264D01*
X80576101Y-144073932D01*
X80794608Y-143894608D01*
X80973932Y-143676101D01*
X81107182Y-143426808D01*
X81189236Y-143156309D01*
X81216943Y-142875000D01*
X81189236Y-142593691D01*
X81107182Y-142323192D01*
X80973932Y-142073899D01*
X80794608Y-141855392D01*
X80576101Y-141676068D01*
X80443142Y-141605000D01*
X80576101Y-141533932D01*
X80654002Y-141470000D01*
X81859249Y-141470000D01*
X81915000Y-141475491D01*
X81970751Y-141470000D01*
X81970752Y-141470000D01*
X82137499Y-141453577D01*
X82351447Y-141388676D01*
X82548623Y-141283284D01*
X82721449Y-141141449D01*
X82756996Y-141098135D01*
X83948140Y-139906992D01*
X83991449Y-139871449D01*
X84133284Y-139698623D01*
X84238676Y-139501447D01*
X84303577Y-139287499D01*
X84320000Y-139120752D01*
X84320000Y-139120745D01*
X84325490Y-139065001D01*
X84320000Y-139009257D01*
X84320000Y-136995131D01*
X84925132Y-136390000D01*
X85715998Y-136390000D01*
X85793899Y-136453932D01*
X85926858Y-136525000D01*
X85793899Y-136596068D01*
X85575392Y-136775392D01*
X85396068Y-136993899D01*
X85262818Y-137243192D01*
X85180764Y-137513691D01*
X85153057Y-137795000D01*
X85180764Y-138076309D01*
X85262818Y-138346808D01*
X85396068Y-138596101D01*
X85575392Y-138814608D01*
X85793899Y-138993932D01*
X85926858Y-139065000D01*
X85793899Y-139136068D01*
X85575392Y-139315392D01*
X85396068Y-139533899D01*
X85262818Y-139783192D01*
X85180764Y-140053691D01*
X85153057Y-140335000D01*
X85180764Y-140616309D01*
X85262818Y-140886808D01*
X85396068Y-141136101D01*
X85575392Y-141354608D01*
X85688482Y-141447419D01*
X85670518Y-141449188D01*
X85550820Y-141485498D01*
X85440506Y-141544463D01*
X85343815Y-141623815D01*
X85264463Y-141720506D01*
X85205498Y-141830820D01*
X85169188Y-141950518D01*
X85156928Y-142075000D01*
X85156928Y-143675000D01*
X85169188Y-143799482D01*
X85205498Y-143919180D01*
X85264463Y-144029494D01*
X85343815Y-144126185D01*
X85440506Y-144205537D01*
X85550820Y-144264502D01*
X85670518Y-144300812D01*
X85795000Y-144313072D01*
X88195000Y-144313072D01*
X88319482Y-144300812D01*
X88439180Y-144264502D01*
X88549494Y-144205537D01*
X88646185Y-144126185D01*
X88725537Y-144029494D01*
X88784502Y-143919180D01*
X88820812Y-143799482D01*
X88833072Y-143675000D01*
X88833072Y-142075000D01*
X88820812Y-141950518D01*
X88784502Y-141830820D01*
X88725537Y-141720506D01*
X88646185Y-141623815D01*
X88549494Y-141544463D01*
X88439180Y-141485498D01*
X88319482Y-141449188D01*
X88301518Y-141447419D01*
X88414608Y-141354608D01*
X88593932Y-141136101D01*
X88727182Y-140886808D01*
X88809236Y-140616309D01*
X88836943Y-140335000D01*
X88809236Y-140053691D01*
X88727182Y-139783192D01*
X88593932Y-139533899D01*
X88414608Y-139315392D01*
X88196101Y-139136068D01*
X88063142Y-139065000D01*
X88196101Y-138993932D01*
X88414608Y-138814608D01*
X88593932Y-138596101D01*
X88727182Y-138346808D01*
X88809236Y-138076309D01*
X88836943Y-137795000D01*
X88809236Y-137513691D01*
X88727182Y-137243192D01*
X88593932Y-136993899D01*
X88414608Y-136775392D01*
X88196101Y-136596068D01*
X88063142Y-136525000D01*
X88196101Y-136453932D01*
X88414608Y-136274608D01*
X88593932Y-136056101D01*
X88727182Y-135806808D01*
X88809236Y-135536309D01*
X88836943Y-135255000D01*
X88809236Y-134973691D01*
X88727182Y-134703192D01*
X88593932Y-134453899D01*
X88414608Y-134235392D01*
X88196101Y-134056068D01*
X88063142Y-133985000D01*
X88196101Y-133913932D01*
X88274002Y-133850000D01*
X90100712Y-133850000D01*
X90172641Y-133898061D01*
X90415595Y-133998696D01*
X90673514Y-134050000D01*
X90936486Y-134050000D01*
X91194405Y-133998696D01*
X91437359Y-133898061D01*
X91656013Y-133751962D01*
X91841962Y-133566013D01*
X91988061Y-133347359D01*
X92088696Y-133104405D01*
X92140000Y-132846486D01*
X92140000Y-132583514D01*
X92088696Y-132325595D01*
X91988061Y-132082641D01*
X91841962Y-131863987D01*
X91656013Y-131678038D01*
X91437359Y-131531939D01*
X91194405Y-131431304D01*
X90936486Y-131380000D01*
X90673514Y-131380000D01*
X90415595Y-131431304D01*
X90172641Y-131531939D01*
X90100712Y-131580000D01*
X88274002Y-131580000D01*
X88196101Y-131516068D01*
X88130000Y-131480736D01*
X88130000Y-131409264D01*
X88196101Y-131373932D01*
X88414608Y-131194608D01*
X88593932Y-130976101D01*
X88727182Y-130726808D01*
X88809236Y-130456309D01*
X88836943Y-130175000D01*
X88809236Y-129893691D01*
X88727182Y-129623192D01*
X88593932Y-129373899D01*
X88414608Y-129155392D01*
X88196101Y-128976068D01*
X88078093Y-128912991D01*
X88283983Y-128783791D01*
X88491019Y-128588285D01*
X88655936Y-128356145D01*
X88743741Y-128125023D01*
X88641710Y-127908000D01*
X87268000Y-127908000D01*
X87268000Y-127928000D01*
X86722000Y-127928000D01*
X86722000Y-127908000D01*
X85348290Y-127908000D01*
X85246259Y-128125023D01*
X85334064Y-128356145D01*
X85498981Y-128588285D01*
X85706017Y-128783791D01*
X85911907Y-128912991D01*
X85793899Y-128976068D01*
X85575392Y-129155392D01*
X85396068Y-129373899D01*
X85262818Y-129623192D01*
X85180764Y-129893691D01*
X85153057Y-130175000D01*
X85180764Y-130456309D01*
X85262818Y-130726808D01*
X85396068Y-130976101D01*
X85575392Y-131194608D01*
X85793899Y-131373932D01*
X85860000Y-131409264D01*
X85860001Y-131480736D01*
X85793899Y-131516068D01*
X85575392Y-131695392D01*
X85396068Y-131913899D01*
X85262818Y-132163192D01*
X85180764Y-132433691D01*
X85153057Y-132715000D01*
X85180764Y-132996309D01*
X85262818Y-133266808D01*
X85396068Y-133516101D01*
X85575392Y-133734608D01*
X85793899Y-133913932D01*
X85926858Y-133985000D01*
X85793899Y-134056068D01*
X85715998Y-134120000D01*
X84510743Y-134120000D01*
X84454999Y-134114510D01*
X84399255Y-134120000D01*
X84399248Y-134120000D01*
X84311342Y-134128658D01*
X84320000Y-134040752D01*
X84320000Y-134040745D01*
X84325490Y-133985001D01*
X84320000Y-133929257D01*
X84320000Y-128960743D01*
X84325490Y-128904999D01*
X84320000Y-128849255D01*
X84320000Y-128849248D01*
X84303577Y-128682501D01*
X84238676Y-128468553D01*
X84133284Y-128271377D01*
X83991449Y-128098551D01*
X83948140Y-128063008D01*
X83030109Y-127144977D01*
X85246259Y-127144977D01*
X85348290Y-127362000D01*
X86722000Y-127362000D01*
X86722000Y-126346725D01*
X87268000Y-126346725D01*
X87268000Y-127362000D01*
X88641710Y-127362000D01*
X88743741Y-127144977D01*
X88655936Y-126913855D01*
X88491019Y-126681715D01*
X88283983Y-126486209D01*
X88042783Y-126334851D01*
X87776690Y-126233457D01*
X87495928Y-126185923D01*
X87268000Y-126346725D01*
X86722000Y-126346725D01*
X86494072Y-126185923D01*
X86213310Y-126233457D01*
X85947217Y-126334851D01*
X85706017Y-126486209D01*
X85498981Y-126681715D01*
X85334064Y-126913855D01*
X85246259Y-127144977D01*
X83030109Y-127144977D01*
X82756996Y-126871865D01*
X82721449Y-126828551D01*
X82548623Y-126686716D01*
X82351447Y-126581324D01*
X82137499Y-126516423D01*
X81970752Y-126500000D01*
X81970751Y-126500000D01*
X81915000Y-126494509D01*
X81859249Y-126500000D01*
X80654002Y-126500000D01*
X80576101Y-126436068D01*
X80326808Y-126302818D01*
X80056309Y-126220764D01*
X79845492Y-126200000D01*
X78904508Y-126200000D01*
X78693691Y-126220764D01*
X78423192Y-126302818D01*
X78173899Y-126436068D01*
X77955392Y-126615392D01*
X77776068Y-126833899D01*
X77642818Y-127083192D01*
X77560764Y-127353691D01*
X77533057Y-127635000D01*
X77560764Y-127916309D01*
X77642818Y-128186808D01*
X77776068Y-128436101D01*
X77955392Y-128654608D01*
X78173899Y-128833932D01*
X78240000Y-128869264D01*
X78240001Y-128940736D01*
X78173899Y-128976068D01*
X77955392Y-129155392D01*
X77776068Y-129373899D01*
X77642818Y-129623192D01*
X77560764Y-129893691D01*
X77533057Y-130175000D01*
X77560764Y-130456309D01*
X77642818Y-130726808D01*
X77776068Y-130976101D01*
X77955392Y-131194608D01*
X78173899Y-131373932D01*
X78306858Y-131445000D01*
X78173899Y-131516068D01*
X78095998Y-131580000D01*
X77305132Y-131580000D01*
X75136996Y-129411865D01*
X75101449Y-129368551D01*
X74928623Y-129226716D01*
X74731447Y-129121324D01*
X74517499Y-129056423D01*
X74350752Y-129040000D01*
X74350751Y-129040000D01*
X74295000Y-129034509D01*
X74239249Y-129040000D01*
X72085107Y-129040000D01*
X72066632Y-129021525D01*
X71823411Y-128859010D01*
X71553158Y-128747068D01*
X71266260Y-128690000D01*
X70973740Y-128690000D01*
X70686842Y-128747068D01*
X70416589Y-128859010D01*
X70173368Y-129021525D01*
X69966525Y-129228368D01*
X69804010Y-129471589D01*
X69692068Y-129741842D01*
X69635000Y-130028740D01*
X69635000Y-130321260D01*
X69692068Y-130608158D01*
X69804010Y-130878411D01*
X69966525Y-131121632D01*
X70173368Y-131328475D01*
X70347760Y-131445000D01*
X70173368Y-131561525D01*
X70154893Y-131580000D01*
X69905743Y-131580000D01*
X69849999Y-131574510D01*
X69794255Y-131580000D01*
X69794248Y-131580000D01*
X69648493Y-131594356D01*
X69627500Y-131596423D01*
X69582744Y-131610000D01*
X69413553Y-131661324D01*
X69216377Y-131766716D01*
X69043551Y-131908551D01*
X69008008Y-131951860D01*
X67816865Y-133143004D01*
X67773551Y-133178551D01*
X67631716Y-133351377D01*
X67540812Y-133521448D01*
X67526324Y-133548554D01*
X67461423Y-133762502D01*
X67439509Y-133985000D01*
X64795000Y-133985000D01*
X64795000Y-122423514D01*
X89470000Y-122423514D01*
X89470000Y-122686486D01*
X89521304Y-122944405D01*
X89621939Y-123187359D01*
X89768038Y-123406013D01*
X89953987Y-123591962D01*
X90172641Y-123738061D01*
X90415595Y-123838696D01*
X90673514Y-123890000D01*
X90936486Y-123890000D01*
X91194405Y-123838696D01*
X91437359Y-123738061D01*
X91509288Y-123690000D01*
X107245712Y-123690000D01*
X107317641Y-123738061D01*
X107560595Y-123838696D01*
X107818514Y-123890000D01*
X108081486Y-123890000D01*
X108339405Y-123838696D01*
X108582359Y-123738061D01*
X108801013Y-123591962D01*
X108986962Y-123406013D01*
X109133061Y-123187359D01*
X109233696Y-122944405D01*
X109285000Y-122686486D01*
X109285000Y-122423514D01*
X109233696Y-122165595D01*
X109133061Y-121922641D01*
X108986962Y-121703987D01*
X108801013Y-121518038D01*
X108582359Y-121371939D01*
X108339405Y-121271304D01*
X108081486Y-121220000D01*
X107818514Y-121220000D01*
X107560595Y-121271304D01*
X107317641Y-121371939D01*
X107245712Y-121420000D01*
X91509288Y-121420000D01*
X91437359Y-121371939D01*
X91194405Y-121271304D01*
X90936486Y-121220000D01*
X90673514Y-121220000D01*
X90415595Y-121271304D01*
X90172641Y-121371939D01*
X89953987Y-121518038D01*
X89768038Y-121703987D01*
X89621939Y-121922641D01*
X89521304Y-122165595D01*
X89470000Y-122423514D01*
X64795000Y-122423514D01*
X64795000Y-119405000D01*
X142850000Y-119405000D01*
X142850001Y-175870000D01*
G37*
X142850001Y-175870000D02*
X64795000Y-175870000D01*
X64795000Y-148092015D01*
X68450988Y-148092015D01*
X68552152Y-148317000D01*
X69577000Y-148317000D01*
X69577000Y-147289049D01*
X70123000Y-147289049D01*
X70123000Y-148317000D01*
X72117000Y-148317000D01*
X72117000Y-147289049D01*
X72663000Y-147289049D01*
X72663000Y-148317000D01*
X73687848Y-148317000D01*
X73789012Y-148092015D01*
X73731388Y-147952871D01*
X73581316Y-147703421D01*
X73385462Y-147488042D01*
X73151353Y-147315011D01*
X72887986Y-147190977D01*
X72663000Y-147289049D01*
X72117000Y-147289049D01*
X71892014Y-147190977D01*
X71628647Y-147315011D01*
X71394538Y-147488042D01*
X71198684Y-147703421D01*
X71120000Y-147834210D01*
X71041316Y-147703421D01*
X70845462Y-147488042D01*
X70611353Y-147315011D01*
X70347986Y-147190977D01*
X70123000Y-147289049D01*
X69577000Y-147289049D01*
X69352014Y-147190977D01*
X69088647Y-147315011D01*
X68854538Y-147488042D01*
X68658684Y-147703421D01*
X68508612Y-147952871D01*
X68450988Y-148092015D01*
X64795000Y-148092015D01*
X64795000Y-133985000D01*
X67439509Y-133985000D01*
X67445000Y-134040752D01*
X67445001Y-139009239D01*
X67439509Y-139065000D01*
X67461423Y-139287498D01*
X67526324Y-139501446D01*
X67563960Y-139571857D01*
X67631717Y-139698623D01*
X67773552Y-139871449D01*
X67816860Y-139906991D01*
X89035000Y-161125132D01*
X89035000Y-161325736D01*
X88968899Y-161361068D01*
X88750392Y-161540392D01*
X88571068Y-161758899D01*
X88437818Y-162008192D01*
X88355764Y-162278691D01*
X88328057Y-162560000D01*
X88355764Y-162841309D01*
X88437818Y-163111808D01*
X88571068Y-163361101D01*
X88750392Y-163579608D01*
X88968899Y-163758932D01*
X89101858Y-163830000D01*
X88968899Y-163901068D01*
X88750392Y-164080392D01*
X88571068Y-164298899D01*
X88437818Y-164548192D01*
X88355764Y-164818691D01*
X88328057Y-165100000D01*
X88355764Y-165381309D01*
X88437818Y-165651808D01*
X88571068Y-165901101D01*
X88750392Y-166119608D01*
X88968899Y-166298932D01*
X89101858Y-166370000D01*
X88968899Y-166441068D01*
X88890998Y-166505000D01*
X87050741Y-166505000D01*
X86994999Y-166499510D01*
X86939257Y-166505000D01*
X86939248Y-166505000D01*
X86772501Y-166521423D01*
X86558553Y-166586324D01*
X86361377Y-166691716D01*
X86188551Y-166833551D01*
X86153009Y-166876859D01*
X83984869Y-169045000D01*
X83829002Y-169045000D01*
X83751101Y-168981068D01*
X83618142Y-168910000D01*
X83751101Y-168838932D01*
X83969608Y-168659608D01*
X84148932Y-168441101D01*
X84282182Y-168191808D01*
X84364236Y-167921309D01*
X84391943Y-167640000D01*
X84364236Y-167358691D01*
X84282182Y-167088192D01*
X84148932Y-166838899D01*
X83969608Y-166620392D01*
X83751101Y-166441068D01*
X83618142Y-166370000D01*
X83751101Y-166298932D01*
X83969608Y-166119608D01*
X84148932Y-165901101D01*
X84282182Y-165651808D01*
X84364236Y-165381309D01*
X84391943Y-165100000D01*
X84364236Y-164818691D01*
X84282182Y-164548192D01*
X84148932Y-164298899D01*
X83969608Y-164080392D01*
X83751101Y-163901068D01*
X83633093Y-163837991D01*
X83838983Y-163708791D01*
X84046019Y-163513285D01*
X84210936Y-163281145D01*
X84298741Y-163050023D01*
X84196710Y-162833000D01*
X82823000Y-162833000D01*
X82823000Y-162853000D01*
X82277000Y-162853000D01*
X82277000Y-162833000D01*
X80903290Y-162833000D01*
X80801259Y-163050023D01*
X80889064Y-163281145D01*
X81053981Y-163513285D01*
X81261017Y-163708791D01*
X81466907Y-163837991D01*
X81348899Y-163901068D01*
X81270998Y-163965000D01*
X77940132Y-163965000D01*
X76700000Y-162724869D01*
X76700000Y-162069977D01*
X80801259Y-162069977D01*
X80903290Y-162287000D01*
X82277000Y-162287000D01*
X82277000Y-161271725D01*
X82823000Y-161271725D01*
X82823000Y-162287000D01*
X84196710Y-162287000D01*
X84298741Y-162069977D01*
X84210936Y-161838855D01*
X84046019Y-161606715D01*
X83838983Y-161411209D01*
X83597783Y-161259851D01*
X83331690Y-161158457D01*
X83050928Y-161110923D01*
X82823000Y-161271725D01*
X82277000Y-161271725D01*
X82049072Y-161110923D01*
X81768310Y-161158457D01*
X81502217Y-161259851D01*
X81261017Y-161411209D01*
X81053981Y-161606715D01*
X80889064Y-161838855D01*
X80801259Y-162069977D01*
X76700000Y-162069977D01*
X76700000Y-158805752D01*
X76705491Y-158750000D01*
X76700000Y-158694248D01*
X76700000Y-152455743D01*
X76705490Y-152399999D01*
X76700000Y-152344255D01*
X76700000Y-152344248D01*
X76683577Y-152177501D01*
X76618676Y-151963553D01*
X76513284Y-151766377D01*
X76371449Y-151593551D01*
X76328140Y-151558008D01*
X75136996Y-150366865D01*
X75101449Y-150323551D01*
X74928623Y-150181716D01*
X74731447Y-150076324D01*
X74517499Y-150011423D01*
X74350752Y-149995000D01*
X74350751Y-149995000D01*
X74295000Y-149989509D01*
X74239249Y-149995000D01*
X73355107Y-149995000D01*
X73336632Y-149976525D01*
X73160067Y-149858548D01*
X73385462Y-149691958D01*
X73581316Y-149476579D01*
X73731388Y-149227129D01*
X73789012Y-149087985D01*
X73687848Y-148863000D01*
X72663000Y-148863000D01*
X72663000Y-148883000D01*
X72117000Y-148883000D01*
X72117000Y-148863000D01*
X70123000Y-148863000D01*
X70123000Y-148883000D01*
X69577000Y-148883000D01*
X69577000Y-148863000D01*
X68552152Y-148863000D01*
X68450988Y-149087985D01*
X68508612Y-149227129D01*
X68658684Y-149476579D01*
X68854538Y-149691958D01*
X69079933Y-149858548D01*
X68903368Y-149976525D01*
X68696525Y-150183368D01*
X68534010Y-150426589D01*
X68422068Y-150696842D01*
X68365000Y-150983740D01*
X68365000Y-151276260D01*
X68422068Y-151563158D01*
X68534010Y-151833411D01*
X68696525Y-152076632D01*
X68903368Y-152283475D01*
X69077760Y-152400000D01*
X68903368Y-152516525D01*
X68696525Y-152723368D01*
X68534010Y-152966589D01*
X68422068Y-153236842D01*
X68365000Y-153523740D01*
X68365000Y-153816260D01*
X68422068Y-154103158D01*
X68534010Y-154373411D01*
X68696525Y-154616632D01*
X68715000Y-154635107D01*
X68715001Y-165044239D01*
X68709509Y-165100000D01*
X68731423Y-165322498D01*
X68796324Y-165536446D01*
X68796325Y-165536447D01*
X68901717Y-165733623D01*
X69043552Y-165906449D01*
X69086860Y-165941991D01*
X71255000Y-168110132D01*
X71255000Y-169489249D01*
X71255001Y-171394239D01*
X71255000Y-171394249D01*
X71255001Y-173105715D01*
X71118320Y-173310273D01*
X71010147Y-173571426D01*
X70955000Y-173848665D01*
X70955000Y-174131335D01*
X71010147Y-174408574D01*
X71118320Y-174669727D01*
X71275363Y-174904759D01*
X71475241Y-175104637D01*
X71710273Y-175261680D01*
X71971426Y-175369853D01*
X72248665Y-175425000D01*
X72531335Y-175425000D01*
X72808574Y-175369853D01*
X73069727Y-175261680D01*
X73304759Y-175104637D01*
X73504637Y-174904759D01*
X73661680Y-174669727D01*
X73769853Y-174408574D01*
X73825000Y-174131335D01*
X73825000Y-173848665D01*
X73769853Y-173571426D01*
X73661680Y-173310273D01*
X73525000Y-173105716D01*
X73525000Y-168775000D01*
X81270998Y-168775000D01*
X81348899Y-168838932D01*
X81481858Y-168910000D01*
X81348899Y-168981068D01*
X81130392Y-169160392D01*
X80951068Y-169378899D01*
X80817818Y-169628192D01*
X80735764Y-169898691D01*
X80708057Y-170180000D01*
X80735764Y-170461309D01*
X80817818Y-170731808D01*
X80951068Y-170981101D01*
X81130392Y-171199608D01*
X81348899Y-171378932D01*
X81598192Y-171512182D01*
X81868691Y-171594236D01*
X82079508Y-171615000D01*
X82379869Y-171615000D01*
X85518013Y-174753146D01*
X85553551Y-174796449D01*
X85596854Y-174831987D01*
X85596856Y-174831989D01*
X85726377Y-174938284D01*
X85923553Y-175043676D01*
X86137501Y-175108577D01*
X86360000Y-175130491D01*
X86415752Y-175125000D01*
X135834249Y-175125000D01*
X135890000Y-175130491D01*
X135945751Y-175125000D01*
X135945752Y-175125000D01*
X136112499Y-175108577D01*
X136326447Y-175043676D01*
X136523623Y-174938284D01*
X136696449Y-174796449D01*
X136731996Y-174753135D01*
X142368146Y-169116987D01*
X142411449Y-169081449D01*
X142457361Y-169025506D01*
X142553284Y-168908623D01*
X142658676Y-168711447D01*
X142723577Y-168497499D01*
X142745491Y-168275000D01*
X142740000Y-168219248D01*
X142740000Y-138485751D01*
X142745491Y-138430000D01*
X142723577Y-138207501D01*
X142658676Y-137993553D01*
X142644188Y-137966448D01*
X142553284Y-137796377D01*
X142411449Y-137623551D01*
X142368141Y-137588009D01*
X134191996Y-129411865D01*
X134156449Y-129368551D01*
X133983623Y-129226716D01*
X133786447Y-129121324D01*
X133572499Y-129056423D01*
X133405752Y-129040000D01*
X133405751Y-129040000D01*
X133350000Y-129034509D01*
X133294249Y-129040000D01*
X120345107Y-129040000D01*
X120326632Y-129021525D01*
X120083411Y-128859010D01*
X119813158Y-128747068D01*
X119526260Y-128690000D01*
X119233740Y-128690000D01*
X118946842Y-128747068D01*
X118676589Y-128859010D01*
X118433368Y-129021525D01*
X118414893Y-129040000D01*
X118257683Y-129040000D01*
X118220537Y-128970506D01*
X118141185Y-128873815D01*
X118044494Y-128794463D01*
X117934180Y-128735498D01*
X117814482Y-128699188D01*
X117690000Y-128686928D01*
X115990000Y-128686928D01*
X115865518Y-128699188D01*
X115745820Y-128735498D01*
X115635506Y-128794463D01*
X115538815Y-128873815D01*
X115459463Y-128970506D01*
X115400498Y-129080820D01*
X115364188Y-129200518D01*
X115351928Y-129325000D01*
X115351928Y-131025000D01*
X115364188Y-131149482D01*
X115400498Y-131269180D01*
X115459463Y-131379494D01*
X115538815Y-131476185D01*
X115635506Y-131555537D01*
X115745820Y-131614502D01*
X115818380Y-131636513D01*
X115686525Y-131768368D01*
X115524010Y-132011589D01*
X115412068Y-132281842D01*
X115355000Y-132568740D01*
X115355000Y-132861260D01*
X115412068Y-133148158D01*
X115524010Y-133418411D01*
X115686525Y-133661632D01*
X115893368Y-133868475D01*
X116069933Y-133986452D01*
X115844538Y-134153042D01*
X115648684Y-134368421D01*
X115498612Y-134617871D01*
X115440988Y-134757015D01*
X115542152Y-134982000D01*
X116567000Y-134982000D01*
X116567000Y-134962000D01*
X117113000Y-134962000D01*
X117113000Y-134982000D01*
X119107000Y-134982000D01*
X119107000Y-134962000D01*
X119653000Y-134962000D01*
X119653000Y-134982000D01*
X120677848Y-134982000D01*
X120779012Y-134757015D01*
X120721388Y-134617871D01*
X120571316Y-134368421D01*
X120375462Y-134153042D01*
X120150067Y-133986452D01*
X120326632Y-133868475D01*
X120345107Y-133850000D01*
X130974869Y-133850000D01*
X134563971Y-137439103D01*
X134587072Y-137555239D01*
X134689215Y-137801833D01*
X134837503Y-138023762D01*
X135026238Y-138212497D01*
X135248167Y-138360785D01*
X135494761Y-138462928D01*
X135756544Y-138515000D01*
X136023456Y-138515000D01*
X136285239Y-138462928D01*
X136531833Y-138360785D01*
X136630287Y-138295000D01*
X137324869Y-138295000D01*
X138565000Y-139535132D01*
X138565001Y-146820000D01*
X136630287Y-146820000D01*
X136531833Y-146754215D01*
X136285239Y-146652072D01*
X136023456Y-146600000D01*
X135756544Y-146600000D01*
X135494761Y-146652072D01*
X135248167Y-146754215D01*
X135026238Y-146902503D01*
X134837503Y-147091238D01*
X134689215Y-147313167D01*
X134587072Y-147559761D01*
X134535000Y-147821544D01*
X134535000Y-148088456D01*
X134587072Y-148350239D01*
X134689215Y-148596833D01*
X134837503Y-148818762D01*
X135026238Y-149007497D01*
X135248167Y-149155785D01*
X135494761Y-149257928D01*
X135756544Y-149310000D01*
X136023456Y-149310000D01*
X136285239Y-149257928D01*
X136531833Y-149155785D01*
X136630287Y-149090000D01*
X138565001Y-149090000D01*
X138565000Y-156374868D01*
X137324869Y-157615000D01*
X136630287Y-157615000D01*
X136531833Y-157549215D01*
X136285239Y-157447072D01*
X136023456Y-157395000D01*
X135756544Y-157395000D01*
X135494761Y-157447072D01*
X135248167Y-157549215D01*
X135026238Y-157697503D01*
X134837503Y-157886238D01*
X134689215Y-158108167D01*
X134587072Y-158354761D01*
X134535000Y-158616544D01*
X134535000Y-158883456D01*
X134587072Y-159145239D01*
X134689215Y-159391833D01*
X134837503Y-159613762D01*
X135026238Y-159802497D01*
X135248167Y-159950785D01*
X135494761Y-160052928D01*
X135756544Y-160105000D01*
X136023456Y-160105000D01*
X136285239Y-160052928D01*
X136531833Y-159950785D01*
X136630287Y-159885000D01*
X137739249Y-159885000D01*
X137795000Y-159890491D01*
X137850751Y-159885000D01*
X137850752Y-159885000D01*
X138017499Y-159868577D01*
X138231447Y-159803676D01*
X138428623Y-159698284D01*
X138601449Y-159556449D01*
X138636996Y-159513135D01*
X140463141Y-157686991D01*
X140470000Y-157681362D01*
X140470000Y-167804867D01*
X135419869Y-172855000D01*
X86830133Y-172855000D01*
X85096748Y-171121616D01*
X85261449Y-170986449D01*
X85296996Y-170943135D01*
X87465132Y-168775000D01*
X88776910Y-168775000D01*
X88725820Y-168790498D01*
X88615506Y-168849463D01*
X88518815Y-168928815D01*
X88439463Y-169025506D01*
X88380498Y-169135820D01*
X88344188Y-169255518D01*
X88331928Y-169380000D01*
X88331928Y-170980000D01*
X88344188Y-171104482D01*
X88380498Y-171224180D01*
X88439463Y-171334494D01*
X88518815Y-171431185D01*
X88615506Y-171510537D01*
X88725820Y-171569502D01*
X88845518Y-171605812D01*
X88970000Y-171618072D01*
X91370000Y-171618072D01*
X91494482Y-171605812D01*
X91614180Y-171569502D01*
X91724494Y-171510537D01*
X91821185Y-171431185D01*
X91900537Y-171334494D01*
X91910957Y-171315000D01*
X98810716Y-171315000D01*
X99015273Y-171451680D01*
X99276426Y-171559853D01*
X99553665Y-171615000D01*
X99836335Y-171615000D01*
X100113574Y-171559853D01*
X100374727Y-171451680D01*
X100609759Y-171294637D01*
X100809637Y-171094759D01*
X100966680Y-170859727D01*
X101045257Y-170670023D01*
X113586259Y-170670023D01*
X113634790Y-170787212D01*
X113778234Y-171029203D01*
X113966132Y-171238560D01*
X114191263Y-171407237D01*
X114444976Y-171528752D01*
X114662000Y-171430053D01*
X114662000Y-170453000D01*
X115208000Y-170453000D01*
X115208000Y-171430053D01*
X115425024Y-171528752D01*
X115678737Y-171407237D01*
X115903868Y-171238560D01*
X116091766Y-171029203D01*
X116235210Y-170787212D01*
X116283741Y-170670023D01*
X116181710Y-170453000D01*
X115208000Y-170453000D01*
X114662000Y-170453000D01*
X113688290Y-170453000D01*
X113586259Y-170670023D01*
X101045257Y-170670023D01*
X101074853Y-170598574D01*
X101130000Y-170321335D01*
X101130000Y-170038665D01*
X101074853Y-169761426D01*
X101045258Y-169689977D01*
X113586259Y-169689977D01*
X113688290Y-169907000D01*
X114662000Y-169907000D01*
X114662000Y-168929947D01*
X115208000Y-168929947D01*
X115208000Y-169907000D01*
X116181710Y-169907000D01*
X116283741Y-169689977D01*
X116235210Y-169572788D01*
X116091766Y-169330797D01*
X115903868Y-169121440D01*
X115678737Y-168952763D01*
X115425024Y-168831248D01*
X115208000Y-168929947D01*
X114662000Y-168929947D01*
X114444976Y-168831248D01*
X114191263Y-168952763D01*
X113966132Y-169121440D01*
X113778234Y-169330797D01*
X113634790Y-169572788D01*
X113586259Y-169689977D01*
X101045258Y-169689977D01*
X100966680Y-169500273D01*
X100809637Y-169265241D01*
X100609759Y-169065363D01*
X100374727Y-168908320D01*
X100113574Y-168800147D01*
X99836335Y-168745000D01*
X99553665Y-168745000D01*
X99276426Y-168800147D01*
X99015273Y-168908320D01*
X98810716Y-169045000D01*
X91910957Y-169045000D01*
X91900537Y-169025506D01*
X91821185Y-168928815D01*
X91724494Y-168849463D01*
X91614180Y-168790498D01*
X91563090Y-168775000D01*
X93910712Y-168775000D01*
X93982641Y-168823061D01*
X94225595Y-168923696D01*
X94483514Y-168975000D01*
X94746486Y-168975000D01*
X95004405Y-168923696D01*
X95247359Y-168823061D01*
X95466013Y-168676962D01*
X95651962Y-168491013D01*
X95798061Y-168272359D01*
X95898696Y-168029405D01*
X95950000Y-167771486D01*
X95950000Y-167508514D01*
X95898696Y-167250595D01*
X95798061Y-167007641D01*
X95651962Y-166788987D01*
X95466013Y-166603038D01*
X95247359Y-166456939D01*
X95004405Y-166356304D01*
X94746486Y-166305000D01*
X94483514Y-166305000D01*
X94225595Y-166356304D01*
X93982641Y-166456939D01*
X93910712Y-166505000D01*
X91449002Y-166505000D01*
X91371101Y-166441068D01*
X91238142Y-166370000D01*
X91371101Y-166298932D01*
X91449002Y-166235000D01*
X93289249Y-166235000D01*
X93345000Y-166240491D01*
X93400751Y-166235000D01*
X93400752Y-166235000D01*
X93567499Y-166218577D01*
X93781447Y-166153676D01*
X93978623Y-166048284D01*
X94151449Y-165906449D01*
X94186996Y-165863135D01*
X95378140Y-164671992D01*
X95421449Y-164636449D01*
X95563284Y-164463623D01*
X95668676Y-164266447D01*
X95733577Y-164052499D01*
X95750000Y-163885752D01*
X95750000Y-163885745D01*
X95755490Y-163830001D01*
X95750000Y-163774257D01*
X95750000Y-158860000D01*
X101034286Y-158860000D01*
X101034286Y-165230000D01*
X118675715Y-165230000D01*
X118675715Y-164851356D01*
X135254725Y-164851356D01*
X135326811Y-165069618D01*
X135579471Y-165155672D01*
X135844063Y-165190781D01*
X136110421Y-165173596D01*
X136368308Y-165104778D01*
X136453189Y-165069618D01*
X136525275Y-164851356D01*
X135890000Y-164216080D01*
X135254725Y-164851356D01*
X118675715Y-164851356D01*
X118675715Y-163784063D01*
X134529219Y-163784063D01*
X134546404Y-164050421D01*
X134615222Y-164308308D01*
X134650382Y-164393189D01*
X134868644Y-164465275D01*
X135503920Y-163830000D01*
X136276080Y-163830000D01*
X136911356Y-164465275D01*
X137129618Y-164393189D01*
X137215672Y-164140529D01*
X137250781Y-163875937D01*
X137233596Y-163609579D01*
X137164778Y-163351692D01*
X137129618Y-163266811D01*
X136911356Y-163194725D01*
X136276080Y-163830000D01*
X135503920Y-163830000D01*
X134868644Y-163194725D01*
X134650382Y-163266811D01*
X134564328Y-163519471D01*
X134529219Y-163784063D01*
X118675715Y-163784063D01*
X118675715Y-162808644D01*
X135254725Y-162808644D01*
X135890000Y-163443920D01*
X136525275Y-162808644D01*
X136453189Y-162590382D01*
X136200529Y-162504328D01*
X135935937Y-162469219D01*
X135669579Y-162486404D01*
X135411692Y-162555222D01*
X135326811Y-162590382D01*
X135254725Y-162808644D01*
X118675715Y-162808644D01*
X118675715Y-158860000D01*
X101034286Y-158860000D01*
X95750000Y-158860000D01*
X95750000Y-151600131D01*
X96355132Y-150995000D01*
X109164249Y-150995000D01*
X109220000Y-151000491D01*
X109275751Y-150995000D01*
X109275752Y-150995000D01*
X109442499Y-150978577D01*
X109656447Y-150913676D01*
X109853623Y-150808284D01*
X110026449Y-150666449D01*
X110061996Y-150623135D01*
X111253140Y-149431992D01*
X111296449Y-149396449D01*
X111438284Y-149223623D01*
X111543676Y-149026447D01*
X111608577Y-148812499D01*
X111625000Y-148645752D01*
X111625000Y-148645745D01*
X111630490Y-148590001D01*
X111625000Y-148534257D01*
X111625000Y-147155131D01*
X112230132Y-146550000D01*
X115874893Y-146550000D01*
X115893368Y-146568475D01*
X116067760Y-146685000D01*
X115893368Y-146801525D01*
X115686525Y-147008368D01*
X115524010Y-147251589D01*
X115412068Y-147521842D01*
X115355000Y-147808740D01*
X115355000Y-148101260D01*
X115412068Y-148388158D01*
X115524010Y-148658411D01*
X115686525Y-148901632D01*
X115893368Y-149108475D01*
X116067760Y-149225000D01*
X115893368Y-149341525D01*
X115686525Y-149548368D01*
X115524010Y-149791589D01*
X115412068Y-150061842D01*
X115355000Y-150348740D01*
X115355000Y-150641260D01*
X115412068Y-150928158D01*
X115524010Y-151198411D01*
X115686525Y-151441632D01*
X115893368Y-151648475D01*
X116067760Y-151765000D01*
X115893368Y-151881525D01*
X115686525Y-152088368D01*
X115524010Y-152331589D01*
X115412068Y-152601842D01*
X115355000Y-152888740D01*
X115355000Y-153181260D01*
X115412068Y-153468158D01*
X115524010Y-153738411D01*
X115686525Y-153981632D01*
X115893368Y-154188475D01*
X116136589Y-154350990D01*
X116406842Y-154462932D01*
X116693740Y-154520000D01*
X116986260Y-154520000D01*
X117273158Y-154462932D01*
X117543411Y-154350990D01*
X117786632Y-154188475D01*
X117805107Y-154170000D01*
X118414893Y-154170000D01*
X118433368Y-154188475D01*
X118676589Y-154350990D01*
X118946842Y-154462932D01*
X119233740Y-154520000D01*
X119526260Y-154520000D01*
X119813158Y-154462932D01*
X120083411Y-154350990D01*
X120326632Y-154188475D01*
X120345107Y-154170000D01*
X124624869Y-154170000D01*
X132023971Y-161569103D01*
X132047072Y-161685239D01*
X132149215Y-161931833D01*
X132297503Y-162153762D01*
X132486238Y-162342497D01*
X132708167Y-162490785D01*
X132954761Y-162592928D01*
X133216544Y-162645000D01*
X133483456Y-162645000D01*
X133745239Y-162592928D01*
X133991833Y-162490785D01*
X134213762Y-162342497D01*
X134402497Y-162153762D01*
X134550785Y-161931833D01*
X134652928Y-161685239D01*
X134705000Y-161423456D01*
X134705000Y-161156544D01*
X134652928Y-160894761D01*
X134550785Y-160648167D01*
X134402497Y-160426238D01*
X134213762Y-160237503D01*
X133991833Y-160089215D01*
X133745239Y-159987072D01*
X133629103Y-159963971D01*
X127721488Y-154056356D01*
X135254725Y-154056356D01*
X135326811Y-154274618D01*
X135579471Y-154360672D01*
X135844063Y-154395781D01*
X136110421Y-154378596D01*
X136368308Y-154309778D01*
X136453189Y-154274618D01*
X136525275Y-154056356D01*
X135890000Y-153421080D01*
X135254725Y-154056356D01*
X127721488Y-154056356D01*
X126654195Y-152989063D01*
X134529219Y-152989063D01*
X134546404Y-153255421D01*
X134615222Y-153513308D01*
X134650382Y-153598189D01*
X134868644Y-153670275D01*
X135503920Y-153035000D01*
X136276080Y-153035000D01*
X136911356Y-153670275D01*
X137129618Y-153598189D01*
X137215672Y-153345529D01*
X137250781Y-153080937D01*
X137233596Y-152814579D01*
X137164778Y-152556692D01*
X137129618Y-152471811D01*
X136911356Y-152399725D01*
X136276080Y-153035000D01*
X135503920Y-153035000D01*
X134868644Y-152399725D01*
X134650382Y-152471811D01*
X134564328Y-152724471D01*
X134529219Y-152989063D01*
X126654195Y-152989063D01*
X125936996Y-152271865D01*
X125901449Y-152228551D01*
X125728623Y-152086716D01*
X125591914Y-152013644D01*
X135254725Y-152013644D01*
X135890000Y-152648920D01*
X136525275Y-152013644D01*
X136453189Y-151795382D01*
X136200529Y-151709328D01*
X135935937Y-151674219D01*
X135669579Y-151691404D01*
X135411692Y-151760222D01*
X135326811Y-151795382D01*
X135254725Y-152013644D01*
X125591914Y-152013644D01*
X125531447Y-151981324D01*
X125317499Y-151916423D01*
X125150752Y-151900000D01*
X125150751Y-151900000D01*
X125095000Y-151894509D01*
X125039249Y-151900000D01*
X120345107Y-151900000D01*
X120326632Y-151881525D01*
X120152240Y-151765000D01*
X120326632Y-151648475D01*
X120345107Y-151630000D01*
X132609713Y-151630000D01*
X132708167Y-151695785D01*
X132954761Y-151797928D01*
X133216544Y-151850000D01*
X133483456Y-151850000D01*
X133745239Y-151797928D01*
X133991833Y-151695785D01*
X134213762Y-151547497D01*
X134402497Y-151358762D01*
X134550785Y-151136833D01*
X134652928Y-150890239D01*
X134705000Y-150628456D01*
X134705000Y-150361544D01*
X134652928Y-150099761D01*
X134550785Y-149853167D01*
X134402497Y-149631238D01*
X134213762Y-149442503D01*
X133991833Y-149294215D01*
X133745239Y-149192072D01*
X133483456Y-149140000D01*
X133216544Y-149140000D01*
X132954761Y-149192072D01*
X132708167Y-149294215D01*
X132609713Y-149360000D01*
X120345107Y-149360000D01*
X120326632Y-149341525D01*
X120152240Y-149225000D01*
X120326632Y-149108475D01*
X120345107Y-149090000D01*
X126309249Y-149090000D01*
X126365000Y-149095491D01*
X126420751Y-149090000D01*
X126420752Y-149090000D01*
X126587499Y-149073577D01*
X126801447Y-149008676D01*
X126998623Y-148903284D01*
X127171449Y-148761449D01*
X127206996Y-148718135D01*
X132663775Y-143261356D01*
X135254725Y-143261356D01*
X135326811Y-143479618D01*
X135579471Y-143565672D01*
X135844063Y-143600781D01*
X136110421Y-143583596D01*
X136368308Y-143514778D01*
X136453189Y-143479618D01*
X136525275Y-143261356D01*
X135890000Y-142626080D01*
X135254725Y-143261356D01*
X132663775Y-143261356D01*
X133731069Y-142194063D01*
X134529219Y-142194063D01*
X134546404Y-142460421D01*
X134615222Y-142718308D01*
X134650382Y-142803189D01*
X134868644Y-142875275D01*
X135503920Y-142240000D01*
X136276080Y-142240000D01*
X136911356Y-142875275D01*
X137129618Y-142803189D01*
X137215672Y-142550529D01*
X137250781Y-142285937D01*
X137233596Y-142019579D01*
X137164778Y-141761692D01*
X137129618Y-141676811D01*
X136911356Y-141604725D01*
X136276080Y-142240000D01*
X135503920Y-142240000D01*
X134868644Y-141604725D01*
X134650382Y-141676811D01*
X134564328Y-141929471D01*
X134529219Y-142194063D01*
X133731069Y-142194063D01*
X134113146Y-141811987D01*
X134156449Y-141776449D01*
X134202361Y-141720506D01*
X134298284Y-141603623D01*
X134403676Y-141406447D01*
X134460645Y-141218644D01*
X135254725Y-141218644D01*
X135890000Y-141853920D01*
X136525275Y-141218644D01*
X136453189Y-141000382D01*
X136200529Y-140914328D01*
X135935937Y-140879219D01*
X135669579Y-140896404D01*
X135411692Y-140965222D01*
X135326811Y-141000382D01*
X135254725Y-141218644D01*
X134460645Y-141218644D01*
X134468577Y-141192499D01*
X134490491Y-140970000D01*
X134485000Y-140914248D01*
X134485000Y-140440287D01*
X134550785Y-140341833D01*
X134652928Y-140095239D01*
X134705000Y-139833456D01*
X134705000Y-139566544D01*
X134652928Y-139304761D01*
X134550785Y-139058167D01*
X134402497Y-138836238D01*
X134213762Y-138647503D01*
X133991833Y-138499215D01*
X133745239Y-138397072D01*
X133483456Y-138345000D01*
X133216544Y-138345000D01*
X132954761Y-138397072D01*
X132708167Y-138499215D01*
X132486238Y-138647503D01*
X132297503Y-138836238D01*
X132149215Y-139058167D01*
X132047072Y-139304761D01*
X131995000Y-139566544D01*
X131995000Y-139833456D01*
X132047072Y-140095239D01*
X132149215Y-140341833D01*
X132215000Y-140440287D01*
X132215000Y-140499867D01*
X125894869Y-146820000D01*
X120345107Y-146820000D01*
X120326632Y-146801525D01*
X120152240Y-146685000D01*
X120326632Y-146568475D01*
X120533475Y-146361632D01*
X120695990Y-146118411D01*
X120807932Y-145848158D01*
X120865000Y-145561260D01*
X120865000Y-145268740D01*
X120807932Y-144981842D01*
X120695990Y-144711589D01*
X120533475Y-144468368D01*
X120326632Y-144261525D01*
X120152240Y-144145000D01*
X120326632Y-144028475D01*
X120533475Y-143821632D01*
X120695990Y-143578411D01*
X120807932Y-143308158D01*
X120865000Y-143021260D01*
X120865000Y-142728740D01*
X120807932Y-142441842D01*
X120695990Y-142171589D01*
X120533475Y-141928368D01*
X120326632Y-141721525D01*
X120152240Y-141605000D01*
X120326632Y-141488475D01*
X120533475Y-141281632D01*
X120695990Y-141038411D01*
X120807932Y-140768158D01*
X120865000Y-140481260D01*
X120865000Y-140188740D01*
X120807932Y-139901842D01*
X120695990Y-139631589D01*
X120533475Y-139388368D01*
X120326632Y-139181525D01*
X120152240Y-139065000D01*
X120326632Y-138948475D01*
X120533475Y-138741632D01*
X120695990Y-138498411D01*
X120807932Y-138228158D01*
X120865000Y-137941260D01*
X120865000Y-137648740D01*
X120807932Y-137361842D01*
X120695990Y-137091589D01*
X120533475Y-136848368D01*
X120326632Y-136641525D01*
X120150067Y-136523548D01*
X120375462Y-136356958D01*
X120571316Y-136141579D01*
X120721388Y-135892129D01*
X120779012Y-135752985D01*
X120677848Y-135528000D01*
X119653000Y-135528000D01*
X119653000Y-135548000D01*
X119107000Y-135548000D01*
X119107000Y-135528000D01*
X117113000Y-135528000D01*
X117113000Y-135548000D01*
X116567000Y-135548000D01*
X116567000Y-135528000D01*
X115542152Y-135528000D01*
X115440988Y-135752985D01*
X115498612Y-135892129D01*
X115648684Y-136141579D01*
X115844538Y-136356958D01*
X116069933Y-136523548D01*
X115893368Y-136641525D01*
X115874893Y-136660000D01*
X114135132Y-136660000D01*
X109426996Y-131951865D01*
X109391449Y-131908551D01*
X109218623Y-131766716D01*
X109021447Y-131661324D01*
X108807499Y-131596423D01*
X108640752Y-131580000D01*
X108640751Y-131580000D01*
X108585000Y-131574509D01*
X108529249Y-131580000D01*
X104784002Y-131580000D01*
X104706101Y-131516068D01*
X104573142Y-131445000D01*
X104706101Y-131373932D01*
X104924608Y-131194608D01*
X105103932Y-130976101D01*
X105237182Y-130726808D01*
X105319236Y-130456309D01*
X105346943Y-130175000D01*
X105319236Y-129893691D01*
X105237182Y-129623192D01*
X105103932Y-129373899D01*
X104924608Y-129155392D01*
X104706101Y-128976068D01*
X104588093Y-128912991D01*
X104793983Y-128783791D01*
X105001019Y-128588285D01*
X105165936Y-128356145D01*
X105253741Y-128125023D01*
X105151710Y-127908000D01*
X103778000Y-127908000D01*
X103778000Y-127928000D01*
X103232000Y-127928000D01*
X103232000Y-127908000D01*
X101858290Y-127908000D01*
X101756259Y-128125023D01*
X101844064Y-128356145D01*
X102008981Y-128588285D01*
X102216017Y-128783791D01*
X102421907Y-128912991D01*
X102303899Y-128976068D01*
X102225998Y-129040000D01*
X101020743Y-129040000D01*
X100964999Y-129034510D01*
X100909255Y-129040000D01*
X100909248Y-129040000D01*
X100763493Y-129054356D01*
X100742500Y-129056423D01*
X100697744Y-129070000D01*
X100528553Y-129121324D01*
X100331377Y-129226716D01*
X100158551Y-129368551D01*
X100123008Y-129411860D01*
X98931860Y-130603009D01*
X98888552Y-130638551D01*
X98746717Y-130811377D01*
X98710887Y-130878411D01*
X98641324Y-131008554D01*
X98576423Y-131222502D01*
X98554509Y-131445000D01*
X98560001Y-131500761D01*
X98560000Y-132879868D01*
X97319869Y-134120000D01*
X97164002Y-134120000D01*
X97086101Y-134056068D01*
X96953142Y-133985000D01*
X97086101Y-133913932D01*
X97304608Y-133734608D01*
X97483932Y-133516101D01*
X97617182Y-133266808D01*
X97699236Y-132996309D01*
X97726943Y-132715000D01*
X97699236Y-132433691D01*
X97617182Y-132163192D01*
X97483932Y-131913899D01*
X97304608Y-131695392D01*
X97086101Y-131516068D01*
X96953142Y-131445000D01*
X97086101Y-131373932D01*
X97304608Y-131194608D01*
X97483932Y-130976101D01*
X97617182Y-130726808D01*
X97699236Y-130456309D01*
X97726943Y-130175000D01*
X97699236Y-129893691D01*
X97617182Y-129623192D01*
X97483932Y-129373899D01*
X97304608Y-129155392D01*
X97086101Y-128976068D01*
X96953142Y-128905000D01*
X97086101Y-128833932D01*
X97304608Y-128654608D01*
X97483932Y-128436101D01*
X97617182Y-128186808D01*
X97699236Y-127916309D01*
X97726943Y-127635000D01*
X97699236Y-127353691D01*
X97635925Y-127144977D01*
X101756259Y-127144977D01*
X101858290Y-127362000D01*
X103232000Y-127362000D01*
X103232000Y-126346725D01*
X103778000Y-126346725D01*
X103778000Y-127362000D01*
X105151710Y-127362000D01*
X105253741Y-127144977D01*
X105165936Y-126913855D01*
X105001019Y-126681715D01*
X104793983Y-126486209D01*
X104552783Y-126334851D01*
X104286690Y-126233457D01*
X104005928Y-126185923D01*
X103778000Y-126346725D01*
X103232000Y-126346725D01*
X103004072Y-126185923D01*
X102723310Y-126233457D01*
X102457217Y-126334851D01*
X102216017Y-126486209D01*
X102008981Y-126681715D01*
X101844064Y-126913855D01*
X101756259Y-127144977D01*
X97635925Y-127144977D01*
X97617182Y-127083192D01*
X97483932Y-126833899D01*
X97304608Y-126615392D01*
X97086101Y-126436068D01*
X96836808Y-126302818D01*
X96566309Y-126220764D01*
X96355492Y-126200000D01*
X95414508Y-126200000D01*
X95203691Y-126220764D01*
X94933192Y-126302818D01*
X94683899Y-126436068D01*
X94465392Y-126615392D01*
X94286068Y-126833899D01*
X94152818Y-127083192D01*
X94070764Y-127353691D01*
X94043057Y-127635000D01*
X94070764Y-127916309D01*
X94152818Y-128186808D01*
X94286068Y-128436101D01*
X94465392Y-128654608D01*
X94683899Y-128833932D01*
X94816858Y-128905000D01*
X94683899Y-128976068D01*
X94465392Y-129155392D01*
X94286068Y-129373899D01*
X94152818Y-129623192D01*
X94070764Y-129893691D01*
X94043057Y-130175000D01*
X94070764Y-130456309D01*
X94152818Y-130726808D01*
X94286068Y-130976101D01*
X94465392Y-131194608D01*
X94683899Y-131373932D01*
X94816858Y-131445000D01*
X94683899Y-131516068D01*
X94465392Y-131695392D01*
X94286068Y-131913899D01*
X94152818Y-132163192D01*
X94070764Y-132433691D01*
X94043057Y-132715000D01*
X94070764Y-132996309D01*
X94152818Y-133266808D01*
X94286068Y-133516101D01*
X94465392Y-133734608D01*
X94683899Y-133913932D01*
X94816858Y-133985000D01*
X94683899Y-134056068D01*
X94465392Y-134235392D01*
X94286068Y-134453899D01*
X94152818Y-134703192D01*
X94070764Y-134973691D01*
X94043057Y-135255000D01*
X94070764Y-135536309D01*
X94152818Y-135806808D01*
X94286068Y-136056101D01*
X94465392Y-136274608D01*
X94683899Y-136453932D01*
X94816858Y-136525000D01*
X94683899Y-136596068D01*
X94465392Y-136775392D01*
X94286068Y-136993899D01*
X94152818Y-137243192D01*
X94070764Y-137513691D01*
X94043057Y-137795000D01*
X94070764Y-138076309D01*
X94152818Y-138346808D01*
X94286068Y-138596101D01*
X94465392Y-138814608D01*
X94683899Y-138993932D01*
X94750000Y-139029264D01*
X94750001Y-139100736D01*
X94683899Y-139136068D01*
X94465392Y-139315392D01*
X94286068Y-139533899D01*
X94152818Y-139783192D01*
X94070764Y-140053691D01*
X94043057Y-140335000D01*
X94070764Y-140616309D01*
X94152818Y-140886808D01*
X94286068Y-141136101D01*
X94465392Y-141354608D01*
X94683899Y-141533932D01*
X94816858Y-141605000D01*
X94683899Y-141676068D01*
X94465392Y-141855392D01*
X94286068Y-142073899D01*
X94152818Y-142323192D01*
X94070764Y-142593691D01*
X94043057Y-142875000D01*
X94070764Y-143156309D01*
X94152818Y-143426808D01*
X94286068Y-143676101D01*
X94465392Y-143894608D01*
X94683899Y-144073932D01*
X94750001Y-144109264D01*
X94750001Y-144309868D01*
X94310442Y-144749427D01*
X94225595Y-144766304D01*
X93982641Y-144866939D01*
X93910712Y-144915000D01*
X81220132Y-144915000D01*
X80510000Y-144204868D01*
X80510000Y-144109264D01*
X80576101Y-144073932D01*
X80794608Y-143894608D01*
X80973932Y-143676101D01*
X81107182Y-143426808D01*
X81189236Y-143156309D01*
X81216943Y-142875000D01*
X81189236Y-142593691D01*
X81107182Y-142323192D01*
X80973932Y-142073899D01*
X80794608Y-141855392D01*
X80576101Y-141676068D01*
X80443142Y-141605000D01*
X80576101Y-141533932D01*
X80654002Y-141470000D01*
X81859249Y-141470000D01*
X81915000Y-141475491D01*
X81970751Y-141470000D01*
X81970752Y-141470000D01*
X82137499Y-141453577D01*
X82351447Y-141388676D01*
X82548623Y-141283284D01*
X82721449Y-141141449D01*
X82756996Y-141098135D01*
X83948140Y-139906992D01*
X83991449Y-139871449D01*
X84133284Y-139698623D01*
X84238676Y-139501447D01*
X84303577Y-139287499D01*
X84320000Y-139120752D01*
X84320000Y-139120745D01*
X84325490Y-139065001D01*
X84320000Y-139009257D01*
X84320000Y-136995131D01*
X84925132Y-136390000D01*
X85715998Y-136390000D01*
X85793899Y-136453932D01*
X85926858Y-136525000D01*
X85793899Y-136596068D01*
X85575392Y-136775392D01*
X85396068Y-136993899D01*
X85262818Y-137243192D01*
X85180764Y-137513691D01*
X85153057Y-137795000D01*
X85180764Y-138076309D01*
X85262818Y-138346808D01*
X85396068Y-138596101D01*
X85575392Y-138814608D01*
X85793899Y-138993932D01*
X85926858Y-139065000D01*
X85793899Y-139136068D01*
X85575392Y-139315392D01*
X85396068Y-139533899D01*
X85262818Y-139783192D01*
X85180764Y-140053691D01*
X85153057Y-140335000D01*
X85180764Y-140616309D01*
X85262818Y-140886808D01*
X85396068Y-141136101D01*
X85575392Y-141354608D01*
X85688482Y-141447419D01*
X85670518Y-141449188D01*
X85550820Y-141485498D01*
X85440506Y-141544463D01*
X85343815Y-141623815D01*
X85264463Y-141720506D01*
X85205498Y-141830820D01*
X85169188Y-141950518D01*
X85156928Y-142075000D01*
X85156928Y-143675000D01*
X85169188Y-143799482D01*
X85205498Y-143919180D01*
X85264463Y-144029494D01*
X85343815Y-144126185D01*
X85440506Y-144205537D01*
X85550820Y-144264502D01*
X85670518Y-144300812D01*
X85795000Y-144313072D01*
X88195000Y-144313072D01*
X88319482Y-144300812D01*
X88439180Y-144264502D01*
X88549494Y-144205537D01*
X88646185Y-144126185D01*
X88725537Y-144029494D01*
X88784502Y-143919180D01*
X88820812Y-143799482D01*
X88833072Y-143675000D01*
X88833072Y-142075000D01*
X88820812Y-141950518D01*
X88784502Y-141830820D01*
X88725537Y-141720506D01*
X88646185Y-141623815D01*
X88549494Y-141544463D01*
X88439180Y-141485498D01*
X88319482Y-141449188D01*
X88301518Y-141447419D01*
X88414608Y-141354608D01*
X88593932Y-141136101D01*
X88727182Y-140886808D01*
X88809236Y-140616309D01*
X88836943Y-140335000D01*
X88809236Y-140053691D01*
X88727182Y-139783192D01*
X88593932Y-139533899D01*
X88414608Y-139315392D01*
X88196101Y-139136068D01*
X88063142Y-139065000D01*
X88196101Y-138993932D01*
X88414608Y-138814608D01*
X88593932Y-138596101D01*
X88727182Y-138346808D01*
X88809236Y-138076309D01*
X88836943Y-137795000D01*
X88809236Y-137513691D01*
X88727182Y-137243192D01*
X88593932Y-136993899D01*
X88414608Y-136775392D01*
X88196101Y-136596068D01*
X88063142Y-136525000D01*
X88196101Y-136453932D01*
X88414608Y-136274608D01*
X88593932Y-136056101D01*
X88727182Y-135806808D01*
X88809236Y-135536309D01*
X88836943Y-135255000D01*
X88809236Y-134973691D01*
X88727182Y-134703192D01*
X88593932Y-134453899D01*
X88414608Y-134235392D01*
X88196101Y-134056068D01*
X88063142Y-133985000D01*
X88196101Y-133913932D01*
X88274002Y-133850000D01*
X90100712Y-133850000D01*
X90172641Y-133898061D01*
X90415595Y-133998696D01*
X90673514Y-134050000D01*
X90936486Y-134050000D01*
X91194405Y-133998696D01*
X91437359Y-133898061D01*
X91656013Y-133751962D01*
X91841962Y-133566013D01*
X91988061Y-133347359D01*
X92088696Y-133104405D01*
X92140000Y-132846486D01*
X92140000Y-132583514D01*
X92088696Y-132325595D01*
X91988061Y-132082641D01*
X91841962Y-131863987D01*
X91656013Y-131678038D01*
X91437359Y-131531939D01*
X91194405Y-131431304D01*
X90936486Y-131380000D01*
X90673514Y-131380000D01*
X90415595Y-131431304D01*
X90172641Y-131531939D01*
X90100712Y-131580000D01*
X88274002Y-131580000D01*
X88196101Y-131516068D01*
X88130000Y-131480736D01*
X88130000Y-131409264D01*
X88196101Y-131373932D01*
X88414608Y-131194608D01*
X88593932Y-130976101D01*
X88727182Y-130726808D01*
X88809236Y-130456309D01*
X88836943Y-130175000D01*
X88809236Y-129893691D01*
X88727182Y-129623192D01*
X88593932Y-129373899D01*
X88414608Y-129155392D01*
X88196101Y-128976068D01*
X88078093Y-128912991D01*
X88283983Y-128783791D01*
X88491019Y-128588285D01*
X88655936Y-128356145D01*
X88743741Y-128125023D01*
X88641710Y-127908000D01*
X87268000Y-127908000D01*
X87268000Y-127928000D01*
X86722000Y-127928000D01*
X86722000Y-127908000D01*
X85348290Y-127908000D01*
X85246259Y-128125023D01*
X85334064Y-128356145D01*
X85498981Y-128588285D01*
X85706017Y-128783791D01*
X85911907Y-128912991D01*
X85793899Y-128976068D01*
X85575392Y-129155392D01*
X85396068Y-129373899D01*
X85262818Y-129623192D01*
X85180764Y-129893691D01*
X85153057Y-130175000D01*
X85180764Y-130456309D01*
X85262818Y-130726808D01*
X85396068Y-130976101D01*
X85575392Y-131194608D01*
X85793899Y-131373932D01*
X85860000Y-131409264D01*
X85860001Y-131480736D01*
X85793899Y-131516068D01*
X85575392Y-131695392D01*
X85396068Y-131913899D01*
X85262818Y-132163192D01*
X85180764Y-132433691D01*
X85153057Y-132715000D01*
X85180764Y-132996309D01*
X85262818Y-133266808D01*
X85396068Y-133516101D01*
X85575392Y-133734608D01*
X85793899Y-133913932D01*
X85926858Y-133985000D01*
X85793899Y-134056068D01*
X85715998Y-134120000D01*
X84510743Y-134120000D01*
X84454999Y-134114510D01*
X84399255Y-134120000D01*
X84399248Y-134120000D01*
X84311342Y-134128658D01*
X84320000Y-134040752D01*
X84320000Y-134040745D01*
X84325490Y-133985001D01*
X84320000Y-133929257D01*
X84320000Y-128960743D01*
X84325490Y-128904999D01*
X84320000Y-128849255D01*
X84320000Y-128849248D01*
X84303577Y-128682501D01*
X84238676Y-128468553D01*
X84133284Y-128271377D01*
X83991449Y-128098551D01*
X83948140Y-128063008D01*
X83030109Y-127144977D01*
X85246259Y-127144977D01*
X85348290Y-127362000D01*
X86722000Y-127362000D01*
X86722000Y-126346725D01*
X87268000Y-126346725D01*
X87268000Y-127362000D01*
X88641710Y-127362000D01*
X88743741Y-127144977D01*
X88655936Y-126913855D01*
X88491019Y-126681715D01*
X88283983Y-126486209D01*
X88042783Y-126334851D01*
X87776690Y-126233457D01*
X87495928Y-126185923D01*
X87268000Y-126346725D01*
X86722000Y-126346725D01*
X86494072Y-126185923D01*
X86213310Y-126233457D01*
X85947217Y-126334851D01*
X85706017Y-126486209D01*
X85498981Y-126681715D01*
X85334064Y-126913855D01*
X85246259Y-127144977D01*
X83030109Y-127144977D01*
X82756996Y-126871865D01*
X82721449Y-126828551D01*
X82548623Y-126686716D01*
X82351447Y-126581324D01*
X82137499Y-126516423D01*
X81970752Y-126500000D01*
X81970751Y-126500000D01*
X81915000Y-126494509D01*
X81859249Y-126500000D01*
X80654002Y-126500000D01*
X80576101Y-126436068D01*
X80326808Y-126302818D01*
X80056309Y-126220764D01*
X79845492Y-126200000D01*
X78904508Y-126200000D01*
X78693691Y-126220764D01*
X78423192Y-126302818D01*
X78173899Y-126436068D01*
X77955392Y-126615392D01*
X77776068Y-126833899D01*
X77642818Y-127083192D01*
X77560764Y-127353691D01*
X77533057Y-127635000D01*
X77560764Y-127916309D01*
X77642818Y-128186808D01*
X77776068Y-128436101D01*
X77955392Y-128654608D01*
X78173899Y-128833932D01*
X78240000Y-128869264D01*
X78240001Y-128940736D01*
X78173899Y-128976068D01*
X77955392Y-129155392D01*
X77776068Y-129373899D01*
X77642818Y-129623192D01*
X77560764Y-129893691D01*
X77533057Y-130175000D01*
X77560764Y-130456309D01*
X77642818Y-130726808D01*
X77776068Y-130976101D01*
X77955392Y-131194608D01*
X78173899Y-131373932D01*
X78306858Y-131445000D01*
X78173899Y-131516068D01*
X78095998Y-131580000D01*
X77305132Y-131580000D01*
X75136996Y-129411865D01*
X75101449Y-129368551D01*
X74928623Y-129226716D01*
X74731447Y-129121324D01*
X74517499Y-129056423D01*
X74350752Y-129040000D01*
X74350751Y-129040000D01*
X74295000Y-129034509D01*
X74239249Y-129040000D01*
X72085107Y-129040000D01*
X72066632Y-129021525D01*
X71823411Y-128859010D01*
X71553158Y-128747068D01*
X71266260Y-128690000D01*
X70973740Y-128690000D01*
X70686842Y-128747068D01*
X70416589Y-128859010D01*
X70173368Y-129021525D01*
X69966525Y-129228368D01*
X69804010Y-129471589D01*
X69692068Y-129741842D01*
X69635000Y-130028740D01*
X69635000Y-130321260D01*
X69692068Y-130608158D01*
X69804010Y-130878411D01*
X69966525Y-131121632D01*
X70173368Y-131328475D01*
X70347760Y-131445000D01*
X70173368Y-131561525D01*
X70154893Y-131580000D01*
X69905743Y-131580000D01*
X69849999Y-131574510D01*
X69794255Y-131580000D01*
X69794248Y-131580000D01*
X69648493Y-131594356D01*
X69627500Y-131596423D01*
X69582744Y-131610000D01*
X69413553Y-131661324D01*
X69216377Y-131766716D01*
X69043551Y-131908551D01*
X69008008Y-131951860D01*
X67816865Y-133143004D01*
X67773551Y-133178551D01*
X67631716Y-133351377D01*
X67540812Y-133521448D01*
X67526324Y-133548554D01*
X67461423Y-133762502D01*
X67439509Y-133985000D01*
X64795000Y-133985000D01*
X64795000Y-122423514D01*
X89470000Y-122423514D01*
X89470000Y-122686486D01*
X89521304Y-122944405D01*
X89621939Y-123187359D01*
X89768038Y-123406013D01*
X89953987Y-123591962D01*
X90172641Y-123738061D01*
X90415595Y-123838696D01*
X90673514Y-123890000D01*
X90936486Y-123890000D01*
X91194405Y-123838696D01*
X91437359Y-123738061D01*
X91509288Y-123690000D01*
X107245712Y-123690000D01*
X107317641Y-123738061D01*
X107560595Y-123838696D01*
X107818514Y-123890000D01*
X108081486Y-123890000D01*
X108339405Y-123838696D01*
X108582359Y-123738061D01*
X108801013Y-123591962D01*
X108986962Y-123406013D01*
X109133061Y-123187359D01*
X109233696Y-122944405D01*
X109285000Y-122686486D01*
X109285000Y-122423514D01*
X109233696Y-122165595D01*
X109133061Y-121922641D01*
X108986962Y-121703987D01*
X108801013Y-121518038D01*
X108582359Y-121371939D01*
X108339405Y-121271304D01*
X108081486Y-121220000D01*
X107818514Y-121220000D01*
X107560595Y-121271304D01*
X107317641Y-121371939D01*
X107245712Y-121420000D01*
X91509288Y-121420000D01*
X91437359Y-121371939D01*
X91194405Y-121271304D01*
X90936486Y-121220000D01*
X90673514Y-121220000D01*
X90415595Y-121271304D01*
X90172641Y-121371939D01*
X89953987Y-121518038D01*
X89768038Y-121703987D01*
X89621939Y-121922641D01*
X89521304Y-122165595D01*
X89470000Y-122423514D01*
X64795000Y-122423514D01*
X64795000Y-119405000D01*
X142850000Y-119405000D01*
X142850001Y-175870000D01*
%TD*%
M02*
