M48
; DRILL file {KiCad (5.1.6)-1} date 02/01/21 21:39:42
; FORMAT={-:-/ absolute / inch / decimal}
; #@! TF.CreationDate,2021-02-01T21:39:42+01:00
; #@! TF.GenerationSoftware,Kicad,Pcbnew,(5.1.6)-1
; #@! TF.FileFunction,Plated,1,2,PTH
FMAT,2
INCH
T1C0.0315
T2C0.0394
%
G90
G05
T1
X3.575Y-4.825
X3.575Y-5.225
X3.725Y-5.75
X3.725Y-6.6
X4.25Y-4.825
X4.25Y-5.325
X4.25Y-5.425
X4.25Y-5.825
X5.25Y-5.925
X5.35Y-5.825
X5.35Y-6.025
X5.25Y-5.5
X5.35Y-5.4
X5.35Y-5.6
X3.925Y-6.7
X4.525Y-6.7
X3.125Y-5.025
X3.125Y-5.125
X3.125Y-5.225
X3.125Y-5.325
X3.125Y-5.425
X3.125Y-5.525
X3.125Y-5.625
X3.425Y-5.025
X3.425Y-5.125
X3.425Y-5.225
X3.425Y-5.325
X3.425Y-5.425
X3.425Y-5.525
X3.425Y-5.625
X2.85Y-6.25
X2.85Y-6.85
X3.25Y-6.4
X3.25Y-6.5
X3.25Y-6.6
X3.25Y-6.7
X3.55Y-6.4
X3.55Y-6.5
X3.55Y-6.6
X3.55Y-6.7
X3.775Y-5.025
X3.775Y-5.125
X3.775Y-5.225
X3.775Y-5.325
X3.775Y-5.425
X3.775Y-5.525
X3.775Y-5.625
X4.075Y-5.025
X4.075Y-5.125
X4.075Y-5.225
X4.075Y-5.325
X4.075Y-5.425
X4.075Y-5.525
X4.075Y-5.625
X5.25Y-6.35
X5.35Y-6.25
X5.35Y-6.45
T2
X2.8Y-5.125
X2.8Y-5.225
X2.8Y-5.325
X4.6Y-5.125
X4.6Y-5.225
X4.6Y-5.325
X4.6Y-5.425
X4.6Y-5.525
X4.6Y-5.625
X4.6Y-5.725
X4.6Y-5.825
X4.6Y-5.925
X4.6Y-6.025
X4.7Y-5.125
X4.7Y-5.225
X4.7Y-5.325
X4.7Y-5.425
X4.7Y-5.525
X4.7Y-5.625
X4.7Y-5.725
X4.7Y-5.825
X4.7Y-5.925
X4.7Y-6.025
X2.75Y-5.85
X2.75Y-5.95
X2.75Y-6.05
X2.85Y-5.85
X2.85Y-5.95
X2.85Y-6.05
T0
M30
