  0
SECTION
  2
HEADER
  9
$ACADVER
  1
AC1014
  9
$HANDSEED
  5
FFFF
  9
$MEASUREMENT
 70
     1
  0
ENDSEC
  0
SECTION
  2
TABLES
  0
TABLE
  2
VPORT
  5
8
330
0
100
AcDbSymbolTable
 70
     4
  0
VPORT
  5
2E
330
8
100
AcDbSymbolTableRecord
100
AcDbViewportTableRecord
  2
*ACTIVE
 70
     0
 10
0.0
 20
0.0
 11
1.0
 21
1.0
 12
210.0
 22
148.5
 13
0.0
 23
0.0
 14
10.0
 24
10.0
 15
10.0
 25
10.0
 16
0.0
 26
0.0
 36
1.0
 17
0.0
 27
0.0
 37
0.0
 40
341.0
 41
1.24
 42
50.0
 43
0.0
 44
0.0
 50
0.0
 51
0.0
 71
     0
 72
   100
 73
     1
 74
     3
 75
     0
 76
     0
 77
     0
 78
     0
  0
ENDTAB
  0
TABLE
  2
LTYPE
  5
5
330
0
100
AcDbSymbolTable
 70
     1
  0
LTYPE
  5
14
330
5
100
AcDbSymbolTableRecord
100
AcDbLinetypeTableRecord
  2
BYBLOCK
 70
     0
  3

 72
    65
 73
     0
 40
0.0
  0
LTYPE
  5
15
330
5
100
AcDbSymbolTableRecord
100
AcDbLinetypeTableRecord
  2
BYLAYER
 70
     0
  3

 72
    65
 73
     0
 40
0.0
  0
LTYPE
  5
16
330
5
100
AcDbSymbolTableRecord
100
AcDbLinetypeTableRecord
  2
CONTINUOUS
 70
     0
  3
Solid line
 72
    65
 73
     0
 40
0.0
  0
ENDTAB
  0
TABLE
  2
LAYER
  5
2
100
AcDbSymbolTable
 70
3
  0
LAYER
  5
50
100
AcDbSymbolTableRecord
100
AcDbLayerTableRecord
  2
0
 70
0
  6
CONTINUOUS
  0
LAYER
  5
51
100
AcDbSymbolTableRecord
100
AcDbLayerTableRecord
  2
Calque_1
 70
0
  6
CONTINUOUS
  0
LAYER
  5
52
100
AcDbSymbolTableRecord
100
AcDbLayerTableRecord
  2
newlayer
 70
0
  6
CONTINUOUS
  0
ENDTAB
  0
TABLE
  2
STYLE
  5
3
330
0
100
AcDbSymbolTable
 70
     1
  0
STYLE
  5
11
330
3
100
AcDbSymbolTableRecord
100
AcDbTextStyleTableRecord
  2
STANDARD
 70
     0
 40
0.0
 41
1.0
 50
0.0
 71
     0
 42
2.5
  3
txt
  4

  0
ENDTAB
  0
TABLE
  2
VIEW
  5
6
330
0
100
AcDbSymbolTable
 70
     0
  0
ENDTAB
  0
TABLE
  2
UCS
  5
7
330
0
100
AcDbSymbolTable
 70
     0
  0
ENDTAB
  0
TABLE
  2
APPID
  5
9
330
0
100
AcDbSymbolTable
 70
     2
  0
APPID
  5
12
330
9
100
AcDbSymbolTableRecord
100
AcDbRegAppTableRecord
  2
ACAD
 70
     0
  0
ENDTAB
  0
TABLE
  2
DIMSTYLE
  5
A
330
0
100
AcDbSymbolTable
 70
     1
  0
DIMSTYLE
105
27
330
A
100
AcDbSymbolTableRecord
100
AcDbDimStyleTableRecord
  2
ISO-25
 70
     0
  3

  4

  5

  6

  7

 40
1.0
 41
2.5
 42
0.625
 43
3.75
 44
1.25
 45
0.0
 46
0.0
 47
0.0
 48
0.0
140
2.5
141
2.5
142
0.0
143
0.03937007874016
144
1.0
145
0.0
146
1.0
147
0.625
 71
     0
 72
     0
 73
     0
 74
     0
 75
     0
 76
     0
 77
     1
 78
     8
170
     0
171
     3
172
     1
173
     0
174
     0
175
     0
176
     0
177
     0
178
     0
270
     2
271
     2
272
     2
273
     2
274
     3
340
11
275
     0
280
     0
281
     0
282
     0
283
     0
284
     8
285
     0
286
     0
287
     3
288
     0
  0
ENDTAB
  0
TABLE
  2
BLOCK_RECORD
  5
1
330
0
100
AcDbSymbolTable
 70
     1
  0
BLOCK_RECORD
  5
1F
330
1
100
AcDbSymbolTableRecord
100
AcDbBlockTableRecord
  2
*MODEL_SPACE
  0
BLOCK_RECORD
  5
1B
330
1
100
AcDbSymbolTableRecord
100
AcDbBlockTableRecord
  2
*PAPER_SPACE
  0
ENDTAB
  0
ENDSEC
  0
SECTION
  2
BLOCKS
  0
BLOCK
  5
20
330
1F
100
AcDbEntity
  8
0
100
AcDbBlockBegin
  2
*MODEL_SPACE
 70
     0
 10
0.0
 20
0.0
 30
0.0
  3
*MODEL_SPACE
  1

  0
ENDBLK
  5
21
330
1F
100
AcDbEntity
  8
0
100
AcDbBlockEnd
  0
BLOCK
  5
1C
330
1B
100
AcDbEntity
 67
     1
  8
0
100
AcDbBlockBegin
  2
*PAPER_SPACE
  1

  0
ENDBLK
  5
1D
330
1B
100
AcDbEntity
 67
     1
  8
0
100
AcDbBlockEnd
  0
ENDSEC
  0
SECTION
  2
ENTITIES
  0
LWPOLYLINE
  5
100
100
AcDbEntity
  8
Calque_1
 62
7
100
AcDbPolyline
 90
60
 70
1
 10
66.000000
 20
104.000000
 30
0.0
 10
79.526429
 20
104.000000
 30
0.0
 10
79.526429
 20
107.000000
 30
0.0
 10
94.616429
 20
107.000000
 30
0.0
 10
94.616429
 20
104.000000
 30
0.0
 10
111.097857
 20
104.000000
 30
0.0
 10
111.097857
 20
107.000000
 30
0.0
 10
126.187857
 20
107.000000
 30
0.0
 10
126.187857
 20
104.000000
 30
0.0
 10
142.669286
 20
104.000000
 30
0.0
 10
142.669286
 20
107.000000
 30
0.0
 10
157.759286
 20
107.000000
 30
0.0
 10
157.759286
 20
104.000000
 30
0.0
 10
174.240714
 20
104.000000
 30
0.0
 10
174.240714
 20
107.000000
 30
0.0
 10
189.330714
 20
107.000000
 30
0.0
 10
189.330714
 20
104.000000
 30
0.0
 10
205.812143
 20
104.000000
 30
0.0
 10
205.812143
 20
107.000000
 30
0.0
 10
220.902143
 20
107.000000
 30
0.0
 10
220.902143
 20
104.000000
 30
0.0
 10
237.383571
 20
104.000000
 30
0.0
 10
237.383571
 20
107.000000
 30
0.0
 10
252.473571
 20
107.000000
 30
0.0
 10
252.473571
 20
104.000000
 30
0.0
 10
269.000000
 20
104.000000
 30
0.0
 10
269.000000
 20
83.955000
 30
0.0
 10
266.000000
 20
83.955000
 30
0.0
 10
266.000000
 20
69.045000
 30
0.0
 10
269.000000
 20
69.045000
 30
0.0
 10
269.000000
 20
46.000000
 30
0.0
 10
252.383571
 20
46.000000
 30
0.0
 10
252.383571
 20
49.000000
 30
0.0
 10
237.473571
 20
49.000000
 30
0.0
 10
237.473571
 20
46.000000
 30
0.0
 10
220.812143
 20
46.000000
 30
0.0
 10
220.812143
 20
49.000000
 30
0.0
 10
205.902143
 20
49.000000
 30
0.0
 10
205.902143
 20
46.000000
 30
0.0
 10
189.240714
 20
46.000000
 30
0.0
 10
189.240714
 20
49.000000
 30
0.0
 10
174.330714
 20
49.000000
 30
0.0
 10
174.330714
 20
46.000000
 30
0.0
 10
157.669286
 20
46.000000
 30
0.0
 10
157.669286
 20
49.000000
 30
0.0
 10
142.759286
 20
49.000000
 30
0.0
 10
142.759286
 20
46.000000
 30
0.0
 10
126.097857
 20
46.000000
 30
0.0
 10
126.097857
 20
49.000000
 30
0.0
 10
111.187857
 20
49.000000
 30
0.0
 10
111.187857
 20
46.000000
 30
0.0
 10
94.526429
 20
46.000000
 30
0.0
 10
94.526429
 20
49.000000
 30
0.0
 10
79.616429
 20
49.000000
 30
0.0
 10
79.616429
 20
46.000000
 30
0.0
 10
66.000000
 20
46.000000
 30
0.0
 10
66.000000
 20
68.955000
 30
0.0
 10
63.000000
 20
68.955000
 30
0.0
 10
63.000000
 20
84.045000
 30
0.0
 10
66.000000
 20
84.045000
 30
0.0
  0
LWPOLYLINE
  5
101
100
AcDbEntity
  8
Calque_1
 62
7
100
AcDbPolyline
 90
36
 70
1
 10
1.000000
 20
231.000000
 30
0.0
 10
23.955000
 20
231.000000
 30
0.0
 10
23.955000
 20
234.000000
 30
0.0
 10
39.045000
 20
234.000000
 30
0.0
 10
39.045000
 20
231.000000
 30
0.0
 10
59.000000
 20
231.000000
 30
0.0
 10
59.000000
 20
213.795000
 30
0.0
 10
62.000000
 20
213.795000
 30
0.0
 10
62.000000
 20
198.705000
 30
0.0
 10
59.000000
 20
198.705000
 30
0.0
 10
59.000000
 20
178.545000
 30
0.0
 10
62.000000
 20
178.545000
 30
0.0
 10
62.000000
 20
163.455000
 30
0.0
 10
59.000000
 20
163.455000
 30
0.0
 10
59.000000
 20
143.295000
 30
0.0
 10
62.000000
 20
143.295000
 30
0.0
 10
62.000000
 20
128.205000
 30
0.0
 10
59.000000
 20
128.205000
 30
0.0
 10
59.000000
 20
108.000000
 30
0.0
 10
38.955000
 20
108.000000
 30
0.0
 10
38.955000
 20
111.000000
 30
0.0
 10
24.045000
 20
111.000000
 30
0.0
 10
24.045000
 20
108.000000
 30
0.0
 10
1.000000
 20
108.000000
 30
0.0
 10
1.000000
 20
128.295000
 30
0.0
 10
4.000000
 20
128.295000
 30
0.0
 10
4.000000
 20
143.205000
 30
0.0
 10
1.000000
 20
143.205000
 30
0.0
 10
1.000000
 20
163.545000
 30
0.0
 10
4.000000
 20
163.545000
 30
0.0
 10
4.000000
 20
178.455000
 30
0.0
 10
1.000000
 20
178.455000
 30
0.0
 10
1.000000
 20
198.795000
 30
0.0
 10
4.000000
 20
198.795000
 30
0.0
 10
4.000000
 20
213.705000
 30
0.0
 10
1.000000
 20
213.705000
 30
0.0
  0
LWPOLYLINE
  5
102
100
AcDbEntity
  8
Calque_1
 62
7
100
AcDbPolyline
 90
76
 70
1
 10
63.000000
 20
231.000000
 30
0.0
 10
79.526429
 20
231.000000
 30
0.0
 10
79.526429
 20
234.000000
 30
0.0
 10
94.616429
 20
234.000000
 30
0.0
 10
94.616429
 20
231.000000
 30
0.0
 10
111.097857
 20
231.000000
 30
0.0
 10
111.097857
 20
234.000000
 30
0.0
 10
126.187857
 20
234.000000
 30
0.0
 10
126.187857
 20
231.000000
 30
0.0
 10
142.669286
 20
231.000000
 30
0.0
 10
142.669286
 20
234.000000
 30
0.0
 10
157.759286
 20
234.000000
 30
0.0
 10
157.759286
 20
231.000000
 30
0.0
 10
174.240714
 20
231.000000
 30
0.0
 10
174.240714
 20
234.000000
 30
0.0
 10
189.330714
 20
234.000000
 30
0.0
 10
189.330714
 20
231.000000
 30
0.0
 10
205.812143
 20
231.000000
 30
0.0
 10
205.812143
 20
234.000000
 30
0.0
 10
220.902143
 20
234.000000
 30
0.0
 10
220.902143
 20
231.000000
 30
0.0
 10
237.383571
 20
231.000000
 30
0.0
 10
237.383571
 20
234.000000
 30
0.0
 10
252.473571
 20
234.000000
 30
0.0
 10
252.473571
 20
231.000000
 30
0.0
 10
266.000000
 20
231.000000
 30
0.0
 10
266.000000
 20
213.795000
 30
0.0
 10
269.000000
 20
213.795000
 30
0.0
 10
269.000000
 20
198.705000
 30
0.0
 10
266.000000
 20
198.705000
 30
0.0
 10
266.000000
 20
178.545000
 30
0.0
 10
269.000000
 20
178.545000
 30
0.0
 10
269.000000
 20
163.455000
 30
0.0
 10
266.000000
 20
163.455000
 30
0.0
 10
266.000000
 20
143.295000
 30
0.0
 10
269.000000
 20
143.295000
 30
0.0
 10
269.000000
 20
128.205000
 30
0.0
 10
266.000000
 20
128.205000
 30
0.0
 10
266.000000
 20
108.000000
 30
0.0
 10
252.383571
 20
108.000000
 30
0.0
 10
252.383571
 20
111.000000
 30
0.0
 10
237.473571
 20
111.000000
 30
0.0
 10
237.473571
 20
108.000000
 30
0.0
 10
220.812143
 20
108.000000
 30
0.0
 10
220.812143
 20
111.000000
 30
0.0
 10
205.902143
 20
111.000000
 30
0.0
 10
205.902143
 20
108.000000
 30
0.0
 10
189.240714
 20
108.000000
 30
0.0
 10
189.240714
 20
111.000000
 30
0.0
 10
174.330714
 20
111.000000
 30
0.0
 10
174.330714
 20
108.000000
 30
0.0
 10
157.669286
 20
108.000000
 30
0.0
 10
157.669286
 20
111.000000
 30
0.0
 10
142.759286
 20
111.000000
 30
0.0
 10
142.759286
 20
108.000000
 30
0.0
 10
126.097857
 20
108.000000
 30
0.0
 10
126.097857
 20
111.000000
 30
0.0
 10
111.187857
 20
111.000000
 30
0.0
 10
111.187857
 20
108.000000
 30
0.0
 10
94.526429
 20
108.000000
 30
0.0
 10
94.526429
 20
111.000000
 30
0.0
 10
79.616429
 20
111.000000
 30
0.0
 10
79.616429
 20
108.000000
 30
0.0
 10
63.000000
 20
108.000000
 30
0.0
 10
63.000000
 20
128.295000
 30
0.0
 10
66.000000
 20
128.295000
 30
0.0
 10
66.000000
 20
143.205000
 30
0.0
 10
63.000000
 20
143.205000
 30
0.0
 10
63.000000
 20
163.545000
 30
0.0
 10
66.000000
 20
163.545000
 30
0.0
 10
66.000000
 20
178.455000
 30
0.0
 10
63.000000
 20
178.455000
 30
0.0
 10
63.000000
 20
198.795000
 30
0.0
 10
66.000000
 20
198.795000
 30
0.0
 10
66.000000
 20
213.705000
 30
0.0
 10
63.000000
 20
213.705000
 30
0.0
  0
LWPOLYLINE
  5
103
100
AcDbEntity
  8
Calque_1
 62
7
100
AcDbPolyline
 90
36
 70
1
 10
270.000000
 20
234.000000
 30
0.0
 10
293.045000
 20
234.000000
 30
0.0
 10
293.045000
 20
231.000000
 30
0.0
 10
307.955000
 20
231.000000
 30
0.0
 10
307.955000
 20
234.000000
 30
0.0
 10
328.000000
 20
234.000000
 30
0.0
 10
328.000000
 20
213.795000
 30
0.0
 10
331.000000
 20
213.795000
 30
0.0
 10
331.000000
 20
198.705000
 30
0.0
 10
328.000000
 20
198.705000
 30
0.0
 10
328.000000
 20
178.545000
 30
0.0
 10
331.000000
 20
178.545000
 30
0.0
 10
331.000000
 20
163.455000
 30
0.0
 10
328.000000
 20
163.455000
 30
0.0
 10
328.000000
 20
143.295000
 30
0.0
 10
331.000000
 20
143.295000
 30
0.0
 10
331.000000
 20
128.205000
 30
0.0
 10
328.000000
 20
128.205000
 30
0.0
 10
328.000000
 20
111.000000
 30
0.0
 10
308.045000
 20
111.000000
 30
0.0
 10
308.045000
 20
108.000000
 30
0.0
 10
292.955000
 20
108.000000
 30
0.0
 10
292.955000
 20
111.000000
 30
0.0
 10
270.000000
 20
111.000000
 30
0.0
 10
270.000000
 20
128.295000
 30
0.0
 10
273.000000
 20
128.295000
 30
0.0
 10
273.000000
 20
143.205000
 30
0.0
 10
270.000000
 20
143.205000
 30
0.0
 10
270.000000
 20
163.545000
 30
0.0
 10
273.000000
 20
163.545000
 30
0.0
 10
273.000000
 20
178.455000
 30
0.0
 10
270.000000
 20
178.455000
 30
0.0
 10
270.000000
 20
198.795000
 30
0.0
 10
273.000000
 20
198.795000
 30
0.0
 10
273.000000
 20
213.705000
 30
0.0
 10
270.000000
 20
213.705000
 30
0.0
  0
LWPOLYLINE
  5
104
100
AcDbEntity
  8
Calque_1
 62
7
100
AcDbPolyline
 90
76
 70
1
 10
332.000000
 20
234.000000
 30
0.0
 10
348.616429
 20
234.000000
 30
0.0
 10
348.616429
 20
231.000000
 30
0.0
 10
363.526429
 20
231.000000
 30
0.0
 10
363.526429
 20
234.000000
 30
0.0
 10
380.187857
 20
234.000000
 30
0.0
 10
380.187857
 20
231.000000
 30
0.0
 10
395.097857
 20
231.000000
 30
0.0
 10
395.097857
 20
234.000000
 30
0.0
 10
411.759286
 20
234.000000
 30
0.0
 10
411.759286
 20
231.000000
 30
0.0
 10
426.669286
 20
231.000000
 30
0.0
 10
426.669286
 20
234.000000
 30
0.0
 10
443.330714
 20
234.000000
 30
0.0
 10
443.330714
 20
231.000000
 30
0.0
 10
458.240714
 20
231.000000
 30
0.0
 10
458.240714
 20
234.000000
 30
0.0
 10
474.902143
 20
234.000000
 30
0.0
 10
474.902143
 20
231.000000
 30
0.0
 10
489.812143
 20
231.000000
 30
0.0
 10
489.812143
 20
234.000000
 30
0.0
 10
506.473571
 20
234.000000
 30
0.0
 10
506.473571
 20
231.000000
 30
0.0
 10
521.383571
 20
231.000000
 30
0.0
 10
521.383571
 20
234.000000
 30
0.0
 10
535.000000
 20
234.000000
 30
0.0
 10
535.000000
 20
213.795000
 30
0.0
 10
538.000000
 20
213.795000
 30
0.0
 10
538.000000
 20
198.705000
 30
0.0
 10
535.000000
 20
198.705000
 30
0.0
 10
535.000000
 20
178.545000
 30
0.0
 10
538.000000
 20
178.545000
 30
0.0
 10
538.000000
 20
163.455000
 30
0.0
 10
535.000000
 20
163.455000
 30
0.0
 10
535.000000
 20
143.295000
 30
0.0
 10
538.000000
 20
143.295000
 30
0.0
 10
538.000000
 20
128.205000
 30
0.0
 10
535.000000
 20
128.205000
 30
0.0
 10
535.000000
 20
111.000000
 30
0.0
 10
521.473571
 20
111.000000
 30
0.0
 10
521.473571
 20
108.000000
 30
0.0
 10
506.383571
 20
108.000000
 30
0.0
 10
506.383571
 20
111.000000
 30
0.0
 10
489.902143
 20
111.000000
 30
0.0
 10
489.902143
 20
108.000000
 30
0.0
 10
474.812143
 20
108.000000
 30
0.0
 10
474.812143
 20
111.000000
 30
0.0
 10
458.330714
 20
111.000000
 30
0.0
 10
458.330714
 20
108.000000
 30
0.0
 10
443.240714
 20
108.000000
 30
0.0
 10
443.240714
 20
111.000000
 30
0.0
 10
426.759286
 20
111.000000
 30
0.0
 10
426.759286
 20
108.000000
 30
0.0
 10
411.669286
 20
108.000000
 30
0.0
 10
411.669286
 20
111.000000
 30
0.0
 10
395.187857
 20
111.000000
 30
0.0
 10
395.187857
 20
108.000000
 30
0.0
 10
380.097857
 20
108.000000
 30
0.0
 10
380.097857
 20
111.000000
 30
0.0
 10
363.616429
 20
111.000000
 30
0.0
 10
363.616429
 20
108.000000
 30
0.0
 10
348.526429
 20
108.000000
 30
0.0
 10
348.526429
 20
111.000000
 30
0.0
 10
332.000000
 20
111.000000
 30
0.0
 10
332.000000
 20
128.295000
 30
0.0
 10
335.000000
 20
128.295000
 30
0.0
 10
335.000000
 20
143.205000
 30
0.0
 10
332.000000
 20
143.205000
 30
0.0
 10
332.000000
 20
163.545000
 30
0.0
 10
335.000000
 20
163.545000
 30
0.0
 10
335.000000
 20
178.455000
 30
0.0
 10
332.000000
 20
178.455000
 30
0.0
 10
332.000000
 20
198.795000
 30
0.0
 10
335.000000
 20
198.795000
 30
0.0
 10
335.000000
 20
213.705000
 30
0.0
 10
332.000000
 20
213.705000
 30
0.0
  0
SPLINE
  5
105
100
AcDbEntity
  8
Calque_1
 62
7
100
AcDbSpline
 70
8
 71
3
 72
8
 73
4
 74
0
 40
0
 40
0
 40
0
 40
0
 40
1
 40
1
 40
1
 40
1
 10
256.231419
 20
76.479400
 30
0.0
 10
256.231419
 20
72.406072
 30
0.0
 10
254.058325
 20
68.642163
 30
0.0
 10
250.530720
 20
66.605499
 30
0.0
  0
SPLINE
  5
106
100
AcDbEntity
  8
Calque_1
 62
7
100
AcDbSpline
 70
8
 71
3
 72
8
 73
4
 74
0
 40
0
 40
0
 40
0
 40
0
 40
1
 40
1
 40
1
 40
1
 10
250.530720
 20
66.605499
 30
0.0
 10
247.003114
 20
64.568835
 30
0.0
 10
242.656926
 20
64.568835
 30
0.0
 10
239.129321
 20
66.605499
 30
0.0
  0
SPLINE
  5
107
100
AcDbEntity
  8
Calque_1
 62
7
100
AcDbSpline
 70
8
 71
3
 72
8
 73
4
 74
0
 40
0
 40
0
 40
0
 40
0
 40
1
 40
1
 40
1
 40
1
 10
239.129321
 20
66.605499
 30
0.0
 10
235.601715
 20
68.642163
 30
0.0
 10
233.428621
 20
72.406072
 30
0.0
 10
233.428621
 20
76.479400
 30
0.0
  0
SPLINE
  5
108
100
AcDbEntity
  8
Calque_1
 62
7
100
AcDbSpline
 70
8
 71
3
 72
8
 73
4
 74
0
 40
0
 40
0
 40
0
 40
0
 40
1
 40
1
 40
1
 40
1
 10
233.428621
 20
76.479400
 30
0.0
 10
233.428621
 20
80.552728
 30
0.0
 10
235.601715
 20
84.316637
 30
0.0
 10
239.129321
 20
86.353301
 30
0.0
  0
SPLINE
  5
109
100
AcDbEntity
  8
Calque_1
 62
7
100
AcDbSpline
 70
8
 71
3
 72
8
 73
4
 74
0
 40
0
 40
0
 40
0
 40
0
 40
1
 40
1
 40
1
 40
1
 10
239.129321
 20
86.353301
 30
0.0
 10
242.656926
 20
88.389965
 30
0.0
 10
247.003114
 20
88.389965
 30
0.0
 10
250.530720
 20
86.353301
 30
0.0
  0
SPLINE
  5
10a
100
AcDbEntity
  8
Calque_1
 62
7
100
AcDbSpline
 70
8
 71
3
 72
8
 73
4
 74
0
 40
0
 40
0
 40
0
 40
0
 40
1
 40
1
 40
1
 40
1
 10
250.530720
 20
86.353301
 30
0.0
 10
254.058325
 20
84.316637
 30
0.0
 10
256.231419
 20
80.552728
 30
0.0
 10
256.231419
 20
76.479400
 30
0.0
  0
LWPOLYLINE
  5
10b
100
AcDbEntity
  8
Calque_1
 62
7
100
AcDbPolyline
 90
60
 70
1
 10
63.000000
 20
293.000000
 30
0.0
 10
79.526429
 20
293.000000
 30
0.0
 10
79.526429
 20
296.000000
 30
0.0
 10
94.616429
 20
296.000000
 30
0.0
 10
94.616429
 20
293.000000
 30
0.0
 10
111.097857
 20
293.000000
 30
0.0
 10
111.097857
 20
296.000000
 30
0.0
 10
126.187857
 20
296.000000
 30
0.0
 10
126.187857
 20
293.000000
 30
0.0
 10
142.669286
 20
293.000000
 30
0.0
 10
142.669286
 20
296.000000
 30
0.0
 10
157.759286
 20
296.000000
 30
0.0
 10
157.759286
 20
293.000000
 30
0.0
 10
174.240714
 20
293.000000
 30
0.0
 10
174.240714
 20
296.000000
 30
0.0
 10
189.330714
 20
296.000000
 30
0.0
 10
189.330714
 20
293.000000
 30
0.0
 10
205.812143
 20
293.000000
 30
0.0
 10
205.812143
 20
296.000000
 30
0.0
 10
220.902143
 20
296.000000
 30
0.0
 10
220.902143
 20
293.000000
 30
0.0
 10
237.383571
 20
293.000000
 30
0.0
 10
237.383571
 20
296.000000
 30
0.0
 10
252.473571
 20
296.000000
 30
0.0
 10
252.473571
 20
293.000000
 30
0.0
 10
266.000000
 20
293.000000
 30
0.0
 10
266.000000
 20
273.045000
 30
0.0
 10
269.000000
 20
273.045000
 30
0.0
 10
269.000000
 20
257.955000
 30
0.0
 10
266.000000
 20
257.955000
 30
0.0
 10
266.000000
 20
235.000000
 30
0.0
 10
252.383571
 20
235.000000
 30
0.0
 10
252.383571
 20
238.000000
 30
0.0
 10
237.473571
 20
238.000000
 30
0.0
 10
237.473571
 20
235.000000
 30
0.0
 10
220.812143
 20
235.000000
 30
0.0
 10
220.812143
 20
238.000000
 30
0.0
 10
205.902143
 20
238.000000
 30
0.0
 10
205.902143
 20
235.000000
 30
0.0
 10
189.240714
 20
235.000000
 30
0.0
 10
189.240714
 20
238.000000
 30
0.0
 10
174.330714
 20
238.000000
 30
0.0
 10
174.330714
 20
235.000000
 30
0.0
 10
157.669286
 20
235.000000
 30
0.0
 10
157.669286
 20
238.000000
 30
0.0
 10
142.759286
 20
238.000000
 30
0.0
 10
142.759286
 20
235.000000
 30
0.0
 10
126.097857
 20
235.000000
 30
0.0
 10
126.097857
 20
238.000000
 30
0.0
 10
111.187857
 20
238.000000
 30
0.0
 10
111.187857
 20
235.000000
 30
0.0
 10
94.526429
 20
235.000000
 30
0.0
 10
94.526429
 20
238.000000
 30
0.0
 10
79.616429
 20
238.000000
 30
0.0
 10
79.616429
 20
235.000000
 30
0.0
 10
63.000000
 20
235.000000
 30
0.0
 10
63.000000
 20
258.045000
 30
0.0
 10
66.000000
 20
258.045000
 30
0.0
 10
66.000000
 20
272.955000
 30
0.0
 10
63.000000
 20
272.955000
 30
0.0
  0
SPLINE
  5
10c
100
AcDbEntity
  8
Calque_1
 62
7
100
AcDbSpline
 70
8
 71
3
 72
8
 73
4
 74
0
 40
0
 40
0
 40
0
 40
0
 40
1
 40
1
 40
1
 40
1
 10
237.822659
 20
89.398180
 30
0.0
 10
237.822659
 20
88.914457
 30
0.0
 10
237.564596
 20
88.467478
 30
0.0
 10
237.145680
 20
88.225617
 30
0.0
  0
SPLINE
  5
10d
100
AcDbEntity
  8
Calque_1
 62
7
100
AcDbSpline
 70
8
 71
3
 72
8
 73
4
 74
0
 40
0
 40
0
 40
0
 40
0
 40
1
 40
1
 40
1
 40
1
 10
237.145680
 20
88.225617
 30
0.0
 10
236.726763
 20
87.983755
 30
0.0
 10
236.210637
 20
87.983755
 30
0.0
 10
235.791720
 20
88.225617
 30
0.0
  0
SPLINE
  5
10e
100
AcDbEntity
  8
Calque_1
 62
7
100
AcDbSpline
 70
8
 71
3
 72
8
 73
4
 74
0
 40
0
 40
0
 40
0
 40
0
 40
1
 40
1
 40
1
 40
1
 10
235.791720
 20
88.225617
 30
0.0
 10
235.372804
 20
88.467478
 30
0.0
 10
235.114741
 20
88.914457
 30
0.0
 10
235.114741
 20
89.398180
 30
0.0
  0
SPLINE
  5
10f
100
AcDbEntity
  8
Calque_1
 62
7
100
AcDbSpline
 70
8
 71
3
 72
8
 73
4
 74
0
 40
0
 40
0
 40
0
 40
0
 40
1
 40
1
 40
1
 40
1
 10
235.114741
 20
89.398180
 30
0.0
 10
235.114741
 20
89.881903
 30
0.0
 10
235.372804
 20
90.328882
 30
0.0
 10
235.791720
 20
90.570743
 30
0.0
  0
SPLINE
  5
110
100
AcDbEntity
  8
Calque_1
 62
7
100
AcDbSpline
 70
8
 71
3
 72
8
 73
4
 74
0
 40
0
 40
0
 40
0
 40
0
 40
1
 40
1
 40
1
 40
1
 10
235.791720
 20
90.570743
 30
0.0
 10
236.210637
 20
90.812605
 30
0.0
 10
236.726763
 20
90.812605
 30
0.0
 10
237.145680
 20
90.570743
 30
0.0
  0
SPLINE
  5
111
100
AcDbEntity
  8
Calque_1
 62
7
100
AcDbSpline
 70
8
 71
3
 72
8
 73
4
 74
0
 40
0
 40
0
 40
0
 40
0
 40
1
 40
1
 40
1
 40
1
 10
237.145680
 20
90.570743
 30
0.0
 10
237.564596
 20
90.328882
 30
0.0
 10
237.822659
 20
89.881903
 30
0.0
 10
237.822659
 20
89.398180
 30
0.0
  0
LWPOLYLINE
  5
112
100
AcDbEntity
  8
Calque_1
 62
7
100
AcDbPolyline
 90
1
 70
1
 10
256.231419
 20
76.479400
 30
0.0
  0
SPLINE
  5
113
100
AcDbEntity
  8
Calque_1
 62
7
100
AcDbSpline
 70
8
 71
3
 72
8
 73
4
 74
0
 40
0
 40
0
 40
0
 40
0
 40
1
 40
1
 40
1
 40
1
 10
254.409009
 20
64.029160
 30
0.0
 10
254.409009
 20
63.545437
 30
0.0
 10
254.150946
 20
63.098458
 30
0.0
 10
253.732030
 20
62.856597
 30
0.0
  0
SPLINE
  5
114
100
AcDbEntity
  8
Calque_1
 62
7
100
AcDbSpline
 70
8
 71
3
 72
8
 73
4
 74
0
 40
0
 40
0
 40
0
 40
0
 40
1
 40
1
 40
1
 40
1
 10
253.732030
 20
62.856597
 30
0.0
 10
253.313113
 20
62.614735
 30
0.0
 10
252.796987
 20
62.614735
 30
0.0
 10
252.378070
 20
62.856597
 30
0.0
  0
SPLINE
  5
115
100
AcDbEntity
  8
Calque_1
 62
7
100
AcDbSpline
 70
8
 71
3
 72
8
 73
4
 74
0
 40
0
 40
0
 40
0
 40
0
 40
1
 40
1
 40
1
 40
1
 10
252.378070
 20
62.856597
 30
0.0
 10
251.959154
 20
63.098458
 30
0.0
 10
251.701091
 20
63.545437
 30
0.0
 10
251.701091
 20
64.029160
 30
0.0
  0
SPLINE
  5
116
100
AcDbEntity
  8
Calque_1
 62
7
100
AcDbSpline
 70
8
 71
3
 72
8
 73
4
 74
0
 40
0
 40
0
 40
0
 40
0
 40
1
 40
1
 40
1
 40
1
 10
251.701091
 20
64.029160
 30
0.0
 10
251.701091
 20
64.512883
 30
0.0
 10
251.959154
 20
64.959862
 30
0.0
 10
252.378070
 20
65.201723
 30
0.0
  0
SPLINE
  5
117
100
AcDbEntity
  8
Calque_1
 62
7
100
AcDbSpline
 70
8
 71
3
 72
8
 73
4
 74
0
 40
0
 40
0
 40
0
 40
0
 40
1
 40
1
 40
1
 40
1
 10
252.378070
 20
65.201723
 30
0.0
 10
252.796987
 20
65.443585
 30
0.0
 10
253.313113
 20
65.443585
 30
0.0
 10
253.732030
 20
65.201723
 30
0.0
  0
SPLINE
  5
118
100
AcDbEntity
  8
Calque_1
 62
7
100
AcDbSpline
 70
8
 71
3
 72
8
 73
4
 74
0
 40
0
 40
0
 40
0
 40
0
 40
1
 40
1
 40
1
 40
1
 10
253.732030
 20
65.201723
 30
0.0
 10
254.150946
 20
64.959862
 30
0.0
 10
254.409009
 20
64.512883
 30
0.0
 10
254.409009
 20
64.029160
 30
0.0
  0
LWPOLYLINE
  5
119
100
AcDbEntity
  8
Calque_1
 62
7
100
AcDbPolyline
 90
1
 70
1
 10
237.822659
 20
89.398180
 30
0.0
  0
SPLINE
  5
11a
100
AcDbEntity
  8
Calque_1
 62
7
100
AcDbSpline
 70
8
 71
3
 72
8
 73
4
 74
0
 40
0
 40
0
 40
0
 40
0
 40
1
 40
1
 40
1
 40
1
 10
216.558549
 20
62.500001
 30
0.0
 10
216.558549
 20
59.873469
 30
0.0
 10
215.157311
 20
57.446454
 30
0.0
 10
212.882668
 20
56.133189
 30
0.0
  0
SPLINE
  5
11b
100
AcDbEntity
  8
Calque_1
 62
7
100
AcDbSpline
 70
8
 71
3
 72
8
 73
4
 74
0
 40
0
 40
0
 40
0
 40
0
 40
1
 40
1
 40
1
 40
1
 10
212.882668
 20
56.133189
 30
0.0
 10
210.608025
 20
54.819923
 30
0.0
 10
207.805549
 20
54.819923
 30
0.0
 10
205.530906
 20
56.133189
 30
0.0
  0
SPLINE
  5
11c
100
AcDbEntity
  8
Calque_1
 62
7
100
AcDbSpline
 70
8
 71
3
 72
8
 73
4
 74
0
 40
0
 40
0
 40
0
 40
0
 40
1
 40
1
 40
1
 40
1
 10
205.530906
 20
56.133189
 30
0.0
 10
203.256263
 20
57.446454
 30
0.0
 10
201.855025
 20
59.873469
 30
0.0
 10
201.855025
 20
62.500001
 30
0.0
  0
SPLINE
  5
11d
100
AcDbEntity
  8
Calque_1
 62
7
100
AcDbSpline
 70
8
 71
3
 72
8
 73
4
 74
0
 40
0
 40
0
 40
0
 40
0
 40
1
 40
1
 40
1
 40
1
 10
201.855025
 20
62.500001
 30
0.0
 10
201.855025
 20
65.126533
 30
0.0
 10
203.256263
 20
67.553548
 30
0.0
 10
205.530906
 20
68.866813
 30
0.0
  0
SPLINE
  5
11e
100
AcDbEntity
  8
Calque_1
 62
7
100
AcDbSpline
 70
8
 71
3
 72
8
 73
4
 74
0
 40
0
 40
0
 40
0
 40
0
 40
1
 40
1
 40
1
 40
1
 10
205.530906
 20
68.866813
 30
0.0
 10
207.805549
 20
70.180079
 30
0.0
 10
210.608025
 20
70.180079
 30
0.0
 10
212.882668
 20
68.866813
 30
0.0
  0
SPLINE
  5
11f
100
AcDbEntity
  8
Calque_1
 62
7
100
AcDbSpline
 70
8
 71
3
 72
8
 73
4
 74
0
 40
0
 40
0
 40
0
 40
0
 40
1
 40
1
 40
1
 40
1
 10
212.882668
 20
68.866813
 30
0.0
 10
215.157311
 20
67.553548
 30
0.0
 10
216.558549
 20
65.126533
 30
0.0
 10
216.558549
 20
62.500001
 30
0.0
  0
LWPOLYLINE
  5
120
100
AcDbEntity
  8
Calque_1
 62
7
100
AcDbPolyline
 90
1
 70
1
 10
254.409009
 20
64.029160
 30
0.0
  0
SPLINE
  5
121
100
AcDbEntity
  8
Calque_1
 62
7
100
AcDbSpline
 70
8
 71
3
 72
8
 73
4
 74
0
 40
0
 40
0
 40
0
 40
0
 40
1
 40
1
 40
1
 40
1
 10
199.261970
 20
62.722871
 30
0.0
 10
199.261970
 20
62.101897
 30
0.0
 10
198.758571
 20
61.598498
 30
0.0
 10
198.137597
 20
61.598498
 30
0.0
  0
SPLINE
  5
122
100
AcDbEntity
  8
Calque_1
 62
7
100
AcDbSpline
 70
8
 71
3
 72
8
 73
4
 74
0
 40
0
 40
0
 40
0
 40
0
 40
1
 40
1
 40
1
 40
1
 10
198.137597
 20
61.598498
 30
0.0
 10
197.516623
 20
61.598498
 30
0.0
 10
197.013224
 20
62.101897
 30
0.0
 10
197.013224
 20
62.722871
 30
0.0
  0
SPLINE
  5
123
100
AcDbEntity
  8
Calque_1
 62
7
100
AcDbSpline
 70
8
 71
3
 72
8
 73
4
 74
0
 40
0
 40
0
 40
0
 40
0
 40
1
 40
1
 40
1
 40
1
 10
197.013224
 20
62.722871
 30
0.0
 10
197.013224
 20
63.343845
 30
0.0
 10
197.516623
 20
63.847244
 30
0.0
 10
198.137597
 20
63.847244
 30
0.0
  0
SPLINE
  5
124
100
AcDbEntity
  8
Calque_1
 62
7
100
AcDbSpline
 70
8
 71
3
 72
8
 73
4
 74
0
 40
0
 40
0
 40
0
 40
0
 40
1
 40
1
 40
1
 40
1
 10
198.137597
 20
63.847244
 30
0.0
 10
198.758571
 20
63.847244
 30
0.0
 10
199.261970
 20
63.343845
 30
0.0
 10
199.261970
 20
62.722871
 30
0.0
  0
LWPOLYLINE
  5
125
100
AcDbEntity
  8
Calque_1
 62
7
100
AcDbPolyline
 90
1
 70
1
 10
216.558549
 20
62.500001
 30
0.0
  0
SPLINE
  5
126
100
AcDbEntity
  8
Calque_1
 62
7
100
AcDbSpline
 70
8
 71
3
 72
8
 73
4
 74
0
 40
0
 40
0
 40
0
 40
0
 40
1
 40
1
 40
1
 40
1
 10
221.201010
 20
62.833771
 30
0.0
 10
221.201010
 20
62.432071
 30
0.0
 10
220.986706
 20
62.060885
 30
0.0
 10
220.638824
 20
61.860035
 30
0.0
  0
SPLINE
  5
127
100
AcDbEntity
  8
Calque_1
 62
7
100
AcDbSpline
 70
8
 71
3
 72
8
 73
4
 74
0
 40
0
 40
0
 40
0
 40
0
 40
1
 40
1
 40
1
 40
1
 10
220.638824
 20
61.860035
 30
0.0
 10
220.290941
 20
61.659185
 30
0.0
 10
219.862333
 20
61.659185
 30
0.0
 10
219.514450
 20
61.860035
 30
0.0
  0
SPLINE
  5
128
100
AcDbEntity
  8
Calque_1
 62
7
100
AcDbSpline
 70
8
 71
3
 72
8
 73
4
 74
0
 40
0
 40
0
 40
0
 40
0
 40
1
 40
1
 40
1
 40
1
 10
219.514450
 20
61.860035
 30
0.0
 10
219.166568
 20
62.060885
 30
0.0
 10
218.952264
 20
62.432071
 30
0.0
 10
218.952264
 20
62.833771
 30
0.0
  0
SPLINE
  5
129
100
AcDbEntity
  8
Calque_1
 62
7
100
AcDbSpline
 70
8
 71
3
 72
8
 73
4
 74
0
 40
0
 40
0
 40
0
 40
0
 40
1
 40
1
 40
1
 40
1
 10
218.952264
 20
62.833771
 30
0.0
 10
218.952264
 20
63.235471
 30
0.0
 10
219.166568
 20
63.606657
 30
0.0
 10
219.514450
 20
63.807507
 30
0.0
  0
SPLINE
  5
12a
100
AcDbEntity
  8
Calque_1
 62
7
100
AcDbSpline
 70
8
 71
3
 72
8
 73
4
 74
0
 40
0
 40
0
 40
0
 40
0
 40
1
 40
1
 40
1
 40
1
 10
219.514450
 20
63.807507
 30
0.0
 10
219.862333
 20
64.008357
 30
0.0
 10
220.290941
 20
64.008357
 30
0.0
 10
220.638824
 20
63.807507
 30
0.0
  0
SPLINE
  5
12b
100
AcDbEntity
  8
Calque_1
 62
7
100
AcDbSpline
 70
8
 71
3
 72
8
 73
4
 74
0
 40
0
 40
0
 40
0
 40
0
 40
1
 40
1
 40
1
 40
1
 10
220.638824
 20
63.807507
 30
0.0
 10
220.986706
 20
63.606657
 30
0.0
 10
221.201010
 20
63.235471
 30
0.0
 10
221.201010
 20
62.833771
 30
0.0
  0
LWPOLYLINE
  5
12c
100
AcDbEntity
  8
Calque_1
 62
7
100
AcDbPolyline
 90
1
 70
1
 10
199.261970
 20
62.722871
 30
0.0
  0
SPLINE
  5
12d
100
AcDbEntity
  8
Calque_1
 62
7
100
AcDbSpline
 70
8
 71
3
 72
8
 73
4
 74
0
 40
0
 40
0
 40
0
 40
0
 40
1
 40
1
 40
1
 40
1
 10
186.990126
 20
62.500001
 30
0.0
 10
186.990126
 20
59.873469
 30
0.0
 10
185.588888
 20
57.446454
 30
0.0
 10
183.314245
 20
56.133189
 30
0.0
  0
SPLINE
  5
12e
100
AcDbEntity
  8
Calque_1
 62
7
100
AcDbSpline
 70
8
 71
3
 72
8
 73
4
 74
0
 40
0
 40
0
 40
0
 40
0
 40
1
 40
1
 40
1
 40
1
 10
183.314245
 20
56.133189
 30
0.0
 10
181.039602
 20
54.819923
 30
0.0
 10
178.237126
 20
54.819923
 30
0.0
 10
175.962483
 20
56.133189
 30
0.0
  0
SPLINE
  5
12f
100
AcDbEntity
  8
Calque_1
 62
7
100
AcDbSpline
 70
8
 71
3
 72
8
 73
4
 74
0
 40
0
 40
0
 40
0
 40
0
 40
1
 40
1
 40
1
 40
1
 10
175.962483
 20
56.133189
 30
0.0
 10
173.687840
 20
57.446454
 30
0.0
 10
172.286602
 20
59.873469
 30
0.0
 10
172.286602
 20
62.500001
 30
0.0
  0
SPLINE
  5
130
100
AcDbEntity
  8
Calque_1
 62
7
100
AcDbSpline
 70
8
 71
3
 72
8
 73
4
 74
0
 40
0
 40
0
 40
0
 40
0
 40
1
 40
1
 40
1
 40
1
 10
172.286602
 20
62.500001
 30
0.0
 10
172.286602
 20
65.126533
 30
0.0
 10
173.687840
 20
67.553548
 30
0.0
 10
175.962483
 20
68.866813
 30
0.0
  0
SPLINE
  5
131
100
AcDbEntity
  8
Calque_1
 62
7
100
AcDbSpline
 70
8
 71
3
 72
8
 73
4
 74
0
 40
0
 40
0
 40
0
 40
0
 40
1
 40
1
 40
1
 40
1
 10
175.962483
 20
68.866813
 30
0.0
 10
178.237126
 20
70.180079
 30
0.0
 10
181.039602
 20
70.180079
 30
0.0
 10
183.314245
 20
68.866813
 30
0.0
  0
SPLINE
  5
132
100
AcDbEntity
  8
Calque_1
 62
7
100
AcDbSpline
 70
8
 71
3
 72
8
 73
4
 74
0
 40
0
 40
0
 40
0
 40
0
 40
1
 40
1
 40
1
 40
1
 10
183.314245
 20
68.866813
 30
0.0
 10
185.588888
 20
67.553548
 30
0.0
 10
186.990126
 20
65.126533
 30
0.0
 10
186.990126
 20
62.500001
 30
0.0
  0
LWPOLYLINE
  5
133
100
AcDbEntity
  8
Calque_1
 62
7
100
AcDbPolyline
 90
1
 70
1
 10
221.201010
 20
62.833771
 30
0.0
  0
SPLINE
  5
134
100
AcDbEntity
  8
Calque_1
 62
7
100
AcDbSpline
 70
8
 71
3
 72
8
 73
4
 74
0
 40
0
 40
0
 40
0
 40
0
 40
1
 40
1
 40
1
 40
1
 10
169.693547
 20
62.722871
 30
0.0
 10
169.693547
 20
62.101897
 30
0.0
 10
169.190148
 20
61.598498
 30
0.0
 10
168.569174
 20
61.598498
 30
0.0
  0
SPLINE
  5
135
100
AcDbEntity
  8
Calque_1
 62
7
100
AcDbSpline
 70
8
 71
3
 72
8
 73
4
 74
0
 40
0
 40
0
 40
0
 40
0
 40
1
 40
1
 40
1
 40
1
 10
168.569174
 20
61.598498
 30
0.0
 10
167.948200
 20
61.598498
 30
0.0
 10
167.444801
 20
62.101897
 30
0.0
 10
167.444801
 20
62.722871
 30
0.0
  0
SPLINE
  5
136
100
AcDbEntity
  8
Calque_1
 62
7
100
AcDbSpline
 70
8
 71
3
 72
8
 73
4
 74
0
 40
0
 40
0
 40
0
 40
0
 40
1
 40
1
 40
1
 40
1
 10
167.444801
 20
62.722871
 30
0.0
 10
167.444801
 20
63.343845
 30
0.0
 10
167.948200
 20
63.847244
 30
0.0
 10
168.569174
 20
63.847244
 30
0.0
  0
SPLINE
  5
137
100
AcDbEntity
  8
Calque_1
 62
7
100
AcDbSpline
 70
8
 71
3
 72
8
 73
4
 74
0
 40
0
 40
0
 40
0
 40
0
 40
1
 40
1
 40
1
 40
1
 10
168.569174
 20
63.847244
 30
0.0
 10
169.190148
 20
63.847244
 30
0.0
 10
169.693547
 20
63.343845
 30
0.0
 10
169.693547
 20
62.722871
 30
0.0
  0
LWPOLYLINE
  5
138
100
AcDbEntity
  8
Calque_1
 62
7
100
AcDbPolyline
 90
1
 70
1
 10
186.990126
 20
62.500001
 30
0.0
  0
SPLINE
  5
139
100
AcDbEntity
  8
Calque_1
 62
7
100
AcDbSpline
 70
8
 71
3
 72
8
 73
4
 74
0
 40
0
 40
0
 40
0
 40
0
 40
1
 40
1
 40
1
 40
1
 10
191.632587
 20
62.833771
 30
0.0
 10
191.632587
 20
62.432071
 30
0.0
 10
191.418283
 20
62.060885
 30
0.0
 10
191.070401
 20
61.860035
 30
0.0
  0
SPLINE
  5
13a
100
AcDbEntity
  8
Calque_1
 62
7
100
AcDbSpline
 70
8
 71
3
 72
8
 73
4
 74
0
 40
0
 40
0
 40
0
 40
0
 40
1
 40
1
 40
1
 40
1
 10
191.070401
 20
61.860035
 30
0.0
 10
190.722518
 20
61.659185
 30
0.0
 10
190.293910
 20
61.659185
 30
0.0
 10
189.946027
 20
61.860035
 30
0.0
  0
SPLINE
  5
13b
100
AcDbEntity
  8
Calque_1
 62
7
100
AcDbSpline
 70
8
 71
3
 72
8
 73
4
 74
0
 40
0
 40
0
 40
0
 40
0
 40
1
 40
1
 40
1
 40
1
 10
189.946027
 20
61.860035
 30
0.0
 10
189.598145
 20
62.060885
 30
0.0
 10
189.383841
 20
62.432071
 30
0.0
 10
189.383841
 20
62.833771
 30
0.0
  0
SPLINE
  5
13c
100
AcDbEntity
  8
Calque_1
 62
7
100
AcDbSpline
 70
8
 71
3
 72
8
 73
4
 74
0
 40
0
 40
0
 40
0
 40
0
 40
1
 40
1
 40
1
 40
1
 10
189.383841
 20
62.833771
 30
0.0
 10
189.383841
 20
63.235471
 30
0.0
 10
189.598145
 20
63.606657
 30
0.0
 10
189.946027
 20
63.807507
 30
0.0
  0
SPLINE
  5
13d
100
AcDbEntity
  8
Calque_1
 62
7
100
AcDbSpline
 70
8
 71
3
 72
8
 73
4
 74
0
 40
0
 40
0
 40
0
 40
0
 40
1
 40
1
 40
1
 40
1
 10
189.946027
 20
63.807507
 30
0.0
 10
190.293910
 20
64.008357
 30
0.0
 10
190.722518
 20
64.008357
 30
0.0
 10
191.070401
 20
63.807507
 30
0.0
  0
SPLINE
  5
13e
100
AcDbEntity
  8
Calque_1
 62
7
100
AcDbSpline
 70
8
 71
3
 72
8
 73
4
 74
0
 40
0
 40
0
 40
0
 40
0
 40
1
 40
1
 40
1
 40
1
 10
191.070401
 20
63.807507
 30
0.0
 10
191.418283
 20
63.606657
 30
0.0
 10
191.632587
 20
63.235471
 30
0.0
 10
191.632587
 20
62.833771
 30
0.0
  0
LWPOLYLINE
  5
13f
100
AcDbEntity
  8
Calque_1
 62
7
100
AcDbPolyline
 90
1
 70
1
 10
169.693547
 20
62.722871
 30
0.0
  0
SPLINE
  5
140
100
AcDbEntity
  8
Calque_1
 62
7
100
AcDbSpline
 70
8
 71
3
 72
8
 73
4
 74
0
 40
0
 40
0
 40
0
 40
0
 40
1
 40
1
 40
1
 40
1
 10
152.858878
 20
62.500001
 30
0.0
 10
152.858878
 20
59.873469
 30
0.0
 10
151.457640
 20
57.446454
 30
0.0
 10
149.182997
 20
56.133189
 30
0.0
  0
SPLINE
  5
141
100
AcDbEntity
  8
Calque_1
 62
7
100
AcDbSpline
 70
8
 71
3
 72
8
 73
4
 74
0
 40
0
 40
0
 40
0
 40
0
 40
1
 40
1
 40
1
 40
1
 10
149.182997
 20
56.133189
 30
0.0
 10
146.908354
 20
54.819923
 30
0.0
 10
144.105878
 20
54.819923
 30
0.0
 10
141.831235
 20
56.133189
 30
0.0
  0
SPLINE
  5
142
100
AcDbEntity
  8
Calque_1
 62
7
100
AcDbSpline
 70
8
 71
3
 72
8
 73
4
 74
0
 40
0
 40
0
 40
0
 40
0
 40
1
 40
1
 40
1
 40
1
 10
141.831235
 20
56.133189
 30
0.0
 10
139.556592
 20
57.446454
 30
0.0
 10
138.155354
 20
59.873469
 30
0.0
 10
138.155354
 20
62.500001
 30
0.0
  0
SPLINE
  5
143
100
AcDbEntity
  8
Calque_1
 62
7
100
AcDbSpline
 70
8
 71
3
 72
8
 73
4
 74
0
 40
0
 40
0
 40
0
 40
0
 40
1
 40
1
 40
1
 40
1
 10
138.155354
 20
62.500001
 30
0.0
 10
138.155354
 20
65.126533
 30
0.0
 10
139.556592
 20
67.553548
 30
0.0
 10
141.831235
 20
68.866813
 30
0.0
  0
SPLINE
  5
144
100
AcDbEntity
  8
Calque_1
 62
7
100
AcDbSpline
 70
8
 71
3
 72
8
 73
4
 74
0
 40
0
 40
0
 40
0
 40
0
 40
1
 40
1
 40
1
 40
1
 10
141.831235
 20
68.866813
 30
0.0
 10
144.105878
 20
70.180079
 30
0.0
 10
146.908354
 20
70.180079
 30
0.0
 10
149.182997
 20
68.866813
 30
0.0
  0
SPLINE
  5
145
100
AcDbEntity
  8
Calque_1
 62
7
100
AcDbSpline
 70
8
 71
3
 72
8
 73
4
 74
0
 40
0
 40
0
 40
0
 40
0
 40
1
 40
1
 40
1
 40
1
 10
149.182997
 20
68.866813
 30
0.0
 10
151.457640
 20
67.553548
 30
0.0
 10
152.858878
 20
65.126533
 30
0.0
 10
152.858878
 20
62.500001
 30
0.0
  0
LWPOLYLINE
  5
146
100
AcDbEntity
  8
Calque_1
 62
7
100
AcDbPolyline
 90
1
 70
1
 10
191.632587
 20
62.833771
 30
0.0
  0
SPLINE
  5
147
100
AcDbEntity
  8
Calque_1
 62
7
100
AcDbSpline
 70
8
 71
3
 72
8
 73
4
 74
0
 40
0
 40
0
 40
0
 40
0
 40
1
 40
1
 40
1
 40
1
 10
135.562299
 20
62.722871
 30
0.0
 10
135.562299
 20
62.101897
 30
0.0
 10
135.058900
 20
61.598498
 30
0.0
 10
134.437926
 20
61.598498
 30
0.0
  0
SPLINE
  5
148
100
AcDbEntity
  8
Calque_1
 62
7
100
AcDbSpline
 70
8
 71
3
 72
8
 73
4
 74
0
 40
0
 40
0
 40
0
 40
0
 40
1
 40
1
 40
1
 40
1
 10
134.437926
 20
61.598498
 30
0.0
 10
133.816952
 20
61.598498
 30
0.0
 10
133.313553
 20
62.101897
 30
0.0
 10
133.313553
 20
62.722871
 30
0.0
  0
SPLINE
  5
149
100
AcDbEntity
  8
Calque_1
 62
7
100
AcDbSpline
 70
8
 71
3
 72
8
 73
4
 74
0
 40
0
 40
0
 40
0
 40
0
 40
1
 40
1
 40
1
 40
1
 10
133.313553
 20
62.722871
 30
0.0
 10
133.313553
 20
63.343845
 30
0.0
 10
133.816952
 20
63.847244
 30
0.0
 10
134.437926
 20
63.847244
 30
0.0
  0
SPLINE
  5
14a
100
AcDbEntity
  8
Calque_1
 62
7
100
AcDbSpline
 70
8
 71
3
 72
8
 73
4
 74
0
 40
0
 40
0
 40
0
 40
0
 40
1
 40
1
 40
1
 40
1
 10
134.437926
 20
63.847244
 30
0.0
 10
135.058900
 20
63.847244
 30
0.0
 10
135.562299
 20
63.343845
 30
0.0
 10
135.562299
 20
62.722871
 30
0.0
  0
LWPOLYLINE
  5
14b
100
AcDbEntity
  8
Calque_1
 62
7
100
AcDbPolyline
 90
1
 70
1
 10
152.858878
 20
62.500001
 30
0.0
  0
SPLINE
  5
14c
100
AcDbEntity
  8
Calque_1
 62
7
100
AcDbSpline
 70
8
 71
3
 72
8
 73
4
 74
0
 40
0
 40
0
 40
0
 40
0
 40
1
 40
1
 40
1
 40
1
 10
157.501339
 20
62.833771
 30
0.0
 10
157.501339
 20
62.432071
 30
0.0
 10
157.287035
 20
62.060885
 30
0.0
 10
156.939153
 20
61.860035
 30
0.0
  0
SPLINE
  5
14d
100
AcDbEntity
  8
Calque_1
 62
7
100
AcDbSpline
 70
8
 71
3
 72
8
 73
4
 74
0
 40
0
 40
0
 40
0
 40
0
 40
1
 40
1
 40
1
 40
1
 10
156.939153
 20
61.860035
 30
0.0
 10
156.591270
 20
61.659185
 30
0.0
 10
156.162662
 20
61.659185
 30
0.0
 10
155.814779
 20
61.860035
 30
0.0
  0
SPLINE
  5
14e
100
AcDbEntity
  8
Calque_1
 62
7
100
AcDbSpline
 70
8
 71
3
 72
8
 73
4
 74
0
 40
0
 40
0
 40
0
 40
0
 40
1
 40
1
 40
1
 40
1
 10
155.814779
 20
61.860035
 30
0.0
 10
155.466897
 20
62.060885
 30
0.0
 10
155.252593
 20
62.432071
 30
0.0
 10
155.252593
 20
62.833771
 30
0.0
  0
SPLINE
  5
14f
100
AcDbEntity
  8
Calque_1
 62
7
100
AcDbSpline
 70
8
 71
3
 72
8
 73
4
 74
0
 40
0
 40
0
 40
0
 40
0
 40
1
 40
1
 40
1
 40
1
 10
155.252593
 20
62.833771
 30
0.0
 10
155.252593
 20
63.235471
 30
0.0
 10
155.466897
 20
63.606657
 30
0.0
 10
155.814779
 20
63.807507
 30
0.0
  0
SPLINE
  5
150
100
AcDbEntity
  8
Calque_1
 62
7
100
AcDbSpline
 70
8
 71
3
 72
8
 73
4
 74
0
 40
0
 40
0
 40
0
 40
0
 40
1
 40
1
 40
1
 40
1
 10
155.814779
 20
63.807507
 30
0.0
 10
156.162662
 20
64.008357
 30
0.0
 10
156.591270
 20
64.008357
 30
0.0
 10
156.939153
 20
63.807507
 30
0.0
  0
SPLINE
  5
151
100
AcDbEntity
  8
Calque_1
 62
7
100
AcDbSpline
 70
8
 71
3
 72
8
 73
4
 74
0
 40
0
 40
0
 40
0
 40
0
 40
1
 40
1
 40
1
 40
1
 10
156.939153
 20
63.807507
 30
0.0
 10
157.287035
 20
63.606657
 30
0.0
 10
157.501339
 20
63.235471
 30
0.0
 10
157.501339
 20
62.833771
 30
0.0
  0
LWPOLYLINE
  5
152
100
AcDbEntity
  8
Calque_1
 62
7
100
AcDbPolyline
 90
1
 70
1
 10
135.562299
 20
62.722871
 30
0.0
  0
SPLINE
  5
153
100
AcDbEntity
  8
Calque_1
 62
7
100
AcDbSpline
 70
8
 71
3
 72
8
 73
4
 74
0
 40
0
 40
0
 40
0
 40
0
 40
1
 40
1
 40
1
 40
1
 10
122.258457
 20
62.500001
 30
0.0
 10
122.258457
 20
59.873469
 30
0.0
 10
120.857219
 20
57.446454
 30
0.0
 10
118.582576
 20
56.133189
 30
0.0
  0
SPLINE
  5
154
100
AcDbEntity
  8
Calque_1
 62
7
100
AcDbSpline
 70
8
 71
3
 72
8
 73
4
 74
0
 40
0
 40
0
 40
0
 40
0
 40
1
 40
1
 40
1
 40
1
 10
118.582576
 20
56.133189
 30
0.0
 10
116.307933
 20
54.819923
 30
0.0
 10
113.505457
 20
54.819923
 30
0.0
 10
111.230814
 20
56.133189
 30
0.0
  0
SPLINE
  5
155
100
AcDbEntity
  8
Calque_1
 62
7
100
AcDbSpline
 70
8
 71
3
 72
8
 73
4
 74
0
 40
0
 40
0
 40
0
 40
0
 40
1
 40
1
 40
1
 40
1
 10
111.230814
 20
56.133189
 30
0.0
 10
108.956171
 20
57.446454
 30
0.0
 10
107.554933
 20
59.873469
 30
0.0
 10
107.554933
 20
62.500001
 30
0.0
  0
SPLINE
  5
156
100
AcDbEntity
  8
Calque_1
 62
7
100
AcDbSpline
 70
8
 71
3
 72
8
 73
4
 74
0
 40
0
 40
0
 40
0
 40
0
 40
1
 40
1
 40
1
 40
1
 10
107.554933
 20
62.500001
 30
0.0
 10
107.554933
 20
65.126533
 30
0.0
 10
108.956171
 20
67.553548
 30
0.0
 10
111.230814
 20
68.866813
 30
0.0
  0
SPLINE
  5
157
100
AcDbEntity
  8
Calque_1
 62
7
100
AcDbSpline
 70
8
 71
3
 72
8
 73
4
 74
0
 40
0
 40
0
 40
0
 40
0
 40
1
 40
1
 40
1
 40
1
 10
111.230814
 20
68.866813
 30
0.0
 10
113.505457
 20
70.180079
 30
0.0
 10
116.307933
 20
70.180079
 30
0.0
 10
118.582576
 20
68.866813
 30
0.0
  0
SPLINE
  5
158
100
AcDbEntity
  8
Calque_1
 62
7
100
AcDbSpline
 70
8
 71
3
 72
8
 73
4
 74
0
 40
0
 40
0
 40
0
 40
0
 40
1
 40
1
 40
1
 40
1
 10
118.582576
 20
68.866813
 30
0.0
 10
120.857219
 20
67.553548
 30
0.0
 10
122.258457
 20
65.126533
 30
0.0
 10
122.258457
 20
62.500001
 30
0.0
  0
LWPOLYLINE
  5
159
100
AcDbEntity
  8
Calque_1
 62
7
100
AcDbPolyline
 90
1
 70
1
 10
157.501339
 20
62.833771
 30
0.0
  0
SPLINE
  5
15a
100
AcDbEntity
  8
Calque_1
 62
7
100
AcDbSpline
 70
8
 71
3
 72
8
 73
4
 74
0
 40
0
 40
0
 40
0
 40
0
 40
1
 40
1
 40
1
 40
1
 10
104.961878
 20
62.722871
 30
0.0
 10
104.961878
 20
62.101897
 30
0.0
 10
104.458479
 20
61.598498
 30
0.0
 10
103.837505
 20
61.598498
 30
0.0
  0
SPLINE
  5
15b
100
AcDbEntity
  8
Calque_1
 62
7
100
AcDbSpline
 70
8
 71
3
 72
8
 73
4
 74
0
 40
0
 40
0
 40
0
 40
0
 40
1
 40
1
 40
1
 40
1
 10
103.837505
 20
61.598498
 30
0.0
 10
103.216531
 20
61.598498
 30
0.0
 10
102.713132
 20
62.101897
 30
0.0
 10
102.713132
 20
62.722871
 30
0.0
  0
SPLINE
  5
15c
100
AcDbEntity
  8
Calque_1
 62
7
100
AcDbSpline
 70
8
 71
3
 72
8
 73
4
 74
0
 40
0
 40
0
 40
0
 40
0
 40
1
 40
1
 40
1
 40
1
 10
102.713132
 20
62.722871
 30
0.0
 10
102.713132
 20
63.343845
 30
0.0
 10
103.216531
 20
63.847244
 30
0.0
 10
103.837505
 20
63.847244
 30
0.0
  0
SPLINE
  5
15d
100
AcDbEntity
  8
Calque_1
 62
7
100
AcDbSpline
 70
8
 71
3
 72
8
 73
4
 74
0
 40
0
 40
0
 40
0
 40
0
 40
1
 40
1
 40
1
 40
1
 10
103.837505
 20
63.847244
 30
0.0
 10
104.458479
 20
63.847244
 30
0.0
 10
104.961878
 20
63.343845
 30
0.0
 10
104.961878
 20
62.722871
 30
0.0
  0
LWPOLYLINE
  5
15e
100
AcDbEntity
  8
Calque_1
 62
7
100
AcDbPolyline
 90
1
 70
1
 10
122.258457
 20
62.500001
 30
0.0
  0
SPLINE
  5
15f
100
AcDbEntity
  8
Calque_1
 62
7
100
AcDbSpline
 70
8
 71
3
 72
8
 73
4
 74
0
 40
0
 40
0
 40
0
 40
0
 40
1
 40
1
 40
1
 40
1
 10
126.900918
 20
62.833771
 30
0.0
 10
126.900918
 20
62.432071
 30
0.0
 10
126.686614
 20
62.060885
 30
0.0
 10
126.338732
 20
61.860035
 30
0.0
  0
SPLINE
  5
160
100
AcDbEntity
  8
Calque_1
 62
7
100
AcDbSpline
 70
8
 71
3
 72
8
 73
4
 74
0
 40
0
 40
0
 40
0
 40
0
 40
1
 40
1
 40
1
 40
1
 10
126.338732
 20
61.860035
 30
0.0
 10
125.990849
 20
61.659185
 30
0.0
 10
125.562241
 20
61.659185
 30
0.0
 10
125.214358
 20
61.860035
 30
0.0
  0
SPLINE
  5
161
100
AcDbEntity
  8
Calque_1
 62
7
100
AcDbSpline
 70
8
 71
3
 72
8
 73
4
 74
0
 40
0
 40
0
 40
0
 40
0
 40
1
 40
1
 40
1
 40
1
 10
125.214358
 20
61.860035
 30
0.0
 10
124.866476
 20
62.060885
 30
0.0
 10
124.652172
 20
62.432071
 30
0.0
 10
124.652172
 20
62.833771
 30
0.0
  0
SPLINE
  5
162
100
AcDbEntity
  8
Calque_1
 62
7
100
AcDbSpline
 70
8
 71
3
 72
8
 73
4
 74
0
 40
0
 40
0
 40
0
 40
0
 40
1
 40
1
 40
1
 40
1
 10
124.652172
 20
62.833771
 30
0.0
 10
124.652172
 20
63.235471
 30
0.0
 10
124.866476
 20
63.606657
 30
0.0
 10
125.214358
 20
63.807507
 30
0.0
  0
SPLINE
  5
163
100
AcDbEntity
  8
Calque_1
 62
7
100
AcDbSpline
 70
8
 71
3
 72
8
 73
4
 74
0
 40
0
 40
0
 40
0
 40
0
 40
1
 40
1
 40
1
 40
1
 10
125.214358
 20
63.807507
 30
0.0
 10
125.562241
 20
64.008357
 30
0.0
 10
125.990849
 20
64.008357
 30
0.0
 10
126.338732
 20
63.807507
 30
0.0
  0
SPLINE
  5
164
100
AcDbEntity
  8
Calque_1
 62
7
100
AcDbSpline
 70
8
 71
3
 72
8
 73
4
 74
0
 40
0
 40
0
 40
0
 40
0
 40
1
 40
1
 40
1
 40
1
 10
126.338732
 20
63.807507
 30
0.0
 10
126.686614
 20
63.606657
 30
0.0
 10
126.900918
 20
63.235471
 30
0.0
 10
126.900918
 20
62.833771
 30
0.0
  0
LWPOLYLINE
  5
165
100
AcDbEntity
  8
Calque_1
 62
7
100
AcDbPolyline
 90
1
 70
1
 10
104.961878
 20
62.722871
 30
0.0
  0
SPLINE
  5
166
100
AcDbEntity
  8
Calque_1
 62
7
100
AcDbSpline
 70
8
 71
3
 72
8
 73
4
 74
0
 40
0
 40
0
 40
0
 40
0
 40
1
 40
1
 40
1
 40
1
 10
92.496072
 20
62.500001
 30
0.0
 10
92.496072
 20
59.873469
 30
0.0
 10
91.094834
 20
57.446454
 30
0.0
 10
88.820191
 20
56.133189
 30
0.0
  0
SPLINE
  5
167
100
AcDbEntity
  8
Calque_1
 62
7
100
AcDbSpline
 70
8
 71
3
 72
8
 73
4
 74
0
 40
0
 40
0
 40
0
 40
0
 40
1
 40
1
 40
1
 40
1
 10
88.820191
 20
56.133189
 30
0.0
 10
86.545548
 20
54.819923
 30
0.0
 10
83.743072
 20
54.819923
 30
0.0
 10
81.468429
 20
56.133189
 30
0.0
  0
SPLINE
  5
168
100
AcDbEntity
  8
Calque_1
 62
7
100
AcDbSpline
 70
8
 71
3
 72
8
 73
4
 74
0
 40
0
 40
0
 40
0
 40
0
 40
1
 40
1
 40
1
 40
1
 10
81.468429
 20
56.133189
 30
0.0
 10
79.193786
 20
57.446454
 30
0.0
 10
77.792548
 20
59.873469
 30
0.0
 10
77.792548
 20
62.500001
 30
0.0
  0
SPLINE
  5
169
100
AcDbEntity
  8
Calque_1
 62
7
100
AcDbSpline
 70
8
 71
3
 72
8
 73
4
 74
0
 40
0
 40
0
 40
0
 40
0
 40
1
 40
1
 40
1
 40
1
 10
77.792548
 20
62.500001
 30
0.0
 10
77.792548
 20
65.126533
 30
0.0
 10
79.193786
 20
67.553548
 30
0.0
 10
81.468429
 20
68.866813
 30
0.0
  0
SPLINE
  5
16a
100
AcDbEntity
  8
Calque_1
 62
7
100
AcDbSpline
 70
8
 71
3
 72
8
 73
4
 74
0
 40
0
 40
0
 40
0
 40
0
 40
1
 40
1
 40
1
 40
1
 10
81.468429
 20
68.866813
 30
0.0
 10
83.743072
 20
70.180079
 30
0.0
 10
86.545548
 20
70.180079
 30
0.0
 10
88.820191
 20
68.866813
 30
0.0
  0
SPLINE
  5
16b
100
AcDbEntity
  8
Calque_1
 62
7
100
AcDbSpline
 70
8
 71
3
 72
8
 73
4
 74
0
 40
0
 40
0
 40
0
 40
0
 40
1
 40
1
 40
1
 40
1
 10
88.820191
 20
68.866813
 30
0.0
 10
91.094834
 20
67.553548
 30
0.0
 10
92.496072
 20
65.126533
 30
0.0
 10
92.496072
 20
62.500001
 30
0.0
  0
LWPOLYLINE
  5
16c
100
AcDbEntity
  8
Calque_1
 62
7
100
AcDbPolyline
 90
1
 70
1
 10
126.900918
 20
62.833771
 30
0.0
  0
SPLINE
  5
16d
100
AcDbEntity
  8
Calque_1
 62
7
100
AcDbSpline
 70
8
 71
3
 72
8
 73
4
 74
0
 40
0
 40
0
 40
0
 40
0
 40
1
 40
1
 40
1
 40
1
 10
75.199493
 20
62.722871
 30
0.0
 10
75.199493
 20
62.101897
 30
0.0
 10
74.696094
 20
61.598498
 30
0.0
 10
74.075120
 20
61.598498
 30
0.0
  0
SPLINE
  5
16e
100
AcDbEntity
  8
Calque_1
 62
7
100
AcDbSpline
 70
8
 71
3
 72
8
 73
4
 74
0
 40
0
 40
0
 40
0
 40
0
 40
1
 40
1
 40
1
 40
1
 10
74.075120
 20
61.598498
 30
0.0
 10
73.454146
 20
61.598498
 30
0.0
 10
72.950747
 20
62.101897
 30
0.0
 10
72.950747
 20
62.722871
 30
0.0
  0
SPLINE
  5
16f
100
AcDbEntity
  8
Calque_1
 62
7
100
AcDbSpline
 70
8
 71
3
 72
8
 73
4
 74
0
 40
0
 40
0
 40
0
 40
0
 40
1
 40
1
 40
1
 40
1
 10
72.950747
 20
62.722871
 30
0.0
 10
72.950747
 20
63.343845
 30
0.0
 10
73.454146
 20
63.847244
 30
0.0
 10
74.075120
 20
63.847244
 30
0.0
  0
SPLINE
  5
170
100
AcDbEntity
  8
Calque_1
 62
7
100
AcDbSpline
 70
8
 71
3
 72
8
 73
4
 74
0
 40
0
 40
0
 40
0
 40
0
 40
1
 40
1
 40
1
 40
1
 10
74.075120
 20
63.847244
 30
0.0
 10
74.696094
 20
63.847244
 30
0.0
 10
75.199493
 20
63.343845
 30
0.0
 10
75.199493
 20
62.722871
 30
0.0
  0
LWPOLYLINE
  5
171
100
AcDbEntity
  8
Calque_1
 62
7
100
AcDbPolyline
 90
1
 70
1
 10
92.496072
 20
62.500001
 30
0.0
  0
SPLINE
  5
172
100
AcDbEntity
  8
Calque_1
 62
7
100
AcDbSpline
 70
8
 71
3
 72
8
 73
4
 74
0
 40
0
 40
0
 40
0
 40
0
 40
1
 40
1
 40
1
 40
1
 10
97.138533
 20
62.833771
 30
0.0
 10
97.138533
 20
62.432071
 30
0.0
 10
96.924229
 20
62.060885
 30
0.0
 10
96.576347
 20
61.860035
 30
0.0
  0
SPLINE
  5
173
100
AcDbEntity
  8
Calque_1
 62
7
100
AcDbSpline
 70
8
 71
3
 72
8
 73
4
 74
0
 40
0
 40
0
 40
0
 40
0
 40
1
 40
1
 40
1
 40
1
 10
96.576347
 20
61.860035
 30
0.0
 10
96.228464
 20
61.659185
 30
0.0
 10
95.799856
 20
61.659185
 30
0.0
 10
95.451973
 20
61.860035
 30
0.0
  0
SPLINE
  5
174
100
AcDbEntity
  8
Calque_1
 62
7
100
AcDbSpline
 70
8
 71
3
 72
8
 73
4
 74
0
 40
0
 40
0
 40
0
 40
0
 40
1
 40
1
 40
1
 40
1
 10
95.451973
 20
61.860035
 30
0.0
 10
95.104091
 20
62.060885
 30
0.0
 10
94.889787
 20
62.432071
 30
0.0
 10
94.889787
 20
62.833771
 30
0.0
  0
SPLINE
  5
175
100
AcDbEntity
  8
Calque_1
 62
7
100
AcDbSpline
 70
8
 71
3
 72
8
 73
4
 74
0
 40
0
 40
0
 40
0
 40
0
 40
1
 40
1
 40
1
 40
1
 10
94.889787
 20
62.833771
 30
0.0
 10
94.889787
 20
63.235471
 30
0.0
 10
95.104091
 20
63.606657
 30
0.0
 10
95.451973
 20
63.807507
 30
0.0
  0
SPLINE
  5
176
100
AcDbEntity
  8
Calque_1
 62
7
100
AcDbSpline
 70
8
 71
3
 72
8
 73
4
 74
0
 40
0
 40
0
 40
0
 40
0
 40
1
 40
1
 40
1
 40
1
 10
95.451973
 20
63.807507
 30
0.0
 10
95.799856
 20
64.008357
 30
0.0
 10
96.228464
 20
64.008357
 30
0.0
 10
96.576347
 20
63.807507
 30
0.0
  0
SPLINE
  5
177
100
AcDbEntity
  8
Calque_1
 62
7
100
AcDbSpline
 70
8
 71
3
 72
8
 73
4
 74
0
 40
0
 40
0
 40
0
 40
0
 40
1
 40
1
 40
1
 40
1
 10
96.576347
 20
63.807507
 30
0.0
 10
96.924229
 20
63.606657
 30
0.0
 10
97.138533
 20
63.235471
 30
0.0
 10
97.138533
 20
62.833771
 30
0.0
  0
LWPOLYLINE
  5
178
100
AcDbEntity
  8
Calque_1
 62
7
100
AcDbPolyline
 90
1
 70
1
 10
75.199493
 20
62.722871
 30
0.0
  0
SPLINE
  5
179
100
AcDbEntity
  8
Calque_1
 62
7
100
AcDbSpline
 70
8
 71
3
 72
8
 73
4
 74
0
 40
0
 40
0
 40
0
 40
0
 40
1
 40
1
 40
1
 40
1
 10
91.729514
 20
125.899990
 30
0.0
 10
91.729514
 20
123.817306
 30
0.0
 10
90.618415
 20
121.892826
 30
0.0
 10
88.814758
 20
120.851484
 30
0.0
  0
SPLINE
  5
17a
100
AcDbEntity
  8
Calque_1
 62
7
100
AcDbSpline
 70
8
 71
3
 72
8
 73
4
 74
0
 40
0
 40
0
 40
0
 40
0
 40
1
 40
1
 40
1
 40
1
 10
88.814758
 20
120.851484
 30
0.0
 10
87.011101
 20
119.810142
 30
0.0
 10
84.788903
 20
119.810142
 30
0.0
 10
82.985246
 20
120.851484
 30
0.0
  0
SPLINE
  5
17b
100
AcDbEntity
  8
Calque_1
 62
7
100
AcDbSpline
 70
8
 71
3
 72
8
 73
4
 74
0
 40
0
 40
0
 40
0
 40
0
 40
1
 40
1
 40
1
 40
1
 10
82.985246
 20
120.851484
 30
0.0
 10
81.181589
 20
121.892826
 30
0.0
 10
80.070490
 20
123.817306
 30
0.0
 10
80.070490
 20
125.899990
 30
0.0
  0
SPLINE
  5
17c
100
AcDbEntity
  8
Calque_1
 62
7
100
AcDbSpline
 70
8
 71
3
 72
8
 73
4
 74
0
 40
0
 40
0
 40
0
 40
0
 40
1
 40
1
 40
1
 40
1
 10
80.070490
 20
125.899990
 30
0.0
 10
80.070490
 20
129.119541
 30
0.0
 10
82.680451
 20
131.729502
 30
0.0
 10
85.900002
 20
131.729502
 30
0.0
  0
SPLINE
  5
17d
100
AcDbEntity
  8
Calque_1
 62
7
100
AcDbSpline
 70
8
 71
3
 72
8
 73
4
 74
0
 40
0
 40
0
 40
0
 40
0
 40
1
 40
1
 40
1
 40
1
 10
85.900002
 20
131.729502
 30
0.0
 10
89.119553
 20
131.729502
 30
0.0
 10
91.729514
 20
129.119541
 30
0.0
 10
91.729514
 20
125.899990
 30
0.0
  0
LWPOLYLINE
  5
17e
100
AcDbEntity
  8
Calque_1
 62
7
100
AcDbPolyline
 90
1
 70
1
 10
97.138533
 20
62.833771
 30
0.0
  0
SPLINE
  5
17f
100
AcDbEntity
  8
Calque_1
 62
7
100
AcDbSpline
 70
8
 71
3
 72
8
 73
4
 74
0
 40
0
 40
0
 40
0
 40
0
 40
1
 40
1
 40
1
 40
1
 10
111.729512
 20
125.899990
 30
0.0
 10
111.729512
 20
123.817306
 30
0.0
 10
110.618413
 20
121.892826
 30
0.0
 10
108.814756
 20
120.851484
 30
0.0
  0
SPLINE
  5
180
100
AcDbEntity
  8
Calque_1
 62
7
100
AcDbSpline
 70
8
 71
3
 72
8
 73
4
 74
0
 40
0
 40
0
 40
0
 40
0
 40
1
 40
1
 40
1
 40
1
 10
108.814756
 20
120.851484
 30
0.0
 10
107.011099
 20
119.810142
 30
0.0
 10
104.788901
 20
119.810142
 30
0.0
 10
102.985244
 20
120.851484
 30
0.0
  0
SPLINE
  5
181
100
AcDbEntity
  8
Calque_1
 62
7
100
AcDbSpline
 70
8
 71
3
 72
8
 73
4
 74
0
 40
0
 40
0
 40
0
 40
0
 40
1
 40
1
 40
1
 40
1
 10
102.985244
 20
120.851484
 30
0.0
 10
101.181587
 20
121.892826
 30
0.0
 10
100.070488
 20
123.817306
 30
0.0
 10
100.070488
 20
125.899990
 30
0.0
  0
SPLINE
  5
182
100
AcDbEntity
  8
Calque_1
 62
7
100
AcDbSpline
 70
8
 71
3
 72
8
 73
4
 74
0
 40
0
 40
0
 40
0
 40
0
 40
1
 40
1
 40
1
 40
1
 10
100.070488
 20
125.899990
 30
0.0
 10
100.070488
 20
127.982674
 30
0.0
 10
101.181587
 20
129.907154
 30
0.0
 10
102.985244
 20
130.948496
 30
0.0
  0
SPLINE
  5
183
100
AcDbEntity
  8
Calque_1
 62
7
100
AcDbSpline
 70
8
 71
3
 72
8
 73
4
 74
0
 40
0
 40
0
 40
0
 40
0
 40
1
 40
1
 40
1
 40
1
 10
102.985244
 20
130.948496
 30
0.0
 10
104.788901
 20
131.989838
 30
0.0
 10
107.011099
 20
131.989838
 30
0.0
 10
108.814756
 20
130.948496
 30
0.0
  0
SPLINE
  5
184
100
AcDbEntity
  8
Calque_1
 62
7
100
AcDbSpline
 70
8
 71
3
 72
8
 73
4
 74
0
 40
0
 40
0
 40
0
 40
0
 40
1
 40
1
 40
1
 40
1
 10
108.814756
 20
130.948496
 30
0.0
 10
110.618413
 20
129.907154
 30
0.0
 10
111.729512
 20
127.982674
 30
0.0
 10
111.729512
 20
125.899990
 30
0.0
  0
LWPOLYLINE
  5
185
100
AcDbEntity
  8
Calque_1
 62
7
100
AcDbPolyline
 90
1
 70
1
 10
91.729514
 20
125.899990
 30
0.0
  0
SPLINE
  5
186
100
AcDbEntity
  8
Calque_1
 62
7
100
AcDbSpline
 70
8
 71
3
 72
8
 73
4
 74
0
 40
0
 40
0
 40
0
 40
0
 40
1
 40
1
 40
1
 40
1
 10
131.729512
 20
125.899990
 30
0.0
 10
131.729512
 20
123.817306
 30
0.0
 10
130.618413
 20
121.892826
 30
0.0
 10
128.814756
 20
120.851484
 30
0.0
  0
SPLINE
  5
187
100
AcDbEntity
  8
Calque_1
 62
7
100
AcDbSpline
 70
8
 71
3
 72
8
 73
4
 74
0
 40
0
 40
0
 40
0
 40
0
 40
1
 40
1
 40
1
 40
1
 10
128.814756
 20
120.851484
 30
0.0
 10
127.011099
 20
119.810142
 30
0.0
 10
124.788901
 20
119.810142
 30
0.0
 10
122.985244
 20
120.851484
 30
0.0
  0
SPLINE
  5
188
100
AcDbEntity
  8
Calque_1
 62
7
100
AcDbSpline
 70
8
 71
3
 72
8
 73
4
 74
0
 40
0
 40
0
 40
0
 40
0
 40
1
 40
1
 40
1
 40
1
 10
122.985244
 20
120.851484
 30
0.0
 10
121.181587
 20
121.892826
 30
0.0
 10
120.070488
 20
123.817306
 30
0.0
 10
120.070488
 20
125.899990
 30
0.0
  0
SPLINE
  5
189
100
AcDbEntity
  8
Calque_1
 62
7
100
AcDbSpline
 70
8
 71
3
 72
8
 73
4
 74
0
 40
0
 40
0
 40
0
 40
0
 40
1
 40
1
 40
1
 40
1
 10
120.070488
 20
125.899990
 30
0.0
 10
120.070488
 20
127.982674
 30
0.0
 10
121.181587
 20
129.907154
 30
0.0
 10
122.985244
 20
130.948496
 30
0.0
  0
SPLINE
  5
18a
100
AcDbEntity
  8
Calque_1
 62
7
100
AcDbSpline
 70
8
 71
3
 72
8
 73
4
 74
0
 40
0
 40
0
 40
0
 40
0
 40
1
 40
1
 40
1
 40
1
 10
122.985244
 20
130.948496
 30
0.0
 10
124.788901
 20
131.989838
 30
0.0
 10
127.011099
 20
131.989838
 30
0.0
 10
128.814756
 20
130.948496
 30
0.0
  0
SPLINE
  5
18b
100
AcDbEntity
  8
Calque_1
 62
7
100
AcDbSpline
 70
8
 71
3
 72
8
 73
4
 74
0
 40
0
 40
0
 40
0
 40
0
 40
1
 40
1
 40
1
 40
1
 10
128.814756
 20
130.948496
 30
0.0
 10
130.618413
 20
129.907154
 30
0.0
 10
131.729512
 20
127.982674
 30
0.0
 10
131.729512
 20
125.899990
 30
0.0
  0
LWPOLYLINE
  5
18c
100
AcDbEntity
  8
Calque_1
 62
7
100
AcDbPolyline
 90
1
 70
1
 10
111.729512
 20
125.899990
 30
0.0
  0
SPLINE
  5
18d
100
AcDbEntity
  8
Calque_1
 62
7
100
AcDbSpline
 70
8
 71
3
 72
8
 73
4
 74
0
 40
0
 40
0
 40
0
 40
0
 40
1
 40
1
 40
1
 40
1
 10
151.729502
 20
125.899990
 30
0.0
 10
151.729502
 20
123.817306
 30
0.0
 10
150.618403
 20
121.892826
 30
0.0
 10
148.814746
 20
120.851484
 30
0.0
  0
SPLINE
  5
18e
100
AcDbEntity
  8
Calque_1
 62
7
100
AcDbSpline
 70
8
 71
3
 72
8
 73
4
 74
0
 40
0
 40
0
 40
0
 40
0
 40
1
 40
1
 40
1
 40
1
 10
148.814746
 20
120.851484
 30
0.0
 10
147.011089
 20
119.810142
 30
0.0
 10
144.788891
 20
119.810142
 30
0.0
 10
142.985234
 20
120.851484
 30
0.0
  0
SPLINE
  5
18f
100
AcDbEntity
  8
Calque_1
 62
7
100
AcDbSpline
 70
8
 71
3
 72
8
 73
4
 74
0
 40
0
 40
0
 40
0
 40
0
 40
1
 40
1
 40
1
 40
1
 10
142.985234
 20
120.851484
 30
0.0
 10
141.181577
 20
121.892826
 30
0.0
 10
140.070478
 20
123.817306
 30
0.0
 10
140.070478
 20
125.899990
 30
0.0
  0
SPLINE
  5
190
100
AcDbEntity
  8
Calque_1
 62
7
100
AcDbSpline
 70
8
 71
3
 72
8
 73
4
 74
0
 40
0
 40
0
 40
0
 40
0
 40
1
 40
1
 40
1
 40
1
 10
140.070478
 20
125.899990
 30
0.0
 10
140.070478
 20
129.119540
 30
0.0
 10
142.680440
 20
131.729502
 30
0.0
 10
145.899990
 20
131.729502
 30
0.0
  0
SPLINE
  5
191
100
AcDbEntity
  8
Calque_1
 62
7
100
AcDbSpline
 70
8
 71
3
 72
8
 73
4
 74
0
 40
0
 40
0
 40
0
 40
0
 40
1
 40
1
 40
1
 40
1
 10
145.899990
 20
131.729502
 30
0.0
 10
149.119540
 20
131.729502
 30
0.0
 10
151.729502
 20
129.119540
 30
0.0
 10
151.729502
 20
125.899990
 30
0.0
  0
LWPOLYLINE
  5
192
100
AcDbEntity
  8
Calque_1
 62
7
100
AcDbPolyline
 90
1
 70
1
 10
131.729512
 20
125.899990
 30
0.0
  0
LWPOLYLINE
  5
193
100
AcDbEntity
  8
Calque_1
 62
7
100
AcDbPolyline
 90
1
 70
1
 10
151.729502
 20
125.899990
 30
0.0
  0
LWPOLYLINE
  5
194
100
AcDbEntity
  8
Calque_1
 62
7
100
AcDbPolyline
 90
60
 70
1
 10
66.000000
 20
104.000000
 30
0.0
 10
79.526429
 20
104.000000
 30
0.0
 10
79.526429
 20
107.000000
 30
0.0
 10
94.616429
 20
107.000000
 30
0.0
 10
94.616429
 20
104.000000
 30
0.0
 10
111.097857
 20
104.000000
 30
0.0
 10
111.097857
 20
107.000000
 30
0.0
 10
126.187857
 20
107.000000
 30
0.0
 10
126.187857
 20
104.000000
 30
0.0
 10
142.669286
 20
104.000000
 30
0.0
 10
142.669286
 20
107.000000
 30
0.0
 10
157.759286
 20
107.000000
 30
0.0
 10
157.759286
 20
104.000000
 30
0.0
 10
174.240714
 20
104.000000
 30
0.0
 10
174.240714
 20
107.000000
 30
0.0
 10
189.330714
 20
107.000000
 30
0.0
 10
189.330714
 20
104.000000
 30
0.0
 10
205.812143
 20
104.000000
 30
0.0
 10
205.812143
 20
107.000000
 30
0.0
 10
220.902143
 20
107.000000
 30
0.0
 10
220.902143
 20
104.000000
 30
0.0
 10
237.383571
 20
104.000000
 30
0.0
 10
237.383571
 20
107.000000
 30
0.0
 10
252.473571
 20
107.000000
 30
0.0
 10
252.473571
 20
104.000000
 30
0.0
 10
269.000000
 20
104.000000
 30
0.0
 10
269.000000
 20
83.955000
 30
0.0
 10
266.000000
 20
83.955000
 30
0.0
 10
266.000000
 20
69.045000
 30
0.0
 10
269.000000
 20
69.045000
 30
0.0
 10
269.000000
 20
46.000000
 30
0.0
 10
252.383571
 20
46.000000
 30
0.0
 10
252.383571
 20
49.000000
 30
0.0
 10
237.473571
 20
49.000000
 30
0.0
 10
237.473571
 20
46.000000
 30
0.0
 10
220.812143
 20
46.000000
 30
0.0
 10
220.812143
 20
49.000000
 30
0.0
 10
205.902143
 20
49.000000
 30
0.0
 10
205.902143
 20
46.000000
 30
0.0
 10
189.240714
 20
46.000000
 30
0.0
 10
189.240714
 20
49.000000
 30
0.0
 10
174.330714
 20
49.000000
 30
0.0
 10
174.330714
 20
46.000000
 30
0.0
 10
157.669286
 20
46.000000
 30
0.0
 10
157.669286
 20
49.000000
 30
0.0
 10
142.759286
 20
49.000000
 30
0.0
 10
142.759286
 20
46.000000
 30
0.0
 10
126.097857
 20
46.000000
 30
0.0
 10
126.097857
 20
49.000000
 30
0.0
 10
111.187857
 20
49.000000
 30
0.0
 10
111.187857
 20
46.000000
 30
0.0
 10
94.526429
 20
46.000000
 30
0.0
 10
94.526429
 20
49.000000
 30
0.0
 10
79.616429
 20
49.000000
 30
0.0
 10
79.616429
 20
46.000000
 30
0.0
 10
66.000000
 20
46.000000
 30
0.0
 10
66.000000
 20
68.955000
 30
0.0
 10
63.000000
 20
68.955000
 30
0.0
 10
63.000000
 20
84.045000
 30
0.0
 10
66.000000
 20
84.045000
 30
0.0
  0
LWPOLYLINE
  5
195
100
AcDbEntity
  8
Calque_1
 62
7
100
AcDbPolyline
 90
36
 70
1
 10
1.000000
 20
231.000000
 30
0.0
 10
23.955000
 20
231.000000
 30
0.0
 10
23.955000
 20
234.000000
 30
0.0
 10
39.045000
 20
234.000000
 30
0.0
 10
39.045000
 20
231.000000
 30
0.0
 10
59.000000
 20
231.000000
 30
0.0
 10
59.000000
 20
213.795000
 30
0.0
 10
62.000000
 20
213.795000
 30
0.0
 10
62.000000
 20
198.705000
 30
0.0
 10
59.000000
 20
198.705000
 30
0.0
 10
59.000000
 20
178.545000
 30
0.0
 10
62.000000
 20
178.545000
 30
0.0
 10
62.000000
 20
163.455000
 30
0.0
 10
59.000000
 20
163.455000
 30
0.0
 10
59.000000
 20
143.295000
 30
0.0
 10
62.000000
 20
143.295000
 30
0.0
 10
62.000000
 20
128.205000
 30
0.0
 10
59.000000
 20
128.205000
 30
0.0
 10
59.000000
 20
108.000000
 30
0.0
 10
38.955000
 20
108.000000
 30
0.0
 10
38.955000
 20
111.000000
 30
0.0
 10
24.045000
 20
111.000000
 30
0.0
 10
24.045000
 20
108.000000
 30
0.0
 10
1.000000
 20
108.000000
 30
0.0
 10
1.000000
 20
128.295000
 30
0.0
 10
4.000000
 20
128.295000
 30
0.0
 10
4.000000
 20
143.205000
 30
0.0
 10
1.000000
 20
143.205000
 30
0.0
 10
1.000000
 20
163.545000
 30
0.0
 10
4.000000
 20
163.545000
 30
0.0
 10
4.000000
 20
178.455000
 30
0.0
 10
1.000000
 20
178.455000
 30
0.0
 10
1.000000
 20
198.795000
 30
0.0
 10
4.000000
 20
198.795000
 30
0.0
 10
4.000000
 20
213.705000
 30
0.0
 10
1.000000
 20
213.705000
 30
0.0
  0
LWPOLYLINE
  5
196
100
AcDbEntity
  8
Calque_1
 62
7
100
AcDbPolyline
 90
76
 70
1
 10
63.000000
 20
231.000000
 30
0.0
 10
79.526429
 20
231.000000
 30
0.0
 10
79.526429
 20
234.000000
 30
0.0
 10
94.616429
 20
234.000000
 30
0.0
 10
94.616429
 20
231.000000
 30
0.0
 10
111.097857
 20
231.000000
 30
0.0
 10
111.097857
 20
234.000000
 30
0.0
 10
126.187857
 20
234.000000
 30
0.0
 10
126.187857
 20
231.000000
 30
0.0
 10
142.669286
 20
231.000000
 30
0.0
 10
142.669286
 20
234.000000
 30
0.0
 10
157.759286
 20
234.000000
 30
0.0
 10
157.759286
 20
231.000000
 30
0.0
 10
174.240714
 20
231.000000
 30
0.0
 10
174.240714
 20
234.000000
 30
0.0
 10
189.330714
 20
234.000000
 30
0.0
 10
189.330714
 20
231.000000
 30
0.0
 10
205.812143
 20
231.000000
 30
0.0
 10
205.812143
 20
234.000000
 30
0.0
 10
220.902143
 20
234.000000
 30
0.0
 10
220.902143
 20
231.000000
 30
0.0
 10
237.383571
 20
231.000000
 30
0.0
 10
237.383571
 20
234.000000
 30
0.0
 10
252.473571
 20
234.000000
 30
0.0
 10
252.473571
 20
231.000000
 30
0.0
 10
266.000000
 20
231.000000
 30
0.0
 10
266.000000
 20
213.795000
 30
0.0
 10
269.000000
 20
213.795000
 30
0.0
 10
269.000000
 20
198.705000
 30
0.0
 10
266.000000
 20
198.705000
 30
0.0
 10
266.000000
 20
178.545000
 30
0.0
 10
269.000000
 20
178.545000
 30
0.0
 10
269.000000
 20
163.455000
 30
0.0
 10
266.000000
 20
163.455000
 30
0.0
 10
266.000000
 20
143.295000
 30
0.0
 10
269.000000
 20
143.295000
 30
0.0
 10
269.000000
 20
128.205000
 30
0.0
 10
266.000000
 20
128.205000
 30
0.0
 10
266.000000
 20
108.000000
 30
0.0
 10
252.383571
 20
108.000000
 30
0.0
 10
252.383571
 20
111.000000
 30
0.0
 10
237.473571
 20
111.000000
 30
0.0
 10
237.473571
 20
108.000000
 30
0.0
 10
220.812143
 20
108.000000
 30
0.0
 10
220.812143
 20
111.000000
 30
0.0
 10
205.902143
 20
111.000000
 30
0.0
 10
205.902143
 20
108.000000
 30
0.0
 10
189.240714
 20
108.000000
 30
0.0
 10
189.240714
 20
111.000000
 30
0.0
 10
174.330714
 20
111.000000
 30
0.0
 10
174.330714
 20
108.000000
 30
0.0
 10
157.669286
 20
108.000000
 30
0.0
 10
157.669286
 20
111.000000
 30
0.0
 10
142.759286
 20
111.000000
 30
0.0
 10
142.759286
 20
108.000000
 30
0.0
 10
126.097857
 20
108.000000
 30
0.0
 10
126.097857
 20
111.000000
 30
0.0
 10
111.187857
 20
111.000000
 30
0.0
 10
111.187857
 20
108.000000
 30
0.0
 10
94.526429
 20
108.000000
 30
0.0
 10
94.526429
 20
111.000000
 30
0.0
 10
79.616429
 20
111.000000
 30
0.0
 10
79.616429
 20
108.000000
 30
0.0
 10
63.000000
 20
108.000000
 30
0.0
 10
63.000000
 20
128.295000
 30
0.0
 10
66.000000
 20
128.295000
 30
0.0
 10
66.000000
 20
143.205000
 30
0.0
 10
63.000000
 20
143.205000
 30
0.0
 10
63.000000
 20
163.545000
 30
0.0
 10
66.000000
 20
163.545000
 30
0.0
 10
66.000000
 20
178.455000
 30
0.0
 10
63.000000
 20
178.455000
 30
0.0
 10
63.000000
 20
198.795000
 30
0.0
 10
66.000000
 20
198.795000
 30
0.0
 10
66.000000
 20
213.705000
 30
0.0
 10
63.000000
 20
213.705000
 30
0.0
  0
LWPOLYLINE
  5
197
100
AcDbEntity
  8
Calque_1
 62
7
100
AcDbPolyline
 90
36
 70
1
 10
270.000000
 20
234.000000
 30
0.0
 10
293.045000
 20
234.000000
 30
0.0
 10
293.045000
 20
231.000000
 30
0.0
 10
307.955000
 20
231.000000
 30
0.0
 10
307.955000
 20
234.000000
 30
0.0
 10
328.000000
 20
234.000000
 30
0.0
 10
328.000000
 20
213.795000
 30
0.0
 10
331.000000
 20
213.795000
 30
0.0
 10
331.000000
 20
198.705000
 30
0.0
 10
328.000000
 20
198.705000
 30
0.0
 10
328.000000
 20
178.545000
 30
0.0
 10
331.000000
 20
178.545000
 30
0.0
 10
331.000000
 20
163.455000
 30
0.0
 10
328.000000
 20
163.455000
 30
0.0
 10
328.000000
 20
143.295000
 30
0.0
 10
331.000000
 20
143.295000
 30
0.0
 10
331.000000
 20
128.205000
 30
0.0
 10
328.000000
 20
128.205000
 30
0.0
 10
328.000000
 20
111.000000
 30
0.0
 10
308.045000
 20
111.000000
 30
0.0
 10
308.045000
 20
108.000000
 30
0.0
 10
292.955000
 20
108.000000
 30
0.0
 10
292.955000
 20
111.000000
 30
0.0
 10
270.000000
 20
111.000000
 30
0.0
 10
270.000000
 20
128.295000
 30
0.0
 10
273.000000
 20
128.295000
 30
0.0
 10
273.000000
 20
143.205000
 30
0.0
 10
270.000000
 20
143.205000
 30
0.0
 10
270.000000
 20
163.545000
 30
0.0
 10
273.000000
 20
163.545000
 30
0.0
 10
273.000000
 20
178.455000
 30
0.0
 10
270.000000
 20
178.455000
 30
0.0
 10
270.000000
 20
198.795000
 30
0.0
 10
273.000000
 20
198.795000
 30
0.0
 10
273.000000
 20
213.705000
 30
0.0
 10
270.000000
 20
213.705000
 30
0.0
  0
LWPOLYLINE
  5
198
100
AcDbEntity
  8
Calque_1
 62
7
100
AcDbPolyline
 90
76
 70
1
 10
332.000000
 20
234.000000
 30
0.0
 10
348.616429
 20
234.000000
 30
0.0
 10
348.616429
 20
231.000000
 30
0.0
 10
363.526429
 20
231.000000
 30
0.0
 10
363.526429
 20
234.000000
 30
0.0
 10
380.187857
 20
234.000000
 30
0.0
 10
380.187857
 20
231.000000
 30
0.0
 10
395.097857
 20
231.000000
 30
0.0
 10
395.097857
 20
234.000000
 30
0.0
 10
411.759286
 20
234.000000
 30
0.0
 10
411.759286
 20
231.000000
 30
0.0
 10
426.669286
 20
231.000000
 30
0.0
 10
426.669286
 20
234.000000
 30
0.0
 10
443.330714
 20
234.000000
 30
0.0
 10
443.330714
 20
231.000000
 30
0.0
 10
458.240714
 20
231.000000
 30
0.0
 10
458.240714
 20
234.000000
 30
0.0
 10
474.902143
 20
234.000000
 30
0.0
 10
474.902143
 20
231.000000
 30
0.0
 10
489.812143
 20
231.000000
 30
0.0
 10
489.812143
 20
234.000000
 30
0.0
 10
506.473571
 20
234.000000
 30
0.0
 10
506.473571
 20
231.000000
 30
0.0
 10
521.383571
 20
231.000000
 30
0.0
 10
521.383571
 20
234.000000
 30
0.0
 10
535.000000
 20
234.000000
 30
0.0
 10
535.000000
 20
213.795000
 30
0.0
 10
538.000000
 20
213.795000
 30
0.0
 10
538.000000
 20
198.705000
 30
0.0
 10
535.000000
 20
198.705000
 30
0.0
 10
535.000000
 20
178.545000
 30
0.0
 10
538.000000
 20
178.545000
 30
0.0
 10
538.000000
 20
163.455000
 30
0.0
 10
535.000000
 20
163.455000
 30
0.0
 10
535.000000
 20
143.295000
 30
0.0
 10
538.000000
 20
143.295000
 30
0.0
 10
538.000000
 20
128.205000
 30
0.0
 10
535.000000
 20
128.205000
 30
0.0
 10
535.000000
 20
111.000000
 30
0.0
 10
521.473571
 20
111.000000
 30
0.0
 10
521.473571
 20
108.000000
 30
0.0
 10
506.383571
 20
108.000000
 30
0.0
 10
506.383571
 20
111.000000
 30
0.0
 10
489.902143
 20
111.000000
 30
0.0
 10
489.902143
 20
108.000000
 30
0.0
 10
474.812143
 20
108.000000
 30
0.0
 10
474.812143
 20
111.000000
 30
0.0
 10
458.330714
 20
111.000000
 30
0.0
 10
458.330714
 20
108.000000
 30
0.0
 10
443.240714
 20
108.000000
 30
0.0
 10
443.240714
 20
111.000000
 30
0.0
 10
426.759286
 20
111.000000
 30
0.0
 10
426.759286
 20
108.000000
 30
0.0
 10
411.669286
 20
108.000000
 30
0.0
 10
411.669286
 20
111.000000
 30
0.0
 10
395.187857
 20
111.000000
 30
0.0
 10
395.187857
 20
108.000000
 30
0.0
 10
380.097857
 20
108.000000
 30
0.0
 10
380.097857
 20
111.000000
 30
0.0
 10
363.616429
 20
111.000000
 30
0.0
 10
363.616429
 20
108.000000
 30
0.0
 10
348.526429
 20
108.000000
 30
0.0
 10
348.526429
 20
111.000000
 30
0.0
 10
332.000000
 20
111.000000
 30
0.0
 10
332.000000
 20
128.295000
 30
0.0
 10
335.000000
 20
128.295000
 30
0.0
 10
335.000000
 20
143.205000
 30
0.0
 10
332.000000
 20
143.205000
 30
0.0
 10
332.000000
 20
163.545000
 30
0.0
 10
335.000000
 20
163.545000
 30
0.0
 10
335.000000
 20
178.455000
 30
0.0
 10
332.000000
 20
178.455000
 30
0.0
 10
332.000000
 20
198.795000
 30
0.0
 10
335.000000
 20
198.795000
 30
0.0
 10
335.000000
 20
213.705000
 30
0.0
 10
332.000000
 20
213.705000
 30
0.0
  0
SPLINE
  5
199
100
AcDbEntity
  8
Calque_1
 62
7
100
AcDbSpline
 70
8
 71
3
 72
8
 73
4
 74
0
 40
0
 40
0
 40
0
 40
0
 40
1
 40
1
 40
1
 40
1
 10
24.203455
 20
204.625000
 30
0.0
 10
24.203455
 20
202.989276
 30
0.0
 10
23.330806
 20
201.477804
 30
0.0
 10
21.914227
 20
200.659942
 30
0.0
  0
SPLINE
  5
19a
100
AcDbEntity
  8
Calque_1
 62
7
100
AcDbSpline
 70
8
 71
3
 72
8
 73
4
 74
0
 40
0
 40
0
 40
0
 40
0
 40
1
 40
1
 40
1
 40
1
 10
21.914227
 20
200.659942
 30
0.0
 10
20.497648
 20
199.842080
 30
0.0
 10
18.752352
 20
199.842080
 30
0.0
 10
17.335773
 20
200.659942
 30
0.0
  0
SPLINE
  5
19b
100
AcDbEntity
  8
Calque_1
 62
7
100
AcDbSpline
 70
8
 71
3
 72
8
 73
4
 74
0
 40
0
 40
0
 40
0
 40
0
 40
1
 40
1
 40
1
 40
1
 10
17.335773
 20
200.659942
 30
0.0
 10
15.919194
 20
201.477804
 30
0.0
 10
15.046546
 20
202.989276
 30
0.0
 10
15.046546
 20
204.625000
 30
0.0
  0
SPLINE
  5
19c
100
AcDbEntity
  8
Calque_1
 62
7
100
AcDbSpline
 70
8
 71
3
 72
8
 73
4
 74
0
 40
0
 40
0
 40
0
 40
0
 40
1
 40
1
 40
1
 40
1
 10
15.046546
 20
204.625000
 30
0.0
 10
15.046546
 20
206.260724
 30
0.0
 10
15.919194
 20
207.772196
 30
0.0
 10
17.335773
 20
208.590058
 30
0.0
  0
SPLINE
  5
19d
100
AcDbEntity
  8
Calque_1
 62
7
100
AcDbSpline
 70
8
 71
3
 72
8
 73
4
 74
0
 40
0
 40
0
 40
0
 40
0
 40
1
 40
1
 40
1
 40
1
 10
17.335773
 20
208.590058
 30
0.0
 10
18.752352
 20
209.407920
 30
0.0
 10
20.497648
 20
209.407920
 30
0.0
 10
21.914227
 20
208.590058
 30
0.0
  0
SPLINE
  5
19e
100
AcDbEntity
  8
Calque_1
 62
7
100
AcDbSpline
 70
8
 71
3
 72
8
 73
4
 74
0
 40
0
 40
0
 40
0
 40
0
 40
1
 40
1
 40
1
 40
1
 10
21.914227
 20
208.590058
 30
0.0
 10
23.330806
 20
207.772196
 30
0.0
 10
24.203455
 20
206.260724
 30
0.0
 10
24.203455
 20
204.625000
 30
0.0
  0
LWPOLYLINE
  5
19f
100
AcDbEntity
  8
Calque_1
 62
7
100
AcDbPolyline
 90
60
 70
1
 10
63.000000
 20
293.000000
 30
0.0
 10
79.526429
 20
293.000000
 30
0.0
 10
79.526429
 20
296.000000
 30
0.0
 10
94.616429
 20
296.000000
 30
0.0
 10
94.616429
 20
293.000000
 30
0.0
 10
111.097857
 20
293.000000
 30
0.0
 10
111.097857
 20
296.000000
 30
0.0
 10
126.187857
 20
296.000000
 30
0.0
 10
126.187857
 20
293.000000
 30
0.0
 10
142.669286
 20
293.000000
 30
0.0
 10
142.669286
 20
296.000000
 30
0.0
 10
157.759286
 20
296.000000
 30
0.0
 10
157.759286
 20
293.000000
 30
0.0
 10
174.240714
 20
293.000000
 30
0.0
 10
174.240714
 20
296.000000
 30
0.0
 10
189.330714
 20
296.000000
 30
0.0
 10
189.330714
 20
293.000000
 30
0.0
 10
205.812143
 20
293.000000
 30
0.0
 10
205.812143
 20
296.000000
 30
0.0
 10
220.902143
 20
296.000000
 30
0.0
 10
220.902143
 20
293.000000
 30
0.0
 10
237.383571
 20
293.000000
 30
0.0
 10
237.383571
 20
296.000000
 30
0.0
 10
252.473571
 20
296.000000
 30
0.0
 10
252.473571
 20
293.000000
 30
0.0
 10
266.000000
 20
293.000000
 30
0.0
 10
266.000000
 20
273.045000
 30
0.0
 10
269.000000
 20
273.045000
 30
0.0
 10
269.000000
 20
257.955000
 30
0.0
 10
266.000000
 20
257.955000
 30
0.0
 10
266.000000
 20
235.000000
 30
0.0
 10
252.383571
 20
235.000000
 30
0.0
 10
252.383571
 20
238.000000
 30
0.0
 10
237.473571
 20
238.000000
 30
0.0
 10
237.473571
 20
235.000000
 30
0.0
 10
220.812143
 20
235.000000
 30
0.0
 10
220.812143
 20
238.000000
 30
0.0
 10
205.902143
 20
238.000000
 30
0.0
 10
205.902143
 20
235.000000
 30
0.0
 10
189.240714
 20
235.000000
 30
0.0
 10
189.240714
 20
238.000000
 30
0.0
 10
174.330714
 20
238.000000
 30
0.0
 10
174.330714
 20
235.000000
 30
0.0
 10
157.669286
 20
235.000000
 30
0.0
 10
157.669286
 20
238.000000
 30
0.0
 10
142.759286
 20
238.000000
 30
0.0
 10
142.759286
 20
235.000000
 30
0.0
 10
126.097857
 20
235.000000
 30
0.0
 10
126.097857
 20
238.000000
 30
0.0
 10
111.187857
 20
238.000000
 30
0.0
 10
111.187857
 20
235.000000
 30
0.0
 10
94.526429
 20
235.000000
 30
0.0
 10
94.526429
 20
238.000000
 30
0.0
 10
79.616429
 20
238.000000
 30
0.0
 10
79.616429
 20
235.000000
 30
0.0
 10
63.000000
 20
235.000000
 30
0.0
 10
63.000000
 20
258.045000
 30
0.0
 10
66.000000
 20
258.045000
 30
0.0
 10
66.000000
 20
272.955000
 30
0.0
 10
63.000000
 20
272.955000
 30
0.0
  0
LWPOLYLINE
  5
1a0
100
AcDbEntity
  8
Calque_1
 62
7
100
AcDbPolyline
 90
1
 70
1
 10
24.203455
 20
204.625000
 30
0.0
  0
SPLINE
  5
1a1
100
AcDbEntity
  8
Calque_1
 62
7
100
AcDbSpline
 70
8
 71
3
 72
8
 73
4
 74
0
 40
0
 40
0
 40
0
 40
0
 40
1
 40
1
 40
1
 40
1
 10
24.203455
 20
174.625000
 30
0.0
 10
24.203455
 20
172.989276
 30
0.0
 10
23.330806
 20
171.477804
 30
0.0
 10
21.914227
 20
170.659942
 30
0.0
  0
SPLINE
  5
1a2
100
AcDbEntity
  8
Calque_1
 62
7
100
AcDbSpline
 70
8
 71
3
 72
8
 73
4
 74
0
 40
0
 40
0
 40
0
 40
0
 40
1
 40
1
 40
1
 40
1
 10
21.914227
 20
170.659942
 30
0.0
 10
20.497648
 20
169.842080
 30
0.0
 10
18.752352
 20
169.842080
 30
0.0
 10
17.335773
 20
170.659942
 30
0.0
  0
SPLINE
  5
1a3
100
AcDbEntity
  8
Calque_1
 62
7
100
AcDbSpline
 70
8
 71
3
 72
8
 73
4
 74
0
 40
0
 40
0
 40
0
 40
0
 40
1
 40
1
 40
1
 40
1
 10
17.335773
 20
170.659942
 30
0.0
 10
15.919194
 20
171.477804
 30
0.0
 10
15.046546
 20
172.989276
 30
0.0
 10
15.046546
 20
174.625000
 30
0.0
  0
SPLINE
  5
1a4
100
AcDbEntity
  8
Calque_1
 62
7
100
AcDbSpline
 70
8
 71
3
 72
8
 73
4
 74
0
 40
0
 40
0
 40
0
 40
0
 40
1
 40
1
 40
1
 40
1
 10
15.046546
 20
174.625000
 30
0.0
 10
15.046546
 20
176.260724
 30
0.0
 10
15.919194
 20
177.772196
 30
0.0
 10
17.335773
 20
178.590058
 30
0.0
  0
SPLINE
  5
1a5
100
AcDbEntity
  8
Calque_1
 62
7
100
AcDbSpline
 70
8
 71
3
 72
8
 73
4
 74
0
 40
0
 40
0
 40
0
 40
0
 40
1
 40
1
 40
1
 40
1
 10
17.335773
 20
178.590058
 30
0.0
 10
18.752352
 20
179.407920
 30
0.0
 10
20.497648
 20
179.407920
 30
0.0
 10
21.914227
 20
178.590058
 30
0.0
  0
SPLINE
  5
1a6
100
AcDbEntity
  8
Calque_1
 62
7
100
AcDbSpline
 70
8
 71
3
 72
8
 73
4
 74
0
 40
0
 40
0
 40
0
 40
0
 40
1
 40
1
 40
1
 40
1
 10
21.914227
 20
178.590058
 30
0.0
 10
23.330806
 20
177.772196
 30
0.0
 10
24.203455
 20
176.260724
 30
0.0
 10
24.203455
 20
174.625000
 30
0.0
  0
LWPOLYLINE
  5
1a7
100
AcDbEntity
  8
Calque_1
 62
7
100
AcDbPolyline
 90
4
 70
1
 10
258.733580
 20
264.587502
 30
0.0
 10
263.733580
 20
264.587502
 30
0.0
 10
263.733580
 20
239.587502
 30
0.0
 10
258.733580
 20
239.587502
 30
0.0
  0
SPLINE
  5
1a8
100
AcDbEntity
  8
Calque_1
 62
7
100
AcDbSpline
 70
8
 71
3
 72
8
 73
4
 74
0
 40
0
 40
0
 40
0
 40
0
 40
1
 40
1
 40
1
 40
1
 10
24.203455
 20
129.625000
 30
0.0
 10
24.203455
 20
127.989276
 30
0.0
 10
23.330806
 20
126.477804
 30
0.0
 10
21.914227
 20
125.659942
 30
0.0
  0
SPLINE
  5
1a9
100
AcDbEntity
  8
Calque_1
 62
7
100
AcDbSpline
 70
8
 71
3
 72
8
 73
4
 74
0
 40
0
 40
0
 40
0
 40
0
 40
1
 40
1
 40
1
 40
1
 10
21.914227
 20
125.659942
 30
0.0
 10
20.497648
 20
124.842080
 30
0.0
 10
18.752352
 20
124.842080
 30
0.0
 10
17.335773
 20
125.659942
 30
0.0
  0
SPLINE
  5
1aa
100
AcDbEntity
  8
Calque_1
 62
7
100
AcDbSpline
 70
8
 71
3
 72
8
 73
4
 74
0
 40
0
 40
0
 40
0
 40
0
 40
1
 40
1
 40
1
 40
1
 10
17.335773
 20
125.659942
 30
0.0
 10
15.919194
 20
126.477804
 30
0.0
 10
15.046546
 20
127.989276
 30
0.0
 10
15.046546
 20
129.625000
 30
0.0
  0
SPLINE
  5
1ab
100
AcDbEntity
  8
Calque_1
 62
7
100
AcDbSpline
 70
8
 71
3
 72
8
 73
4
 74
0
 40
0
 40
0
 40
0
 40
0
 40
1
 40
1
 40
1
 40
1
 10
15.046546
 20
129.625000
 30
0.0
 10
15.046546
 20
131.260724
 30
0.0
 10
15.919194
 20
132.772196
 30
0.0
 10
17.335773
 20
133.590058
 30
0.0
  0
SPLINE
  5
1ac
100
AcDbEntity
  8
Calque_1
 62
7
100
AcDbSpline
 70
8
 71
3
 72
8
 73
4
 74
0
 40
0
 40
0
 40
0
 40
0
 40
1
 40
1
 40
1
 40
1
 10
17.335773
 20
133.590058
 30
0.0
 10
18.752352
 20
134.407920
 30
0.0
 10
20.497648
 20
134.407920
 30
0.0
 10
21.914227
 20
133.590058
 30
0.0
  0
SPLINE
  5
1ad
100
AcDbEntity
  8
Calque_1
 62
7
100
AcDbSpline
 70
8
 71
3
 72
8
 73
4
 74
0
 40
0
 40
0
 40
0
 40
0
 40
1
 40
1
 40
1
 40
1
 10
21.914227
 20
133.590058
 30
0.0
 10
23.330806
 20
132.772196
 30
0.0
 10
24.203455
 20
131.260724
 30
0.0
 10
24.203455
 20
129.625000
 30
0.0
  0
LWPOLYLINE
  5
1ae
100
AcDbEntity
  8
Calque_1
 62
7
100
AcDbPolyline
 90
1
 70
1
 10
24.203455
 20
174.625000
 30
0.0
  0
LWPOLYLINE
  5
1af
100
AcDbEntity
  8
Calque_1
 62
7
100
AcDbPolyline
 90
1
 70
1
 10
24.203455
 20
129.625000
 30
0.0
  0
ENDSEC
  0
SECTION
  2
OBJECTS
  0
DICTIONARY
  5
C
330
0
100
AcDbDictionary
  3
ACAD_GROUP
350
D
  3
ACAD_MLINESTYLE
350
17
  0
DICTIONARY
  5
D
330
C
100
AcDbDictionary
  0
DICTIONARY
  5
1A
330
C
100
AcDbDictionary
  0
DICTIONARY
  5
17
330
C
100
AcDbDictionary
  3
STANDARD
350
18
  0
DICTIONARY
  5
19
330
C
100
AcDbDictionary
  0
ENDSEC
  0
EOF
