%TF.GenerationSoftware,KiCad,Pcbnew,(5.1.6)-1*%
%TF.CreationDate,2022-04-08T07:46:14+02:00*%
%TF.ProjectId,carteDmx512vFinale,63617274-6544-46d7-9835-31327646696e,VILLEMEJANE*%
%TF.SameCoordinates,Original*%
%TF.FileFunction,Copper,L1,Top*%
%TF.FilePolarity,Positive*%
%FSLAX46Y46*%
G04 Gerber Fmt 4.6, Leading zero omitted, Abs format (unit mm)*
G04 Created by KiCad (PCBNEW (5.1.6)-1) date 2022-04-08 07:46:14*
%MOMM*%
%LPD*%
G01*
G04 APERTURE LIST*
%TA.AperFunction,ComponentPad*%
%ADD10O,1.600000X2.400000*%
%TD*%
%TA.AperFunction,ComponentPad*%
%ADD11R,1.600000X2.400000*%
%TD*%
%TA.AperFunction,ComponentPad*%
%ADD12R,1.530000X1.530000*%
%TD*%
%TA.AperFunction,ComponentPad*%
%ADD13C,1.530000*%
%TD*%
%TA.AperFunction,ComponentPad*%
%ADD14C,1.700000*%
%TD*%
%TA.AperFunction,ComponentPad*%
%ADD15O,1.600000X1.600000*%
%TD*%
%TA.AperFunction,ComponentPad*%
%ADD16C,1.600000*%
%TD*%
%TA.AperFunction,ComponentPad*%
%ADD17R,1.600000X1.600000*%
%TD*%
%TA.AperFunction,ComponentPad*%
%ADD18R,1.700000X1.700000*%
%TD*%
%TA.AperFunction,ComponentPad*%
%ADD19O,1.700000X1.700000*%
%TD*%
%TA.AperFunction,ComponentPad*%
%ADD20R,2.600000X2.600000*%
%TD*%
%TA.AperFunction,ComponentPad*%
%ADD21C,2.600000*%
%TD*%
%TA.AperFunction,ComponentPad*%
%ADD22C,1.440000*%
%TD*%
%TA.AperFunction,ComponentPad*%
%ADD23O,2.400000X1.600000*%
%TD*%
%TA.AperFunction,ComponentPad*%
%ADD24R,2.400000X1.600000*%
%TD*%
%TA.AperFunction,ComponentPad*%
%ADD25R,1.905000X2.000000*%
%TD*%
%TA.AperFunction,ComponentPad*%
%ADD26O,1.905000X2.000000*%
%TD*%
%TA.AperFunction,ViaPad*%
%ADD27C,1.400000*%
%TD*%
%TA.AperFunction,Conductor*%
%ADD28C,0.500000*%
%TD*%
%TA.AperFunction,Conductor*%
%ADD29C,1.000000*%
%TD*%
G04 APERTURE END LIST*
D10*
%TO.P,U10,8*%
%TO.N,Net-(C7-Pad1)*%
X103505000Y-26035000D03*
%TO.P,U10,4*%
%TO.N,EQ_Strobe*%
X111125000Y-33655000D03*
%TO.P,U10,7*%
%TO.N,EQ_Reset*%
X106045000Y-26035000D03*
%TO.P,U10,3*%
%TO.N,EQ_out*%
X108585000Y-33655000D03*
%TO.P,U10,6*%
%TO.N,Net-(C8-Pad1)*%
X108585000Y-26035000D03*
%TO.P,U10,2*%
%TO.N,GND*%
X106045000Y-33655000D03*
%TO.P,U10,5*%
%TO.N,Net-(C2-Pad2)*%
X111125000Y-26035000D03*
D11*
%TO.P,U10,1*%
%TO.N,3.3V*%
X103505000Y-33655000D03*
%TD*%
D12*
%TO.P,U7,CN8_1*%
%TO.N,Net-(U7-PadCN8_1)*%
X32985001Y-62970001D03*
D13*
%TO.P,U7,CN8_2*%
%TO.N,Bandeau_LED*%
X35525001Y-62970001D03*
%TO.P,U7,CN8_3*%
%TO.N,Net-(U7-PadCN8_3)*%
X32985001Y-65510001D03*
%TO.P,U7,CN8_4*%
%TO.N,Net-(U7-PadCN8_4)*%
X35525001Y-65510001D03*
%TO.P,U7,CN8_5*%
%TO.N,Net-(U7-PadCN8_5)*%
X32985001Y-68050001D03*
%TO.P,U7,CN8_6*%
%TO.N,Net-(U7-PadCN8_6)*%
X35525001Y-68050001D03*
%TO.P,U7,CN8_7*%
%TO.N,3.3V*%
X32985001Y-70590001D03*
%TO.P,U7,CN8_8*%
%TO.N,Net-(U7-PadCN8_8)*%
X35525001Y-70590001D03*
%TO.P,U7,CN8_9*%
%TO.N,5V*%
X32985001Y-73130001D03*
%TO.P,U7,CN8_10*%
%TO.N,Net-(U7-PadCN8_10)*%
X35525001Y-73130001D03*
%TO.P,U7,CN8_11*%
%TO.N,GND*%
X32985001Y-75670001D03*
%TO.P,U7,CN8_12*%
%TO.N,Net-(U7-PadCN8_12)*%
X35525001Y-75670001D03*
%TO.P,U7,CN8_13*%
%TO.N,GND*%
X32985001Y-78210001D03*
%TO.P,U7,CN8_14*%
%TO.N,Net-(U7-PadCN8_14)*%
X35525001Y-78210001D03*
%TO.P,U7,CN8_15*%
%TO.N,Vinput*%
X32985001Y-80750001D03*
%TO.P,U7,CN8_16*%
%TO.N,Net-(U7-PadCN8_16)*%
X35525001Y-80750001D03*
D12*
%TO.P,U7,CN9_1*%
%TO.N,Net-(U7-PadCN9_1)*%
X32985001Y-85830001D03*
D13*
%TO.P,U7,CN9_2*%
%TO.N,Net-(U7-PadCN9_2)*%
X35525001Y-85830001D03*
%TO.P,U7,CN9_3*%
%TO.N,Net-(U7-PadCN9_3)*%
X32985001Y-88370001D03*
%TO.P,U7,CN9_4*%
%TO.N,Net-(U7-PadCN9_4)*%
X35525001Y-88370001D03*
%TO.P,U7,CN9_5*%
%TO.N,Net-(U7-PadCN9_5)*%
X32985001Y-90910001D03*
%TO.P,U7,CN9_6*%
%TO.N,Net-(U7-PadCN9_6)*%
X35525001Y-90910001D03*
%TO.P,U7,CN9_7*%
%TO.N,Net-(U7-PadCN9_7)*%
X32985001Y-93450001D03*
%TO.P,U7,CN9_8*%
%TO.N,Net-(U7-PadCN9_8)*%
X35525001Y-93450001D03*
%TO.P,U7,CN9_9*%
%TO.N,Net-(U7-PadCN9_9)*%
X32985001Y-95990001D03*
%TO.P,U7,CN9_10*%
%TO.N,Net-(U7-PadCN9_10)*%
X35525001Y-95990001D03*
%TO.P,U7,CN9_11*%
%TO.N,Net-(U7-PadCN9_11)*%
X32985001Y-98530001D03*
%TO.P,U7,CN9_12*%
%TO.N,GND*%
X35525001Y-98530001D03*
%TO.P,U7,CN9_13*%
%TO.N,Net-(U7-PadCN9_13)*%
X32985001Y-101070001D03*
%TO.P,U7,CN9_14*%
%TO.N,SCK_SD*%
X35525001Y-101070001D03*
%TO.P,U7,CN9_15*%
%TO.N,DIG_IN_1*%
X32985001Y-103610001D03*
%TO.P,U7,CN9_16*%
%TO.N,Net-(U7-PadCN9_16)*%
X35525001Y-103610001D03*
%TO.P,U7,CN9_17*%
%TO.N,DIG_IN_2*%
X32985001Y-106150001D03*
%TO.P,U7,CN9_18*%
%TO.N,MISO_SD*%
X35525001Y-106150001D03*
%TO.P,U7,CN9_19*%
%TO.N,DIG_IN_3*%
X32985001Y-108690001D03*
%TO.P,U7,CN9_20*%
%TO.N,MOSI_SD*%
X35525001Y-108690001D03*
%TO.P,U7,CN9_21*%
%TO.N,DIG_IN_4*%
X32985001Y-111230001D03*
%TO.P,U7,CN9_22*%
%TO.N,CS_SDCar*%
X35525001Y-111230001D03*
%TO.P,U7,CN9_23*%
%TO.N,GND*%
X32985001Y-113770001D03*
%TO.P,U7,CN9_24*%
%TO.N,AnInR*%
X35525001Y-113770001D03*
%TO.P,U7,CN9_25*%
%TO.N,RX_BT_HC05*%
X32985001Y-116310001D03*
%TO.P,U7,CN9_26*%
%TO.N,AnInG*%
X35525001Y-116310001D03*
%TO.P,U7,CN9_27*%
%TO.N,TX_BT_HC05*%
X32985001Y-118850001D03*
%TO.P,U7,CN9_28*%
%TO.N,AnInB*%
X35525001Y-118850001D03*
D12*
%TO.P,U7,CN7_1*%
%TO.N,Net-(U7-PadCN7_1)*%
X78705001Y-53826001D03*
D13*
%TO.P,U7,CN7_2*%
%TO.N,MIDI1_IN_RX*%
X81245001Y-53826001D03*
D12*
%TO.P,U7,CN10_1*%
%TO.N,Net-(U7-PadCN10_1)*%
X78705001Y-80750001D03*
D13*
%TO.P,U7,CN10_2*%
%TO.N,RS_LCD*%
X81245001Y-80750001D03*
%TO.P,U7,CN10_3*%
%TO.N,Net-(U7-PadCN10_3)*%
X78705001Y-83290001D03*
%TO.P,U7,CN10_4*%
%TO.N,Net-(U7-PadCN10_4)*%
X81245001Y-83290001D03*
%TO.P,U7,CN10_5*%
%TO.N,Net-(U7-PadCN10_5)*%
X78705001Y-85830001D03*
%TO.P,U7,CN10_6*%
%TO.N,Net-(U7-PadCN10_6)*%
X81245001Y-85830001D03*
%TO.P,U7,CN10_7*%
%TO.N,Pitch_In*%
X78705001Y-88370001D03*
%TO.P,U7,CN10_8*%
%TO.N,Net-(U7-PadCN10_8)*%
X81245001Y-88370001D03*
%TO.P,U7,CN10_9*%
%TO.N,Volume_In*%
X78705001Y-90910001D03*
%TO.P,U7,CN10_10*%
%TO.N,Net-(U7-PadCN10_10)*%
X81245001Y-90910001D03*
%TO.P,U7,CN10_11*%
%TO.N,Net-(U7-PadCN10_11)*%
X78705001Y-93450001D03*
%TO.P,U7,CN10_12*%
%TO.N,Net-(U7-PadCN10_12)*%
X81245001Y-93450001D03*
%TO.P,U7,CN10_13*%
%TO.N,Net-(U7-PadCN10_13)*%
X78705001Y-95990001D03*
%TO.P,U7,CN10_14*%
%TO.N,MIDI2_OUT_TX*%
X81245001Y-95990001D03*
%TO.P,U7,CN10_15*%
%TO.N,Net-(U7-PadCN10_15)*%
X78705001Y-98530001D03*
%TO.P,U7,CN10_16*%
%TO.N,MIDI2_IN_RX*%
X81245001Y-98530001D03*
%TO.P,U7,CN10_17*%
%TO.N,Net-(U7-PadCN10_17)*%
X78705001Y-101070001D03*
%TO.P,U7,CN10_18*%
%TO.N,TX_DMX*%
X81245001Y-101070001D03*
%TO.P,U7,CN10_19*%
%TO.N,Net-(U7-PadCN10_19)*%
X78705001Y-103610001D03*
%TO.P,U7,CN10_20*%
%TO.N,Net-(U7-PadCN10_20)*%
X81245001Y-103610001D03*
%TO.P,U7,CN10_21*%
%TO.N,Net-(U7-PadCN10_21)*%
X78705001Y-106150001D03*
%TO.P,U7,CN10_22*%
%TO.N,Net-(U7-PadCN10_22)*%
X81245001Y-106150001D03*
%TO.P,U7,CN10_23*%
%TO.N,Net-(U7-PadCN10_23)*%
X78705001Y-108690001D03*
%TO.P,U7,CN10_24*%
%TO.N,start*%
X81245001Y-108690001D03*
%TO.P,U7,CN10_25*%
%TO.N,Net-(U7-PadCN10_25)*%
X78705001Y-111230001D03*
%TO.P,U7,CN10_26*%
%TO.N,out_s*%
X81245001Y-111230001D03*
%TO.P,U7,CN10_27*%
%TO.N,Net-(U7-PadCN10_27)*%
X78705001Y-113770001D03*
%TO.P,U7,CN10_28*%
%TO.N,enable*%
X81245001Y-113770001D03*
%TO.P,U7,CN10_29*%
%TO.N,Net-(U7-PadCN10_29)*%
X78705001Y-116310001D03*
%TO.P,U7,CN10_30*%
%TO.N,Net-(U7-PadCN10_30)*%
X81245001Y-116310001D03*
%TO.P,U7,CN10_31*%
%TO.N,LED1*%
X78705001Y-118850001D03*
%TO.P,U7,CN10_32*%
%TO.N,Net-(U7-PadCN10_32)*%
X81245001Y-118850001D03*
%TO.P,U7,CN7_3*%
%TO.N,CSN_nrF*%
X78705001Y-56366001D03*
%TO.P,U7,CN7_4*%
%TO.N,MIDI1_OUT_TX*%
X81245001Y-56366001D03*
%TO.P,U7,CN7_5*%
%TO.N,CS_LCD*%
X78705001Y-58906001D03*
%TO.P,U7,CN7_6*%
%TO.N,Net-(U7-PadCN7_6)*%
X81245001Y-58906001D03*
%TO.P,U7,CN7_7*%
%TO.N,Net-(U7-PadCN7_7)*%
X78705001Y-61446001D03*
%TO.P,U7,CN7_8*%
%TO.N,GND*%
X81245001Y-61446001D03*
%TO.P,U7,CN7_9*%
%TO.N,IRQ_nrF*%
X78705001Y-63986001D03*
%TO.P,U7,CN7_10*%
%TO.N,DAC1*%
X81245001Y-63986001D03*
%TO.P,U7,CN7_11*%
%TO.N,CE_nrF*%
X78705001Y-66526001D03*
%TO.P,U7,CN7_12*%
%TO.N,AnalogIn2*%
X81245001Y-66526001D03*
%TO.P,U7,CN7_13*%
%TO.N,MOSI_nrF*%
X78705001Y-69066001D03*
%TO.P,U7,CN7_14*%
%TO.N,AnalogIn1*%
X81245001Y-69066001D03*
%TO.P,U7,CN7_15*%
%TO.N,SCK_nrF*%
X78705001Y-71606001D03*
%TO.P,U7,CN7_16*%
%TO.N,EQ_Strobe*%
X81245001Y-71606001D03*
%TO.P,U7,CN7_17*%
%TO.N,EQ_out*%
X78705001Y-74146001D03*
%TO.P,U7,CN7_18*%
%TO.N,EQ_Reset*%
X81245001Y-74146001D03*
%TO.P,U7,CN7_19*%
%TO.N,MISO_nrF*%
X78705001Y-76686001D03*
%TO.P,U7,CN7_20*%
%TO.N,Net-(U7-PadCN7_20)*%
X81245001Y-76686001D03*
%TO.P,U7,CN9_29*%
%TO.N,Net-(U7-PadCN9_29)*%
X32985001Y-121390001D03*
%TO.P,U7,CN9_30*%
%TO.N,Net-(U7-PadCN9_30)*%
X35525001Y-121390001D03*
%TO.P,U7,CN10_33*%
%TO.N,MIDI3_IN_RX*%
X78705001Y-121390001D03*
%TO.P,U7,CN10_34*%
%TO.N,Net-(U7-PadCN10_34)*%
X81245001Y-121390001D03*
D14*
%TO.P,U7,CN2_1*%
%TO.N,N/C*%
X25365001Y-24875001D03*
%TO.P,U7,CN3_1*%
X88865001Y-24875001D03*
%TO.P,U7,CN2_2*%
X25365001Y-27415001D03*
%TO.P,U7,CN3_2*%
X88865001Y-27415001D03*
%TD*%
D15*
%TO.P,R7,2*%
%TO.N,Net-(J9-Pad2)*%
X106045000Y-89535000D03*
D16*
%TO.P,R7,1*%
%TO.N,Net-(D2-Pad1)*%
X106045000Y-99695000D03*
%TD*%
D15*
%TO.P,R6,2*%
%TO.N,3.3V*%
X57785000Y-40005000D03*
D16*
%TO.P,R6,1*%
%TO.N,MIDI1_IN_RX*%
X57785000Y-29845000D03*
%TD*%
%TO.P,C3,1*%
%TO.N,GND*%
X59135000Y-72390000D03*
%TO.P,C3,2*%
%TO.N,Vinput*%
X64135000Y-72390000D03*
%TD*%
%TO.P,C1,1*%
%TO.N,GND*%
X53340000Y-58340000D03*
%TO.P,C1,2*%
%TO.N,3.3V*%
X53340000Y-53340000D03*
%TD*%
D17*
%TO.P,C4,1*%
%TO.N,Vinput*%
X41910000Y-72390000D03*
D16*
%TO.P,C4,2*%
%TO.N,GND*%
X44410000Y-72390000D03*
%TD*%
%TO.P,C5,2*%
%TO.N,GND*%
X48935000Y-72390000D03*
D17*
%TO.P,C5,1*%
%TO.N,5V_REG*%
X51435000Y-72390000D03*
%TD*%
D16*
%TO.P,C6,2*%
%TO.N,5V_REG*%
X53340000Y-66595000D03*
%TO.P,C6,1*%
%TO.N,GND*%
X53340000Y-61595000D03*
%TD*%
D17*
%TO.P,D1,1*%
%TO.N,Net-(D1-Pad1)*%
X50800000Y-27940000D03*
D15*
%TO.P,D1,2*%
%TO.N,Net-(D1-Pad2)*%
X43180000Y-27940000D03*
%TD*%
%TO.P,D2,2*%
%TO.N,Net-(D2-Pad2)*%
X101600000Y-92075000D03*
D17*
%TO.P,D2,1*%
%TO.N,Net-(D2-Pad1)*%
X101600000Y-99695000D03*
%TD*%
%TO.P,D3,1*%
%TO.N,3.3V*%
X103505000Y-73025000D03*
D15*
%TO.P,D3,2*%
%TO.N,AnalogIn1*%
X95885000Y-73025000D03*
%TD*%
%TO.P,D4,2*%
%TO.N,GND*%
X103505000Y-69850000D03*
D17*
%TO.P,D4,1*%
%TO.N,AnalogIn1*%
X95885000Y-69850000D03*
%TD*%
%TO.P,D5,1*%
%TO.N,Net-(D5-Pad1)*%
X74930000Y-103505000D03*
D15*
%TO.P,D5,2*%
%TO.N,Net-(D5-Pad2)*%
X67310000Y-103505000D03*
%TD*%
D17*
%TO.P,D6,1*%
%TO.N,3.3V*%
X103505000Y-57150000D03*
D15*
%TO.P,D6,2*%
%TO.N,AnalogIn2*%
X95885000Y-57150000D03*
%TD*%
%TO.P,D7,2*%
%TO.N,GND*%
X103505000Y-59690000D03*
D17*
%TO.P,D7,1*%
%TO.N,AnalogIn2*%
X95885000Y-59690000D03*
%TD*%
D18*
%TO.P,J1,1*%
%TO.N,GND*%
X109220000Y-69850000D03*
D19*
%TO.P,J1,2*%
%TO.N,Net-(J1-Pad2)*%
X109220000Y-67310000D03*
%TD*%
D18*
%TO.P,J3,1*%
%TO.N,Net-(J3-Pad1)*%
X114935000Y-113030000D03*
D19*
%TO.P,J3,2*%
X112395000Y-113030000D03*
%TO.P,J3,3*%
%TO.N,Net-(J3-Pad3)*%
X114935000Y-110490000D03*
%TO.P,J3,4*%
X112395000Y-110490000D03*
%TO.P,J3,5*%
%TO.N,GND*%
X114935000Y-107950000D03*
%TO.P,J3,6*%
X112395000Y-107950000D03*
%TD*%
D20*
%TO.P,J6,1*%
%TO.N,GND*%
X23495000Y-67945000D03*
D21*
%TO.P,J6,2*%
%TO.N,Vinput*%
X23495000Y-73025000D03*
%TD*%
D18*
%TO.P,J7,1*%
%TO.N,Net-(J7-Pad1)*%
X36195000Y-27940000D03*
D19*
%TO.P,J7,2*%
%TO.N,Net-(J7-Pad2)*%
X36195000Y-30480000D03*
%TO.P,J7,3*%
%TO.N,Net-(J7-Pad3)*%
X36195000Y-33020000D03*
%TO.P,J7,4*%
%TO.N,Net-(D1-Pad2)*%
X36195000Y-35560000D03*
%TO.P,J7,5*%
%TO.N,Net-(J7-Pad5)*%
X36195000Y-38100000D03*
%TD*%
D18*
%TO.P,J8,1*%
%TO.N,GND*%
X57785000Y-48895000D03*
D19*
%TO.P,J8,2*%
%TO.N,3.3V*%
X57785000Y-46355000D03*
%TO.P,J8,3*%
%TO.N,CE_nrF*%
X60325000Y-48895000D03*
%TO.P,J8,4*%
%TO.N,CSN_nrF*%
X60325000Y-46355000D03*
%TO.P,J8,5*%
%TO.N,SCK_nrF*%
X62865000Y-48895000D03*
%TO.P,J8,6*%
%TO.N,MOSI_nrF*%
X62865000Y-46355000D03*
%TO.P,J8,7*%
%TO.N,MISO_nrF*%
X65405000Y-48895000D03*
%TO.P,J8,8*%
%TO.N,IRQ_nrF*%
X65405000Y-46355000D03*
%TD*%
%TO.P,J9,5*%
%TO.N,Net-(J9-Pad5)*%
X90805000Y-88265000D03*
%TO.P,J9,4*%
%TO.N,Net-(D2-Pad2)*%
X93345000Y-88265000D03*
%TO.P,J9,3*%
%TO.N,Net-(J9-Pad3)*%
X95885000Y-88265000D03*
%TO.P,J9,2*%
%TO.N,Net-(J9-Pad2)*%
X98425000Y-88265000D03*
D18*
%TO.P,J9,1*%
%TO.N,Net-(J9-Pad1)*%
X100965000Y-88265000D03*
%TD*%
%TO.P,J10,1*%
%TO.N,Net-(J10-Pad1)*%
X63500000Y-116840000D03*
D19*
%TO.P,J10,2*%
%TO.N,Net-(J10-Pad2)*%
X63500000Y-114300000D03*
%TO.P,J10,3*%
%TO.N,Net-(J10-Pad3)*%
X63500000Y-111760000D03*
%TO.P,J10,4*%
%TO.N,Net-(D5-Pad2)*%
X63500000Y-109220000D03*
%TO.P,J10,5*%
%TO.N,Net-(J10-Pad5)*%
X63500000Y-106680000D03*
%TD*%
D18*
%TO.P,J11,1*%
%TO.N,GND*%
X109220000Y-59690000D03*
D19*
%TO.P,J11,2*%
%TO.N,Net-(J11-Pad2)*%
X109220000Y-62230000D03*
%TD*%
D18*
%TO.P,J12,1*%
%TO.N,Net-(J12-Pad1)*%
X89535000Y-56515000D03*
D19*
%TO.P,J12,2*%
%TO.N,Net-(J12-Pad2)*%
X89535000Y-53975000D03*
%TO.P,J12,3*%
%TO.N,GND*%
X89535000Y-51435000D03*
%TO.P,J12,4*%
%TO.N,Net-(J12-Pad4)*%
X89535000Y-48895000D03*
%TO.P,J12,5*%
%TO.N,Net-(J12-Pad5)*%
X89535000Y-46355000D03*
%TD*%
%TO.P,J13,5*%
%TO.N,Net-(J13-Pad5)*%
X90805000Y-78740000D03*
%TO.P,J13,4*%
%TO.N,Net-(J13-Pad4)*%
X93345000Y-78740000D03*
%TO.P,J13,3*%
%TO.N,GND*%
X95885000Y-78740000D03*
%TO.P,J13,2*%
%TO.N,Net-(J13-Pad2)*%
X98425000Y-78740000D03*
D18*
%TO.P,J13,1*%
%TO.N,Net-(J13-Pad1)*%
X100965000Y-78740000D03*
%TD*%
D19*
%TO.P,J14,2*%
%TO.N,GND*%
X86360000Y-61595000D03*
D18*
%TO.P,J14,1*%
%TO.N,DAC1*%
X86360000Y-64135000D03*
%TD*%
%TO.P,J16,1*%
%TO.N,3.3V*%
X21590000Y-103505000D03*
D19*
%TO.P,J16,2*%
%TO.N,GND*%
X24130000Y-103505000D03*
%TO.P,J16,3*%
%TO.N,DIG_IN_3*%
X26670000Y-103505000D03*
%TD*%
%TO.P,J17,3*%
%TO.N,DIG_IN_1*%
X26670000Y-88265000D03*
%TO.P,J17,2*%
%TO.N,GND*%
X24130000Y-88265000D03*
D18*
%TO.P,J17,1*%
%TO.N,3.3V*%
X21590000Y-88265000D03*
%TD*%
%TO.P,J18,1*%
%TO.N,3.3V*%
X21590000Y-111125000D03*
D19*
%TO.P,J18,2*%
%TO.N,GND*%
X24130000Y-111125000D03*
%TO.P,J18,3*%
%TO.N,DIG_IN_4*%
X26670000Y-111125000D03*
%TD*%
%TO.P,J19,3*%
%TO.N,DIG_IN_2*%
X26670000Y-95885000D03*
%TO.P,J19,2*%
%TO.N,GND*%
X24130000Y-95885000D03*
D18*
%TO.P,J19,1*%
%TO.N,3.3V*%
X21590000Y-95885000D03*
%TD*%
D16*
%TO.P,R1,1*%
%TO.N,Net-(J3-Pad3)*%
X116205000Y-120015000D03*
D15*
%TO.P,R1,2*%
%TO.N,Net-(J3-Pad1)*%
X106045000Y-120015000D03*
%TD*%
%TO.P,R2,2*%
%TO.N,GND*%
X110490000Y-103505000D03*
D16*
%TO.P,R2,1*%
%TO.N,Net-(R2-Pad1)*%
X100330000Y-103505000D03*
%TD*%
%TO.P,R3,1*%
%TO.N,Net-(R3-Pad1)*%
X48260000Y-95885000D03*
D15*
%TO.P,R3,2*%
%TO.N,Net-(R3-Pad2)*%
X58420000Y-95885000D03*
%TD*%
D16*
%TO.P,R4,1*%
%TO.N,Net-(R3-Pad1)*%
X48260000Y-99695000D03*
D15*
%TO.P,R4,2*%
%TO.N,Pit_In*%
X58420000Y-99695000D03*
%TD*%
%TO.P,R5,2*%
%TO.N,Net-(J7-Pad2)*%
X40640000Y-24130000D03*
D16*
%TO.P,R5,1*%
%TO.N,Net-(D1-Pad1)*%
X50800000Y-24130000D03*
%TD*%
%TO.P,R8,1*%
%TO.N,MIDI2_IN_RX*%
X91440000Y-105410000D03*
D15*
%TO.P,R8,2*%
%TO.N,3.3V*%
X91440000Y-115570000D03*
%TD*%
%TO.P,R9,2*%
%TO.N,AnalogIn1*%
X95885000Y-66675000D03*
D16*
%TO.P,R9,1*%
%TO.N,Net-(J1-Pad2)*%
X106045000Y-66675000D03*
%TD*%
D15*
%TO.P,R10,2*%
%TO.N,Net-(J10-Pad2)*%
X64770000Y-99695000D03*
D16*
%TO.P,R10,1*%
%TO.N,Net-(D5-Pad1)*%
X74930000Y-99695000D03*
%TD*%
D15*
%TO.P,R11,2*%
%TO.N,3.3V*%
X50800000Y-121285000D03*
D16*
%TO.P,R11,1*%
%TO.N,MIDI3_IN_RX*%
X60960000Y-121285000D03*
%TD*%
%TO.P,R12,1*%
%TO.N,Net-(J11-Pad2)*%
X106045000Y-62865000D03*
D15*
%TO.P,R12,2*%
%TO.N,AnalogIn2*%
X95885000Y-62865000D03*
%TD*%
D16*
%TO.P,R13,1*%
%TO.N,Net-(J12-Pad2)*%
X93345000Y-46990000D03*
D15*
%TO.P,R13,2*%
%TO.N,5V*%
X103505000Y-46990000D03*
%TD*%
%TO.P,R14,2*%
%TO.N,MIDI1_OUT_TX*%
X85725000Y-56515000D03*
D16*
%TO.P,R14,1*%
%TO.N,Net-(J12-Pad4)*%
X85725000Y-46355000D03*
%TD*%
D15*
%TO.P,R15,2*%
%TO.N,MIDI2_OUT_TX*%
X85090000Y-90805000D03*
D16*
%TO.P,R15,1*%
%TO.N,Net-(J13-Pad4)*%
X85090000Y-80645000D03*
%TD*%
%TO.P,R16,1*%
%TO.N,Net-(J13-Pad2)*%
X98425000Y-82550000D03*
D15*
%TO.P,R16,2*%
%TO.N,5V*%
X108585000Y-82550000D03*
%TD*%
D16*
%TO.P,R17,1*%
%TO.N,GND*%
X40640000Y-91440000D03*
D15*
%TO.P,R17,2*%
%TO.N,Net-(R17-Pad2)*%
X50800000Y-91440000D03*
%TD*%
%TO.P,R18,2*%
%TO.N,Net-(R17-Pad2)*%
X55880000Y-91440000D03*
D16*
%TO.P,R18,1*%
%TO.N,Pitch_In*%
X66040000Y-91440000D03*
%TD*%
D15*
%TO.P,R19,2*%
%TO.N,GND*%
X16510000Y-84455000D03*
D16*
%TO.P,R19,1*%
%TO.N,DIG_IN_1*%
X26670000Y-84455000D03*
%TD*%
%TO.P,R20,1*%
%TO.N,DIG_IN_3*%
X26670000Y-99695000D03*
D15*
%TO.P,R20,2*%
%TO.N,GND*%
X16510000Y-99695000D03*
%TD*%
D16*
%TO.P,R21,1*%
%TO.N,DIG_IN_4*%
X26670000Y-107315000D03*
D15*
%TO.P,R21,2*%
%TO.N,GND*%
X16510000Y-107315000D03*
%TD*%
D16*
%TO.P,R22,1*%
%TO.N,DIG_IN_2*%
X26670000Y-92075000D03*
D15*
%TO.P,R22,2*%
%TO.N,GND*%
X16510000Y-92075000D03*
%TD*%
D16*
%TO.P,R23,1*%
%TO.N,Vol_In*%
X71120000Y-80645000D03*
D15*
%TO.P,R23,2*%
%TO.N,Volume_In*%
X71120000Y-90805000D03*
%TD*%
%TO.P,R24,2*%
%TO.N,GND*%
X74930000Y-80645000D03*
D16*
%TO.P,R24,1*%
%TO.N,Volume_In*%
X74930000Y-90805000D03*
%TD*%
D22*
%TO.P,RV1,1*%
%TO.N,3.3V*%
X43815000Y-113030000D03*
%TO.P,RV1,2*%
%TO.N,AnInR*%
X41275000Y-115570000D03*
%TO.P,RV1,3*%
%TO.N,GND*%
X43815000Y-118110000D03*
%TD*%
%TO.P,RV2,3*%
%TO.N,GND*%
X43815000Y-126365000D03*
%TO.P,RV2,2*%
%TO.N,AnInG*%
X41275000Y-123825000D03*
%TO.P,RV2,1*%
%TO.N,3.3V*%
X43815000Y-121285000D03*
%TD*%
%TO.P,RV3,3*%
%TO.N,GND*%
X43815000Y-134620000D03*
%TO.P,RV3,2*%
%TO.N,AnInB*%
X41275000Y-132080000D03*
%TO.P,RV3,1*%
%TO.N,3.3V*%
X43815000Y-129540000D03*
%TD*%
%TO.P,RV4,1*%
%TO.N,3.3V*%
X49530000Y-86995000D03*
%TO.P,RV4,2*%
%TO.N,Net-(RV4-Pad2)*%
X52070000Y-84455000D03*
%TO.P,RV4,3*%
%TO.N,GND*%
X49530000Y-81915000D03*
%TD*%
D23*
%TO.P,U1,14*%
%TO.N,5V*%
X117475000Y-128270000D03*
%TO.P,U1,7*%
%TO.N,GND*%
X109855000Y-143510000D03*
%TO.P,U1,13*%
%TO.N,Net-(J2-Pad1)*%
X117475000Y-130810000D03*
%TO.P,U1,6*%
%TO.N,start*%
X109855000Y-140970000D03*
%TO.P,U1,12*%
%TO.N,Net-(J2-Pad1)*%
X117475000Y-133350000D03*
%TO.P,U1,5*%
%TO.N,out_s*%
X109855000Y-138430000D03*
%TO.P,U1,11*%
%TO.N,Net-(J2-Pad3)*%
X117475000Y-135890000D03*
%TO.P,U1,4*%
%TO.N,Net-(U1-Pad4)*%
X109855000Y-135890000D03*
%TO.P,U1,10*%
%TO.N,N/C*%
X117475000Y-138430000D03*
%TO.P,U1,3*%
X109855000Y-133350000D03*
%TO.P,U1,9*%
X117475000Y-140970000D03*
%TO.P,U1,2*%
X109855000Y-130810000D03*
%TO.P,U1,8*%
X117475000Y-143510000D03*
D24*
%TO.P,U1,1*%
X109855000Y-128270000D03*
%TD*%
%TO.P,U2,1*%
%TO.N,TX_DMX*%
X94615000Y-128270000D03*
D23*
%TO.P,U2,8*%
%TO.N,Net-(U1-Pad4)*%
X102235000Y-143510000D03*
%TO.P,U2,2*%
%TO.N,notstart*%
X94615000Y-130810000D03*
%TO.P,U2,9*%
%TO.N,Net-(U2-Pad11)*%
X102235000Y-140970000D03*
%TO.P,U2,3*%
%TO.N,Net-(U2-Pad12)*%
X94615000Y-133350000D03*
%TO.P,U2,10*%
%TO.N,Net-(J2-Pad1)*%
X102235000Y-138430000D03*
%TO.P,U2,4*%
%TO.N,notstart*%
X94615000Y-135890000D03*
%TO.P,U2,11*%
%TO.N,Net-(U2-Pad11)*%
X102235000Y-135890000D03*
%TO.P,U2,5*%
%TO.N,start*%
X94615000Y-138430000D03*
%TO.P,U2,12*%
%TO.N,Net-(U2-Pad12)*%
X102235000Y-133350000D03*
%TO.P,U2,6*%
%TO.N,start*%
X94615000Y-140970000D03*
%TO.P,U2,13*%
%TO.N,Net-(U2-Pad12)*%
X102235000Y-130810000D03*
%TO.P,U2,7*%
%TO.N,GND*%
X94615000Y-143510000D03*
%TO.P,U2,14*%
%TO.N,5V*%
X102235000Y-128270000D03*
%TD*%
%TO.P,U3,8*%
%TO.N,5V*%
X107950000Y-107950000D03*
%TO.P,U3,4*%
%TO.N,DMX_TX*%
X100330000Y-115570000D03*
%TO.P,U3,7*%
%TO.N,Net-(J3-Pad3)*%
X107950000Y-110490000D03*
%TO.P,U3,3*%
%TO.N,enable*%
X100330000Y-113030000D03*
%TO.P,U3,6*%
%TO.N,Net-(J3-Pad1)*%
X107950000Y-113030000D03*
%TO.P,U3,2*%
%TO.N,5V*%
X100330000Y-110490000D03*
%TO.P,U3,5*%
%TO.N,GND*%
X107950000Y-115570000D03*
D24*
%TO.P,U3,1*%
%TO.N,Net-(R2-Pad1)*%
X100330000Y-107950000D03*
%TD*%
D10*
%TO.P,U4,6*%
%TO.N,Net-(U4-Pad6)*%
X50800000Y-39370000D03*
%TO.P,U4,3*%
%TO.N,Net-(U4-Pad3)*%
X45720000Y-31750000D03*
%TO.P,U4,5*%
%TO.N,MIDI1_IN_RX*%
X48260000Y-39370000D03*
%TO.P,U4,2*%
%TO.N,Net-(D1-Pad2)*%
X48260000Y-31750000D03*
%TO.P,U4,4*%
%TO.N,GND*%
X45720000Y-39370000D03*
D11*
%TO.P,U4,1*%
%TO.N,Net-(D1-Pad1)*%
X50800000Y-31750000D03*
%TD*%
D24*
%TO.P,U5,1*%
%TO.N,Net-(D2-Pad1)*%
X96520000Y-99695000D03*
D23*
%TO.P,U5,4*%
%TO.N,GND*%
X88900000Y-94615000D03*
%TO.P,U5,2*%
%TO.N,Net-(D2-Pad2)*%
X96520000Y-97155000D03*
%TO.P,U5,5*%
%TO.N,MIDI2_IN_RX*%
X88900000Y-97155000D03*
%TO.P,U5,3*%
%TO.N,Net-(U5-Pad3)*%
X96520000Y-94615000D03*
%TO.P,U5,6*%
%TO.N,Net-(U5-Pad6)*%
X88900000Y-99695000D03*
%TD*%
D11*
%TO.P,U6,1*%
%TO.N,Net-(D5-Pad1)*%
X74295000Y-109220000D03*
D10*
%TO.P,U6,4*%
%TO.N,GND*%
X69215000Y-116840000D03*
%TO.P,U6,2*%
%TO.N,Net-(D5-Pad2)*%
X71755000Y-109220000D03*
%TO.P,U6,5*%
%TO.N,MIDI3_IN_RX*%
X71755000Y-116840000D03*
%TO.P,U6,3*%
%TO.N,Net-(U6-Pad3)*%
X69215000Y-109220000D03*
%TO.P,U6,6*%
%TO.N,Net-(U6-Pad6)*%
X74295000Y-116840000D03*
%TD*%
D24*
%TO.P,U8,1*%
%TO.N,Net-(R3-Pad2)*%
X58420000Y-79375000D03*
D23*
%TO.P,U8,5*%
%TO.N,Net-(R3-Pad1)*%
X66040000Y-86995000D03*
%TO.P,U8,2*%
%TO.N,Net-(R3-Pad2)*%
X58420000Y-81915000D03*
%TO.P,U8,6*%
%TO.N,Net-(R17-Pad2)*%
X66040000Y-84455000D03*
%TO.P,U8,3*%
%TO.N,Net-(RV4-Pad2)*%
X58420000Y-84455000D03*
%TO.P,U8,7*%
%TO.N,Pitch_In*%
X66040000Y-81915000D03*
%TO.P,U8,4*%
%TO.N,GND*%
X58420000Y-86995000D03*
%TO.P,U8,8*%
%TO.N,Vinput*%
X66040000Y-79375000D03*
%TD*%
D25*
%TO.P,U9,1*%
%TO.N,Vinput*%
X41910000Y-66825000D03*
D26*
%TO.P,U9,2*%
%TO.N,GND*%
X44450000Y-66825000D03*
%TO.P,U9,3*%
%TO.N,5V_REG*%
X46990000Y-66825000D03*
%TD*%
D18*
%TO.P,J31,1*%
%TO.N,GND*%
X30480000Y-55245000D03*
D19*
%TO.P,J31,2*%
%TO.N,Bandeau_LED*%
X33020000Y-55245000D03*
%TO.P,J31,3*%
%TO.N,5V_REG*%
X35560000Y-55245000D03*
%TD*%
D18*
%TO.P,J15,1*%
%TO.N,GND*%
X69215000Y-135890000D03*
D19*
%TO.P,J15,2*%
%TO.N,5V*%
X66675000Y-135890000D03*
%TO.P,J15,3*%
%TO.N,MISO_SD*%
X64135000Y-135890000D03*
%TO.P,J15,4*%
%TO.N,MOSI_SD*%
X61595000Y-135890000D03*
%TO.P,J15,5*%
%TO.N,SCK_SD*%
X59055000Y-135890000D03*
%TO.P,J15,6*%
%TO.N,CS_SDCar*%
X56515000Y-135890000D03*
%TD*%
%TO.P,J20,6*%
%TO.N,5V*%
X68580000Y-54610000D03*
%TO.P,J20,5*%
%TO.N,GND*%
X68580000Y-57150000D03*
%TO.P,J20,4*%
%TO.N,CS_LCD*%
X68580000Y-59690000D03*
%TO.P,J20,3*%
%TO.N,MOSI_nrF*%
X68580000Y-62230000D03*
%TO.P,J20,2*%
%TO.N,SCK_nrF*%
X68580000Y-64770000D03*
D18*
%TO.P,J20,1*%
%TO.N,RS_LCD*%
X68580000Y-67310000D03*
%TD*%
%TO.P,J30,1*%
%TO.N,Net-(J30-Pad1)*%
X24130000Y-119380000D03*
D19*
%TO.P,J30,2*%
%TO.N,5V*%
X24130000Y-121920000D03*
%TO.P,J30,3*%
%TO.N,GND*%
X24130000Y-124460000D03*
%TO.P,J30,4*%
%TO.N,RX_BT_HC05*%
X24130000Y-127000000D03*
%TO.P,J30,5*%
%TO.N,TX_BT_HC05*%
X24130000Y-129540000D03*
%TO.P,J30,6*%
%TO.N,Net-(J30-Pad6)*%
X24130000Y-132080000D03*
%TD*%
%TO.P,J21,2*%
%TO.N,Vol_In*%
X71120000Y-75565000D03*
D18*
%TO.P,J21,1*%
%TO.N,GND*%
X68580000Y-75565000D03*
%TD*%
%TO.P,J22,1*%
%TO.N,GND*%
X42545000Y-97155000D03*
D19*
%TO.P,J22,2*%
%TO.N,Pit_In*%
X42545000Y-99695000D03*
%TD*%
D18*
%TO.P,J2,1*%
%TO.N,Net-(J2-Pad1)*%
X95885000Y-122555000D03*
D19*
%TO.P,J2,2*%
%TO.N,DMX_TX*%
X98425000Y-122555000D03*
%TO.P,J2,3*%
%TO.N,Net-(J2-Pad3)*%
X100965000Y-122555000D03*
%TD*%
D16*
%TO.P,C2,2*%
%TO.N,Net-(C2-Pad2)*%
X95805000Y-36195000D03*
%TO.P,C2,1*%
%TO.N,Net-(C2-Pad1)*%
X90805000Y-36195000D03*
%TD*%
%TO.P,C7,1*%
%TO.N,Net-(C7-Pad1)*%
X95250000Y-26115000D03*
%TO.P,C7,2*%
%TO.N,GND*%
X95250000Y-31115000D03*
%TD*%
%TO.P,C8,1*%
%TO.N,Net-(C8-Pad1)*%
X116205000Y-28655000D03*
%TO.P,C8,2*%
%TO.N,GND*%
X116205000Y-33655000D03*
%TD*%
D18*
%TO.P,J4,1*%
%TO.N,Net-(J4-Pad1)*%
X80010000Y-23495000D03*
D19*
%TO.P,J4,2*%
%TO.N,GND*%
X82550000Y-23495000D03*
%TO.P,J4,3*%
%TO.N,Net-(J4-Pad3)*%
X85090000Y-23495000D03*
%TD*%
D16*
%TO.P,R25,1*%
%TO.N,Net-(J4-Pad3)*%
X85090000Y-27305000D03*
D15*
%TO.P,R25,2*%
%TO.N,Net-(C2-Pad1)*%
X85090000Y-37465000D03*
%TD*%
D16*
%TO.P,R26,1*%
%TO.N,Net-(J4-Pad1)*%
X80010000Y-27305000D03*
D15*
%TO.P,R26,2*%
%TO.N,Net-(C2-Pad1)*%
X80010000Y-37465000D03*
%TD*%
%TO.P,R27,2*%
%TO.N,Net-(C7-Pad1)*%
X99695000Y-26035000D03*
D16*
%TO.P,R27,1*%
%TO.N,3.3V*%
X99695000Y-36195000D03*
%TD*%
D27*
%TO.N,out_s*%
X90805000Y-137795000D03*
X112395000Y-146685000D03*
X112395000Y-146685000D03*
%TO.N,enable*%
X83820000Y-113665000D03*
X96519994Y-113030000D03*
%TO.N,5V*%
X27940000Y-73130001D03*
X27305000Y-121920000D03*
X66675000Y-141605000D03*
X102235000Y-125730000D03*
X117475000Y-125730000D03*
X92710000Y-125730000D03*
X65405000Y-54610000D03*
%TO.N,3.3V*%
X21590000Y-85090000D03*
X29975001Y-70615001D03*
X43815000Y-83185000D03*
X43815000Y-83185000D03*
X46990000Y-138430000D03*
X90170000Y-119380000D03*
X103505000Y-52705000D03*
X60325002Y-40640000D03*
X80645000Y-43180006D03*
%TO.N,IRQ_nrF*%
X76200000Y-64135000D03*
X69215000Y-46355000D03*
%TO.N,CE_nrF*%
X60325000Y-51435000D03*
X74295000Y-64135000D03*
%TO.N,MOSI_nrF*%
X65405000Y-62230000D03*
X65405000Y-62230000D03*
X58420000Y-62230000D03*
%TO.N,MISO_nrF*%
X72389996Y-53340000D03*
X75565000Y-76835004D03*
%TO.N,CSN_nrF*%
X60325000Y-43180000D03*
X75565000Y-43180000D03*
%TO.N,SCK_SD*%
X59055000Y-132715000D03*
X59055002Y-126365000D03*
%TO.N,EQ_Strobe*%
X91440000Y-71755000D03*
X111125000Y-38100000D03*
%TO.N,EQ_Reset*%
X106045000Y-22225000D03*
X93345000Y-74146001D03*
%TO.N,EQ_out*%
X76200000Y-74295000D03*
X108585000Y-48260000D03*
%TD*%
D28*
%TO.N,out_s*%
X90805000Y-137795000D02*
X90805000Y-144780000D01*
X90805000Y-144780000D02*
X92710000Y-146685000D01*
X92710000Y-146685000D02*
X112395000Y-146685000D01*
%TO.N,enable*%
X83820000Y-113665000D02*
X95884994Y-113665000D01*
X95884994Y-113665000D02*
X96519994Y-113030000D01*
D29*
%TO.N,5V*%
X27305000Y-121920000D02*
X27305000Y-137160000D01*
X27305000Y-137160000D02*
X31750000Y-141605000D01*
X31750000Y-141605000D02*
X66675000Y-141605000D01*
X102235000Y-125730000D02*
X117475000Y-125730000D01*
X66675000Y-141605000D02*
X85725000Y-141605000D01*
X85725000Y-141605000D02*
X88265000Y-139065000D01*
X88265000Y-139065000D02*
X88265000Y-127635000D01*
X90170000Y-125730000D02*
X102235000Y-125730000D01*
X88265000Y-127635000D02*
X90170000Y-125730000D01*
X29845000Y-43180000D02*
X27940000Y-45085000D01*
X27940000Y-45085000D02*
X27940000Y-73130001D01*
X37465000Y-43180000D02*
X29845000Y-43180000D01*
X65405000Y-54610000D02*
X59055000Y-54610000D01*
X47625000Y-43180000D02*
X37465000Y-43180000D01*
X59055000Y-54610000D02*
X47625000Y-43180000D01*
X40640000Y-43180000D02*
X37465000Y-43180000D01*
X40640000Y-39370000D02*
X40640000Y-43180000D01*
X43180000Y-36830000D02*
X40640000Y-39370000D01*
X60960000Y-36830000D02*
X43180000Y-36830000D01*
X86040002Y-38735000D02*
X85810001Y-38965001D01*
X84369999Y-38965001D02*
X84139998Y-38735000D01*
X85810001Y-38965001D02*
X84369999Y-38965001D01*
X103505000Y-46990000D02*
X95250000Y-38735000D01*
X95250000Y-38735000D02*
X86040002Y-38735000D01*
X84139998Y-38735000D02*
X80960002Y-38735000D01*
X80960002Y-38735000D02*
X80730001Y-38965001D01*
X62865000Y-38735000D02*
X60960000Y-36830000D01*
X80730001Y-38965001D02*
X79289999Y-38965001D01*
X79289999Y-38965001D02*
X79059998Y-38735000D01*
X79059998Y-38735000D02*
X62865000Y-38735000D01*
%TO.N,3.3V*%
X46990000Y-59690000D02*
X53340000Y-53340000D01*
X31750000Y-59690000D02*
X46990000Y-59690000D01*
X29975001Y-70615001D02*
X29975001Y-61464999D01*
X29975001Y-61464999D02*
X31750000Y-59690000D01*
X31115000Y-83185000D02*
X43815000Y-83185000D01*
X29845000Y-77470000D02*
X29845000Y-81915000D01*
X29845000Y-81915000D02*
X31115000Y-83185000D01*
X29845000Y-70745002D02*
X29975001Y-70615001D01*
X29845000Y-77470000D02*
X29845000Y-70745002D01*
X24130000Y-81915000D02*
X29845000Y-81915000D01*
X21590000Y-85090000D02*
X21590000Y-84455000D01*
X21590000Y-84455000D02*
X24130000Y-81915000D01*
X21590000Y-111125000D02*
X21590000Y-112395000D01*
X21590000Y-112395000D02*
X23495000Y-114300000D01*
X23495000Y-114300000D02*
X29210000Y-114300000D01*
X29210000Y-114300000D02*
X30480000Y-115570000D01*
X30480000Y-115570000D02*
X30480000Y-135890000D01*
X30480000Y-135890000D02*
X33020000Y-138430000D01*
X33020000Y-138430000D02*
X45085000Y-138430000D01*
X45085000Y-138430000D02*
X46990000Y-138430000D01*
X53340000Y-123825000D02*
X50800000Y-121285000D01*
X90170000Y-121920000D02*
X83820000Y-128270000D01*
X90170000Y-119380000D02*
X90170000Y-121920000D01*
X83820000Y-128270000D02*
X68580000Y-128270000D01*
X68580000Y-128270000D02*
X64135000Y-123825000D01*
X64135000Y-123825000D02*
X53340000Y-123825000D01*
X78104994Y-40640000D02*
X80645000Y-43180006D01*
X93980006Y-43180006D02*
X80645000Y-43180006D01*
X103505000Y-52705000D02*
X93980006Y-43180006D01*
X60325002Y-40640000D02*
X78104994Y-40640000D01*
D28*
%TO.N,IRQ_nrF*%
X74930000Y-46355000D02*
X69215000Y-46355000D01*
X76200000Y-64135000D02*
X76200000Y-47625000D01*
X76200000Y-47625000D02*
X74930000Y-46355000D01*
%TO.N,CE_nrF*%
X73660000Y-51435000D02*
X74295000Y-52070000D01*
X74295000Y-52070000D02*
X74295000Y-64135000D01*
X60325000Y-51435000D02*
X73660000Y-51435000D01*
%TO.N,MOSI_nrF*%
X65405000Y-62230000D02*
X58420000Y-62230000D01*
%TO.N,MISO_nrF*%
X74295000Y-66675000D02*
X74295000Y-75565004D01*
X74295000Y-75565004D02*
X75565000Y-76835004D01*
X72389996Y-53340000D02*
X72389996Y-64769996D01*
X72389996Y-64769996D02*
X74295000Y-66675000D01*
%TO.N,CSN_nrF*%
X60325000Y-43180000D02*
X75565000Y-43180000D01*
%TO.N,SCK_SD*%
X59055000Y-126365002D02*
X59055002Y-126365000D01*
X59055000Y-132715000D02*
X59055000Y-126365002D01*
%TO.N,EQ_Strobe*%
X91440000Y-71755000D02*
X91440000Y-57150000D01*
X91440000Y-57150000D02*
X94615000Y-53975000D01*
X94615000Y-53975000D02*
X104775000Y-53975000D01*
X104775000Y-53975000D02*
X105410000Y-53340000D01*
X105410000Y-53340000D02*
X105410000Y-46355000D01*
X105410000Y-46355000D02*
X111125000Y-40640000D01*
X111125000Y-40640000D02*
X111125000Y-38100000D01*
%TO.N,EQ_Reset*%
X113030000Y-24130000D02*
X113030000Y-41275000D01*
X95250000Y-55245000D02*
X93345000Y-57150000D01*
X113030000Y-41275000D02*
X106680000Y-47625000D01*
X106680000Y-47625000D02*
X106680000Y-54610000D01*
X111125000Y-22225000D02*
X113030000Y-24130000D01*
X93345000Y-57150000D02*
X93345000Y-74146001D01*
X106680000Y-54610000D02*
X106045000Y-55245000D01*
X106045000Y-55245000D02*
X95250000Y-55245000D01*
X106045000Y-22225000D02*
X111125000Y-22225000D01*
%TO.N,EQ_out*%
X76899999Y-74994999D02*
X76899999Y-77534999D01*
X76899999Y-77534999D02*
X78105000Y-78740000D01*
X82087102Y-78740000D02*
X84627102Y-76200000D01*
X111760000Y-51435000D02*
X109284999Y-48959999D01*
X84627102Y-76200000D02*
X109855000Y-76200000D01*
X111760000Y-74295000D02*
X111760000Y-51435000D01*
X109855000Y-76200000D02*
X111760000Y-74295000D01*
X78105000Y-78740000D02*
X82087102Y-78740000D01*
X109284999Y-48959999D02*
X108585000Y-48260000D01*
X76200000Y-74295000D02*
X76899999Y-74994999D01*
%TD*%
M02*
