%TF.GenerationSoftware,KiCad,Pcbnew,(5.1.6)-1*%
%TF.CreationDate,2022-04-08T07:46:14+02:00*%
%TF.ProjectId,carteDmx512vFinale,63617274-6544-46d7-9835-31327646696e,VILLEMEJANE*%
%TF.SameCoordinates,Original*%
%TF.FileFunction,Legend,Top*%
%TF.FilePolarity,Positive*%
%FSLAX46Y46*%
G04 Gerber Fmt 4.6, Leading zero omitted, Abs format (unit mm)*
G04 Created by KiCad (PCBNEW (5.1.6)-1) date 2022-04-08 07:46:14*
%MOMM*%
%LPD*%
G01*
G04 APERTURE LIST*
%ADD10C,0.150000*%
%ADD11C,0.400000*%
%ADD12C,0.300000*%
%ADD13C,0.250000*%
%ADD14C,0.350000*%
%ADD15C,0.120000*%
G04 APERTURE END LIST*
D10*
X23312380Y-29558809D02*
X22312380Y-29558809D01*
X22693333Y-29558809D02*
X22645714Y-29463571D01*
X22645714Y-29273095D01*
X22693333Y-29177857D01*
X22740952Y-29130238D01*
X22836190Y-29082619D01*
X23121904Y-29082619D01*
X23217142Y-29130238D01*
X23264761Y-29177857D01*
X23312380Y-29273095D01*
X23312380Y-29463571D01*
X23264761Y-29558809D01*
X22645714Y-28749285D02*
X23312380Y-28511190D01*
X22645714Y-28273095D02*
X23312380Y-28511190D01*
X23550476Y-28606428D01*
X23598095Y-28654047D01*
X23645714Y-28749285D01*
X22312380Y-28035000D02*
X23312380Y-27701666D01*
X22312380Y-27368333D01*
X23312380Y-27035000D02*
X22645714Y-27035000D01*
X22312380Y-27035000D02*
X22360000Y-27082619D01*
X22407619Y-27035000D01*
X22360000Y-26987380D01*
X22312380Y-27035000D01*
X22407619Y-27035000D01*
X23312380Y-26415952D02*
X23264761Y-26511190D01*
X23169523Y-26558809D01*
X22312380Y-26558809D01*
X23312380Y-25892142D02*
X23264761Y-25987380D01*
X23169523Y-26035000D01*
X22312380Y-26035000D01*
X23312380Y-25368333D02*
X23264761Y-25463571D01*
X23217142Y-25511190D01*
X23121904Y-25558809D01*
X22836190Y-25558809D01*
X22740952Y-25511190D01*
X22693333Y-25463571D01*
X22645714Y-25368333D01*
X22645714Y-25225476D01*
X22693333Y-25130238D01*
X22740952Y-25082619D01*
X22836190Y-25035000D01*
X23121904Y-25035000D01*
X23217142Y-25082619D01*
X23264761Y-25130238D01*
X23312380Y-25225476D01*
X23312380Y-25368333D01*
X22645714Y-24177857D02*
X23312380Y-24177857D01*
X22645714Y-24606428D02*
X23169523Y-24606428D01*
X23264761Y-24558809D01*
X23312380Y-24463571D01*
X23312380Y-24320714D01*
X23264761Y-24225476D01*
X23217142Y-24177857D01*
X23217142Y-23701666D02*
X23264761Y-23654047D01*
X23312380Y-23701666D01*
X23264761Y-23749285D01*
X23217142Y-23701666D01*
X23312380Y-23701666D01*
X22645714Y-23368333D02*
X22645714Y-22987380D01*
X23312380Y-23225476D02*
X22455238Y-23225476D01*
X22360000Y-23177857D01*
X22312380Y-23082619D01*
X22312380Y-22987380D01*
X23312380Y-22654047D02*
X22645714Y-22654047D01*
X22836190Y-22654047D02*
X22740952Y-22606428D01*
X22693333Y-22558809D01*
X22645714Y-22463571D01*
X22645714Y-22368333D01*
D11*
X20589761Y-42305714D02*
X20589761Y-43258095D01*
X18589761Y-43258095D01*
X19542142Y-41639047D02*
X19542142Y-40972380D01*
X20589761Y-40686666D02*
X20589761Y-41639047D01*
X18589761Y-41639047D01*
X18589761Y-40686666D01*
X19256428Y-39829523D02*
X20589761Y-39829523D01*
X19446904Y-39829523D02*
X19351666Y-39734285D01*
X19256428Y-39543809D01*
X19256428Y-39258095D01*
X19351666Y-39067619D01*
X19542142Y-38972380D01*
X20589761Y-38972380D01*
X20494523Y-38115238D02*
X20589761Y-37924761D01*
X20589761Y-37543809D01*
X20494523Y-37353333D01*
X20304047Y-37258095D01*
X20208809Y-37258095D01*
X20018333Y-37353333D01*
X19923095Y-37543809D01*
X19923095Y-37829523D01*
X19827857Y-38020000D01*
X19637380Y-38115238D01*
X19542142Y-38115238D01*
X19351666Y-38020000D01*
X19256428Y-37829523D01*
X19256428Y-37543809D01*
X19351666Y-37353333D01*
X19542142Y-36400952D02*
X19542142Y-35734285D01*
X20589761Y-35448571D02*
X20589761Y-36400952D01*
X18589761Y-36400952D01*
X18589761Y-35448571D01*
X18494523Y-31639047D02*
X21065952Y-33353333D01*
X18780238Y-29543809D02*
X18685000Y-29448571D01*
X18589761Y-29258095D01*
X18589761Y-28781904D01*
X18685000Y-28591428D01*
X18780238Y-28496190D01*
X18970714Y-28400952D01*
X19161190Y-28400952D01*
X19446904Y-28496190D01*
X20589761Y-29639047D01*
X20589761Y-28400952D01*
X18589761Y-27162857D02*
X18589761Y-26972380D01*
X18685000Y-26781904D01*
X18780238Y-26686666D01*
X18970714Y-26591428D01*
X19351666Y-26496190D01*
X19827857Y-26496190D01*
X20208809Y-26591428D01*
X20399285Y-26686666D01*
X20494523Y-26781904D01*
X20589761Y-26972380D01*
X20589761Y-27162857D01*
X20494523Y-27353333D01*
X20399285Y-27448571D01*
X20208809Y-27543809D01*
X19827857Y-27639047D01*
X19351666Y-27639047D01*
X18970714Y-27543809D01*
X18780238Y-27448571D01*
X18685000Y-27353333D01*
X18589761Y-27162857D01*
X18780238Y-25734285D02*
X18685000Y-25639047D01*
X18589761Y-25448571D01*
X18589761Y-24972380D01*
X18685000Y-24781904D01*
X18780238Y-24686666D01*
X18970714Y-24591428D01*
X19161190Y-24591428D01*
X19446904Y-24686666D01*
X20589761Y-25829523D01*
X20589761Y-24591428D01*
X18780238Y-23829523D02*
X18685000Y-23734285D01*
X18589761Y-23543809D01*
X18589761Y-23067619D01*
X18685000Y-22877142D01*
X18780238Y-22781904D01*
X18970714Y-22686666D01*
X19161190Y-22686666D01*
X19446904Y-22781904D01*
X20589761Y-23924761D01*
X20589761Y-22686666D01*
D12*
X15918571Y-42912857D02*
X14418571Y-42912857D01*
X14418571Y-42555714D01*
X14490000Y-42341428D01*
X14632857Y-42198571D01*
X14775714Y-42127142D01*
X15061428Y-42055714D01*
X15275714Y-42055714D01*
X15561428Y-42127142D01*
X15704285Y-42198571D01*
X15847142Y-42341428D01*
X15918571Y-42555714D01*
X15918571Y-42912857D01*
X15918571Y-41412857D02*
X14418571Y-41412857D01*
X15490000Y-40912857D01*
X14418571Y-40412857D01*
X15918571Y-40412857D01*
X14418571Y-39841428D02*
X15918571Y-38841428D01*
X14418571Y-38841428D02*
X15918571Y-39841428D01*
X14918571Y-37270000D02*
X15918571Y-36912857D01*
X14918571Y-36555714D01*
X15847142Y-35412857D02*
X15918571Y-35555714D01*
X15918571Y-35841428D01*
X15847142Y-35984285D01*
X15704285Y-36055714D01*
X15132857Y-36055714D01*
X14990000Y-35984285D01*
X14918571Y-35841428D01*
X14918571Y-35555714D01*
X14990000Y-35412857D01*
X15132857Y-35341428D01*
X15275714Y-35341428D01*
X15418571Y-36055714D01*
X15918571Y-34698571D02*
X14918571Y-34698571D01*
X15204285Y-34698571D02*
X15061428Y-34627142D01*
X14990000Y-34555714D01*
X14918571Y-34412857D01*
X14918571Y-34270000D01*
X15847142Y-33841428D02*
X15918571Y-33698571D01*
X15918571Y-33412857D01*
X15847142Y-33270000D01*
X15704285Y-33198571D01*
X15632857Y-33198571D01*
X15490000Y-33270000D01*
X15418571Y-33412857D01*
X15418571Y-33627142D01*
X15347142Y-33770000D01*
X15204285Y-33841428D01*
X15132857Y-33841428D01*
X14990000Y-33770000D01*
X14918571Y-33627142D01*
X14918571Y-33412857D01*
X14990000Y-33270000D01*
X15918571Y-32555714D02*
X14918571Y-32555714D01*
X14418571Y-32555714D02*
X14490000Y-32627142D01*
X14561428Y-32555714D01*
X14490000Y-32484285D01*
X14418571Y-32555714D01*
X14561428Y-32555714D01*
X15918571Y-31627142D02*
X15847142Y-31770000D01*
X15775714Y-31841428D01*
X15632857Y-31912857D01*
X15204285Y-31912857D01*
X15061428Y-31841428D01*
X14990000Y-31770000D01*
X14918571Y-31627142D01*
X14918571Y-31412857D01*
X14990000Y-31270000D01*
X15061428Y-31198571D01*
X15204285Y-31127142D01*
X15632857Y-31127142D01*
X15775714Y-31198571D01*
X15847142Y-31270000D01*
X15918571Y-31412857D01*
X15918571Y-31627142D01*
X14918571Y-30484285D02*
X15918571Y-30484285D01*
X15061428Y-30484285D02*
X14990000Y-30412857D01*
X14918571Y-30270000D01*
X14918571Y-30055714D01*
X14990000Y-29912857D01*
X15132857Y-29841428D01*
X15918571Y-29841428D01*
X15132857Y-27484285D02*
X15132857Y-27984285D01*
X15918571Y-27984285D02*
X14418571Y-27984285D01*
X14418571Y-27270000D01*
X14418571Y-26841428D02*
X14418571Y-25841428D01*
X15918571Y-26484285D01*
X14418571Y-24627142D02*
X14418571Y-24912857D01*
X14490000Y-25055714D01*
X14561428Y-25127142D01*
X14775714Y-25270000D01*
X15061428Y-25341428D01*
X15632857Y-25341428D01*
X15775714Y-25270000D01*
X15847142Y-25198571D01*
X15918571Y-25055714D01*
X15918571Y-24770000D01*
X15847142Y-24627142D01*
X15775714Y-24555714D01*
X15632857Y-24484285D01*
X15275714Y-24484285D01*
X15132857Y-24555714D01*
X15061428Y-24627142D01*
X14990000Y-24770000D01*
X14990000Y-25055714D01*
X15061428Y-25198571D01*
X15132857Y-25270000D01*
X15275714Y-25341428D01*
X14418571Y-23984285D02*
X14418571Y-22984285D01*
X15918571Y-23627142D01*
D13*
X56872619Y-42858571D02*
X56872619Y-43858571D01*
X56872619Y-43001428D02*
X56920238Y-42930000D01*
X57015476Y-42858571D01*
X57158333Y-42858571D01*
X57253571Y-42930000D01*
X57301190Y-43072857D01*
X57301190Y-43858571D01*
X58348809Y-43858571D02*
X58015476Y-43144285D01*
X57777380Y-43858571D02*
X57777380Y-42358571D01*
X58158333Y-42358571D01*
X58253571Y-42430000D01*
X58301190Y-42501428D01*
X58348809Y-42644285D01*
X58348809Y-42858571D01*
X58301190Y-43001428D01*
X58253571Y-43072857D01*
X58158333Y-43144285D01*
X57777380Y-43144285D01*
X59110714Y-43072857D02*
X58777380Y-43072857D01*
X58777380Y-43858571D02*
X58777380Y-42358571D01*
X59253571Y-42358571D01*
X59586904Y-42501428D02*
X59634523Y-42430000D01*
X59729761Y-42358571D01*
X59967857Y-42358571D01*
X60063095Y-42430000D01*
X60110714Y-42501428D01*
X60158333Y-42644285D01*
X60158333Y-42787142D01*
X60110714Y-43001428D01*
X59539285Y-43858571D01*
X60158333Y-43858571D01*
X61015476Y-42858571D02*
X61015476Y-43858571D01*
X60777380Y-42287142D02*
X60539285Y-43358571D01*
X61158333Y-43358571D01*
X62015476Y-43858571D02*
X61539285Y-43858571D01*
X61539285Y-42358571D01*
X62539285Y-42358571D02*
X62634523Y-42358571D01*
X62729761Y-42430000D01*
X62777380Y-42501428D01*
X62825000Y-42644285D01*
X62872619Y-42930000D01*
X62872619Y-43287142D01*
X62825000Y-43572857D01*
X62777380Y-43715714D01*
X62729761Y-43787142D01*
X62634523Y-43858571D01*
X62539285Y-43858571D01*
X62444047Y-43787142D01*
X62396428Y-43715714D01*
X62348809Y-43572857D01*
X62301190Y-43287142D01*
X62301190Y-42930000D01*
X62348809Y-42644285D01*
X62396428Y-42501428D01*
X62444047Y-42430000D01*
X62539285Y-42358571D01*
X63825000Y-43858571D02*
X63253571Y-43858571D01*
X63539285Y-43858571D02*
X63539285Y-42358571D01*
X63444047Y-42572857D01*
X63348809Y-42715714D01*
X63253571Y-42787142D01*
D10*
X26479523Y-121372380D02*
X26003333Y-121372380D01*
X25955714Y-121848571D01*
X26003333Y-121800952D01*
X26098571Y-121753333D01*
X26336666Y-121753333D01*
X26431904Y-121800952D01*
X26479523Y-121848571D01*
X26527142Y-121943809D01*
X26527142Y-122181904D01*
X26479523Y-122277142D01*
X26431904Y-122324761D01*
X26336666Y-122372380D01*
X26098571Y-122372380D01*
X26003333Y-122324761D01*
X25955714Y-122277142D01*
X26812857Y-121372380D02*
X27146190Y-122372380D01*
X27479523Y-121372380D01*
X21407380Y-133167142D02*
X20407380Y-133167142D01*
X20883571Y-133167142D02*
X20883571Y-132595714D01*
X21407380Y-132595714D02*
X20407380Y-132595714D01*
X21312142Y-131548095D02*
X21359761Y-131595714D01*
X21407380Y-131738571D01*
X21407380Y-131833809D01*
X21359761Y-131976666D01*
X21264523Y-132071904D01*
X21169285Y-132119523D01*
X20978809Y-132167142D01*
X20835952Y-132167142D01*
X20645476Y-132119523D01*
X20550238Y-132071904D01*
X20455000Y-131976666D01*
X20407380Y-131833809D01*
X20407380Y-131738571D01*
X20455000Y-131595714D01*
X20502619Y-131548095D01*
X21026428Y-131119523D02*
X21026428Y-130357619D01*
X20407380Y-129690952D02*
X20407380Y-129595714D01*
X20455000Y-129500476D01*
X20502619Y-129452857D01*
X20597857Y-129405238D01*
X20788333Y-129357619D01*
X21026428Y-129357619D01*
X21216904Y-129405238D01*
X21312142Y-129452857D01*
X21359761Y-129500476D01*
X21407380Y-129595714D01*
X21407380Y-129690952D01*
X21359761Y-129786190D01*
X21312142Y-129833809D01*
X21216904Y-129881428D01*
X21026428Y-129929047D01*
X20788333Y-129929047D01*
X20597857Y-129881428D01*
X20502619Y-129833809D01*
X20455000Y-129786190D01*
X20407380Y-129690952D01*
X20407380Y-128452857D02*
X20407380Y-128929047D01*
X20883571Y-128976666D01*
X20835952Y-128929047D01*
X20788333Y-128833809D01*
X20788333Y-128595714D01*
X20835952Y-128500476D01*
X20883571Y-128452857D01*
X20978809Y-128405238D01*
X21216904Y-128405238D01*
X21312142Y-128452857D01*
X21359761Y-128500476D01*
X21407380Y-128595714D01*
X21407380Y-128833809D01*
X21359761Y-128929047D01*
X21312142Y-128976666D01*
D13*
X61003571Y-116152857D02*
X59503571Y-116152857D01*
X60575000Y-115652857D01*
X59503571Y-115152857D01*
X61003571Y-115152857D01*
X61003571Y-114438571D02*
X59503571Y-114438571D01*
X61003571Y-113724285D02*
X59503571Y-113724285D01*
X59503571Y-113367142D01*
X59575000Y-113152857D01*
X59717857Y-113010000D01*
X59860714Y-112938571D01*
X60146428Y-112867142D01*
X60360714Y-112867142D01*
X60646428Y-112938571D01*
X60789285Y-113010000D01*
X60932142Y-113152857D01*
X61003571Y-113367142D01*
X61003571Y-113724285D01*
X61003571Y-112224285D02*
X59503571Y-112224285D01*
X59503571Y-111652857D02*
X59503571Y-110724285D01*
X60075000Y-111224285D01*
X60075000Y-111010000D01*
X60146428Y-110867142D01*
X60217857Y-110795714D01*
X60360714Y-110724285D01*
X60717857Y-110724285D01*
X60860714Y-110795714D01*
X60932142Y-110867142D01*
X61003571Y-111010000D01*
X61003571Y-111438571D01*
X60932142Y-111581428D01*
X60860714Y-111652857D01*
X61146428Y-110438571D02*
X61146428Y-109295714D01*
X61003571Y-108938571D02*
X59503571Y-108938571D01*
X61003571Y-108224285D02*
X59503571Y-108224285D01*
X61003571Y-107367142D01*
X59503571Y-107367142D01*
X91492142Y-85768571D02*
X91492142Y-84268571D01*
X91992142Y-85340000D01*
X92492142Y-84268571D01*
X92492142Y-85768571D01*
X93206428Y-85768571D02*
X93206428Y-84268571D01*
X93920714Y-85768571D02*
X93920714Y-84268571D01*
X94277857Y-84268571D01*
X94492142Y-84340000D01*
X94635000Y-84482857D01*
X94706428Y-84625714D01*
X94777857Y-84911428D01*
X94777857Y-85125714D01*
X94706428Y-85411428D01*
X94635000Y-85554285D01*
X94492142Y-85697142D01*
X94277857Y-85768571D01*
X93920714Y-85768571D01*
X95420714Y-85768571D02*
X95420714Y-84268571D01*
X96063571Y-84411428D02*
X96135000Y-84340000D01*
X96277857Y-84268571D01*
X96635000Y-84268571D01*
X96777857Y-84340000D01*
X96849285Y-84411428D01*
X96920714Y-84554285D01*
X96920714Y-84697142D01*
X96849285Y-84911428D01*
X95992142Y-85768571D01*
X96920714Y-85768571D01*
X97206428Y-85911428D02*
X98349285Y-85911428D01*
X98706428Y-85768571D02*
X98706428Y-84268571D01*
X99420714Y-85768571D02*
X99420714Y-84268571D01*
X100277857Y-85768571D01*
X100277857Y-84268571D01*
X90492142Y-76878571D02*
X90492142Y-75378571D01*
X90992142Y-76450000D01*
X91492142Y-75378571D01*
X91492142Y-76878571D01*
X92206428Y-76878571D02*
X92206428Y-75378571D01*
X92920714Y-76878571D02*
X92920714Y-75378571D01*
X93277857Y-75378571D01*
X93492142Y-75450000D01*
X93635000Y-75592857D01*
X93706428Y-75735714D01*
X93777857Y-76021428D01*
X93777857Y-76235714D01*
X93706428Y-76521428D01*
X93635000Y-76664285D01*
X93492142Y-76807142D01*
X93277857Y-76878571D01*
X92920714Y-76878571D01*
X94420714Y-76878571D02*
X94420714Y-75378571D01*
X95063571Y-75521428D02*
X95135000Y-75450000D01*
X95277857Y-75378571D01*
X95635000Y-75378571D01*
X95777857Y-75450000D01*
X95849285Y-75521428D01*
X95920714Y-75664285D01*
X95920714Y-75807142D01*
X95849285Y-76021428D01*
X94992142Y-76878571D01*
X95920714Y-76878571D01*
X96206428Y-77021428D02*
X97349285Y-77021428D01*
X97992142Y-75378571D02*
X98277857Y-75378571D01*
X98420714Y-75450000D01*
X98563571Y-75592857D01*
X98635000Y-75878571D01*
X98635000Y-76378571D01*
X98563571Y-76664285D01*
X98420714Y-76807142D01*
X98277857Y-76878571D01*
X97992142Y-76878571D01*
X97849285Y-76807142D01*
X97706428Y-76664285D01*
X97635000Y-76378571D01*
X97635000Y-75878571D01*
X97706428Y-75592857D01*
X97849285Y-75450000D01*
X97992142Y-75378571D01*
X99277857Y-75378571D02*
X99277857Y-76592857D01*
X99349285Y-76735714D01*
X99420714Y-76807142D01*
X99563571Y-76878571D01*
X99849285Y-76878571D01*
X99992142Y-76807142D01*
X100063571Y-76735714D01*
X100135000Y-76592857D01*
X100135000Y-75378571D01*
X100635000Y-75378571D02*
X101492142Y-75378571D01*
X101063571Y-76878571D02*
X101063571Y-75378571D01*
D12*
X94658571Y-54287857D02*
X93158571Y-54287857D01*
X94230000Y-53787857D01*
X93158571Y-53287857D01*
X94658571Y-53287857D01*
X94658571Y-52573571D02*
X93158571Y-52573571D01*
X94658571Y-51859285D02*
X93158571Y-51859285D01*
X93158571Y-51502142D01*
X93230000Y-51287857D01*
X93372857Y-51145000D01*
X93515714Y-51073571D01*
X93801428Y-51002142D01*
X94015714Y-51002142D01*
X94301428Y-51073571D01*
X94444285Y-51145000D01*
X94587142Y-51287857D01*
X94658571Y-51502142D01*
X94658571Y-51859285D01*
X94658571Y-50359285D02*
X93158571Y-50359285D01*
X94658571Y-48859285D02*
X94658571Y-49716428D01*
X94658571Y-49287857D02*
X93158571Y-49287857D01*
X93372857Y-49430714D01*
X93515714Y-49573571D01*
X93587142Y-49716428D01*
X94801428Y-48573571D02*
X94801428Y-47430714D01*
X93158571Y-46787857D02*
X93158571Y-46502142D01*
X93230000Y-46359285D01*
X93372857Y-46216428D01*
X93658571Y-46145000D01*
X94158571Y-46145000D01*
X94444285Y-46216428D01*
X94587142Y-46359285D01*
X94658571Y-46502142D01*
X94658571Y-46787857D01*
X94587142Y-46930714D01*
X94444285Y-47073571D01*
X94158571Y-47145000D01*
X93658571Y-47145000D01*
X93372857Y-47073571D01*
X93230000Y-46930714D01*
X93158571Y-46787857D01*
X93158571Y-45502142D02*
X94372857Y-45502142D01*
X94515714Y-45430714D01*
X94587142Y-45359285D01*
X94658571Y-45216428D01*
X94658571Y-44930714D01*
X94587142Y-44787857D01*
X94515714Y-44716428D01*
X94372857Y-44645000D01*
X93158571Y-44645000D01*
X93158571Y-44145000D02*
X93158571Y-43287857D01*
X94658571Y-43716428D02*
X93158571Y-43716428D01*
X34333571Y-37412857D02*
X32833571Y-37412857D01*
X33905000Y-36912857D01*
X32833571Y-36412857D01*
X34333571Y-36412857D01*
X34333571Y-35698571D02*
X32833571Y-35698571D01*
X34333571Y-34984285D02*
X32833571Y-34984285D01*
X32833571Y-34627142D01*
X32905000Y-34412857D01*
X33047857Y-34270000D01*
X33190714Y-34198571D01*
X33476428Y-34127142D01*
X33690714Y-34127142D01*
X33976428Y-34198571D01*
X34119285Y-34270000D01*
X34262142Y-34412857D01*
X34333571Y-34627142D01*
X34333571Y-34984285D01*
X34333571Y-33484285D02*
X32833571Y-33484285D01*
X34333571Y-31984285D02*
X34333571Y-32841428D01*
X34333571Y-32412857D02*
X32833571Y-32412857D01*
X33047857Y-32555714D01*
X33190714Y-32698571D01*
X33262142Y-32841428D01*
X34476428Y-31698571D02*
X34476428Y-30555714D01*
X34333571Y-30198571D02*
X32833571Y-30198571D01*
X34333571Y-29484285D02*
X32833571Y-29484285D01*
X34333571Y-28627142D01*
X32833571Y-28627142D01*
D10*
X29980000Y-52831904D02*
X29932380Y-52927142D01*
X29932380Y-53070000D01*
X29980000Y-53212857D01*
X30075238Y-53308095D01*
X30170476Y-53355714D01*
X30360952Y-53403333D01*
X30503809Y-53403333D01*
X30694285Y-53355714D01*
X30789523Y-53308095D01*
X30884761Y-53212857D01*
X30932380Y-53070000D01*
X30932380Y-52974761D01*
X30884761Y-52831904D01*
X30837142Y-52784285D01*
X30503809Y-52784285D01*
X30503809Y-52974761D01*
X30932380Y-52355714D02*
X29932380Y-52355714D01*
X30932380Y-51784285D01*
X29932380Y-51784285D01*
X30932380Y-51308095D02*
X29932380Y-51308095D01*
X29932380Y-51070000D01*
X29980000Y-50927142D01*
X30075238Y-50831904D01*
X30170476Y-50784285D01*
X30360952Y-50736666D01*
X30503809Y-50736666D01*
X30694285Y-50784285D01*
X30789523Y-50831904D01*
X30884761Y-50927142D01*
X30932380Y-51070000D01*
X30932380Y-51308095D01*
X35441190Y-52157380D02*
X34965000Y-52157380D01*
X34917380Y-52633571D01*
X34965000Y-52585952D01*
X35060238Y-52538333D01*
X35298333Y-52538333D01*
X35393571Y-52585952D01*
X35441190Y-52633571D01*
X35488809Y-52728809D01*
X35488809Y-52966904D01*
X35441190Y-53062142D01*
X35393571Y-53109761D01*
X35298333Y-53157380D01*
X35060238Y-53157380D01*
X34965000Y-53109761D01*
X34917380Y-53062142D01*
X35774523Y-52157380D02*
X36107857Y-53157380D01*
X36441190Y-52157380D01*
X36536428Y-53252619D02*
X37298333Y-53252619D01*
X38107857Y-53157380D02*
X37774523Y-52681190D01*
X37536428Y-53157380D02*
X37536428Y-52157380D01*
X37917380Y-52157380D01*
X38012619Y-52205000D01*
X38060238Y-52252619D01*
X38107857Y-52347857D01*
X38107857Y-52490714D01*
X38060238Y-52585952D01*
X38012619Y-52633571D01*
X37917380Y-52681190D01*
X37536428Y-52681190D01*
X38536428Y-52633571D02*
X38869761Y-52633571D01*
X39012619Y-53157380D02*
X38536428Y-53157380D01*
X38536428Y-52157380D01*
X39012619Y-52157380D01*
X39965000Y-52205000D02*
X39869761Y-52157380D01*
X39726904Y-52157380D01*
X39584047Y-52205000D01*
X39488809Y-52300238D01*
X39441190Y-52395476D01*
X39393571Y-52585952D01*
X39393571Y-52728809D01*
X39441190Y-52919285D01*
X39488809Y-53014523D01*
X39584047Y-53109761D01*
X39726904Y-53157380D01*
X39822142Y-53157380D01*
X39965000Y-53109761D01*
X40012619Y-53062142D01*
X40012619Y-52728809D01*
X39822142Y-52728809D01*
D13*
X112093809Y-62480000D02*
X112570000Y-62480000D01*
X111998571Y-62908571D02*
X112331904Y-61408571D01*
X112665238Y-62908571D01*
X112998571Y-61908571D02*
X112998571Y-62908571D01*
X112998571Y-62051428D02*
X113046190Y-61980000D01*
X113141428Y-61908571D01*
X113284285Y-61908571D01*
X113379523Y-61980000D01*
X113427142Y-62122857D01*
X113427142Y-62908571D01*
X114331904Y-62908571D02*
X114331904Y-62122857D01*
X114284285Y-61980000D01*
X114189047Y-61908571D01*
X113998571Y-61908571D01*
X113903333Y-61980000D01*
X114331904Y-62837142D02*
X114236666Y-62908571D01*
X113998571Y-62908571D01*
X113903333Y-62837142D01*
X113855714Y-62694285D01*
X113855714Y-62551428D01*
X113903333Y-62408571D01*
X113998571Y-62337142D01*
X114236666Y-62337142D01*
X114331904Y-62265714D01*
X114950952Y-62908571D02*
X114855714Y-62837142D01*
X114808095Y-62694285D01*
X114808095Y-61408571D01*
X115474761Y-62908571D02*
X115379523Y-62837142D01*
X115331904Y-62765714D01*
X115284285Y-62622857D01*
X115284285Y-62194285D01*
X115331904Y-62051428D01*
X115379523Y-61980000D01*
X115474761Y-61908571D01*
X115617619Y-61908571D01*
X115712857Y-61980000D01*
X115760476Y-62051428D01*
X115808095Y-62194285D01*
X115808095Y-62622857D01*
X115760476Y-62765714D01*
X115712857Y-62837142D01*
X115617619Y-62908571D01*
X115474761Y-62908571D01*
X116665238Y-61908571D02*
X116665238Y-63122857D01*
X116617619Y-63265714D01*
X116570000Y-63337142D01*
X116474761Y-63408571D01*
X116331904Y-63408571D01*
X116236666Y-63337142D01*
X116665238Y-62837142D02*
X116570000Y-62908571D01*
X116379523Y-62908571D01*
X116284285Y-62837142D01*
X116236666Y-62765714D01*
X116189047Y-62622857D01*
X116189047Y-62194285D01*
X116236666Y-62051428D01*
X116284285Y-61980000D01*
X116379523Y-61908571D01*
X116570000Y-61908571D01*
X116665238Y-61980000D01*
X117141428Y-62908571D02*
X117141428Y-61408571D01*
X117617619Y-61908571D02*
X117617619Y-62908571D01*
X117617619Y-62051428D02*
X117665238Y-61980000D01*
X117760476Y-61908571D01*
X117903333Y-61908571D01*
X117998571Y-61980000D01*
X118046190Y-62122857D01*
X118046190Y-62908571D01*
X118474761Y-61551428D02*
X118522380Y-61480000D01*
X118617619Y-61408571D01*
X118855714Y-61408571D01*
X118950952Y-61480000D01*
X118998571Y-61551428D01*
X119046190Y-61694285D01*
X119046190Y-61837142D01*
X118998571Y-62051428D01*
X118427142Y-62908571D01*
X119046190Y-62908571D01*
D10*
X112903095Y-59190000D02*
X112807857Y-59142380D01*
X112665000Y-59142380D01*
X112522142Y-59190000D01*
X112426904Y-59285238D01*
X112379285Y-59380476D01*
X112331666Y-59570952D01*
X112331666Y-59713809D01*
X112379285Y-59904285D01*
X112426904Y-59999523D01*
X112522142Y-60094761D01*
X112665000Y-60142380D01*
X112760238Y-60142380D01*
X112903095Y-60094761D01*
X112950714Y-60047142D01*
X112950714Y-59713809D01*
X112760238Y-59713809D01*
X113379285Y-60142380D02*
X113379285Y-59142380D01*
X113950714Y-60142380D01*
X113950714Y-59142380D01*
X114426904Y-60142380D02*
X114426904Y-59142380D01*
X114665000Y-59142380D01*
X114807857Y-59190000D01*
X114903095Y-59285238D01*
X114950714Y-59380476D01*
X114998333Y-59570952D01*
X114998333Y-59713809D01*
X114950714Y-59904285D01*
X114903095Y-59999523D01*
X114807857Y-60094761D01*
X114665000Y-60142380D01*
X114426904Y-60142380D01*
X112903095Y-69350000D02*
X112807857Y-69302380D01*
X112665000Y-69302380D01*
X112522142Y-69350000D01*
X112426904Y-69445238D01*
X112379285Y-69540476D01*
X112331666Y-69730952D01*
X112331666Y-69873809D01*
X112379285Y-70064285D01*
X112426904Y-70159523D01*
X112522142Y-70254761D01*
X112665000Y-70302380D01*
X112760238Y-70302380D01*
X112903095Y-70254761D01*
X112950714Y-70207142D01*
X112950714Y-69873809D01*
X112760238Y-69873809D01*
X113379285Y-70302380D02*
X113379285Y-69302380D01*
X113950714Y-70302380D01*
X113950714Y-69302380D01*
X114426904Y-70302380D02*
X114426904Y-69302380D01*
X114665000Y-69302380D01*
X114807857Y-69350000D01*
X114903095Y-69445238D01*
X114950714Y-69540476D01*
X114998333Y-69730952D01*
X114998333Y-69873809D01*
X114950714Y-70064285D01*
X114903095Y-70159523D01*
X114807857Y-70254761D01*
X114665000Y-70302380D01*
X114426904Y-70302380D01*
D13*
X112093809Y-67560000D02*
X112570000Y-67560000D01*
X111998571Y-67988571D02*
X112331904Y-66488571D01*
X112665238Y-67988571D01*
X112998571Y-66988571D02*
X112998571Y-67988571D01*
X112998571Y-67131428D02*
X113046190Y-67060000D01*
X113141428Y-66988571D01*
X113284285Y-66988571D01*
X113379523Y-67060000D01*
X113427142Y-67202857D01*
X113427142Y-67988571D01*
X114331904Y-67988571D02*
X114331904Y-67202857D01*
X114284285Y-67060000D01*
X114189047Y-66988571D01*
X113998571Y-66988571D01*
X113903333Y-67060000D01*
X114331904Y-67917142D02*
X114236666Y-67988571D01*
X113998571Y-67988571D01*
X113903333Y-67917142D01*
X113855714Y-67774285D01*
X113855714Y-67631428D01*
X113903333Y-67488571D01*
X113998571Y-67417142D01*
X114236666Y-67417142D01*
X114331904Y-67345714D01*
X114950952Y-67988571D02*
X114855714Y-67917142D01*
X114808095Y-67774285D01*
X114808095Y-66488571D01*
X115474761Y-67988571D02*
X115379523Y-67917142D01*
X115331904Y-67845714D01*
X115284285Y-67702857D01*
X115284285Y-67274285D01*
X115331904Y-67131428D01*
X115379523Y-67060000D01*
X115474761Y-66988571D01*
X115617619Y-66988571D01*
X115712857Y-67060000D01*
X115760476Y-67131428D01*
X115808095Y-67274285D01*
X115808095Y-67702857D01*
X115760476Y-67845714D01*
X115712857Y-67917142D01*
X115617619Y-67988571D01*
X115474761Y-67988571D01*
X116665238Y-66988571D02*
X116665238Y-68202857D01*
X116617619Y-68345714D01*
X116570000Y-68417142D01*
X116474761Y-68488571D01*
X116331904Y-68488571D01*
X116236666Y-68417142D01*
X116665238Y-67917142D02*
X116570000Y-67988571D01*
X116379523Y-67988571D01*
X116284285Y-67917142D01*
X116236666Y-67845714D01*
X116189047Y-67702857D01*
X116189047Y-67274285D01*
X116236666Y-67131428D01*
X116284285Y-67060000D01*
X116379523Y-66988571D01*
X116570000Y-66988571D01*
X116665238Y-67060000D01*
X117141428Y-67988571D02*
X117141428Y-66488571D01*
X117617619Y-66988571D02*
X117617619Y-67988571D01*
X117617619Y-67131428D02*
X117665238Y-67060000D01*
X117760476Y-66988571D01*
X117903333Y-66988571D01*
X117998571Y-67060000D01*
X118046190Y-67202857D01*
X118046190Y-67988571D01*
X119046190Y-67988571D02*
X118474761Y-67988571D01*
X118760476Y-67988571D02*
X118760476Y-66488571D01*
X118665238Y-66702857D01*
X118570000Y-66845714D01*
X118474761Y-66917142D01*
D10*
X89408095Y-61095000D02*
X89312857Y-61047380D01*
X89170000Y-61047380D01*
X89027142Y-61095000D01*
X88931904Y-61190238D01*
X88884285Y-61285476D01*
X88836666Y-61475952D01*
X88836666Y-61618809D01*
X88884285Y-61809285D01*
X88931904Y-61904523D01*
X89027142Y-61999761D01*
X89170000Y-62047380D01*
X89265238Y-62047380D01*
X89408095Y-61999761D01*
X89455714Y-61952142D01*
X89455714Y-61618809D01*
X89265238Y-61618809D01*
X89884285Y-62047380D02*
X89884285Y-61047380D01*
X90455714Y-62047380D01*
X90455714Y-61047380D01*
X90931904Y-62047380D02*
X90931904Y-61047380D01*
X91170000Y-61047380D01*
X91312857Y-61095000D01*
X91408095Y-61190238D01*
X91455714Y-61285476D01*
X91503333Y-61475952D01*
X91503333Y-61618809D01*
X91455714Y-61809285D01*
X91408095Y-61904523D01*
X91312857Y-61999761D01*
X91170000Y-62047380D01*
X90931904Y-62047380D01*
D13*
X85963333Y-69258571D02*
X85963333Y-67758571D01*
X86201428Y-67758571D01*
X86344285Y-67830000D01*
X86439523Y-67972857D01*
X86487142Y-68115714D01*
X86534761Y-68401428D01*
X86534761Y-68615714D01*
X86487142Y-68901428D01*
X86439523Y-69044285D01*
X86344285Y-69187142D01*
X86201428Y-69258571D01*
X85963333Y-69258571D01*
X86915714Y-68830000D02*
X87391904Y-68830000D01*
X86820476Y-69258571D02*
X87153809Y-67758571D01*
X87487142Y-69258571D01*
X88391904Y-69115714D02*
X88344285Y-69187142D01*
X88201428Y-69258571D01*
X88106190Y-69258571D01*
X87963333Y-69187142D01*
X87868095Y-69044285D01*
X87820476Y-68901428D01*
X87772857Y-68615714D01*
X87772857Y-68401428D01*
X87820476Y-68115714D01*
X87868095Y-67972857D01*
X87963333Y-67830000D01*
X88106190Y-67758571D01*
X88201428Y-67758571D01*
X88344285Y-67830000D01*
X88391904Y-67901428D01*
X89344285Y-69258571D02*
X88772857Y-69258571D01*
X89058571Y-69258571D02*
X89058571Y-67758571D01*
X88963333Y-67972857D01*
X88868095Y-68115714D01*
X88772857Y-68187142D01*
D10*
X117983095Y-107450000D02*
X117887857Y-107402380D01*
X117745000Y-107402380D01*
X117602142Y-107450000D01*
X117506904Y-107545238D01*
X117459285Y-107640476D01*
X117411666Y-107830952D01*
X117411666Y-107973809D01*
X117459285Y-108164285D01*
X117506904Y-108259523D01*
X117602142Y-108354761D01*
X117745000Y-108402380D01*
X117840238Y-108402380D01*
X117983095Y-108354761D01*
X118030714Y-108307142D01*
X118030714Y-107973809D01*
X117840238Y-107973809D01*
X118459285Y-108402380D02*
X118459285Y-107402380D01*
X119030714Y-108402380D01*
X119030714Y-107402380D01*
X119506904Y-108402380D02*
X119506904Y-107402380D01*
X119745000Y-107402380D01*
X119887857Y-107450000D01*
X119983095Y-107545238D01*
X120030714Y-107640476D01*
X120078333Y-107830952D01*
X120078333Y-107973809D01*
X120030714Y-108164285D01*
X119983095Y-108259523D01*
X119887857Y-108354761D01*
X119745000Y-108402380D01*
X119506904Y-108402380D01*
D14*
X111700714Y-106088571D02*
X111700714Y-104588571D01*
X112057857Y-104588571D01*
X112272142Y-104660000D01*
X112415000Y-104802857D01*
X112486428Y-104945714D01*
X112557857Y-105231428D01*
X112557857Y-105445714D01*
X112486428Y-105731428D01*
X112415000Y-105874285D01*
X112272142Y-106017142D01*
X112057857Y-106088571D01*
X111700714Y-106088571D01*
X113200714Y-106088571D02*
X113200714Y-104588571D01*
X113700714Y-105660000D01*
X114200714Y-104588571D01*
X114200714Y-106088571D01*
X114772142Y-104588571D02*
X115772142Y-106088571D01*
X115772142Y-104588571D02*
X114772142Y-106088571D01*
D10*
X95044047Y-120372142D02*
X94996428Y-120419761D01*
X94853571Y-120467380D01*
X94758333Y-120467380D01*
X94615476Y-120419761D01*
X94520238Y-120324523D01*
X94472619Y-120229285D01*
X94425000Y-120038809D01*
X94425000Y-119895952D01*
X94472619Y-119705476D01*
X94520238Y-119610238D01*
X94615476Y-119515000D01*
X94758333Y-119467380D01*
X94853571Y-119467380D01*
X94996428Y-119515000D01*
X95044047Y-119562619D01*
X95472619Y-120467380D02*
X95472619Y-119467380D01*
X95472619Y-119943571D02*
X96044047Y-119943571D01*
X96044047Y-120467380D02*
X96044047Y-119467380D01*
X96710714Y-119467380D02*
X96901190Y-119467380D01*
X96996428Y-119515000D01*
X97091666Y-119610238D01*
X97139285Y-119800714D01*
X97139285Y-120134047D01*
X97091666Y-120324523D01*
X96996428Y-120419761D01*
X96901190Y-120467380D01*
X96710714Y-120467380D01*
X96615476Y-120419761D01*
X96520238Y-120324523D01*
X96472619Y-120134047D01*
X96472619Y-119800714D01*
X96520238Y-119610238D01*
X96615476Y-119515000D01*
X96710714Y-119467380D01*
X97567857Y-120467380D02*
X97567857Y-119467380D01*
X97948809Y-119467380D02*
X98615476Y-120467380D01*
X98615476Y-119467380D02*
X97948809Y-120467380D01*
X98758333Y-120562619D02*
X99520238Y-120562619D01*
X99758333Y-120467380D02*
X99758333Y-119467380D01*
X99996428Y-119467380D01*
X100139285Y-119515000D01*
X100234523Y-119610238D01*
X100282142Y-119705476D01*
X100329761Y-119895952D01*
X100329761Y-120038809D01*
X100282142Y-120229285D01*
X100234523Y-120324523D01*
X100139285Y-120419761D01*
X99996428Y-120467380D01*
X99758333Y-120467380D01*
X100758333Y-120467380D02*
X100758333Y-119467380D01*
X101091666Y-120181666D01*
X101425000Y-119467380D01*
X101425000Y-120467380D01*
X101805952Y-119467380D02*
X102472619Y-120467380D01*
X102472619Y-119467380D02*
X101805952Y-120467380D01*
X68715000Y-140461904D02*
X68667380Y-140557142D01*
X68667380Y-140700000D01*
X68715000Y-140842857D01*
X68810238Y-140938095D01*
X68905476Y-140985714D01*
X69095952Y-141033333D01*
X69238809Y-141033333D01*
X69429285Y-140985714D01*
X69524523Y-140938095D01*
X69619761Y-140842857D01*
X69667380Y-140700000D01*
X69667380Y-140604761D01*
X69619761Y-140461904D01*
X69572142Y-140414285D01*
X69238809Y-140414285D01*
X69238809Y-140604761D01*
X69667380Y-139985714D02*
X68667380Y-139985714D01*
X69667380Y-139414285D01*
X68667380Y-139414285D01*
X69667380Y-138938095D02*
X68667380Y-138938095D01*
X68667380Y-138700000D01*
X68715000Y-138557142D01*
X68810238Y-138461904D01*
X68905476Y-138414285D01*
X69095952Y-138366666D01*
X69238809Y-138366666D01*
X69429285Y-138414285D01*
X69524523Y-138461904D01*
X69619761Y-138557142D01*
X69667380Y-138700000D01*
X69667380Y-138938095D01*
X66127380Y-139255476D02*
X66127380Y-139731666D01*
X66603571Y-139779285D01*
X66555952Y-139731666D01*
X66508333Y-139636428D01*
X66508333Y-139398333D01*
X66555952Y-139303095D01*
X66603571Y-139255476D01*
X66698809Y-139207857D01*
X66936904Y-139207857D01*
X67032142Y-139255476D01*
X67079761Y-139303095D01*
X67127380Y-139398333D01*
X67127380Y-139636428D01*
X67079761Y-139731666D01*
X67032142Y-139779285D01*
X66127380Y-138922142D02*
X67127380Y-138588809D01*
X66127380Y-138255476D01*
X64587380Y-141271428D02*
X63587380Y-141271428D01*
X64301666Y-140938095D01*
X63587380Y-140604761D01*
X64587380Y-140604761D01*
X64587380Y-140128571D02*
X63587380Y-140128571D01*
X64539761Y-139700000D02*
X64587380Y-139557142D01*
X64587380Y-139319047D01*
X64539761Y-139223809D01*
X64492142Y-139176190D01*
X64396904Y-139128571D01*
X64301666Y-139128571D01*
X64206428Y-139176190D01*
X64158809Y-139223809D01*
X64111190Y-139319047D01*
X64063571Y-139509523D01*
X64015952Y-139604761D01*
X63968333Y-139652380D01*
X63873095Y-139700000D01*
X63777857Y-139700000D01*
X63682619Y-139652380D01*
X63635000Y-139604761D01*
X63587380Y-139509523D01*
X63587380Y-139271428D01*
X63635000Y-139128571D01*
X63587380Y-138509523D02*
X63587380Y-138319047D01*
X63635000Y-138223809D01*
X63730238Y-138128571D01*
X63920714Y-138080952D01*
X64254047Y-138080952D01*
X64444523Y-138128571D01*
X64539761Y-138223809D01*
X64587380Y-138319047D01*
X64587380Y-138509523D01*
X64539761Y-138604761D01*
X64444523Y-138700000D01*
X64254047Y-138747619D01*
X63920714Y-138747619D01*
X63730238Y-138700000D01*
X63635000Y-138604761D01*
X63587380Y-138509523D01*
X62047380Y-141271428D02*
X61047380Y-141271428D01*
X61761666Y-140938095D01*
X61047380Y-140604761D01*
X62047380Y-140604761D01*
X61047380Y-139938095D02*
X61047380Y-139747619D01*
X61095000Y-139652380D01*
X61190238Y-139557142D01*
X61380714Y-139509523D01*
X61714047Y-139509523D01*
X61904523Y-139557142D01*
X61999761Y-139652380D01*
X62047380Y-139747619D01*
X62047380Y-139938095D01*
X61999761Y-140033333D01*
X61904523Y-140128571D01*
X61714047Y-140176190D01*
X61380714Y-140176190D01*
X61190238Y-140128571D01*
X61095000Y-140033333D01*
X61047380Y-139938095D01*
X61999761Y-139128571D02*
X62047380Y-138985714D01*
X62047380Y-138747619D01*
X61999761Y-138652380D01*
X61952142Y-138604761D01*
X61856904Y-138557142D01*
X61761666Y-138557142D01*
X61666428Y-138604761D01*
X61618809Y-138652380D01*
X61571190Y-138747619D01*
X61523571Y-138938095D01*
X61475952Y-139033333D01*
X61428333Y-139080952D01*
X61333095Y-139128571D01*
X61237857Y-139128571D01*
X61142619Y-139080952D01*
X61095000Y-139033333D01*
X61047380Y-138938095D01*
X61047380Y-138700000D01*
X61095000Y-138557142D01*
X62047380Y-138128571D02*
X61047380Y-138128571D01*
X59459761Y-140985714D02*
X59507380Y-140842857D01*
X59507380Y-140604761D01*
X59459761Y-140509523D01*
X59412142Y-140461904D01*
X59316904Y-140414285D01*
X59221666Y-140414285D01*
X59126428Y-140461904D01*
X59078809Y-140509523D01*
X59031190Y-140604761D01*
X58983571Y-140795238D01*
X58935952Y-140890476D01*
X58888333Y-140938095D01*
X58793095Y-140985714D01*
X58697857Y-140985714D01*
X58602619Y-140938095D01*
X58555000Y-140890476D01*
X58507380Y-140795238D01*
X58507380Y-140557142D01*
X58555000Y-140414285D01*
X59412142Y-139414285D02*
X59459761Y-139461904D01*
X59507380Y-139604761D01*
X59507380Y-139700000D01*
X59459761Y-139842857D01*
X59364523Y-139938095D01*
X59269285Y-139985714D01*
X59078809Y-140033333D01*
X58935952Y-140033333D01*
X58745476Y-139985714D01*
X58650238Y-139938095D01*
X58555000Y-139842857D01*
X58507380Y-139700000D01*
X58507380Y-139604761D01*
X58555000Y-139461904D01*
X58602619Y-139414285D01*
X59507380Y-138985714D02*
X58507380Y-138985714D01*
X59507380Y-138414285D02*
X58935952Y-138842857D01*
X58507380Y-138414285D02*
X59078809Y-138985714D01*
X56872142Y-139231666D02*
X56919761Y-139279285D01*
X56967380Y-139422142D01*
X56967380Y-139517380D01*
X56919761Y-139660238D01*
X56824523Y-139755476D01*
X56729285Y-139803095D01*
X56538809Y-139850714D01*
X56395952Y-139850714D01*
X56205476Y-139803095D01*
X56110238Y-139755476D01*
X56015000Y-139660238D01*
X55967380Y-139517380D01*
X55967380Y-139422142D01*
X56015000Y-139279285D01*
X56062619Y-139231666D01*
X56919761Y-138850714D02*
X56967380Y-138707857D01*
X56967380Y-138469761D01*
X56919761Y-138374523D01*
X56872142Y-138326904D01*
X56776904Y-138279285D01*
X56681666Y-138279285D01*
X56586428Y-138326904D01*
X56538809Y-138374523D01*
X56491190Y-138469761D01*
X56443571Y-138660238D01*
X56395952Y-138755476D01*
X56348333Y-138803095D01*
X56253095Y-138850714D01*
X56157857Y-138850714D01*
X56062619Y-138803095D01*
X56015000Y-138755476D01*
X55967380Y-138660238D01*
X55967380Y-138422142D01*
X56015000Y-138279285D01*
D13*
X55047142Y-133322142D02*
X55261428Y-133393571D01*
X55618571Y-133393571D01*
X55761428Y-133322142D01*
X55832857Y-133250714D01*
X55904285Y-133107857D01*
X55904285Y-132965000D01*
X55832857Y-132822142D01*
X55761428Y-132750714D01*
X55618571Y-132679285D01*
X55332857Y-132607857D01*
X55190000Y-132536428D01*
X55118571Y-132465000D01*
X55047142Y-132322142D01*
X55047142Y-132179285D01*
X55118571Y-132036428D01*
X55190000Y-131965000D01*
X55332857Y-131893571D01*
X55690000Y-131893571D01*
X55904285Y-131965000D01*
X56547142Y-133393571D02*
X56547142Y-131893571D01*
X56904285Y-131893571D01*
X57118571Y-131965000D01*
X57261428Y-132107857D01*
X57332857Y-132250714D01*
X57404285Y-132536428D01*
X57404285Y-132750714D01*
X57332857Y-133036428D01*
X57261428Y-133179285D01*
X57118571Y-133322142D01*
X56904285Y-133393571D01*
X56547142Y-133393571D01*
X57690000Y-133536428D02*
X58832857Y-133536428D01*
X60047142Y-133250714D02*
X59975714Y-133322142D01*
X59761428Y-133393571D01*
X59618571Y-133393571D01*
X59404285Y-133322142D01*
X59261428Y-133179285D01*
X59190000Y-133036428D01*
X59118571Y-132750714D01*
X59118571Y-132536428D01*
X59190000Y-132250714D01*
X59261428Y-132107857D01*
X59404285Y-131965000D01*
X59618571Y-131893571D01*
X59761428Y-131893571D01*
X59975714Y-131965000D01*
X60047142Y-132036428D01*
X60618571Y-132965000D02*
X61332857Y-132965000D01*
X60475714Y-133393571D02*
X60975714Y-131893571D01*
X61475714Y-133393571D01*
X62832857Y-133393571D02*
X62332857Y-132679285D01*
X61975714Y-133393571D02*
X61975714Y-131893571D01*
X62547142Y-131893571D01*
X62690000Y-131965000D01*
X62761428Y-132036428D01*
X62832857Y-132179285D01*
X62832857Y-132393571D01*
X62761428Y-132536428D01*
X62690000Y-132607857D01*
X62547142Y-132679285D01*
X61975714Y-132679285D01*
X63475714Y-133393571D02*
X63475714Y-131893571D01*
X63832857Y-131893571D01*
X64047142Y-131965000D01*
X64190000Y-132107857D01*
X64261428Y-132250714D01*
X64332857Y-132536428D01*
X64332857Y-132750714D01*
X64261428Y-133036428D01*
X64190000Y-133179285D01*
X64047142Y-133322142D01*
X63832857Y-133393571D01*
X63475714Y-133393571D01*
D10*
X48331428Y-132008571D02*
X48474285Y-132056190D01*
X48521904Y-132103809D01*
X48569523Y-132199047D01*
X48569523Y-132341904D01*
X48521904Y-132437142D01*
X48474285Y-132484761D01*
X48379047Y-132532380D01*
X47998095Y-132532380D01*
X47998095Y-131532380D01*
X48331428Y-131532380D01*
X48426666Y-131580000D01*
X48474285Y-131627619D01*
X48521904Y-131722857D01*
X48521904Y-131818095D01*
X48474285Y-131913333D01*
X48426666Y-131960952D01*
X48331428Y-132008571D01*
X47998095Y-132008571D01*
X48521904Y-123325000D02*
X48426666Y-123277380D01*
X48283809Y-123277380D01*
X48140952Y-123325000D01*
X48045714Y-123420238D01*
X47998095Y-123515476D01*
X47950476Y-123705952D01*
X47950476Y-123848809D01*
X47998095Y-124039285D01*
X48045714Y-124134523D01*
X48140952Y-124229761D01*
X48283809Y-124277380D01*
X48379047Y-124277380D01*
X48521904Y-124229761D01*
X48569523Y-124182142D01*
X48569523Y-123848809D01*
X48379047Y-123848809D01*
X48569523Y-116022380D02*
X48236190Y-115546190D01*
X47998095Y-116022380D02*
X47998095Y-115022380D01*
X48379047Y-115022380D01*
X48474285Y-115070000D01*
X48521904Y-115117619D01*
X48569523Y-115212857D01*
X48569523Y-115355714D01*
X48521904Y-115450952D01*
X48474285Y-115498571D01*
X48379047Y-115546190D01*
X47998095Y-115546190D01*
X40640238Y-102687380D02*
X40640238Y-101687380D01*
X41021190Y-101687380D01*
X41116428Y-101735000D01*
X41164047Y-101782619D01*
X41211666Y-101877857D01*
X41211666Y-102020714D01*
X41164047Y-102115952D01*
X41116428Y-102163571D01*
X41021190Y-102211190D01*
X40640238Y-102211190D01*
X41640238Y-102687380D02*
X41640238Y-101687380D01*
X41973571Y-101687380D02*
X42545000Y-101687380D01*
X42259285Y-102687380D02*
X42259285Y-101687380D01*
X43449761Y-102592142D02*
X43402142Y-102639761D01*
X43259285Y-102687380D01*
X43164047Y-102687380D01*
X43021190Y-102639761D01*
X42925952Y-102544523D01*
X42878333Y-102449285D01*
X42830714Y-102258809D01*
X42830714Y-102115952D01*
X42878333Y-101925476D01*
X42925952Y-101830238D01*
X43021190Y-101735000D01*
X43164047Y-101687380D01*
X43259285Y-101687380D01*
X43402142Y-101735000D01*
X43449761Y-101782619D01*
X43878333Y-102687380D02*
X43878333Y-101687380D01*
X43878333Y-102163571D02*
X44449761Y-102163571D01*
X44449761Y-102687380D02*
X44449761Y-101687380D01*
X38608095Y-96655000D02*
X38512857Y-96607380D01*
X38370000Y-96607380D01*
X38227142Y-96655000D01*
X38131904Y-96750238D01*
X38084285Y-96845476D01*
X38036666Y-97035952D01*
X38036666Y-97178809D01*
X38084285Y-97369285D01*
X38131904Y-97464523D01*
X38227142Y-97559761D01*
X38370000Y-97607380D01*
X38465238Y-97607380D01*
X38608095Y-97559761D01*
X38655714Y-97512142D01*
X38655714Y-97178809D01*
X38465238Y-97178809D01*
X39084285Y-97607380D02*
X39084285Y-96607380D01*
X39655714Y-97607380D01*
X39655714Y-96607380D01*
X40131904Y-97607380D02*
X40131904Y-96607380D01*
X40370000Y-96607380D01*
X40512857Y-96655000D01*
X40608095Y-96750238D01*
X40655714Y-96845476D01*
X40703333Y-97035952D01*
X40703333Y-97178809D01*
X40655714Y-97369285D01*
X40608095Y-97464523D01*
X40512857Y-97559761D01*
X40370000Y-97607380D01*
X40131904Y-97607380D01*
X13890952Y-96337380D02*
X13890952Y-95337380D01*
X14129047Y-95337380D01*
X14271904Y-95385000D01*
X14367142Y-95480238D01*
X14414761Y-95575476D01*
X14462380Y-95765952D01*
X14462380Y-95908809D01*
X14414761Y-96099285D01*
X14367142Y-96194523D01*
X14271904Y-96289761D01*
X14129047Y-96337380D01*
X13890952Y-96337380D01*
X14890952Y-96337380D02*
X14890952Y-95337380D01*
X15890952Y-95385000D02*
X15795714Y-95337380D01*
X15652857Y-95337380D01*
X15509999Y-95385000D01*
X15414761Y-95480238D01*
X15367142Y-95575476D01*
X15319523Y-95765952D01*
X15319523Y-95908809D01*
X15367142Y-96099285D01*
X15414761Y-96194523D01*
X15509999Y-96289761D01*
X15652857Y-96337380D01*
X15748095Y-96337380D01*
X15890952Y-96289761D01*
X15938571Y-96242142D01*
X15938571Y-95908809D01*
X15748095Y-95908809D01*
X16129047Y-96432619D02*
X16890952Y-96432619D01*
X17129047Y-96337380D02*
X17129047Y-95337380D01*
X17605238Y-96337380D02*
X17605238Y-95337380D01*
X18176666Y-96337380D01*
X18176666Y-95337380D01*
X18605238Y-95432619D02*
X18652857Y-95385000D01*
X18748095Y-95337380D01*
X18986190Y-95337380D01*
X19081428Y-95385000D01*
X19129047Y-95432619D01*
X19176666Y-95527857D01*
X19176666Y-95623095D01*
X19129047Y-95765952D01*
X18557619Y-96337380D01*
X19176666Y-96337380D01*
X13890952Y-103957380D02*
X13890952Y-102957380D01*
X14129047Y-102957380D01*
X14271904Y-103005000D01*
X14367142Y-103100238D01*
X14414761Y-103195476D01*
X14462380Y-103385952D01*
X14462380Y-103528809D01*
X14414761Y-103719285D01*
X14367142Y-103814523D01*
X14271904Y-103909761D01*
X14129047Y-103957380D01*
X13890952Y-103957380D01*
X14890952Y-103957380D02*
X14890952Y-102957380D01*
X15890952Y-103005000D02*
X15795714Y-102957380D01*
X15652857Y-102957380D01*
X15509999Y-103005000D01*
X15414761Y-103100238D01*
X15367142Y-103195476D01*
X15319523Y-103385952D01*
X15319523Y-103528809D01*
X15367142Y-103719285D01*
X15414761Y-103814523D01*
X15509999Y-103909761D01*
X15652857Y-103957380D01*
X15748095Y-103957380D01*
X15890952Y-103909761D01*
X15938571Y-103862142D01*
X15938571Y-103528809D01*
X15748095Y-103528809D01*
X16129047Y-104052619D02*
X16890952Y-104052619D01*
X17129047Y-103957380D02*
X17129047Y-102957380D01*
X17605238Y-103957380D02*
X17605238Y-102957380D01*
X18176666Y-103957380D01*
X18176666Y-102957380D01*
X18557619Y-102957380D02*
X19176666Y-102957380D01*
X18843333Y-103338333D01*
X18986190Y-103338333D01*
X19081428Y-103385952D01*
X19129047Y-103433571D01*
X19176666Y-103528809D01*
X19176666Y-103766904D01*
X19129047Y-103862142D01*
X19081428Y-103909761D01*
X18986190Y-103957380D01*
X18700476Y-103957380D01*
X18605238Y-103909761D01*
X18557619Y-103862142D01*
X13890952Y-111577380D02*
X13890952Y-110577380D01*
X14129047Y-110577380D01*
X14271904Y-110625000D01*
X14367142Y-110720238D01*
X14414761Y-110815476D01*
X14462380Y-111005952D01*
X14462380Y-111148809D01*
X14414761Y-111339285D01*
X14367142Y-111434523D01*
X14271904Y-111529761D01*
X14129047Y-111577380D01*
X13890952Y-111577380D01*
X14890952Y-111577380D02*
X14890952Y-110577380D01*
X15890952Y-110625000D02*
X15795714Y-110577380D01*
X15652857Y-110577380D01*
X15509999Y-110625000D01*
X15414761Y-110720238D01*
X15367142Y-110815476D01*
X15319523Y-111005952D01*
X15319523Y-111148809D01*
X15367142Y-111339285D01*
X15414761Y-111434523D01*
X15509999Y-111529761D01*
X15652857Y-111577380D01*
X15748095Y-111577380D01*
X15890952Y-111529761D01*
X15938571Y-111482142D01*
X15938571Y-111148809D01*
X15748095Y-111148809D01*
X16129047Y-111672619D02*
X16890952Y-111672619D01*
X17129047Y-111577380D02*
X17129047Y-110577380D01*
X17605238Y-111577380D02*
X17605238Y-110577380D01*
X18176666Y-111577380D01*
X18176666Y-110577380D01*
X19081428Y-110910714D02*
X19081428Y-111577380D01*
X18843333Y-110529761D02*
X18605238Y-111244047D01*
X19224285Y-111244047D01*
X27122380Y-114823809D02*
X26122380Y-114823809D01*
X27122380Y-114347619D02*
X26122380Y-114347619D01*
X27122380Y-113776190D01*
X26122380Y-113776190D01*
X23630000Y-115696904D02*
X23582380Y-115792142D01*
X23582380Y-115935000D01*
X23630000Y-116077857D01*
X23725238Y-116173095D01*
X23820476Y-116220714D01*
X24010952Y-116268333D01*
X24153809Y-116268333D01*
X24344285Y-116220714D01*
X24439523Y-116173095D01*
X24534761Y-116077857D01*
X24582380Y-115935000D01*
X24582380Y-115839761D01*
X24534761Y-115696904D01*
X24487142Y-115649285D01*
X24153809Y-115649285D01*
X24153809Y-115839761D01*
X24582380Y-115220714D02*
X23582380Y-115220714D01*
X24582380Y-114649285D01*
X23582380Y-114649285D01*
X24582380Y-114173095D02*
X23582380Y-114173095D01*
X23582380Y-113935000D01*
X23630000Y-113792142D01*
X23725238Y-113696904D01*
X23820476Y-113649285D01*
X24010952Y-113601666D01*
X24153809Y-113601666D01*
X24344285Y-113649285D01*
X24439523Y-113696904D01*
X24534761Y-113792142D01*
X24582380Y-113935000D01*
X24582380Y-114173095D01*
X21042380Y-116411190D02*
X21042380Y-115792142D01*
X21423333Y-116125476D01*
X21423333Y-115982619D01*
X21470952Y-115887380D01*
X21518571Y-115839761D01*
X21613809Y-115792142D01*
X21851904Y-115792142D01*
X21947142Y-115839761D01*
X21994761Y-115887380D01*
X22042380Y-115982619D01*
X22042380Y-116268333D01*
X21994761Y-116363571D01*
X21947142Y-116411190D01*
X21947142Y-115363571D02*
X21994761Y-115315952D01*
X22042380Y-115363571D01*
X21994761Y-115411190D01*
X21947142Y-115363571D01*
X22042380Y-115363571D01*
X21042380Y-114982619D02*
X21042380Y-114363571D01*
X21423333Y-114696904D01*
X21423333Y-114554047D01*
X21470952Y-114458809D01*
X21518571Y-114411190D01*
X21613809Y-114363571D01*
X21851904Y-114363571D01*
X21947142Y-114411190D01*
X21994761Y-114458809D01*
X22042380Y-114554047D01*
X22042380Y-114839761D01*
X21994761Y-114935000D01*
X21947142Y-114982619D01*
X21042380Y-114077857D02*
X22042380Y-113744523D01*
X21042380Y-113411190D01*
X13890952Y-88717380D02*
X13890952Y-87717380D01*
X14129047Y-87717380D01*
X14271904Y-87765000D01*
X14367142Y-87860238D01*
X14414761Y-87955476D01*
X14462380Y-88145952D01*
X14462380Y-88288809D01*
X14414761Y-88479285D01*
X14367142Y-88574523D01*
X14271904Y-88669761D01*
X14129047Y-88717380D01*
X13890952Y-88717380D01*
X14890952Y-88717380D02*
X14890952Y-87717380D01*
X15890952Y-87765000D02*
X15795714Y-87717380D01*
X15652857Y-87717380D01*
X15509999Y-87765000D01*
X15414761Y-87860238D01*
X15367142Y-87955476D01*
X15319523Y-88145952D01*
X15319523Y-88288809D01*
X15367142Y-88479285D01*
X15414761Y-88574523D01*
X15509999Y-88669761D01*
X15652857Y-88717380D01*
X15748095Y-88717380D01*
X15890952Y-88669761D01*
X15938571Y-88622142D01*
X15938571Y-88288809D01*
X15748095Y-88288809D01*
X16129047Y-88812619D02*
X16890952Y-88812619D01*
X17129047Y-88717380D02*
X17129047Y-87717380D01*
X17605238Y-88717380D02*
X17605238Y-87717380D01*
X18176666Y-88717380D01*
X18176666Y-87717380D01*
X19176666Y-88717380D02*
X18605238Y-88717380D01*
X18890952Y-88717380D02*
X18890952Y-87717380D01*
X18795714Y-87860238D01*
X18700476Y-87955476D01*
X18605238Y-88003095D01*
D13*
X14097142Y-67830000D02*
X13954285Y-67758571D01*
X13740000Y-67758571D01*
X13525714Y-67830000D01*
X13382857Y-67972857D01*
X13311428Y-68115714D01*
X13240000Y-68401428D01*
X13240000Y-68615714D01*
X13311428Y-68901428D01*
X13382857Y-69044285D01*
X13525714Y-69187142D01*
X13740000Y-69258571D01*
X13882857Y-69258571D01*
X14097142Y-69187142D01*
X14168571Y-69115714D01*
X14168571Y-68615714D01*
X13882857Y-68615714D01*
X14811428Y-69258571D02*
X14811428Y-67758571D01*
X15668571Y-69258571D01*
X15668571Y-67758571D01*
X16382857Y-69258571D02*
X16382857Y-67758571D01*
X16740000Y-67758571D01*
X16954285Y-67830000D01*
X17097142Y-67972857D01*
X17168571Y-68115714D01*
X17240000Y-68401428D01*
X17240000Y-68615714D01*
X17168571Y-68901428D01*
X17097142Y-69044285D01*
X16954285Y-69187142D01*
X16740000Y-69258571D01*
X16382857Y-69258571D01*
X14311428Y-73703571D02*
X13454285Y-73703571D01*
X13882857Y-73703571D02*
X13882857Y-72203571D01*
X13740000Y-72417857D01*
X13597142Y-72560714D01*
X13454285Y-72632142D01*
X14882857Y-72346428D02*
X14954285Y-72275000D01*
X15097142Y-72203571D01*
X15454285Y-72203571D01*
X15597142Y-72275000D01*
X15668571Y-72346428D01*
X15740000Y-72489285D01*
X15740000Y-72632142D01*
X15668571Y-72846428D01*
X14811428Y-73703571D01*
X15740000Y-73703571D01*
X16168571Y-72203571D02*
X16668571Y-73703571D01*
X17168571Y-72203571D01*
D15*
%TO.C,U10*%
X102175000Y-30845000D02*
X102175000Y-32095000D01*
X102175000Y-32095000D02*
X112455000Y-32095000D01*
X112455000Y-32095000D02*
X112455000Y-27595000D01*
X112455000Y-27595000D02*
X102175000Y-27595000D01*
X102175000Y-27595000D02*
X102175000Y-28845000D01*
X102115000Y-35095000D02*
X112515000Y-35095000D01*
X112515000Y-35095000D02*
X112515000Y-24595000D01*
X112515000Y-24595000D02*
X102115000Y-24595000D01*
X102115000Y-24595000D02*
X102115000Y-35095000D01*
X102175000Y-28845000D02*
G75*
G02*
X102175000Y-30845000I0J-1000000D01*
G01*
%TO.C,U7*%
X73625001Y-157025001D02*
X59405001Y-157025001D01*
X67005001Y-20975001D02*
X67005001Y-19465001D01*
X34005001Y-154575001D02*
X34005001Y-156085001D01*
X67005001Y-20975001D02*
X22415001Y-20975001D01*
X75225001Y-19465001D02*
X75225001Y-20975001D01*
X73625001Y-154575001D02*
X73625001Y-157025001D01*
X92215001Y-154175001D02*
X92215001Y-21375001D01*
X59405001Y-154575001D02*
X42225001Y-154565001D01*
X67005001Y-19465001D02*
X75225001Y-19465001D01*
X22015001Y-21375001D02*
X22015001Y-154175001D01*
X34005001Y-156085001D02*
X42225001Y-156085001D01*
X73625001Y-154575001D02*
X91815001Y-154575001D01*
X75225001Y-20975001D02*
X91815001Y-20975001D01*
X34005001Y-154575001D02*
X22415001Y-154575001D01*
X42225001Y-156085001D02*
X42225001Y-154565001D01*
X59405001Y-157025001D02*
X59405001Y-154575001D01*
D10*
X77055001Y-80750001D02*
G75*
G03*
X77055001Y-80750001I-100000J0D01*
G01*
X77055001Y-53826001D02*
G75*
G03*
X77055001Y-53826001I-100000J0D01*
G01*
X31335001Y-85830001D02*
G75*
G03*
X31335001Y-85830001I-100000J0D01*
G01*
X31335001Y-62970001D02*
G75*
G03*
X31335001Y-62970001I-100000J0D01*
G01*
X84675001Y-52835401D02*
G75*
G03*
X84675001Y-52835401I-100000J0D01*
G01*
D15*
X22415001Y-20975001D02*
G75*
G03*
X22015001Y-21375001I0J-400000D01*
G01*
X22015001Y-154175001D02*
G75*
G03*
X22415001Y-154575001I400000J0D01*
G01*
X91815001Y-154575001D02*
G75*
G03*
X92215001Y-154175001I0J400000D01*
G01*
X92215001Y-21375001D02*
G75*
G03*
X91815001Y-20975001I-400000J0D01*
G01*
%TO.C,R7*%
X106045000Y-90575000D02*
X106045000Y-91345000D01*
X106045000Y-98655000D02*
X106045000Y-97885000D01*
X104675000Y-91345000D02*
X104675000Y-97885000D01*
X107415000Y-91345000D02*
X104675000Y-91345000D01*
X107415000Y-97885000D02*
X107415000Y-91345000D01*
X104675000Y-97885000D02*
X107415000Y-97885000D01*
%TO.C,R6*%
X57785000Y-38965000D02*
X57785000Y-38195000D01*
X57785000Y-30885000D02*
X57785000Y-31655000D01*
X59155000Y-38195000D02*
X59155000Y-31655000D01*
X56415000Y-38195000D02*
X59155000Y-38195000D01*
X56415000Y-31655000D02*
X56415000Y-38195000D01*
X59155000Y-31655000D02*
X56415000Y-31655000D01*
%TO.C,C3*%
X58015000Y-70520000D02*
X65255000Y-70520000D01*
X58015000Y-74260000D02*
X65255000Y-74260000D01*
X58015000Y-70520000D02*
X58015000Y-74260000D01*
X65255000Y-70520000D02*
X65255000Y-74260000D01*
%TO.C,C1*%
X51470000Y-59460000D02*
X51470000Y-52220000D01*
X55210000Y-59460000D02*
X55210000Y-52220000D01*
X51470000Y-59460000D02*
X55210000Y-59460000D01*
X51470000Y-52220000D02*
X55210000Y-52220000D01*
%TO.C,C4*%
X45780000Y-72390000D02*
G75*
G03*
X45780000Y-72390000I-2620000J0D01*
G01*
X43160000Y-69810000D02*
X43160000Y-74970000D01*
X43200000Y-69810000D02*
X43200000Y-74970000D01*
X43240000Y-69811000D02*
X43240000Y-74969000D01*
X43280000Y-69812000D02*
X43280000Y-74968000D01*
X43320000Y-69814000D02*
X43320000Y-74966000D01*
X43360000Y-69817000D02*
X43360000Y-74963000D01*
X43400000Y-69821000D02*
X43400000Y-71350000D01*
X43400000Y-73430000D02*
X43400000Y-74959000D01*
X43440000Y-69825000D02*
X43440000Y-71350000D01*
X43440000Y-73430000D02*
X43440000Y-74955000D01*
X43480000Y-69829000D02*
X43480000Y-71350000D01*
X43480000Y-73430000D02*
X43480000Y-74951000D01*
X43520000Y-69834000D02*
X43520000Y-71350000D01*
X43520000Y-73430000D02*
X43520000Y-74946000D01*
X43560000Y-69840000D02*
X43560000Y-71350000D01*
X43560000Y-73430000D02*
X43560000Y-74940000D01*
X43600000Y-69847000D02*
X43600000Y-71350000D01*
X43600000Y-73430000D02*
X43600000Y-74933000D01*
X43640000Y-69854000D02*
X43640000Y-71350000D01*
X43640000Y-73430000D02*
X43640000Y-74926000D01*
X43680000Y-69862000D02*
X43680000Y-71350000D01*
X43680000Y-73430000D02*
X43680000Y-74918000D01*
X43720000Y-69870000D02*
X43720000Y-71350000D01*
X43720000Y-73430000D02*
X43720000Y-74910000D01*
X43760000Y-69879000D02*
X43760000Y-71350000D01*
X43760000Y-73430000D02*
X43760000Y-74901000D01*
X43800000Y-69889000D02*
X43800000Y-71350000D01*
X43800000Y-73430000D02*
X43800000Y-74891000D01*
X43840000Y-69899000D02*
X43840000Y-71350000D01*
X43840000Y-73430000D02*
X43840000Y-74881000D01*
X43881000Y-69910000D02*
X43881000Y-71350000D01*
X43881000Y-73430000D02*
X43881000Y-74870000D01*
X43921000Y-69922000D02*
X43921000Y-71350000D01*
X43921000Y-73430000D02*
X43921000Y-74858000D01*
X43961000Y-69935000D02*
X43961000Y-71350000D01*
X43961000Y-73430000D02*
X43961000Y-74845000D01*
X44001000Y-69948000D02*
X44001000Y-71350000D01*
X44001000Y-73430000D02*
X44001000Y-74832000D01*
X44041000Y-69962000D02*
X44041000Y-71350000D01*
X44041000Y-73430000D02*
X44041000Y-74818000D01*
X44081000Y-69976000D02*
X44081000Y-71350000D01*
X44081000Y-73430000D02*
X44081000Y-74804000D01*
X44121000Y-69992000D02*
X44121000Y-71350000D01*
X44121000Y-73430000D02*
X44121000Y-74788000D01*
X44161000Y-70008000D02*
X44161000Y-71350000D01*
X44161000Y-73430000D02*
X44161000Y-74772000D01*
X44201000Y-70025000D02*
X44201000Y-71350000D01*
X44201000Y-73430000D02*
X44201000Y-74755000D01*
X44241000Y-70042000D02*
X44241000Y-71350000D01*
X44241000Y-73430000D02*
X44241000Y-74738000D01*
X44281000Y-70061000D02*
X44281000Y-71350000D01*
X44281000Y-73430000D02*
X44281000Y-74719000D01*
X44321000Y-70080000D02*
X44321000Y-71350000D01*
X44321000Y-73430000D02*
X44321000Y-74700000D01*
X44361000Y-70100000D02*
X44361000Y-71350000D01*
X44361000Y-73430000D02*
X44361000Y-74680000D01*
X44401000Y-70122000D02*
X44401000Y-71350000D01*
X44401000Y-73430000D02*
X44401000Y-74658000D01*
X44441000Y-70143000D02*
X44441000Y-71350000D01*
X44441000Y-73430000D02*
X44441000Y-74637000D01*
X44481000Y-70166000D02*
X44481000Y-71350000D01*
X44481000Y-73430000D02*
X44481000Y-74614000D01*
X44521000Y-70190000D02*
X44521000Y-71350000D01*
X44521000Y-73430000D02*
X44521000Y-74590000D01*
X44561000Y-70215000D02*
X44561000Y-71350000D01*
X44561000Y-73430000D02*
X44561000Y-74565000D01*
X44601000Y-70241000D02*
X44601000Y-71350000D01*
X44601000Y-73430000D02*
X44601000Y-74539000D01*
X44641000Y-70268000D02*
X44641000Y-71350000D01*
X44641000Y-73430000D02*
X44641000Y-74512000D01*
X44681000Y-70295000D02*
X44681000Y-71350000D01*
X44681000Y-73430000D02*
X44681000Y-74485000D01*
X44721000Y-70325000D02*
X44721000Y-71350000D01*
X44721000Y-73430000D02*
X44721000Y-74455000D01*
X44761000Y-70355000D02*
X44761000Y-71350000D01*
X44761000Y-73430000D02*
X44761000Y-74425000D01*
X44801000Y-70386000D02*
X44801000Y-71350000D01*
X44801000Y-73430000D02*
X44801000Y-74394000D01*
X44841000Y-70419000D02*
X44841000Y-71350000D01*
X44841000Y-73430000D02*
X44841000Y-74361000D01*
X44881000Y-70453000D02*
X44881000Y-71350000D01*
X44881000Y-73430000D02*
X44881000Y-74327000D01*
X44921000Y-70489000D02*
X44921000Y-71350000D01*
X44921000Y-73430000D02*
X44921000Y-74291000D01*
X44961000Y-70526000D02*
X44961000Y-71350000D01*
X44961000Y-73430000D02*
X44961000Y-74254000D01*
X45001000Y-70564000D02*
X45001000Y-71350000D01*
X45001000Y-73430000D02*
X45001000Y-74216000D01*
X45041000Y-70605000D02*
X45041000Y-71350000D01*
X45041000Y-73430000D02*
X45041000Y-74175000D01*
X45081000Y-70647000D02*
X45081000Y-71350000D01*
X45081000Y-73430000D02*
X45081000Y-74133000D01*
X45121000Y-70691000D02*
X45121000Y-71350000D01*
X45121000Y-73430000D02*
X45121000Y-74089000D01*
X45161000Y-70737000D02*
X45161000Y-71350000D01*
X45161000Y-73430000D02*
X45161000Y-74043000D01*
X45201000Y-70785000D02*
X45201000Y-71350000D01*
X45201000Y-73430000D02*
X45201000Y-73995000D01*
X45241000Y-70836000D02*
X45241000Y-71350000D01*
X45241000Y-73430000D02*
X45241000Y-73944000D01*
X45281000Y-70890000D02*
X45281000Y-71350000D01*
X45281000Y-73430000D02*
X45281000Y-73890000D01*
X45321000Y-70947000D02*
X45321000Y-71350000D01*
X45321000Y-73430000D02*
X45321000Y-73833000D01*
X45361000Y-71007000D02*
X45361000Y-71350000D01*
X45361000Y-73430000D02*
X45361000Y-73773000D01*
X45401000Y-71071000D02*
X45401000Y-71350000D01*
X45401000Y-73430000D02*
X45401000Y-73709000D01*
X45441000Y-71139000D02*
X45441000Y-71350000D01*
X45441000Y-73430000D02*
X45441000Y-73641000D01*
X45481000Y-71212000D02*
X45481000Y-73568000D01*
X45521000Y-71292000D02*
X45521000Y-73488000D01*
X45561000Y-71379000D02*
X45561000Y-73401000D01*
X45601000Y-71475000D02*
X45601000Y-73305000D01*
X45641000Y-71585000D02*
X45641000Y-73195000D01*
X45681000Y-71713000D02*
X45681000Y-73067000D01*
X45721000Y-71872000D02*
X45721000Y-72908000D01*
X45761000Y-72106000D02*
X45761000Y-72674000D01*
X40355225Y-70915000D02*
X40855225Y-70915000D01*
X40605225Y-70665000D02*
X40605225Y-71165000D01*
%TO.C,C5*%
X52739775Y-74115000D02*
X52739775Y-73615000D01*
X52989775Y-73865000D02*
X52489775Y-73865000D01*
X47584000Y-72674000D02*
X47584000Y-72106000D01*
X47624000Y-72908000D02*
X47624000Y-71872000D01*
X47664000Y-73067000D02*
X47664000Y-71713000D01*
X47704000Y-73195000D02*
X47704000Y-71585000D01*
X47744000Y-73305000D02*
X47744000Y-71475000D01*
X47784000Y-73401000D02*
X47784000Y-71379000D01*
X47824000Y-73488000D02*
X47824000Y-71292000D01*
X47864000Y-73568000D02*
X47864000Y-71212000D01*
X47904000Y-71350000D02*
X47904000Y-71139000D01*
X47904000Y-73641000D02*
X47904000Y-73430000D01*
X47944000Y-71350000D02*
X47944000Y-71071000D01*
X47944000Y-73709000D02*
X47944000Y-73430000D01*
X47984000Y-71350000D02*
X47984000Y-71007000D01*
X47984000Y-73773000D02*
X47984000Y-73430000D01*
X48024000Y-71350000D02*
X48024000Y-70947000D01*
X48024000Y-73833000D02*
X48024000Y-73430000D01*
X48064000Y-71350000D02*
X48064000Y-70890000D01*
X48064000Y-73890000D02*
X48064000Y-73430000D01*
X48104000Y-71350000D02*
X48104000Y-70836000D01*
X48104000Y-73944000D02*
X48104000Y-73430000D01*
X48144000Y-71350000D02*
X48144000Y-70785000D01*
X48144000Y-73995000D02*
X48144000Y-73430000D01*
X48184000Y-71350000D02*
X48184000Y-70737000D01*
X48184000Y-74043000D02*
X48184000Y-73430000D01*
X48224000Y-71350000D02*
X48224000Y-70691000D01*
X48224000Y-74089000D02*
X48224000Y-73430000D01*
X48264000Y-71350000D02*
X48264000Y-70647000D01*
X48264000Y-74133000D02*
X48264000Y-73430000D01*
X48304000Y-71350000D02*
X48304000Y-70605000D01*
X48304000Y-74175000D02*
X48304000Y-73430000D01*
X48344000Y-71350000D02*
X48344000Y-70564000D01*
X48344000Y-74216000D02*
X48344000Y-73430000D01*
X48384000Y-71350000D02*
X48384000Y-70526000D01*
X48384000Y-74254000D02*
X48384000Y-73430000D01*
X48424000Y-71350000D02*
X48424000Y-70489000D01*
X48424000Y-74291000D02*
X48424000Y-73430000D01*
X48464000Y-71350000D02*
X48464000Y-70453000D01*
X48464000Y-74327000D02*
X48464000Y-73430000D01*
X48504000Y-71350000D02*
X48504000Y-70419000D01*
X48504000Y-74361000D02*
X48504000Y-73430000D01*
X48544000Y-71350000D02*
X48544000Y-70386000D01*
X48544000Y-74394000D02*
X48544000Y-73430000D01*
X48584000Y-71350000D02*
X48584000Y-70355000D01*
X48584000Y-74425000D02*
X48584000Y-73430000D01*
X48624000Y-71350000D02*
X48624000Y-70325000D01*
X48624000Y-74455000D02*
X48624000Y-73430000D01*
X48664000Y-71350000D02*
X48664000Y-70295000D01*
X48664000Y-74485000D02*
X48664000Y-73430000D01*
X48704000Y-71350000D02*
X48704000Y-70268000D01*
X48704000Y-74512000D02*
X48704000Y-73430000D01*
X48744000Y-71350000D02*
X48744000Y-70241000D01*
X48744000Y-74539000D02*
X48744000Y-73430000D01*
X48784000Y-71350000D02*
X48784000Y-70215000D01*
X48784000Y-74565000D02*
X48784000Y-73430000D01*
X48824000Y-71350000D02*
X48824000Y-70190000D01*
X48824000Y-74590000D02*
X48824000Y-73430000D01*
X48864000Y-71350000D02*
X48864000Y-70166000D01*
X48864000Y-74614000D02*
X48864000Y-73430000D01*
X48904000Y-71350000D02*
X48904000Y-70143000D01*
X48904000Y-74637000D02*
X48904000Y-73430000D01*
X48944000Y-71350000D02*
X48944000Y-70122000D01*
X48944000Y-74658000D02*
X48944000Y-73430000D01*
X48984000Y-71350000D02*
X48984000Y-70100000D01*
X48984000Y-74680000D02*
X48984000Y-73430000D01*
X49024000Y-71350000D02*
X49024000Y-70080000D01*
X49024000Y-74700000D02*
X49024000Y-73430000D01*
X49064000Y-71350000D02*
X49064000Y-70061000D01*
X49064000Y-74719000D02*
X49064000Y-73430000D01*
X49104000Y-71350000D02*
X49104000Y-70042000D01*
X49104000Y-74738000D02*
X49104000Y-73430000D01*
X49144000Y-71350000D02*
X49144000Y-70025000D01*
X49144000Y-74755000D02*
X49144000Y-73430000D01*
X49184000Y-71350000D02*
X49184000Y-70008000D01*
X49184000Y-74772000D02*
X49184000Y-73430000D01*
X49224000Y-71350000D02*
X49224000Y-69992000D01*
X49224000Y-74788000D02*
X49224000Y-73430000D01*
X49264000Y-71350000D02*
X49264000Y-69976000D01*
X49264000Y-74804000D02*
X49264000Y-73430000D01*
X49304000Y-71350000D02*
X49304000Y-69962000D01*
X49304000Y-74818000D02*
X49304000Y-73430000D01*
X49344000Y-71350000D02*
X49344000Y-69948000D01*
X49344000Y-74832000D02*
X49344000Y-73430000D01*
X49384000Y-71350000D02*
X49384000Y-69935000D01*
X49384000Y-74845000D02*
X49384000Y-73430000D01*
X49424000Y-71350000D02*
X49424000Y-69922000D01*
X49424000Y-74858000D02*
X49424000Y-73430000D01*
X49464000Y-71350000D02*
X49464000Y-69910000D01*
X49464000Y-74870000D02*
X49464000Y-73430000D01*
X49505000Y-71350000D02*
X49505000Y-69899000D01*
X49505000Y-74881000D02*
X49505000Y-73430000D01*
X49545000Y-71350000D02*
X49545000Y-69889000D01*
X49545000Y-74891000D02*
X49545000Y-73430000D01*
X49585000Y-71350000D02*
X49585000Y-69879000D01*
X49585000Y-74901000D02*
X49585000Y-73430000D01*
X49625000Y-71350000D02*
X49625000Y-69870000D01*
X49625000Y-74910000D02*
X49625000Y-73430000D01*
X49665000Y-71350000D02*
X49665000Y-69862000D01*
X49665000Y-74918000D02*
X49665000Y-73430000D01*
X49705000Y-71350000D02*
X49705000Y-69854000D01*
X49705000Y-74926000D02*
X49705000Y-73430000D01*
X49745000Y-71350000D02*
X49745000Y-69847000D01*
X49745000Y-74933000D02*
X49745000Y-73430000D01*
X49785000Y-71350000D02*
X49785000Y-69840000D01*
X49785000Y-74940000D02*
X49785000Y-73430000D01*
X49825000Y-71350000D02*
X49825000Y-69834000D01*
X49825000Y-74946000D02*
X49825000Y-73430000D01*
X49865000Y-71350000D02*
X49865000Y-69829000D01*
X49865000Y-74951000D02*
X49865000Y-73430000D01*
X49905000Y-71350000D02*
X49905000Y-69825000D01*
X49905000Y-74955000D02*
X49905000Y-73430000D01*
X49945000Y-71350000D02*
X49945000Y-69821000D01*
X49945000Y-74959000D02*
X49945000Y-73430000D01*
X49985000Y-74963000D02*
X49985000Y-69817000D01*
X50025000Y-74966000D02*
X50025000Y-69814000D01*
X50065000Y-74968000D02*
X50065000Y-69812000D01*
X50105000Y-74969000D02*
X50105000Y-69811000D01*
X50145000Y-74970000D02*
X50145000Y-69810000D01*
X50185000Y-74970000D02*
X50185000Y-69810000D01*
X52805000Y-72390000D02*
G75*
G03*
X52805000Y-72390000I-2620000J0D01*
G01*
%TO.C,C6*%
X55210000Y-67715000D02*
X51470000Y-67715000D01*
X55210000Y-60475000D02*
X51470000Y-60475000D01*
X51470000Y-60475000D02*
X51470000Y-67715000D01*
X55210000Y-60475000D02*
X55210000Y-67715000D01*
%TO.C,D1*%
X49110000Y-29060000D02*
X49110000Y-26820000D01*
X49110000Y-26820000D02*
X44870000Y-26820000D01*
X44870000Y-26820000D02*
X44870000Y-29060000D01*
X44870000Y-29060000D02*
X49110000Y-29060000D01*
X49760000Y-27940000D02*
X49110000Y-27940000D01*
X44220000Y-27940000D02*
X44870000Y-27940000D01*
X48390000Y-29060000D02*
X48390000Y-26820000D01*
X48270000Y-29060000D02*
X48270000Y-26820000D01*
X48510000Y-29060000D02*
X48510000Y-26820000D01*
%TO.C,D2*%
X100480000Y-97405000D02*
X102720000Y-97405000D01*
X100480000Y-97165000D02*
X102720000Y-97165000D01*
X100480000Y-97285000D02*
X102720000Y-97285000D01*
X101600000Y-93115000D02*
X101600000Y-93765000D01*
X101600000Y-98655000D02*
X101600000Y-98005000D01*
X100480000Y-93765000D02*
X100480000Y-98005000D01*
X102720000Y-93765000D02*
X100480000Y-93765000D01*
X102720000Y-98005000D02*
X102720000Y-93765000D01*
X100480000Y-98005000D02*
X102720000Y-98005000D01*
%TO.C,D3*%
X101815000Y-74145000D02*
X101815000Y-71905000D01*
X101815000Y-71905000D02*
X97575000Y-71905000D01*
X97575000Y-71905000D02*
X97575000Y-74145000D01*
X97575000Y-74145000D02*
X101815000Y-74145000D01*
X102465000Y-73025000D02*
X101815000Y-73025000D01*
X96925000Y-73025000D02*
X97575000Y-73025000D01*
X101095000Y-74145000D02*
X101095000Y-71905000D01*
X100975000Y-74145000D02*
X100975000Y-71905000D01*
X101215000Y-74145000D02*
X101215000Y-71905000D01*
%TO.C,D4*%
X98175000Y-68730000D02*
X98175000Y-70970000D01*
X98415000Y-68730000D02*
X98415000Y-70970000D01*
X98295000Y-68730000D02*
X98295000Y-70970000D01*
X102465000Y-69850000D02*
X101815000Y-69850000D01*
X96925000Y-69850000D02*
X97575000Y-69850000D01*
X101815000Y-68730000D02*
X97575000Y-68730000D01*
X101815000Y-70970000D02*
X101815000Y-68730000D01*
X97575000Y-70970000D02*
X101815000Y-70970000D01*
X97575000Y-68730000D02*
X97575000Y-70970000D01*
%TO.C,D5*%
X73240000Y-104625000D02*
X73240000Y-102385000D01*
X73240000Y-102385000D02*
X69000000Y-102385000D01*
X69000000Y-102385000D02*
X69000000Y-104625000D01*
X69000000Y-104625000D02*
X73240000Y-104625000D01*
X73890000Y-103505000D02*
X73240000Y-103505000D01*
X68350000Y-103505000D02*
X69000000Y-103505000D01*
X72520000Y-104625000D02*
X72520000Y-102385000D01*
X72400000Y-104625000D02*
X72400000Y-102385000D01*
X72640000Y-104625000D02*
X72640000Y-102385000D01*
%TO.C,D6*%
X101815000Y-58270000D02*
X101815000Y-56030000D01*
X101815000Y-56030000D02*
X97575000Y-56030000D01*
X97575000Y-56030000D02*
X97575000Y-58270000D01*
X97575000Y-58270000D02*
X101815000Y-58270000D01*
X102465000Y-57150000D02*
X101815000Y-57150000D01*
X96925000Y-57150000D02*
X97575000Y-57150000D01*
X101095000Y-58270000D02*
X101095000Y-56030000D01*
X100975000Y-58270000D02*
X100975000Y-56030000D01*
X101215000Y-58270000D02*
X101215000Y-56030000D01*
%TO.C,D7*%
X98175000Y-58570000D02*
X98175000Y-60810000D01*
X98415000Y-58570000D02*
X98415000Y-60810000D01*
X98295000Y-58570000D02*
X98295000Y-60810000D01*
X102465000Y-59690000D02*
X101815000Y-59690000D01*
X96925000Y-59690000D02*
X97575000Y-59690000D01*
X101815000Y-58570000D02*
X97575000Y-58570000D01*
X101815000Y-60810000D02*
X101815000Y-58570000D01*
X97575000Y-60810000D02*
X101815000Y-60810000D01*
X97575000Y-58570000D02*
X97575000Y-60810000D01*
%TO.C,J1*%
X110550000Y-65980000D02*
X107890000Y-65980000D01*
X110550000Y-68580000D02*
X110550000Y-65980000D01*
X107890000Y-68580000D02*
X107890000Y-65980000D01*
X110550000Y-68580000D02*
X107890000Y-68580000D01*
X110550000Y-69850000D02*
X110550000Y-71180000D01*
X110550000Y-71180000D02*
X109220000Y-71180000D01*
%TO.C,J3*%
X116265000Y-106620000D02*
X111065000Y-106620000D01*
X116265000Y-111760000D02*
X116265000Y-106620000D01*
X111065000Y-114360000D02*
X111065000Y-106620000D01*
X116265000Y-111760000D02*
X113665000Y-111760000D01*
X113665000Y-111760000D02*
X113665000Y-114360000D01*
X113665000Y-114360000D02*
X111065000Y-114360000D01*
X116265000Y-113030000D02*
X116265000Y-114360000D01*
X116265000Y-114360000D02*
X114935000Y-114360000D01*
%TO.C,J6*%
X25675000Y-67945000D02*
G75*
G03*
X25675000Y-67945000I-2180000J0D01*
G01*
X25675000Y-73025000D02*
G75*
G03*
X25675000Y-73025000I-2180000J0D01*
G01*
X18695000Y-65345000D02*
X18695000Y-75625000D01*
X21195000Y-65345000D02*
X21195000Y-75625000D01*
X27395000Y-65345000D02*
X27395000Y-75625000D01*
X29455000Y-65345000D02*
X29455000Y-75625000D01*
X18135000Y-65345000D02*
X18135000Y-75625000D01*
X29455000Y-65345000D02*
X18135000Y-65345000D01*
X29455000Y-75625000D02*
X18135000Y-75625000D01*
X24883000Y-69599000D02*
X24776000Y-69492000D01*
X21948000Y-66663000D02*
X21841000Y-66557000D01*
X25149000Y-69333000D02*
X25042000Y-69226000D01*
X22214000Y-66397000D02*
X22107000Y-66291000D01*
X24883000Y-74679000D02*
X24487000Y-74284000D01*
X22221000Y-72018000D02*
X21841000Y-71638000D01*
X25149000Y-74413000D02*
X24769000Y-74033000D01*
X22503000Y-71767000D02*
X22107000Y-71372000D01*
X18635000Y-65105000D02*
X17895000Y-65105000D01*
X17895000Y-65105000D02*
X17895000Y-65605000D01*
%TO.C,J7*%
X34865000Y-39430000D02*
X37525000Y-39430000D01*
X34865000Y-29210000D02*
X34865000Y-39430000D01*
X37525000Y-29210000D02*
X37525000Y-39430000D01*
X34865000Y-29210000D02*
X37525000Y-29210000D01*
X34865000Y-27940000D02*
X34865000Y-26610000D01*
X34865000Y-26610000D02*
X36195000Y-26610000D01*
%TO.C,J8*%
X66735000Y-50225000D02*
X66735000Y-45025000D01*
X59055000Y-50225000D02*
X66735000Y-50225000D01*
X56455000Y-45025000D02*
X66735000Y-45025000D01*
X59055000Y-50225000D02*
X59055000Y-47625000D01*
X59055000Y-47625000D02*
X56455000Y-47625000D01*
X56455000Y-47625000D02*
X56455000Y-45025000D01*
X57785000Y-50225000D02*
X56455000Y-50225000D01*
X56455000Y-50225000D02*
X56455000Y-48895000D01*
%TO.C,J9*%
X102295000Y-86935000D02*
X102295000Y-88265000D01*
X100965000Y-86935000D02*
X102295000Y-86935000D01*
X99695000Y-86935000D02*
X99695000Y-89595000D01*
X99695000Y-89595000D02*
X89475000Y-89595000D01*
X99695000Y-86935000D02*
X89475000Y-86935000D01*
X89475000Y-86935000D02*
X89475000Y-89595000D01*
%TO.C,J10*%
X64830000Y-105350000D02*
X62170000Y-105350000D01*
X64830000Y-115570000D02*
X64830000Y-105350000D01*
X62170000Y-115570000D02*
X62170000Y-105350000D01*
X64830000Y-115570000D02*
X62170000Y-115570000D01*
X64830000Y-116840000D02*
X64830000Y-118170000D01*
X64830000Y-118170000D02*
X63500000Y-118170000D01*
%TO.C,J11*%
X107890000Y-63560000D02*
X110550000Y-63560000D01*
X107890000Y-60960000D02*
X107890000Y-63560000D01*
X110550000Y-60960000D02*
X110550000Y-63560000D01*
X107890000Y-60960000D02*
X110550000Y-60960000D01*
X107890000Y-59690000D02*
X107890000Y-58360000D01*
X107890000Y-58360000D02*
X109220000Y-58360000D01*
%TO.C,J12*%
X90865000Y-45025000D02*
X88205000Y-45025000D01*
X90865000Y-55245000D02*
X90865000Y-45025000D01*
X88205000Y-55245000D02*
X88205000Y-45025000D01*
X90865000Y-55245000D02*
X88205000Y-55245000D01*
X90865000Y-56515000D02*
X90865000Y-57845000D01*
X90865000Y-57845000D02*
X89535000Y-57845000D01*
%TO.C,J13*%
X102295000Y-77410000D02*
X102295000Y-78740000D01*
X100965000Y-77410000D02*
X102295000Y-77410000D01*
X99695000Y-77410000D02*
X99695000Y-80070000D01*
X99695000Y-80070000D02*
X89475000Y-80070000D01*
X99695000Y-77410000D02*
X89475000Y-77410000D01*
X89475000Y-77410000D02*
X89475000Y-80070000D01*
%TO.C,J14*%
X87690000Y-65465000D02*
X86360000Y-65465000D01*
X87690000Y-64135000D02*
X87690000Y-65465000D01*
X87690000Y-62865000D02*
X85030000Y-62865000D01*
X85030000Y-62865000D02*
X85030000Y-60265000D01*
X87690000Y-62865000D02*
X87690000Y-60265000D01*
X87690000Y-60265000D02*
X85030000Y-60265000D01*
%TO.C,J16*%
X28000000Y-104835000D02*
X28000000Y-102175000D01*
X22860000Y-104835000D02*
X28000000Y-104835000D01*
X22860000Y-102175000D02*
X28000000Y-102175000D01*
X22860000Y-104835000D02*
X22860000Y-102175000D01*
X21590000Y-104835000D02*
X20260000Y-104835000D01*
X20260000Y-104835000D02*
X20260000Y-103505000D01*
%TO.C,J17*%
X20260000Y-89595000D02*
X20260000Y-88265000D01*
X21590000Y-89595000D02*
X20260000Y-89595000D01*
X22860000Y-89595000D02*
X22860000Y-86935000D01*
X22860000Y-86935000D02*
X28000000Y-86935000D01*
X22860000Y-89595000D02*
X28000000Y-89595000D01*
X28000000Y-89595000D02*
X28000000Y-86935000D01*
%TO.C,J18*%
X28000000Y-112455000D02*
X28000000Y-109795000D01*
X22860000Y-112455000D02*
X28000000Y-112455000D01*
X22860000Y-109795000D02*
X28000000Y-109795000D01*
X22860000Y-112455000D02*
X22860000Y-109795000D01*
X21590000Y-112455000D02*
X20260000Y-112455000D01*
X20260000Y-112455000D02*
X20260000Y-111125000D01*
%TO.C,J19*%
X20260000Y-97215000D02*
X20260000Y-95885000D01*
X21590000Y-97215000D02*
X20260000Y-97215000D01*
X22860000Y-97215000D02*
X22860000Y-94555000D01*
X22860000Y-94555000D02*
X28000000Y-94555000D01*
X22860000Y-97215000D02*
X28000000Y-97215000D01*
X28000000Y-97215000D02*
X28000000Y-94555000D01*
%TO.C,R1*%
X114395000Y-121385000D02*
X114395000Y-118645000D01*
X114395000Y-118645000D02*
X107855000Y-118645000D01*
X107855000Y-118645000D02*
X107855000Y-121385000D01*
X107855000Y-121385000D02*
X114395000Y-121385000D01*
X115165000Y-120015000D02*
X114395000Y-120015000D01*
X107085000Y-120015000D02*
X107855000Y-120015000D01*
%TO.C,R2*%
X109450000Y-103505000D02*
X108680000Y-103505000D01*
X101370000Y-103505000D02*
X102140000Y-103505000D01*
X108680000Y-102135000D02*
X102140000Y-102135000D01*
X108680000Y-104875000D02*
X108680000Y-102135000D01*
X102140000Y-104875000D02*
X108680000Y-104875000D01*
X102140000Y-102135000D02*
X102140000Y-104875000D01*
%TO.C,R3*%
X50070000Y-94515000D02*
X50070000Y-97255000D01*
X50070000Y-97255000D02*
X56610000Y-97255000D01*
X56610000Y-97255000D02*
X56610000Y-94515000D01*
X56610000Y-94515000D02*
X50070000Y-94515000D01*
X49300000Y-95885000D02*
X50070000Y-95885000D01*
X57380000Y-95885000D02*
X56610000Y-95885000D01*
%TO.C,R4*%
X50070000Y-98325000D02*
X50070000Y-101065000D01*
X50070000Y-101065000D02*
X56610000Y-101065000D01*
X56610000Y-101065000D02*
X56610000Y-98325000D01*
X56610000Y-98325000D02*
X50070000Y-98325000D01*
X49300000Y-99695000D02*
X50070000Y-99695000D01*
X57380000Y-99695000D02*
X56610000Y-99695000D01*
%TO.C,R5*%
X41680000Y-24130000D02*
X42450000Y-24130000D01*
X49760000Y-24130000D02*
X48990000Y-24130000D01*
X42450000Y-25500000D02*
X48990000Y-25500000D01*
X42450000Y-22760000D02*
X42450000Y-25500000D01*
X48990000Y-22760000D02*
X42450000Y-22760000D01*
X48990000Y-25500000D02*
X48990000Y-22760000D01*
%TO.C,R8*%
X92810000Y-107220000D02*
X90070000Y-107220000D01*
X90070000Y-107220000D02*
X90070000Y-113760000D01*
X90070000Y-113760000D02*
X92810000Y-113760000D01*
X92810000Y-113760000D02*
X92810000Y-107220000D01*
X91440000Y-106450000D02*
X91440000Y-107220000D01*
X91440000Y-114530000D02*
X91440000Y-113760000D01*
%TO.C,R9*%
X96925000Y-66675000D02*
X97695000Y-66675000D01*
X105005000Y-66675000D02*
X104235000Y-66675000D01*
X97695000Y-68045000D02*
X104235000Y-68045000D01*
X97695000Y-65305000D02*
X97695000Y-68045000D01*
X104235000Y-65305000D02*
X97695000Y-65305000D01*
X104235000Y-68045000D02*
X104235000Y-65305000D01*
%TO.C,R10*%
X65810000Y-99695000D02*
X66580000Y-99695000D01*
X73890000Y-99695000D02*
X73120000Y-99695000D01*
X66580000Y-101065000D02*
X73120000Y-101065000D01*
X66580000Y-98325000D02*
X66580000Y-101065000D01*
X73120000Y-98325000D02*
X66580000Y-98325000D01*
X73120000Y-101065000D02*
X73120000Y-98325000D01*
%TO.C,R11*%
X51840000Y-121285000D02*
X52610000Y-121285000D01*
X59920000Y-121285000D02*
X59150000Y-121285000D01*
X52610000Y-122655000D02*
X59150000Y-122655000D01*
X52610000Y-119915000D02*
X52610000Y-122655000D01*
X59150000Y-119915000D02*
X52610000Y-119915000D01*
X59150000Y-122655000D02*
X59150000Y-119915000D01*
%TO.C,R12*%
X104235000Y-64235000D02*
X104235000Y-61495000D01*
X104235000Y-61495000D02*
X97695000Y-61495000D01*
X97695000Y-61495000D02*
X97695000Y-64235000D01*
X97695000Y-64235000D02*
X104235000Y-64235000D01*
X105005000Y-62865000D02*
X104235000Y-62865000D01*
X96925000Y-62865000D02*
X97695000Y-62865000D01*
%TO.C,R13*%
X95155000Y-45620000D02*
X95155000Y-48360000D01*
X95155000Y-48360000D02*
X101695000Y-48360000D01*
X101695000Y-48360000D02*
X101695000Y-45620000D01*
X101695000Y-45620000D02*
X95155000Y-45620000D01*
X94385000Y-46990000D02*
X95155000Y-46990000D01*
X102465000Y-46990000D02*
X101695000Y-46990000D01*
%TO.C,R14*%
X85725000Y-55475000D02*
X85725000Y-54705000D01*
X85725000Y-47395000D02*
X85725000Y-48165000D01*
X87095000Y-54705000D02*
X87095000Y-48165000D01*
X84355000Y-54705000D02*
X87095000Y-54705000D01*
X84355000Y-48165000D02*
X84355000Y-54705000D01*
X87095000Y-48165000D02*
X84355000Y-48165000D01*
%TO.C,R15*%
X85090000Y-89765000D02*
X85090000Y-88995000D01*
X85090000Y-81685000D02*
X85090000Y-82455000D01*
X86460000Y-88995000D02*
X86460000Y-82455000D01*
X83720000Y-88995000D02*
X86460000Y-88995000D01*
X83720000Y-82455000D02*
X83720000Y-88995000D01*
X86460000Y-82455000D02*
X83720000Y-82455000D01*
%TO.C,R16*%
X100235000Y-81180000D02*
X100235000Y-83920000D01*
X100235000Y-83920000D02*
X106775000Y-83920000D01*
X106775000Y-83920000D02*
X106775000Y-81180000D01*
X106775000Y-81180000D02*
X100235000Y-81180000D01*
X99465000Y-82550000D02*
X100235000Y-82550000D01*
X107545000Y-82550000D02*
X106775000Y-82550000D01*
%TO.C,R17*%
X42450000Y-90070000D02*
X42450000Y-92810000D01*
X42450000Y-92810000D02*
X48990000Y-92810000D01*
X48990000Y-92810000D02*
X48990000Y-90070000D01*
X48990000Y-90070000D02*
X42450000Y-90070000D01*
X41680000Y-91440000D02*
X42450000Y-91440000D01*
X49760000Y-91440000D02*
X48990000Y-91440000D01*
%TO.C,R18*%
X56920000Y-91440000D02*
X57690000Y-91440000D01*
X65000000Y-91440000D02*
X64230000Y-91440000D01*
X57690000Y-92810000D02*
X64230000Y-92810000D01*
X57690000Y-90070000D02*
X57690000Y-92810000D01*
X64230000Y-90070000D02*
X57690000Y-90070000D01*
X64230000Y-92810000D02*
X64230000Y-90070000D01*
%TO.C,R19*%
X17550000Y-84455000D02*
X18320000Y-84455000D01*
X25630000Y-84455000D02*
X24860000Y-84455000D01*
X18320000Y-85825000D02*
X24860000Y-85825000D01*
X18320000Y-83085000D02*
X18320000Y-85825000D01*
X24860000Y-83085000D02*
X18320000Y-83085000D01*
X24860000Y-85825000D02*
X24860000Y-83085000D01*
%TO.C,R20*%
X24860000Y-101065000D02*
X24860000Y-98325000D01*
X24860000Y-98325000D02*
X18320000Y-98325000D01*
X18320000Y-98325000D02*
X18320000Y-101065000D01*
X18320000Y-101065000D02*
X24860000Y-101065000D01*
X25630000Y-99695000D02*
X24860000Y-99695000D01*
X17550000Y-99695000D02*
X18320000Y-99695000D01*
%TO.C,R21*%
X24860000Y-108685000D02*
X24860000Y-105945000D01*
X24860000Y-105945000D02*
X18320000Y-105945000D01*
X18320000Y-105945000D02*
X18320000Y-108685000D01*
X18320000Y-108685000D02*
X24860000Y-108685000D01*
X25630000Y-107315000D02*
X24860000Y-107315000D01*
X17550000Y-107315000D02*
X18320000Y-107315000D01*
%TO.C,R22*%
X24860000Y-93445000D02*
X24860000Y-90705000D01*
X24860000Y-90705000D02*
X18320000Y-90705000D01*
X18320000Y-90705000D02*
X18320000Y-93445000D01*
X18320000Y-93445000D02*
X24860000Y-93445000D01*
X25630000Y-92075000D02*
X24860000Y-92075000D01*
X17550000Y-92075000D02*
X18320000Y-92075000D01*
%TO.C,R23*%
X72490000Y-82455000D02*
X69750000Y-82455000D01*
X69750000Y-82455000D02*
X69750000Y-88995000D01*
X69750000Y-88995000D02*
X72490000Y-88995000D01*
X72490000Y-88995000D02*
X72490000Y-82455000D01*
X71120000Y-81685000D02*
X71120000Y-82455000D01*
X71120000Y-89765000D02*
X71120000Y-88995000D01*
%TO.C,R24*%
X74930000Y-81685000D02*
X74930000Y-82455000D01*
X74930000Y-89765000D02*
X74930000Y-88995000D01*
X73560000Y-82455000D02*
X73560000Y-88995000D01*
X76300000Y-82455000D02*
X73560000Y-82455000D01*
X76300000Y-88995000D02*
X76300000Y-82455000D01*
X73560000Y-88995000D02*
X76300000Y-88995000D01*
%TO.C,RV1*%
X40255000Y-118990000D02*
X40255000Y-112150000D01*
X47495000Y-118990000D02*
X47495000Y-112150000D01*
X43165000Y-112150000D02*
X40255000Y-112150000D01*
X47495000Y-112150000D02*
X44465000Y-112150000D01*
X43165000Y-118990000D02*
X40255000Y-118990000D01*
X47495000Y-118990000D02*
X44465000Y-118990000D01*
%TO.C,RV2*%
X47495000Y-127245000D02*
X44465000Y-127245000D01*
X43165000Y-127245000D02*
X40255000Y-127245000D01*
X47495000Y-120405000D02*
X44465000Y-120405000D01*
X43165000Y-120405000D02*
X40255000Y-120405000D01*
X47495000Y-127245000D02*
X47495000Y-120405000D01*
X40255000Y-127245000D02*
X40255000Y-120405000D01*
%TO.C,RV3*%
X47495000Y-135500000D02*
X44465000Y-135500000D01*
X43165000Y-135500000D02*
X40255000Y-135500000D01*
X47495000Y-128660000D02*
X44465000Y-128660000D01*
X43165000Y-128660000D02*
X40255000Y-128660000D01*
X47495000Y-135500000D02*
X47495000Y-128660000D01*
X40255000Y-135500000D02*
X40255000Y-128660000D01*
%TO.C,RV4*%
X53090000Y-81035000D02*
X53090000Y-87875000D01*
X45850000Y-81035000D02*
X45850000Y-87875000D01*
X50180000Y-87875000D02*
X53090000Y-87875000D01*
X45850000Y-87875000D02*
X48880000Y-87875000D01*
X50180000Y-81035000D02*
X53090000Y-81035000D01*
X45850000Y-81035000D02*
X48880000Y-81035000D01*
%TO.C,U1*%
X118915000Y-126880000D02*
X108415000Y-126880000D01*
X118915000Y-144900000D02*
X118915000Y-126880000D01*
X108415000Y-144900000D02*
X118915000Y-144900000D01*
X108415000Y-126880000D02*
X108415000Y-144900000D01*
X115915000Y-126940000D02*
X114665000Y-126940000D01*
X115915000Y-144840000D02*
X115915000Y-126940000D01*
X111415000Y-144840000D02*
X115915000Y-144840000D01*
X111415000Y-126940000D02*
X111415000Y-144840000D01*
X112665000Y-126940000D02*
X111415000Y-126940000D01*
X114665000Y-126940000D02*
G75*
G02*
X112665000Y-126940000I-1000000J0D01*
G01*
%TO.C,U2*%
X97425000Y-126940000D02*
X96175000Y-126940000D01*
X96175000Y-126940000D02*
X96175000Y-144840000D01*
X96175000Y-144840000D02*
X100675000Y-144840000D01*
X100675000Y-144840000D02*
X100675000Y-126940000D01*
X100675000Y-126940000D02*
X99425000Y-126940000D01*
X93175000Y-126880000D02*
X93175000Y-144900000D01*
X93175000Y-144900000D02*
X103675000Y-144900000D01*
X103675000Y-144900000D02*
X103675000Y-126880000D01*
X103675000Y-126880000D02*
X93175000Y-126880000D01*
X99425000Y-126940000D02*
G75*
G02*
X97425000Y-126940000I-1000000J0D01*
G01*
%TO.C,U3*%
X109390000Y-106560000D02*
X98890000Y-106560000D01*
X109390000Y-116960000D02*
X109390000Y-106560000D01*
X98890000Y-116960000D02*
X109390000Y-116960000D01*
X98890000Y-106560000D02*
X98890000Y-116960000D01*
X106390000Y-106620000D02*
X105140000Y-106620000D01*
X106390000Y-116900000D02*
X106390000Y-106620000D01*
X101890000Y-116900000D02*
X106390000Y-116900000D01*
X101890000Y-106620000D02*
X101890000Y-116900000D01*
X103140000Y-106620000D02*
X101890000Y-106620000D01*
X105140000Y-106620000D02*
G75*
G02*
X103140000Y-106620000I-1000000J0D01*
G01*
%TO.C,U4*%
X52130000Y-37810000D02*
X52130000Y-36560000D01*
X44390000Y-37810000D02*
X52130000Y-37810000D01*
X44390000Y-33310000D02*
X44390000Y-37810000D01*
X52130000Y-33310000D02*
X44390000Y-33310000D01*
X52130000Y-34560000D02*
X52130000Y-33310000D01*
X52130000Y-36560000D02*
G75*
G02*
X52130000Y-34560000I0J1000000D01*
G01*
%TO.C,U5*%
X93710000Y-101025000D02*
X94960000Y-101025000D01*
X94960000Y-101025000D02*
X94960000Y-93285000D01*
X94960000Y-93285000D02*
X90460000Y-93285000D01*
X90460000Y-93285000D02*
X90460000Y-101025000D01*
X90460000Y-101025000D02*
X91710000Y-101025000D01*
X91710000Y-101025000D02*
G75*
G02*
X93710000Y-101025000I1000000J0D01*
G01*
%TO.C,U6*%
X75625000Y-112030000D02*
X75625000Y-110780000D01*
X75625000Y-110780000D02*
X67885000Y-110780000D01*
X67885000Y-110780000D02*
X67885000Y-115280000D01*
X67885000Y-115280000D02*
X75625000Y-115280000D01*
X75625000Y-115280000D02*
X75625000Y-114030000D01*
X75625000Y-114030000D02*
G75*
G02*
X75625000Y-112030000I0J1000000D01*
G01*
%TO.C,U8*%
X61230000Y-78045000D02*
X59980000Y-78045000D01*
X59980000Y-78045000D02*
X59980000Y-88325000D01*
X59980000Y-88325000D02*
X64480000Y-88325000D01*
X64480000Y-88325000D02*
X64480000Y-78045000D01*
X64480000Y-78045000D02*
X63230000Y-78045000D01*
X56980000Y-77985000D02*
X56980000Y-88385000D01*
X56980000Y-88385000D02*
X67480000Y-88385000D01*
X67480000Y-88385000D02*
X67480000Y-77985000D01*
X67480000Y-77985000D02*
X56980000Y-77985000D01*
X63230000Y-78045000D02*
G75*
G02*
X61230000Y-78045000I-1000000J0D01*
G01*
%TO.C,U9*%
X39330000Y-63135000D02*
X49570000Y-63135000D01*
X39330000Y-47245000D02*
X49570000Y-47245000D01*
X39330000Y-47245000D02*
X39330000Y-63135000D01*
X49570000Y-47245000D02*
X49570000Y-63135000D01*
X41910000Y-63135000D02*
X41910000Y-65675000D01*
X44450000Y-63135000D02*
X44450000Y-65675000D01*
X46990000Y-63135000D02*
X46990000Y-65675000D01*
%TO.C,J31*%
X29150000Y-56575000D02*
X29150000Y-55245000D01*
X30480000Y-56575000D02*
X29150000Y-56575000D01*
X31750000Y-56575000D02*
X31750000Y-53915000D01*
X31750000Y-53915000D02*
X36890000Y-53915000D01*
X31750000Y-56575000D02*
X36890000Y-56575000D01*
X36890000Y-56575000D02*
X36890000Y-53915000D01*
%TO.C,J15*%
X70545000Y-134560000D02*
X70545000Y-135890000D01*
X69215000Y-134560000D02*
X70545000Y-134560000D01*
X67945000Y-134560000D02*
X67945000Y-137220000D01*
X67945000Y-137220000D02*
X55185000Y-137220000D01*
X67945000Y-134560000D02*
X55185000Y-134560000D01*
X55185000Y-134560000D02*
X55185000Y-137220000D01*
%TO.C,J20*%
X69910000Y-53280000D02*
X67250000Y-53280000D01*
X69910000Y-66040000D02*
X69910000Y-53280000D01*
X67250000Y-66040000D02*
X67250000Y-53280000D01*
X69910000Y-66040000D02*
X67250000Y-66040000D01*
X69910000Y-67310000D02*
X69910000Y-68640000D01*
X69910000Y-68640000D02*
X68580000Y-68640000D01*
%TO.C,J30*%
X22800000Y-118050000D02*
X24130000Y-118050000D01*
X22800000Y-119380000D02*
X22800000Y-118050000D01*
X22800000Y-120650000D02*
X25460000Y-120650000D01*
X25460000Y-120650000D02*
X25460000Y-133410000D01*
X22800000Y-120650000D02*
X22800000Y-133410000D01*
X22800000Y-133410000D02*
X25460000Y-133410000D01*
%TO.C,J21*%
X72450000Y-76895000D02*
X72450000Y-74235000D01*
X69850000Y-76895000D02*
X72450000Y-76895000D01*
X69850000Y-74235000D02*
X72450000Y-74235000D01*
X69850000Y-76895000D02*
X69850000Y-74235000D01*
X68580000Y-76895000D02*
X67250000Y-76895000D01*
X67250000Y-76895000D02*
X67250000Y-75565000D01*
%TO.C,J22*%
X41215000Y-95825000D02*
X42545000Y-95825000D01*
X41215000Y-97155000D02*
X41215000Y-95825000D01*
X41215000Y-98425000D02*
X43875000Y-98425000D01*
X43875000Y-98425000D02*
X43875000Y-101025000D01*
X41215000Y-98425000D02*
X41215000Y-101025000D01*
X41215000Y-101025000D02*
X43875000Y-101025000D01*
%TO.C,J2*%
X94555000Y-123885000D02*
X94555000Y-122555000D01*
X95885000Y-123885000D02*
X94555000Y-123885000D01*
X97155000Y-123885000D02*
X97155000Y-121225000D01*
X97155000Y-121225000D02*
X102295000Y-121225000D01*
X97155000Y-123885000D02*
X102295000Y-123885000D01*
X102295000Y-123885000D02*
X102295000Y-121225000D01*
%TO.C,C2*%
X89685000Y-34325000D02*
X96925000Y-34325000D01*
X89685000Y-38065000D02*
X96925000Y-38065000D01*
X89685000Y-34325000D02*
X89685000Y-38065000D01*
X96925000Y-34325000D02*
X96925000Y-38065000D01*
%TO.C,C7*%
X97120000Y-32235000D02*
X93380000Y-32235000D01*
X97120000Y-24995000D02*
X93380000Y-24995000D01*
X93380000Y-24995000D02*
X93380000Y-32235000D01*
X97120000Y-24995000D02*
X97120000Y-32235000D01*
%TO.C,C8*%
X118075000Y-34775000D02*
X114335000Y-34775000D01*
X118075000Y-27535000D02*
X114335000Y-27535000D01*
X114335000Y-27535000D02*
X114335000Y-34775000D01*
X118075000Y-27535000D02*
X118075000Y-34775000D01*
%TO.C,J4*%
X78680000Y-24825000D02*
X78680000Y-23495000D01*
X80010000Y-24825000D02*
X78680000Y-24825000D01*
X81280000Y-24825000D02*
X81280000Y-22165000D01*
X81280000Y-22165000D02*
X86420000Y-22165000D01*
X81280000Y-24825000D02*
X86420000Y-24825000D01*
X86420000Y-24825000D02*
X86420000Y-22165000D01*
%TO.C,R25*%
X85090000Y-36425000D02*
X85090000Y-35655000D01*
X85090000Y-28345000D02*
X85090000Y-29115000D01*
X86460000Y-35655000D02*
X86460000Y-29115000D01*
X83720000Y-35655000D02*
X86460000Y-35655000D01*
X83720000Y-29115000D02*
X83720000Y-35655000D01*
X86460000Y-29115000D02*
X83720000Y-29115000D01*
%TO.C,R26*%
X80010000Y-36425000D02*
X80010000Y-35655000D01*
X80010000Y-28345000D02*
X80010000Y-29115000D01*
X81380000Y-35655000D02*
X81380000Y-29115000D01*
X78640000Y-35655000D02*
X81380000Y-35655000D01*
X78640000Y-29115000D02*
X78640000Y-35655000D01*
X81380000Y-29115000D02*
X78640000Y-29115000D01*
%TO.C,R27*%
X98325000Y-34385000D02*
X101065000Y-34385000D01*
X101065000Y-34385000D02*
X101065000Y-27845000D01*
X101065000Y-27845000D02*
X98325000Y-27845000D01*
X98325000Y-27845000D02*
X98325000Y-34385000D01*
X99695000Y-35155000D02*
X99695000Y-34385000D01*
X99695000Y-27075000D02*
X99695000Y-27845000D01*
%TO.C,U10*%
D10*
X100627380Y-31083095D02*
X101436904Y-31083095D01*
X101532142Y-31035476D01*
X101579761Y-30987857D01*
X101627380Y-30892619D01*
X101627380Y-30702142D01*
X101579761Y-30606904D01*
X101532142Y-30559285D01*
X101436904Y-30511666D01*
X100627380Y-30511666D01*
X101627380Y-29511666D02*
X101627380Y-30083095D01*
X101627380Y-29797380D02*
X100627380Y-29797380D01*
X100770238Y-29892619D01*
X100865476Y-29987857D01*
X100913095Y-30083095D01*
X100627380Y-28892619D02*
X100627380Y-28797380D01*
X100675000Y-28702142D01*
X100722619Y-28654523D01*
X100817857Y-28606904D01*
X101008333Y-28559285D01*
X101246428Y-28559285D01*
X101436904Y-28606904D01*
X101532142Y-28654523D01*
X101579761Y-28702142D01*
X101627380Y-28797380D01*
X101627380Y-28892619D01*
X101579761Y-28987857D01*
X101532142Y-29035476D01*
X101436904Y-29083095D01*
X101246428Y-29130714D01*
X101008333Y-29130714D01*
X100817857Y-29083095D01*
X100722619Y-29035476D01*
X100675000Y-28987857D01*
X100627380Y-28892619D01*
%TO.C,U7*%
X56353096Y-14802381D02*
X56353096Y-15611905D01*
X56400715Y-15707143D01*
X56448334Y-15754762D01*
X56543572Y-15802381D01*
X56734048Y-15802381D01*
X56829286Y-15754762D01*
X56876905Y-15707143D01*
X56924524Y-15611905D01*
X56924524Y-14802381D01*
X57305477Y-14802381D02*
X57972143Y-14802381D01*
X57543572Y-15802381D01*
%TO.C,R7*%
X106497380Y-94781666D02*
X106021190Y-95115000D01*
X106497380Y-95353095D02*
X105497380Y-95353095D01*
X105497380Y-94972142D01*
X105545000Y-94876904D01*
X105592619Y-94829285D01*
X105687857Y-94781666D01*
X105830714Y-94781666D01*
X105925952Y-94829285D01*
X105973571Y-94876904D01*
X106021190Y-94972142D01*
X106021190Y-95353095D01*
X105497380Y-94448333D02*
X105497380Y-93781666D01*
X106497380Y-94210238D01*
%TO.C,R6*%
X58237380Y-35091666D02*
X57761190Y-35425000D01*
X58237380Y-35663095D02*
X57237380Y-35663095D01*
X57237380Y-35282142D01*
X57285000Y-35186904D01*
X57332619Y-35139285D01*
X57427857Y-35091666D01*
X57570714Y-35091666D01*
X57665952Y-35139285D01*
X57713571Y-35186904D01*
X57761190Y-35282142D01*
X57761190Y-35663095D01*
X57237380Y-34234523D02*
X57237380Y-34425000D01*
X57285000Y-34520238D01*
X57332619Y-34567857D01*
X57475476Y-34663095D01*
X57665952Y-34710714D01*
X58046904Y-34710714D01*
X58142142Y-34663095D01*
X58189761Y-34615476D01*
X58237380Y-34520238D01*
X58237380Y-34329761D01*
X58189761Y-34234523D01*
X58142142Y-34186904D01*
X58046904Y-34139285D01*
X57808809Y-34139285D01*
X57713571Y-34186904D01*
X57665952Y-34234523D01*
X57618333Y-34329761D01*
X57618333Y-34520238D01*
X57665952Y-34615476D01*
X57713571Y-34663095D01*
X57808809Y-34710714D01*
%TO.C,C3*%
X61468333Y-69747142D02*
X61420714Y-69794761D01*
X61277857Y-69842380D01*
X61182619Y-69842380D01*
X61039761Y-69794761D01*
X60944523Y-69699523D01*
X60896904Y-69604285D01*
X60849285Y-69413809D01*
X60849285Y-69270952D01*
X60896904Y-69080476D01*
X60944523Y-68985238D01*
X61039761Y-68890000D01*
X61182619Y-68842380D01*
X61277857Y-68842380D01*
X61420714Y-68890000D01*
X61468333Y-68937619D01*
X61801666Y-68842380D02*
X62420714Y-68842380D01*
X62087380Y-69223333D01*
X62230238Y-69223333D01*
X62325476Y-69270952D01*
X62373095Y-69318571D01*
X62420714Y-69413809D01*
X62420714Y-69651904D01*
X62373095Y-69747142D01*
X62325476Y-69794761D01*
X62230238Y-69842380D01*
X61944523Y-69842380D01*
X61849285Y-69794761D01*
X61801666Y-69747142D01*
%TO.C,C1*%
X53697142Y-56006666D02*
X53744761Y-56054285D01*
X53792380Y-56197142D01*
X53792380Y-56292380D01*
X53744761Y-56435238D01*
X53649523Y-56530476D01*
X53554285Y-56578095D01*
X53363809Y-56625714D01*
X53220952Y-56625714D01*
X53030476Y-56578095D01*
X52935238Y-56530476D01*
X52840000Y-56435238D01*
X52792380Y-56292380D01*
X52792380Y-56197142D01*
X52840000Y-56054285D01*
X52887619Y-56006666D01*
X53792380Y-55054285D02*
X53792380Y-55625714D01*
X53792380Y-55340000D02*
X52792380Y-55340000D01*
X52935238Y-55435238D01*
X53030476Y-55530476D01*
X53078095Y-55625714D01*
%TO.C,C4*%
X42993333Y-68997142D02*
X42945714Y-69044761D01*
X42802857Y-69092380D01*
X42707619Y-69092380D01*
X42564761Y-69044761D01*
X42469523Y-68949523D01*
X42421904Y-68854285D01*
X42374285Y-68663809D01*
X42374285Y-68520952D01*
X42421904Y-68330476D01*
X42469523Y-68235238D01*
X42564761Y-68140000D01*
X42707619Y-68092380D01*
X42802857Y-68092380D01*
X42945714Y-68140000D01*
X42993333Y-68187619D01*
X43850476Y-68425714D02*
X43850476Y-69092380D01*
X43612380Y-68044761D02*
X43374285Y-68759047D01*
X43993333Y-68759047D01*
%TO.C,C5*%
X50018333Y-76497142D02*
X49970714Y-76544761D01*
X49827857Y-76592380D01*
X49732619Y-76592380D01*
X49589761Y-76544761D01*
X49494523Y-76449523D01*
X49446904Y-76354285D01*
X49399285Y-76163809D01*
X49399285Y-76020952D01*
X49446904Y-75830476D01*
X49494523Y-75735238D01*
X49589761Y-75640000D01*
X49732619Y-75592380D01*
X49827857Y-75592380D01*
X49970714Y-75640000D01*
X50018333Y-75687619D01*
X50923095Y-75592380D02*
X50446904Y-75592380D01*
X50399285Y-76068571D01*
X50446904Y-76020952D01*
X50542142Y-75973333D01*
X50780238Y-75973333D01*
X50875476Y-76020952D01*
X50923095Y-76068571D01*
X50970714Y-76163809D01*
X50970714Y-76401904D01*
X50923095Y-76497142D01*
X50875476Y-76544761D01*
X50780238Y-76592380D01*
X50542142Y-76592380D01*
X50446904Y-76544761D01*
X50399285Y-76497142D01*
%TO.C,C6*%
X53697142Y-64261666D02*
X53744761Y-64309285D01*
X53792380Y-64452142D01*
X53792380Y-64547380D01*
X53744761Y-64690238D01*
X53649523Y-64785476D01*
X53554285Y-64833095D01*
X53363809Y-64880714D01*
X53220952Y-64880714D01*
X53030476Y-64833095D01*
X52935238Y-64785476D01*
X52840000Y-64690238D01*
X52792380Y-64547380D01*
X52792380Y-64452142D01*
X52840000Y-64309285D01*
X52887619Y-64261666D01*
X52792380Y-63404523D02*
X52792380Y-63595000D01*
X52840000Y-63690238D01*
X52887619Y-63737857D01*
X53030476Y-63833095D01*
X53220952Y-63880714D01*
X53601904Y-63880714D01*
X53697142Y-63833095D01*
X53744761Y-63785476D01*
X53792380Y-63690238D01*
X53792380Y-63499761D01*
X53744761Y-63404523D01*
X53697142Y-63356904D01*
X53601904Y-63309285D01*
X53363809Y-63309285D01*
X53268571Y-63356904D01*
X53220952Y-63404523D01*
X53173333Y-63499761D01*
X53173333Y-63690238D01*
X53220952Y-63785476D01*
X53268571Y-63833095D01*
X53363809Y-63880714D01*
%TO.C,D1*%
X45616904Y-28392380D02*
X45616904Y-27392380D01*
X45855000Y-27392380D01*
X45997857Y-27440000D01*
X46093095Y-27535238D01*
X46140714Y-27630476D01*
X46188333Y-27820952D01*
X46188333Y-27963809D01*
X46140714Y-28154285D01*
X46093095Y-28249523D01*
X45997857Y-28344761D01*
X45855000Y-28392380D01*
X45616904Y-28392380D01*
X47140714Y-28392380D02*
X46569285Y-28392380D01*
X46855000Y-28392380D02*
X46855000Y-27392380D01*
X46759761Y-27535238D01*
X46664523Y-27630476D01*
X46569285Y-27678095D01*
X50538095Y-30192380D02*
X50538095Y-29192380D01*
X51109523Y-30192380D02*
X50680952Y-29620952D01*
X51109523Y-29192380D02*
X50538095Y-29763809D01*
%TO.C,D2*%
X102052380Y-95988095D02*
X101052380Y-95988095D01*
X101052380Y-95750000D01*
X101100000Y-95607142D01*
X101195238Y-95511904D01*
X101290476Y-95464285D01*
X101480952Y-95416666D01*
X101623809Y-95416666D01*
X101814285Y-95464285D01*
X101909523Y-95511904D01*
X102004761Y-95607142D01*
X102052380Y-95750000D01*
X102052380Y-95988095D01*
X101147619Y-95035714D02*
X101100000Y-94988095D01*
X101052380Y-94892857D01*
X101052380Y-94654761D01*
X101100000Y-94559523D01*
X101147619Y-94511904D01*
X101242857Y-94464285D01*
X101338095Y-94464285D01*
X101480952Y-94511904D01*
X102052380Y-95083333D01*
X102052380Y-94464285D01*
X100252380Y-99956904D02*
X99252380Y-99956904D01*
X100252380Y-99385476D02*
X99680952Y-99814047D01*
X99252380Y-99385476D02*
X99823809Y-99956904D01*
%TO.C,D3*%
X98321904Y-73477380D02*
X98321904Y-72477380D01*
X98560000Y-72477380D01*
X98702857Y-72525000D01*
X98798095Y-72620238D01*
X98845714Y-72715476D01*
X98893333Y-72905952D01*
X98893333Y-73048809D01*
X98845714Y-73239285D01*
X98798095Y-73334523D01*
X98702857Y-73429761D01*
X98560000Y-73477380D01*
X98321904Y-73477380D01*
X99226666Y-72477380D02*
X99845714Y-72477380D01*
X99512380Y-72858333D01*
X99655238Y-72858333D01*
X99750476Y-72905952D01*
X99798095Y-72953571D01*
X99845714Y-73048809D01*
X99845714Y-73286904D01*
X99798095Y-73382142D01*
X99750476Y-73429761D01*
X99655238Y-73477380D01*
X99369523Y-73477380D01*
X99274285Y-73429761D01*
X99226666Y-73382142D01*
X103243095Y-75277380D02*
X103243095Y-74277380D01*
X103814523Y-75277380D02*
X103385952Y-74705952D01*
X103814523Y-74277380D02*
X103243095Y-74848809D01*
%TO.C,D4*%
X99591904Y-70302380D02*
X99591904Y-69302380D01*
X99830000Y-69302380D01*
X99972857Y-69350000D01*
X100068095Y-69445238D01*
X100115714Y-69540476D01*
X100163333Y-69730952D01*
X100163333Y-69873809D01*
X100115714Y-70064285D01*
X100068095Y-70159523D01*
X99972857Y-70254761D01*
X99830000Y-70302380D01*
X99591904Y-70302380D01*
X101020476Y-69635714D02*
X101020476Y-70302380D01*
X100782380Y-69254761D02*
X100544285Y-69969047D01*
X101163333Y-69969047D01*
X95623095Y-68502380D02*
X95623095Y-67502380D01*
X96194523Y-68502380D02*
X95765952Y-67930952D01*
X96194523Y-67502380D02*
X95623095Y-68073809D01*
%TO.C,D5*%
X69746904Y-103957380D02*
X69746904Y-102957380D01*
X69985000Y-102957380D01*
X70127857Y-103005000D01*
X70223095Y-103100238D01*
X70270714Y-103195476D01*
X70318333Y-103385952D01*
X70318333Y-103528809D01*
X70270714Y-103719285D01*
X70223095Y-103814523D01*
X70127857Y-103909761D01*
X69985000Y-103957380D01*
X69746904Y-103957380D01*
X71223095Y-102957380D02*
X70746904Y-102957380D01*
X70699285Y-103433571D01*
X70746904Y-103385952D01*
X70842142Y-103338333D01*
X71080238Y-103338333D01*
X71175476Y-103385952D01*
X71223095Y-103433571D01*
X71270714Y-103528809D01*
X71270714Y-103766904D01*
X71223095Y-103862142D01*
X71175476Y-103909761D01*
X71080238Y-103957380D01*
X70842142Y-103957380D01*
X70746904Y-103909761D01*
X70699285Y-103862142D01*
X74668095Y-102052380D02*
X74668095Y-101052380D01*
X75239523Y-102052380D02*
X74810952Y-101480952D01*
X75239523Y-101052380D02*
X74668095Y-101623809D01*
%TO.C,D6*%
X99591904Y-60142380D02*
X99591904Y-59142380D01*
X99830000Y-59142380D01*
X99972857Y-59190000D01*
X100068095Y-59285238D01*
X100115714Y-59380476D01*
X100163333Y-59570952D01*
X100163333Y-59713809D01*
X100115714Y-59904285D01*
X100068095Y-59999523D01*
X99972857Y-60094761D01*
X99830000Y-60142380D01*
X99591904Y-60142380D01*
X101020476Y-59142380D02*
X100830000Y-59142380D01*
X100734761Y-59190000D01*
X100687142Y-59237619D01*
X100591904Y-59380476D01*
X100544285Y-59570952D01*
X100544285Y-59951904D01*
X100591904Y-60047142D01*
X100639523Y-60094761D01*
X100734761Y-60142380D01*
X100925238Y-60142380D01*
X101020476Y-60094761D01*
X101068095Y-60047142D01*
X101115714Y-59951904D01*
X101115714Y-59713809D01*
X101068095Y-59618571D01*
X101020476Y-59570952D01*
X100925238Y-59523333D01*
X100734761Y-59523333D01*
X100639523Y-59570952D01*
X100591904Y-59618571D01*
X100544285Y-59713809D01*
X103243095Y-59402380D02*
X103243095Y-58402380D01*
X103814523Y-59402380D02*
X103385952Y-58830952D01*
X103814523Y-58402380D02*
X103243095Y-58973809D01*
%TO.C,D7*%
X98321904Y-57602380D02*
X98321904Y-56602380D01*
X98560000Y-56602380D01*
X98702857Y-56650000D01*
X98798095Y-56745238D01*
X98845714Y-56840476D01*
X98893333Y-57030952D01*
X98893333Y-57173809D01*
X98845714Y-57364285D01*
X98798095Y-57459523D01*
X98702857Y-57554761D01*
X98560000Y-57602380D01*
X98321904Y-57602380D01*
X99226666Y-56602380D02*
X99893333Y-56602380D01*
X99464761Y-57602380D01*
X95623095Y-58342380D02*
X95623095Y-57342380D01*
X96194523Y-58342380D02*
X95765952Y-57770952D01*
X96194523Y-57342380D02*
X95623095Y-57913809D01*
%TO.C,J1*%
X108886666Y-71632380D02*
X108886666Y-72346666D01*
X108839047Y-72489523D01*
X108743809Y-72584761D01*
X108600952Y-72632380D01*
X108505714Y-72632380D01*
X109886666Y-72632380D02*
X109315238Y-72632380D01*
X109600952Y-72632380D02*
X109600952Y-71632380D01*
X109505714Y-71775238D01*
X109410476Y-71870476D01*
X109315238Y-71918095D01*
%TO.C,J3*%
X113331666Y-114812380D02*
X113331666Y-115526666D01*
X113284047Y-115669523D01*
X113188809Y-115764761D01*
X113045952Y-115812380D01*
X112950714Y-115812380D01*
X113712619Y-114812380D02*
X114331666Y-114812380D01*
X113998333Y-115193333D01*
X114141190Y-115193333D01*
X114236428Y-115240952D01*
X114284047Y-115288571D01*
X114331666Y-115383809D01*
X114331666Y-115621904D01*
X114284047Y-115717142D01*
X114236428Y-115764761D01*
X114141190Y-115812380D01*
X113855476Y-115812380D01*
X113760238Y-115764761D01*
X113712619Y-115717142D01*
%TO.C,J6*%
X29907380Y-70818333D02*
X30621666Y-70818333D01*
X30764523Y-70865952D01*
X30859761Y-70961190D01*
X30907380Y-71104047D01*
X30907380Y-71199285D01*
X29907380Y-69913571D02*
X29907380Y-70104047D01*
X29955000Y-70199285D01*
X30002619Y-70246904D01*
X30145476Y-70342142D01*
X30335952Y-70389761D01*
X30716904Y-70389761D01*
X30812142Y-70342142D01*
X30859761Y-70294523D01*
X30907380Y-70199285D01*
X30907380Y-70008809D01*
X30859761Y-69913571D01*
X30812142Y-69865952D01*
X30716904Y-69818333D01*
X30478809Y-69818333D01*
X30383571Y-69865952D01*
X30335952Y-69913571D01*
X30288333Y-70008809D01*
X30288333Y-70199285D01*
X30335952Y-70294523D01*
X30383571Y-70342142D01*
X30478809Y-70389761D01*
%TO.C,J7*%
X35861666Y-25062380D02*
X35861666Y-25776666D01*
X35814047Y-25919523D01*
X35718809Y-26014761D01*
X35575952Y-26062380D01*
X35480714Y-26062380D01*
X36242619Y-25062380D02*
X36909285Y-25062380D01*
X36480714Y-26062380D01*
%TO.C,J8*%
X54907380Y-47958333D02*
X55621666Y-47958333D01*
X55764523Y-48005952D01*
X55859761Y-48101190D01*
X55907380Y-48244047D01*
X55907380Y-48339285D01*
X55335952Y-47339285D02*
X55288333Y-47434523D01*
X55240714Y-47482142D01*
X55145476Y-47529761D01*
X55097857Y-47529761D01*
X55002619Y-47482142D01*
X54955000Y-47434523D01*
X54907380Y-47339285D01*
X54907380Y-47148809D01*
X54955000Y-47053571D01*
X55002619Y-47005952D01*
X55097857Y-46958333D01*
X55145476Y-46958333D01*
X55240714Y-47005952D01*
X55288333Y-47053571D01*
X55335952Y-47148809D01*
X55335952Y-47339285D01*
X55383571Y-47434523D01*
X55431190Y-47482142D01*
X55526428Y-47529761D01*
X55716904Y-47529761D01*
X55812142Y-47482142D01*
X55859761Y-47434523D01*
X55907380Y-47339285D01*
X55907380Y-47148809D01*
X55859761Y-47053571D01*
X55812142Y-47005952D01*
X55716904Y-46958333D01*
X55526428Y-46958333D01*
X55431190Y-47005952D01*
X55383571Y-47053571D01*
X55335952Y-47148809D01*
%TO.C,J9*%
X102747380Y-88598333D02*
X103461666Y-88598333D01*
X103604523Y-88645952D01*
X103699761Y-88741190D01*
X103747380Y-88884047D01*
X103747380Y-88979285D01*
X103747380Y-88074523D02*
X103747380Y-87884047D01*
X103699761Y-87788809D01*
X103652142Y-87741190D01*
X103509285Y-87645952D01*
X103318809Y-87598333D01*
X102937857Y-87598333D01*
X102842619Y-87645952D01*
X102795000Y-87693571D01*
X102747380Y-87788809D01*
X102747380Y-87979285D01*
X102795000Y-88074523D01*
X102842619Y-88122142D01*
X102937857Y-88169761D01*
X103175952Y-88169761D01*
X103271190Y-88122142D01*
X103318809Y-88074523D01*
X103366428Y-87979285D01*
X103366428Y-87788809D01*
X103318809Y-87693571D01*
X103271190Y-87645952D01*
X103175952Y-87598333D01*
%TO.C,J10*%
X62690476Y-118622380D02*
X62690476Y-119336666D01*
X62642857Y-119479523D01*
X62547619Y-119574761D01*
X62404761Y-119622380D01*
X62309523Y-119622380D01*
X63690476Y-119622380D02*
X63119047Y-119622380D01*
X63404761Y-119622380D02*
X63404761Y-118622380D01*
X63309523Y-118765238D01*
X63214285Y-118860476D01*
X63119047Y-118908095D01*
X64309523Y-118622380D02*
X64404761Y-118622380D01*
X64500000Y-118670000D01*
X64547619Y-118717619D01*
X64595238Y-118812857D01*
X64642857Y-119003333D01*
X64642857Y-119241428D01*
X64595238Y-119431904D01*
X64547619Y-119527142D01*
X64500000Y-119574761D01*
X64404761Y-119622380D01*
X64309523Y-119622380D01*
X64214285Y-119574761D01*
X64166666Y-119527142D01*
X64119047Y-119431904D01*
X64071428Y-119241428D01*
X64071428Y-119003333D01*
X64119047Y-118812857D01*
X64166666Y-118717619D01*
X64214285Y-118670000D01*
X64309523Y-118622380D01*
%TO.C,J11*%
X108410476Y-56812380D02*
X108410476Y-57526666D01*
X108362857Y-57669523D01*
X108267619Y-57764761D01*
X108124761Y-57812380D01*
X108029523Y-57812380D01*
X109410476Y-57812380D02*
X108839047Y-57812380D01*
X109124761Y-57812380D02*
X109124761Y-56812380D01*
X109029523Y-56955238D01*
X108934285Y-57050476D01*
X108839047Y-57098095D01*
X110362857Y-57812380D02*
X109791428Y-57812380D01*
X110077142Y-57812380D02*
X110077142Y-56812380D01*
X109981904Y-56955238D01*
X109886666Y-57050476D01*
X109791428Y-57098095D01*
%TO.C,J12*%
X88725476Y-58297380D02*
X88725476Y-59011666D01*
X88677857Y-59154523D01*
X88582619Y-59249761D01*
X88439761Y-59297380D01*
X88344523Y-59297380D01*
X89725476Y-59297380D02*
X89154047Y-59297380D01*
X89439761Y-59297380D02*
X89439761Y-58297380D01*
X89344523Y-58440238D01*
X89249285Y-58535476D01*
X89154047Y-58583095D01*
X90106428Y-58392619D02*
X90154047Y-58345000D01*
X90249285Y-58297380D01*
X90487380Y-58297380D01*
X90582619Y-58345000D01*
X90630238Y-58392619D01*
X90677857Y-58487857D01*
X90677857Y-58583095D01*
X90630238Y-58725952D01*
X90058809Y-59297380D01*
X90677857Y-59297380D01*
%TO.C,J13*%
X102747380Y-79549523D02*
X103461666Y-79549523D01*
X103604523Y-79597142D01*
X103699761Y-79692380D01*
X103747380Y-79835238D01*
X103747380Y-79930476D01*
X103747380Y-78549523D02*
X103747380Y-79120952D01*
X103747380Y-78835238D02*
X102747380Y-78835238D01*
X102890238Y-78930476D01*
X102985476Y-79025714D01*
X103033095Y-79120952D01*
X102747380Y-78216190D02*
X102747380Y-77597142D01*
X103128333Y-77930476D01*
X103128333Y-77787619D01*
X103175952Y-77692380D01*
X103223571Y-77644761D01*
X103318809Y-77597142D01*
X103556904Y-77597142D01*
X103652142Y-77644761D01*
X103699761Y-77692380D01*
X103747380Y-77787619D01*
X103747380Y-78073333D01*
X103699761Y-78168571D01*
X103652142Y-78216190D01*
%TO.C,J14*%
X85550476Y-65917380D02*
X85550476Y-66631666D01*
X85502857Y-66774523D01*
X85407619Y-66869761D01*
X85264761Y-66917380D01*
X85169523Y-66917380D01*
X86550476Y-66917380D02*
X85979047Y-66917380D01*
X86264761Y-66917380D02*
X86264761Y-65917380D01*
X86169523Y-66060238D01*
X86074285Y-66155476D01*
X85979047Y-66203095D01*
X87407619Y-66250714D02*
X87407619Y-66917380D01*
X87169523Y-65869761D02*
X86931428Y-66584047D01*
X87550476Y-66584047D01*
%TO.C,J16*%
X28662380Y-104314523D02*
X29376666Y-104314523D01*
X29519523Y-104362142D01*
X29614761Y-104457380D01*
X29662380Y-104600238D01*
X29662380Y-104695476D01*
X29662380Y-103314523D02*
X29662380Y-103885952D01*
X29662380Y-103600238D02*
X28662380Y-103600238D01*
X28805238Y-103695476D01*
X28900476Y-103790714D01*
X28948095Y-103885952D01*
X28662380Y-102457380D02*
X28662380Y-102647857D01*
X28710000Y-102743095D01*
X28757619Y-102790714D01*
X28900476Y-102885952D01*
X29090952Y-102933571D01*
X29471904Y-102933571D01*
X29567142Y-102885952D01*
X29614761Y-102838333D01*
X29662380Y-102743095D01*
X29662380Y-102552619D01*
X29614761Y-102457380D01*
X29567142Y-102409761D01*
X29471904Y-102362142D01*
X29233809Y-102362142D01*
X29138571Y-102409761D01*
X29090952Y-102457380D01*
X29043333Y-102552619D01*
X29043333Y-102743095D01*
X29090952Y-102838333D01*
X29138571Y-102885952D01*
X29233809Y-102933571D01*
%TO.C,J17*%
X28662380Y-89074523D02*
X29376666Y-89074523D01*
X29519523Y-89122142D01*
X29614761Y-89217380D01*
X29662380Y-89360238D01*
X29662380Y-89455476D01*
X29662380Y-88074523D02*
X29662380Y-88645952D01*
X29662380Y-88360238D02*
X28662380Y-88360238D01*
X28805238Y-88455476D01*
X28900476Y-88550714D01*
X28948095Y-88645952D01*
X28662380Y-87741190D02*
X28662380Y-87074523D01*
X29662380Y-87503095D01*
%TO.C,J18*%
X28662380Y-111934523D02*
X29376666Y-111934523D01*
X29519523Y-111982142D01*
X29614761Y-112077380D01*
X29662380Y-112220238D01*
X29662380Y-112315476D01*
X29662380Y-110934523D02*
X29662380Y-111505952D01*
X29662380Y-111220238D02*
X28662380Y-111220238D01*
X28805238Y-111315476D01*
X28900476Y-111410714D01*
X28948095Y-111505952D01*
X29090952Y-110363095D02*
X29043333Y-110458333D01*
X28995714Y-110505952D01*
X28900476Y-110553571D01*
X28852857Y-110553571D01*
X28757619Y-110505952D01*
X28710000Y-110458333D01*
X28662380Y-110363095D01*
X28662380Y-110172619D01*
X28710000Y-110077380D01*
X28757619Y-110029761D01*
X28852857Y-109982142D01*
X28900476Y-109982142D01*
X28995714Y-110029761D01*
X29043333Y-110077380D01*
X29090952Y-110172619D01*
X29090952Y-110363095D01*
X29138571Y-110458333D01*
X29186190Y-110505952D01*
X29281428Y-110553571D01*
X29471904Y-110553571D01*
X29567142Y-110505952D01*
X29614761Y-110458333D01*
X29662380Y-110363095D01*
X29662380Y-110172619D01*
X29614761Y-110077380D01*
X29567142Y-110029761D01*
X29471904Y-109982142D01*
X29281428Y-109982142D01*
X29186190Y-110029761D01*
X29138571Y-110077380D01*
X29090952Y-110172619D01*
%TO.C,J19*%
X28662380Y-96694523D02*
X29376666Y-96694523D01*
X29519523Y-96742142D01*
X29614761Y-96837380D01*
X29662380Y-96980238D01*
X29662380Y-97075476D01*
X29662380Y-95694523D02*
X29662380Y-96265952D01*
X29662380Y-95980238D02*
X28662380Y-95980238D01*
X28805238Y-96075476D01*
X28900476Y-96170714D01*
X28948095Y-96265952D01*
X29662380Y-95218333D02*
X29662380Y-95027857D01*
X29614761Y-94932619D01*
X29567142Y-94885000D01*
X29424285Y-94789761D01*
X29233809Y-94742142D01*
X28852857Y-94742142D01*
X28757619Y-94789761D01*
X28710000Y-94837380D01*
X28662380Y-94932619D01*
X28662380Y-95123095D01*
X28710000Y-95218333D01*
X28757619Y-95265952D01*
X28852857Y-95313571D01*
X29090952Y-95313571D01*
X29186190Y-95265952D01*
X29233809Y-95218333D01*
X29281428Y-95123095D01*
X29281428Y-94932619D01*
X29233809Y-94837380D01*
X29186190Y-94789761D01*
X29090952Y-94742142D01*
%TO.C,R1*%
X110958333Y-120467380D02*
X110625000Y-119991190D01*
X110386904Y-120467380D02*
X110386904Y-119467380D01*
X110767857Y-119467380D01*
X110863095Y-119515000D01*
X110910714Y-119562619D01*
X110958333Y-119657857D01*
X110958333Y-119800714D01*
X110910714Y-119895952D01*
X110863095Y-119943571D01*
X110767857Y-119991190D01*
X110386904Y-119991190D01*
X111910714Y-120467380D02*
X111339285Y-120467380D01*
X111625000Y-120467380D02*
X111625000Y-119467380D01*
X111529761Y-119610238D01*
X111434523Y-119705476D01*
X111339285Y-119753095D01*
%TO.C,R2*%
X105243333Y-103957380D02*
X104910000Y-103481190D01*
X104671904Y-103957380D02*
X104671904Y-102957380D01*
X105052857Y-102957380D01*
X105148095Y-103005000D01*
X105195714Y-103052619D01*
X105243333Y-103147857D01*
X105243333Y-103290714D01*
X105195714Y-103385952D01*
X105148095Y-103433571D01*
X105052857Y-103481190D01*
X104671904Y-103481190D01*
X105624285Y-103052619D02*
X105671904Y-103005000D01*
X105767142Y-102957380D01*
X106005238Y-102957380D01*
X106100476Y-103005000D01*
X106148095Y-103052619D01*
X106195714Y-103147857D01*
X106195714Y-103243095D01*
X106148095Y-103385952D01*
X105576666Y-103957380D01*
X106195714Y-103957380D01*
%TO.C,R3*%
X53173333Y-96337380D02*
X52840000Y-95861190D01*
X52601904Y-96337380D02*
X52601904Y-95337380D01*
X52982857Y-95337380D01*
X53078095Y-95385000D01*
X53125714Y-95432619D01*
X53173333Y-95527857D01*
X53173333Y-95670714D01*
X53125714Y-95765952D01*
X53078095Y-95813571D01*
X52982857Y-95861190D01*
X52601904Y-95861190D01*
X53506666Y-95337380D02*
X54125714Y-95337380D01*
X53792380Y-95718333D01*
X53935238Y-95718333D01*
X54030476Y-95765952D01*
X54078095Y-95813571D01*
X54125714Y-95908809D01*
X54125714Y-96146904D01*
X54078095Y-96242142D01*
X54030476Y-96289761D01*
X53935238Y-96337380D01*
X53649523Y-96337380D01*
X53554285Y-96289761D01*
X53506666Y-96242142D01*
%TO.C,R4*%
X53173333Y-100147380D02*
X52840000Y-99671190D01*
X52601904Y-100147380D02*
X52601904Y-99147380D01*
X52982857Y-99147380D01*
X53078095Y-99195000D01*
X53125714Y-99242619D01*
X53173333Y-99337857D01*
X53173333Y-99480714D01*
X53125714Y-99575952D01*
X53078095Y-99623571D01*
X52982857Y-99671190D01*
X52601904Y-99671190D01*
X54030476Y-99480714D02*
X54030476Y-100147380D01*
X53792380Y-99099761D02*
X53554285Y-99814047D01*
X54173333Y-99814047D01*
%TO.C,R5*%
X45553333Y-24582380D02*
X45220000Y-24106190D01*
X44981904Y-24582380D02*
X44981904Y-23582380D01*
X45362857Y-23582380D01*
X45458095Y-23630000D01*
X45505714Y-23677619D01*
X45553333Y-23772857D01*
X45553333Y-23915714D01*
X45505714Y-24010952D01*
X45458095Y-24058571D01*
X45362857Y-24106190D01*
X44981904Y-24106190D01*
X46458095Y-23582380D02*
X45981904Y-23582380D01*
X45934285Y-24058571D01*
X45981904Y-24010952D01*
X46077142Y-23963333D01*
X46315238Y-23963333D01*
X46410476Y-24010952D01*
X46458095Y-24058571D01*
X46505714Y-24153809D01*
X46505714Y-24391904D01*
X46458095Y-24487142D01*
X46410476Y-24534761D01*
X46315238Y-24582380D01*
X46077142Y-24582380D01*
X45981904Y-24534761D01*
X45934285Y-24487142D01*
%TO.C,R8*%
X91892380Y-110656666D02*
X91416190Y-110990000D01*
X91892380Y-111228095D02*
X90892380Y-111228095D01*
X90892380Y-110847142D01*
X90940000Y-110751904D01*
X90987619Y-110704285D01*
X91082857Y-110656666D01*
X91225714Y-110656666D01*
X91320952Y-110704285D01*
X91368571Y-110751904D01*
X91416190Y-110847142D01*
X91416190Y-111228095D01*
X91320952Y-110085238D02*
X91273333Y-110180476D01*
X91225714Y-110228095D01*
X91130476Y-110275714D01*
X91082857Y-110275714D01*
X90987619Y-110228095D01*
X90940000Y-110180476D01*
X90892380Y-110085238D01*
X90892380Y-109894761D01*
X90940000Y-109799523D01*
X90987619Y-109751904D01*
X91082857Y-109704285D01*
X91130476Y-109704285D01*
X91225714Y-109751904D01*
X91273333Y-109799523D01*
X91320952Y-109894761D01*
X91320952Y-110085238D01*
X91368571Y-110180476D01*
X91416190Y-110228095D01*
X91511428Y-110275714D01*
X91701904Y-110275714D01*
X91797142Y-110228095D01*
X91844761Y-110180476D01*
X91892380Y-110085238D01*
X91892380Y-109894761D01*
X91844761Y-109799523D01*
X91797142Y-109751904D01*
X91701904Y-109704285D01*
X91511428Y-109704285D01*
X91416190Y-109751904D01*
X91368571Y-109799523D01*
X91320952Y-109894761D01*
%TO.C,R9*%
X100798333Y-67127380D02*
X100465000Y-66651190D01*
X100226904Y-67127380D02*
X100226904Y-66127380D01*
X100607857Y-66127380D01*
X100703095Y-66175000D01*
X100750714Y-66222619D01*
X100798333Y-66317857D01*
X100798333Y-66460714D01*
X100750714Y-66555952D01*
X100703095Y-66603571D01*
X100607857Y-66651190D01*
X100226904Y-66651190D01*
X101274523Y-67127380D02*
X101465000Y-67127380D01*
X101560238Y-67079761D01*
X101607857Y-67032142D01*
X101703095Y-66889285D01*
X101750714Y-66698809D01*
X101750714Y-66317857D01*
X101703095Y-66222619D01*
X101655476Y-66175000D01*
X101560238Y-66127380D01*
X101369761Y-66127380D01*
X101274523Y-66175000D01*
X101226904Y-66222619D01*
X101179285Y-66317857D01*
X101179285Y-66555952D01*
X101226904Y-66651190D01*
X101274523Y-66698809D01*
X101369761Y-66746428D01*
X101560238Y-66746428D01*
X101655476Y-66698809D01*
X101703095Y-66651190D01*
X101750714Y-66555952D01*
%TO.C,R10*%
X69207142Y-100147380D02*
X68873809Y-99671190D01*
X68635714Y-100147380D02*
X68635714Y-99147380D01*
X69016666Y-99147380D01*
X69111904Y-99195000D01*
X69159523Y-99242619D01*
X69207142Y-99337857D01*
X69207142Y-99480714D01*
X69159523Y-99575952D01*
X69111904Y-99623571D01*
X69016666Y-99671190D01*
X68635714Y-99671190D01*
X70159523Y-100147380D02*
X69588095Y-100147380D01*
X69873809Y-100147380D02*
X69873809Y-99147380D01*
X69778571Y-99290238D01*
X69683333Y-99385476D01*
X69588095Y-99433095D01*
X70778571Y-99147380D02*
X70873809Y-99147380D01*
X70969047Y-99195000D01*
X71016666Y-99242619D01*
X71064285Y-99337857D01*
X71111904Y-99528333D01*
X71111904Y-99766428D01*
X71064285Y-99956904D01*
X71016666Y-100052142D01*
X70969047Y-100099761D01*
X70873809Y-100147380D01*
X70778571Y-100147380D01*
X70683333Y-100099761D01*
X70635714Y-100052142D01*
X70588095Y-99956904D01*
X70540476Y-99766428D01*
X70540476Y-99528333D01*
X70588095Y-99337857D01*
X70635714Y-99242619D01*
X70683333Y-99195000D01*
X70778571Y-99147380D01*
%TO.C,R11*%
X55237142Y-121737380D02*
X54903809Y-121261190D01*
X54665714Y-121737380D02*
X54665714Y-120737380D01*
X55046666Y-120737380D01*
X55141904Y-120785000D01*
X55189523Y-120832619D01*
X55237142Y-120927857D01*
X55237142Y-121070714D01*
X55189523Y-121165952D01*
X55141904Y-121213571D01*
X55046666Y-121261190D01*
X54665714Y-121261190D01*
X56189523Y-121737380D02*
X55618095Y-121737380D01*
X55903809Y-121737380D02*
X55903809Y-120737380D01*
X55808571Y-120880238D01*
X55713333Y-120975476D01*
X55618095Y-121023095D01*
X57141904Y-121737380D02*
X56570476Y-121737380D01*
X56856190Y-121737380D02*
X56856190Y-120737380D01*
X56760952Y-120880238D01*
X56665714Y-120975476D01*
X56570476Y-121023095D01*
%TO.C,R12*%
X100322142Y-63317380D02*
X99988809Y-62841190D01*
X99750714Y-63317380D02*
X99750714Y-62317380D01*
X100131666Y-62317380D01*
X100226904Y-62365000D01*
X100274523Y-62412619D01*
X100322142Y-62507857D01*
X100322142Y-62650714D01*
X100274523Y-62745952D01*
X100226904Y-62793571D01*
X100131666Y-62841190D01*
X99750714Y-62841190D01*
X101274523Y-63317380D02*
X100703095Y-63317380D01*
X100988809Y-63317380D02*
X100988809Y-62317380D01*
X100893571Y-62460238D01*
X100798333Y-62555476D01*
X100703095Y-62603095D01*
X101655476Y-62412619D02*
X101703095Y-62365000D01*
X101798333Y-62317380D01*
X102036428Y-62317380D01*
X102131666Y-62365000D01*
X102179285Y-62412619D01*
X102226904Y-62507857D01*
X102226904Y-62603095D01*
X102179285Y-62745952D01*
X101607857Y-63317380D01*
X102226904Y-63317380D01*
%TO.C,R13*%
X97782142Y-47442380D02*
X97448809Y-46966190D01*
X97210714Y-47442380D02*
X97210714Y-46442380D01*
X97591666Y-46442380D01*
X97686904Y-46490000D01*
X97734523Y-46537619D01*
X97782142Y-46632857D01*
X97782142Y-46775714D01*
X97734523Y-46870952D01*
X97686904Y-46918571D01*
X97591666Y-46966190D01*
X97210714Y-46966190D01*
X98734523Y-47442380D02*
X98163095Y-47442380D01*
X98448809Y-47442380D02*
X98448809Y-46442380D01*
X98353571Y-46585238D01*
X98258333Y-46680476D01*
X98163095Y-46728095D01*
X99067857Y-46442380D02*
X99686904Y-46442380D01*
X99353571Y-46823333D01*
X99496428Y-46823333D01*
X99591666Y-46870952D01*
X99639285Y-46918571D01*
X99686904Y-47013809D01*
X99686904Y-47251904D01*
X99639285Y-47347142D01*
X99591666Y-47394761D01*
X99496428Y-47442380D01*
X99210714Y-47442380D01*
X99115476Y-47394761D01*
X99067857Y-47347142D01*
%TO.C,R14*%
X86177380Y-52077857D02*
X85701190Y-52411190D01*
X86177380Y-52649285D02*
X85177380Y-52649285D01*
X85177380Y-52268333D01*
X85225000Y-52173095D01*
X85272619Y-52125476D01*
X85367857Y-52077857D01*
X85510714Y-52077857D01*
X85605952Y-52125476D01*
X85653571Y-52173095D01*
X85701190Y-52268333D01*
X85701190Y-52649285D01*
X86177380Y-51125476D02*
X86177380Y-51696904D01*
X86177380Y-51411190D02*
X85177380Y-51411190D01*
X85320238Y-51506428D01*
X85415476Y-51601666D01*
X85463095Y-51696904D01*
X85510714Y-50268333D02*
X86177380Y-50268333D01*
X85129761Y-50506428D02*
X85844047Y-50744523D01*
X85844047Y-50125476D01*
%TO.C,R15*%
X85542380Y-86367857D02*
X85066190Y-86701190D01*
X85542380Y-86939285D02*
X84542380Y-86939285D01*
X84542380Y-86558333D01*
X84590000Y-86463095D01*
X84637619Y-86415476D01*
X84732857Y-86367857D01*
X84875714Y-86367857D01*
X84970952Y-86415476D01*
X85018571Y-86463095D01*
X85066190Y-86558333D01*
X85066190Y-86939285D01*
X85542380Y-85415476D02*
X85542380Y-85986904D01*
X85542380Y-85701190D02*
X84542380Y-85701190D01*
X84685238Y-85796428D01*
X84780476Y-85891666D01*
X84828095Y-85986904D01*
X84542380Y-84510714D02*
X84542380Y-84986904D01*
X85018571Y-85034523D01*
X84970952Y-84986904D01*
X84923333Y-84891666D01*
X84923333Y-84653571D01*
X84970952Y-84558333D01*
X85018571Y-84510714D01*
X85113809Y-84463095D01*
X85351904Y-84463095D01*
X85447142Y-84510714D01*
X85494761Y-84558333D01*
X85542380Y-84653571D01*
X85542380Y-84891666D01*
X85494761Y-84986904D01*
X85447142Y-85034523D01*
%TO.C,R16*%
X102862142Y-83002380D02*
X102528809Y-82526190D01*
X102290714Y-83002380D02*
X102290714Y-82002380D01*
X102671666Y-82002380D01*
X102766904Y-82050000D01*
X102814523Y-82097619D01*
X102862142Y-82192857D01*
X102862142Y-82335714D01*
X102814523Y-82430952D01*
X102766904Y-82478571D01*
X102671666Y-82526190D01*
X102290714Y-82526190D01*
X103814523Y-83002380D02*
X103243095Y-83002380D01*
X103528809Y-83002380D02*
X103528809Y-82002380D01*
X103433571Y-82145238D01*
X103338333Y-82240476D01*
X103243095Y-82288095D01*
X104671666Y-82002380D02*
X104481190Y-82002380D01*
X104385952Y-82050000D01*
X104338333Y-82097619D01*
X104243095Y-82240476D01*
X104195476Y-82430952D01*
X104195476Y-82811904D01*
X104243095Y-82907142D01*
X104290714Y-82954761D01*
X104385952Y-83002380D01*
X104576428Y-83002380D01*
X104671666Y-82954761D01*
X104719285Y-82907142D01*
X104766904Y-82811904D01*
X104766904Y-82573809D01*
X104719285Y-82478571D01*
X104671666Y-82430952D01*
X104576428Y-82383333D01*
X104385952Y-82383333D01*
X104290714Y-82430952D01*
X104243095Y-82478571D01*
X104195476Y-82573809D01*
%TO.C,R17*%
X45077142Y-91892380D02*
X44743809Y-91416190D01*
X44505714Y-91892380D02*
X44505714Y-90892380D01*
X44886666Y-90892380D01*
X44981904Y-90940000D01*
X45029523Y-90987619D01*
X45077142Y-91082857D01*
X45077142Y-91225714D01*
X45029523Y-91320952D01*
X44981904Y-91368571D01*
X44886666Y-91416190D01*
X44505714Y-91416190D01*
X46029523Y-91892380D02*
X45458095Y-91892380D01*
X45743809Y-91892380D02*
X45743809Y-90892380D01*
X45648571Y-91035238D01*
X45553333Y-91130476D01*
X45458095Y-91178095D01*
X46362857Y-90892380D02*
X47029523Y-90892380D01*
X46600952Y-91892380D01*
%TO.C,R18*%
X60317142Y-91892380D02*
X59983809Y-91416190D01*
X59745714Y-91892380D02*
X59745714Y-90892380D01*
X60126666Y-90892380D01*
X60221904Y-90940000D01*
X60269523Y-90987619D01*
X60317142Y-91082857D01*
X60317142Y-91225714D01*
X60269523Y-91320952D01*
X60221904Y-91368571D01*
X60126666Y-91416190D01*
X59745714Y-91416190D01*
X61269523Y-91892380D02*
X60698095Y-91892380D01*
X60983809Y-91892380D02*
X60983809Y-90892380D01*
X60888571Y-91035238D01*
X60793333Y-91130476D01*
X60698095Y-91178095D01*
X61840952Y-91320952D02*
X61745714Y-91273333D01*
X61698095Y-91225714D01*
X61650476Y-91130476D01*
X61650476Y-91082857D01*
X61698095Y-90987619D01*
X61745714Y-90940000D01*
X61840952Y-90892380D01*
X62031428Y-90892380D01*
X62126666Y-90940000D01*
X62174285Y-90987619D01*
X62221904Y-91082857D01*
X62221904Y-91130476D01*
X62174285Y-91225714D01*
X62126666Y-91273333D01*
X62031428Y-91320952D01*
X61840952Y-91320952D01*
X61745714Y-91368571D01*
X61698095Y-91416190D01*
X61650476Y-91511428D01*
X61650476Y-91701904D01*
X61698095Y-91797142D01*
X61745714Y-91844761D01*
X61840952Y-91892380D01*
X62031428Y-91892380D01*
X62126666Y-91844761D01*
X62174285Y-91797142D01*
X62221904Y-91701904D01*
X62221904Y-91511428D01*
X62174285Y-91416190D01*
X62126666Y-91368571D01*
X62031428Y-91320952D01*
%TO.C,R19*%
X20947142Y-84907380D02*
X20613809Y-84431190D01*
X20375714Y-84907380D02*
X20375714Y-83907380D01*
X20756666Y-83907380D01*
X20851904Y-83955000D01*
X20899523Y-84002619D01*
X20947142Y-84097857D01*
X20947142Y-84240714D01*
X20899523Y-84335952D01*
X20851904Y-84383571D01*
X20756666Y-84431190D01*
X20375714Y-84431190D01*
X21899523Y-84907380D02*
X21328095Y-84907380D01*
X21613809Y-84907380D02*
X21613809Y-83907380D01*
X21518571Y-84050238D01*
X21423333Y-84145476D01*
X21328095Y-84193095D01*
X22375714Y-84907380D02*
X22566190Y-84907380D01*
X22661428Y-84859761D01*
X22709047Y-84812142D01*
X22804285Y-84669285D01*
X22851904Y-84478809D01*
X22851904Y-84097857D01*
X22804285Y-84002619D01*
X22756666Y-83955000D01*
X22661428Y-83907380D01*
X22470952Y-83907380D01*
X22375714Y-83955000D01*
X22328095Y-84002619D01*
X22280476Y-84097857D01*
X22280476Y-84335952D01*
X22328095Y-84431190D01*
X22375714Y-84478809D01*
X22470952Y-84526428D01*
X22661428Y-84526428D01*
X22756666Y-84478809D01*
X22804285Y-84431190D01*
X22851904Y-84335952D01*
%TO.C,R20*%
X20947142Y-100147380D02*
X20613809Y-99671190D01*
X20375714Y-100147380D02*
X20375714Y-99147380D01*
X20756666Y-99147380D01*
X20851904Y-99195000D01*
X20899523Y-99242619D01*
X20947142Y-99337857D01*
X20947142Y-99480714D01*
X20899523Y-99575952D01*
X20851904Y-99623571D01*
X20756666Y-99671190D01*
X20375714Y-99671190D01*
X21328095Y-99242619D02*
X21375714Y-99195000D01*
X21470952Y-99147380D01*
X21709047Y-99147380D01*
X21804285Y-99195000D01*
X21851904Y-99242619D01*
X21899523Y-99337857D01*
X21899523Y-99433095D01*
X21851904Y-99575952D01*
X21280476Y-100147380D01*
X21899523Y-100147380D01*
X22518571Y-99147380D02*
X22613809Y-99147380D01*
X22709047Y-99195000D01*
X22756666Y-99242619D01*
X22804285Y-99337857D01*
X22851904Y-99528333D01*
X22851904Y-99766428D01*
X22804285Y-99956904D01*
X22756666Y-100052142D01*
X22709047Y-100099761D01*
X22613809Y-100147380D01*
X22518571Y-100147380D01*
X22423333Y-100099761D01*
X22375714Y-100052142D01*
X22328095Y-99956904D01*
X22280476Y-99766428D01*
X22280476Y-99528333D01*
X22328095Y-99337857D01*
X22375714Y-99242619D01*
X22423333Y-99195000D01*
X22518571Y-99147380D01*
%TO.C,R21*%
X20947142Y-107767380D02*
X20613809Y-107291190D01*
X20375714Y-107767380D02*
X20375714Y-106767380D01*
X20756666Y-106767380D01*
X20851904Y-106815000D01*
X20899523Y-106862619D01*
X20947142Y-106957857D01*
X20947142Y-107100714D01*
X20899523Y-107195952D01*
X20851904Y-107243571D01*
X20756666Y-107291190D01*
X20375714Y-107291190D01*
X21328095Y-106862619D02*
X21375714Y-106815000D01*
X21470952Y-106767380D01*
X21709047Y-106767380D01*
X21804285Y-106815000D01*
X21851904Y-106862619D01*
X21899523Y-106957857D01*
X21899523Y-107053095D01*
X21851904Y-107195952D01*
X21280476Y-107767380D01*
X21899523Y-107767380D01*
X22851904Y-107767380D02*
X22280476Y-107767380D01*
X22566190Y-107767380D02*
X22566190Y-106767380D01*
X22470952Y-106910238D01*
X22375714Y-107005476D01*
X22280476Y-107053095D01*
%TO.C,R22*%
X20947142Y-92527380D02*
X20613809Y-92051190D01*
X20375714Y-92527380D02*
X20375714Y-91527380D01*
X20756666Y-91527380D01*
X20851904Y-91575000D01*
X20899523Y-91622619D01*
X20947142Y-91717857D01*
X20947142Y-91860714D01*
X20899523Y-91955952D01*
X20851904Y-92003571D01*
X20756666Y-92051190D01*
X20375714Y-92051190D01*
X21328095Y-91622619D02*
X21375714Y-91575000D01*
X21470952Y-91527380D01*
X21709047Y-91527380D01*
X21804285Y-91575000D01*
X21851904Y-91622619D01*
X21899523Y-91717857D01*
X21899523Y-91813095D01*
X21851904Y-91955952D01*
X21280476Y-92527380D01*
X21899523Y-92527380D01*
X22280476Y-91622619D02*
X22328095Y-91575000D01*
X22423333Y-91527380D01*
X22661428Y-91527380D01*
X22756666Y-91575000D01*
X22804285Y-91622619D01*
X22851904Y-91717857D01*
X22851904Y-91813095D01*
X22804285Y-91955952D01*
X22232857Y-92527380D01*
X22851904Y-92527380D01*
%TO.C,R23*%
X71572380Y-86367857D02*
X71096190Y-86701190D01*
X71572380Y-86939285D02*
X70572380Y-86939285D01*
X70572380Y-86558333D01*
X70620000Y-86463095D01*
X70667619Y-86415476D01*
X70762857Y-86367857D01*
X70905714Y-86367857D01*
X71000952Y-86415476D01*
X71048571Y-86463095D01*
X71096190Y-86558333D01*
X71096190Y-86939285D01*
X70667619Y-85986904D02*
X70620000Y-85939285D01*
X70572380Y-85844047D01*
X70572380Y-85605952D01*
X70620000Y-85510714D01*
X70667619Y-85463095D01*
X70762857Y-85415476D01*
X70858095Y-85415476D01*
X71000952Y-85463095D01*
X71572380Y-86034523D01*
X71572380Y-85415476D01*
X70572380Y-85082142D02*
X70572380Y-84463095D01*
X70953333Y-84796428D01*
X70953333Y-84653571D01*
X71000952Y-84558333D01*
X71048571Y-84510714D01*
X71143809Y-84463095D01*
X71381904Y-84463095D01*
X71477142Y-84510714D01*
X71524761Y-84558333D01*
X71572380Y-84653571D01*
X71572380Y-84939285D01*
X71524761Y-85034523D01*
X71477142Y-85082142D01*
%TO.C,R24*%
X75382380Y-86367857D02*
X74906190Y-86701190D01*
X75382380Y-86939285D02*
X74382380Y-86939285D01*
X74382380Y-86558333D01*
X74430000Y-86463095D01*
X74477619Y-86415476D01*
X74572857Y-86367857D01*
X74715714Y-86367857D01*
X74810952Y-86415476D01*
X74858571Y-86463095D01*
X74906190Y-86558333D01*
X74906190Y-86939285D01*
X74477619Y-85986904D02*
X74430000Y-85939285D01*
X74382380Y-85844047D01*
X74382380Y-85605952D01*
X74430000Y-85510714D01*
X74477619Y-85463095D01*
X74572857Y-85415476D01*
X74668095Y-85415476D01*
X74810952Y-85463095D01*
X75382380Y-86034523D01*
X75382380Y-85415476D01*
X74715714Y-84558333D02*
X75382380Y-84558333D01*
X74334761Y-84796428D02*
X75049047Y-85034523D01*
X75049047Y-84415476D01*
%TO.C,RV1*%
X43854761Y-116022380D02*
X43521428Y-115546190D01*
X43283333Y-116022380D02*
X43283333Y-115022380D01*
X43664285Y-115022380D01*
X43759523Y-115070000D01*
X43807142Y-115117619D01*
X43854761Y-115212857D01*
X43854761Y-115355714D01*
X43807142Y-115450952D01*
X43759523Y-115498571D01*
X43664285Y-115546190D01*
X43283333Y-115546190D01*
X44140476Y-115022380D02*
X44473809Y-116022380D01*
X44807142Y-115022380D01*
X45664285Y-116022380D02*
X45092857Y-116022380D01*
X45378571Y-116022380D02*
X45378571Y-115022380D01*
X45283333Y-115165238D01*
X45188095Y-115260476D01*
X45092857Y-115308095D01*
%TO.C,RV2*%
X43854761Y-124277380D02*
X43521428Y-123801190D01*
X43283333Y-124277380D02*
X43283333Y-123277380D01*
X43664285Y-123277380D01*
X43759523Y-123325000D01*
X43807142Y-123372619D01*
X43854761Y-123467857D01*
X43854761Y-123610714D01*
X43807142Y-123705952D01*
X43759523Y-123753571D01*
X43664285Y-123801190D01*
X43283333Y-123801190D01*
X44140476Y-123277380D02*
X44473809Y-124277380D01*
X44807142Y-123277380D01*
X45092857Y-123372619D02*
X45140476Y-123325000D01*
X45235714Y-123277380D01*
X45473809Y-123277380D01*
X45569047Y-123325000D01*
X45616666Y-123372619D01*
X45664285Y-123467857D01*
X45664285Y-123563095D01*
X45616666Y-123705952D01*
X45045238Y-124277380D01*
X45664285Y-124277380D01*
%TO.C,RV3*%
X43854761Y-132532380D02*
X43521428Y-132056190D01*
X43283333Y-132532380D02*
X43283333Y-131532380D01*
X43664285Y-131532380D01*
X43759523Y-131580000D01*
X43807142Y-131627619D01*
X43854761Y-131722857D01*
X43854761Y-131865714D01*
X43807142Y-131960952D01*
X43759523Y-132008571D01*
X43664285Y-132056190D01*
X43283333Y-132056190D01*
X44140476Y-131532380D02*
X44473809Y-132532380D01*
X44807142Y-131532380D01*
X45045238Y-131532380D02*
X45664285Y-131532380D01*
X45330952Y-131913333D01*
X45473809Y-131913333D01*
X45569047Y-131960952D01*
X45616666Y-132008571D01*
X45664285Y-132103809D01*
X45664285Y-132341904D01*
X45616666Y-132437142D01*
X45569047Y-132484761D01*
X45473809Y-132532380D01*
X45188095Y-132532380D01*
X45092857Y-132484761D01*
X45045238Y-132437142D01*
%TO.C,RV4*%
X48874761Y-80357380D02*
X48541428Y-79881190D01*
X48303333Y-80357380D02*
X48303333Y-79357380D01*
X48684285Y-79357380D01*
X48779523Y-79405000D01*
X48827142Y-79452619D01*
X48874761Y-79547857D01*
X48874761Y-79690714D01*
X48827142Y-79785952D01*
X48779523Y-79833571D01*
X48684285Y-79881190D01*
X48303333Y-79881190D01*
X49160476Y-79357380D02*
X49493809Y-80357380D01*
X49827142Y-79357380D01*
X50589047Y-79690714D02*
X50589047Y-80357380D01*
X50350952Y-79309761D02*
X50112857Y-80024047D01*
X50731904Y-80024047D01*
%TO.C,U1*%
X112903095Y-125392380D02*
X112903095Y-126201904D01*
X112950714Y-126297142D01*
X112998333Y-126344761D01*
X113093571Y-126392380D01*
X113284047Y-126392380D01*
X113379285Y-126344761D01*
X113426904Y-126297142D01*
X113474523Y-126201904D01*
X113474523Y-125392380D01*
X114474523Y-126392380D02*
X113903095Y-126392380D01*
X114188809Y-126392380D02*
X114188809Y-125392380D01*
X114093571Y-125535238D01*
X113998333Y-125630476D01*
X113903095Y-125678095D01*
%TO.C,U2*%
X97663095Y-125392380D02*
X97663095Y-126201904D01*
X97710714Y-126297142D01*
X97758333Y-126344761D01*
X97853571Y-126392380D01*
X98044047Y-126392380D01*
X98139285Y-126344761D01*
X98186904Y-126297142D01*
X98234523Y-126201904D01*
X98234523Y-125392380D01*
X98663095Y-125487619D02*
X98710714Y-125440000D01*
X98805952Y-125392380D01*
X99044047Y-125392380D01*
X99139285Y-125440000D01*
X99186904Y-125487619D01*
X99234523Y-125582857D01*
X99234523Y-125678095D01*
X99186904Y-125820952D01*
X98615476Y-126392380D01*
X99234523Y-126392380D01*
%TO.C,U3*%
X103378095Y-105072380D02*
X103378095Y-105881904D01*
X103425714Y-105977142D01*
X103473333Y-106024761D01*
X103568571Y-106072380D01*
X103759047Y-106072380D01*
X103854285Y-106024761D01*
X103901904Y-105977142D01*
X103949523Y-105881904D01*
X103949523Y-105072380D01*
X104330476Y-105072380D02*
X104949523Y-105072380D01*
X104616190Y-105453333D01*
X104759047Y-105453333D01*
X104854285Y-105500952D01*
X104901904Y-105548571D01*
X104949523Y-105643809D01*
X104949523Y-105881904D01*
X104901904Y-105977142D01*
X104854285Y-106024761D01*
X104759047Y-106072380D01*
X104473333Y-106072380D01*
X104378095Y-106024761D01*
X104330476Y-105977142D01*
%TO.C,U4*%
X52582380Y-36321904D02*
X53391904Y-36321904D01*
X53487142Y-36274285D01*
X53534761Y-36226666D01*
X53582380Y-36131428D01*
X53582380Y-35940952D01*
X53534761Y-35845714D01*
X53487142Y-35798095D01*
X53391904Y-35750476D01*
X52582380Y-35750476D01*
X52915714Y-34845714D02*
X53582380Y-34845714D01*
X52534761Y-35083809D02*
X53249047Y-35321904D01*
X53249047Y-34702857D01*
%TO.C,U5*%
X91948095Y-101477380D02*
X91948095Y-102286904D01*
X91995714Y-102382142D01*
X92043333Y-102429761D01*
X92138571Y-102477380D01*
X92329047Y-102477380D01*
X92424285Y-102429761D01*
X92471904Y-102382142D01*
X92519523Y-102286904D01*
X92519523Y-101477380D01*
X93471904Y-101477380D02*
X92995714Y-101477380D01*
X92948095Y-101953571D01*
X92995714Y-101905952D01*
X93090952Y-101858333D01*
X93329047Y-101858333D01*
X93424285Y-101905952D01*
X93471904Y-101953571D01*
X93519523Y-102048809D01*
X93519523Y-102286904D01*
X93471904Y-102382142D01*
X93424285Y-102429761D01*
X93329047Y-102477380D01*
X93090952Y-102477380D01*
X92995714Y-102429761D01*
X92948095Y-102382142D01*
%TO.C,U6*%
X76287380Y-113791904D02*
X77096904Y-113791904D01*
X77192142Y-113744285D01*
X77239761Y-113696666D01*
X77287380Y-113601428D01*
X77287380Y-113410952D01*
X77239761Y-113315714D01*
X77192142Y-113268095D01*
X77096904Y-113220476D01*
X76287380Y-113220476D01*
X76287380Y-112315714D02*
X76287380Y-112506190D01*
X76335000Y-112601428D01*
X76382619Y-112649047D01*
X76525476Y-112744285D01*
X76715952Y-112791904D01*
X77096904Y-112791904D01*
X77192142Y-112744285D01*
X77239761Y-112696666D01*
X77287380Y-112601428D01*
X77287380Y-112410952D01*
X77239761Y-112315714D01*
X77192142Y-112268095D01*
X77096904Y-112220476D01*
X76858809Y-112220476D01*
X76763571Y-112268095D01*
X76715952Y-112315714D01*
X76668333Y-112410952D01*
X76668333Y-112601428D01*
X76715952Y-112696666D01*
X76763571Y-112744285D01*
X76858809Y-112791904D01*
%TO.C,U8*%
X61468095Y-76497380D02*
X61468095Y-77306904D01*
X61515714Y-77402142D01*
X61563333Y-77449761D01*
X61658571Y-77497380D01*
X61849047Y-77497380D01*
X61944285Y-77449761D01*
X61991904Y-77402142D01*
X62039523Y-77306904D01*
X62039523Y-76497380D01*
X62658571Y-76925952D02*
X62563333Y-76878333D01*
X62515714Y-76830714D01*
X62468095Y-76735476D01*
X62468095Y-76687857D01*
X62515714Y-76592619D01*
X62563333Y-76545000D01*
X62658571Y-76497380D01*
X62849047Y-76497380D01*
X62944285Y-76545000D01*
X62991904Y-76592619D01*
X63039523Y-76687857D01*
X63039523Y-76735476D01*
X62991904Y-76830714D01*
X62944285Y-76878333D01*
X62849047Y-76925952D01*
X62658571Y-76925952D01*
X62563333Y-76973571D01*
X62515714Y-77021190D01*
X62468095Y-77116428D01*
X62468095Y-77306904D01*
X62515714Y-77402142D01*
X62563333Y-77449761D01*
X62658571Y-77497380D01*
X62849047Y-77497380D01*
X62944285Y-77449761D01*
X62991904Y-77402142D01*
X63039523Y-77306904D01*
X63039523Y-77116428D01*
X62991904Y-77021190D01*
X62944285Y-76973571D01*
X62849047Y-76925952D01*
%TO.C,U9*%
X43688095Y-45697380D02*
X43688095Y-46506904D01*
X43735714Y-46602142D01*
X43783333Y-46649761D01*
X43878571Y-46697380D01*
X44069047Y-46697380D01*
X44164285Y-46649761D01*
X44211904Y-46602142D01*
X44259523Y-46506904D01*
X44259523Y-45697380D01*
X44783333Y-46697380D02*
X44973809Y-46697380D01*
X45069047Y-46649761D01*
X45116666Y-46602142D01*
X45211904Y-46459285D01*
X45259523Y-46268809D01*
X45259523Y-45887857D01*
X45211904Y-45792619D01*
X45164285Y-45745000D01*
X45069047Y-45697380D01*
X44878571Y-45697380D01*
X44783333Y-45745000D01*
X44735714Y-45792619D01*
X44688095Y-45887857D01*
X44688095Y-46125952D01*
X44735714Y-46221190D01*
X44783333Y-46268809D01*
X44878571Y-46316428D01*
X45069047Y-46316428D01*
X45164285Y-46268809D01*
X45211904Y-46221190D01*
X45259523Y-46125952D01*
%TO.C,J31*%
X27602380Y-56054523D02*
X28316666Y-56054523D01*
X28459523Y-56102142D01*
X28554761Y-56197380D01*
X28602380Y-56340238D01*
X28602380Y-56435476D01*
X27602380Y-55673571D02*
X27602380Y-55054523D01*
X27983333Y-55387857D01*
X27983333Y-55245000D01*
X28030952Y-55149761D01*
X28078571Y-55102142D01*
X28173809Y-55054523D01*
X28411904Y-55054523D01*
X28507142Y-55102142D01*
X28554761Y-55149761D01*
X28602380Y-55245000D01*
X28602380Y-55530714D01*
X28554761Y-55625952D01*
X28507142Y-55673571D01*
X28602380Y-54102142D02*
X28602380Y-54673571D01*
X28602380Y-54387857D02*
X27602380Y-54387857D01*
X27745238Y-54483095D01*
X27840476Y-54578333D01*
X27888095Y-54673571D01*
%TO.C,J15*%
X70997380Y-136699523D02*
X71711666Y-136699523D01*
X71854523Y-136747142D01*
X71949761Y-136842380D01*
X71997380Y-136985238D01*
X71997380Y-137080476D01*
X71997380Y-135699523D02*
X71997380Y-136270952D01*
X71997380Y-135985238D02*
X70997380Y-135985238D01*
X71140238Y-136080476D01*
X71235476Y-136175714D01*
X71283095Y-136270952D01*
X70997380Y-134794761D02*
X70997380Y-135270952D01*
X71473571Y-135318571D01*
X71425952Y-135270952D01*
X71378333Y-135175714D01*
X71378333Y-134937619D01*
X71425952Y-134842380D01*
X71473571Y-134794761D01*
X71568809Y-134747142D01*
X71806904Y-134747142D01*
X71902142Y-134794761D01*
X71949761Y-134842380D01*
X71997380Y-134937619D01*
X71997380Y-135175714D01*
X71949761Y-135270952D01*
X71902142Y-135318571D01*
%TO.C,J20*%
X67770476Y-69092380D02*
X67770476Y-69806666D01*
X67722857Y-69949523D01*
X67627619Y-70044761D01*
X67484761Y-70092380D01*
X67389523Y-70092380D01*
X68199047Y-69187619D02*
X68246666Y-69140000D01*
X68341904Y-69092380D01*
X68580000Y-69092380D01*
X68675238Y-69140000D01*
X68722857Y-69187619D01*
X68770476Y-69282857D01*
X68770476Y-69378095D01*
X68722857Y-69520952D01*
X68151428Y-70092380D01*
X68770476Y-70092380D01*
X69389523Y-69092380D02*
X69484761Y-69092380D01*
X69580000Y-69140000D01*
X69627619Y-69187619D01*
X69675238Y-69282857D01*
X69722857Y-69473333D01*
X69722857Y-69711428D01*
X69675238Y-69901904D01*
X69627619Y-69997142D01*
X69580000Y-70044761D01*
X69484761Y-70092380D01*
X69389523Y-70092380D01*
X69294285Y-70044761D01*
X69246666Y-69997142D01*
X69199047Y-69901904D01*
X69151428Y-69711428D01*
X69151428Y-69473333D01*
X69199047Y-69282857D01*
X69246666Y-69187619D01*
X69294285Y-69140000D01*
X69389523Y-69092380D01*
%TO.C,J30*%
X23320476Y-134072380D02*
X23320476Y-134786666D01*
X23272857Y-134929523D01*
X23177619Y-135024761D01*
X23034761Y-135072380D01*
X22939523Y-135072380D01*
X23701428Y-134072380D02*
X24320476Y-134072380D01*
X23987142Y-134453333D01*
X24130000Y-134453333D01*
X24225238Y-134500952D01*
X24272857Y-134548571D01*
X24320476Y-134643809D01*
X24320476Y-134881904D01*
X24272857Y-134977142D01*
X24225238Y-135024761D01*
X24130000Y-135072380D01*
X23844285Y-135072380D01*
X23749047Y-135024761D01*
X23701428Y-134977142D01*
X24939523Y-134072380D02*
X25034761Y-134072380D01*
X25130000Y-134120000D01*
X25177619Y-134167619D01*
X25225238Y-134262857D01*
X25272857Y-134453333D01*
X25272857Y-134691428D01*
X25225238Y-134881904D01*
X25177619Y-134977142D01*
X25130000Y-135024761D01*
X25034761Y-135072380D01*
X24939523Y-135072380D01*
X24844285Y-135024761D01*
X24796666Y-134977142D01*
X24749047Y-134881904D01*
X24701428Y-134691428D01*
X24701428Y-134453333D01*
X24749047Y-134262857D01*
X24796666Y-134167619D01*
X24844285Y-134120000D01*
X24939523Y-134072380D01*
%TO.C,J21*%
X65702380Y-76374523D02*
X66416666Y-76374523D01*
X66559523Y-76422142D01*
X66654761Y-76517380D01*
X66702380Y-76660238D01*
X66702380Y-76755476D01*
X65797619Y-75945952D02*
X65750000Y-75898333D01*
X65702380Y-75803095D01*
X65702380Y-75565000D01*
X65750000Y-75469761D01*
X65797619Y-75422142D01*
X65892857Y-75374523D01*
X65988095Y-75374523D01*
X66130952Y-75422142D01*
X66702380Y-75993571D01*
X66702380Y-75374523D01*
X66702380Y-74422142D02*
X66702380Y-74993571D01*
X66702380Y-74707857D02*
X65702380Y-74707857D01*
X65845238Y-74803095D01*
X65940476Y-74898333D01*
X65988095Y-74993571D01*
%TO.C,J22*%
X41735476Y-94277380D02*
X41735476Y-94991666D01*
X41687857Y-95134523D01*
X41592619Y-95229761D01*
X41449761Y-95277380D01*
X41354523Y-95277380D01*
X42164047Y-94372619D02*
X42211666Y-94325000D01*
X42306904Y-94277380D01*
X42545000Y-94277380D01*
X42640238Y-94325000D01*
X42687857Y-94372619D01*
X42735476Y-94467857D01*
X42735476Y-94563095D01*
X42687857Y-94705952D01*
X42116428Y-95277380D01*
X42735476Y-95277380D01*
X43116428Y-94372619D02*
X43164047Y-94325000D01*
X43259285Y-94277380D01*
X43497380Y-94277380D01*
X43592619Y-94325000D01*
X43640238Y-94372619D01*
X43687857Y-94467857D01*
X43687857Y-94563095D01*
X43640238Y-94705952D01*
X43068809Y-95277380D01*
X43687857Y-95277380D01*
%TO.C,J2*%
X93007380Y-122888333D02*
X93721666Y-122888333D01*
X93864523Y-122935952D01*
X93959761Y-123031190D01*
X94007380Y-123174047D01*
X94007380Y-123269285D01*
X93102619Y-122459761D02*
X93055000Y-122412142D01*
X93007380Y-122316904D01*
X93007380Y-122078809D01*
X93055000Y-121983571D01*
X93102619Y-121935952D01*
X93197857Y-121888333D01*
X93293095Y-121888333D01*
X93435952Y-121935952D01*
X94007380Y-122507380D01*
X94007380Y-121888333D01*
%TO.C,C2*%
X93138333Y-33552142D02*
X93090714Y-33599761D01*
X92947857Y-33647380D01*
X92852619Y-33647380D01*
X92709761Y-33599761D01*
X92614523Y-33504523D01*
X92566904Y-33409285D01*
X92519285Y-33218809D01*
X92519285Y-33075952D01*
X92566904Y-32885476D01*
X92614523Y-32790238D01*
X92709761Y-32695000D01*
X92852619Y-32647380D01*
X92947857Y-32647380D01*
X93090714Y-32695000D01*
X93138333Y-32742619D01*
X93519285Y-32742619D02*
X93566904Y-32695000D01*
X93662142Y-32647380D01*
X93900238Y-32647380D01*
X93995476Y-32695000D01*
X94043095Y-32742619D01*
X94090714Y-32837857D01*
X94090714Y-32933095D01*
X94043095Y-33075952D01*
X93471666Y-33647380D01*
X94090714Y-33647380D01*
%TO.C,C7*%
X98607142Y-28781666D02*
X98654761Y-28829285D01*
X98702380Y-28972142D01*
X98702380Y-29067380D01*
X98654761Y-29210238D01*
X98559523Y-29305476D01*
X98464285Y-29353095D01*
X98273809Y-29400714D01*
X98130952Y-29400714D01*
X97940476Y-29353095D01*
X97845238Y-29305476D01*
X97750000Y-29210238D01*
X97702380Y-29067380D01*
X97702380Y-28972142D01*
X97750000Y-28829285D01*
X97797619Y-28781666D01*
X97702380Y-28448333D02*
X97702380Y-27781666D01*
X98702380Y-28210238D01*
%TO.C,C8*%
X119562142Y-31321666D02*
X119609761Y-31369285D01*
X119657380Y-31512142D01*
X119657380Y-31607380D01*
X119609761Y-31750238D01*
X119514523Y-31845476D01*
X119419285Y-31893095D01*
X119228809Y-31940714D01*
X119085952Y-31940714D01*
X118895476Y-31893095D01*
X118800238Y-31845476D01*
X118705000Y-31750238D01*
X118657380Y-31607380D01*
X118657380Y-31512142D01*
X118705000Y-31369285D01*
X118752619Y-31321666D01*
X119085952Y-30750238D02*
X119038333Y-30845476D01*
X118990714Y-30893095D01*
X118895476Y-30940714D01*
X118847857Y-30940714D01*
X118752619Y-30893095D01*
X118705000Y-30845476D01*
X118657380Y-30750238D01*
X118657380Y-30559761D01*
X118705000Y-30464523D01*
X118752619Y-30416904D01*
X118847857Y-30369285D01*
X118895476Y-30369285D01*
X118990714Y-30416904D01*
X119038333Y-30464523D01*
X119085952Y-30559761D01*
X119085952Y-30750238D01*
X119133571Y-30845476D01*
X119181190Y-30893095D01*
X119276428Y-30940714D01*
X119466904Y-30940714D01*
X119562142Y-30893095D01*
X119609761Y-30845476D01*
X119657380Y-30750238D01*
X119657380Y-30559761D01*
X119609761Y-30464523D01*
X119562142Y-30416904D01*
X119466904Y-30369285D01*
X119276428Y-30369285D01*
X119181190Y-30416904D01*
X119133571Y-30464523D01*
X119085952Y-30559761D01*
%TO.C,J4*%
X77132380Y-23828333D02*
X77846666Y-23828333D01*
X77989523Y-23875952D01*
X78084761Y-23971190D01*
X78132380Y-24114047D01*
X78132380Y-24209285D01*
X77465714Y-22923571D02*
X78132380Y-22923571D01*
X77084761Y-23161666D02*
X77799047Y-23399761D01*
X77799047Y-22780714D01*
%TO.C,R25*%
X87912380Y-33027857D02*
X87436190Y-33361190D01*
X87912380Y-33599285D02*
X86912380Y-33599285D01*
X86912380Y-33218333D01*
X86960000Y-33123095D01*
X87007619Y-33075476D01*
X87102857Y-33027857D01*
X87245714Y-33027857D01*
X87340952Y-33075476D01*
X87388571Y-33123095D01*
X87436190Y-33218333D01*
X87436190Y-33599285D01*
X87007619Y-32646904D02*
X86960000Y-32599285D01*
X86912380Y-32504047D01*
X86912380Y-32265952D01*
X86960000Y-32170714D01*
X87007619Y-32123095D01*
X87102857Y-32075476D01*
X87198095Y-32075476D01*
X87340952Y-32123095D01*
X87912380Y-32694523D01*
X87912380Y-32075476D01*
X86912380Y-31170714D02*
X86912380Y-31646904D01*
X87388571Y-31694523D01*
X87340952Y-31646904D01*
X87293333Y-31551666D01*
X87293333Y-31313571D01*
X87340952Y-31218333D01*
X87388571Y-31170714D01*
X87483809Y-31123095D01*
X87721904Y-31123095D01*
X87817142Y-31170714D01*
X87864761Y-31218333D01*
X87912380Y-31313571D01*
X87912380Y-31551666D01*
X87864761Y-31646904D01*
X87817142Y-31694523D01*
%TO.C,R26*%
X82832380Y-33027857D02*
X82356190Y-33361190D01*
X82832380Y-33599285D02*
X81832380Y-33599285D01*
X81832380Y-33218333D01*
X81880000Y-33123095D01*
X81927619Y-33075476D01*
X82022857Y-33027857D01*
X82165714Y-33027857D01*
X82260952Y-33075476D01*
X82308571Y-33123095D01*
X82356190Y-33218333D01*
X82356190Y-33599285D01*
X81927619Y-32646904D02*
X81880000Y-32599285D01*
X81832380Y-32504047D01*
X81832380Y-32265952D01*
X81880000Y-32170714D01*
X81927619Y-32123095D01*
X82022857Y-32075476D01*
X82118095Y-32075476D01*
X82260952Y-32123095D01*
X82832380Y-32694523D01*
X82832380Y-32075476D01*
X81832380Y-31218333D02*
X81832380Y-31408809D01*
X81880000Y-31504047D01*
X81927619Y-31551666D01*
X82070476Y-31646904D01*
X82260952Y-31694523D01*
X82641904Y-31694523D01*
X82737142Y-31646904D01*
X82784761Y-31599285D01*
X82832380Y-31504047D01*
X82832380Y-31313571D01*
X82784761Y-31218333D01*
X82737142Y-31170714D01*
X82641904Y-31123095D01*
X82403809Y-31123095D01*
X82308571Y-31170714D01*
X82260952Y-31218333D01*
X82213333Y-31313571D01*
X82213333Y-31504047D01*
X82260952Y-31599285D01*
X82308571Y-31646904D01*
X82403809Y-31694523D01*
%TO.C,R27*%
X97777380Y-31757857D02*
X97301190Y-32091190D01*
X97777380Y-32329285D02*
X96777380Y-32329285D01*
X96777380Y-31948333D01*
X96825000Y-31853095D01*
X96872619Y-31805476D01*
X96967857Y-31757857D01*
X97110714Y-31757857D01*
X97205952Y-31805476D01*
X97253571Y-31853095D01*
X97301190Y-31948333D01*
X97301190Y-32329285D01*
X96872619Y-31376904D02*
X96825000Y-31329285D01*
X96777380Y-31234047D01*
X96777380Y-30995952D01*
X96825000Y-30900714D01*
X96872619Y-30853095D01*
X96967857Y-30805476D01*
X97063095Y-30805476D01*
X97205952Y-30853095D01*
X97777380Y-31424523D01*
X97777380Y-30805476D01*
X96777380Y-30472142D02*
X96777380Y-29805476D01*
X97777380Y-30234047D01*
%TD*%
M02*
