M48
; DRILL file {KiCad (5.1.6)-1} date 04/08/22 07:46:18
; FORMAT={-:-/ absolute / inch / decimal}
; #@! TF.CreationDate,2022-04-08T07:46:18+02:00
; #@! TF.GenerationSoftware,Kicad,Pcbnew,(5.1.6)-1
; #@! TF.FileFunction,Plated,1,2,PTH
FMAT,2
INCH
T1C0.0315
T2C0.0394
T3C0.0402
T4C0.0433
T5C0.0512
%
G90
G05
T1
X0.85Y-3.35
X1.075Y-4.8
X1.1Y-2.8791
X1.1801Y-2.7801
X1.725Y-3.275
X1.725Y-3.275
X1.85Y-5.45
X2.3Y-2.45
X2.325Y-5.225
X2.325Y-4.975
X2.375Y-1.7
X2.375Y-2.025
X2.375Y-1.6
X2.575Y-2.15
X2.575Y-2.45
X2.575Y-2.45
X2.625Y-5.575
X2.725Y-1.825
X2.85Y-2.1
X2.925Y-2.525
X2.975Y-1.7
X2.975Y-3.025
X3.0Y-2.525
X3.0Y-2.925
X3.175Y-1.7
X3.3Y-4.475
X3.55Y-4.7
X3.575Y-5.425
X3.6Y-2.825
X3.65Y-4.95
X3.675Y-2.9191
X3.8Y-4.45
X4.025Y-4.95
X4.075Y-2.075
X4.175Y-0.875
X4.275Y-1.9
X4.375Y-1.5
X4.425Y-5.775
X4.425Y-5.775
X4.625Y-4.95
X4.175Y-3.525
X4.175Y-3.925
X2.3281Y-2.85
X2.525Y-2.85
X3.675Y-1.85
X4.075Y-1.85
X0.65Y-3.925
X1.05Y-3.925
X3.875Y-3.25
X4.275Y-3.25
X2.8Y-3.175
X2.8Y-3.575
X3.5Y-3.725
X3.5Y-3.825
X3.5Y-3.925
X3.8Y-3.725
X3.8Y-3.825
X3.8Y-3.925
X3.775Y-2.35
X4.075Y-2.35
X1.7Y-1.1
X2.0Y-1.1
X1.9Y-3.925
X2.3Y-3.925
X0.65Y-3.325
X1.05Y-3.325
X3.95Y-4.25
X3.95Y-4.35
X3.95Y-4.45
X3.95Y-4.55
X4.25Y-4.25
X4.25Y-4.35
X4.25Y-4.45
X4.25Y-4.55
X4.325Y-5.05
X4.325Y-5.15
X4.325Y-5.25
X4.325Y-5.35
X4.325Y-5.45
X4.325Y-5.55
X4.325Y-5.65
X4.625Y-5.05
X4.625Y-5.15
X4.625Y-5.25
X4.625Y-5.35
X4.625Y-5.45
X4.625Y-5.55
X4.625Y-5.65
X3.75Y-1.0281
X3.75Y-1.225
X3.775Y-2.25
X4.075Y-2.25
X2.65Y-4.075
X2.95Y-4.075
X2.1Y-2.1
X2.1Y-2.2969
X1.9Y-3.775
X2.3Y-3.775
X2.2Y-3.6
X2.6Y-3.6
X1.625Y-4.875
X1.725Y-4.775
X1.725Y-4.975
X4.575Y-1.1281
X4.575Y-1.325
X1.95Y-3.225
X1.95Y-3.425
X2.05Y-3.325
X4.0Y-3.625
X4.0Y-3.925
X2.0Y-4.775
X2.4Y-4.775
X3.775Y-2.475
X4.175Y-2.475
X2.725Y-4.3
X2.725Y-4.6
X2.825Y-4.3
X2.825Y-4.6
X2.925Y-4.3
X2.925Y-4.6
X3.725Y-5.05
X3.725Y-5.15
X3.725Y-5.25
X3.725Y-5.35
X3.725Y-5.45
X3.725Y-5.55
X3.725Y-5.65
X4.025Y-5.05
X4.025Y-5.15
X4.025Y-5.25
X4.025Y-5.35
X4.025Y-5.45
X4.025Y-5.55
X4.025Y-5.65
X3.925Y-1.025
X3.925Y-1.425
X2.95Y-3.175
X2.95Y-3.575
X3.15Y-1.075
X3.15Y-1.475
X2.1Y-2.425
X2.1Y-2.6219
X1.65Y-2.85
X1.7484Y-2.85
X1.9266Y-2.85
X2.025Y-2.85
X3.35Y-3.175
X3.35Y-3.575
X3.375Y-1.825
X3.375Y-2.225
X1.6Y-0.95
X2.0Y-0.95
X1.8Y-1.25
X1.8Y-1.55
X1.9Y-1.25
X1.9Y-1.55
X2.0Y-1.25
X2.0Y-1.55
X0.65Y-3.625
X1.05Y-3.625
X3.35Y-1.075
X3.35Y-1.475
X4.175Y-4.725
X4.575Y-4.725
X3.775Y-2.75
X4.075Y-2.75
X2.275Y-1.175
X2.275Y-1.575
X2.55Y-3.925
X2.95Y-3.925
X3.6Y-4.15
X3.6Y-4.55
X1.6Y-3.6
X2.0Y-3.6
X1.625Y-5.2
X1.725Y-5.1
X1.725Y-5.3
X3.775Y-2.875
X4.075Y-2.875
X4.075Y-1.025
X4.075Y-1.325
X4.175Y-1.025
X4.175Y-1.325
X4.275Y-1.025
X4.275Y-1.325
X4.375Y-1.025
X4.375Y-1.325
X3.775Y-2.625
X4.175Y-2.625
X0.65Y-4.225
X1.05Y-4.225
X3.95Y-4.075
X4.35Y-4.075
X1.625Y-4.55
X1.725Y-4.45
X1.725Y-4.65
X2.3Y-3.125
X2.3Y-3.225
X2.3Y-3.325
X2.3Y-3.425
X2.6Y-3.125
X2.6Y-3.225
X2.6Y-3.325
X2.6Y-3.425
X3.575Y-1.425
X3.7719Y-1.425
T2
X1.2Y-2.175
X1.3Y-2.175
X1.4Y-2.175
X3.775Y-4.825
X3.875Y-4.825
X3.975Y-4.825
X4.425Y-4.25
X4.425Y-4.35
X4.425Y-4.45
X4.525Y-4.25
X4.525Y-4.35
X4.525Y-4.45
X1.425Y-1.1
X1.425Y-1.2
X1.425Y-1.3
X1.425Y-1.4
X1.425Y-1.5
X0.9986Y-0.9793
X0.9986Y-1.0793
X3.4986Y-0.9793
X3.4986Y-1.0793
X4.3Y-2.35
X4.3Y-2.45
X0.85Y-4.375
X0.95Y-4.375
X1.05Y-4.375
X2.225Y-5.35
X2.325Y-5.35
X2.425Y-5.35
X2.525Y-5.35
X2.625Y-5.35
X2.725Y-5.35
X0.85Y-4.075
X0.95Y-4.075
X1.05Y-4.075
X0.85Y-3.475
X0.95Y-3.475
X1.05Y-3.475
X0.95Y-4.7
X0.95Y-4.8
X0.95Y-4.9
X0.95Y-5.0
X0.95Y-5.1
X0.95Y-5.2
X0.85Y-3.775
X0.95Y-3.775
X1.05Y-3.775
X3.525Y-1.825
X3.525Y-1.925
X3.525Y-2.025
X3.525Y-2.125
X3.525Y-2.225
X2.5Y-4.2
X2.5Y-4.3
X2.5Y-4.4
X2.5Y-4.5
X2.5Y-4.6
X3.15Y-0.925
X3.25Y-0.925
X3.35Y-0.925
X2.275Y-1.825
X2.275Y-1.925
X2.375Y-1.825
X2.375Y-1.925
X2.475Y-1.825
X2.475Y-1.925
X2.575Y-1.825
X2.575Y-1.925
X3.4Y-2.425
X3.4Y-2.525
X1.675Y-3.825
X1.675Y-3.925
X4.3Y-2.65
X4.3Y-2.75
X3.575Y-3.1
X3.675Y-3.1
X3.775Y-3.1
X3.875Y-3.1
X3.975Y-3.1
X2.7Y-2.15
X2.7Y-2.25
X2.7Y-2.35
X2.7Y-2.45
X2.7Y-2.55
X2.7Y-2.65
X2.7Y-2.975
X2.8Y-2.975
X3.575Y-3.475
X3.675Y-3.475
X3.775Y-3.475
X3.875Y-3.475
X3.975Y-3.475
T3
X1.2986Y-2.4791
X1.2986Y-2.5791
X1.2986Y-2.6791
X1.2986Y-2.7791
X1.2986Y-2.8791
X1.2986Y-2.9791
X1.2986Y-3.0791
X1.2986Y-3.1791
X1.2986Y-3.3791
X1.2986Y-3.4791
X1.2986Y-3.5791
X1.2986Y-3.6791
X1.2986Y-3.7791
X1.2986Y-3.8791
X1.2986Y-3.9791
X1.2986Y-4.0791
X1.2986Y-4.1791
X1.2986Y-4.2791
X1.2986Y-4.3791
X1.2986Y-4.4791
X1.2986Y-4.5791
X1.2986Y-4.6791
X1.2986Y-4.7791
X1.3986Y-2.4791
X1.3986Y-2.5791
X1.3986Y-2.6791
X1.3986Y-2.7791
X1.3986Y-2.8791
X1.3986Y-2.9791
X1.3986Y-3.0791
X1.3986Y-3.1791
X1.3986Y-3.3791
X1.3986Y-3.4791
X1.3986Y-3.5791
X1.3986Y-3.6791
X1.3986Y-3.7791
X1.3986Y-3.8791
X1.3986Y-3.9791
X1.3986Y-4.0791
X1.3986Y-4.1791
X1.3986Y-4.2791
X1.3986Y-4.3791
X1.3986Y-4.4791
X1.3986Y-4.5791
X1.3986Y-4.6791
X1.3986Y-4.7791
X3.0986Y-2.1191
X3.0986Y-2.2191
X3.0986Y-2.3191
X3.0986Y-2.4191
X3.0986Y-2.5191
X3.0986Y-2.6191
X3.0986Y-2.7191
X3.0986Y-2.8191
X3.0986Y-2.9191
X3.0986Y-3.0191
X3.0986Y-3.1791
X3.0986Y-3.2791
X3.0986Y-3.3791
X3.0986Y-3.4791
X3.0986Y-3.5791
X3.0986Y-3.6791
X3.0986Y-3.7791
X3.0986Y-3.8791
X3.0986Y-3.9791
X3.0986Y-4.0791
X3.0986Y-4.1791
X3.0986Y-4.2791
X3.0986Y-4.3791
X3.0986Y-4.4791
X3.0986Y-4.5791
X3.0986Y-4.6791
X3.0986Y-4.7791
X3.1986Y-2.1191
X3.1986Y-2.2191
X3.1986Y-2.3191
X3.1986Y-2.4191
X3.1986Y-2.5191
X3.1986Y-2.6191
X3.1986Y-2.7191
X3.1986Y-2.8191
X3.1986Y-2.9191
X3.1986Y-3.0191
X3.1986Y-3.1791
X3.1986Y-3.2791
X3.1986Y-3.3791
X3.1986Y-3.4791
X3.1986Y-3.5791
X3.1986Y-3.6791
X3.1986Y-3.7791
X3.1986Y-3.8791
X3.1986Y-3.9791
X3.1986Y-4.0791
X3.1986Y-4.1791
X3.1986Y-4.2791
X3.1986Y-4.3791
X3.1986Y-4.4791
X3.1986Y-4.5791
X3.1986Y-4.6791
X3.1986Y-4.7791
T4
X1.65Y-2.6309
X1.75Y-2.6309
X1.85Y-2.6309
T5
X0.925Y-2.675
X0.925Y-2.875
T0
M30
