%TF.GenerationSoftware,KiCad,Pcbnew,(5.0.1)-4*%
%TF.CreationDate,2021-03-18T16:30:47+01:00*%
%TF.ProjectId,carteDmx512,6361727465446D783531322E6B696361,rev?*%
%TF.SameCoordinates,Original*%
%TF.FileFunction,Copper,L2,Bot,Signal*%
%TF.FilePolarity,Positive*%
%FSLAX46Y46*%
G04 Gerber Fmt 4.6, Leading zero omitted, Abs format (unit mm)*
G04 Created by KiCad (PCBNEW (5.0.1)-4) date 18/03/2021 16:30:47*
%MOMM*%
%LPD*%
G01*
G04 APERTURE LIST*
%TA.AperFunction,NonConductor*%
%ADD10C,0.300000*%
%TD*%
%TA.AperFunction,ComponentPad*%
%ADD11O,2.400000X1.600000*%
%TD*%
%TA.AperFunction,ComponentPad*%
%ADD12R,2.400000X1.600000*%
%TD*%
%TA.AperFunction,ComponentPad*%
%ADD13R,1.700000X1.700000*%
%TD*%
%TA.AperFunction,ComponentPad*%
%ADD14O,1.700000X1.700000*%
%TD*%
%TA.AperFunction,ComponentPad*%
%ADD15O,1.600000X1.600000*%
%TD*%
%TA.AperFunction,ComponentPad*%
%ADD16C,1.600000*%
%TD*%
%TA.AperFunction,ComponentPad*%
%ADD17C,1.440000*%
%TD*%
%TA.AperFunction,ComponentPad*%
%ADD18R,1.600000X2.400000*%
%TD*%
%TA.AperFunction,ComponentPad*%
%ADD19O,1.600000X2.400000*%
%TD*%
%TA.AperFunction,ComponentPad*%
%ADD20R,2.600000X2.600000*%
%TD*%
%TA.AperFunction,ComponentPad*%
%ADD21C,2.600000*%
%TD*%
%TA.AperFunction,ViaPad*%
%ADD22C,1.400000*%
%TD*%
%TA.AperFunction,Conductor*%
%ADD23C,1.000000*%
%TD*%
%TA.AperFunction,Conductor*%
%ADD24C,0.800000*%
%TD*%
G04 APERTURE END LIST*
D10*
X253367857Y-78778571D02*
X253367857Y-77278571D01*
X253010714Y-77278571D01*
X252796428Y-77350000D01*
X252653571Y-77492857D01*
X252582142Y-77635714D01*
X252510714Y-77921428D01*
X252510714Y-78135714D01*
X252582142Y-78421428D01*
X252653571Y-78564285D01*
X252796428Y-78707142D01*
X253010714Y-78778571D01*
X253367857Y-78778571D01*
X251867857Y-78778571D02*
X251867857Y-77278571D01*
X251367857Y-78350000D01*
X250867857Y-77278571D01*
X250867857Y-78778571D01*
X250296428Y-77278571D02*
X249296428Y-78778571D01*
X249296428Y-77278571D02*
X250296428Y-78778571D01*
X248010714Y-77278571D02*
X248725000Y-77278571D01*
X248796428Y-77992857D01*
X248725000Y-77921428D01*
X248582142Y-77850000D01*
X248225000Y-77850000D01*
X248082142Y-77921428D01*
X248010714Y-77992857D01*
X247939285Y-78135714D01*
X247939285Y-78492857D01*
X248010714Y-78635714D01*
X248082142Y-78707142D01*
X248225000Y-78778571D01*
X248582142Y-78778571D01*
X248725000Y-78707142D01*
X248796428Y-78635714D01*
X246510714Y-78778571D02*
X247367857Y-78778571D01*
X246939285Y-78778571D02*
X246939285Y-77278571D01*
X247082142Y-77492857D01*
X247225000Y-77635714D01*
X247367857Y-77707142D01*
X245939285Y-77421428D02*
X245867857Y-77350000D01*
X245725000Y-77278571D01*
X245367857Y-77278571D01*
X245225000Y-77350000D01*
X245153571Y-77421428D01*
X245082142Y-77564285D01*
X245082142Y-77707142D01*
X245153571Y-77921428D01*
X246010714Y-78778571D01*
X245082142Y-78778571D01*
X242225000Y-77207142D02*
X243510714Y-79135714D01*
X240653571Y-77421428D02*
X240582142Y-77350000D01*
X240439285Y-77278571D01*
X240082142Y-77278571D01*
X239939285Y-77350000D01*
X239867857Y-77421428D01*
X239796428Y-77564285D01*
X239796428Y-77707142D01*
X239867857Y-77921428D01*
X240725000Y-78778571D01*
X239796428Y-78778571D01*
X238867857Y-77278571D02*
X238725000Y-77278571D01*
X238582142Y-77350000D01*
X238510714Y-77421428D01*
X238439285Y-77564285D01*
X238367857Y-77850000D01*
X238367857Y-78207142D01*
X238439285Y-78492857D01*
X238510714Y-78635714D01*
X238582142Y-78707142D01*
X238725000Y-78778571D01*
X238867857Y-78778571D01*
X239010714Y-78707142D01*
X239082142Y-78635714D01*
X239153571Y-78492857D01*
X239225000Y-78207142D01*
X239225000Y-77850000D01*
X239153571Y-77564285D01*
X239082142Y-77421428D01*
X239010714Y-77350000D01*
X238867857Y-77278571D01*
X237796428Y-77421428D02*
X237725000Y-77350000D01*
X237582142Y-77278571D01*
X237225000Y-77278571D01*
X237082142Y-77350000D01*
X237010714Y-77421428D01*
X236939285Y-77564285D01*
X236939285Y-77707142D01*
X237010714Y-77921428D01*
X237867857Y-78778571D01*
X236939285Y-78778571D01*
X235510714Y-78778571D02*
X236367857Y-78778571D01*
X235939285Y-78778571D02*
X235939285Y-77278571D01*
X236082142Y-77492857D01*
X236225000Y-77635714D01*
X236367857Y-77707142D01*
X246653571Y-81328571D02*
X247367857Y-81328571D01*
X247367857Y-79828571D01*
X246153571Y-80542857D02*
X245653571Y-80542857D01*
X245439285Y-81328571D02*
X246153571Y-81328571D01*
X246153571Y-79828571D01*
X245439285Y-79828571D01*
X244796428Y-80328571D02*
X244796428Y-81328571D01*
X244796428Y-80471428D02*
X244725000Y-80400000D01*
X244582142Y-80328571D01*
X244367857Y-80328571D01*
X244225000Y-80400000D01*
X244153571Y-80542857D01*
X244153571Y-81328571D01*
X243510714Y-81257142D02*
X243367857Y-81328571D01*
X243082142Y-81328571D01*
X242939285Y-81257142D01*
X242867857Y-81114285D01*
X242867857Y-81042857D01*
X242939285Y-80900000D01*
X243082142Y-80828571D01*
X243296428Y-80828571D01*
X243439285Y-80757142D01*
X243510714Y-80614285D01*
X243510714Y-80542857D01*
X243439285Y-80400000D01*
X243296428Y-80328571D01*
X243082142Y-80328571D01*
X242939285Y-80400000D01*
X242225000Y-80542857D02*
X241725000Y-80542857D01*
X241510714Y-81328571D02*
X242225000Y-81328571D01*
X242225000Y-79828571D01*
X241510714Y-79828571D01*
D11*
%TO.P,U1,14*%
%TO.N,5V*%
X254635000Y-96520000D03*
%TO.P,U1,7*%
%TO.N,GND*%
X247015000Y-111760000D03*
%TO.P,U1,13*%
%TO.N,Net-(J2-Pad3)*%
X254635000Y-99060000D03*
%TO.P,U1,6*%
%TO.N,start*%
X247015000Y-109220000D03*
%TO.P,U1,12*%
%TO.N,Net-(J2-Pad3)*%
X254635000Y-101600000D03*
%TO.P,U1,5*%
%TO.N,out_s*%
X247015000Y-106680000D03*
%TO.P,U1,11*%
%TO.N,Net-(J2-Pad1)*%
X254635000Y-104140000D03*
%TO.P,U1,4*%
%TO.N,Net-(U1-Pad4)*%
X247015000Y-104140000D03*
%TO.P,U1,10*%
%TO.N,N/C*%
X254635000Y-106680000D03*
%TO.P,U1,3*%
X247015000Y-101600000D03*
%TO.P,U1,9*%
X254635000Y-109220000D03*
%TO.P,U1,2*%
X247015000Y-99060000D03*
%TO.P,U1,8*%
X254635000Y-111760000D03*
D12*
%TO.P,U1,1*%
X247015000Y-96520000D03*
%TD*%
D13*
%TO.P,J4,1*%
%TO.N,Net-(J4-Pad1)*%
X205105000Y-73660000D03*
D14*
%TO.P,J4,2*%
%TO.N,Net-(J4-Pad2)*%
X207645000Y-73660000D03*
%TO.P,J4,3*%
%TO.N,TX*%
X205105000Y-76200000D03*
%TO.P,J4,4*%
%TO.N,Net-(J4-Pad4)*%
X207645000Y-76200000D03*
%TO.P,J4,5*%
%TO.N,Net-(J4-Pad5)*%
X205105000Y-78740000D03*
%TO.P,J4,6*%
%TO.N,Net-(J4-Pad6)*%
X207645000Y-78740000D03*
%TO.P,J4,7*%
%TO.N,Net-(J4-Pad7)*%
X205105000Y-81280000D03*
%TO.P,J4,8*%
%TO.N,Net-(J4-Pad8)*%
X207645000Y-81280000D03*
%TO.P,J4,9*%
%TO.N,Net-(J4-Pad9)*%
X205105000Y-83820000D03*
%TO.P,J4,10*%
%TO.N,Net-(J4-Pad10)*%
X207645000Y-83820000D03*
%TO.P,J4,11*%
%TO.N,Net-(J4-Pad11)*%
X205105000Y-86360000D03*
%TO.P,J4,12*%
%TO.N,Net-(J4-Pad12)*%
X207645000Y-86360000D03*
%TO.P,J4,13*%
%TO.N,Net-(J4-Pad13)*%
X205105000Y-88900000D03*
%TO.P,J4,14*%
%TO.N,Net-(J4-Pad14)*%
X207645000Y-88900000D03*
%TO.P,J4,15*%
%TO.N,Net-(J4-Pad15)*%
X205105000Y-91440000D03*
%TO.P,J4,16*%
%TO.N,Net-(J4-Pad16)*%
X207645000Y-91440000D03*
%TO.P,J4,17*%
%TO.N,Net-(J4-Pad17)*%
X205105000Y-93980000D03*
%TO.P,J4,18*%
%TO.N,3.3V*%
X207645000Y-93980000D03*
%TO.P,J4,19*%
%TO.N,Net-(J4-Pad19)*%
X205105000Y-96520000D03*
%TO.P,J4,20*%
%TO.N,5V*%
X207645000Y-96520000D03*
%TO.P,J4,21*%
%TO.N,GND*%
X205105000Y-99060000D03*
%TO.P,J4,22*%
X207645000Y-99060000D03*
%TO.P,J4,23*%
%TO.N,Net-(J4-Pad23)*%
X205105000Y-101600000D03*
%TO.P,J4,24*%
%TO.N,GND*%
X207645000Y-101600000D03*
%TO.P,J4,25*%
%TO.N,Net-(J4-Pad25)*%
X205105000Y-104140000D03*
%TO.P,J4,26*%
%TO.N,Vinput*%
X207645000Y-104140000D03*
%TO.P,J4,27*%
%TO.N,Net-(J4-Pad27)*%
X205105000Y-106680000D03*
%TO.P,J4,28*%
%TO.N,Net-(J4-Pad28)*%
X207645000Y-106680000D03*
%TO.P,J4,29*%
%TO.N,Net-(J4-Pad29)*%
X205105000Y-109220000D03*
%TO.P,J4,30*%
%TO.N,Net-(J4-Pad30)*%
X207645000Y-109220000D03*
%TO.P,J4,31*%
%TO.N,Net-(J4-Pad31)*%
X205105000Y-111760000D03*
%TO.P,J4,32*%
%TO.N,Net-(J4-Pad32)*%
X207645000Y-111760000D03*
%TO.P,J4,33*%
%TO.N,Net-(J4-Pad33)*%
X205105000Y-114300000D03*
%TO.P,J4,34*%
%TO.N,Net-(J4-Pad34)*%
X207645000Y-114300000D03*
%TO.P,J4,35*%
%TO.N,Net-(J4-Pad35)*%
X205105000Y-116840000D03*
%TO.P,J4,36*%
%TO.N,PitchIn_Adapt*%
X207645000Y-116840000D03*
%TO.P,J4,37*%
%TO.N,AnInG*%
X205105000Y-119380000D03*
%TO.P,J4,38*%
%TO.N,VolumeIn_Adapt*%
X207645000Y-119380000D03*
%TO.P,J4,39*%
%TO.N,AnInB*%
X205105000Y-121920000D03*
%TO.P,J4,40*%
%TO.N,AnInR*%
X207645000Y-121920000D03*
%TD*%
%TO.P,J5,40*%
%TO.N,Net-(J5-Pad40)*%
X267970000Y-121920000D03*
%TO.P,J5,39*%
%TO.N,Net-(J5-Pad39)*%
X265430000Y-121920000D03*
%TO.P,J5,38*%
%TO.N,Net-(J5-Pad38)*%
X267970000Y-119380000D03*
%TO.P,J5,37*%
%TO.N,Net-(J5-Pad37)*%
X265430000Y-119380000D03*
%TO.P,J5,36*%
%TO.N,Net-(J5-Pad36)*%
X267970000Y-116840000D03*
%TO.P,J5,35*%
%TO.N,Net-(J5-Pad35)*%
X265430000Y-116840000D03*
%TO.P,J5,34*%
%TO.N,Net-(J5-Pad34)*%
X267970000Y-114300000D03*
%TO.P,J5,33*%
%TO.N,Net-(J5-Pad33)*%
X265430000Y-114300000D03*
%TO.P,J5,32*%
%TO.N,Net-(J5-Pad32)*%
X267970000Y-111760000D03*
%TO.P,J5,31*%
%TO.N,start*%
X265430000Y-111760000D03*
%TO.P,J5,30*%
%TO.N,Net-(J5-Pad30)*%
X267970000Y-109220000D03*
%TO.P,J5,29*%
%TO.N,Net-(J5-Pad29)*%
X265430000Y-109220000D03*
%TO.P,J5,28*%
%TO.N,Net-(J5-Pad28)*%
X267970000Y-106680000D03*
%TO.P,J5,27*%
%TO.N,out_s*%
X265430000Y-106680000D03*
%TO.P,J5,26*%
%TO.N,Net-(J5-Pad26)*%
X267970000Y-104140000D03*
%TO.P,J5,25*%
%TO.N,Net-(J5-Pad25)*%
X265430000Y-104140000D03*
%TO.P,J5,24*%
%TO.N,Net-(J5-Pad24)*%
X267970000Y-101600000D03*
%TO.P,J5,23*%
%TO.N,Net-(J5-Pad23)*%
X265430000Y-101600000D03*
%TO.P,J5,22*%
%TO.N,GND*%
X267970000Y-99060000D03*
%TO.P,J5,21*%
%TO.N,Net-(J5-Pad21)*%
X265430000Y-99060000D03*
%TO.P,J5,20*%
%TO.N,Net-(J5-Pad20)*%
X267970000Y-96520000D03*
%TO.P,J5,19*%
%TO.N,Net-(J5-Pad19)*%
X265430000Y-96520000D03*
%TO.P,J5,18*%
%TO.N,Net-(J5-Pad18)*%
X267970000Y-93980000D03*
%TO.P,J5,17*%
%TO.N,Net-(J5-Pad17)*%
X265430000Y-93980000D03*
%TO.P,J5,16*%
%TO.N,Net-(J5-Pad16)*%
X267970000Y-91440000D03*
%TO.P,J5,15*%
%TO.N,Net-(J5-Pad15)*%
X265430000Y-91440000D03*
%TO.P,J5,14*%
%TO.N,Net-(J5-Pad14)*%
X267970000Y-88900000D03*
%TO.P,J5,13*%
%TO.N,Net-(J5-Pad13)*%
X265430000Y-88900000D03*
%TO.P,J5,12*%
%TO.N,Net-(J5-Pad12)*%
X267970000Y-86360000D03*
%TO.P,J5,11*%
%TO.N,Net-(J5-Pad11)*%
X265430000Y-86360000D03*
%TO.P,J5,10*%
%TO.N,Net-(J5-Pad10)*%
X267970000Y-83820000D03*
%TO.P,J5,9*%
%TO.N,Net-(J5-Pad9)*%
X265430000Y-83820000D03*
%TO.P,J5,8*%
%TO.N,Net-(J5-Pad8)*%
X267970000Y-81280000D03*
%TO.P,J5,7*%
%TO.N,Net-(J5-Pad7)*%
X265430000Y-81280000D03*
%TO.P,J5,6*%
%TO.N,enable*%
X267970000Y-78740000D03*
%TO.P,J5,5*%
%TO.N,Net-(J5-Pad5)*%
X265430000Y-78740000D03*
%TO.P,J5,4*%
%TO.N,Net-(J5-Pad4)*%
X267970000Y-76200000D03*
%TO.P,J5,3*%
%TO.N,Net-(J5-Pad3)*%
X265430000Y-76200000D03*
%TO.P,J5,2*%
%TO.N,Net-(J5-Pad2)*%
X267970000Y-73660000D03*
D13*
%TO.P,J5,1*%
%TO.N,Net-(J5-Pad1)*%
X265430000Y-73660000D03*
%TD*%
%TO.P,J3,1*%
%TO.N,Net-(J3-Pad1)*%
X193675000Y-55245000D03*
D14*
%TO.P,J3,2*%
X196215000Y-55245000D03*
%TO.P,J3,3*%
%TO.N,Net-(J3-Pad3)*%
X193675000Y-57785000D03*
%TO.P,J3,4*%
X196215000Y-57785000D03*
%TO.P,J3,5*%
%TO.N,GND*%
X193675000Y-60325000D03*
%TO.P,J3,6*%
X196215000Y-60325000D03*
%TD*%
D15*
%TO.P,R1,2*%
%TO.N,Net-(J3-Pad3)*%
X235585000Y-51435000D03*
D16*
%TO.P,R1,1*%
%TO.N,Net-(J3-Pad1)*%
X220345000Y-51435000D03*
%TD*%
%TO.P,R2,1*%
%TO.N,Net-(R2-Pad1)*%
X219075000Y-66040000D03*
D15*
%TO.P,R2,2*%
%TO.N,GND*%
X219075000Y-81280000D03*
%TD*%
D17*
%TO.P,RV1,1*%
%TO.N,3.3V*%
X196215000Y-156845000D03*
%TO.P,RV1,2*%
%TO.N,AnInR*%
X198755000Y-154305000D03*
%TO.P,RV1,3*%
%TO.N,GND*%
X196215000Y-151765000D03*
%TD*%
%TO.P,RV2,3*%
%TO.N,GND*%
X196215000Y-131445000D03*
%TO.P,RV2,2*%
%TO.N,AnInG*%
X198755000Y-133985000D03*
%TO.P,RV2,1*%
%TO.N,3.3V*%
X196215000Y-136525000D03*
%TD*%
%TO.P,RV3,3*%
%TO.N,GND*%
X196215000Y-141605000D03*
%TO.P,RV3,2*%
%TO.N,AnInB*%
X198755000Y-144145000D03*
%TO.P,RV3,1*%
%TO.N,3.3V*%
X196215000Y-146685000D03*
%TD*%
D18*
%TO.P,U3,1*%
%TO.N,Net-(R2-Pad1)*%
X224155000Y-66040000D03*
D19*
%TO.P,U3,5*%
%TO.N,GND*%
X231775000Y-58420000D03*
%TO.P,U3,2*%
%TO.N,5V*%
X226695000Y-66040000D03*
%TO.P,U3,6*%
%TO.N,Net-(J3-Pad3)*%
X229235000Y-58420000D03*
%TO.P,U3,3*%
%TO.N,enable*%
X229235000Y-66040000D03*
%TO.P,U3,7*%
%TO.N,Net-(J3-Pad1)*%
X226695000Y-58420000D03*
%TO.P,U3,4*%
%TO.N,DMX_TX*%
X231775000Y-66040000D03*
%TO.P,U3,8*%
%TO.N,5V*%
X224155000Y-58420000D03*
%TD*%
D20*
%TO.P,J6,1*%
%TO.N,GND*%
X263525000Y-153035000D03*
D21*
%TO.P,J6,2*%
%TO.N,Vinput*%
X268605000Y-153035000D03*
%TD*%
D13*
%TO.P,J2,1*%
%TO.N,Net-(J2-Pad1)*%
X261620000Y-53975000D03*
D14*
%TO.P,J2,2*%
%TO.N,DMX_TX*%
X261620000Y-56515000D03*
%TO.P,J2,3*%
%TO.N,Net-(J2-Pad3)*%
X261620000Y-59055000D03*
%TD*%
D12*
%TO.P,U2,1*%
%TO.N,TX*%
X226060000Y-96520000D03*
D11*
%TO.P,U2,8*%
%TO.N,Net-(U1-Pad4)*%
X233680000Y-111760000D03*
%TO.P,U2,2*%
%TO.N,notstart*%
X226060000Y-99060000D03*
%TO.P,U2,9*%
%TO.N,Net-(U2-Pad11)*%
X233680000Y-109220000D03*
%TO.P,U2,3*%
%TO.N,Net-(U2-Pad12)*%
X226060000Y-101600000D03*
%TO.P,U2,10*%
%TO.N,Net-(J2-Pad3)*%
X233680000Y-106680000D03*
%TO.P,U2,4*%
%TO.N,notstart*%
X226060000Y-104140000D03*
%TO.P,U2,11*%
%TO.N,Net-(U2-Pad11)*%
X233680000Y-104140000D03*
%TO.P,U2,5*%
%TO.N,start*%
X226060000Y-106680000D03*
%TO.P,U2,12*%
%TO.N,Net-(U2-Pad12)*%
X233680000Y-101600000D03*
%TO.P,U2,6*%
%TO.N,start*%
X226060000Y-109220000D03*
%TO.P,U2,13*%
%TO.N,Net-(U2-Pad12)*%
X233680000Y-99060000D03*
%TO.P,U2,7*%
%TO.N,GND*%
X226060000Y-111760000D03*
%TO.P,U2,14*%
%TO.N,5V*%
X233680000Y-96520000D03*
%TD*%
D20*
%TO.P,J7,1*%
%TO.N,GND*%
X211455000Y-155575000D03*
D21*
%TO.P,J7,2*%
%TO.N,VolumeIn*%
X216535000Y-155575000D03*
%TD*%
D15*
%TO.P,R3,2*%
%TO.N,VolumeIn_Adapt*%
X215265000Y-130810000D03*
D16*
%TO.P,R3,1*%
%TO.N,VolumeIn*%
X215265000Y-140970000D03*
%TD*%
%TO.P,R4,1*%
%TO.N,VolumeIn_Adapt*%
X220345000Y-130810000D03*
D15*
%TO.P,R4,2*%
%TO.N,GND*%
X220345000Y-140970000D03*
%TD*%
%TO.P,R5,2*%
%TO.N,PitchIn*%
X225425000Y-140970000D03*
D16*
%TO.P,R5,1*%
%TO.N,Net-(R5-Pad1)*%
X225425000Y-130810000D03*
%TD*%
%TO.P,R6,1*%
%TO.N,PitchDC*%
X230505000Y-130810000D03*
D15*
%TO.P,R6,2*%
%TO.N,Net-(R5-Pad1)*%
X230505000Y-140970000D03*
%TD*%
D16*
%TO.P,R7,1*%
%TO.N,GND*%
X243840000Y-153035000D03*
D15*
%TO.P,R7,2*%
%TO.N,Net-(R7-Pad2)*%
X254000000Y-153035000D03*
%TD*%
%TO.P,R8,2*%
%TO.N,PitchIn_Adapt*%
X235585000Y-130810000D03*
D16*
%TO.P,R8,1*%
%TO.N,Net-(R7-Pad2)*%
X235585000Y-140970000D03*
%TD*%
D12*
%TO.P,U4,1*%
%TO.N,PitchIn_Adapt*%
X243840000Y-134620000D03*
D11*
%TO.P,U4,5*%
%TO.N,Net-(RV4-Pad2)*%
X251460000Y-142240000D03*
%TO.P,U4,2*%
%TO.N,Net-(R7-Pad2)*%
X243840000Y-137160000D03*
%TO.P,U4,6*%
%TO.N,PitchDC*%
X251460000Y-139700000D03*
%TO.P,U4,3*%
%TO.N,Net-(R5-Pad1)*%
X243840000Y-139700000D03*
%TO.P,U4,7*%
%TO.N,PitchDC*%
X251460000Y-137160000D03*
%TO.P,U4,4*%
%TO.N,GND*%
X243840000Y-142240000D03*
%TO.P,U4,8*%
%TO.N,Vinput*%
X251460000Y-134620000D03*
%TD*%
D20*
%TO.P,J1,1*%
%TO.N,GND*%
X227330000Y-155575000D03*
D21*
%TO.P,J1,2*%
%TO.N,PitchIn*%
X232410000Y-155575000D03*
%TD*%
D17*
%TO.P,RV4,3*%
%TO.N,GND*%
X262890000Y-140335000D03*
%TO.P,RV4,2*%
%TO.N,Net-(RV4-Pad2)*%
X260350000Y-137795000D03*
%TO.P,RV4,1*%
%TO.N,3.3V*%
X262890000Y-135255000D03*
%TD*%
D22*
%TO.N,start*%
X249555000Y-116840000D03*
X229235000Y-116840000D03*
%TO.N,GND*%
X238125000Y-58420000D03*
X238125000Y-69215000D03*
%TO.N,5V*%
X219710000Y-92075000D03*
X215264996Y-96520000D03*
%TO.N,3.3V*%
X212089998Y-93980002D03*
X212090000Y-124460000D03*
X212089998Y-114300000D03*
X212089998Y-110490000D03*
%TD*%
D23*
%TO.N,AnInB*%
X205105000Y-142240000D02*
X205105000Y-121920000D01*
X198755000Y-144145000D02*
X203200000Y-144145000D01*
X203200000Y-144145000D02*
X205105000Y-142240000D01*
%TO.N,AnInG*%
X198755000Y-133985000D02*
X198755000Y-121285000D01*
X200660000Y-119380000D02*
X205105000Y-119380000D01*
X198755000Y-121285000D02*
X200660000Y-119380000D01*
%TO.N,AnInR*%
X207645000Y-146050000D02*
X207645000Y-121920000D01*
X198755000Y-154305000D02*
X199390000Y-154305000D01*
X199390000Y-154305000D02*
X207645000Y-146050000D01*
%TO.N,out_s*%
X255905000Y-114935000D02*
X264160000Y-106680000D01*
X251460000Y-113665000D02*
X252730000Y-114935000D01*
X264160000Y-106680000D02*
X265430000Y-106680000D01*
X248920000Y-106680000D02*
X251460000Y-109220000D01*
X247015000Y-106680000D02*
X248920000Y-106680000D01*
X251460000Y-109220000D02*
X251460000Y-113665000D01*
X252730000Y-114935000D02*
X255905000Y-114935000D01*
%TO.N,start*%
X265430000Y-111760000D02*
X260350000Y-116840000D01*
X260350000Y-116840000D02*
X249555000Y-116840000D01*
X249555000Y-110195000D02*
X249555000Y-116840000D01*
X247015000Y-109220000D02*
X248580000Y-109220000D01*
X248580000Y-109220000D02*
X249555000Y-110195000D01*
X226060000Y-106680000D02*
X226060000Y-109220000D01*
X226060000Y-109220000D02*
X228260000Y-109220000D01*
X228260000Y-109220000D02*
X229235000Y-110195000D01*
X229235000Y-110195000D02*
X229235000Y-116840000D01*
%TO.N,enable*%
X247967500Y-63500000D02*
X230505000Y-63500000D01*
X230505000Y-63500000D02*
X229235000Y-64770000D01*
X260032500Y-51435000D02*
X247967500Y-63500000D01*
X263525000Y-51435000D02*
X260032500Y-51435000D01*
X269240000Y-78740000D02*
X270510000Y-77470000D01*
X267970000Y-78740000D02*
X269240000Y-78740000D01*
X270510000Y-77470000D02*
X270510000Y-71755000D01*
X270510000Y-71755000D02*
X267335000Y-68580000D01*
X267335000Y-68580000D02*
X267335000Y-55245000D01*
X229235000Y-64770000D02*
X229235000Y-66040000D01*
X267335000Y-55245000D02*
X263525000Y-51435000D01*
%TO.N,TX*%
X219710000Y-96520000D02*
X226060000Y-96520000D01*
X213995000Y-71120000D02*
X213995000Y-90805000D01*
X210185000Y-67310000D02*
X213995000Y-71120000D01*
X202565000Y-76200000D02*
X201295000Y-74930000D01*
X205105000Y-76200000D02*
X202565000Y-76200000D01*
X213995000Y-90805000D02*
X219710000Y-96520000D01*
X201295000Y-74930000D02*
X201295000Y-69215000D01*
X201295000Y-69215000D02*
X203200000Y-67310000D01*
X203200000Y-67310000D02*
X210185000Y-67310000D01*
%TO.N,GND*%
X193675000Y-60325000D02*
X196215000Y-60325000D01*
X231775000Y-58420000D02*
X238125000Y-58420000D01*
%TO.N,5V*%
X224155000Y-58420000D02*
X224155000Y-60325000D01*
X224155000Y-60325000D02*
X226695000Y-62865000D01*
X226695000Y-62865000D02*
X226695000Y-66040000D01*
X207645000Y-96520000D02*
X215264996Y-96520000D01*
X254635000Y-93345000D02*
X254635000Y-96520000D01*
X253365000Y-92075000D02*
X254635000Y-93345000D01*
X226695000Y-66040000D02*
X226695000Y-92075000D01*
X231140000Y-92075000D02*
X226695000Y-92075000D01*
X226695000Y-92075000D02*
X219710000Y-92075000D01*
X233680000Y-96520000D02*
X233680000Y-92075000D01*
X231140000Y-92075000D02*
X233680000Y-92075000D01*
X233680000Y-92075000D02*
X253365000Y-92075000D01*
%TO.N,3.3V*%
X212089996Y-93980000D02*
X212089998Y-93980002D01*
X211455000Y-93980000D02*
X212089996Y-93980000D01*
X207645000Y-93980000D02*
X211455000Y-93980000D01*
X195196767Y-156845000D02*
X193040000Y-154688233D01*
X196215000Y-156845000D02*
X195196767Y-156845000D01*
X193040000Y-137795000D02*
X194310000Y-136525000D01*
X194310000Y-136525000D02*
X196215000Y-136525000D01*
X196215000Y-146685000D02*
X193040000Y-146685000D01*
X193040000Y-154688233D02*
X193040000Y-146685000D01*
X193040000Y-146685000D02*
X193040000Y-137795000D01*
X200025000Y-156845000D02*
X196215000Y-156845000D01*
X210185000Y-146685000D02*
X200025000Y-156845000D01*
X212090000Y-124460000D02*
X210185000Y-126365000D01*
X210185000Y-126365000D02*
X210185000Y-146685000D01*
X212089998Y-110490000D02*
X212089998Y-114300000D01*
X262890000Y-133985000D02*
X262890000Y-135255000D01*
X258445000Y-129540000D02*
X262890000Y-133985000D01*
X245110000Y-129540000D02*
X258445000Y-129540000D01*
X215900000Y-114300000D02*
X219710000Y-118110000D01*
X212089998Y-114300000D02*
X215900000Y-114300000D01*
X219710000Y-118110000D02*
X219710000Y-124460000D01*
X221615000Y-126365000D02*
X241935000Y-126365000D01*
X219710000Y-124460000D02*
X221615000Y-126365000D01*
X241935000Y-126365000D02*
X245110000Y-129540000D01*
%TO.N,Net-(J2-Pad3)*%
X254635000Y-101600000D02*
X254635000Y-99060000D01*
X252095000Y-99060000D02*
X254635000Y-99060000D01*
X250825000Y-97790000D02*
X252095000Y-99060000D01*
X249555000Y-93980000D02*
X250825000Y-95250000D01*
X237490000Y-106680000D02*
X239395000Y-104775000D01*
X250825000Y-95250000D02*
X250825000Y-97790000D01*
X239395000Y-104775000D02*
X239395000Y-97155000D01*
X233680000Y-106680000D02*
X237490000Y-106680000D01*
X239395000Y-97155000D02*
X242570000Y-93980000D01*
X242570000Y-93980000D02*
X249555000Y-93980000D01*
X260350000Y-60325000D02*
X261620000Y-59055000D01*
X260350000Y-99695000D02*
X260350000Y-60325000D01*
X254635000Y-101600000D02*
X258445000Y-101600000D01*
X258445000Y-101600000D02*
X260350000Y-99695000D01*
%TO.N,DMX_TX*%
X258445000Y-56515000D02*
X261620000Y-56515000D01*
X231775000Y-66040000D02*
X248920000Y-66040000D01*
X248920000Y-66040000D02*
X258445000Y-56515000D01*
%TO.N,Net-(J2-Pad1)*%
X265430000Y-56515000D02*
X262890000Y-53975000D01*
X259080000Y-104140000D02*
X262255000Y-100965000D01*
X262890000Y-53975000D02*
X261620000Y-53975000D01*
X262255000Y-63500000D02*
X265430000Y-60325000D01*
X254635000Y-104140000D02*
X259080000Y-104140000D01*
X262255000Y-100965000D02*
X262255000Y-63500000D01*
X265430000Y-60325000D02*
X265430000Y-56515000D01*
%TO.N,Net-(J3-Pad3)*%
X193675000Y-57785000D02*
X196215000Y-57785000D01*
X231140000Y-51435000D02*
X235585000Y-51435000D01*
X229235000Y-51435000D02*
X231140000Y-51435000D01*
X229235000Y-58420000D02*
X229235000Y-51435000D01*
X219710000Y-48895000D02*
X226695000Y-48895000D01*
X192405000Y-57785000D02*
X191135000Y-56515000D01*
X226695000Y-48895000D02*
X229235000Y-51435000D01*
X191135000Y-56515000D02*
X191135000Y-53340000D01*
X193675000Y-57785000D02*
X192405000Y-57785000D01*
X191135000Y-53340000D02*
X192405000Y-52070000D01*
X216535000Y-52070000D02*
X219710000Y-48895000D01*
X192405000Y-52070000D02*
X216535000Y-52070000D01*
%TO.N,Net-(J3-Pad1)*%
X193675000Y-55245000D02*
X196215000Y-55245000D01*
X216535000Y-55245000D02*
X220345000Y-51435000D01*
X196215000Y-55245000D02*
X216535000Y-55245000D01*
X220345000Y-51435000D02*
X224790000Y-51435000D01*
X226695000Y-53340000D02*
X226695000Y-58420000D01*
X224790000Y-51435000D02*
X226695000Y-53340000D01*
%TO.N,Net-(R2-Pad1)*%
X219075000Y-66040000D02*
X224155000Y-66040000D01*
%TO.N,notstart*%
X224155000Y-99060000D02*
X226060000Y-99060000D01*
X222885000Y-100330000D02*
X224155000Y-99060000D01*
X222885000Y-102870000D02*
X222885000Y-100330000D01*
X226060000Y-104140000D02*
X224155000Y-104140000D01*
X224155000Y-104140000D02*
X222885000Y-102870000D01*
%TO.N,Net-(U1-Pad4)*%
X233680000Y-111760000D02*
X237490000Y-111760000D01*
X245110000Y-104140000D02*
X247015000Y-104140000D01*
X237490000Y-111760000D02*
X245110000Y-104140000D01*
%TO.N,Vinput*%
X251460000Y-134620000D02*
X250190000Y-134620000D01*
X250190000Y-134620000D02*
X248920000Y-135890000D01*
X250190000Y-145415000D02*
X248920000Y-144145000D01*
X248920000Y-135890000D02*
X248920000Y-144145000D01*
X265430000Y-137160000D02*
X263525000Y-137160000D01*
X263525000Y-137160000D02*
X255270000Y-145415000D01*
X255270000Y-145415000D02*
X250190000Y-145415000D01*
X268605000Y-140335000D02*
X265430000Y-137160000D01*
X268605000Y-153035000D02*
X268605000Y-140335000D01*
X208280000Y-104140000D02*
X207645000Y-104140000D01*
X221615000Y-114935000D02*
X210820000Y-104140000D01*
X265430000Y-133985000D02*
X259080000Y-127635000D01*
X210820000Y-104140000D02*
X208280000Y-104140000D01*
X265430000Y-137160000D02*
X265430000Y-133985000D01*
X259080000Y-127635000D02*
X246380000Y-127635000D01*
X221615000Y-122555000D02*
X221615000Y-114935000D01*
X246380000Y-127635000D02*
X243205000Y-124460000D01*
X243205000Y-124460000D02*
X223520000Y-124460000D01*
X223520000Y-124460000D02*
X221615000Y-122555000D01*
%TO.N,Net-(U2-Pad11)*%
X233680000Y-109220000D02*
X231775000Y-109220000D01*
X231775000Y-109220000D02*
X231140000Y-108585000D01*
X231140000Y-108585000D02*
X231140000Y-104775000D01*
X231775000Y-104140000D02*
X233680000Y-104140000D01*
X231140000Y-104775000D02*
X231775000Y-104140000D01*
%TO.N,Net-(U2-Pad12)*%
X226060000Y-101600000D02*
X233680000Y-101600000D01*
X233680000Y-101600000D02*
X233680000Y-99060000D01*
%TO.N,PitchIn*%
X225425000Y-144780000D02*
X225425000Y-140970000D01*
X232410000Y-155575000D02*
X232410000Y-151765000D01*
X232410000Y-151765000D02*
X225425000Y-144780000D01*
%TO.N,VolumeIn_Adapt*%
X215265000Y-130810000D02*
X220345000Y-130810000D01*
X207645000Y-119380000D02*
X213995000Y-119380000D01*
X213995000Y-119380000D02*
X215265000Y-120650000D01*
X215265000Y-120650000D02*
X215265000Y-130810000D01*
%TO.N,PitchIn_Adapt*%
X243840000Y-134620000D02*
X240665000Y-131445000D01*
X240030000Y-130810000D02*
X240665000Y-131445000D01*
X235585000Y-130810000D02*
X240030000Y-130810000D01*
X229235000Y-133350000D02*
X233045000Y-133350000D01*
X227965000Y-132080000D02*
X229235000Y-133350000D01*
X215265000Y-116840000D02*
X217805000Y-119380000D01*
X227965000Y-129540000D02*
X227965000Y-132080000D01*
X207645000Y-116840000D02*
X215265000Y-116840000D01*
X217805000Y-119380000D02*
X217805000Y-126365000D01*
X217805000Y-126365000D02*
X219710000Y-128270000D01*
X219710000Y-128270000D02*
X226695000Y-128270000D01*
X233045000Y-133350000D02*
X235585000Y-130810000D01*
X226695000Y-128270000D02*
X227965000Y-129540000D01*
%TO.N,VolumeIn*%
X216535000Y-142240000D02*
X215265000Y-140970000D01*
X216535000Y-155575000D02*
X216535000Y-142240000D01*
%TO.N,Net-(R5-Pad1)*%
X225425000Y-135890000D02*
X230505000Y-140970000D01*
X225425000Y-130810000D02*
X225425000Y-135890000D01*
X230505000Y-142101370D02*
X232548630Y-144145000D01*
X230505000Y-140970000D02*
X230505000Y-142101370D01*
X232548630Y-144145000D02*
X238125000Y-144145000D01*
X238125000Y-144145000D02*
X239395000Y-142875000D01*
X239395000Y-142875000D02*
X239395000Y-140970000D01*
X240665000Y-139700000D02*
X243840000Y-139700000D01*
X239395000Y-140970000D02*
X240665000Y-139700000D01*
%TO.N,PitchDC*%
X251460000Y-137160000D02*
X251460000Y-139700000D01*
X253365000Y-137160000D02*
X251460000Y-137160000D01*
X254000000Y-132715000D02*
X254000000Y-136525000D01*
X254000000Y-136525000D02*
X253365000Y-137160000D01*
X230505000Y-130175000D02*
X231775000Y-128905000D01*
X230505000Y-130810000D02*
X230505000Y-130175000D01*
X231775000Y-128905000D02*
X241300000Y-128905000D01*
X241300000Y-128905000D02*
X243840000Y-131445000D01*
X243840000Y-131445000D02*
X252730000Y-131445000D01*
X252730000Y-131445000D02*
X254000000Y-132715000D01*
%TO.N,Net-(R7-Pad2)*%
X239395000Y-137160000D02*
X243840000Y-137160000D01*
X235585000Y-140970000D02*
X239395000Y-137160000D01*
X248285000Y-153035000D02*
X254000000Y-153035000D01*
X247015000Y-151765000D02*
X248285000Y-153035000D01*
X247015000Y-138430000D02*
X247015000Y-151765000D01*
X243840000Y-137160000D02*
X245745000Y-137160000D01*
X245745000Y-137160000D02*
X247015000Y-138430000D01*
%TO.N,Net-(RV4-Pad2)*%
X255905000Y-142240000D02*
X260350000Y-137795000D01*
X251460000Y-142240000D02*
X255905000Y-142240000D01*
%TD*%
D24*
%TO.N,GND*%
G36*
X272727001Y-162872000D02*
X188283000Y-162872000D01*
X188283000Y-146685000D01*
X191625188Y-146685000D01*
X191632001Y-146754174D01*
X191632000Y-154619079D01*
X191625189Y-154688233D01*
X191632000Y-154757387D01*
X191632000Y-154757396D01*
X191652373Y-154964248D01*
X191732884Y-155229657D01*
X191769414Y-155298000D01*
X191863627Y-155474260D01*
X191995488Y-155634933D01*
X191995491Y-155634936D01*
X192039577Y-155688655D01*
X192093297Y-155732742D01*
X194152258Y-157791704D01*
X194196344Y-157845423D01*
X194250063Y-157889509D01*
X194250066Y-157889512D01*
X194410739Y-158021373D01*
X194541482Y-158091256D01*
X194655342Y-158152116D01*
X194920751Y-158232627D01*
X195127603Y-158253000D01*
X195127612Y-158253000D01*
X195196766Y-158259811D01*
X195265920Y-158253000D01*
X195391898Y-158253000D01*
X195443853Y-158287715D01*
X195740130Y-158410437D01*
X196054656Y-158473000D01*
X196375344Y-158473000D01*
X196689870Y-158410437D01*
X196986147Y-158287715D01*
X197038102Y-158253000D01*
X199955846Y-158253000D01*
X200025000Y-158259811D01*
X200094154Y-158253000D01*
X200094164Y-158253000D01*
X200301016Y-158232627D01*
X200566425Y-158152116D01*
X200811027Y-158021373D01*
X201025423Y-157845423D01*
X201069513Y-157791699D01*
X203009212Y-155852000D01*
X209247000Y-155852000D01*
X209247000Y-156964430D01*
X209281894Y-157139854D01*
X209350341Y-157305099D01*
X209449710Y-157453816D01*
X209576184Y-157580290D01*
X209724901Y-157679659D01*
X209890146Y-157748106D01*
X210065570Y-157783000D01*
X211178000Y-157783000D01*
X211405000Y-157556000D01*
X211405000Y-155625000D01*
X211505000Y-155625000D01*
X211505000Y-157556000D01*
X211732000Y-157783000D01*
X212844430Y-157783000D01*
X213019854Y-157748106D01*
X213185099Y-157679659D01*
X213333816Y-157580290D01*
X213460290Y-157453816D01*
X213559659Y-157305099D01*
X213628106Y-157139854D01*
X213663000Y-156964430D01*
X213663000Y-155852000D01*
X213436000Y-155625000D01*
X211505000Y-155625000D01*
X211405000Y-155625000D01*
X209474000Y-155625000D01*
X209247000Y-155852000D01*
X203009212Y-155852000D01*
X204675642Y-154185570D01*
X209247000Y-154185570D01*
X209247000Y-155298000D01*
X209474000Y-155525000D01*
X211405000Y-155525000D01*
X211405000Y-153594000D01*
X211505000Y-153594000D01*
X211505000Y-155525000D01*
X213436000Y-155525000D01*
X213663000Y-155298000D01*
X213663000Y-154185570D01*
X213628106Y-154010146D01*
X213559659Y-153844901D01*
X213460290Y-153696184D01*
X213333816Y-153569710D01*
X213185099Y-153470341D01*
X213019854Y-153401894D01*
X212844430Y-153367000D01*
X211732000Y-153367000D01*
X211505000Y-153594000D01*
X211405000Y-153594000D01*
X211178000Y-153367000D01*
X210065570Y-153367000D01*
X209890146Y-153401894D01*
X209724901Y-153470341D01*
X209576184Y-153569710D01*
X209449710Y-153696184D01*
X209350341Y-153844901D01*
X209281894Y-154010146D01*
X209247000Y-154185570D01*
X204675642Y-154185570D01*
X211131699Y-147729513D01*
X211185423Y-147685423D01*
X211261608Y-147592591D01*
X211361373Y-147471028D01*
X211492116Y-147226426D01*
X211516538Y-147145915D01*
X211572627Y-146961016D01*
X211593000Y-146754164D01*
X211593000Y-146754154D01*
X211599811Y-146685000D01*
X211593000Y-146615846D01*
X211593000Y-140801777D01*
X213557000Y-140801777D01*
X213557000Y-141138223D01*
X213622638Y-141468205D01*
X213751390Y-141779041D01*
X213938310Y-142058786D01*
X214176214Y-142296690D01*
X214455959Y-142483610D01*
X214766795Y-142612362D01*
X214953235Y-142649447D01*
X215127001Y-142823214D01*
X215127000Y-153860416D01*
X214819934Y-154167482D01*
X214578295Y-154529120D01*
X214411852Y-154930950D01*
X214327000Y-155357531D01*
X214327000Y-155792469D01*
X214411852Y-156219050D01*
X214578295Y-156620880D01*
X214819934Y-156982518D01*
X215127482Y-157290066D01*
X215489120Y-157531705D01*
X215890950Y-157698148D01*
X216317531Y-157783000D01*
X216752469Y-157783000D01*
X217179050Y-157698148D01*
X217580880Y-157531705D01*
X217942518Y-157290066D01*
X218250066Y-156982518D01*
X218491705Y-156620880D01*
X218658148Y-156219050D01*
X218731158Y-155852000D01*
X225122000Y-155852000D01*
X225122000Y-156964430D01*
X225156894Y-157139854D01*
X225225341Y-157305099D01*
X225324710Y-157453816D01*
X225451184Y-157580290D01*
X225599901Y-157679659D01*
X225765146Y-157748106D01*
X225940570Y-157783000D01*
X227053000Y-157783000D01*
X227280000Y-157556000D01*
X227280000Y-155625000D01*
X227380000Y-155625000D01*
X227380000Y-157556000D01*
X227607000Y-157783000D01*
X228719430Y-157783000D01*
X228894854Y-157748106D01*
X229060099Y-157679659D01*
X229208816Y-157580290D01*
X229335290Y-157453816D01*
X229434659Y-157305099D01*
X229503106Y-157139854D01*
X229538000Y-156964430D01*
X229538000Y-155852000D01*
X229311000Y-155625000D01*
X227380000Y-155625000D01*
X227280000Y-155625000D01*
X225349000Y-155625000D01*
X225122000Y-155852000D01*
X218731158Y-155852000D01*
X218743000Y-155792469D01*
X218743000Y-155357531D01*
X218658148Y-154930950D01*
X218491705Y-154529120D01*
X218262153Y-154185570D01*
X225122000Y-154185570D01*
X225122000Y-155298000D01*
X225349000Y-155525000D01*
X227280000Y-155525000D01*
X227280000Y-153594000D01*
X227380000Y-153594000D01*
X227380000Y-155525000D01*
X229311000Y-155525000D01*
X229538000Y-155298000D01*
X229538000Y-154185570D01*
X229503106Y-154010146D01*
X229434659Y-153844901D01*
X229335290Y-153696184D01*
X229208816Y-153569710D01*
X229060099Y-153470341D01*
X228894854Y-153401894D01*
X228719430Y-153367000D01*
X227607000Y-153367000D01*
X227380000Y-153594000D01*
X227280000Y-153594000D01*
X227053000Y-153367000D01*
X225940570Y-153367000D01*
X225765146Y-153401894D01*
X225599901Y-153470341D01*
X225451184Y-153569710D01*
X225324710Y-153696184D01*
X225225341Y-153844901D01*
X225156894Y-154010146D01*
X225122000Y-154185570D01*
X218262153Y-154185570D01*
X218250066Y-154167482D01*
X217943000Y-153860416D01*
X217943000Y-142309153D01*
X217949811Y-142239999D01*
X217943000Y-142170845D01*
X217943000Y-142170836D01*
X217922627Y-141963984D01*
X217842116Y-141698575D01*
X217780454Y-141583214D01*
X217711373Y-141453972D01*
X217579512Y-141293299D01*
X217579509Y-141293296D01*
X217573899Y-141286460D01*
X218666571Y-141286460D01*
X218760560Y-141607825D01*
X218915438Y-141904678D01*
X219125253Y-142165612D01*
X219381942Y-142380599D01*
X219675641Y-142541378D01*
X219995063Y-142641770D01*
X220028540Y-142648427D01*
X220295000Y-142450156D01*
X220295000Y-141020000D01*
X220395000Y-141020000D01*
X220395000Y-142450156D01*
X220661460Y-142648427D01*
X220694937Y-142641770D01*
X221014359Y-142541378D01*
X221308058Y-142380599D01*
X221564747Y-142165612D01*
X221774562Y-141904678D01*
X221929440Y-141607825D01*
X222023429Y-141286460D01*
X221825270Y-141020000D01*
X220395000Y-141020000D01*
X220295000Y-141020000D01*
X218864730Y-141020000D01*
X218666571Y-141286460D01*
X217573899Y-141286460D01*
X217535423Y-141239577D01*
X217481704Y-141195491D01*
X217256213Y-140970000D01*
X223708736Y-140970000D01*
X223741714Y-141304826D01*
X223839379Y-141626786D01*
X223997979Y-141923505D01*
X224017001Y-141946683D01*
X224017000Y-144710846D01*
X224010189Y-144780000D01*
X224017000Y-144849154D01*
X224017000Y-144849163D01*
X224037373Y-145056015D01*
X224117884Y-145321424D01*
X224117885Y-145321425D01*
X224248627Y-145566027D01*
X224380488Y-145726700D01*
X224380491Y-145726703D01*
X224424577Y-145780422D01*
X224478297Y-145824509D01*
X231002001Y-152348213D01*
X231002000Y-153860416D01*
X230694934Y-154167482D01*
X230453295Y-154529120D01*
X230286852Y-154930950D01*
X230202000Y-155357531D01*
X230202000Y-155792469D01*
X230286852Y-156219050D01*
X230453295Y-156620880D01*
X230694934Y-156982518D01*
X231002482Y-157290066D01*
X231364120Y-157531705D01*
X231765950Y-157698148D01*
X232192531Y-157783000D01*
X232627469Y-157783000D01*
X233054050Y-157698148D01*
X233455880Y-157531705D01*
X233817518Y-157290066D01*
X234125066Y-156982518D01*
X234366705Y-156620880D01*
X234533148Y-156219050D01*
X234618000Y-155792469D01*
X234618000Y-155357531D01*
X234533148Y-154930950D01*
X234366705Y-154529120D01*
X234125066Y-154167482D01*
X234080414Y-154122830D01*
X242822881Y-154122830D01*
X242872084Y-154452287D01*
X243167181Y-154613885D01*
X243488134Y-154714807D01*
X243822609Y-154751176D01*
X244157753Y-154721593D01*
X244480685Y-154627194D01*
X244778996Y-154471610D01*
X244807916Y-154452287D01*
X244857119Y-154122830D01*
X243840000Y-153105711D01*
X242822881Y-154122830D01*
X234080414Y-154122830D01*
X233818000Y-153860416D01*
X233818000Y-153017609D01*
X242123824Y-153017609D01*
X242153407Y-153352753D01*
X242247806Y-153675685D01*
X242403390Y-153973996D01*
X242422713Y-154002916D01*
X242752170Y-154052119D01*
X243769289Y-153035000D01*
X243910711Y-153035000D01*
X244927830Y-154052119D01*
X245257287Y-154002916D01*
X245418885Y-153707819D01*
X245519807Y-153386866D01*
X245556176Y-153052391D01*
X245526593Y-152717247D01*
X245432194Y-152394315D01*
X245276610Y-152096004D01*
X245257287Y-152067084D01*
X244927830Y-152017881D01*
X243910711Y-153035000D01*
X243769289Y-153035000D01*
X242752170Y-152017881D01*
X242422713Y-152067084D01*
X242261115Y-152362181D01*
X242160193Y-152683134D01*
X242123824Y-153017609D01*
X233818000Y-153017609D01*
X233818000Y-151947170D01*
X242822881Y-151947170D01*
X243840000Y-152964289D01*
X244857119Y-151947170D01*
X244807916Y-151617713D01*
X244512819Y-151456115D01*
X244191866Y-151355193D01*
X243857391Y-151318824D01*
X243522247Y-151348407D01*
X243199315Y-151442806D01*
X242901004Y-151598390D01*
X242872084Y-151617713D01*
X242822881Y-151947170D01*
X233818000Y-151947170D01*
X233818000Y-151834154D01*
X233824811Y-151765000D01*
X233818000Y-151695846D01*
X233818000Y-151695836D01*
X233797627Y-151488984D01*
X233717116Y-151223575D01*
X233717116Y-151223574D01*
X233586373Y-150978972D01*
X233454512Y-150818300D01*
X233410423Y-150764577D01*
X233356699Y-150720487D01*
X226833000Y-144196788D01*
X226833000Y-141946682D01*
X226852021Y-141923505D01*
X227010621Y-141626786D01*
X227108286Y-141304826D01*
X227141264Y-140970000D01*
X227108286Y-140635174D01*
X227010621Y-140313214D01*
X226852021Y-140016495D01*
X226638582Y-139756418D01*
X226378505Y-139542979D01*
X226081786Y-139384379D01*
X225759826Y-139286714D01*
X225508904Y-139262000D01*
X225341096Y-139262000D01*
X225090174Y-139286714D01*
X224768214Y-139384379D01*
X224471495Y-139542979D01*
X224211418Y-139756418D01*
X223997979Y-140016495D01*
X223839379Y-140313214D01*
X223741714Y-140635174D01*
X223708736Y-140970000D01*
X217256213Y-140970000D01*
X216944447Y-140658235D01*
X216943514Y-140653540D01*
X218666571Y-140653540D01*
X218864730Y-140920000D01*
X220295000Y-140920000D01*
X220295000Y-139489844D01*
X220395000Y-139489844D01*
X220395000Y-140920000D01*
X221825270Y-140920000D01*
X222023429Y-140653540D01*
X221929440Y-140332175D01*
X221774562Y-140035322D01*
X221564747Y-139774388D01*
X221308058Y-139559401D01*
X221014359Y-139398622D01*
X220694937Y-139298230D01*
X220661460Y-139291573D01*
X220395000Y-139489844D01*
X220295000Y-139489844D01*
X220028540Y-139291573D01*
X219995063Y-139298230D01*
X219675641Y-139398622D01*
X219381942Y-139559401D01*
X219125253Y-139774388D01*
X218915438Y-140035322D01*
X218760560Y-140332175D01*
X218666571Y-140653540D01*
X216943514Y-140653540D01*
X216907362Y-140471795D01*
X216778610Y-140160959D01*
X216591690Y-139881214D01*
X216353786Y-139643310D01*
X216074041Y-139456390D01*
X215763205Y-139327638D01*
X215433223Y-139262000D01*
X215096777Y-139262000D01*
X214766795Y-139327638D01*
X214455959Y-139456390D01*
X214176214Y-139643310D01*
X213938310Y-139881214D01*
X213751390Y-140160959D01*
X213622638Y-140471795D01*
X213557000Y-140801777D01*
X211593000Y-140801777D01*
X211593000Y-126948212D01*
X212529040Y-126012172D01*
X212559036Y-126006205D01*
X212851673Y-125884991D01*
X213115040Y-125709015D01*
X213339015Y-125485040D01*
X213514991Y-125221673D01*
X213636205Y-124929036D01*
X213698000Y-124618374D01*
X213698000Y-124301626D01*
X213636205Y-123990964D01*
X213514991Y-123698327D01*
X213339015Y-123434960D01*
X213115040Y-123210985D01*
X212851673Y-123035009D01*
X212559036Y-122913795D01*
X212248374Y-122852000D01*
X211931626Y-122852000D01*
X211620964Y-122913795D01*
X211328327Y-123035009D01*
X211064960Y-123210985D01*
X210840985Y-123434960D01*
X210665009Y-123698327D01*
X210543795Y-123990964D01*
X210537828Y-124020960D01*
X209238297Y-125320491D01*
X209184577Y-125364578D01*
X209140491Y-125418297D01*
X209140488Y-125418300D01*
X209053000Y-125524904D01*
X209053000Y-122975498D01*
X209113796Y-122901418D01*
X209277039Y-122596013D01*
X209377563Y-122264628D01*
X209411506Y-121920000D01*
X209377563Y-121575372D01*
X209277039Y-121243987D01*
X209113796Y-120938582D01*
X208990216Y-120788000D01*
X213411788Y-120788000D01*
X213857000Y-121233213D01*
X213857001Y-129833317D01*
X213837979Y-129856495D01*
X213679379Y-130153214D01*
X213581714Y-130475174D01*
X213548736Y-130810000D01*
X213581714Y-131144826D01*
X213679379Y-131466786D01*
X213837979Y-131763505D01*
X214051418Y-132023582D01*
X214311495Y-132237021D01*
X214608214Y-132395621D01*
X214930174Y-132493286D01*
X215181096Y-132518000D01*
X215348904Y-132518000D01*
X215599826Y-132493286D01*
X215921786Y-132395621D01*
X216218505Y-132237021D01*
X216241682Y-132218000D01*
X219377903Y-132218000D01*
X219535959Y-132323610D01*
X219846795Y-132452362D01*
X220176777Y-132518000D01*
X220513223Y-132518000D01*
X220843205Y-132452362D01*
X221154041Y-132323610D01*
X221433786Y-132136690D01*
X221671690Y-131898786D01*
X221858610Y-131619041D01*
X221987362Y-131308205D01*
X222053000Y-130978223D01*
X222053000Y-130641777D01*
X221987362Y-130311795D01*
X221858610Y-130000959D01*
X221671690Y-129721214D01*
X221628476Y-129678000D01*
X224141524Y-129678000D01*
X224098310Y-129721214D01*
X223911390Y-130000959D01*
X223782638Y-130311795D01*
X223717000Y-130641777D01*
X223717000Y-130978223D01*
X223782638Y-131308205D01*
X223911390Y-131619041D01*
X224017000Y-131777098D01*
X224017001Y-135820836D01*
X224010189Y-135890000D01*
X224037374Y-136166016D01*
X224117885Y-136431425D01*
X224248627Y-136676027D01*
X224380488Y-136836700D01*
X224380492Y-136836704D01*
X224424578Y-136890423D01*
X224478297Y-136934509D01*
X228818775Y-141274987D01*
X228821714Y-141304826D01*
X228919379Y-141626786D01*
X229077979Y-141923505D01*
X229097000Y-141946682D01*
X229097000Y-142032216D01*
X229090189Y-142101370D01*
X229097000Y-142170524D01*
X229097000Y-142170534D01*
X229117373Y-142377386D01*
X229197884Y-142642795D01*
X229263256Y-142765096D01*
X229328627Y-142887397D01*
X229460488Y-143048070D01*
X229460492Y-143048074D01*
X229504578Y-143101793D01*
X229558297Y-143145879D01*
X231504121Y-145091704D01*
X231548207Y-145145423D01*
X231601926Y-145189509D01*
X231601929Y-145189512D01*
X231762602Y-145321373D01*
X231868327Y-145377884D01*
X232007205Y-145452116D01*
X232272614Y-145532627D01*
X232479466Y-145553000D01*
X232479475Y-145553000D01*
X232548629Y-145559811D01*
X232617783Y-145553000D01*
X238055846Y-145553000D01*
X238125000Y-145559811D01*
X238194154Y-145553000D01*
X238194164Y-145553000D01*
X238401016Y-145532627D01*
X238666425Y-145452116D01*
X238911027Y-145321373D01*
X239125423Y-145145423D01*
X239169513Y-145091699D01*
X240341708Y-143919505D01*
X240395422Y-143875423D01*
X240439505Y-143821708D01*
X240439512Y-143821701D01*
X240571373Y-143661028D01*
X240702115Y-143416426D01*
X240702116Y-143416425D01*
X240782627Y-143151016D01*
X240803000Y-142944164D01*
X240803000Y-142944155D01*
X240809811Y-142875001D01*
X240803000Y-142805847D01*
X240803000Y-142556460D01*
X241761573Y-142556460D01*
X241842879Y-142847428D01*
X241992071Y-143147339D01*
X242196906Y-143412382D01*
X242449512Y-143632371D01*
X242740182Y-143798852D01*
X243057746Y-143905427D01*
X243390000Y-143948000D01*
X243790000Y-143948000D01*
X243790000Y-142290000D01*
X241959844Y-142290000D01*
X241761573Y-142556460D01*
X240803000Y-142556460D01*
X240803000Y-141553212D01*
X241248213Y-141108000D01*
X242165697Y-141108000D01*
X241992071Y-141332661D01*
X241842879Y-141632572D01*
X241761573Y-141923540D01*
X241959844Y-142190000D01*
X243790000Y-142190000D01*
X243790000Y-142170000D01*
X243890000Y-142170000D01*
X243890000Y-142190000D01*
X243910000Y-142190000D01*
X243910000Y-142290000D01*
X243890000Y-142290000D01*
X243890000Y-143948000D01*
X244290000Y-143948000D01*
X244622254Y-143905427D01*
X244939818Y-143798852D01*
X245230488Y-143632371D01*
X245483094Y-143412382D01*
X245607000Y-143252055D01*
X245607001Y-151695836D01*
X245600189Y-151765000D01*
X245627374Y-152041016D01*
X245707885Y-152306425D01*
X245838627Y-152551027D01*
X245970488Y-152711700D01*
X245970492Y-152711704D01*
X246014578Y-152765423D01*
X246068296Y-152809509D01*
X247240491Y-153981704D01*
X247284577Y-154035423D01*
X247338296Y-154079509D01*
X247338299Y-154079512D01*
X247498972Y-154211373D01*
X247629715Y-154281256D01*
X247743575Y-154342116D01*
X248008984Y-154422627D01*
X248215836Y-154443000D01*
X248215845Y-154443000D01*
X248284999Y-154449811D01*
X248354153Y-154443000D01*
X253023318Y-154443000D01*
X253046495Y-154462021D01*
X253343214Y-154620621D01*
X253665174Y-154718286D01*
X253916096Y-154743000D01*
X254083904Y-154743000D01*
X254334826Y-154718286D01*
X254656786Y-154620621D01*
X254953505Y-154462021D01*
X255213582Y-154248582D01*
X255427021Y-153988505D01*
X255585621Y-153691786D01*
X255683286Y-153369826D01*
X255688981Y-153312000D01*
X261317000Y-153312000D01*
X261317000Y-154424430D01*
X261351894Y-154599854D01*
X261420341Y-154765099D01*
X261519710Y-154913816D01*
X261646184Y-155040290D01*
X261794901Y-155139659D01*
X261960146Y-155208106D01*
X262135570Y-155243000D01*
X263248000Y-155243000D01*
X263475000Y-155016000D01*
X263475000Y-153085000D01*
X263575000Y-153085000D01*
X263575000Y-155016000D01*
X263802000Y-155243000D01*
X264914430Y-155243000D01*
X265089854Y-155208106D01*
X265255099Y-155139659D01*
X265403816Y-155040290D01*
X265530290Y-154913816D01*
X265629659Y-154765099D01*
X265698106Y-154599854D01*
X265733000Y-154424430D01*
X265733000Y-153312000D01*
X265506000Y-153085000D01*
X263575000Y-153085000D01*
X263475000Y-153085000D01*
X261544000Y-153085000D01*
X261317000Y-153312000D01*
X255688981Y-153312000D01*
X255716264Y-153035000D01*
X255683286Y-152700174D01*
X255585621Y-152378214D01*
X255427021Y-152081495D01*
X255213582Y-151821418D01*
X254999310Y-151645570D01*
X261317000Y-151645570D01*
X261317000Y-152758000D01*
X261544000Y-152985000D01*
X263475000Y-152985000D01*
X263475000Y-151054000D01*
X263575000Y-151054000D01*
X263575000Y-152985000D01*
X265506000Y-152985000D01*
X265733000Y-152758000D01*
X265733000Y-151645570D01*
X265698106Y-151470146D01*
X265629659Y-151304901D01*
X265530290Y-151156184D01*
X265403816Y-151029710D01*
X265255099Y-150930341D01*
X265089854Y-150861894D01*
X264914430Y-150827000D01*
X263802000Y-150827000D01*
X263575000Y-151054000D01*
X263475000Y-151054000D01*
X263248000Y-150827000D01*
X262135570Y-150827000D01*
X261960146Y-150861894D01*
X261794901Y-150930341D01*
X261646184Y-151029710D01*
X261519710Y-151156184D01*
X261420341Y-151304901D01*
X261351894Y-151470146D01*
X261317000Y-151645570D01*
X254999310Y-151645570D01*
X254953505Y-151607979D01*
X254656786Y-151449379D01*
X254334826Y-151351714D01*
X254083904Y-151327000D01*
X253916096Y-151327000D01*
X253665174Y-151351714D01*
X253343214Y-151449379D01*
X253046495Y-151607979D01*
X253023318Y-151627000D01*
X248868213Y-151627000D01*
X248423000Y-151181788D01*
X248423000Y-145639212D01*
X249145491Y-146361704D01*
X249189577Y-146415423D01*
X249243296Y-146459509D01*
X249243299Y-146459512D01*
X249403972Y-146591373D01*
X249534715Y-146661256D01*
X249648575Y-146722116D01*
X249913984Y-146802627D01*
X250120836Y-146823000D01*
X250120845Y-146823000D01*
X250189999Y-146829811D01*
X250259153Y-146823000D01*
X255200846Y-146823000D01*
X255270000Y-146829811D01*
X255339154Y-146823000D01*
X255339164Y-146823000D01*
X255546016Y-146802627D01*
X255811425Y-146722116D01*
X256056027Y-146591373D01*
X256270423Y-146415423D01*
X256314513Y-146361699D01*
X261310258Y-141365954D01*
X261929757Y-141365954D01*
X261969355Y-141687223D01*
X262250851Y-141840850D01*
X262556909Y-141936607D01*
X262875767Y-141970815D01*
X263195172Y-141942160D01*
X263502850Y-141851742D01*
X263786976Y-141703037D01*
X263810645Y-141687223D01*
X263850243Y-141365954D01*
X262890000Y-140405711D01*
X261929757Y-141365954D01*
X261310258Y-141365954D01*
X261495259Y-141180953D01*
X261521963Y-141231976D01*
X261537777Y-141255645D01*
X261859046Y-141295243D01*
X262819289Y-140335000D01*
X262960711Y-140335000D01*
X263920954Y-141295243D01*
X264242223Y-141255645D01*
X264395850Y-140974149D01*
X264491607Y-140668091D01*
X264525815Y-140349233D01*
X264497160Y-140029828D01*
X264406742Y-139722150D01*
X264258037Y-139438024D01*
X264242223Y-139414355D01*
X263920954Y-139374757D01*
X262960711Y-140335000D01*
X262819289Y-140335000D01*
X262805147Y-140320858D01*
X262875858Y-140250147D01*
X262890000Y-140264289D01*
X263850243Y-139304046D01*
X263810645Y-138982777D01*
X263734818Y-138941394D01*
X264108212Y-138568000D01*
X264846788Y-138568000D01*
X267197001Y-140918214D01*
X267197000Y-151320416D01*
X266889934Y-151627482D01*
X266648295Y-151989120D01*
X266481852Y-152390950D01*
X266397000Y-152817531D01*
X266397000Y-153252469D01*
X266481852Y-153679050D01*
X266648295Y-154080880D01*
X266889934Y-154442518D01*
X267197482Y-154750066D01*
X267559120Y-154991705D01*
X267960950Y-155158148D01*
X268387531Y-155243000D01*
X268822469Y-155243000D01*
X269249050Y-155158148D01*
X269650880Y-154991705D01*
X270012518Y-154750066D01*
X270320066Y-154442518D01*
X270561705Y-154080880D01*
X270728148Y-153679050D01*
X270813000Y-153252469D01*
X270813000Y-152817531D01*
X270728148Y-152390950D01*
X270561705Y-151989120D01*
X270320066Y-151627482D01*
X270013000Y-151320416D01*
X270013000Y-140404153D01*
X270019811Y-140334999D01*
X270013000Y-140265845D01*
X270013000Y-140265836D01*
X269992627Y-140058984D01*
X269912116Y-139793575D01*
X269851256Y-139679715D01*
X269781373Y-139548972D01*
X269649512Y-139388299D01*
X269649509Y-139388296D01*
X269605423Y-139334577D01*
X269551704Y-139290491D01*
X266838000Y-136576788D01*
X266838000Y-134054153D01*
X266844811Y-133984999D01*
X266838000Y-133915845D01*
X266838000Y-133915836D01*
X266817627Y-133708984D01*
X266737116Y-133443575D01*
X266676256Y-133329715D01*
X266606373Y-133198972D01*
X266474512Y-133038299D01*
X266474509Y-133038296D01*
X266430423Y-132984577D01*
X266376704Y-132940491D01*
X260124511Y-126688299D01*
X260080423Y-126634577D01*
X259866027Y-126458627D01*
X259621425Y-126327884D01*
X259356016Y-126247373D01*
X259149164Y-126227000D01*
X259149154Y-126227000D01*
X259080000Y-126220189D01*
X259010846Y-126227000D01*
X246963213Y-126227000D01*
X244249512Y-123513300D01*
X244205423Y-123459577D01*
X243991027Y-123283627D01*
X243746425Y-123152884D01*
X243481016Y-123072373D01*
X243274164Y-123052000D01*
X243274154Y-123052000D01*
X243205000Y-123045189D01*
X243135846Y-123052000D01*
X224103212Y-123052000D01*
X223023000Y-121971788D01*
X223023000Y-115004153D01*
X223029811Y-114934999D01*
X223023000Y-114865845D01*
X223023000Y-114865836D01*
X223002627Y-114658984D01*
X222922116Y-114393575D01*
X222791373Y-114148973D01*
X222759244Y-114109824D01*
X222659512Y-113988299D01*
X222659509Y-113988296D01*
X222615423Y-113934577D01*
X222561704Y-113890491D01*
X220747673Y-112076460D01*
X223981573Y-112076460D01*
X224062879Y-112367428D01*
X224212071Y-112667339D01*
X224416906Y-112932382D01*
X224669512Y-113152371D01*
X224960182Y-113318852D01*
X225277746Y-113425427D01*
X225610000Y-113468000D01*
X226010000Y-113468000D01*
X226010000Y-111810000D01*
X224179844Y-111810000D01*
X223981573Y-112076460D01*
X220747673Y-112076460D01*
X211864511Y-103193299D01*
X211820423Y-103139577D01*
X211606027Y-102963627D01*
X211361425Y-102832884D01*
X211096016Y-102752373D01*
X210889164Y-102732000D01*
X210889154Y-102732000D01*
X210820000Y-102725189D01*
X210750846Y-102732000D01*
X208978997Y-102732000D01*
X209096066Y-102592459D01*
X209261803Y-102290300D01*
X209365407Y-101961613D01*
X209372832Y-101924285D01*
X209175183Y-101650000D01*
X207695000Y-101650000D01*
X207695000Y-101670000D01*
X207595000Y-101670000D01*
X207595000Y-101650000D01*
X207575000Y-101650000D01*
X207575000Y-101550000D01*
X207595000Y-101550000D01*
X207595000Y-99110000D01*
X207695000Y-99110000D01*
X207695000Y-101550000D01*
X209175183Y-101550000D01*
X209372832Y-101275715D01*
X209365407Y-101238387D01*
X209261803Y-100909700D01*
X209096066Y-100607541D01*
X208874565Y-100343522D01*
X208857720Y-100330000D01*
X208874565Y-100316478D01*
X209096066Y-100052459D01*
X209261803Y-99750300D01*
X209365407Y-99421613D01*
X209372832Y-99384285D01*
X209175183Y-99110000D01*
X207695000Y-99110000D01*
X207595000Y-99110000D01*
X205155000Y-99110000D01*
X205155000Y-99130000D01*
X205055000Y-99130000D01*
X205055000Y-99110000D01*
X203574817Y-99110000D01*
X203377168Y-99384285D01*
X203384593Y-99421613D01*
X203488197Y-99750300D01*
X203653934Y-100052459D01*
X203875435Y-100316478D01*
X203886754Y-100325564D01*
X203855892Y-100350892D01*
X203636204Y-100618582D01*
X203472961Y-100923987D01*
X203372437Y-101255372D01*
X203338494Y-101600000D01*
X203372437Y-101944628D01*
X203472961Y-102276013D01*
X203636204Y-102581418D01*
X203855892Y-102849108D01*
X203881349Y-102870000D01*
X203855892Y-102890892D01*
X203636204Y-103158582D01*
X203472961Y-103463987D01*
X203372437Y-103795372D01*
X203338494Y-104140000D01*
X203372437Y-104484628D01*
X203472961Y-104816013D01*
X203636204Y-105121418D01*
X203855892Y-105389108D01*
X203881349Y-105410000D01*
X203855892Y-105430892D01*
X203636204Y-105698582D01*
X203472961Y-106003987D01*
X203372437Y-106335372D01*
X203338494Y-106680000D01*
X203372437Y-107024628D01*
X203472961Y-107356013D01*
X203636204Y-107661418D01*
X203855892Y-107929108D01*
X203881349Y-107950000D01*
X203855892Y-107970892D01*
X203636204Y-108238582D01*
X203472961Y-108543987D01*
X203372437Y-108875372D01*
X203338494Y-109220000D01*
X203372437Y-109564628D01*
X203472961Y-109896013D01*
X203636204Y-110201418D01*
X203855892Y-110469108D01*
X203881349Y-110490000D01*
X203855892Y-110510892D01*
X203636204Y-110778582D01*
X203472961Y-111083987D01*
X203372437Y-111415372D01*
X203338494Y-111760000D01*
X203372437Y-112104628D01*
X203472961Y-112436013D01*
X203636204Y-112741418D01*
X203855892Y-113009108D01*
X203881349Y-113030000D01*
X203855892Y-113050892D01*
X203636204Y-113318582D01*
X203472961Y-113623987D01*
X203372437Y-113955372D01*
X203338494Y-114300000D01*
X203372437Y-114644628D01*
X203472961Y-114976013D01*
X203636204Y-115281418D01*
X203855892Y-115549108D01*
X203881349Y-115570000D01*
X203855892Y-115590892D01*
X203636204Y-115858582D01*
X203472961Y-116163987D01*
X203372437Y-116495372D01*
X203338494Y-116840000D01*
X203372437Y-117184628D01*
X203472961Y-117516013D01*
X203636204Y-117821418D01*
X203759784Y-117972000D01*
X200729154Y-117972000D01*
X200660000Y-117965189D01*
X200590846Y-117972000D01*
X200590836Y-117972000D01*
X200383984Y-117992373D01*
X200118575Y-118072884D01*
X200049136Y-118110000D01*
X199873972Y-118203627D01*
X199752409Y-118303392D01*
X199659577Y-118379577D01*
X199615489Y-118433299D01*
X197808297Y-120240491D01*
X197754578Y-120284577D01*
X197710492Y-120338296D01*
X197710488Y-120338300D01*
X197578627Y-120498973D01*
X197447885Y-120743575D01*
X197367374Y-121008984D01*
X197340189Y-121285000D01*
X197347001Y-121354164D01*
X197347000Y-130266257D01*
X197335015Y-130254272D01*
X197175243Y-130414044D01*
X197135645Y-130092777D01*
X196854149Y-129939150D01*
X196548091Y-129843393D01*
X196229233Y-129809185D01*
X195909828Y-129837840D01*
X195602150Y-129928258D01*
X195318024Y-130076963D01*
X195294355Y-130092777D01*
X195254757Y-130414046D01*
X196215000Y-131374289D01*
X196229142Y-131360147D01*
X196299853Y-131430858D01*
X196285711Y-131445000D01*
X196299853Y-131459142D01*
X196229142Y-131529853D01*
X196215000Y-131515711D01*
X195254757Y-132475954D01*
X195294355Y-132797223D01*
X195575851Y-132950850D01*
X195881909Y-133046607D01*
X196200767Y-133080815D01*
X196520172Y-133052160D01*
X196827850Y-132961742D01*
X197111976Y-132813037D01*
X197135645Y-132797223D01*
X197175243Y-132475956D01*
X197335015Y-132635728D01*
X197347000Y-132623743D01*
X197347000Y-133161898D01*
X197312285Y-133213853D01*
X197189563Y-133510130D01*
X197127000Y-133824656D01*
X197127000Y-134145344D01*
X197189563Y-134459870D01*
X197312285Y-134756147D01*
X197490450Y-135022789D01*
X197717211Y-135249550D01*
X197983853Y-135427715D01*
X198280130Y-135550437D01*
X198594656Y-135613000D01*
X198915344Y-135613000D01*
X199229870Y-135550437D01*
X199526147Y-135427715D01*
X199792789Y-135249550D01*
X200019550Y-135022789D01*
X200197715Y-134756147D01*
X200320437Y-134459870D01*
X200383000Y-134145344D01*
X200383000Y-133824656D01*
X200320437Y-133510130D01*
X200197715Y-133213853D01*
X200163000Y-133161898D01*
X200163000Y-121868212D01*
X201243212Y-120788000D01*
X203759784Y-120788000D01*
X203636204Y-120938582D01*
X203472961Y-121243987D01*
X203372437Y-121575372D01*
X203338494Y-121920000D01*
X203372437Y-122264628D01*
X203472961Y-122596013D01*
X203636204Y-122901418D01*
X203697001Y-122975499D01*
X203697000Y-141656788D01*
X202616788Y-142737000D01*
X199578102Y-142737000D01*
X199526147Y-142702285D01*
X199229870Y-142579563D01*
X198915344Y-142517000D01*
X198594656Y-142517000D01*
X198280130Y-142579563D01*
X197983853Y-142702285D01*
X197717211Y-142880450D01*
X197490450Y-143107211D01*
X197312285Y-143373853D01*
X197189563Y-143670130D01*
X197127000Y-143984656D01*
X197127000Y-144305344D01*
X197189563Y-144619870D01*
X197312285Y-144916147D01*
X197490450Y-145182789D01*
X197717211Y-145409550D01*
X197983853Y-145587715D01*
X198280130Y-145710437D01*
X198594656Y-145773000D01*
X198915344Y-145773000D01*
X199229870Y-145710437D01*
X199526147Y-145587715D01*
X199578102Y-145553000D01*
X203130846Y-145553000D01*
X203200000Y-145559811D01*
X203269154Y-145553000D01*
X203269164Y-145553000D01*
X203476016Y-145532627D01*
X203741425Y-145452116D01*
X203986027Y-145321373D01*
X204200423Y-145145423D01*
X204244513Y-145091699D01*
X206051703Y-143284509D01*
X206105422Y-143240423D01*
X206178798Y-143151015D01*
X206237000Y-143080096D01*
X206237000Y-145466788D01*
X199008298Y-152695490D01*
X198915344Y-152677000D01*
X198594656Y-152677000D01*
X198280130Y-152739563D01*
X197983853Y-152862285D01*
X197717211Y-153040450D01*
X197490450Y-153267211D01*
X197312285Y-153533853D01*
X197189563Y-153830130D01*
X197127000Y-154144656D01*
X197127000Y-154465344D01*
X197189563Y-154779870D01*
X197312285Y-155076147D01*
X197490450Y-155342789D01*
X197584661Y-155437000D01*
X197038102Y-155437000D01*
X196986147Y-155402285D01*
X196689870Y-155279563D01*
X196375344Y-155217000D01*
X196054656Y-155217000D01*
X195740130Y-155279563D01*
X195656983Y-155314004D01*
X194448000Y-154105021D01*
X194448000Y-152795954D01*
X195254757Y-152795954D01*
X195294355Y-153117223D01*
X195575851Y-153270850D01*
X195881909Y-153366607D01*
X196200767Y-153400815D01*
X196520172Y-153372160D01*
X196827850Y-153281742D01*
X197111976Y-153133037D01*
X197135645Y-153117223D01*
X197175243Y-152795954D01*
X196215000Y-151835711D01*
X195254757Y-152795954D01*
X194448000Y-152795954D01*
X194448000Y-151750767D01*
X194579185Y-151750767D01*
X194607840Y-152070172D01*
X194698258Y-152377850D01*
X194846963Y-152661976D01*
X194862777Y-152685645D01*
X195184046Y-152725243D01*
X196144289Y-151765000D01*
X196285711Y-151765000D01*
X197245954Y-152725243D01*
X197567223Y-152685645D01*
X197720850Y-152404149D01*
X197816607Y-152098091D01*
X197850815Y-151779233D01*
X197822160Y-151459828D01*
X197731742Y-151152150D01*
X197583037Y-150868024D01*
X197567223Y-150844355D01*
X197245954Y-150804757D01*
X196285711Y-151765000D01*
X196144289Y-151765000D01*
X195184046Y-150804757D01*
X194862777Y-150844355D01*
X194709150Y-151125851D01*
X194613393Y-151431909D01*
X194579185Y-151750767D01*
X194448000Y-151750767D01*
X194448000Y-150734046D01*
X195254757Y-150734046D01*
X196215000Y-151694289D01*
X197175243Y-150734046D01*
X197135645Y-150412777D01*
X196854149Y-150259150D01*
X196548091Y-150163393D01*
X196229233Y-150129185D01*
X195909828Y-150157840D01*
X195602150Y-150248258D01*
X195318024Y-150396963D01*
X195294355Y-150412777D01*
X195254757Y-150734046D01*
X194448000Y-150734046D01*
X194448000Y-148093000D01*
X195391898Y-148093000D01*
X195443853Y-148127715D01*
X195740130Y-148250437D01*
X196054656Y-148313000D01*
X196375344Y-148313000D01*
X196689870Y-148250437D01*
X196986147Y-148127715D01*
X197252789Y-147949550D01*
X197479550Y-147722789D01*
X197657715Y-147456147D01*
X197780437Y-147159870D01*
X197843000Y-146845344D01*
X197843000Y-146524656D01*
X197780437Y-146210130D01*
X197657715Y-145913853D01*
X197479550Y-145647211D01*
X197252789Y-145420450D01*
X196986147Y-145242285D01*
X196689870Y-145119563D01*
X196375344Y-145057000D01*
X196054656Y-145057000D01*
X195740130Y-145119563D01*
X195443853Y-145242285D01*
X195391898Y-145277000D01*
X194448000Y-145277000D01*
X194448000Y-142635954D01*
X195254757Y-142635954D01*
X195294355Y-142957223D01*
X195575851Y-143110850D01*
X195881909Y-143206607D01*
X196200767Y-143240815D01*
X196520172Y-143212160D01*
X196827850Y-143121742D01*
X197111976Y-142973037D01*
X197135645Y-142957223D01*
X197175243Y-142635954D01*
X196215000Y-141675711D01*
X195254757Y-142635954D01*
X194448000Y-142635954D01*
X194448000Y-141590767D01*
X194579185Y-141590767D01*
X194607840Y-141910172D01*
X194698258Y-142217850D01*
X194846963Y-142501976D01*
X194862777Y-142525645D01*
X195184046Y-142565243D01*
X196144289Y-141605000D01*
X196285711Y-141605000D01*
X197245954Y-142565243D01*
X197567223Y-142525645D01*
X197720850Y-142244149D01*
X197816607Y-141938091D01*
X197850815Y-141619233D01*
X197822160Y-141299828D01*
X197731742Y-140992150D01*
X197583037Y-140708024D01*
X197567223Y-140684355D01*
X197245954Y-140644757D01*
X196285711Y-141605000D01*
X196144289Y-141605000D01*
X195184046Y-140644757D01*
X194862777Y-140684355D01*
X194709150Y-140965851D01*
X194613393Y-141271909D01*
X194579185Y-141590767D01*
X194448000Y-141590767D01*
X194448000Y-140574046D01*
X195254757Y-140574046D01*
X196215000Y-141534289D01*
X197175243Y-140574046D01*
X197135645Y-140252777D01*
X196854149Y-140099150D01*
X196548091Y-140003393D01*
X196229233Y-139969185D01*
X195909828Y-139997840D01*
X195602150Y-140088258D01*
X195318024Y-140236963D01*
X195294355Y-140252777D01*
X195254757Y-140574046D01*
X194448000Y-140574046D01*
X194448000Y-138378212D01*
X194893213Y-137933000D01*
X195391898Y-137933000D01*
X195443853Y-137967715D01*
X195740130Y-138090437D01*
X196054656Y-138153000D01*
X196375344Y-138153000D01*
X196689870Y-138090437D01*
X196986147Y-137967715D01*
X197252789Y-137789550D01*
X197479550Y-137562789D01*
X197657715Y-137296147D01*
X197780437Y-136999870D01*
X197843000Y-136685344D01*
X197843000Y-136364656D01*
X197780437Y-136050130D01*
X197657715Y-135753853D01*
X197479550Y-135487211D01*
X197252789Y-135260450D01*
X196986147Y-135082285D01*
X196689870Y-134959563D01*
X196375344Y-134897000D01*
X196054656Y-134897000D01*
X195740130Y-134959563D01*
X195443853Y-135082285D01*
X195391898Y-135117000D01*
X194379153Y-135117000D01*
X194309999Y-135110189D01*
X194240845Y-135117000D01*
X194240836Y-135117000D01*
X194033984Y-135137373D01*
X193768575Y-135217884D01*
X193688940Y-135260450D01*
X193523972Y-135348627D01*
X193363299Y-135480488D01*
X193363296Y-135480491D01*
X193309577Y-135524577D01*
X193265491Y-135578296D01*
X192093296Y-136750491D01*
X192039578Y-136794577D01*
X191995492Y-136848296D01*
X191995488Y-136848300D01*
X191863627Y-137008973D01*
X191732885Y-137253575D01*
X191652374Y-137518984D01*
X191625189Y-137795000D01*
X191632001Y-137864164D01*
X191632000Y-146615836D01*
X191625188Y-146685000D01*
X188283000Y-146685000D01*
X188283000Y-131430767D01*
X194579185Y-131430767D01*
X194607840Y-131750172D01*
X194698258Y-132057850D01*
X194846963Y-132341976D01*
X194862777Y-132365645D01*
X195184046Y-132405243D01*
X196144289Y-131445000D01*
X195184046Y-130484757D01*
X194862777Y-130524355D01*
X194709150Y-130805851D01*
X194613393Y-131111909D01*
X194579185Y-131430767D01*
X188283000Y-131430767D01*
X188283000Y-60649285D01*
X191947168Y-60649285D01*
X191954593Y-60686613D01*
X192058197Y-61015300D01*
X192223934Y-61317459D01*
X192445435Y-61581478D01*
X192714187Y-61797211D01*
X193019863Y-61956368D01*
X193350715Y-62052833D01*
X193625000Y-61855290D01*
X193625000Y-60375000D01*
X193725000Y-60375000D01*
X193725000Y-61855290D01*
X193999285Y-62052833D01*
X194330137Y-61956368D01*
X194635813Y-61797211D01*
X194904565Y-61581478D01*
X194945000Y-61533281D01*
X194985435Y-61581478D01*
X195254187Y-61797211D01*
X195559863Y-61956368D01*
X195890715Y-62052833D01*
X196165000Y-61855290D01*
X196165000Y-60375000D01*
X196265000Y-60375000D01*
X196265000Y-61855290D01*
X196539285Y-62052833D01*
X196870137Y-61956368D01*
X197175813Y-61797211D01*
X197444565Y-61581478D01*
X197666066Y-61317459D01*
X197831803Y-61015300D01*
X197935407Y-60686613D01*
X197942832Y-60649285D01*
X197745183Y-60375000D01*
X196265000Y-60375000D01*
X196165000Y-60375000D01*
X193725000Y-60375000D01*
X193625000Y-60375000D01*
X192144817Y-60375000D01*
X191947168Y-60649285D01*
X188283000Y-60649285D01*
X188283000Y-53340000D01*
X189720189Y-53340000D01*
X189727001Y-53409163D01*
X189727000Y-56445846D01*
X189720189Y-56515000D01*
X189727000Y-56584154D01*
X189727000Y-56584163D01*
X189747373Y-56791015D01*
X189827884Y-57056424D01*
X189833268Y-57066496D01*
X189958627Y-57301027D01*
X190090488Y-57461700D01*
X190090489Y-57461701D01*
X190134577Y-57515422D01*
X190188297Y-57559509D01*
X191360491Y-58731704D01*
X191404577Y-58785423D01*
X191458296Y-58829509D01*
X191458299Y-58829512D01*
X191618972Y-58961373D01*
X191724697Y-59017884D01*
X191863575Y-59092116D01*
X192128984Y-59172627D01*
X192335836Y-59193000D01*
X192335845Y-59193000D01*
X192340609Y-59193469D01*
X192223934Y-59332541D01*
X192058197Y-59634700D01*
X191954593Y-59963387D01*
X191947168Y-60000715D01*
X192144817Y-60275000D01*
X193625000Y-60275000D01*
X193625000Y-60255000D01*
X193725000Y-60255000D01*
X193725000Y-60275000D01*
X196165000Y-60275000D01*
X196165000Y-60255000D01*
X196265000Y-60255000D01*
X196265000Y-60275000D01*
X197745183Y-60275000D01*
X197942832Y-60000715D01*
X197935407Y-59963387D01*
X197831803Y-59634700D01*
X197666066Y-59332541D01*
X197444565Y-59068522D01*
X197433246Y-59059436D01*
X197464108Y-59034108D01*
X197683796Y-58766418D01*
X197847039Y-58461013D01*
X197947563Y-58129628D01*
X197981506Y-57785000D01*
X197947563Y-57440372D01*
X197847039Y-57108987D01*
X197683796Y-56803582D01*
X197560216Y-56653000D01*
X216465846Y-56653000D01*
X216535000Y-56659811D01*
X216604154Y-56653000D01*
X216604164Y-56653000D01*
X216811016Y-56632627D01*
X217076425Y-56552116D01*
X217321027Y-56421373D01*
X217535423Y-56245423D01*
X217579513Y-56191699D01*
X220656764Y-53114448D01*
X220843205Y-53077362D01*
X221154041Y-52948610D01*
X221312097Y-52843000D01*
X224206788Y-52843000D01*
X225287000Y-53923212D01*
X225287001Y-56739466D01*
X225108504Y-56592979D01*
X224811785Y-56434379D01*
X224489825Y-56336714D01*
X224155000Y-56303736D01*
X223820174Y-56336714D01*
X223498214Y-56434379D01*
X223201495Y-56592979D01*
X222941418Y-56806418D01*
X222727979Y-57066496D01*
X222569379Y-57363215D01*
X222471714Y-57685175D01*
X222447000Y-57936097D01*
X222447000Y-58903904D01*
X222471714Y-59154826D01*
X222569379Y-59476786D01*
X222727979Y-59773505D01*
X222747001Y-59796683D01*
X222747001Y-60255836D01*
X222740189Y-60325000D01*
X222767374Y-60601016D01*
X222847885Y-60866425D01*
X222978627Y-61111027D01*
X223110488Y-61271700D01*
X223110492Y-61271704D01*
X223154578Y-61325423D01*
X223208297Y-61369509D01*
X225287000Y-63448213D01*
X225287000Y-63991854D01*
X225132999Y-63945138D01*
X224955000Y-63927607D01*
X223355000Y-63927607D01*
X223177001Y-63945138D01*
X223005842Y-63997059D01*
X222848102Y-64081373D01*
X222709841Y-64194841D01*
X222596373Y-64333102D01*
X222512059Y-64490842D01*
X222469239Y-64632000D01*
X220042097Y-64632000D01*
X219884041Y-64526390D01*
X219573205Y-64397638D01*
X219243223Y-64332000D01*
X218906777Y-64332000D01*
X218576795Y-64397638D01*
X218265959Y-64526390D01*
X217986214Y-64713310D01*
X217748310Y-64951214D01*
X217561390Y-65230959D01*
X217432638Y-65541795D01*
X217367000Y-65871777D01*
X217367000Y-66208223D01*
X217432638Y-66538205D01*
X217561390Y-66849041D01*
X217748310Y-67128786D01*
X217986214Y-67366690D01*
X218265959Y-67553610D01*
X218576795Y-67682362D01*
X218906777Y-67748000D01*
X219243223Y-67748000D01*
X219573205Y-67682362D01*
X219884041Y-67553610D01*
X220042097Y-67448000D01*
X222469239Y-67448000D01*
X222512059Y-67589158D01*
X222596373Y-67746898D01*
X222709841Y-67885159D01*
X222848102Y-67998627D01*
X223005842Y-68082941D01*
X223177001Y-68134862D01*
X223355000Y-68152393D01*
X224955000Y-68152393D01*
X225132999Y-68134862D01*
X225287000Y-68088146D01*
X225287001Y-90667000D01*
X220497102Y-90667000D01*
X220471673Y-90650009D01*
X220179036Y-90528795D01*
X219868374Y-90467000D01*
X219551626Y-90467000D01*
X219240964Y-90528795D01*
X218948327Y-90650009D01*
X218684960Y-90825985D01*
X218460985Y-91049960D01*
X218285009Y-91313327D01*
X218163795Y-91605964D01*
X218102000Y-91916626D01*
X218102000Y-92233374D01*
X218163795Y-92544036D01*
X218285009Y-92836673D01*
X218460985Y-93100040D01*
X218684960Y-93324015D01*
X218948327Y-93499991D01*
X219240964Y-93621205D01*
X219551626Y-93683000D01*
X219868374Y-93683000D01*
X220179036Y-93621205D01*
X220471673Y-93499991D01*
X220497102Y-93483000D01*
X226625836Y-93483000D01*
X226695000Y-93489812D01*
X226764164Y-93483000D01*
X232272001Y-93483000D01*
X232272000Y-95137701D01*
X232066418Y-95306418D01*
X231852979Y-95566495D01*
X231694379Y-95863214D01*
X231596714Y-96185174D01*
X231563736Y-96520000D01*
X231596714Y-96854826D01*
X231694379Y-97176786D01*
X231852979Y-97473505D01*
X232066418Y-97733582D01*
X232135164Y-97790000D01*
X232066418Y-97846418D01*
X231852979Y-98106495D01*
X231694379Y-98403214D01*
X231596714Y-98725174D01*
X231563736Y-99060000D01*
X231596714Y-99394826D01*
X231694379Y-99716786D01*
X231852979Y-100013505D01*
X231999466Y-100192000D01*
X227740534Y-100192000D01*
X227887021Y-100013505D01*
X228045621Y-99716786D01*
X228143286Y-99394826D01*
X228176264Y-99060000D01*
X228143286Y-98725174D01*
X228045621Y-98403214D01*
X227887021Y-98106495D01*
X227825011Y-98030935D01*
X227905159Y-97965159D01*
X228018627Y-97826898D01*
X228102941Y-97669158D01*
X228154862Y-97497999D01*
X228172393Y-97320000D01*
X228172393Y-95720000D01*
X228154862Y-95542001D01*
X228102941Y-95370842D01*
X228018627Y-95213102D01*
X227905159Y-95074841D01*
X227766898Y-94961373D01*
X227609158Y-94877059D01*
X227437999Y-94825138D01*
X227260000Y-94807607D01*
X224860000Y-94807607D01*
X224682001Y-94825138D01*
X224510842Y-94877059D01*
X224353102Y-94961373D01*
X224214841Y-95074841D01*
X224184345Y-95112000D01*
X220293213Y-95112000D01*
X215403000Y-90221788D01*
X215403000Y-81596460D01*
X217396571Y-81596460D01*
X217490560Y-81917825D01*
X217645438Y-82214678D01*
X217855253Y-82475612D01*
X218111942Y-82690599D01*
X218405641Y-82851378D01*
X218725063Y-82951770D01*
X218758540Y-82958427D01*
X219025000Y-82760156D01*
X219025000Y-81330000D01*
X219125000Y-81330000D01*
X219125000Y-82760156D01*
X219391460Y-82958427D01*
X219424937Y-82951770D01*
X219744359Y-82851378D01*
X220038058Y-82690599D01*
X220294747Y-82475612D01*
X220504562Y-82214678D01*
X220659440Y-81917825D01*
X220753429Y-81596460D01*
X220555270Y-81330000D01*
X219125000Y-81330000D01*
X219025000Y-81330000D01*
X217594730Y-81330000D01*
X217396571Y-81596460D01*
X215403000Y-81596460D01*
X215403000Y-80963540D01*
X217396571Y-80963540D01*
X217594730Y-81230000D01*
X219025000Y-81230000D01*
X219025000Y-79799844D01*
X219125000Y-79799844D01*
X219125000Y-81230000D01*
X220555270Y-81230000D01*
X220753429Y-80963540D01*
X220659440Y-80642175D01*
X220504562Y-80345322D01*
X220294747Y-80084388D01*
X220038058Y-79869401D01*
X219744359Y-79708622D01*
X219424937Y-79608230D01*
X219391460Y-79601573D01*
X219125000Y-79799844D01*
X219025000Y-79799844D01*
X218758540Y-79601573D01*
X218725063Y-79608230D01*
X218405641Y-79708622D01*
X218111942Y-79869401D01*
X217855253Y-80084388D01*
X217645438Y-80345322D01*
X217490560Y-80642175D01*
X217396571Y-80963540D01*
X215403000Y-80963540D01*
X215403000Y-71189161D01*
X215409812Y-71120000D01*
X215394937Y-70968972D01*
X215382627Y-70843984D01*
X215302132Y-70578627D01*
X215302116Y-70578574D01*
X215171373Y-70333972D01*
X215039512Y-70173300D01*
X215039509Y-70173297D01*
X214995422Y-70119577D01*
X214941703Y-70075491D01*
X211229513Y-66363301D01*
X211185423Y-66309577D01*
X210971027Y-66133627D01*
X210726425Y-66002884D01*
X210461016Y-65922373D01*
X210254164Y-65902000D01*
X210254154Y-65902000D01*
X210185000Y-65895189D01*
X210115846Y-65902000D01*
X203269154Y-65902000D01*
X203200000Y-65895189D01*
X203130846Y-65902000D01*
X203130836Y-65902000D01*
X202923984Y-65922373D01*
X202658575Y-66002884D01*
X202589136Y-66040000D01*
X202413972Y-66133627D01*
X202351605Y-66184811D01*
X202199577Y-66309577D01*
X202155487Y-66363301D01*
X200348297Y-68170491D01*
X200294578Y-68214577D01*
X200250492Y-68268296D01*
X200250488Y-68268300D01*
X200118627Y-68428973D01*
X199987885Y-68673575D01*
X199907374Y-68938984D01*
X199880189Y-69215000D01*
X199887001Y-69284164D01*
X199887000Y-74860846D01*
X199880189Y-74930000D01*
X199887000Y-74999154D01*
X199887000Y-74999163D01*
X199907373Y-75206015D01*
X199987884Y-75471424D01*
X199987885Y-75471425D01*
X200118627Y-75716027D01*
X200250488Y-75876700D01*
X200250491Y-75876703D01*
X200294577Y-75930422D01*
X200348297Y-75974509D01*
X201520491Y-77146704D01*
X201564577Y-77200423D01*
X201618296Y-77244509D01*
X201618299Y-77244512D01*
X201778972Y-77376373D01*
X201884697Y-77432884D01*
X202023575Y-77507116D01*
X202288984Y-77587627D01*
X202495836Y-77608000D01*
X202495845Y-77608000D01*
X202564999Y-77614811D01*
X202634153Y-77608000D01*
X203759784Y-77608000D01*
X203636204Y-77758582D01*
X203472961Y-78063987D01*
X203372437Y-78395372D01*
X203338494Y-78740000D01*
X203372437Y-79084628D01*
X203472961Y-79416013D01*
X203636204Y-79721418D01*
X203855892Y-79989108D01*
X203881349Y-80010000D01*
X203855892Y-80030892D01*
X203636204Y-80298582D01*
X203472961Y-80603987D01*
X203372437Y-80935372D01*
X203338494Y-81280000D01*
X203372437Y-81624628D01*
X203472961Y-81956013D01*
X203636204Y-82261418D01*
X203855892Y-82529108D01*
X203881349Y-82550000D01*
X203855892Y-82570892D01*
X203636204Y-82838582D01*
X203472961Y-83143987D01*
X203372437Y-83475372D01*
X203338494Y-83820000D01*
X203372437Y-84164628D01*
X203472961Y-84496013D01*
X203636204Y-84801418D01*
X203855892Y-85069108D01*
X203881349Y-85090000D01*
X203855892Y-85110892D01*
X203636204Y-85378582D01*
X203472961Y-85683987D01*
X203372437Y-86015372D01*
X203338494Y-86360000D01*
X203372437Y-86704628D01*
X203472961Y-87036013D01*
X203636204Y-87341418D01*
X203855892Y-87609108D01*
X203881349Y-87630000D01*
X203855892Y-87650892D01*
X203636204Y-87918582D01*
X203472961Y-88223987D01*
X203372437Y-88555372D01*
X203338494Y-88900000D01*
X203372437Y-89244628D01*
X203472961Y-89576013D01*
X203636204Y-89881418D01*
X203855892Y-90149108D01*
X203881349Y-90170000D01*
X203855892Y-90190892D01*
X203636204Y-90458582D01*
X203472961Y-90763987D01*
X203372437Y-91095372D01*
X203338494Y-91440000D01*
X203372437Y-91784628D01*
X203472961Y-92116013D01*
X203636204Y-92421418D01*
X203855892Y-92689108D01*
X203881349Y-92710000D01*
X203855892Y-92730892D01*
X203636204Y-92998582D01*
X203472961Y-93303987D01*
X203372437Y-93635372D01*
X203338494Y-93980000D01*
X203372437Y-94324628D01*
X203472961Y-94656013D01*
X203636204Y-94961418D01*
X203855892Y-95229108D01*
X203881349Y-95250000D01*
X203855892Y-95270892D01*
X203636204Y-95538582D01*
X203472961Y-95843987D01*
X203372437Y-96175372D01*
X203338494Y-96520000D01*
X203372437Y-96864628D01*
X203472961Y-97196013D01*
X203636204Y-97501418D01*
X203855892Y-97769108D01*
X203886754Y-97794436D01*
X203875435Y-97803522D01*
X203653934Y-98067541D01*
X203488197Y-98369700D01*
X203384593Y-98698387D01*
X203377168Y-98735715D01*
X203574817Y-99010000D01*
X205055000Y-99010000D01*
X205055000Y-98990000D01*
X205155000Y-98990000D01*
X205155000Y-99010000D01*
X207595000Y-99010000D01*
X207595000Y-98990000D01*
X207695000Y-98990000D01*
X207695000Y-99010000D01*
X209175183Y-99010000D01*
X209372832Y-98735715D01*
X209365407Y-98698387D01*
X209261803Y-98369700D01*
X209096066Y-98067541D01*
X208978997Y-97928000D01*
X214477894Y-97928000D01*
X214503323Y-97944991D01*
X214795960Y-98066205D01*
X215106622Y-98128000D01*
X215423370Y-98128000D01*
X215734032Y-98066205D01*
X216026669Y-97944991D01*
X216290036Y-97769015D01*
X216514011Y-97545040D01*
X216689987Y-97281673D01*
X216811201Y-96989036D01*
X216872996Y-96678374D01*
X216872996Y-96361626D01*
X216811201Y-96050964D01*
X216689987Y-95758327D01*
X216514011Y-95494960D01*
X216290036Y-95270985D01*
X216026669Y-95095009D01*
X215734032Y-94973795D01*
X215423370Y-94912000D01*
X215106622Y-94912000D01*
X214795960Y-94973795D01*
X214503323Y-95095009D01*
X214477894Y-95112000D01*
X213232055Y-95112000D01*
X213339013Y-95005042D01*
X213514989Y-94741675D01*
X213636203Y-94449038D01*
X213697998Y-94138376D01*
X213697998Y-93821628D01*
X213636203Y-93510966D01*
X213514989Y-93218329D01*
X213339013Y-92954962D01*
X213115038Y-92730987D01*
X212851671Y-92555011D01*
X212559034Y-92433797D01*
X212248372Y-92372002D01*
X211931624Y-92372002D01*
X211620962Y-92433797D01*
X211328325Y-92555011D01*
X211302899Y-92572000D01*
X208990216Y-92572000D01*
X209113796Y-92421418D01*
X209277039Y-92116013D01*
X209377563Y-91784628D01*
X209411506Y-91440000D01*
X209377563Y-91095372D01*
X209277039Y-90763987D01*
X209113796Y-90458582D01*
X208894108Y-90190892D01*
X208868651Y-90170000D01*
X208894108Y-90149108D01*
X209113796Y-89881418D01*
X209277039Y-89576013D01*
X209377563Y-89244628D01*
X209411506Y-88900000D01*
X209377563Y-88555372D01*
X209277039Y-88223987D01*
X209113796Y-87918582D01*
X208894108Y-87650892D01*
X208868651Y-87630000D01*
X208894108Y-87609108D01*
X209113796Y-87341418D01*
X209277039Y-87036013D01*
X209377563Y-86704628D01*
X209411506Y-86360000D01*
X209377563Y-86015372D01*
X209277039Y-85683987D01*
X209113796Y-85378582D01*
X208894108Y-85110892D01*
X208868651Y-85090000D01*
X208894108Y-85069108D01*
X209113796Y-84801418D01*
X209277039Y-84496013D01*
X209377563Y-84164628D01*
X209411506Y-83820000D01*
X209377563Y-83475372D01*
X209277039Y-83143987D01*
X209113796Y-82838582D01*
X208894108Y-82570892D01*
X208868651Y-82550000D01*
X208894108Y-82529108D01*
X209113796Y-82261418D01*
X209277039Y-81956013D01*
X209377563Y-81624628D01*
X209411506Y-81280000D01*
X209377563Y-80935372D01*
X209277039Y-80603987D01*
X209113796Y-80298582D01*
X208894108Y-80030892D01*
X208868651Y-80010000D01*
X208894108Y-79989108D01*
X209113796Y-79721418D01*
X209277039Y-79416013D01*
X209377563Y-79084628D01*
X209411506Y-78740000D01*
X209377563Y-78395372D01*
X209277039Y-78063987D01*
X209113796Y-77758582D01*
X208894108Y-77490892D01*
X208868651Y-77470000D01*
X208894108Y-77449108D01*
X209113796Y-77181418D01*
X209277039Y-76876013D01*
X209377563Y-76544628D01*
X209411506Y-76200000D01*
X209377563Y-75855372D01*
X209277039Y-75523987D01*
X209113796Y-75218582D01*
X208894108Y-74950892D01*
X208868651Y-74930000D01*
X208894108Y-74909108D01*
X209113796Y-74641418D01*
X209277039Y-74336013D01*
X209377563Y-74004628D01*
X209411506Y-73660000D01*
X209377563Y-73315372D01*
X209277039Y-72983987D01*
X209113796Y-72678582D01*
X208894108Y-72410892D01*
X208626418Y-72191204D01*
X208321013Y-72027961D01*
X207989628Y-71927437D01*
X207731363Y-71902000D01*
X207558637Y-71902000D01*
X207300372Y-71927437D01*
X206968987Y-72027961D01*
X206663582Y-72191204D01*
X206638612Y-72211696D01*
X206600159Y-72164841D01*
X206461898Y-72051373D01*
X206304158Y-71967059D01*
X206132999Y-71915138D01*
X205955000Y-71897607D01*
X204255000Y-71897607D01*
X204077001Y-71915138D01*
X203905842Y-71967059D01*
X203748102Y-72051373D01*
X203609841Y-72164841D01*
X203496373Y-72303102D01*
X203412059Y-72460842D01*
X203360138Y-72632001D01*
X203342607Y-72810000D01*
X203342607Y-74510000D01*
X203360138Y-74687999D01*
X203391687Y-74792000D01*
X203148213Y-74792000D01*
X202703000Y-74346788D01*
X202703000Y-69798212D01*
X203783212Y-68718000D01*
X209601788Y-68718000D01*
X212587000Y-71703212D01*
X212587001Y-90735836D01*
X212580189Y-90805000D01*
X212607374Y-91081016D01*
X212687885Y-91346425D01*
X212818627Y-91591027D01*
X212950488Y-91751700D01*
X212950492Y-91751704D01*
X212994578Y-91805423D01*
X213048297Y-91849509D01*
X218665491Y-97466704D01*
X218709577Y-97520423D01*
X218763296Y-97564509D01*
X218763300Y-97564513D01*
X218923972Y-97696373D01*
X219029697Y-97752884D01*
X219168575Y-97827116D01*
X219433984Y-97907627D01*
X219640836Y-97928000D01*
X219640839Y-97928000D01*
X219710000Y-97934812D01*
X219779161Y-97928000D01*
X223314903Y-97928000D01*
X223208299Y-98015488D01*
X223208296Y-98015491D01*
X223154577Y-98059577D01*
X223110491Y-98113296D01*
X221938296Y-99285491D01*
X221884578Y-99329577D01*
X221840492Y-99383296D01*
X221840488Y-99383300D01*
X221708627Y-99543973D01*
X221577885Y-99788575D01*
X221497374Y-100053984D01*
X221470189Y-100330000D01*
X221477001Y-100399163D01*
X221477000Y-102800846D01*
X221470189Y-102870000D01*
X221477000Y-102939154D01*
X221477000Y-102939163D01*
X221497373Y-103146015D01*
X221577884Y-103411424D01*
X221577885Y-103411425D01*
X221708627Y-103656027D01*
X221840488Y-103816700D01*
X221840491Y-103816703D01*
X221884577Y-103870422D01*
X221938297Y-103914509D01*
X223110491Y-105086704D01*
X223154577Y-105140423D01*
X223208296Y-105184509D01*
X223208299Y-105184512D01*
X223368972Y-105316373D01*
X223474697Y-105372884D01*
X223613575Y-105447116D01*
X223878984Y-105527627D01*
X224085836Y-105548000D01*
X224085845Y-105548000D01*
X224154999Y-105554811D01*
X224224153Y-105548000D01*
X224379466Y-105548000D01*
X224232979Y-105726495D01*
X224074379Y-106023214D01*
X223976714Y-106345174D01*
X223943736Y-106680000D01*
X223976714Y-107014826D01*
X224074379Y-107336786D01*
X224232979Y-107633505D01*
X224446418Y-107893582D01*
X224515164Y-107950000D01*
X224446418Y-108006418D01*
X224232979Y-108266495D01*
X224074379Y-108563214D01*
X223976714Y-108885174D01*
X223943736Y-109220000D01*
X223976714Y-109554826D01*
X224074379Y-109876786D01*
X224232979Y-110173505D01*
X224446418Y-110433582D01*
X224522286Y-110495845D01*
X224416906Y-110587618D01*
X224212071Y-110852661D01*
X224062879Y-111152572D01*
X223981573Y-111443540D01*
X224179844Y-111710000D01*
X226010000Y-111710000D01*
X226010000Y-111690000D01*
X226110000Y-111690000D01*
X226110000Y-111710000D01*
X226130000Y-111710000D01*
X226130000Y-111810000D01*
X226110000Y-111810000D01*
X226110000Y-113468000D01*
X226510000Y-113468000D01*
X226842254Y-113425427D01*
X227159818Y-113318852D01*
X227450488Y-113152371D01*
X227703094Y-112932382D01*
X227827000Y-112772055D01*
X227827001Y-116052897D01*
X227810009Y-116078327D01*
X227688795Y-116370964D01*
X227627000Y-116681626D01*
X227627000Y-116998374D01*
X227688795Y-117309036D01*
X227810009Y-117601673D01*
X227985985Y-117865040D01*
X228209960Y-118089015D01*
X228473327Y-118264991D01*
X228765964Y-118386205D01*
X229076626Y-118448000D01*
X229393374Y-118448000D01*
X229704036Y-118386205D01*
X229996673Y-118264991D01*
X230260040Y-118089015D01*
X230484015Y-117865040D01*
X230659991Y-117601673D01*
X230781205Y-117309036D01*
X230843000Y-116998374D01*
X230843000Y-116681626D01*
X230781205Y-116370964D01*
X230659991Y-116078327D01*
X230643000Y-116052898D01*
X230643000Y-110264153D01*
X230649811Y-110194999D01*
X230643000Y-110125845D01*
X230643000Y-110125836D01*
X230637906Y-110074117D01*
X230730483Y-110166694D01*
X230774577Y-110220423D01*
X230959729Y-110372373D01*
X230988973Y-110396373D01*
X231233574Y-110527116D01*
X231297205Y-110546418D01*
X231498984Y-110607627D01*
X231705836Y-110628000D01*
X231705838Y-110628000D01*
X231775000Y-110634812D01*
X231844161Y-110628000D01*
X231999466Y-110628000D01*
X231852979Y-110806495D01*
X231694379Y-111103214D01*
X231596714Y-111425174D01*
X231563736Y-111760000D01*
X231596714Y-112094826D01*
X231694379Y-112416786D01*
X231852979Y-112713505D01*
X232066418Y-112973582D01*
X232326495Y-113187021D01*
X232623214Y-113345621D01*
X232945174Y-113443286D01*
X233196096Y-113468000D01*
X234163904Y-113468000D01*
X234414826Y-113443286D01*
X234736786Y-113345621D01*
X235033505Y-113187021D01*
X235056682Y-113168000D01*
X237420846Y-113168000D01*
X237490000Y-113174811D01*
X237559154Y-113168000D01*
X237559164Y-113168000D01*
X237766016Y-113147627D01*
X238031425Y-113067116D01*
X238276027Y-112936373D01*
X238490423Y-112760423D01*
X238534513Y-112706699D01*
X239164752Y-112076460D01*
X244936573Y-112076460D01*
X245017879Y-112367428D01*
X245167071Y-112667339D01*
X245371906Y-112932382D01*
X245624512Y-113152371D01*
X245915182Y-113318852D01*
X246232746Y-113425427D01*
X246565000Y-113468000D01*
X246965000Y-113468000D01*
X246965000Y-111810000D01*
X245134844Y-111810000D01*
X244936573Y-112076460D01*
X239164752Y-112076460D01*
X244947248Y-106293965D01*
X244931714Y-106345174D01*
X244898736Y-106680000D01*
X244931714Y-107014826D01*
X245029379Y-107336786D01*
X245187979Y-107633505D01*
X245401418Y-107893582D01*
X245470164Y-107950000D01*
X245401418Y-108006418D01*
X245187979Y-108266495D01*
X245029379Y-108563214D01*
X244931714Y-108885174D01*
X244898736Y-109220000D01*
X244931714Y-109554826D01*
X245029379Y-109876786D01*
X245187979Y-110173505D01*
X245401418Y-110433582D01*
X245477286Y-110495845D01*
X245371906Y-110587618D01*
X245167071Y-110852661D01*
X245017879Y-111152572D01*
X244936573Y-111443540D01*
X245134844Y-111710000D01*
X246965000Y-111710000D01*
X246965000Y-111690000D01*
X247065000Y-111690000D01*
X247065000Y-111710000D01*
X247085000Y-111710000D01*
X247085000Y-111810000D01*
X247065000Y-111810000D01*
X247065000Y-113468000D01*
X247465000Y-113468000D01*
X247797254Y-113425427D01*
X248114818Y-113318852D01*
X248147000Y-113300420D01*
X248147001Y-116052897D01*
X248130009Y-116078327D01*
X248008795Y-116370964D01*
X247947000Y-116681626D01*
X247947000Y-116998374D01*
X248008795Y-117309036D01*
X248130009Y-117601673D01*
X248305985Y-117865040D01*
X248529960Y-118089015D01*
X248793327Y-118264991D01*
X249085964Y-118386205D01*
X249396626Y-118448000D01*
X249713374Y-118448000D01*
X250024036Y-118386205D01*
X250316673Y-118264991D01*
X250342102Y-118248000D01*
X260280846Y-118248000D01*
X260350000Y-118254811D01*
X260419154Y-118248000D01*
X260419164Y-118248000D01*
X260626016Y-118227627D01*
X260891425Y-118147116D01*
X261136027Y-118016373D01*
X261350423Y-117840423D01*
X261394513Y-117786699D01*
X263939813Y-115241399D01*
X263961204Y-115281418D01*
X264180892Y-115549108D01*
X264206349Y-115570000D01*
X264180892Y-115590892D01*
X263961204Y-115858582D01*
X263797961Y-116163987D01*
X263697437Y-116495372D01*
X263663494Y-116840000D01*
X263697437Y-117184628D01*
X263797961Y-117516013D01*
X263961204Y-117821418D01*
X264180892Y-118089108D01*
X264206349Y-118110000D01*
X264180892Y-118130892D01*
X263961204Y-118398582D01*
X263797961Y-118703987D01*
X263697437Y-119035372D01*
X263663494Y-119380000D01*
X263697437Y-119724628D01*
X263797961Y-120056013D01*
X263961204Y-120361418D01*
X264180892Y-120629108D01*
X264206349Y-120650000D01*
X264180892Y-120670892D01*
X263961204Y-120938582D01*
X263797961Y-121243987D01*
X263697437Y-121575372D01*
X263663494Y-121920000D01*
X263697437Y-122264628D01*
X263797961Y-122596013D01*
X263961204Y-122901418D01*
X264180892Y-123169108D01*
X264448582Y-123388796D01*
X264753987Y-123552039D01*
X265085372Y-123652563D01*
X265343637Y-123678000D01*
X265516363Y-123678000D01*
X265774628Y-123652563D01*
X266106013Y-123552039D01*
X266411418Y-123388796D01*
X266679108Y-123169108D01*
X266700000Y-123143651D01*
X266720892Y-123169108D01*
X266988582Y-123388796D01*
X267293987Y-123552039D01*
X267625372Y-123652563D01*
X267883637Y-123678000D01*
X268056363Y-123678000D01*
X268314628Y-123652563D01*
X268646013Y-123552039D01*
X268951418Y-123388796D01*
X269219108Y-123169108D01*
X269438796Y-122901418D01*
X269602039Y-122596013D01*
X269702563Y-122264628D01*
X269736506Y-121920000D01*
X269702563Y-121575372D01*
X269602039Y-121243987D01*
X269438796Y-120938582D01*
X269219108Y-120670892D01*
X269193651Y-120650000D01*
X269219108Y-120629108D01*
X269438796Y-120361418D01*
X269602039Y-120056013D01*
X269702563Y-119724628D01*
X269736506Y-119380000D01*
X269702563Y-119035372D01*
X269602039Y-118703987D01*
X269438796Y-118398582D01*
X269219108Y-118130892D01*
X269193651Y-118110000D01*
X269219108Y-118089108D01*
X269438796Y-117821418D01*
X269602039Y-117516013D01*
X269702563Y-117184628D01*
X269736506Y-116840000D01*
X269702563Y-116495372D01*
X269602039Y-116163987D01*
X269438796Y-115858582D01*
X269219108Y-115590892D01*
X269193651Y-115570000D01*
X269219108Y-115549108D01*
X269438796Y-115281418D01*
X269602039Y-114976013D01*
X269702563Y-114644628D01*
X269736506Y-114300000D01*
X269702563Y-113955372D01*
X269602039Y-113623987D01*
X269438796Y-113318582D01*
X269219108Y-113050892D01*
X269193651Y-113030000D01*
X269219108Y-113009108D01*
X269438796Y-112741418D01*
X269602039Y-112436013D01*
X269702563Y-112104628D01*
X269736506Y-111760000D01*
X269702563Y-111415372D01*
X269602039Y-111083987D01*
X269438796Y-110778582D01*
X269219108Y-110510892D01*
X269193651Y-110490000D01*
X269219108Y-110469108D01*
X269438796Y-110201418D01*
X269602039Y-109896013D01*
X269702563Y-109564628D01*
X269736506Y-109220000D01*
X269702563Y-108875372D01*
X269602039Y-108543987D01*
X269438796Y-108238582D01*
X269219108Y-107970892D01*
X269193651Y-107950000D01*
X269219108Y-107929108D01*
X269438796Y-107661418D01*
X269602039Y-107356013D01*
X269702563Y-107024628D01*
X269736506Y-106680000D01*
X269702563Y-106335372D01*
X269602039Y-106003987D01*
X269438796Y-105698582D01*
X269219108Y-105430892D01*
X269193651Y-105410000D01*
X269219108Y-105389108D01*
X269438796Y-105121418D01*
X269602039Y-104816013D01*
X269702563Y-104484628D01*
X269736506Y-104140000D01*
X269702563Y-103795372D01*
X269602039Y-103463987D01*
X269438796Y-103158582D01*
X269219108Y-102890892D01*
X269193651Y-102870000D01*
X269219108Y-102849108D01*
X269438796Y-102581418D01*
X269602039Y-102276013D01*
X269702563Y-101944628D01*
X269736506Y-101600000D01*
X269702563Y-101255372D01*
X269602039Y-100923987D01*
X269438796Y-100618582D01*
X269219108Y-100350892D01*
X269188246Y-100325564D01*
X269199565Y-100316478D01*
X269421066Y-100052459D01*
X269586803Y-99750300D01*
X269690407Y-99421613D01*
X269697832Y-99384285D01*
X269500183Y-99110000D01*
X268020000Y-99110000D01*
X268020000Y-99130000D01*
X267920000Y-99130000D01*
X267920000Y-99110000D01*
X267900000Y-99110000D01*
X267900000Y-99010000D01*
X267920000Y-99010000D01*
X267920000Y-98990000D01*
X268020000Y-98990000D01*
X268020000Y-99010000D01*
X269500183Y-99010000D01*
X269697832Y-98735715D01*
X269690407Y-98698387D01*
X269586803Y-98369700D01*
X269421066Y-98067541D01*
X269199565Y-97803522D01*
X269188246Y-97794436D01*
X269219108Y-97769108D01*
X269438796Y-97501418D01*
X269602039Y-97196013D01*
X269702563Y-96864628D01*
X269736506Y-96520000D01*
X269702563Y-96175372D01*
X269602039Y-95843987D01*
X269438796Y-95538582D01*
X269219108Y-95270892D01*
X269193651Y-95250000D01*
X269219108Y-95229108D01*
X269438796Y-94961418D01*
X269602039Y-94656013D01*
X269702563Y-94324628D01*
X269736506Y-93980000D01*
X269702563Y-93635372D01*
X269602039Y-93303987D01*
X269438796Y-92998582D01*
X269219108Y-92730892D01*
X269193651Y-92710000D01*
X269219108Y-92689108D01*
X269438796Y-92421418D01*
X269602039Y-92116013D01*
X269702563Y-91784628D01*
X269736506Y-91440000D01*
X269702563Y-91095372D01*
X269602039Y-90763987D01*
X269438796Y-90458582D01*
X269219108Y-90190892D01*
X269193651Y-90170000D01*
X269219108Y-90149108D01*
X269438796Y-89881418D01*
X269602039Y-89576013D01*
X269702563Y-89244628D01*
X269736506Y-88900000D01*
X269702563Y-88555372D01*
X269602039Y-88223987D01*
X269438796Y-87918582D01*
X269219108Y-87650892D01*
X269193651Y-87630000D01*
X269219108Y-87609108D01*
X269438796Y-87341418D01*
X269602039Y-87036013D01*
X269702563Y-86704628D01*
X269736506Y-86360000D01*
X269702563Y-86015372D01*
X269602039Y-85683987D01*
X269438796Y-85378582D01*
X269219108Y-85110892D01*
X269193651Y-85090000D01*
X269219108Y-85069108D01*
X269438796Y-84801418D01*
X269602039Y-84496013D01*
X269702563Y-84164628D01*
X269736506Y-83820000D01*
X269702563Y-83475372D01*
X269602039Y-83143987D01*
X269438796Y-82838582D01*
X269219108Y-82570892D01*
X269193651Y-82550000D01*
X269219108Y-82529108D01*
X269438796Y-82261418D01*
X269602039Y-81956013D01*
X269702563Y-81624628D01*
X269736506Y-81280000D01*
X269702563Y-80935372D01*
X269602039Y-80603987D01*
X269438796Y-80298582D01*
X269314764Y-80147448D01*
X269516016Y-80127627D01*
X269781425Y-80047116D01*
X270026027Y-79916373D01*
X270240423Y-79740423D01*
X270284513Y-79686699D01*
X271456708Y-78514505D01*
X271510422Y-78470423D01*
X271554505Y-78416708D01*
X271554512Y-78416701D01*
X271686373Y-78256028D01*
X271817115Y-78011426D01*
X271817116Y-78011425D01*
X271897627Y-77746016D01*
X271918000Y-77539164D01*
X271918000Y-77539155D01*
X271924811Y-77470001D01*
X271918000Y-77400847D01*
X271918000Y-71824153D01*
X271924811Y-71754999D01*
X271918000Y-71685845D01*
X271918000Y-71685836D01*
X271897627Y-71478984D01*
X271817116Y-71213575D01*
X271756256Y-71099715D01*
X271686373Y-70968972D01*
X271554512Y-70808299D01*
X271554509Y-70808296D01*
X271510423Y-70754577D01*
X271456704Y-70710491D01*
X268743000Y-67996788D01*
X268743000Y-55314161D01*
X268749812Y-55245000D01*
X268743000Y-55175836D01*
X268722627Y-54968984D01*
X268642116Y-54703575D01*
X268642116Y-54703574D01*
X268511373Y-54458972D01*
X268379512Y-54298300D01*
X268335423Y-54244577D01*
X268281699Y-54200487D01*
X264569511Y-50488299D01*
X264525423Y-50434577D01*
X264311027Y-50258627D01*
X264066425Y-50127884D01*
X263801016Y-50047373D01*
X263594164Y-50027000D01*
X263594154Y-50027000D01*
X263525000Y-50020189D01*
X263455846Y-50027000D01*
X260101661Y-50027000D01*
X260032500Y-50020188D01*
X259963338Y-50027000D01*
X259963336Y-50027000D01*
X259756484Y-50047373D01*
X259571585Y-50103462D01*
X259491074Y-50127884D01*
X259246472Y-50258627D01*
X259192404Y-50303000D01*
X259032077Y-50434577D01*
X258987989Y-50488299D01*
X247384288Y-62092000D01*
X230574153Y-62092000D01*
X230504999Y-62085189D01*
X230435845Y-62092000D01*
X230435836Y-62092000D01*
X230228984Y-62112373D01*
X229963575Y-62192884D01*
X229849715Y-62253744D01*
X229718972Y-62323627D01*
X229558299Y-62455488D01*
X229558296Y-62455491D01*
X229504577Y-62499577D01*
X229460491Y-62553296D01*
X228288297Y-63725491D01*
X228234577Y-63769578D01*
X228190491Y-63823297D01*
X228190488Y-63823300D01*
X228103000Y-63929904D01*
X228103000Y-62934153D01*
X228109811Y-62864999D01*
X228103000Y-62795845D01*
X228103000Y-62795836D01*
X228082627Y-62588984D01*
X228002116Y-62323575D01*
X227871373Y-62078973D01*
X227849920Y-62052833D01*
X227739512Y-61918299D01*
X227739505Y-61918292D01*
X227695422Y-61864577D01*
X227641708Y-61820496D01*
X226308964Y-60487751D01*
X226360175Y-60503286D01*
X226695000Y-60536264D01*
X227029826Y-60503286D01*
X227351786Y-60405621D01*
X227648505Y-60247021D01*
X227908582Y-60033582D01*
X227965000Y-59964836D01*
X228021419Y-60033582D01*
X228281496Y-60247021D01*
X228578215Y-60405621D01*
X228900175Y-60503286D01*
X229235000Y-60536264D01*
X229569826Y-60503286D01*
X229891786Y-60405621D01*
X230188505Y-60247021D01*
X230448582Y-60033582D01*
X230510845Y-59957714D01*
X230602618Y-60063094D01*
X230867661Y-60267929D01*
X231167572Y-60417121D01*
X231458540Y-60498427D01*
X231725000Y-60300156D01*
X231725000Y-58470000D01*
X231825000Y-58470000D01*
X231825000Y-60300156D01*
X232091460Y-60498427D01*
X232382428Y-60417121D01*
X232682339Y-60267929D01*
X232947382Y-60063094D01*
X233167371Y-59810488D01*
X233333852Y-59519818D01*
X233440427Y-59202254D01*
X233483000Y-58870000D01*
X233483000Y-58470000D01*
X231825000Y-58470000D01*
X231725000Y-58470000D01*
X231705000Y-58470000D01*
X231705000Y-58370000D01*
X231725000Y-58370000D01*
X231725000Y-56539844D01*
X231825000Y-56539844D01*
X231825000Y-58370000D01*
X233483000Y-58370000D01*
X233483000Y-57970000D01*
X233440427Y-57637746D01*
X233333852Y-57320182D01*
X233167371Y-57029512D01*
X232947382Y-56776906D01*
X232682339Y-56572071D01*
X232382428Y-56422879D01*
X232091460Y-56341573D01*
X231825000Y-56539844D01*
X231725000Y-56539844D01*
X231458540Y-56341573D01*
X231167572Y-56422879D01*
X230867661Y-56572071D01*
X230643000Y-56745697D01*
X230643000Y-52843000D01*
X234608318Y-52843000D01*
X234631495Y-52862021D01*
X234928214Y-53020621D01*
X235250174Y-53118286D01*
X235501096Y-53143000D01*
X235668904Y-53143000D01*
X235919826Y-53118286D01*
X236241786Y-53020621D01*
X236538505Y-52862021D01*
X236798582Y-52648582D01*
X237012021Y-52388505D01*
X237170621Y-52091786D01*
X237268286Y-51769826D01*
X237301264Y-51435000D01*
X237268286Y-51100174D01*
X237170621Y-50778214D01*
X237012021Y-50481495D01*
X236798582Y-50221418D01*
X236538505Y-50007979D01*
X236241786Y-49849379D01*
X235919826Y-49751714D01*
X235668904Y-49727000D01*
X235501096Y-49727000D01*
X235250174Y-49751714D01*
X234928214Y-49849379D01*
X234631495Y-50007979D01*
X234608318Y-50027000D01*
X229818213Y-50027000D01*
X227739513Y-47948301D01*
X227695423Y-47894577D01*
X227481027Y-47718627D01*
X227236425Y-47587884D01*
X226971016Y-47507373D01*
X226764164Y-47487000D01*
X226764154Y-47487000D01*
X226695000Y-47480189D01*
X226625846Y-47487000D01*
X219779153Y-47487000D01*
X219709999Y-47480189D01*
X219640845Y-47487000D01*
X219640836Y-47487000D01*
X219433984Y-47507373D01*
X219168575Y-47587884D01*
X219054715Y-47648744D01*
X218923972Y-47718627D01*
X218763299Y-47850488D01*
X218763296Y-47850491D01*
X218709577Y-47894577D01*
X218665491Y-47948296D01*
X215951788Y-50662000D01*
X192474153Y-50662000D01*
X192404999Y-50655189D01*
X192335845Y-50662000D01*
X192335836Y-50662000D01*
X192128984Y-50682373D01*
X191863575Y-50762884D01*
X191834895Y-50778214D01*
X191618972Y-50893627D01*
X191458299Y-51025488D01*
X191458296Y-51025491D01*
X191404577Y-51069577D01*
X191360491Y-51123296D01*
X190188296Y-52295491D01*
X190134578Y-52339577D01*
X190090492Y-52393296D01*
X190090488Y-52393300D01*
X189958627Y-52553973D01*
X189827885Y-52798575D01*
X189747374Y-53063984D01*
X189720189Y-53340000D01*
X188283000Y-53340000D01*
X188283000Y-46043000D01*
X272727000Y-46043000D01*
X272727001Y-162872000D01*
X272727001Y-162872000D01*
G37*
X272727001Y-162872000D02*
X188283000Y-162872000D01*
X188283000Y-146685000D01*
X191625188Y-146685000D01*
X191632001Y-146754174D01*
X191632000Y-154619079D01*
X191625189Y-154688233D01*
X191632000Y-154757387D01*
X191632000Y-154757396D01*
X191652373Y-154964248D01*
X191732884Y-155229657D01*
X191769414Y-155298000D01*
X191863627Y-155474260D01*
X191995488Y-155634933D01*
X191995491Y-155634936D01*
X192039577Y-155688655D01*
X192093297Y-155732742D01*
X194152258Y-157791704D01*
X194196344Y-157845423D01*
X194250063Y-157889509D01*
X194250066Y-157889512D01*
X194410739Y-158021373D01*
X194541482Y-158091256D01*
X194655342Y-158152116D01*
X194920751Y-158232627D01*
X195127603Y-158253000D01*
X195127612Y-158253000D01*
X195196766Y-158259811D01*
X195265920Y-158253000D01*
X195391898Y-158253000D01*
X195443853Y-158287715D01*
X195740130Y-158410437D01*
X196054656Y-158473000D01*
X196375344Y-158473000D01*
X196689870Y-158410437D01*
X196986147Y-158287715D01*
X197038102Y-158253000D01*
X199955846Y-158253000D01*
X200025000Y-158259811D01*
X200094154Y-158253000D01*
X200094164Y-158253000D01*
X200301016Y-158232627D01*
X200566425Y-158152116D01*
X200811027Y-158021373D01*
X201025423Y-157845423D01*
X201069513Y-157791699D01*
X203009212Y-155852000D01*
X209247000Y-155852000D01*
X209247000Y-156964430D01*
X209281894Y-157139854D01*
X209350341Y-157305099D01*
X209449710Y-157453816D01*
X209576184Y-157580290D01*
X209724901Y-157679659D01*
X209890146Y-157748106D01*
X210065570Y-157783000D01*
X211178000Y-157783000D01*
X211405000Y-157556000D01*
X211405000Y-155625000D01*
X211505000Y-155625000D01*
X211505000Y-157556000D01*
X211732000Y-157783000D01*
X212844430Y-157783000D01*
X213019854Y-157748106D01*
X213185099Y-157679659D01*
X213333816Y-157580290D01*
X213460290Y-157453816D01*
X213559659Y-157305099D01*
X213628106Y-157139854D01*
X213663000Y-156964430D01*
X213663000Y-155852000D01*
X213436000Y-155625000D01*
X211505000Y-155625000D01*
X211405000Y-155625000D01*
X209474000Y-155625000D01*
X209247000Y-155852000D01*
X203009212Y-155852000D01*
X204675642Y-154185570D01*
X209247000Y-154185570D01*
X209247000Y-155298000D01*
X209474000Y-155525000D01*
X211405000Y-155525000D01*
X211405000Y-153594000D01*
X211505000Y-153594000D01*
X211505000Y-155525000D01*
X213436000Y-155525000D01*
X213663000Y-155298000D01*
X213663000Y-154185570D01*
X213628106Y-154010146D01*
X213559659Y-153844901D01*
X213460290Y-153696184D01*
X213333816Y-153569710D01*
X213185099Y-153470341D01*
X213019854Y-153401894D01*
X212844430Y-153367000D01*
X211732000Y-153367000D01*
X211505000Y-153594000D01*
X211405000Y-153594000D01*
X211178000Y-153367000D01*
X210065570Y-153367000D01*
X209890146Y-153401894D01*
X209724901Y-153470341D01*
X209576184Y-153569710D01*
X209449710Y-153696184D01*
X209350341Y-153844901D01*
X209281894Y-154010146D01*
X209247000Y-154185570D01*
X204675642Y-154185570D01*
X211131699Y-147729513D01*
X211185423Y-147685423D01*
X211261608Y-147592591D01*
X211361373Y-147471028D01*
X211492116Y-147226426D01*
X211516538Y-147145915D01*
X211572627Y-146961016D01*
X211593000Y-146754164D01*
X211593000Y-146754154D01*
X211599811Y-146685000D01*
X211593000Y-146615846D01*
X211593000Y-140801777D01*
X213557000Y-140801777D01*
X213557000Y-141138223D01*
X213622638Y-141468205D01*
X213751390Y-141779041D01*
X213938310Y-142058786D01*
X214176214Y-142296690D01*
X214455959Y-142483610D01*
X214766795Y-142612362D01*
X214953235Y-142649447D01*
X215127001Y-142823214D01*
X215127000Y-153860416D01*
X214819934Y-154167482D01*
X214578295Y-154529120D01*
X214411852Y-154930950D01*
X214327000Y-155357531D01*
X214327000Y-155792469D01*
X214411852Y-156219050D01*
X214578295Y-156620880D01*
X214819934Y-156982518D01*
X215127482Y-157290066D01*
X215489120Y-157531705D01*
X215890950Y-157698148D01*
X216317531Y-157783000D01*
X216752469Y-157783000D01*
X217179050Y-157698148D01*
X217580880Y-157531705D01*
X217942518Y-157290066D01*
X218250066Y-156982518D01*
X218491705Y-156620880D01*
X218658148Y-156219050D01*
X218731158Y-155852000D01*
X225122000Y-155852000D01*
X225122000Y-156964430D01*
X225156894Y-157139854D01*
X225225341Y-157305099D01*
X225324710Y-157453816D01*
X225451184Y-157580290D01*
X225599901Y-157679659D01*
X225765146Y-157748106D01*
X225940570Y-157783000D01*
X227053000Y-157783000D01*
X227280000Y-157556000D01*
X227280000Y-155625000D01*
X227380000Y-155625000D01*
X227380000Y-157556000D01*
X227607000Y-157783000D01*
X228719430Y-157783000D01*
X228894854Y-157748106D01*
X229060099Y-157679659D01*
X229208816Y-157580290D01*
X229335290Y-157453816D01*
X229434659Y-157305099D01*
X229503106Y-157139854D01*
X229538000Y-156964430D01*
X229538000Y-155852000D01*
X229311000Y-155625000D01*
X227380000Y-155625000D01*
X227280000Y-155625000D01*
X225349000Y-155625000D01*
X225122000Y-155852000D01*
X218731158Y-155852000D01*
X218743000Y-155792469D01*
X218743000Y-155357531D01*
X218658148Y-154930950D01*
X218491705Y-154529120D01*
X218262153Y-154185570D01*
X225122000Y-154185570D01*
X225122000Y-155298000D01*
X225349000Y-155525000D01*
X227280000Y-155525000D01*
X227280000Y-153594000D01*
X227380000Y-153594000D01*
X227380000Y-155525000D01*
X229311000Y-155525000D01*
X229538000Y-155298000D01*
X229538000Y-154185570D01*
X229503106Y-154010146D01*
X229434659Y-153844901D01*
X229335290Y-153696184D01*
X229208816Y-153569710D01*
X229060099Y-153470341D01*
X228894854Y-153401894D01*
X228719430Y-153367000D01*
X227607000Y-153367000D01*
X227380000Y-153594000D01*
X227280000Y-153594000D01*
X227053000Y-153367000D01*
X225940570Y-153367000D01*
X225765146Y-153401894D01*
X225599901Y-153470341D01*
X225451184Y-153569710D01*
X225324710Y-153696184D01*
X225225341Y-153844901D01*
X225156894Y-154010146D01*
X225122000Y-154185570D01*
X218262153Y-154185570D01*
X218250066Y-154167482D01*
X217943000Y-153860416D01*
X217943000Y-142309153D01*
X217949811Y-142239999D01*
X217943000Y-142170845D01*
X217943000Y-142170836D01*
X217922627Y-141963984D01*
X217842116Y-141698575D01*
X217780454Y-141583214D01*
X217711373Y-141453972D01*
X217579512Y-141293299D01*
X217579509Y-141293296D01*
X217573899Y-141286460D01*
X218666571Y-141286460D01*
X218760560Y-141607825D01*
X218915438Y-141904678D01*
X219125253Y-142165612D01*
X219381942Y-142380599D01*
X219675641Y-142541378D01*
X219995063Y-142641770D01*
X220028540Y-142648427D01*
X220295000Y-142450156D01*
X220295000Y-141020000D01*
X220395000Y-141020000D01*
X220395000Y-142450156D01*
X220661460Y-142648427D01*
X220694937Y-142641770D01*
X221014359Y-142541378D01*
X221308058Y-142380599D01*
X221564747Y-142165612D01*
X221774562Y-141904678D01*
X221929440Y-141607825D01*
X222023429Y-141286460D01*
X221825270Y-141020000D01*
X220395000Y-141020000D01*
X220295000Y-141020000D01*
X218864730Y-141020000D01*
X218666571Y-141286460D01*
X217573899Y-141286460D01*
X217535423Y-141239577D01*
X217481704Y-141195491D01*
X217256213Y-140970000D01*
X223708736Y-140970000D01*
X223741714Y-141304826D01*
X223839379Y-141626786D01*
X223997979Y-141923505D01*
X224017001Y-141946683D01*
X224017000Y-144710846D01*
X224010189Y-144780000D01*
X224017000Y-144849154D01*
X224017000Y-144849163D01*
X224037373Y-145056015D01*
X224117884Y-145321424D01*
X224117885Y-145321425D01*
X224248627Y-145566027D01*
X224380488Y-145726700D01*
X224380491Y-145726703D01*
X224424577Y-145780422D01*
X224478297Y-145824509D01*
X231002001Y-152348213D01*
X231002000Y-153860416D01*
X230694934Y-154167482D01*
X230453295Y-154529120D01*
X230286852Y-154930950D01*
X230202000Y-155357531D01*
X230202000Y-155792469D01*
X230286852Y-156219050D01*
X230453295Y-156620880D01*
X230694934Y-156982518D01*
X231002482Y-157290066D01*
X231364120Y-157531705D01*
X231765950Y-157698148D01*
X232192531Y-157783000D01*
X232627469Y-157783000D01*
X233054050Y-157698148D01*
X233455880Y-157531705D01*
X233817518Y-157290066D01*
X234125066Y-156982518D01*
X234366705Y-156620880D01*
X234533148Y-156219050D01*
X234618000Y-155792469D01*
X234618000Y-155357531D01*
X234533148Y-154930950D01*
X234366705Y-154529120D01*
X234125066Y-154167482D01*
X234080414Y-154122830D01*
X242822881Y-154122830D01*
X242872084Y-154452287D01*
X243167181Y-154613885D01*
X243488134Y-154714807D01*
X243822609Y-154751176D01*
X244157753Y-154721593D01*
X244480685Y-154627194D01*
X244778996Y-154471610D01*
X244807916Y-154452287D01*
X244857119Y-154122830D01*
X243840000Y-153105711D01*
X242822881Y-154122830D01*
X234080414Y-154122830D01*
X233818000Y-153860416D01*
X233818000Y-153017609D01*
X242123824Y-153017609D01*
X242153407Y-153352753D01*
X242247806Y-153675685D01*
X242403390Y-153973996D01*
X242422713Y-154002916D01*
X242752170Y-154052119D01*
X243769289Y-153035000D01*
X243910711Y-153035000D01*
X244927830Y-154052119D01*
X245257287Y-154002916D01*
X245418885Y-153707819D01*
X245519807Y-153386866D01*
X245556176Y-153052391D01*
X245526593Y-152717247D01*
X245432194Y-152394315D01*
X245276610Y-152096004D01*
X245257287Y-152067084D01*
X244927830Y-152017881D01*
X243910711Y-153035000D01*
X243769289Y-153035000D01*
X242752170Y-152017881D01*
X242422713Y-152067084D01*
X242261115Y-152362181D01*
X242160193Y-152683134D01*
X242123824Y-153017609D01*
X233818000Y-153017609D01*
X233818000Y-151947170D01*
X242822881Y-151947170D01*
X243840000Y-152964289D01*
X244857119Y-151947170D01*
X244807916Y-151617713D01*
X244512819Y-151456115D01*
X244191866Y-151355193D01*
X243857391Y-151318824D01*
X243522247Y-151348407D01*
X243199315Y-151442806D01*
X242901004Y-151598390D01*
X242872084Y-151617713D01*
X242822881Y-151947170D01*
X233818000Y-151947170D01*
X233818000Y-151834154D01*
X233824811Y-151765000D01*
X233818000Y-151695846D01*
X233818000Y-151695836D01*
X233797627Y-151488984D01*
X233717116Y-151223575D01*
X233717116Y-151223574D01*
X233586373Y-150978972D01*
X233454512Y-150818300D01*
X233410423Y-150764577D01*
X233356699Y-150720487D01*
X226833000Y-144196788D01*
X226833000Y-141946682D01*
X226852021Y-141923505D01*
X227010621Y-141626786D01*
X227108286Y-141304826D01*
X227141264Y-140970000D01*
X227108286Y-140635174D01*
X227010621Y-140313214D01*
X226852021Y-140016495D01*
X226638582Y-139756418D01*
X226378505Y-139542979D01*
X226081786Y-139384379D01*
X225759826Y-139286714D01*
X225508904Y-139262000D01*
X225341096Y-139262000D01*
X225090174Y-139286714D01*
X224768214Y-139384379D01*
X224471495Y-139542979D01*
X224211418Y-139756418D01*
X223997979Y-140016495D01*
X223839379Y-140313214D01*
X223741714Y-140635174D01*
X223708736Y-140970000D01*
X217256213Y-140970000D01*
X216944447Y-140658235D01*
X216943514Y-140653540D01*
X218666571Y-140653540D01*
X218864730Y-140920000D01*
X220295000Y-140920000D01*
X220295000Y-139489844D01*
X220395000Y-139489844D01*
X220395000Y-140920000D01*
X221825270Y-140920000D01*
X222023429Y-140653540D01*
X221929440Y-140332175D01*
X221774562Y-140035322D01*
X221564747Y-139774388D01*
X221308058Y-139559401D01*
X221014359Y-139398622D01*
X220694937Y-139298230D01*
X220661460Y-139291573D01*
X220395000Y-139489844D01*
X220295000Y-139489844D01*
X220028540Y-139291573D01*
X219995063Y-139298230D01*
X219675641Y-139398622D01*
X219381942Y-139559401D01*
X219125253Y-139774388D01*
X218915438Y-140035322D01*
X218760560Y-140332175D01*
X218666571Y-140653540D01*
X216943514Y-140653540D01*
X216907362Y-140471795D01*
X216778610Y-140160959D01*
X216591690Y-139881214D01*
X216353786Y-139643310D01*
X216074041Y-139456390D01*
X215763205Y-139327638D01*
X215433223Y-139262000D01*
X215096777Y-139262000D01*
X214766795Y-139327638D01*
X214455959Y-139456390D01*
X214176214Y-139643310D01*
X213938310Y-139881214D01*
X213751390Y-140160959D01*
X213622638Y-140471795D01*
X213557000Y-140801777D01*
X211593000Y-140801777D01*
X211593000Y-126948212D01*
X212529040Y-126012172D01*
X212559036Y-126006205D01*
X212851673Y-125884991D01*
X213115040Y-125709015D01*
X213339015Y-125485040D01*
X213514991Y-125221673D01*
X213636205Y-124929036D01*
X213698000Y-124618374D01*
X213698000Y-124301626D01*
X213636205Y-123990964D01*
X213514991Y-123698327D01*
X213339015Y-123434960D01*
X213115040Y-123210985D01*
X212851673Y-123035009D01*
X212559036Y-122913795D01*
X212248374Y-122852000D01*
X211931626Y-122852000D01*
X211620964Y-122913795D01*
X211328327Y-123035009D01*
X211064960Y-123210985D01*
X210840985Y-123434960D01*
X210665009Y-123698327D01*
X210543795Y-123990964D01*
X210537828Y-124020960D01*
X209238297Y-125320491D01*
X209184577Y-125364578D01*
X209140491Y-125418297D01*
X209140488Y-125418300D01*
X209053000Y-125524904D01*
X209053000Y-122975498D01*
X209113796Y-122901418D01*
X209277039Y-122596013D01*
X209377563Y-122264628D01*
X209411506Y-121920000D01*
X209377563Y-121575372D01*
X209277039Y-121243987D01*
X209113796Y-120938582D01*
X208990216Y-120788000D01*
X213411788Y-120788000D01*
X213857000Y-121233213D01*
X213857001Y-129833317D01*
X213837979Y-129856495D01*
X213679379Y-130153214D01*
X213581714Y-130475174D01*
X213548736Y-130810000D01*
X213581714Y-131144826D01*
X213679379Y-131466786D01*
X213837979Y-131763505D01*
X214051418Y-132023582D01*
X214311495Y-132237021D01*
X214608214Y-132395621D01*
X214930174Y-132493286D01*
X215181096Y-132518000D01*
X215348904Y-132518000D01*
X215599826Y-132493286D01*
X215921786Y-132395621D01*
X216218505Y-132237021D01*
X216241682Y-132218000D01*
X219377903Y-132218000D01*
X219535959Y-132323610D01*
X219846795Y-132452362D01*
X220176777Y-132518000D01*
X220513223Y-132518000D01*
X220843205Y-132452362D01*
X221154041Y-132323610D01*
X221433786Y-132136690D01*
X221671690Y-131898786D01*
X221858610Y-131619041D01*
X221987362Y-131308205D01*
X222053000Y-130978223D01*
X222053000Y-130641777D01*
X221987362Y-130311795D01*
X221858610Y-130000959D01*
X221671690Y-129721214D01*
X221628476Y-129678000D01*
X224141524Y-129678000D01*
X224098310Y-129721214D01*
X223911390Y-130000959D01*
X223782638Y-130311795D01*
X223717000Y-130641777D01*
X223717000Y-130978223D01*
X223782638Y-131308205D01*
X223911390Y-131619041D01*
X224017000Y-131777098D01*
X224017001Y-135820836D01*
X224010189Y-135890000D01*
X224037374Y-136166016D01*
X224117885Y-136431425D01*
X224248627Y-136676027D01*
X224380488Y-136836700D01*
X224380492Y-136836704D01*
X224424578Y-136890423D01*
X224478297Y-136934509D01*
X228818775Y-141274987D01*
X228821714Y-141304826D01*
X228919379Y-141626786D01*
X229077979Y-141923505D01*
X229097000Y-141946682D01*
X229097000Y-142032216D01*
X229090189Y-142101370D01*
X229097000Y-142170524D01*
X229097000Y-142170534D01*
X229117373Y-142377386D01*
X229197884Y-142642795D01*
X229263256Y-142765096D01*
X229328627Y-142887397D01*
X229460488Y-143048070D01*
X229460492Y-143048074D01*
X229504578Y-143101793D01*
X229558297Y-143145879D01*
X231504121Y-145091704D01*
X231548207Y-145145423D01*
X231601926Y-145189509D01*
X231601929Y-145189512D01*
X231762602Y-145321373D01*
X231868327Y-145377884D01*
X232007205Y-145452116D01*
X232272614Y-145532627D01*
X232479466Y-145553000D01*
X232479475Y-145553000D01*
X232548629Y-145559811D01*
X232617783Y-145553000D01*
X238055846Y-145553000D01*
X238125000Y-145559811D01*
X238194154Y-145553000D01*
X238194164Y-145553000D01*
X238401016Y-145532627D01*
X238666425Y-145452116D01*
X238911027Y-145321373D01*
X239125423Y-145145423D01*
X239169513Y-145091699D01*
X240341708Y-143919505D01*
X240395422Y-143875423D01*
X240439505Y-143821708D01*
X240439512Y-143821701D01*
X240571373Y-143661028D01*
X240702115Y-143416426D01*
X240702116Y-143416425D01*
X240782627Y-143151016D01*
X240803000Y-142944164D01*
X240803000Y-142944155D01*
X240809811Y-142875001D01*
X240803000Y-142805847D01*
X240803000Y-142556460D01*
X241761573Y-142556460D01*
X241842879Y-142847428D01*
X241992071Y-143147339D01*
X242196906Y-143412382D01*
X242449512Y-143632371D01*
X242740182Y-143798852D01*
X243057746Y-143905427D01*
X243390000Y-143948000D01*
X243790000Y-143948000D01*
X243790000Y-142290000D01*
X241959844Y-142290000D01*
X241761573Y-142556460D01*
X240803000Y-142556460D01*
X240803000Y-141553212D01*
X241248213Y-141108000D01*
X242165697Y-141108000D01*
X241992071Y-141332661D01*
X241842879Y-141632572D01*
X241761573Y-141923540D01*
X241959844Y-142190000D01*
X243790000Y-142190000D01*
X243790000Y-142170000D01*
X243890000Y-142170000D01*
X243890000Y-142190000D01*
X243910000Y-142190000D01*
X243910000Y-142290000D01*
X243890000Y-142290000D01*
X243890000Y-143948000D01*
X244290000Y-143948000D01*
X244622254Y-143905427D01*
X244939818Y-143798852D01*
X245230488Y-143632371D01*
X245483094Y-143412382D01*
X245607000Y-143252055D01*
X245607001Y-151695836D01*
X245600189Y-151765000D01*
X245627374Y-152041016D01*
X245707885Y-152306425D01*
X245838627Y-152551027D01*
X245970488Y-152711700D01*
X245970492Y-152711704D01*
X246014578Y-152765423D01*
X246068296Y-152809509D01*
X247240491Y-153981704D01*
X247284577Y-154035423D01*
X247338296Y-154079509D01*
X247338299Y-154079512D01*
X247498972Y-154211373D01*
X247629715Y-154281256D01*
X247743575Y-154342116D01*
X248008984Y-154422627D01*
X248215836Y-154443000D01*
X248215845Y-154443000D01*
X248284999Y-154449811D01*
X248354153Y-154443000D01*
X253023318Y-154443000D01*
X253046495Y-154462021D01*
X253343214Y-154620621D01*
X253665174Y-154718286D01*
X253916096Y-154743000D01*
X254083904Y-154743000D01*
X254334826Y-154718286D01*
X254656786Y-154620621D01*
X254953505Y-154462021D01*
X255213582Y-154248582D01*
X255427021Y-153988505D01*
X255585621Y-153691786D01*
X255683286Y-153369826D01*
X255688981Y-153312000D01*
X261317000Y-153312000D01*
X261317000Y-154424430D01*
X261351894Y-154599854D01*
X261420341Y-154765099D01*
X261519710Y-154913816D01*
X261646184Y-155040290D01*
X261794901Y-155139659D01*
X261960146Y-155208106D01*
X262135570Y-155243000D01*
X263248000Y-155243000D01*
X263475000Y-155016000D01*
X263475000Y-153085000D01*
X263575000Y-153085000D01*
X263575000Y-155016000D01*
X263802000Y-155243000D01*
X264914430Y-155243000D01*
X265089854Y-155208106D01*
X265255099Y-155139659D01*
X265403816Y-155040290D01*
X265530290Y-154913816D01*
X265629659Y-154765099D01*
X265698106Y-154599854D01*
X265733000Y-154424430D01*
X265733000Y-153312000D01*
X265506000Y-153085000D01*
X263575000Y-153085000D01*
X263475000Y-153085000D01*
X261544000Y-153085000D01*
X261317000Y-153312000D01*
X255688981Y-153312000D01*
X255716264Y-153035000D01*
X255683286Y-152700174D01*
X255585621Y-152378214D01*
X255427021Y-152081495D01*
X255213582Y-151821418D01*
X254999310Y-151645570D01*
X261317000Y-151645570D01*
X261317000Y-152758000D01*
X261544000Y-152985000D01*
X263475000Y-152985000D01*
X263475000Y-151054000D01*
X263575000Y-151054000D01*
X263575000Y-152985000D01*
X265506000Y-152985000D01*
X265733000Y-152758000D01*
X265733000Y-151645570D01*
X265698106Y-151470146D01*
X265629659Y-151304901D01*
X265530290Y-151156184D01*
X265403816Y-151029710D01*
X265255099Y-150930341D01*
X265089854Y-150861894D01*
X264914430Y-150827000D01*
X263802000Y-150827000D01*
X263575000Y-151054000D01*
X263475000Y-151054000D01*
X263248000Y-150827000D01*
X262135570Y-150827000D01*
X261960146Y-150861894D01*
X261794901Y-150930341D01*
X261646184Y-151029710D01*
X261519710Y-151156184D01*
X261420341Y-151304901D01*
X261351894Y-151470146D01*
X261317000Y-151645570D01*
X254999310Y-151645570D01*
X254953505Y-151607979D01*
X254656786Y-151449379D01*
X254334826Y-151351714D01*
X254083904Y-151327000D01*
X253916096Y-151327000D01*
X253665174Y-151351714D01*
X253343214Y-151449379D01*
X253046495Y-151607979D01*
X253023318Y-151627000D01*
X248868213Y-151627000D01*
X248423000Y-151181788D01*
X248423000Y-145639212D01*
X249145491Y-146361704D01*
X249189577Y-146415423D01*
X249243296Y-146459509D01*
X249243299Y-146459512D01*
X249403972Y-146591373D01*
X249534715Y-146661256D01*
X249648575Y-146722116D01*
X249913984Y-146802627D01*
X250120836Y-146823000D01*
X250120845Y-146823000D01*
X250189999Y-146829811D01*
X250259153Y-146823000D01*
X255200846Y-146823000D01*
X255270000Y-146829811D01*
X255339154Y-146823000D01*
X255339164Y-146823000D01*
X255546016Y-146802627D01*
X255811425Y-146722116D01*
X256056027Y-146591373D01*
X256270423Y-146415423D01*
X256314513Y-146361699D01*
X261310258Y-141365954D01*
X261929757Y-141365954D01*
X261969355Y-141687223D01*
X262250851Y-141840850D01*
X262556909Y-141936607D01*
X262875767Y-141970815D01*
X263195172Y-141942160D01*
X263502850Y-141851742D01*
X263786976Y-141703037D01*
X263810645Y-141687223D01*
X263850243Y-141365954D01*
X262890000Y-140405711D01*
X261929757Y-141365954D01*
X261310258Y-141365954D01*
X261495259Y-141180953D01*
X261521963Y-141231976D01*
X261537777Y-141255645D01*
X261859046Y-141295243D01*
X262819289Y-140335000D01*
X262960711Y-140335000D01*
X263920954Y-141295243D01*
X264242223Y-141255645D01*
X264395850Y-140974149D01*
X264491607Y-140668091D01*
X264525815Y-140349233D01*
X264497160Y-140029828D01*
X264406742Y-139722150D01*
X264258037Y-139438024D01*
X264242223Y-139414355D01*
X263920954Y-139374757D01*
X262960711Y-140335000D01*
X262819289Y-140335000D01*
X262805147Y-140320858D01*
X262875858Y-140250147D01*
X262890000Y-140264289D01*
X263850243Y-139304046D01*
X263810645Y-138982777D01*
X263734818Y-138941394D01*
X264108212Y-138568000D01*
X264846788Y-138568000D01*
X267197001Y-140918214D01*
X267197000Y-151320416D01*
X266889934Y-151627482D01*
X266648295Y-151989120D01*
X266481852Y-152390950D01*
X266397000Y-152817531D01*
X266397000Y-153252469D01*
X266481852Y-153679050D01*
X266648295Y-154080880D01*
X266889934Y-154442518D01*
X267197482Y-154750066D01*
X267559120Y-154991705D01*
X267960950Y-155158148D01*
X268387531Y-155243000D01*
X268822469Y-155243000D01*
X269249050Y-155158148D01*
X269650880Y-154991705D01*
X270012518Y-154750066D01*
X270320066Y-154442518D01*
X270561705Y-154080880D01*
X270728148Y-153679050D01*
X270813000Y-153252469D01*
X270813000Y-152817531D01*
X270728148Y-152390950D01*
X270561705Y-151989120D01*
X270320066Y-151627482D01*
X270013000Y-151320416D01*
X270013000Y-140404153D01*
X270019811Y-140334999D01*
X270013000Y-140265845D01*
X270013000Y-140265836D01*
X269992627Y-140058984D01*
X269912116Y-139793575D01*
X269851256Y-139679715D01*
X269781373Y-139548972D01*
X269649512Y-139388299D01*
X269649509Y-139388296D01*
X269605423Y-139334577D01*
X269551704Y-139290491D01*
X266838000Y-136576788D01*
X266838000Y-134054153D01*
X266844811Y-133984999D01*
X266838000Y-133915845D01*
X266838000Y-133915836D01*
X266817627Y-133708984D01*
X266737116Y-133443575D01*
X266676256Y-133329715D01*
X266606373Y-133198972D01*
X266474512Y-133038299D01*
X266474509Y-133038296D01*
X266430423Y-132984577D01*
X266376704Y-132940491D01*
X260124511Y-126688299D01*
X260080423Y-126634577D01*
X259866027Y-126458627D01*
X259621425Y-126327884D01*
X259356016Y-126247373D01*
X259149164Y-126227000D01*
X259149154Y-126227000D01*
X259080000Y-126220189D01*
X259010846Y-126227000D01*
X246963213Y-126227000D01*
X244249512Y-123513300D01*
X244205423Y-123459577D01*
X243991027Y-123283627D01*
X243746425Y-123152884D01*
X243481016Y-123072373D01*
X243274164Y-123052000D01*
X243274154Y-123052000D01*
X243205000Y-123045189D01*
X243135846Y-123052000D01*
X224103212Y-123052000D01*
X223023000Y-121971788D01*
X223023000Y-115004153D01*
X223029811Y-114934999D01*
X223023000Y-114865845D01*
X223023000Y-114865836D01*
X223002627Y-114658984D01*
X222922116Y-114393575D01*
X222791373Y-114148973D01*
X222759244Y-114109824D01*
X222659512Y-113988299D01*
X222659509Y-113988296D01*
X222615423Y-113934577D01*
X222561704Y-113890491D01*
X220747673Y-112076460D01*
X223981573Y-112076460D01*
X224062879Y-112367428D01*
X224212071Y-112667339D01*
X224416906Y-112932382D01*
X224669512Y-113152371D01*
X224960182Y-113318852D01*
X225277746Y-113425427D01*
X225610000Y-113468000D01*
X226010000Y-113468000D01*
X226010000Y-111810000D01*
X224179844Y-111810000D01*
X223981573Y-112076460D01*
X220747673Y-112076460D01*
X211864511Y-103193299D01*
X211820423Y-103139577D01*
X211606027Y-102963627D01*
X211361425Y-102832884D01*
X211096016Y-102752373D01*
X210889164Y-102732000D01*
X210889154Y-102732000D01*
X210820000Y-102725189D01*
X210750846Y-102732000D01*
X208978997Y-102732000D01*
X209096066Y-102592459D01*
X209261803Y-102290300D01*
X209365407Y-101961613D01*
X209372832Y-101924285D01*
X209175183Y-101650000D01*
X207695000Y-101650000D01*
X207695000Y-101670000D01*
X207595000Y-101670000D01*
X207595000Y-101650000D01*
X207575000Y-101650000D01*
X207575000Y-101550000D01*
X207595000Y-101550000D01*
X207595000Y-99110000D01*
X207695000Y-99110000D01*
X207695000Y-101550000D01*
X209175183Y-101550000D01*
X209372832Y-101275715D01*
X209365407Y-101238387D01*
X209261803Y-100909700D01*
X209096066Y-100607541D01*
X208874565Y-100343522D01*
X208857720Y-100330000D01*
X208874565Y-100316478D01*
X209096066Y-100052459D01*
X209261803Y-99750300D01*
X209365407Y-99421613D01*
X209372832Y-99384285D01*
X209175183Y-99110000D01*
X207695000Y-99110000D01*
X207595000Y-99110000D01*
X205155000Y-99110000D01*
X205155000Y-99130000D01*
X205055000Y-99130000D01*
X205055000Y-99110000D01*
X203574817Y-99110000D01*
X203377168Y-99384285D01*
X203384593Y-99421613D01*
X203488197Y-99750300D01*
X203653934Y-100052459D01*
X203875435Y-100316478D01*
X203886754Y-100325564D01*
X203855892Y-100350892D01*
X203636204Y-100618582D01*
X203472961Y-100923987D01*
X203372437Y-101255372D01*
X203338494Y-101600000D01*
X203372437Y-101944628D01*
X203472961Y-102276013D01*
X203636204Y-102581418D01*
X203855892Y-102849108D01*
X203881349Y-102870000D01*
X203855892Y-102890892D01*
X203636204Y-103158582D01*
X203472961Y-103463987D01*
X203372437Y-103795372D01*
X203338494Y-104140000D01*
X203372437Y-104484628D01*
X203472961Y-104816013D01*
X203636204Y-105121418D01*
X203855892Y-105389108D01*
X203881349Y-105410000D01*
X203855892Y-105430892D01*
X203636204Y-105698582D01*
X203472961Y-106003987D01*
X203372437Y-106335372D01*
X203338494Y-106680000D01*
X203372437Y-107024628D01*
X203472961Y-107356013D01*
X203636204Y-107661418D01*
X203855892Y-107929108D01*
X203881349Y-107950000D01*
X203855892Y-107970892D01*
X203636204Y-108238582D01*
X203472961Y-108543987D01*
X203372437Y-108875372D01*
X203338494Y-109220000D01*
X203372437Y-109564628D01*
X203472961Y-109896013D01*
X203636204Y-110201418D01*
X203855892Y-110469108D01*
X203881349Y-110490000D01*
X203855892Y-110510892D01*
X203636204Y-110778582D01*
X203472961Y-111083987D01*
X203372437Y-111415372D01*
X203338494Y-111760000D01*
X203372437Y-112104628D01*
X203472961Y-112436013D01*
X203636204Y-112741418D01*
X203855892Y-113009108D01*
X203881349Y-113030000D01*
X203855892Y-113050892D01*
X203636204Y-113318582D01*
X203472961Y-113623987D01*
X203372437Y-113955372D01*
X203338494Y-114300000D01*
X203372437Y-114644628D01*
X203472961Y-114976013D01*
X203636204Y-115281418D01*
X203855892Y-115549108D01*
X203881349Y-115570000D01*
X203855892Y-115590892D01*
X203636204Y-115858582D01*
X203472961Y-116163987D01*
X203372437Y-116495372D01*
X203338494Y-116840000D01*
X203372437Y-117184628D01*
X203472961Y-117516013D01*
X203636204Y-117821418D01*
X203759784Y-117972000D01*
X200729154Y-117972000D01*
X200660000Y-117965189D01*
X200590846Y-117972000D01*
X200590836Y-117972000D01*
X200383984Y-117992373D01*
X200118575Y-118072884D01*
X200049136Y-118110000D01*
X199873972Y-118203627D01*
X199752409Y-118303392D01*
X199659577Y-118379577D01*
X199615489Y-118433299D01*
X197808297Y-120240491D01*
X197754578Y-120284577D01*
X197710492Y-120338296D01*
X197710488Y-120338300D01*
X197578627Y-120498973D01*
X197447885Y-120743575D01*
X197367374Y-121008984D01*
X197340189Y-121285000D01*
X197347001Y-121354164D01*
X197347000Y-130266257D01*
X197335015Y-130254272D01*
X197175243Y-130414044D01*
X197135645Y-130092777D01*
X196854149Y-129939150D01*
X196548091Y-129843393D01*
X196229233Y-129809185D01*
X195909828Y-129837840D01*
X195602150Y-129928258D01*
X195318024Y-130076963D01*
X195294355Y-130092777D01*
X195254757Y-130414046D01*
X196215000Y-131374289D01*
X196229142Y-131360147D01*
X196299853Y-131430858D01*
X196285711Y-131445000D01*
X196299853Y-131459142D01*
X196229142Y-131529853D01*
X196215000Y-131515711D01*
X195254757Y-132475954D01*
X195294355Y-132797223D01*
X195575851Y-132950850D01*
X195881909Y-133046607D01*
X196200767Y-133080815D01*
X196520172Y-133052160D01*
X196827850Y-132961742D01*
X197111976Y-132813037D01*
X197135645Y-132797223D01*
X197175243Y-132475956D01*
X197335015Y-132635728D01*
X197347000Y-132623743D01*
X197347000Y-133161898D01*
X197312285Y-133213853D01*
X197189563Y-133510130D01*
X197127000Y-133824656D01*
X197127000Y-134145344D01*
X197189563Y-134459870D01*
X197312285Y-134756147D01*
X197490450Y-135022789D01*
X197717211Y-135249550D01*
X197983853Y-135427715D01*
X198280130Y-135550437D01*
X198594656Y-135613000D01*
X198915344Y-135613000D01*
X199229870Y-135550437D01*
X199526147Y-135427715D01*
X199792789Y-135249550D01*
X200019550Y-135022789D01*
X200197715Y-134756147D01*
X200320437Y-134459870D01*
X200383000Y-134145344D01*
X200383000Y-133824656D01*
X200320437Y-133510130D01*
X200197715Y-133213853D01*
X200163000Y-133161898D01*
X200163000Y-121868212D01*
X201243212Y-120788000D01*
X203759784Y-120788000D01*
X203636204Y-120938582D01*
X203472961Y-121243987D01*
X203372437Y-121575372D01*
X203338494Y-121920000D01*
X203372437Y-122264628D01*
X203472961Y-122596013D01*
X203636204Y-122901418D01*
X203697001Y-122975499D01*
X203697000Y-141656788D01*
X202616788Y-142737000D01*
X199578102Y-142737000D01*
X199526147Y-142702285D01*
X199229870Y-142579563D01*
X198915344Y-142517000D01*
X198594656Y-142517000D01*
X198280130Y-142579563D01*
X197983853Y-142702285D01*
X197717211Y-142880450D01*
X197490450Y-143107211D01*
X197312285Y-143373853D01*
X197189563Y-143670130D01*
X197127000Y-143984656D01*
X197127000Y-144305344D01*
X197189563Y-144619870D01*
X197312285Y-144916147D01*
X197490450Y-145182789D01*
X197717211Y-145409550D01*
X197983853Y-145587715D01*
X198280130Y-145710437D01*
X198594656Y-145773000D01*
X198915344Y-145773000D01*
X199229870Y-145710437D01*
X199526147Y-145587715D01*
X199578102Y-145553000D01*
X203130846Y-145553000D01*
X203200000Y-145559811D01*
X203269154Y-145553000D01*
X203269164Y-145553000D01*
X203476016Y-145532627D01*
X203741425Y-145452116D01*
X203986027Y-145321373D01*
X204200423Y-145145423D01*
X204244513Y-145091699D01*
X206051703Y-143284509D01*
X206105422Y-143240423D01*
X206178798Y-143151015D01*
X206237000Y-143080096D01*
X206237000Y-145466788D01*
X199008298Y-152695490D01*
X198915344Y-152677000D01*
X198594656Y-152677000D01*
X198280130Y-152739563D01*
X197983853Y-152862285D01*
X197717211Y-153040450D01*
X197490450Y-153267211D01*
X197312285Y-153533853D01*
X197189563Y-153830130D01*
X197127000Y-154144656D01*
X197127000Y-154465344D01*
X197189563Y-154779870D01*
X197312285Y-155076147D01*
X197490450Y-155342789D01*
X197584661Y-155437000D01*
X197038102Y-155437000D01*
X196986147Y-155402285D01*
X196689870Y-155279563D01*
X196375344Y-155217000D01*
X196054656Y-155217000D01*
X195740130Y-155279563D01*
X195656983Y-155314004D01*
X194448000Y-154105021D01*
X194448000Y-152795954D01*
X195254757Y-152795954D01*
X195294355Y-153117223D01*
X195575851Y-153270850D01*
X195881909Y-153366607D01*
X196200767Y-153400815D01*
X196520172Y-153372160D01*
X196827850Y-153281742D01*
X197111976Y-153133037D01*
X197135645Y-153117223D01*
X197175243Y-152795954D01*
X196215000Y-151835711D01*
X195254757Y-152795954D01*
X194448000Y-152795954D01*
X194448000Y-151750767D01*
X194579185Y-151750767D01*
X194607840Y-152070172D01*
X194698258Y-152377850D01*
X194846963Y-152661976D01*
X194862777Y-152685645D01*
X195184046Y-152725243D01*
X196144289Y-151765000D01*
X196285711Y-151765000D01*
X197245954Y-152725243D01*
X197567223Y-152685645D01*
X197720850Y-152404149D01*
X197816607Y-152098091D01*
X197850815Y-151779233D01*
X197822160Y-151459828D01*
X197731742Y-151152150D01*
X197583037Y-150868024D01*
X197567223Y-150844355D01*
X197245954Y-150804757D01*
X196285711Y-151765000D01*
X196144289Y-151765000D01*
X195184046Y-150804757D01*
X194862777Y-150844355D01*
X194709150Y-151125851D01*
X194613393Y-151431909D01*
X194579185Y-151750767D01*
X194448000Y-151750767D01*
X194448000Y-150734046D01*
X195254757Y-150734046D01*
X196215000Y-151694289D01*
X197175243Y-150734046D01*
X197135645Y-150412777D01*
X196854149Y-150259150D01*
X196548091Y-150163393D01*
X196229233Y-150129185D01*
X195909828Y-150157840D01*
X195602150Y-150248258D01*
X195318024Y-150396963D01*
X195294355Y-150412777D01*
X195254757Y-150734046D01*
X194448000Y-150734046D01*
X194448000Y-148093000D01*
X195391898Y-148093000D01*
X195443853Y-148127715D01*
X195740130Y-148250437D01*
X196054656Y-148313000D01*
X196375344Y-148313000D01*
X196689870Y-148250437D01*
X196986147Y-148127715D01*
X197252789Y-147949550D01*
X197479550Y-147722789D01*
X197657715Y-147456147D01*
X197780437Y-147159870D01*
X197843000Y-146845344D01*
X197843000Y-146524656D01*
X197780437Y-146210130D01*
X197657715Y-145913853D01*
X197479550Y-145647211D01*
X197252789Y-145420450D01*
X196986147Y-145242285D01*
X196689870Y-145119563D01*
X196375344Y-145057000D01*
X196054656Y-145057000D01*
X195740130Y-145119563D01*
X195443853Y-145242285D01*
X195391898Y-145277000D01*
X194448000Y-145277000D01*
X194448000Y-142635954D01*
X195254757Y-142635954D01*
X195294355Y-142957223D01*
X195575851Y-143110850D01*
X195881909Y-143206607D01*
X196200767Y-143240815D01*
X196520172Y-143212160D01*
X196827850Y-143121742D01*
X197111976Y-142973037D01*
X197135645Y-142957223D01*
X197175243Y-142635954D01*
X196215000Y-141675711D01*
X195254757Y-142635954D01*
X194448000Y-142635954D01*
X194448000Y-141590767D01*
X194579185Y-141590767D01*
X194607840Y-141910172D01*
X194698258Y-142217850D01*
X194846963Y-142501976D01*
X194862777Y-142525645D01*
X195184046Y-142565243D01*
X196144289Y-141605000D01*
X196285711Y-141605000D01*
X197245954Y-142565243D01*
X197567223Y-142525645D01*
X197720850Y-142244149D01*
X197816607Y-141938091D01*
X197850815Y-141619233D01*
X197822160Y-141299828D01*
X197731742Y-140992150D01*
X197583037Y-140708024D01*
X197567223Y-140684355D01*
X197245954Y-140644757D01*
X196285711Y-141605000D01*
X196144289Y-141605000D01*
X195184046Y-140644757D01*
X194862777Y-140684355D01*
X194709150Y-140965851D01*
X194613393Y-141271909D01*
X194579185Y-141590767D01*
X194448000Y-141590767D01*
X194448000Y-140574046D01*
X195254757Y-140574046D01*
X196215000Y-141534289D01*
X197175243Y-140574046D01*
X197135645Y-140252777D01*
X196854149Y-140099150D01*
X196548091Y-140003393D01*
X196229233Y-139969185D01*
X195909828Y-139997840D01*
X195602150Y-140088258D01*
X195318024Y-140236963D01*
X195294355Y-140252777D01*
X195254757Y-140574046D01*
X194448000Y-140574046D01*
X194448000Y-138378212D01*
X194893213Y-137933000D01*
X195391898Y-137933000D01*
X195443853Y-137967715D01*
X195740130Y-138090437D01*
X196054656Y-138153000D01*
X196375344Y-138153000D01*
X196689870Y-138090437D01*
X196986147Y-137967715D01*
X197252789Y-137789550D01*
X197479550Y-137562789D01*
X197657715Y-137296147D01*
X197780437Y-136999870D01*
X197843000Y-136685344D01*
X197843000Y-136364656D01*
X197780437Y-136050130D01*
X197657715Y-135753853D01*
X197479550Y-135487211D01*
X197252789Y-135260450D01*
X196986147Y-135082285D01*
X196689870Y-134959563D01*
X196375344Y-134897000D01*
X196054656Y-134897000D01*
X195740130Y-134959563D01*
X195443853Y-135082285D01*
X195391898Y-135117000D01*
X194379153Y-135117000D01*
X194309999Y-135110189D01*
X194240845Y-135117000D01*
X194240836Y-135117000D01*
X194033984Y-135137373D01*
X193768575Y-135217884D01*
X193688940Y-135260450D01*
X193523972Y-135348627D01*
X193363299Y-135480488D01*
X193363296Y-135480491D01*
X193309577Y-135524577D01*
X193265491Y-135578296D01*
X192093296Y-136750491D01*
X192039578Y-136794577D01*
X191995492Y-136848296D01*
X191995488Y-136848300D01*
X191863627Y-137008973D01*
X191732885Y-137253575D01*
X191652374Y-137518984D01*
X191625189Y-137795000D01*
X191632001Y-137864164D01*
X191632000Y-146615836D01*
X191625188Y-146685000D01*
X188283000Y-146685000D01*
X188283000Y-131430767D01*
X194579185Y-131430767D01*
X194607840Y-131750172D01*
X194698258Y-132057850D01*
X194846963Y-132341976D01*
X194862777Y-132365645D01*
X195184046Y-132405243D01*
X196144289Y-131445000D01*
X195184046Y-130484757D01*
X194862777Y-130524355D01*
X194709150Y-130805851D01*
X194613393Y-131111909D01*
X194579185Y-131430767D01*
X188283000Y-131430767D01*
X188283000Y-60649285D01*
X191947168Y-60649285D01*
X191954593Y-60686613D01*
X192058197Y-61015300D01*
X192223934Y-61317459D01*
X192445435Y-61581478D01*
X192714187Y-61797211D01*
X193019863Y-61956368D01*
X193350715Y-62052833D01*
X193625000Y-61855290D01*
X193625000Y-60375000D01*
X193725000Y-60375000D01*
X193725000Y-61855290D01*
X193999285Y-62052833D01*
X194330137Y-61956368D01*
X194635813Y-61797211D01*
X194904565Y-61581478D01*
X194945000Y-61533281D01*
X194985435Y-61581478D01*
X195254187Y-61797211D01*
X195559863Y-61956368D01*
X195890715Y-62052833D01*
X196165000Y-61855290D01*
X196165000Y-60375000D01*
X196265000Y-60375000D01*
X196265000Y-61855290D01*
X196539285Y-62052833D01*
X196870137Y-61956368D01*
X197175813Y-61797211D01*
X197444565Y-61581478D01*
X197666066Y-61317459D01*
X197831803Y-61015300D01*
X197935407Y-60686613D01*
X197942832Y-60649285D01*
X197745183Y-60375000D01*
X196265000Y-60375000D01*
X196165000Y-60375000D01*
X193725000Y-60375000D01*
X193625000Y-60375000D01*
X192144817Y-60375000D01*
X191947168Y-60649285D01*
X188283000Y-60649285D01*
X188283000Y-53340000D01*
X189720189Y-53340000D01*
X189727001Y-53409163D01*
X189727000Y-56445846D01*
X189720189Y-56515000D01*
X189727000Y-56584154D01*
X189727000Y-56584163D01*
X189747373Y-56791015D01*
X189827884Y-57056424D01*
X189833268Y-57066496D01*
X189958627Y-57301027D01*
X190090488Y-57461700D01*
X190090489Y-57461701D01*
X190134577Y-57515422D01*
X190188297Y-57559509D01*
X191360491Y-58731704D01*
X191404577Y-58785423D01*
X191458296Y-58829509D01*
X191458299Y-58829512D01*
X191618972Y-58961373D01*
X191724697Y-59017884D01*
X191863575Y-59092116D01*
X192128984Y-59172627D01*
X192335836Y-59193000D01*
X192335845Y-59193000D01*
X192340609Y-59193469D01*
X192223934Y-59332541D01*
X192058197Y-59634700D01*
X191954593Y-59963387D01*
X191947168Y-60000715D01*
X192144817Y-60275000D01*
X193625000Y-60275000D01*
X193625000Y-60255000D01*
X193725000Y-60255000D01*
X193725000Y-60275000D01*
X196165000Y-60275000D01*
X196165000Y-60255000D01*
X196265000Y-60255000D01*
X196265000Y-60275000D01*
X197745183Y-60275000D01*
X197942832Y-60000715D01*
X197935407Y-59963387D01*
X197831803Y-59634700D01*
X197666066Y-59332541D01*
X197444565Y-59068522D01*
X197433246Y-59059436D01*
X197464108Y-59034108D01*
X197683796Y-58766418D01*
X197847039Y-58461013D01*
X197947563Y-58129628D01*
X197981506Y-57785000D01*
X197947563Y-57440372D01*
X197847039Y-57108987D01*
X197683796Y-56803582D01*
X197560216Y-56653000D01*
X216465846Y-56653000D01*
X216535000Y-56659811D01*
X216604154Y-56653000D01*
X216604164Y-56653000D01*
X216811016Y-56632627D01*
X217076425Y-56552116D01*
X217321027Y-56421373D01*
X217535423Y-56245423D01*
X217579513Y-56191699D01*
X220656764Y-53114448D01*
X220843205Y-53077362D01*
X221154041Y-52948610D01*
X221312097Y-52843000D01*
X224206788Y-52843000D01*
X225287000Y-53923212D01*
X225287001Y-56739466D01*
X225108504Y-56592979D01*
X224811785Y-56434379D01*
X224489825Y-56336714D01*
X224155000Y-56303736D01*
X223820174Y-56336714D01*
X223498214Y-56434379D01*
X223201495Y-56592979D01*
X222941418Y-56806418D01*
X222727979Y-57066496D01*
X222569379Y-57363215D01*
X222471714Y-57685175D01*
X222447000Y-57936097D01*
X222447000Y-58903904D01*
X222471714Y-59154826D01*
X222569379Y-59476786D01*
X222727979Y-59773505D01*
X222747001Y-59796683D01*
X222747001Y-60255836D01*
X222740189Y-60325000D01*
X222767374Y-60601016D01*
X222847885Y-60866425D01*
X222978627Y-61111027D01*
X223110488Y-61271700D01*
X223110492Y-61271704D01*
X223154578Y-61325423D01*
X223208297Y-61369509D01*
X225287000Y-63448213D01*
X225287000Y-63991854D01*
X225132999Y-63945138D01*
X224955000Y-63927607D01*
X223355000Y-63927607D01*
X223177001Y-63945138D01*
X223005842Y-63997059D01*
X222848102Y-64081373D01*
X222709841Y-64194841D01*
X222596373Y-64333102D01*
X222512059Y-64490842D01*
X222469239Y-64632000D01*
X220042097Y-64632000D01*
X219884041Y-64526390D01*
X219573205Y-64397638D01*
X219243223Y-64332000D01*
X218906777Y-64332000D01*
X218576795Y-64397638D01*
X218265959Y-64526390D01*
X217986214Y-64713310D01*
X217748310Y-64951214D01*
X217561390Y-65230959D01*
X217432638Y-65541795D01*
X217367000Y-65871777D01*
X217367000Y-66208223D01*
X217432638Y-66538205D01*
X217561390Y-66849041D01*
X217748310Y-67128786D01*
X217986214Y-67366690D01*
X218265959Y-67553610D01*
X218576795Y-67682362D01*
X218906777Y-67748000D01*
X219243223Y-67748000D01*
X219573205Y-67682362D01*
X219884041Y-67553610D01*
X220042097Y-67448000D01*
X222469239Y-67448000D01*
X222512059Y-67589158D01*
X222596373Y-67746898D01*
X222709841Y-67885159D01*
X222848102Y-67998627D01*
X223005842Y-68082941D01*
X223177001Y-68134862D01*
X223355000Y-68152393D01*
X224955000Y-68152393D01*
X225132999Y-68134862D01*
X225287000Y-68088146D01*
X225287001Y-90667000D01*
X220497102Y-90667000D01*
X220471673Y-90650009D01*
X220179036Y-90528795D01*
X219868374Y-90467000D01*
X219551626Y-90467000D01*
X219240964Y-90528795D01*
X218948327Y-90650009D01*
X218684960Y-90825985D01*
X218460985Y-91049960D01*
X218285009Y-91313327D01*
X218163795Y-91605964D01*
X218102000Y-91916626D01*
X218102000Y-92233374D01*
X218163795Y-92544036D01*
X218285009Y-92836673D01*
X218460985Y-93100040D01*
X218684960Y-93324015D01*
X218948327Y-93499991D01*
X219240964Y-93621205D01*
X219551626Y-93683000D01*
X219868374Y-93683000D01*
X220179036Y-93621205D01*
X220471673Y-93499991D01*
X220497102Y-93483000D01*
X226625836Y-93483000D01*
X226695000Y-93489812D01*
X226764164Y-93483000D01*
X232272001Y-93483000D01*
X232272000Y-95137701D01*
X232066418Y-95306418D01*
X231852979Y-95566495D01*
X231694379Y-95863214D01*
X231596714Y-96185174D01*
X231563736Y-96520000D01*
X231596714Y-96854826D01*
X231694379Y-97176786D01*
X231852979Y-97473505D01*
X232066418Y-97733582D01*
X232135164Y-97790000D01*
X232066418Y-97846418D01*
X231852979Y-98106495D01*
X231694379Y-98403214D01*
X231596714Y-98725174D01*
X231563736Y-99060000D01*
X231596714Y-99394826D01*
X231694379Y-99716786D01*
X231852979Y-100013505D01*
X231999466Y-100192000D01*
X227740534Y-100192000D01*
X227887021Y-100013505D01*
X228045621Y-99716786D01*
X228143286Y-99394826D01*
X228176264Y-99060000D01*
X228143286Y-98725174D01*
X228045621Y-98403214D01*
X227887021Y-98106495D01*
X227825011Y-98030935D01*
X227905159Y-97965159D01*
X228018627Y-97826898D01*
X228102941Y-97669158D01*
X228154862Y-97497999D01*
X228172393Y-97320000D01*
X228172393Y-95720000D01*
X228154862Y-95542001D01*
X228102941Y-95370842D01*
X228018627Y-95213102D01*
X227905159Y-95074841D01*
X227766898Y-94961373D01*
X227609158Y-94877059D01*
X227437999Y-94825138D01*
X227260000Y-94807607D01*
X224860000Y-94807607D01*
X224682001Y-94825138D01*
X224510842Y-94877059D01*
X224353102Y-94961373D01*
X224214841Y-95074841D01*
X224184345Y-95112000D01*
X220293213Y-95112000D01*
X215403000Y-90221788D01*
X215403000Y-81596460D01*
X217396571Y-81596460D01*
X217490560Y-81917825D01*
X217645438Y-82214678D01*
X217855253Y-82475612D01*
X218111942Y-82690599D01*
X218405641Y-82851378D01*
X218725063Y-82951770D01*
X218758540Y-82958427D01*
X219025000Y-82760156D01*
X219025000Y-81330000D01*
X219125000Y-81330000D01*
X219125000Y-82760156D01*
X219391460Y-82958427D01*
X219424937Y-82951770D01*
X219744359Y-82851378D01*
X220038058Y-82690599D01*
X220294747Y-82475612D01*
X220504562Y-82214678D01*
X220659440Y-81917825D01*
X220753429Y-81596460D01*
X220555270Y-81330000D01*
X219125000Y-81330000D01*
X219025000Y-81330000D01*
X217594730Y-81330000D01*
X217396571Y-81596460D01*
X215403000Y-81596460D01*
X215403000Y-80963540D01*
X217396571Y-80963540D01*
X217594730Y-81230000D01*
X219025000Y-81230000D01*
X219025000Y-79799844D01*
X219125000Y-79799844D01*
X219125000Y-81230000D01*
X220555270Y-81230000D01*
X220753429Y-80963540D01*
X220659440Y-80642175D01*
X220504562Y-80345322D01*
X220294747Y-80084388D01*
X220038058Y-79869401D01*
X219744359Y-79708622D01*
X219424937Y-79608230D01*
X219391460Y-79601573D01*
X219125000Y-79799844D01*
X219025000Y-79799844D01*
X218758540Y-79601573D01*
X218725063Y-79608230D01*
X218405641Y-79708622D01*
X218111942Y-79869401D01*
X217855253Y-80084388D01*
X217645438Y-80345322D01*
X217490560Y-80642175D01*
X217396571Y-80963540D01*
X215403000Y-80963540D01*
X215403000Y-71189161D01*
X215409812Y-71120000D01*
X215394937Y-70968972D01*
X215382627Y-70843984D01*
X215302132Y-70578627D01*
X215302116Y-70578574D01*
X215171373Y-70333972D01*
X215039512Y-70173300D01*
X215039509Y-70173297D01*
X214995422Y-70119577D01*
X214941703Y-70075491D01*
X211229513Y-66363301D01*
X211185423Y-66309577D01*
X210971027Y-66133627D01*
X210726425Y-66002884D01*
X210461016Y-65922373D01*
X210254164Y-65902000D01*
X210254154Y-65902000D01*
X210185000Y-65895189D01*
X210115846Y-65902000D01*
X203269154Y-65902000D01*
X203200000Y-65895189D01*
X203130846Y-65902000D01*
X203130836Y-65902000D01*
X202923984Y-65922373D01*
X202658575Y-66002884D01*
X202589136Y-66040000D01*
X202413972Y-66133627D01*
X202351605Y-66184811D01*
X202199577Y-66309577D01*
X202155487Y-66363301D01*
X200348297Y-68170491D01*
X200294578Y-68214577D01*
X200250492Y-68268296D01*
X200250488Y-68268300D01*
X200118627Y-68428973D01*
X199987885Y-68673575D01*
X199907374Y-68938984D01*
X199880189Y-69215000D01*
X199887001Y-69284164D01*
X199887000Y-74860846D01*
X199880189Y-74930000D01*
X199887000Y-74999154D01*
X199887000Y-74999163D01*
X199907373Y-75206015D01*
X199987884Y-75471424D01*
X199987885Y-75471425D01*
X200118627Y-75716027D01*
X200250488Y-75876700D01*
X200250491Y-75876703D01*
X200294577Y-75930422D01*
X200348297Y-75974509D01*
X201520491Y-77146704D01*
X201564577Y-77200423D01*
X201618296Y-77244509D01*
X201618299Y-77244512D01*
X201778972Y-77376373D01*
X201884697Y-77432884D01*
X202023575Y-77507116D01*
X202288984Y-77587627D01*
X202495836Y-77608000D01*
X202495845Y-77608000D01*
X202564999Y-77614811D01*
X202634153Y-77608000D01*
X203759784Y-77608000D01*
X203636204Y-77758582D01*
X203472961Y-78063987D01*
X203372437Y-78395372D01*
X203338494Y-78740000D01*
X203372437Y-79084628D01*
X203472961Y-79416013D01*
X203636204Y-79721418D01*
X203855892Y-79989108D01*
X203881349Y-80010000D01*
X203855892Y-80030892D01*
X203636204Y-80298582D01*
X203472961Y-80603987D01*
X203372437Y-80935372D01*
X203338494Y-81280000D01*
X203372437Y-81624628D01*
X203472961Y-81956013D01*
X203636204Y-82261418D01*
X203855892Y-82529108D01*
X203881349Y-82550000D01*
X203855892Y-82570892D01*
X203636204Y-82838582D01*
X203472961Y-83143987D01*
X203372437Y-83475372D01*
X203338494Y-83820000D01*
X203372437Y-84164628D01*
X203472961Y-84496013D01*
X203636204Y-84801418D01*
X203855892Y-85069108D01*
X203881349Y-85090000D01*
X203855892Y-85110892D01*
X203636204Y-85378582D01*
X203472961Y-85683987D01*
X203372437Y-86015372D01*
X203338494Y-86360000D01*
X203372437Y-86704628D01*
X203472961Y-87036013D01*
X203636204Y-87341418D01*
X203855892Y-87609108D01*
X203881349Y-87630000D01*
X203855892Y-87650892D01*
X203636204Y-87918582D01*
X203472961Y-88223987D01*
X203372437Y-88555372D01*
X203338494Y-88900000D01*
X203372437Y-89244628D01*
X203472961Y-89576013D01*
X203636204Y-89881418D01*
X203855892Y-90149108D01*
X203881349Y-90170000D01*
X203855892Y-90190892D01*
X203636204Y-90458582D01*
X203472961Y-90763987D01*
X203372437Y-91095372D01*
X203338494Y-91440000D01*
X203372437Y-91784628D01*
X203472961Y-92116013D01*
X203636204Y-92421418D01*
X203855892Y-92689108D01*
X203881349Y-92710000D01*
X203855892Y-92730892D01*
X203636204Y-92998582D01*
X203472961Y-93303987D01*
X203372437Y-93635372D01*
X203338494Y-93980000D01*
X203372437Y-94324628D01*
X203472961Y-94656013D01*
X203636204Y-94961418D01*
X203855892Y-95229108D01*
X203881349Y-95250000D01*
X203855892Y-95270892D01*
X203636204Y-95538582D01*
X203472961Y-95843987D01*
X203372437Y-96175372D01*
X203338494Y-96520000D01*
X203372437Y-96864628D01*
X203472961Y-97196013D01*
X203636204Y-97501418D01*
X203855892Y-97769108D01*
X203886754Y-97794436D01*
X203875435Y-97803522D01*
X203653934Y-98067541D01*
X203488197Y-98369700D01*
X203384593Y-98698387D01*
X203377168Y-98735715D01*
X203574817Y-99010000D01*
X205055000Y-99010000D01*
X205055000Y-98990000D01*
X205155000Y-98990000D01*
X205155000Y-99010000D01*
X207595000Y-99010000D01*
X207595000Y-98990000D01*
X207695000Y-98990000D01*
X207695000Y-99010000D01*
X209175183Y-99010000D01*
X209372832Y-98735715D01*
X209365407Y-98698387D01*
X209261803Y-98369700D01*
X209096066Y-98067541D01*
X208978997Y-97928000D01*
X214477894Y-97928000D01*
X214503323Y-97944991D01*
X214795960Y-98066205D01*
X215106622Y-98128000D01*
X215423370Y-98128000D01*
X215734032Y-98066205D01*
X216026669Y-97944991D01*
X216290036Y-97769015D01*
X216514011Y-97545040D01*
X216689987Y-97281673D01*
X216811201Y-96989036D01*
X216872996Y-96678374D01*
X216872996Y-96361626D01*
X216811201Y-96050964D01*
X216689987Y-95758327D01*
X216514011Y-95494960D01*
X216290036Y-95270985D01*
X216026669Y-95095009D01*
X215734032Y-94973795D01*
X215423370Y-94912000D01*
X215106622Y-94912000D01*
X214795960Y-94973795D01*
X214503323Y-95095009D01*
X214477894Y-95112000D01*
X213232055Y-95112000D01*
X213339013Y-95005042D01*
X213514989Y-94741675D01*
X213636203Y-94449038D01*
X213697998Y-94138376D01*
X213697998Y-93821628D01*
X213636203Y-93510966D01*
X213514989Y-93218329D01*
X213339013Y-92954962D01*
X213115038Y-92730987D01*
X212851671Y-92555011D01*
X212559034Y-92433797D01*
X212248372Y-92372002D01*
X211931624Y-92372002D01*
X211620962Y-92433797D01*
X211328325Y-92555011D01*
X211302899Y-92572000D01*
X208990216Y-92572000D01*
X209113796Y-92421418D01*
X209277039Y-92116013D01*
X209377563Y-91784628D01*
X209411506Y-91440000D01*
X209377563Y-91095372D01*
X209277039Y-90763987D01*
X209113796Y-90458582D01*
X208894108Y-90190892D01*
X208868651Y-90170000D01*
X208894108Y-90149108D01*
X209113796Y-89881418D01*
X209277039Y-89576013D01*
X209377563Y-89244628D01*
X209411506Y-88900000D01*
X209377563Y-88555372D01*
X209277039Y-88223987D01*
X209113796Y-87918582D01*
X208894108Y-87650892D01*
X208868651Y-87630000D01*
X208894108Y-87609108D01*
X209113796Y-87341418D01*
X209277039Y-87036013D01*
X209377563Y-86704628D01*
X209411506Y-86360000D01*
X209377563Y-86015372D01*
X209277039Y-85683987D01*
X209113796Y-85378582D01*
X208894108Y-85110892D01*
X208868651Y-85090000D01*
X208894108Y-85069108D01*
X209113796Y-84801418D01*
X209277039Y-84496013D01*
X209377563Y-84164628D01*
X209411506Y-83820000D01*
X209377563Y-83475372D01*
X209277039Y-83143987D01*
X209113796Y-82838582D01*
X208894108Y-82570892D01*
X208868651Y-82550000D01*
X208894108Y-82529108D01*
X209113796Y-82261418D01*
X209277039Y-81956013D01*
X209377563Y-81624628D01*
X209411506Y-81280000D01*
X209377563Y-80935372D01*
X209277039Y-80603987D01*
X209113796Y-80298582D01*
X208894108Y-80030892D01*
X208868651Y-80010000D01*
X208894108Y-79989108D01*
X209113796Y-79721418D01*
X209277039Y-79416013D01*
X209377563Y-79084628D01*
X209411506Y-78740000D01*
X209377563Y-78395372D01*
X209277039Y-78063987D01*
X209113796Y-77758582D01*
X208894108Y-77490892D01*
X208868651Y-77470000D01*
X208894108Y-77449108D01*
X209113796Y-77181418D01*
X209277039Y-76876013D01*
X209377563Y-76544628D01*
X209411506Y-76200000D01*
X209377563Y-75855372D01*
X209277039Y-75523987D01*
X209113796Y-75218582D01*
X208894108Y-74950892D01*
X208868651Y-74930000D01*
X208894108Y-74909108D01*
X209113796Y-74641418D01*
X209277039Y-74336013D01*
X209377563Y-74004628D01*
X209411506Y-73660000D01*
X209377563Y-73315372D01*
X209277039Y-72983987D01*
X209113796Y-72678582D01*
X208894108Y-72410892D01*
X208626418Y-72191204D01*
X208321013Y-72027961D01*
X207989628Y-71927437D01*
X207731363Y-71902000D01*
X207558637Y-71902000D01*
X207300372Y-71927437D01*
X206968987Y-72027961D01*
X206663582Y-72191204D01*
X206638612Y-72211696D01*
X206600159Y-72164841D01*
X206461898Y-72051373D01*
X206304158Y-71967059D01*
X206132999Y-71915138D01*
X205955000Y-71897607D01*
X204255000Y-71897607D01*
X204077001Y-71915138D01*
X203905842Y-71967059D01*
X203748102Y-72051373D01*
X203609841Y-72164841D01*
X203496373Y-72303102D01*
X203412059Y-72460842D01*
X203360138Y-72632001D01*
X203342607Y-72810000D01*
X203342607Y-74510000D01*
X203360138Y-74687999D01*
X203391687Y-74792000D01*
X203148213Y-74792000D01*
X202703000Y-74346788D01*
X202703000Y-69798212D01*
X203783212Y-68718000D01*
X209601788Y-68718000D01*
X212587000Y-71703212D01*
X212587001Y-90735836D01*
X212580189Y-90805000D01*
X212607374Y-91081016D01*
X212687885Y-91346425D01*
X212818627Y-91591027D01*
X212950488Y-91751700D01*
X212950492Y-91751704D01*
X212994578Y-91805423D01*
X213048297Y-91849509D01*
X218665491Y-97466704D01*
X218709577Y-97520423D01*
X218763296Y-97564509D01*
X218763300Y-97564513D01*
X218923972Y-97696373D01*
X219029697Y-97752884D01*
X219168575Y-97827116D01*
X219433984Y-97907627D01*
X219640836Y-97928000D01*
X219640839Y-97928000D01*
X219710000Y-97934812D01*
X219779161Y-97928000D01*
X223314903Y-97928000D01*
X223208299Y-98015488D01*
X223208296Y-98015491D01*
X223154577Y-98059577D01*
X223110491Y-98113296D01*
X221938296Y-99285491D01*
X221884578Y-99329577D01*
X221840492Y-99383296D01*
X221840488Y-99383300D01*
X221708627Y-99543973D01*
X221577885Y-99788575D01*
X221497374Y-100053984D01*
X221470189Y-100330000D01*
X221477001Y-100399163D01*
X221477000Y-102800846D01*
X221470189Y-102870000D01*
X221477000Y-102939154D01*
X221477000Y-102939163D01*
X221497373Y-103146015D01*
X221577884Y-103411424D01*
X221577885Y-103411425D01*
X221708627Y-103656027D01*
X221840488Y-103816700D01*
X221840491Y-103816703D01*
X221884577Y-103870422D01*
X221938297Y-103914509D01*
X223110491Y-105086704D01*
X223154577Y-105140423D01*
X223208296Y-105184509D01*
X223208299Y-105184512D01*
X223368972Y-105316373D01*
X223474697Y-105372884D01*
X223613575Y-105447116D01*
X223878984Y-105527627D01*
X224085836Y-105548000D01*
X224085845Y-105548000D01*
X224154999Y-105554811D01*
X224224153Y-105548000D01*
X224379466Y-105548000D01*
X224232979Y-105726495D01*
X224074379Y-106023214D01*
X223976714Y-106345174D01*
X223943736Y-106680000D01*
X223976714Y-107014826D01*
X224074379Y-107336786D01*
X224232979Y-107633505D01*
X224446418Y-107893582D01*
X224515164Y-107950000D01*
X224446418Y-108006418D01*
X224232979Y-108266495D01*
X224074379Y-108563214D01*
X223976714Y-108885174D01*
X223943736Y-109220000D01*
X223976714Y-109554826D01*
X224074379Y-109876786D01*
X224232979Y-110173505D01*
X224446418Y-110433582D01*
X224522286Y-110495845D01*
X224416906Y-110587618D01*
X224212071Y-110852661D01*
X224062879Y-111152572D01*
X223981573Y-111443540D01*
X224179844Y-111710000D01*
X226010000Y-111710000D01*
X226010000Y-111690000D01*
X226110000Y-111690000D01*
X226110000Y-111710000D01*
X226130000Y-111710000D01*
X226130000Y-111810000D01*
X226110000Y-111810000D01*
X226110000Y-113468000D01*
X226510000Y-113468000D01*
X226842254Y-113425427D01*
X227159818Y-113318852D01*
X227450488Y-113152371D01*
X227703094Y-112932382D01*
X227827000Y-112772055D01*
X227827001Y-116052897D01*
X227810009Y-116078327D01*
X227688795Y-116370964D01*
X227627000Y-116681626D01*
X227627000Y-116998374D01*
X227688795Y-117309036D01*
X227810009Y-117601673D01*
X227985985Y-117865040D01*
X228209960Y-118089015D01*
X228473327Y-118264991D01*
X228765964Y-118386205D01*
X229076626Y-118448000D01*
X229393374Y-118448000D01*
X229704036Y-118386205D01*
X229996673Y-118264991D01*
X230260040Y-118089015D01*
X230484015Y-117865040D01*
X230659991Y-117601673D01*
X230781205Y-117309036D01*
X230843000Y-116998374D01*
X230843000Y-116681626D01*
X230781205Y-116370964D01*
X230659991Y-116078327D01*
X230643000Y-116052898D01*
X230643000Y-110264153D01*
X230649811Y-110194999D01*
X230643000Y-110125845D01*
X230643000Y-110125836D01*
X230637906Y-110074117D01*
X230730483Y-110166694D01*
X230774577Y-110220423D01*
X230959729Y-110372373D01*
X230988973Y-110396373D01*
X231233574Y-110527116D01*
X231297205Y-110546418D01*
X231498984Y-110607627D01*
X231705836Y-110628000D01*
X231705838Y-110628000D01*
X231775000Y-110634812D01*
X231844161Y-110628000D01*
X231999466Y-110628000D01*
X231852979Y-110806495D01*
X231694379Y-111103214D01*
X231596714Y-111425174D01*
X231563736Y-111760000D01*
X231596714Y-112094826D01*
X231694379Y-112416786D01*
X231852979Y-112713505D01*
X232066418Y-112973582D01*
X232326495Y-113187021D01*
X232623214Y-113345621D01*
X232945174Y-113443286D01*
X233196096Y-113468000D01*
X234163904Y-113468000D01*
X234414826Y-113443286D01*
X234736786Y-113345621D01*
X235033505Y-113187021D01*
X235056682Y-113168000D01*
X237420846Y-113168000D01*
X237490000Y-113174811D01*
X237559154Y-113168000D01*
X237559164Y-113168000D01*
X237766016Y-113147627D01*
X238031425Y-113067116D01*
X238276027Y-112936373D01*
X238490423Y-112760423D01*
X238534513Y-112706699D01*
X239164752Y-112076460D01*
X244936573Y-112076460D01*
X245017879Y-112367428D01*
X245167071Y-112667339D01*
X245371906Y-112932382D01*
X245624512Y-113152371D01*
X245915182Y-113318852D01*
X246232746Y-113425427D01*
X246565000Y-113468000D01*
X246965000Y-113468000D01*
X246965000Y-111810000D01*
X245134844Y-111810000D01*
X244936573Y-112076460D01*
X239164752Y-112076460D01*
X244947248Y-106293965D01*
X244931714Y-106345174D01*
X244898736Y-106680000D01*
X244931714Y-107014826D01*
X245029379Y-107336786D01*
X245187979Y-107633505D01*
X245401418Y-107893582D01*
X245470164Y-107950000D01*
X245401418Y-108006418D01*
X245187979Y-108266495D01*
X245029379Y-108563214D01*
X244931714Y-108885174D01*
X244898736Y-109220000D01*
X244931714Y-109554826D01*
X245029379Y-109876786D01*
X245187979Y-110173505D01*
X245401418Y-110433582D01*
X245477286Y-110495845D01*
X245371906Y-110587618D01*
X245167071Y-110852661D01*
X245017879Y-111152572D01*
X244936573Y-111443540D01*
X245134844Y-111710000D01*
X246965000Y-111710000D01*
X246965000Y-111690000D01*
X247065000Y-111690000D01*
X247065000Y-111710000D01*
X247085000Y-111710000D01*
X247085000Y-111810000D01*
X247065000Y-111810000D01*
X247065000Y-113468000D01*
X247465000Y-113468000D01*
X247797254Y-113425427D01*
X248114818Y-113318852D01*
X248147000Y-113300420D01*
X248147001Y-116052897D01*
X248130009Y-116078327D01*
X248008795Y-116370964D01*
X247947000Y-116681626D01*
X247947000Y-116998374D01*
X248008795Y-117309036D01*
X248130009Y-117601673D01*
X248305985Y-117865040D01*
X248529960Y-118089015D01*
X248793327Y-118264991D01*
X249085964Y-118386205D01*
X249396626Y-118448000D01*
X249713374Y-118448000D01*
X250024036Y-118386205D01*
X250316673Y-118264991D01*
X250342102Y-118248000D01*
X260280846Y-118248000D01*
X260350000Y-118254811D01*
X260419154Y-118248000D01*
X260419164Y-118248000D01*
X260626016Y-118227627D01*
X260891425Y-118147116D01*
X261136027Y-118016373D01*
X261350423Y-117840423D01*
X261394513Y-117786699D01*
X263939813Y-115241399D01*
X263961204Y-115281418D01*
X264180892Y-115549108D01*
X264206349Y-115570000D01*
X264180892Y-115590892D01*
X263961204Y-115858582D01*
X263797961Y-116163987D01*
X263697437Y-116495372D01*
X263663494Y-116840000D01*
X263697437Y-117184628D01*
X263797961Y-117516013D01*
X263961204Y-117821418D01*
X264180892Y-118089108D01*
X264206349Y-118110000D01*
X264180892Y-118130892D01*
X263961204Y-118398582D01*
X263797961Y-118703987D01*
X263697437Y-119035372D01*
X263663494Y-119380000D01*
X263697437Y-119724628D01*
X263797961Y-120056013D01*
X263961204Y-120361418D01*
X264180892Y-120629108D01*
X264206349Y-120650000D01*
X264180892Y-120670892D01*
X263961204Y-120938582D01*
X263797961Y-121243987D01*
X263697437Y-121575372D01*
X263663494Y-121920000D01*
X263697437Y-122264628D01*
X263797961Y-122596013D01*
X263961204Y-122901418D01*
X264180892Y-123169108D01*
X264448582Y-123388796D01*
X264753987Y-123552039D01*
X265085372Y-123652563D01*
X265343637Y-123678000D01*
X265516363Y-123678000D01*
X265774628Y-123652563D01*
X266106013Y-123552039D01*
X266411418Y-123388796D01*
X266679108Y-123169108D01*
X266700000Y-123143651D01*
X266720892Y-123169108D01*
X266988582Y-123388796D01*
X267293987Y-123552039D01*
X267625372Y-123652563D01*
X267883637Y-123678000D01*
X268056363Y-123678000D01*
X268314628Y-123652563D01*
X268646013Y-123552039D01*
X268951418Y-123388796D01*
X269219108Y-123169108D01*
X269438796Y-122901418D01*
X269602039Y-122596013D01*
X269702563Y-122264628D01*
X269736506Y-121920000D01*
X269702563Y-121575372D01*
X269602039Y-121243987D01*
X269438796Y-120938582D01*
X269219108Y-120670892D01*
X269193651Y-120650000D01*
X269219108Y-120629108D01*
X269438796Y-120361418D01*
X269602039Y-120056013D01*
X269702563Y-119724628D01*
X269736506Y-119380000D01*
X269702563Y-119035372D01*
X269602039Y-118703987D01*
X269438796Y-118398582D01*
X269219108Y-118130892D01*
X269193651Y-118110000D01*
X269219108Y-118089108D01*
X269438796Y-117821418D01*
X269602039Y-117516013D01*
X269702563Y-117184628D01*
X269736506Y-116840000D01*
X269702563Y-116495372D01*
X269602039Y-116163987D01*
X269438796Y-115858582D01*
X269219108Y-115590892D01*
X269193651Y-115570000D01*
X269219108Y-115549108D01*
X269438796Y-115281418D01*
X269602039Y-114976013D01*
X269702563Y-114644628D01*
X269736506Y-114300000D01*
X269702563Y-113955372D01*
X269602039Y-113623987D01*
X269438796Y-113318582D01*
X269219108Y-113050892D01*
X269193651Y-113030000D01*
X269219108Y-113009108D01*
X269438796Y-112741418D01*
X269602039Y-112436013D01*
X269702563Y-112104628D01*
X269736506Y-111760000D01*
X269702563Y-111415372D01*
X269602039Y-111083987D01*
X269438796Y-110778582D01*
X269219108Y-110510892D01*
X269193651Y-110490000D01*
X269219108Y-110469108D01*
X269438796Y-110201418D01*
X269602039Y-109896013D01*
X269702563Y-109564628D01*
X269736506Y-109220000D01*
X269702563Y-108875372D01*
X269602039Y-108543987D01*
X269438796Y-108238582D01*
X269219108Y-107970892D01*
X269193651Y-107950000D01*
X269219108Y-107929108D01*
X269438796Y-107661418D01*
X269602039Y-107356013D01*
X269702563Y-107024628D01*
X269736506Y-106680000D01*
X269702563Y-106335372D01*
X269602039Y-106003987D01*
X269438796Y-105698582D01*
X269219108Y-105430892D01*
X269193651Y-105410000D01*
X269219108Y-105389108D01*
X269438796Y-105121418D01*
X269602039Y-104816013D01*
X269702563Y-104484628D01*
X269736506Y-104140000D01*
X269702563Y-103795372D01*
X269602039Y-103463987D01*
X269438796Y-103158582D01*
X269219108Y-102890892D01*
X269193651Y-102870000D01*
X269219108Y-102849108D01*
X269438796Y-102581418D01*
X269602039Y-102276013D01*
X269702563Y-101944628D01*
X269736506Y-101600000D01*
X269702563Y-101255372D01*
X269602039Y-100923987D01*
X269438796Y-100618582D01*
X269219108Y-100350892D01*
X269188246Y-100325564D01*
X269199565Y-100316478D01*
X269421066Y-100052459D01*
X269586803Y-99750300D01*
X269690407Y-99421613D01*
X269697832Y-99384285D01*
X269500183Y-99110000D01*
X268020000Y-99110000D01*
X268020000Y-99130000D01*
X267920000Y-99130000D01*
X267920000Y-99110000D01*
X267900000Y-99110000D01*
X267900000Y-99010000D01*
X267920000Y-99010000D01*
X267920000Y-98990000D01*
X268020000Y-98990000D01*
X268020000Y-99010000D01*
X269500183Y-99010000D01*
X269697832Y-98735715D01*
X269690407Y-98698387D01*
X269586803Y-98369700D01*
X269421066Y-98067541D01*
X269199565Y-97803522D01*
X269188246Y-97794436D01*
X269219108Y-97769108D01*
X269438796Y-97501418D01*
X269602039Y-97196013D01*
X269702563Y-96864628D01*
X269736506Y-96520000D01*
X269702563Y-96175372D01*
X269602039Y-95843987D01*
X269438796Y-95538582D01*
X269219108Y-95270892D01*
X269193651Y-95250000D01*
X269219108Y-95229108D01*
X269438796Y-94961418D01*
X269602039Y-94656013D01*
X269702563Y-94324628D01*
X269736506Y-93980000D01*
X269702563Y-93635372D01*
X269602039Y-93303987D01*
X269438796Y-92998582D01*
X269219108Y-92730892D01*
X269193651Y-92710000D01*
X269219108Y-92689108D01*
X269438796Y-92421418D01*
X269602039Y-92116013D01*
X269702563Y-91784628D01*
X269736506Y-91440000D01*
X269702563Y-91095372D01*
X269602039Y-90763987D01*
X269438796Y-90458582D01*
X269219108Y-90190892D01*
X269193651Y-90170000D01*
X269219108Y-90149108D01*
X269438796Y-89881418D01*
X269602039Y-89576013D01*
X269702563Y-89244628D01*
X269736506Y-88900000D01*
X269702563Y-88555372D01*
X269602039Y-88223987D01*
X269438796Y-87918582D01*
X269219108Y-87650892D01*
X269193651Y-87630000D01*
X269219108Y-87609108D01*
X269438796Y-87341418D01*
X269602039Y-87036013D01*
X269702563Y-86704628D01*
X269736506Y-86360000D01*
X269702563Y-86015372D01*
X269602039Y-85683987D01*
X269438796Y-85378582D01*
X269219108Y-85110892D01*
X269193651Y-85090000D01*
X269219108Y-85069108D01*
X269438796Y-84801418D01*
X269602039Y-84496013D01*
X269702563Y-84164628D01*
X269736506Y-83820000D01*
X269702563Y-83475372D01*
X269602039Y-83143987D01*
X269438796Y-82838582D01*
X269219108Y-82570892D01*
X269193651Y-82550000D01*
X269219108Y-82529108D01*
X269438796Y-82261418D01*
X269602039Y-81956013D01*
X269702563Y-81624628D01*
X269736506Y-81280000D01*
X269702563Y-80935372D01*
X269602039Y-80603987D01*
X269438796Y-80298582D01*
X269314764Y-80147448D01*
X269516016Y-80127627D01*
X269781425Y-80047116D01*
X270026027Y-79916373D01*
X270240423Y-79740423D01*
X270284513Y-79686699D01*
X271456708Y-78514505D01*
X271510422Y-78470423D01*
X271554505Y-78416708D01*
X271554512Y-78416701D01*
X271686373Y-78256028D01*
X271817115Y-78011426D01*
X271817116Y-78011425D01*
X271897627Y-77746016D01*
X271918000Y-77539164D01*
X271918000Y-77539155D01*
X271924811Y-77470001D01*
X271918000Y-77400847D01*
X271918000Y-71824153D01*
X271924811Y-71754999D01*
X271918000Y-71685845D01*
X271918000Y-71685836D01*
X271897627Y-71478984D01*
X271817116Y-71213575D01*
X271756256Y-71099715D01*
X271686373Y-70968972D01*
X271554512Y-70808299D01*
X271554509Y-70808296D01*
X271510423Y-70754577D01*
X271456704Y-70710491D01*
X268743000Y-67996788D01*
X268743000Y-55314161D01*
X268749812Y-55245000D01*
X268743000Y-55175836D01*
X268722627Y-54968984D01*
X268642116Y-54703575D01*
X268642116Y-54703574D01*
X268511373Y-54458972D01*
X268379512Y-54298300D01*
X268335423Y-54244577D01*
X268281699Y-54200487D01*
X264569511Y-50488299D01*
X264525423Y-50434577D01*
X264311027Y-50258627D01*
X264066425Y-50127884D01*
X263801016Y-50047373D01*
X263594164Y-50027000D01*
X263594154Y-50027000D01*
X263525000Y-50020189D01*
X263455846Y-50027000D01*
X260101661Y-50027000D01*
X260032500Y-50020188D01*
X259963338Y-50027000D01*
X259963336Y-50027000D01*
X259756484Y-50047373D01*
X259571585Y-50103462D01*
X259491074Y-50127884D01*
X259246472Y-50258627D01*
X259192404Y-50303000D01*
X259032077Y-50434577D01*
X258987989Y-50488299D01*
X247384288Y-62092000D01*
X230574153Y-62092000D01*
X230504999Y-62085189D01*
X230435845Y-62092000D01*
X230435836Y-62092000D01*
X230228984Y-62112373D01*
X229963575Y-62192884D01*
X229849715Y-62253744D01*
X229718972Y-62323627D01*
X229558299Y-62455488D01*
X229558296Y-62455491D01*
X229504577Y-62499577D01*
X229460491Y-62553296D01*
X228288297Y-63725491D01*
X228234577Y-63769578D01*
X228190491Y-63823297D01*
X228190488Y-63823300D01*
X228103000Y-63929904D01*
X228103000Y-62934153D01*
X228109811Y-62864999D01*
X228103000Y-62795845D01*
X228103000Y-62795836D01*
X228082627Y-62588984D01*
X228002116Y-62323575D01*
X227871373Y-62078973D01*
X227849920Y-62052833D01*
X227739512Y-61918299D01*
X227739505Y-61918292D01*
X227695422Y-61864577D01*
X227641708Y-61820496D01*
X226308964Y-60487751D01*
X226360175Y-60503286D01*
X226695000Y-60536264D01*
X227029826Y-60503286D01*
X227351786Y-60405621D01*
X227648505Y-60247021D01*
X227908582Y-60033582D01*
X227965000Y-59964836D01*
X228021419Y-60033582D01*
X228281496Y-60247021D01*
X228578215Y-60405621D01*
X228900175Y-60503286D01*
X229235000Y-60536264D01*
X229569826Y-60503286D01*
X229891786Y-60405621D01*
X230188505Y-60247021D01*
X230448582Y-60033582D01*
X230510845Y-59957714D01*
X230602618Y-60063094D01*
X230867661Y-60267929D01*
X231167572Y-60417121D01*
X231458540Y-60498427D01*
X231725000Y-60300156D01*
X231725000Y-58470000D01*
X231825000Y-58470000D01*
X231825000Y-60300156D01*
X232091460Y-60498427D01*
X232382428Y-60417121D01*
X232682339Y-60267929D01*
X232947382Y-60063094D01*
X233167371Y-59810488D01*
X233333852Y-59519818D01*
X233440427Y-59202254D01*
X233483000Y-58870000D01*
X233483000Y-58470000D01*
X231825000Y-58470000D01*
X231725000Y-58470000D01*
X231705000Y-58470000D01*
X231705000Y-58370000D01*
X231725000Y-58370000D01*
X231725000Y-56539844D01*
X231825000Y-56539844D01*
X231825000Y-58370000D01*
X233483000Y-58370000D01*
X233483000Y-57970000D01*
X233440427Y-57637746D01*
X233333852Y-57320182D01*
X233167371Y-57029512D01*
X232947382Y-56776906D01*
X232682339Y-56572071D01*
X232382428Y-56422879D01*
X232091460Y-56341573D01*
X231825000Y-56539844D01*
X231725000Y-56539844D01*
X231458540Y-56341573D01*
X231167572Y-56422879D01*
X230867661Y-56572071D01*
X230643000Y-56745697D01*
X230643000Y-52843000D01*
X234608318Y-52843000D01*
X234631495Y-52862021D01*
X234928214Y-53020621D01*
X235250174Y-53118286D01*
X235501096Y-53143000D01*
X235668904Y-53143000D01*
X235919826Y-53118286D01*
X236241786Y-53020621D01*
X236538505Y-52862021D01*
X236798582Y-52648582D01*
X237012021Y-52388505D01*
X237170621Y-52091786D01*
X237268286Y-51769826D01*
X237301264Y-51435000D01*
X237268286Y-51100174D01*
X237170621Y-50778214D01*
X237012021Y-50481495D01*
X236798582Y-50221418D01*
X236538505Y-50007979D01*
X236241786Y-49849379D01*
X235919826Y-49751714D01*
X235668904Y-49727000D01*
X235501096Y-49727000D01*
X235250174Y-49751714D01*
X234928214Y-49849379D01*
X234631495Y-50007979D01*
X234608318Y-50027000D01*
X229818213Y-50027000D01*
X227739513Y-47948301D01*
X227695423Y-47894577D01*
X227481027Y-47718627D01*
X227236425Y-47587884D01*
X226971016Y-47507373D01*
X226764164Y-47487000D01*
X226764154Y-47487000D01*
X226695000Y-47480189D01*
X226625846Y-47487000D01*
X219779153Y-47487000D01*
X219709999Y-47480189D01*
X219640845Y-47487000D01*
X219640836Y-47487000D01*
X219433984Y-47507373D01*
X219168575Y-47587884D01*
X219054715Y-47648744D01*
X218923972Y-47718627D01*
X218763299Y-47850488D01*
X218763296Y-47850491D01*
X218709577Y-47894577D01*
X218665491Y-47948296D01*
X215951788Y-50662000D01*
X192474153Y-50662000D01*
X192404999Y-50655189D01*
X192335845Y-50662000D01*
X192335836Y-50662000D01*
X192128984Y-50682373D01*
X191863575Y-50762884D01*
X191834895Y-50778214D01*
X191618972Y-50893627D01*
X191458299Y-51025488D01*
X191458296Y-51025491D01*
X191404577Y-51069577D01*
X191360491Y-51123296D01*
X190188296Y-52295491D01*
X190134578Y-52339577D01*
X190090492Y-52393296D01*
X190090488Y-52393300D01*
X189958627Y-52553973D01*
X189827885Y-52798575D01*
X189747374Y-53063984D01*
X189720189Y-53340000D01*
X188283000Y-53340000D01*
X188283000Y-46043000D01*
X272727000Y-46043000D01*
X272727001Y-162872000D01*
G36*
X260151204Y-58073582D02*
X259987961Y-58378987D01*
X259887437Y-58710372D01*
X259878044Y-58805744D01*
X259403296Y-59280491D01*
X259349578Y-59324577D01*
X259305492Y-59378296D01*
X259305488Y-59378300D01*
X259173627Y-59538973D01*
X259042885Y-59783575D01*
X258962374Y-60048984D01*
X258935189Y-60325000D01*
X258942001Y-60394163D01*
X258942000Y-99111788D01*
X257861788Y-100192000D01*
X256315534Y-100192000D01*
X256462021Y-100013505D01*
X256620621Y-99716786D01*
X256718286Y-99394826D01*
X256751264Y-99060000D01*
X256718286Y-98725174D01*
X256620621Y-98403214D01*
X256462021Y-98106495D01*
X256248582Y-97846418D01*
X256179836Y-97790000D01*
X256248582Y-97733582D01*
X256462021Y-97473505D01*
X256620621Y-97176786D01*
X256718286Y-96854826D01*
X256751264Y-96520000D01*
X256718286Y-96185174D01*
X256620621Y-95863214D01*
X256462021Y-95566495D01*
X256248582Y-95306418D01*
X256043000Y-95137702D01*
X256043000Y-93414153D01*
X256049811Y-93344999D01*
X256043000Y-93275845D01*
X256043000Y-93275836D01*
X256022627Y-93068984D01*
X255942116Y-92803575D01*
X255880932Y-92689108D01*
X255811373Y-92558972D01*
X255679512Y-92398299D01*
X255679505Y-92398292D01*
X255635422Y-92344577D01*
X255581708Y-92300495D01*
X254409513Y-91128301D01*
X254365423Y-91074577D01*
X254151027Y-90898627D01*
X253906425Y-90767884D01*
X253641016Y-90687373D01*
X253434164Y-90667000D01*
X253434154Y-90667000D01*
X253365000Y-90660189D01*
X253295846Y-90667000D01*
X233749164Y-90667000D01*
X233680000Y-90660188D01*
X233610836Y-90667000D01*
X228103000Y-90667000D01*
X228103000Y-76037000D01*
X234167000Y-76037000D01*
X234167000Y-82953000D01*
X254783000Y-82953000D01*
X254783000Y-76037000D01*
X234167000Y-76037000D01*
X228103000Y-76037000D01*
X228103000Y-67720534D01*
X228281496Y-67867021D01*
X228578215Y-68025621D01*
X228900175Y-68123286D01*
X229235000Y-68156264D01*
X229569826Y-68123286D01*
X229891786Y-68025621D01*
X230188505Y-67867021D01*
X230448582Y-67653582D01*
X230505000Y-67584836D01*
X230561419Y-67653582D01*
X230821496Y-67867021D01*
X231118215Y-68025621D01*
X231440175Y-68123286D01*
X231775000Y-68156264D01*
X232109826Y-68123286D01*
X232431786Y-68025621D01*
X232728505Y-67867021D01*
X232988582Y-67653582D01*
X233157298Y-67448000D01*
X248850846Y-67448000D01*
X248920000Y-67454811D01*
X248989154Y-67448000D01*
X248989164Y-67448000D01*
X249196016Y-67427627D01*
X249461425Y-67347116D01*
X249706027Y-67216373D01*
X249920423Y-67040423D01*
X249964513Y-66986699D01*
X259028213Y-57923000D01*
X260274784Y-57923000D01*
X260151204Y-58073582D01*
X260151204Y-58073582D01*
G37*
X260151204Y-58073582D02*
X259987961Y-58378987D01*
X259887437Y-58710372D01*
X259878044Y-58805744D01*
X259403296Y-59280491D01*
X259349578Y-59324577D01*
X259305492Y-59378296D01*
X259305488Y-59378300D01*
X259173627Y-59538973D01*
X259042885Y-59783575D01*
X258962374Y-60048984D01*
X258935189Y-60325000D01*
X258942001Y-60394163D01*
X258942000Y-99111788D01*
X257861788Y-100192000D01*
X256315534Y-100192000D01*
X256462021Y-100013505D01*
X256620621Y-99716786D01*
X256718286Y-99394826D01*
X256751264Y-99060000D01*
X256718286Y-98725174D01*
X256620621Y-98403214D01*
X256462021Y-98106495D01*
X256248582Y-97846418D01*
X256179836Y-97790000D01*
X256248582Y-97733582D01*
X256462021Y-97473505D01*
X256620621Y-97176786D01*
X256718286Y-96854826D01*
X256751264Y-96520000D01*
X256718286Y-96185174D01*
X256620621Y-95863214D01*
X256462021Y-95566495D01*
X256248582Y-95306418D01*
X256043000Y-95137702D01*
X256043000Y-93414153D01*
X256049811Y-93344999D01*
X256043000Y-93275845D01*
X256043000Y-93275836D01*
X256022627Y-93068984D01*
X255942116Y-92803575D01*
X255880932Y-92689108D01*
X255811373Y-92558972D01*
X255679512Y-92398299D01*
X255679505Y-92398292D01*
X255635422Y-92344577D01*
X255581708Y-92300495D01*
X254409513Y-91128301D01*
X254365423Y-91074577D01*
X254151027Y-90898627D01*
X253906425Y-90767884D01*
X253641016Y-90687373D01*
X253434164Y-90667000D01*
X253434154Y-90667000D01*
X253365000Y-90660189D01*
X253295846Y-90667000D01*
X233749164Y-90667000D01*
X233680000Y-90660188D01*
X233610836Y-90667000D01*
X228103000Y-90667000D01*
X228103000Y-76037000D01*
X234167000Y-76037000D01*
X234167000Y-82953000D01*
X254783000Y-82953000D01*
X254783000Y-76037000D01*
X234167000Y-76037000D01*
X228103000Y-76037000D01*
X228103000Y-67720534D01*
X228281496Y-67867021D01*
X228578215Y-68025621D01*
X228900175Y-68123286D01*
X229235000Y-68156264D01*
X229569826Y-68123286D01*
X229891786Y-68025621D01*
X230188505Y-67867021D01*
X230448582Y-67653582D01*
X230505000Y-67584836D01*
X230561419Y-67653582D01*
X230821496Y-67867021D01*
X231118215Y-68025621D01*
X231440175Y-68123286D01*
X231775000Y-68156264D01*
X232109826Y-68123286D01*
X232431786Y-68025621D01*
X232728505Y-67867021D01*
X232988582Y-67653582D01*
X233157298Y-67448000D01*
X248850846Y-67448000D01*
X248920000Y-67454811D01*
X248989154Y-67448000D01*
X248989164Y-67448000D01*
X249196016Y-67427627D01*
X249461425Y-67347116D01*
X249706027Y-67216373D01*
X249920423Y-67040423D01*
X249964513Y-66986699D01*
X259028213Y-57923000D01*
X260274784Y-57923000D01*
X260151204Y-58073582D01*
%TD*%
M02*
