M48
;DRILL file {KiCad (5.0.1)-4} date 18/03/2021 16:30:50
;FORMAT={-:-/ absolute / metric / decimal}
FMAT,2
METRIC,TZ
T1C0.800
T2C1.000
T3C1.300
%
G90
G05
M71
T1
X212.09Y-93.98
X212.09Y-110.49
X212.09Y-114.3
X212.09Y-124.46
X215.265Y-96.52
X219.71Y-92.075
X229.235Y-116.84
X238.125Y-58.42
X238.125Y-69.215
X249.555Y-116.84
X230.505Y-130.81
X230.505Y-140.97
X235.585Y-130.81
X235.585Y-140.97
X196.215Y-141.605
X196.215Y-146.685
X198.755Y-144.145
X247.015Y-96.52
X247.015Y-99.06
X247.015Y-101.6
X247.015Y-104.14
X247.015Y-106.68
X247.015Y-109.22
X247.015Y-111.76
X254.635Y-96.52
X254.635Y-99.06
X254.635Y-101.6
X254.635Y-104.14
X254.635Y-106.68
X254.635Y-109.22
X254.635Y-111.76
X243.84Y-134.62
X243.84Y-137.16
X243.84Y-139.7
X243.84Y-142.24
X251.46Y-134.62
X251.46Y-137.16
X251.46Y-139.7
X251.46Y-142.24
X196.215Y-131.445
X196.215Y-136.525
X198.755Y-133.985
X224.155Y-58.42
X224.155Y-66.04
X226.695Y-58.42
X226.695Y-66.04
X229.235Y-58.42
X229.235Y-66.04
X231.775Y-58.42
X231.775Y-66.04
X215.265Y-130.81
X215.265Y-140.97
X196.215Y-151.765
X196.215Y-156.845
X198.755Y-154.305
X260.35Y-137.795
X262.89Y-135.255
X262.89Y-140.335
X243.84Y-153.035
X254.Y-153.035
X226.06Y-96.52
X226.06Y-99.06
X226.06Y-101.6
X226.06Y-104.14
X226.06Y-106.68
X226.06Y-109.22
X226.06Y-111.76
X233.68Y-96.52
X233.68Y-99.06
X233.68Y-101.6
X233.68Y-104.14
X233.68Y-106.68
X233.68Y-109.22
X233.68Y-111.76
X220.345Y-130.81
X220.345Y-140.97
X225.425Y-130.81
X225.425Y-140.97
X219.075Y-66.04
X219.075Y-81.28
X220.345Y-51.435
X235.585Y-51.435
T2
X261.62Y-53.975
X261.62Y-56.515
X261.62Y-59.055
X205.105Y-73.66
X205.105Y-76.2
X205.105Y-78.74
X205.105Y-81.28
X205.105Y-83.82
X205.105Y-86.36
X205.105Y-88.9
X205.105Y-91.44
X205.105Y-93.98
X205.105Y-96.52
X205.105Y-99.06
X205.105Y-101.6
X205.105Y-104.14
X205.105Y-106.68
X205.105Y-109.22
X205.105Y-111.76
X205.105Y-114.3
X205.105Y-116.84
X205.105Y-119.38
X205.105Y-121.92
X207.645Y-73.66
X207.645Y-76.2
X207.645Y-78.74
X207.645Y-81.28
X207.645Y-83.82
X207.645Y-86.36
X207.645Y-88.9
X207.645Y-91.44
X207.645Y-93.98
X207.645Y-96.52
X207.645Y-99.06
X207.645Y-101.6
X207.645Y-104.14
X207.645Y-106.68
X207.645Y-109.22
X207.645Y-111.76
X207.645Y-114.3
X207.645Y-116.84
X207.645Y-119.38
X207.645Y-121.92
X193.675Y-55.245
X193.675Y-57.785
X193.675Y-60.325
X196.215Y-55.245
X196.215Y-57.785
X196.215Y-60.325
X265.43Y-73.66
X265.43Y-76.2
X265.43Y-78.74
X265.43Y-81.28
X265.43Y-83.82
X265.43Y-86.36
X265.43Y-88.9
X265.43Y-91.44
X265.43Y-93.98
X265.43Y-96.52
X265.43Y-99.06
X265.43Y-101.6
X265.43Y-104.14
X265.43Y-106.68
X265.43Y-109.22
X265.43Y-111.76
X265.43Y-114.3
X265.43Y-116.84
X265.43Y-119.38
X265.43Y-121.92
X267.97Y-73.66
X267.97Y-76.2
X267.97Y-78.74
X267.97Y-81.28
X267.97Y-83.82
X267.97Y-86.36
X267.97Y-88.9
X267.97Y-91.44
X267.97Y-93.98
X267.97Y-96.52
X267.97Y-99.06
X267.97Y-101.6
X267.97Y-104.14
X267.97Y-106.68
X267.97Y-109.22
X267.97Y-111.76
X267.97Y-114.3
X267.97Y-116.84
X267.97Y-119.38
X267.97Y-121.92
T3
X263.525Y-153.035
X268.605Y-153.035
X211.455Y-155.575
X216.535Y-155.575
X227.33Y-155.575
X232.41Y-155.575
T0
M30
